<?xml version="1.0" encoding="UTF-8" standalone="no"?>
<svg
   xmlns:dc="http://purl.org/dc/elements/1.1/"
   xmlns:cc="http://creativecommons.org/ns#"
   xmlns:rdf="http://www.w3.org/1999/02/22-rdf-syntax-ns#"
   xmlns:svg="http://www.w3.org/2000/svg"
   xmlns="http://www.w3.org/2000/svg"
   viewBox="0 0 600 450.00339"
   height="450.00339"
   width="600"
   xml:space="preserve"
   version="1.1"
   id="svg3421"><metadata
     id="metadata3427"><rdf:RDF><cc:Work
         rdf:about=""><dc:format>image/svg+xml</dc:format><dc:type
           rdf:resource="http://purl.org/dc/dcmitype/StillImage" /><dc:title></dc:title></cc:Work></rdf:RDF></metadata><defs
     id="defs3425" /><g
     transform="matrix(1.25,0,0,-1.25,0,450.00339)"
     id="g3429"><g
       id="g3431"><path
         id="path3433"
         style="fill:#ffffff;fill-opacity:1;fill-rule:nonzero;stroke:none"
         d="m 31.996,359.772 c -17.504,0 -31.754,-14.25 -31.754,-31.765 l 0,-296.008 c 0,-17.508 14.25,-31.758 31.754,-31.758 l 416.008,0 c 17.516,0 31.766,14.25 31.766,31.758 l 0,296.008 c 0,17.515 -14.25,31.765 -31.766,31.765" /><path
         id="path3435"
         style="fill:#000000;fill-opacity:1;fill-rule:nonzero;stroke:none"
         d="M 31.996,0.468 C 14.613,0.468 0.477,14.612 0.477,31.999 l 0,296.008 c 0,17.382 14.136,31.523 31.519,31.523 l 416.008,0 c 17.383,0 31.519,-14.141 31.519,-31.523 l 0,-296.008 c 0,-17.387 -14.136,-31.531 -31.519,-31.531 l -416.008,0 z m 416.008,359.535 -416.008,0 C 14.328,360.003 0,345.675 0,328.007 L 0,31.999 c 0,-17.672 14.328,-32 31.996,-32 l 416.008,0 c 17.668,0 31.996,14.328 31.996,32 l 0,296.008 c 0,17.668 -14.328,31.996 -31.996,31.996" /><path
         id="path3437"
         style="fill:#000000;fill-opacity:1;fill-rule:nonzero;stroke:none"
         d="m 31.996,352.011 c -13.25,0 -23.992,-10.747 -23.992,-24.004 l 0,-296.008 c 0,-13.25 10.742,-24.004 23.992,-24.004 l 416.008,0 c 13.25,0 24.004,10.754 24.004,24.004 l 0,296.008 c 0,13.257 -10.754,24.004 -24.004,24.004 l -416.008,0 z m 0,-12.008 416.008,0 c 6.629,0 12.004,-5.367 12.004,-11.996 l 0,-296.008 c 0,-6.633 -5.375,-11.996 -12.004,-11.996 l -416.008,0 C 25.379,20.003 20,25.366 20,31.999 l 0,296.008 c 0,6.629 5.379,11.996 11.996,11.996 z" /><path
         id="path3439"
         style="fill:#000000;fill-opacity:1;fill-rule:nonzero;stroke:none"
         d="m 166.258,204.436 0,46.934 c 0,8.254 -1.738,15.207 -7.387,20.711 -4.344,4.199 -10.574,6.664 -18.105,6.664 -7.387,0 -14.485,-2.754 -19.555,-8.258 l 0,7.387 -14.484,0 0,-73.438 14.773,0 0,44.758 c 0,11.301 6.953,16.367 15.211,16.367 8.254,0 14.773,-4.922 14.773,-16.367 l 0,-44.758 14.774,0 z" /><path
         id="path3441"
         style="fill:#000000;fill-opacity:1;fill-rule:nonzero;stroke:none"
         d="m 236.961,241.229 c 0,12.313 -1.738,21.582 -8.691,28.824 -4.778,4.926 -12.02,8.692 -22.016,8.692 -9.992,0 -17.09,-3.766 -21.871,-8.692 -6.953,-7.242 -8.692,-16.511 -8.692,-28.824 0,-12.457 1.739,-21.726 8.692,-28.968 4.781,-4.926 11.879,-8.692 21.871,-8.692 9.996,0 17.238,3.766 22.016,8.692 6.953,7.242 8.691,16.511 8.691,28.968 z m -14.773,0 c 0,-7.968 -0.579,-15.644 -5.071,-20.133 -2.75,-2.753 -6.515,-4.347 -10.863,-4.347 -4.344,0 -7.965,1.594 -10.719,4.347 -4.488,4.489 -5.07,12.165 -5.07,20.133 0,7.965 0.582,15.645 5.07,20.133 2.754,2.754 6.375,4.199 10.719,4.199 4.348,0 8.113,-1.445 10.863,-4.199 4.492,-4.488 5.071,-12.168 5.071,-20.133 z" /><path
         id="path3443"
         style="fill:#000000;fill-opacity:1;fill-rule:nonzero;stroke:none"
         d="m 303.441,213.999 -10.136,9.703 c -4.637,-5.07 -8.258,-6.953 -14.051,-6.953 -5.649,0 -10.43,2.32 -13.617,6.519 -3.184,4.055 -4.344,9.414 -4.344,17.961 0,8.547 1.16,13.762 4.344,17.817 3.187,4.199 7.968,6.515 13.617,6.515 5.793,0 9.414,-1.883 14.051,-6.949 l 10.136,9.848 c -6.953,7.386 -14.046,10.285 -24.187,10.285 -16.512,0 -32.734,-9.996 -32.734,-37.516 0,-27.519 16.222,-37.66 32.734,-37.66 10.141,0 17.234,3.043 24.187,10.43 z" /><path
         id="path3445"
         style="fill:#000000;fill-opacity:1;fill-rule:nonzero;stroke:none"
         d="m 373.285,204.436 0,47.367 c 0,15.934 -9.125,26.942 -25.492,26.942 -7.242,0 -13.906,-2.754 -18.973,-8.258 l 0,37.082 -14.777,0 0,-103.133 14.777,0 0,45.051 c 0,11.008 6.66,16.074 14.918,16.074 8.254,0 14.774,-4.922 14.774,-16.074 l 0,-45.051 14.773,0 z" /><path
         id="path3447"
         style="fill:#000000;fill-opacity:1;fill-rule:nonzero;stroke:none"
         d="m 132.918,87.296 c 0,9.531 -1.137,19.347 -8.82,27.027 -4.125,4.125 -10.243,6.543 -18.207,6.543 -7.399,0 -13.371,-2.273 -16.786,-5.832 l 0,26.746 41.536,0 0,12.941 -54.625,0 0,-55.335 13.23,0 c 1.566,4.98 6.117,9.105 14.367,9.105 11.664,0 14.797,-9.105 14.797,-21.195 0,-6.828 -0.57,-13.516 -4.84,-17.782 -2.558,-2.562 -6.258,-3.984 -10.523,-3.984 -9.106,0 -13.656,5.121 -14.797,14.086 l -14.508,0 c 0.567,-7.258 2.274,-13.941 7.68,-19.348 4.41,-4.41 11.949,-7.824 21.625,-7.824 9.812,0 16.785,3.414 21.336,7.965 7.398,7.398 8.535,16.074 8.535,26.887 z" /><path
         id="path3449"
         style="fill:#000000;fill-opacity:1;fill-rule:nonzero;stroke:none"
         d="m 207.77,81.604 0,44.953 c 0,18.067 -13.227,29.02 -29.301,29.02 -16.074,0 -29.164,-10.953 -29.164,-29.02 l 0,-44.953 c 0,-18.066 13.09,-29.019 29.164,-29.019 16.074,0 29.301,10.953 29.301,29.019 z m -14.508,0.43 c 0,-9.816 -5.547,-16.504 -14.793,-16.504 -9.246,0 -14.653,6.688 -14.653,16.504 l 0,44.098 c 0,9.812 5.407,16.5 14.653,16.5 9.246,0 14.793,-6.688 14.793,-16.5 l 0,-44.098 z" /><path
         id="path3451"
         style="fill:#000000;fill-opacity:1;fill-rule:nonzero;stroke:none"
         d="m 283.621,81.604 0,44.953 c 0,18.067 -13.23,29.02 -29.305,29.02 -16.074,0 -29.16,-10.953 -29.16,-29.02 l 0,-44.953 c 0,-18.066 13.086,-29.019 29.16,-29.019 16.075,0 29.305,10.953 29.305,29.019 z m -14.512,0.43 c 0,-9.816 -5.547,-16.504 -14.793,-16.504 -9.246,0 -14.652,6.688 -14.652,16.504 l 0,44.098 c 0,9.812 5.406,16.5 14.652,16.5 9.246,0 14.793,-6.688 14.793,-16.5 l 0,-44.098 z" /><path
         id="path3453"
         style="fill:#000000;fill-opacity:1;fill-rule:nonzero;stroke:none"
         d="m 406.27,53.44 0,46.09 c 0,8.109 -2.133,14.938 -7.68,20.34 -4.27,4.125 -10.813,6.547 -18.207,6.547 -9.531,0 -16.789,-3.414 -22.621,-10.528 -4.551,6.969 -11.52,10.528 -20.485,10.528 -7.254,0 -14.367,-2.848 -19.203,-8.11 l 0,7.254 -14.226,0 0,-72.121 14.511,0 0,43.957 c 0,11.094 6.829,16.074 14.938,16.074 8.105,0 14.508,-4.835 14.508,-16.074 l 0,-43.957 14.511,0 0,44.668 c 0,10.383 7.11,15.363 14.934,15.363 8.109,0 14.512,-4.835 14.512,-16.074 l 0,-43.957 14.508,0 z" /></g></g></svg>