<?xml version="1.0" encoding="UTF-8" standalone="no"?>
<svg
   xmlns:dc="http://purl.org/dc/elements/1.1/"
   xmlns:cc="http://creativecommons.org/ns#"
   xmlns:rdf="http://www.w3.org/1999/02/22-rdf-syntax-ns#"
   xmlns:svg="http://www.w3.org/2000/svg"
   xmlns="http://www.w3.org/2000/svg"
   viewBox="0 0 1250 500.005"
   height="500.005"
   width="1250"
   xml:space="preserve"
   version="1.1"
   id="svg3763"><metadata
     id="metadata3769"><rdf:RDF><cc:Work
         rdf:about=""><dc:format>image/svg+xml</dc:format><dc:type
           rdf:resource="http://purl.org/dc/dcmitype/StillImage" /><dc:title></dc:title></cc:Work></rdf:RDF></metadata><defs
     id="defs3767" /><g
     transform="matrix(1.25,0,0,-1.25,0,500.005)"
     id="g3771"><g
       id="g3773"><path
         id="path3775"
         style="fill:#ffffff;fill-opacity:1;fill-rule:nonzero;stroke:none"
         d="m 47.996,399.508 c -26.187,0 -47.5,-21.313 -47.5,-47.516 l 0,-303.996 c 0,-26.187 21.313,-47.5 47.5,-47.5 l 904.012,0 c 26.183,0 47.496,21.313 47.496,47.5 l 0,303.996 c 0,26.203 -21.313,47.516 -47.496,47.516" /><path
         id="path3777"
         style="fill:#000000;fill-opacity:1;fill-rule:nonzero;stroke:none"
         d="M 47.996,400.004 C 21.488,400.004 0,378.504 0,351.992 L 0,47.996 C 0,21.484 21.488,0 47.996,0 L 952.008,0 C 978.516,0 1000,21.484 1000,47.996 l 0,303.996 c 0,26.512 -21.484,48.012 -47.992,48.012 l -904.012,0 z m 0,-0.496 904.012,0 c 26.183,0 47.496,-21.313 47.496,-47.516 l 0,-303.996 c 0,-26.187 -21.313,-47.5 -47.496,-47.5 l -904.012,0 c -26.184,0 -47.5,21.313 -47.5,47.5 l 0,303.996 c 0,26.203 21.316,47.516 47.5,47.516 z" /><path
         id="path3779"
         style="fill:#000000;fill-opacity:1;fill-rule:nonzero;stroke:none"
         d="M 47.996,388.004 C 28.117,388.004 12,371.887 12,351.992 L 12,47.996 C 12,28.117 28.117,12 47.996,12 l 904.012,0 C 971.883,12 988,28.117 988,47.996 l 0,303.996 c 0,19.895 -16.117,36.012 -35.992,36.012 l -904.012,0 z m 0,-15.996 904.012,0 c 11.039,0 19.996,-8.957 19.996,-20.016 l 0,-303.996 c 0,-11.043 -8.957,-20 -19.996,-20 l -904.012,0 c -11.043,0 -20,8.957 -20,20 l 0,303.996 c 0,11.059 8.957,20.016 20,20.016 z" /><path
         id="path3781"
         style="fill:#000000;fill-opacity:1;fill-rule:nonzero;stroke:none"
         d="m 195.34,135.098 0,61.804 c 0,20.969 -12.762,31.723 -38.106,31.723 -15.316,0 -24.429,-3.098 -33.183,-13.309 l 12.215,-11.484 c 5.105,6.563 10.031,8.934 20.238,8.934 14.406,0 20.238,-5.653 20.238,-17.321 l 0,-6.566 -24.43,0 c -21.148,0 -31.906,-11.121 -31.906,-26.617 0,-7.84 2.551,-14.949 7.293,-19.875 5.653,-5.649 13.309,-8.387 24.793,-8.387 11.488,0 17.867,2.738 24.613,9.484 l 0,-8.386 18.235,0 z m -18.598,33.363 c 0,-6.562 -1.277,-10.941 -4.012,-13.676 -4.921,-4.738 -10.21,-5.285 -17.32,-5.285 -11.668,0 -16.953,4.738 -16.953,13.125 0,8.387 5.648,13.313 16.59,13.313 l 21.695,0 0,-7.477 z" /><path
         id="path3783"
         style="fill:#000000;fill-opacity:1;fill-rule:nonzero;stroke:none"
         d="m 289.855,135.098 0,92.433 -18.593,0 0,-56.336 c 0,-14.222 -8.754,-20.601 -19.145,-20.601 -10.39,0 -18.597,6.199 -18.597,20.601 l 0,56.336 -18.598,0 0,-59.07 c 0,-10.395 2.191,-19.145 9.301,-26.074 5.468,-5.285 13.308,-8.387 22.789,-8.387 9.297,0 18.23,3.465 24.613,10.395 l 0,-9.297 18.23,0 z" /><path
         id="path3785"
         style="fill:#000000;fill-opacity:1;fill-rule:nonzero;stroke:none"
         d="m 348.188,211.672 0,14.219 -18.415,0 0,13.308 c 0,6.746 3.282,10.758 10.211,10.758 l 8.204,0 0,15.863 -11.668,0 c -17.321,0 -25.344,-12.398 -25.344,-25.707 l 0,-14.222 -10.574,0 0,-14.219 10.574,0 0,-76.574 18.597,0 0,76.574 18.415,0 z" /><path
         id="path3787"
         style="fill:#000000;fill-opacity:1;fill-rule:nonzero;stroke:none"
         d="m 492.121,171.742 c 0,15.496 -8.75,24.977 -17.867,30.449 8.387,5.102 15.68,14.219 15.68,27.895 0,21.695 -16.774,35.914 -37.922,35.914 -21.149,0 -37.742,-14.219 -37.742,-35.914 0,-13.676 7.292,-22.793 15.679,-27.895 -9.113,-5.472 -17.867,-14.953 -17.867,-30.449 0,-23.519 17.688,-37.742 39.93,-37.742 22.242,0 40.109,14.223 40.109,37.742 z m -20.785,57.797 c 0,-11.488 -8.02,-19.691 -19.324,-19.691 -11.305,0 -19.145,8.203 -19.145,19.691 0,11.301 7.84,19.871 19.145,19.871 11.304,0 19.324,-8.57 19.324,-19.871 z m 2.008,-57.433 c 0,-12.032 -9.301,-21.512 -21.332,-21.512 -12.035,0 -21.332,9.48 -21.332,21.512 0,12.035 9.297,21.699 21.332,21.699 12.031,0 21.332,-9.664 21.332,-21.699 z" /><path
         id="path3789"
         style="fill:#000000;fill-opacity:1;fill-rule:nonzero;stroke:none"
         d="m 581.984,171.195 0,57.614 c 0,23.156 -16.957,37.191 -37.558,37.191 -20.602,0 -37.375,-14.035 -37.375,-37.191 l 0,-57.614 c 0,-23.156 16.773,-37.195 37.375,-37.195 20.601,0 37.558,14.039 37.558,37.195 z m -18.597,0.547 c 0,-12.578 -7.11,-21.148 -18.961,-21.148 -11.852,0 -18.781,8.57 -18.781,21.148 l 0,56.52 c 0,12.578 6.929,21.148 18.781,21.148 11.851,0 18.961,-8.57 18.961,-21.148 l 0,-56.52 z" /><path
         id="path3791"
         style="fill:#000000;fill-opacity:1;fill-rule:nonzero;stroke:none"
         d="m 675.996,171.195 0,57.614 c 0,23.156 -16.953,37.191 -37.558,37.191 -20.602,0 -37.376,-14.035 -37.376,-37.191 l 0,-57.614 c 0,-23.156 16.774,-37.195 37.376,-37.195 20.605,0 37.558,14.039 37.558,37.195 z m -18.594,0.547 c 0,-12.578 -7.113,-21.148 -18.964,-21.148 -11.848,0 -18.778,8.57 -18.778,21.148 l 0,56.52 c 0,12.578 6.93,21.148 18.778,21.148 11.851,0 18.964,-8.57 18.964,-21.148 l 0,-56.52 z" /><path
         id="path3793"
         style="fill:#000000;fill-opacity:1;fill-rule:nonzero;stroke:none"
         d="m 879.594,135.098 0,59.07 c 0,10.391 -2.735,19.145 -9.844,26.07 -5.469,5.289 -13.855,8.387 -23.336,8.387 -12.219,0 -21.516,-4.375 -28.992,-13.492 -5.832,8.933 -14.766,13.492 -26.254,13.492 -9.297,0 -18.414,-3.644 -24.613,-10.391 l 0,9.297 -18.231,0 0,-92.433 18.598,0 0,56.336 c 0,14.218 8.75,20.601 19.14,20.601 10.395,0 18.598,-6.199 18.598,-20.601 l 0,-56.336 18.598,0 0,57.246 c 0,13.308 9.117,19.691 19.144,19.691 10.391,0 18.594,-6.199 18.594,-20.601 l 0,-56.336 18.598,0 z" /></g></g></svg>