<?xml version="1.0" encoding="UTF-8" standalone="no"?>
<svg
   xmlns:dc="http://purl.org/dc/elements/1.1/"
   xmlns:cc="http://creativecommons.org/ns#"
   xmlns:rdf="http://www.w3.org/1999/02/22-rdf-syntax-ns#"
   xmlns:svg="http://www.w3.org/2000/svg"
   xmlns="http://www.w3.org/2000/svg"
   viewBox="0 0 600 450.00339"
   height="450.00339"
   width="600"
   xml:space="preserve"
   version="1.1"
   id="svg3628"><metadata
     id="metadata3634"><rdf:RDF><cc:Work
         rdf:about=""><dc:format>image/svg+xml</dc:format><dc:type
           rdf:resource="http://purl.org/dc/dcmitype/StillImage" /><dc:title></dc:title></cc:Work></rdf:RDF></metadata><defs
     id="defs3632" /><g
     transform="matrix(1.25,0,0,-1.25,0,450.00339)"
     id="g3636"><g
       id="g3638"><path
         id="path3640"
         style="fill:#ffffff;fill-opacity:1;fill-rule:nonzero;stroke:none"
         d="m 31.996,359.772 c -17.504,0 -31.754,-14.25 -31.754,-31.765 l 0,-296.008 c 0,-17.508 14.25,-31.758 31.754,-31.758 l 416.008,0 c 17.516,0 31.766,14.25 31.766,31.758 l 0,296.008 c 0,17.515 -14.25,31.765 -31.766,31.765" /><path
         id="path3642"
         style="fill:#000000;fill-opacity:1;fill-rule:nonzero;stroke:none"
         d="M 31.996,0.468 C 14.613,0.468 0.477,14.612 0.477,31.999 l 0,296.008 c 0,17.382 14.136,31.523 31.519,31.523 l 416.008,0 c 17.383,0 31.519,-14.141 31.519,-31.523 l 0,-296.008 c 0,-17.387 -14.136,-31.531 -31.519,-31.531 l -416.008,0 z m 416.008,359.535 -416.008,0 C 14.328,360.003 0,345.675 0,328.007 L 0,31.999 c 0,-17.672 14.328,-32 31.996,-32 l 416.008,0 c 17.668,0 31.996,14.328 31.996,32 l 0,296.008 c 0,17.668 -14.328,31.996 -31.996,31.996" /><path
         id="path3644"
         style="fill:#000000;fill-opacity:1;fill-rule:nonzero;stroke:none"
         d="m 31.996,352.011 c -13.25,0 -23.992,-10.747 -23.992,-24.004 l 0,-296.008 c 0,-13.25 10.742,-24.004 23.992,-24.004 l 416.008,0 c 13.25,0 24.004,10.754 24.004,24.004 l 0,296.008 c 0,13.257 -10.754,24.004 -24.004,24.004 l -416.008,0 z m 0,-12.008 416.008,0 c 6.629,0 12.004,-5.367 12.004,-11.996 l 0,-296.008 c 0,-6.633 -5.375,-11.996 -12.004,-11.996 l -416.008,0 C 25.379,20.003 20,25.366 20,31.999 l 0,296.008 c 0,6.629 5.379,11.996 11.996,11.996 z" /><path
         id="path3646"
         style="fill:#000000;fill-opacity:1;fill-rule:nonzero;stroke:none"
         d="m 166.258,204.436 0,46.934 c 0,8.254 -1.738,15.207 -7.387,20.711 -4.344,4.199 -10.574,6.664 -18.105,6.664 -7.387,0 -14.485,-2.754 -19.555,-8.258 l 0,7.387 -14.484,0 0,-73.438 14.773,0 0,44.758 c 0,11.301 6.953,16.367 15.211,16.367 8.254,0 14.773,-4.922 14.773,-16.367 l 0,-44.758 14.774,0 z" /><path
         id="path3648"
         style="fill:#000000;fill-opacity:1;fill-rule:nonzero;stroke:none"
         d="m 236.961,241.229 c 0,12.313 -1.738,21.582 -8.691,28.824 -4.778,4.926 -12.02,8.692 -22.016,8.692 -9.992,0 -17.09,-3.766 -21.871,-8.692 -6.953,-7.242 -8.692,-16.511 -8.692,-28.824 0,-12.457 1.739,-21.726 8.692,-28.968 4.781,-4.926 11.879,-8.692 21.871,-8.692 9.996,0 17.238,3.766 22.016,8.692 6.953,7.242 8.691,16.511 8.691,28.968 z m -14.773,0 c 0,-7.968 -0.579,-15.644 -5.071,-20.133 -2.75,-2.753 -6.515,-4.347 -10.863,-4.347 -4.344,0 -7.965,1.594 -10.719,4.347 -4.488,4.489 -5.07,12.165 -5.07,20.133 0,7.965 0.582,15.645 5.07,20.133 2.754,2.754 6.375,4.199 10.719,4.199 4.348,0 8.113,-1.445 10.863,-4.199 4.492,-4.488 5.071,-12.168 5.071,-20.133 z" /><path
         id="path3650"
         style="fill:#000000;fill-opacity:1;fill-rule:nonzero;stroke:none"
         d="m 303.441,213.999 -10.136,9.703 c -4.637,-5.07 -8.258,-6.953 -14.051,-6.953 -5.649,0 -10.43,2.32 -13.617,6.519 -3.184,4.055 -4.344,9.414 -4.344,17.961 0,8.547 1.16,13.762 4.344,17.817 3.187,4.199 7.968,6.515 13.617,6.515 5.793,0 9.414,-1.883 14.051,-6.949 l 10.136,9.848 c -6.953,7.386 -14.046,10.285 -24.187,10.285 -16.512,0 -32.734,-9.996 -32.734,-37.516 0,-27.519 16.222,-37.66 32.734,-37.66 10.141,0 17.234,3.043 24.187,10.43 z" /><path
         id="path3652"
         style="fill:#000000;fill-opacity:1;fill-rule:nonzero;stroke:none"
         d="m 373.285,204.436 0,47.367 c 0,15.934 -9.125,26.942 -25.492,26.942 -7.242,0 -13.906,-2.754 -18.973,-8.258 l 0,37.082 -14.777,0 0,-103.133 14.777,0 0,45.051 c 0,11.008 6.66,16.074 14.918,16.074 8.254,0 14.774,-4.922 14.774,-16.074 l 0,-45.051 14.773,0 z" /><path
         id="path3654"
         style="fill:#000000;fill-opacity:1;fill-rule:nonzero;stroke:none"
         d="m 154.762,52.444 0,13.184 -42.004,0 32.301,39.543 c 6.371,7.82 9.703,13.179 9.703,22.304 0,17.817 -12.168,28.969 -29.84,28.969 -17.524,0 -29.981,-11.586 -29.981,-29.113 l 14.774,0 c 0,11.586 7.387,15.933 15.207,15.933 9.562,0 15.066,-6.375 15.066,-15.644 0,-5.215 -1.593,-8.981 -5.504,-13.758 l -39.687,-48.234 0,-13.184 59.965,0 z" /><path
         id="path3656"
         style="fill:#000000;fill-opacity:1;fill-rule:nonzero;stroke:none"
         d="m 277.09,52.444 -28.68,44.613 25.492,28.825 -17.961,0 -28.535,-33.895 0,63.59 -14.773,0 0,-103.133 14.773,0 0,21.582 10.864,12.313 20.57,-33.895 18.25,0 z" /><path
         id="path3658"
         style="fill:#000000;fill-opacity:1;fill-rule:nonzero;stroke:none"
         d="m 385.219,52.444 0,46.93 c 0,8.258 -2.172,15.211 -7.824,20.715 -4.344,4.199 -11.008,6.664 -18.54,6.664 -9.703,0 -17.089,-3.477 -23.031,-10.719 -4.633,7.098 -11.73,10.719 -20.855,10.719 -7.391,0 -14.633,-2.899 -19.555,-8.258 l 0,7.387 -14.484,0 0,-73.438 14.773,0 0,44.758 c 0,11.301 6.953,16.367 15.207,16.367 8.258,0 14.778,-4.922 14.778,-16.367 l 0,-44.758 14.773,0 0,45.484 c 0,10.575 7.242,15.641 15.207,15.641 8.258,0 14.777,-4.922 14.777,-16.367 l 0,-44.758 14.774,0 z" /></g></g></svg>