<?xml version="1.0" encoding="UTF-8" standalone="no"?>
<svg
   xmlns:dc="http://purl.org/dc/elements/1.1/"
   xmlns:cc="http://creativecommons.org/ns#"
   xmlns:rdf="http://www.w3.org/1999/02/22-rdf-syntax-ns#"
   xmlns:svg="http://www.w3.org/2000/svg"
   xmlns="http://www.w3.org/2000/svg"
   viewBox="0 0 2252.0005 501.99609"
   height="501.99609"
   width="2252.0005"
   xml:space="preserve"
   version="1.1"
   id="svg17168"><metadata
     id="metadata17174"><rdf:RDF><cc:Work
         rdf:about=""><dc:format>image/svg+xml</dc:format><dc:type
           rdf:resource="http://purl.org/dc/dcmitype/StillImage" /><dc:title></dc:title></cc:Work></rdf:RDF></metadata><defs
     id="defs17172" /><g
     transform="matrix(1.25,0,0,-1.25,0,501.99608)"
     id="g17176"><g
       id="g17178"><path
         id="path17180"
         style="fill:#ffffff;fill-opacity:1;fill-rule:nonzero;stroke:none"
         d="m 47.238,400.796 c 0,0 -46.437,-0.258 -46.437,-47.469 l 0,-304.461 C 0.801,1.683 47.238,0.8 47.238,0.8 l 1705.528,0 c 0,0 48.179,0.027 48.035,48.066 l -0.91,304.461 c -0.141,47.211 -47.125,47.469 -47.125,47.469 l -1705.528,0 z" /><path
         id="path17182"
         style="fill:#000000;fill-opacity:1;fill-rule:nonzero;stroke:none"
         d="m 50.438,384.714 c -35.211,0 -33.633,-34.59 -33.633,-34.59 l 0,-298.054 c 0,0 -0.469,-35.188 33.633,-35.188 l 1699.124,0 c 0,0 35.157,-0.633 35.157,35.188 l 0,298.054 c 0,0 0.656,34.59 -35.157,34.59 l -1699.124,0 z m 0,-24.016 1699.124,0 c 0,0 11.137,0.477 11.137,-10.574 l 0,-298.054 c 0,0 0.164,-11.09 -11.137,-11.09 l -1699.124,0 c -10.45,0 -9.54,11.09 -9.54,11.09 l 0,298.054 c 0,0 -0.05,10.574 9.54,10.574 z" /><path
         id="path17184"
         style="fill:#000000;fill-opacity:1;fill-rule:nonzero;stroke:none"
         d="m 47.234,401.597 c 0,0 -11.781,-0.055 -23.582,-6.117 C 11.852,389.413 0,377.195 0,353.323 L 0,48.866 C 0,25.015 11.848,12.652 23.645,6.433 35.441,0.214 47.223,-0.001 47.223,-0.001 l 1705.543,0 c 0,0 12.211,-0.004 24.429,6.106 12.215,6.105 24.477,18.476 24.407,42.765 l -0.911,304.457 c -0.07,23.875 -12.101,36.09 -24.054,42.153 -11.953,6.062 -23.867,6.117 -23.867,6.117 l -1705.536,0 z m 0.004,-0.801 1705.528,0 c 0,0 46.984,-0.258 47.125,-47.473 l 0.91,-304.457 C 1800.945,0.823 1752.766,0.8 1752.766,0.8 L 47.238,0.8 c 0,0 -46.437,0.883 -46.437,48.066 l 0,304.457 c 0,47.215 46.437,47.473 46.437,47.473 z" /><path
         id="path17186"
         style="fill:#000000;fill-opacity:1;fill-rule:nonzero;stroke:none"
         d="m 255.996,116.23 0,23.14 -82.781,0 0,51.051 70.613,0 0,22.902 -70.613,0 0,49.622 82.781,0 0,23.136 -108.543,0 0,-169.851 108.543,0 z" /><path
         id="path17188"
         style="fill:#000000;fill-opacity:1;fill-rule:nonzero;stroke:none"
         d="m 381.809,116.23 0,77.293 c 0,13.597 -2.864,25.047 -12.164,34.113 -7.157,6.918 -17.415,10.973 -29.821,10.973 -12.168,0 -23.855,-4.532 -32.207,-13.598 l 0,12.168 -23.855,0 0,-120.949 24.332,0 0,73.715 c 0,18.605 11.453,26.957 25.051,26.957 13.597,0 24.332,-8.11 24.332,-26.957 l 0,-73.715 24.332,0 z" /><path
         id="path17190"
         style="fill:#000000;fill-opacity:1;fill-rule:nonzero;stroke:none"
         d="m 508.961,116.23 0,169.851 -24.336,0 0,-61.07 c -8.824,10.496 -18.844,13.598 -31.727,13.598 -12.168,0 -22.664,-4.055 -29.343,-10.735 -12.164,-12.164 -13.598,-32.683 -13.598,-51.051 0,-18.367 1.434,-39.125 13.598,-51.289 6.679,-6.679 17.414,-10.734 29.582,-10.734 13.121,0 22.902,3.34 31.965,14.312 l 0,-12.882 23.859,0 z m -24.336,60.593 c 0,-21.468 -3.102,-40.316 -25.047,-40.316 -21.949,0 -25.289,18.848 -25.289,40.316 0,21.469 3.34,40.079 25.289,40.079 21.945,0 25.047,-18.61 25.047,-40.079 z" /><path
         id="path17192"
         style="fill:#000000;fill-opacity:1;fill-rule:nonzero;stroke:none"
         d="m 642.32,169.667 0,10.735 c 0,34.351 -18.847,58.207 -51.289,58.207 -31.015,0 -51.293,-22.661 -51.293,-61.786 0,-46.043 24.098,-62.023 54.391,-62.023 21.234,0 32.922,6.441 45.328,18.844 l -15.508,14.554 c -8.586,-8.589 -15.742,-12.406 -29.34,-12.406 -19.8,0 -30.773,13.121 -30.773,33.875 l 78.484,0 z m -24.093,16.938 -54.391,0 c 0.238,7.394 0.715,10.972 3.098,16.461 3.82,9.066 12.644,15.265 24.097,15.265 11.449,0 20.039,-6.199 23.856,-15.265 2.383,-5.489 3.101,-9.067 3.34,-16.461 z" /><path
         id="path17194"
         style="fill:#000000;fill-opacity:1;fill-rule:nonzero;stroke:none"
         d="m 753.699,261.034 0,25.766 -25.765,0 0,-25.766 25.765,0 z m -0.719,-144.804 0,120.949 -24.332,0 0,-120.949 24.332,0 z" /><path
         id="path17196"
         style="fill:#000000;fill-opacity:1;fill-rule:nonzero;stroke:none"
         d="m 884.797,116.23 0,77.293 c 0,13.597 -2.863,25.047 -12.164,34.113 -7.16,6.918 -17.418,10.973 -29.821,10.973 -12.167,0 -23.855,-4.532 -32.207,-13.598 l 0,12.168 -23.855,0 0,-120.949 24.332,0 0,73.715 c 0,18.605 11.453,26.957 25.051,26.957 13.597,0 24.332,-8.11 24.332,-26.957 l 0,-73.715 24.332,0 z" /><path
         id="path17198"
         style="fill:#000000;fill-opacity:1;fill-rule:nonzero;stroke:none"
         d="m 972.355,141.995 25.766,0 0,-25.766 -25.766,0 0,25.766 z" /><path
         id="path17200"
         style="fill:#000000;fill-opacity:1;fill-rule:nonzero;stroke:none"
         d="m 1032.285,141.995 25.766,0 0,-25.766 -25.766,0 0,25.766 z" /><path
         id="path17202"
         style="fill:#000000;fill-opacity:1;fill-rule:nonzero;stroke:none"
         d="m 1092.215,141.995 25.762,0 0,-25.766 -25.762,0 0,25.766 z" /><path
         id="path17204"
         style="fill:#000000;fill-opacity:1;fill-rule:nonzero;stroke:none"
         d="m 1152.145,141.995 25.762,0 0,-25.766 -25.762,0 0,25.766 z" /><path
         id="path17206"
         style="fill:#000000;fill-opacity:1;fill-rule:nonzero;stroke:none"
         d="m 1212.074,141.995 25.762,0 0,-25.766 -25.762,0 0,25.766 z" /><path
         id="path17208"
         style="fill:#000000;fill-opacity:1;fill-rule:nonzero;stroke:none"
         d="m 1272.004,141.995 25.762,0 0,-25.766 -25.762,0 0,25.766 z" /><path
         id="path17210"
         style="fill:#000000;fill-opacity:1;fill-rule:nonzero;stroke:none"
         d="m 1331.934,141.995 25.762,0 0,-25.766 -25.762,0 0,25.766 z" /><path
         id="path17212"
         style="fill:#000000;fill-opacity:1;fill-rule:nonzero;stroke:none"
         d="m 1391.863,141.995 25.762,0 0,-25.766 -25.762,0 0,25.766 z" /><path
         id="path17214"
         style="fill:#000000;fill-opacity:1;fill-rule:nonzero;stroke:none"
         d="m 1654.148,116.23 0,77.293 c 0,13.597 -3.578,25.047 -12.882,34.113 -7.157,6.918 -18.129,10.973 -30.536,10.973 -15.98,0 -28.148,-5.723 -37.929,-17.653 -7.633,11.692 -19.324,17.653 -34.352,17.653 -12.168,0 -24.094,-4.77 -32.207,-13.598 l 0,12.168 -23.855,0 0,-120.949 24.336,0 0,73.715 c 0,18.605 11.449,26.957 25.047,26.957 13.597,0 24.332,-8.11 24.332,-26.957 l 0,-73.715 24.332,0 0,74.906 c 0,17.414 11.929,25.766 25.05,25.766 13.598,0 24.332,-8.11 24.332,-26.957 l 0,-73.715 24.332,0 z" /></g></g></svg>