<?xml version="1.0" encoding="UTF-8" standalone="no"?>
<svg
   xmlns:dc="http://purl.org/dc/elements/1.1/"
   xmlns:cc="http://creativecommons.org/ns#"
   xmlns:rdf="http://www.w3.org/1999/02/22-rdf-syntax-ns#"
   xmlns:svg="http://www.w3.org/2000/svg"
   xmlns="http://www.w3.org/2000/svg"
   xmlns:sodipodi="http://sodipodi.sourceforge.net/DTD/sodipodi-0.dtd"
   xmlns:inkscape="http://www.inkscape.org/namespaces/inkscape"
   inkscape:version="1.0 (4035a4fb49, 2020-05-01)"
   sodipodi:docname="Zusatzzeichen_1010-13_-_Kennzeichnung_von_Parkflächen,_auf_denen_Wohnwagen_auch_länger_als_14_Tage_parken_dürfen_(600x330),_StVO_1992.svg"
   id="svg8638"
   version="1.1"
   xml:space="preserve"
   width="600"
   height="330"
   viewBox="0 0 600 330"><sodipodi:namedview
     inkscape:current-layer="svg8638"
     inkscape:window-maximized="1"
     inkscape:window-y="-8"
     inkscape:window-x="-8"
     inkscape:cy="165"
     inkscape:cx="300"
     inkscape:zoom="1.6916667"
     showgrid="false"
     id="namedview10"
     inkscape:window-height="1017"
     inkscape:window-width="1920"
     inkscape:pageshadow="2"
     inkscape:pageopacity="0"
     guidetolerance="10"
     gridtolerance="10"
     objecttolerance="10"
     borderopacity="1"
     bordercolor="#666666"
     pagecolor="#ffffff" /><metadata
     id="metadata8644"><rdf:RDF><cc:Work
         rdf:about=""><dc:format>image/svg+xml</dc:format><dc:type
           rdf:resource="http://purl.org/dc/dcmitype/StillImage" /><dc:title></dc:title></cc:Work></rdf:RDF></metadata><defs
     id="defs8642" /><g
     id="g8646"
     transform="matrix(1.25,0,0,-1.25,0,330)"><g
       id="g8648"><path
         d="M 31.996,0.469 C 14.613,0.469 0.48,14.613 0.48,31.996 l 0,199.996 c 0,17.383 14.133,31.528 31.516,31.528 l 416.008,0 c 17.383,0 31.516,-14.145 31.516,-31.528 l 0,-199.996 c 0,-17.383 -14.133,-31.527 -31.516,-31.527 l -416.008,0 z M 448.004,264 31.996,264 C 14.32,264 0,249.672 0,231.992 L 0,31.996 C 0,14.328 14.32,0 31.996,0 L 448.004,0 C 465.672,0 480,14.328 480,31.996 l 0,199.996 C 480,249.672 465.672,264 448.004,264"
         style="fill:#000000;fill-opacity:1;fill-rule:nonzero;stroke:none"
         id="path8650" /><path
         d="m 31.996,19.996 416.008,0 c 6.629,0 12,5.371 12,12 l 0,199.996 c 0,6.629 -5.371,12 -12,12 l -416.008,0 c -6.629,0 -12,-5.371 -12,-12 l 0,-199.996 c 0,-6.629 5.371,-12 12,-12 z m 0,-12 c -13.258,0 -24,10.742 -24,24 l 0,199.996 c 0,13.258 10.742,24 24,24 l 416.008,0 c 13.258,0 24,-10.742 24,-24 l 0,-199.996 c 0,-13.258 -10.742,-24 -24,-24"
         style="fill:#000000;fill-opacity:1;fill-rule:nonzero;stroke:none"
         id="path8652" /><path
         d="m 147.004,208 c -2.813,0 -5.215,-2.02 -5.707,-4.785 l -11.711,-66.539 c -0.129,-0.723 -0.117,-1.465 0.035,-2.188 l 12.512,-59.738 -47.481,0 0,-11.57 139.028,0 c 0,15.992 12.968,28.953 28.968,28.953 15.997,0 28.957,-12.961 28.957,-28.953 l 76.247,0 c 2.8,0 5.199,2 5.691,4.769 l 11.742,66.641 c 0.11,0.656 0.11,1.344 0,2 l -11.742,66.625 c -0.492,2.765 -2.891,4.785 -5.691,4.785 l -220.848,0 z m 22.937,-23.176 46.356,0 c 1.598,0 2.906,-1.297 2.906,-2.906 l 0,-104.277 c 0,-1.598 -1.308,-2.891 -2.906,-2.891 l -46.356,0 c -1.597,0 -2.886,1.293 -2.886,2.891 l 0,104.277 c 0,1.609 1.289,2.906 2.886,2.906 z m 115.868,0 66.625,0 c 1.586,0 2.89,-1.297 2.89,-2.906 l 0,-31.844 c 0,-1.605 -1.304,-2.906 -2.89,-2.906 l -66.625,0 c -1.598,0 -2.887,1.301 -2.887,2.906 l 0,31.844 c 0,1.609 1.289,2.906 2.887,2.906 z M 262.648,86.34 c -12.796,0 -23.191,-10.363 -23.191,-23.16 0,-12.801 10.395,-23.196 23.191,-23.196 12.79,0 23.161,10.395 23.161,23.196 0,12.797 -10.371,23.16 -23.161,23.16 z"
         style="fill:#000000;fill-opacity:1;fill-rule:nonzero;stroke:none"
         id="path8654" /></g></g><path
     id="path835"
     d="m 211.33005,236.11686 c -2.41238,-0.86216 -2.36453,0.52341 -2.36453,-68.47813 0,-63.47755 0.046,-66.33948 1.08103,-67.27618 0.97651,-0.883732 4.03077,-0.978314 31.59209,-0.978314 h 30.51107 l 0.92022,1.313794 c 0.81949,1.16999 0.92022,8.51702 0.92022,67.12047 v 65.80667 l -1.45097,1.45096 -1.45096,1.45096 -29.43573,-0.0467 c -16.18966,-0.0257 -29.83476,-0.18927 -30.32244,-0.36356 z"
     style="fill:#ffffff;fill-opacity:1;fill-rule:evenodd;stroke-width:0.591133" /><path
     id="path837"
     d="m 355.35066,144.85857 -1.55756,-1.22517 v -21.14626 c 0,-19.73543 0.0721,-21.21154 1.08103,-22.12459 0.98514,-0.891537 4.91125,-0.978314 44.2626,-0.978314 35.8025,0 43.29621,0.138136 43.85244,0.808354 0.48002,0.57839 0.62674,7.00605 0.51573,22.59355 l -0.15515,21.7852 -1.47783,0.74749 c -1.14927,0.5813 -10.75847,0.74942 -43.22077,0.7562 -41.34172,0.009 -41.75791,-0.003 -43.30049,-1.21646 z"
     style="fill:#ffffff;fill-opacity:1;fill-rule:evenodd;stroke-width:0.591133" /><path
     id="path839"
     d="m 33.570261,303.27449 c -1.368868,-0.67758 -3.415432,-2.25758 -4.547919,-3.51111 -4.188653,-4.63634 -3.899189,5.36809 -3.899189,-134.76338 0,-140.178515 -0.291924,-130.124323 3.913306,-134.779009 1.140251,-1.262122 3.204299,-2.84233 4.586771,-3.511574 l 2.513587,-1.216806 H 300 563.86318 l 2.51359,1.216806 c 1.38248,0.669244 3.44652,2.249452 4.58677,3.511574 4.20523,4.654686 3.91331,-5.399506 3.91331,134.779009 0,140.17851 0.29192,130.12432 -3.91331,134.77901 -1.14025,1.26212 -3.20429,2.84233 -4.58677,3.51157 l -2.51359,1.21681 -263.90203,-4.7e-4 -263.902037,-4.6e-4 z M 333.76168,279.68052 c 10.60099,-1.96569 19.87944,-10.68859 22.71952,-21.35919 5.27148,-19.80571 -12.38625,-39.47732 -32.39253,-36.08692 -14.74892,2.49945 -24.7641,14.19175 -24.73394,28.87585 0.0259,12.63527 7.45856,23.16355 19.26596,27.29018 5.53854,1.93569 9.7054,2.28797 15.14099,1.28008 z m -41.43615,-30.29628 c 0.006,-1.05665 0.3975,-3.74891 0.87078,-5.9828 2.75204,-12.98959 13.39993,-23.90845 26.58306,-27.25955 4.50961,-1.14633 12.66916,-1.14812 17.19003,-0.004 14.68645,3.7175 25.395,16.22242 27.20465,31.76829 l 0.39567,3.39901 48.25701,-0.001 c 53.9775,-0.001 51.30877,0.20579 53.38325,-4.13701 0.54357,-1.13793 4.33067,-21.11034 8.41578,-44.38313 l 7.42748,-42.31415 -7.40208,-42.21787 c -4.07114,-23.219819 -7.7883,-43.084211 -8.26037,-44.143087 -0.47205,-1.058875 -1.72625,-2.455377 -2.7871,-3.103337 -1.91409,-1.169112 -3.00155,-1.17698 -142.42309,-1.030436 l -140.49427,0.147713 -1.57971,1.477832 c -0.86884,0.812808 -1.79311,1.876848 -2.05394,2.364532 -0.26082,0.487685 -3.86253,20.172414 -8.00378,43.743843 l -7.52956,42.85714 7.918,37.83251 7.918,37.83252 -29.71215,0.1532 -29.71216,0.1532 v 7.38374 7.38375 h 87.19212 87.19212 l 0.0103,-1.92118 z"
     style="fill:#ffffff;fill-opacity:1;fill-rule:evenodd;stroke-width:0.591133" /><path
     id="path841"
     d="M 33.97266,328.71189 C 25.678281,327.48345 18.155842,323.45253 11.834543,316.84912 6.8133748,311.60386 3.1393503,304.83073 1.773016,298.30049 0.46970169,292.07146 0.46970169,37.928543 1.773016,31.699507 3.137299,25.179079 6.8135007,18.397462 11.830363,13.146372 16.775304,7.9705608 21.628139,4.8685251 28.374384,2.571081 L 33.103448,0.96059113 H 300 566.89655 l 4.72907,1.61048987 c 6.74624,2.2974441 11.59908,5.3994798 16.54402,10.575291 5.01684,5.25109 8.69304,12.032707 10.05732,18.553135 1.30333,6.229036 1.30333,260.371953 0,266.600983 -1.36428,6.52043 -5.04048,13.30205 -10.05732,18.55314 -4.94494,5.17581 -9.79778,8.27785 -16.54402,10.57529 l -4.72907,1.61049 -264.82758,0.0783 C 156.41379,329.16081 35.770455,328.97816 33.97266,328.7119 Z m 535.0355,-9.8608 c 10.3609,-3.52384 17.88457,-11.72118 20.34815,-22.17014 1.3162,-5.58244 1.3162,-257.779458 0,-263.361897 C 586.85284,22.700952 579.14391,14.424896 568.6945,11.137218 L 564.53202,9.8275862 H 300 35.46798 l -4.162478,1.3096318 c -10.44941,3.287678 -18.158346,11.563734 -20.661816,22.181835 -1.3161924,5.582439 -1.3161924,257.779457 0,263.361897 2.913952,12.3591 12.725037,21.33822 25.348746,23.19921 1.662291,0.24505 121.396728,0.41106 266.076538,0.36891 l 263.05418,-0.0767 z"
     style="fill:#ffffff;fill-opacity:1;fill-rule:evenodd;stroke-width:0.591133" /></svg>
