<?xml version="1.0" encoding="UTF-8" standalone="no"?>
<svg
   xmlns:dc="http://purl.org/dc/elements/1.1/"
   xmlns:cc="http://creativecommons.org/ns#"
   xmlns:rdf="http://www.w3.org/1999/02/22-rdf-syntax-ns#"
   xmlns:svg="http://www.w3.org/2000/svg"
   xmlns="http://www.w3.org/2000/svg"
   viewBox="0 0 2268.2026 2268.2026"
   height="2268.2026"
   width="2268.2026"
   xml:space="preserve"
   id="svg4440"
   version="1.1"><metadata
     id="metadata4446"><rdf:RDF><cc:Work
         rdf:about=""><dc:format>image/svg+xml</dc:format><dc:type
           rdf:resource="http://purl.org/dc/dcmitype/StillImage" /><dc:title></dc:title></cc:Work></rdf:RDF></metadata><defs
     id="defs4444" /><g
     transform="matrix(1.3333333,0,0,-1.3333333,0,2268.2026)"
     id="g4448"><g
       id="g4450"><g
         transform="translate(0,1701.152)"
         id="g4452"><path
           id="path4454"
           style="fill:#ffffff;fill-opacity:1;fill-rule:nonzero;stroke:#231f20;stroke-width:0.375;stroke-linecap:butt;stroke-linejoin:miter;stroke-miterlimit:4;stroke-dasharray:none;stroke-opacity:1"
           d="m 113.574,-1700.965 c -62.621,0 -113.386,50.766 -113.386,113.387 v 1474.004 c 0,62.621 50.765,113.386 113.386,113.386 h 1474.004 c 62.621,0 113.387,-50.765 113.387,-113.386 v -1474.004 c 0,-62.621 -50.766,-113.387 -113.387,-113.387 z" /></g><path
         id="path4456"
         style="fill:#231f20;fill-opacity:1;fill-rule:nonzero;stroke:none"
         d="m 113.574,1672.617 c -46.969,0 -85.039,-38.07 -85.039,-85.035 V 113.574 c 0,-46.969 38.07,-85.039 85.039,-85.039 h 1474.004 c 46.965,0 85.039,38.07 85.039,85.039 v 1474.008 c 0,46.965 -38.074,85.035 -85.039,85.035 z m 0,-42.52 h 1474.004 c 23.484,0 42.52,-19.035 42.52,-42.515 V 113.574 c 0,-23.485 -19.036,-42.52 -42.52,-42.52 H 113.574 c -23.484,0 -42.519,19.035 -42.519,42.52 v 1474.008 c 0,23.48 19.035,42.515 42.519,42.515 z" /><path
         id="path4458"
         style="fill:#231f20;fill-opacity:1;fill-rule:nonzero;stroke:none"
         d="m 409.223,1508.211 c 0,-20.352 -16.496,-36.852 -36.848,-36.852 -20.352,0 -36.852,16.5 -36.852,36.852 0,20.351 16.5,36.847 36.852,36.847 20.352,0 36.848,-16.496 36.848,-36.847" /><path
         id="path4460"
         style="fill:#231f20;fill-opacity:1;fill-rule:nonzero;stroke:none"
         d="m 372.371,1224.226 -88.719,-0.078 c 5.094,33.981 19.84,65.781 42.481,91.625 l 0.023,0.047 c -10.211,11.387 -15.859,26.148 -15.859,41.445 v 35.574 c 0,34.286 27.793,62.079 62.078,62.079 34.285,0 62.078,-27.793 62.078,-62.079 v -35.574 c 0,-15.297 -5.648,-30.058 -15.863,-41.445 l 0.027,-0.047 c 22.637,-25.84 37.379,-57.637 42.477,-91.609 l -88.723,0.062" /><path
         id="path4462"
         style="fill:#231f20;fill-opacity:1;fill-rule:nonzero;stroke:none"
         d="m 367.934,1215.351 0.046,-119.722 c 0,-7.356 -5.964,-13.321 -13.324,-13.321 -7.355,0 -13.32,5.965 -13.32,13.321 l -0.016,119.722 h 26.614" /><path
         id="path4464"
         style="fill:#231f20;fill-opacity:1;fill-rule:nonzero;stroke:none"
         d="m 403.426,1215.351 -0.012,-93.219 c 0,-7.355 -5.965,-13.32 -13.324,-13.32 -7.356,0 -13.324,5.965 -13.324,13.32 l 0.043,93.219 h 26.617" /><path
         id="path4466"
         style="fill:#ffffff;fill-opacity:1;fill-rule:nonzero;stroke:none"
         d="m 336.887,1327.121 0.054,79.043 c 0,2.425 1.969,4.394 4.395,4.394 2.426,0 4.391,-1.969 4.391,-4.394 l 0.144,-66.614 c 0,-2.394 -0.961,-4.687 -2.668,-6.367 l -6.316,-6.062" /><path
         id="path4468"
         style="fill:#ffffff;fill-opacity:1;fill-rule:nonzero;stroke:none"
         d="m 407.934,1327.121 -6.246,6.062 c -1.708,1.68 -2.668,3.973 -2.668,6.367 l 0.14,66.614 c 0,2.425 1.969,4.394 4.395,4.394 2.425,0 4.394,-1.969 4.394,-4.394 l -0.015,-79.043" /><path
         id="path4470"
         style="fill:#231f20;fill-opacity:1;fill-rule:nonzero;stroke:none"
         d="m 1272.094,1292.875 h 73.254 v -35.282 l 66.597,-106.586 c 3.633,-5.812 5.555,-12.527 5.555,-19.378 0,-12.61 -6.496,-24.329 -17.188,-31.012 l -91.593,146.472 -0.067,-128.214 c 0,-20.196 -16.371,-36.567 -36.566,-36.567 l 0.01,210.567" /><path
         id="path4472"
         style="fill:#231f20;fill-opacity:1;fill-rule:nonzero;stroke:none"
         d="m 1272.094,1302.031 v 40.461 l -24.774,-14.82 c -4.98,-2.985 -10.675,-4.563 -16.48,-4.563 -11.25,0 -21.676,5.902 -27.465,15.551 l 68.719,41.207 -0.01,41.176 c 0,20.195 16.371,36.57 36.566,36.57 12.606,0 24.325,-6.496 31.008,-17.188 l 64.754,-103.461 c 3.18,-5.089 4.867,-10.972 4.867,-16.972 0,-11.047 -5.691,-21.313 -15.054,-27.164 l -48.879,78.277 v -69.074 h -73.254" /><path
         id="path4474"
         style="fill:#231f20;fill-opacity:1;fill-rule:nonzero;stroke:none"
         d="m 1322.684,1508.066 c 0,-20.352 -16.5,-36.848 -36.852,-36.848 -20.352,0 -36.848,16.496 -36.848,36.848 0,20.352 16.496,36.852 36.848,36.852 20.352,0 36.852,-16.5 36.852,-36.852" /><path
         id="path4476"
         style="fill:#231f20;fill-opacity:1;fill-rule:nonzero;stroke:none"
         d="m 352.324,621.82 h 73.254 V 586.539 L 492.109,479.91 c 3.629,-5.813 5.555,-12.528 5.555,-19.379 0,-12.609 -6.496,-24.328 -17.187,-31.012 l -91.524,146.516 0.004,-128.258 c 0,-20.199 -16.371,-36.57 -36.566,-36.57 l -0.067,210.613" /><path
         id="path4478"
         style="fill:#231f20;fill-opacity:1;fill-rule:nonzero;stroke:none"
         d="m 352.324,630.976 v 40.461 l -24.699,-14.863 c -4.977,-2.985 -10.676,-4.563 -16.477,-4.563 -11.253,0 -21.679,5.903 -27.468,15.551 l 68.644,41.25 0.067,41.277 c 0,20.196 16.371,36.567 36.566,36.567 12.609,0 24.328,-6.496 31.012,-17.192 l 64.75,-103.457 c 3.179,-5.089 4.867,-10.972 4.867,-16.972 0,-11.047 -5.691,-21.313 -15.059,-27.164 l -48.949,78.183 v -69.078 h -73.254" /><path
         id="path4480"
         style="fill:#231f20;fill-opacity:1;fill-rule:nonzero;stroke:none"
         d="m 402.848,836.968 c 0,-20.351 -16.5,-36.847 -36.852,-36.847 -20.351,0 -36.848,16.496 -36.848,36.847 0,20.352 16.497,36.852 36.848,36.852 20.352,0 36.852,-16.5 36.852,-36.852" /><path
         id="path4482"
         style="fill:#231f20;fill-opacity:1;fill-rule:nonzero;stroke:none"
         d="m 1328.777,553.168 -88.722,0.039 c 5.101,33.972 19.843,65.769 42.48,91.609 l 0.027,0.047 c -10.214,11.391 -15.863,26.148 -15.863,41.445 v 35.434 c 0,34.285 27.793,62.078 62.078,62.078 34.285,0 62.078,-27.793 62.078,-62.078 v -35.434 c 0,-15.297 -5.648,-30.054 -15.859,-41.445 l 0.024,-0.047 c 22.64,-25.844 37.386,-57.644 42.48,-91.625 l -88.723,-0.023" /><path
         id="path4484"
         style="fill:#231f20;fill-opacity:1;fill-rule:nonzero;stroke:none"
         d="m 1333.215,544.297 h 26.617 l -0.016,-119.766 c 0,-7.356 -5.964,-13.324 -13.324,-13.324 -7.355,0 -13.32,5.968 -13.32,13.324 l 0.043,119.766" /><path
         id="path4486"
         style="fill:#231f20;fill-opacity:1;fill-rule:nonzero;stroke:none"
         d="m 1297.723,544.297 h 26.617 l 0.043,-93.122 c 0,-7.355 -5.965,-13.32 -13.321,-13.32 -7.359,0 -13.324,5.965 -13.324,13.32 l -0.015,93.122" /><path
         id="path4488"
         style="fill:#ffffff;fill-opacity:1;fill-rule:nonzero;stroke:none"
         d="m 1364.266,656.066 -6.317,6.02 c -1.707,1.679 -2.668,3.972 -2.668,6.367 l 0.141,66.613 c 0,2.426 1.969,4.391 4.394,4.391 2.426,0 4.395,-1.965 4.395,-4.391 l 0.055,-79" /><path
         id="path4490"
         style="fill:#ffffff;fill-opacity:1;fill-rule:nonzero;stroke:none"
         d="m 1293.219,656.066 -0.016,79 c 0,2.426 1.969,4.391 4.395,4.391 2.425,0 4.394,-1.965 4.394,-4.391 l 0.141,-66.613 c 0,-2.395 -0.961,-4.688 -2.668,-6.367 l -6.246,-6.02" /><path
         id="path4492"
         style="fill:#231f20;fill-opacity:1;fill-rule:nonzero;stroke:none"
         d="m 1365.629,836.968 c 0,-20.351 -16.5,-36.847 -36.852,-36.847 -20.351,0 -36.851,16.496 -36.851,36.847 0,20.352 16.5,36.852 36.851,36.852 20.352,0 36.852,-16.5 36.852,-36.852" /><path
         id="path4494"
         style="fill:#231f20;fill-opacity:1;fill-rule:nonzero;stroke:none"
         d="m 517.934,992.589 c 0,9.391 3.043,18.524 8.679,26.032 l 8.668,11.558 c 6.074,8.098 11.184,16.879 15.219,26.164 l 57.172,131.516 c 5.742,13.191 18.758,21.723 33.14,21.723 l 180.848,-0.047 v -36.156 l -172.058,0.062 c -5.754,0 -10.961,-3.41 -13.254,-8.687 L 586.645,1050.445 H 821.66 V 862.433 l -267.586,0.047 c -19.961,0 -36.14,16.184 -36.14,36.141 l 0.015,93.976" /><path
         id="path4496"
         style="fill:#231f20;fill-opacity:1;fill-rule:nonzero;stroke:none"
         d="m 554.102,847.968 h 86.773 l -0.063,-79.597 c 0,-11.977 -9.707,-21.684 -21.683,-21.684 h -43.371 c -11.973,0 -21.684,9.707 -21.684,21.684 l 0.028,79.597" /><path
         id="path4498"
         style="fill:#ffffff;fill-opacity:1;fill-rule:nonzero;stroke:none"
         d="m 641.805,971.757 c 0,-23.953 -19.418,-43.371 -43.371,-43.371 -23.95,0 -43.368,19.418 -43.368,43.371 0,23.95 19.418,43.368 43.368,43.368 23.953,0 43.371,-19.418 43.371,-43.368" /><path
         id="path4500"
         style="fill:#231f20;fill-opacity:1;fill-rule:nonzero;stroke:none"
         d="m 879.488,1209.535 h 2.422 l 178.43,0.047 c 14.383,0 27.398,-8.532 33.137,-21.723 l 57.07,-131.52 c 4.039,-9.281 9.148,-18.062 15.219,-26.164 l 8.773,-11.558 c 5.637,-7.508 8.68,-16.641 8.68,-26.028 v -93.968 c 0,-19.957 -16.18,-36.141 -36.141,-36.141 0,0 0,0 0,0 l -266.703,-0.047 h -0.883 v 188.012 h 235.02 l -49.699,114.301 c -2.293,5.281 -7.5,8.695 -13.258,8.695 l -169.805,-0.062 h -2.258 v 36.156" /><path
         id="path4502"
         style="fill:#ffffff;fill-opacity:1;fill-rule:nonzero;stroke:none"
         d="m 1147.078,970.906 c 0,-23.953 -19.418,-43.371 -43.371,-43.371 -23.953,0 -43.367,19.418 -43.367,43.371 0,23.953 19.414,43.371 43.367,43.371 23.953,0 43.371,-19.418 43.371,-43.371" /><path
         id="path4504"
         style="fill:#231f20;fill-opacity:1;fill-rule:nonzero;stroke:none"
         d="m 1060.27,847.968 h 86.777 l 0.031,-79.597 c 0,-11.977 -9.707,-21.684 -21.683,-21.684 h -43.372 c -11.976,0 -21.683,9.707 -21.683,21.684 0,0 0,0 0,0.004 l -0.07,79.593" /><path
         id="path4506"
         style="fill:#231f20;fill-opacity:1;fill-rule:nonzero;stroke:none"
         d="m 629.473,158.925 v 142.442 h -17.004 v 27.637 h 17.004 v 25.511 c 0,23.485 19.039,42.52 42.523,42.52 h 25.508 v -31.891 h -23.383 c -5.871,0 -10.629,-4.758 -10.629,-10.629 v -25.511 h 34.012 V 301.367 H 663.492 V 158.925 Z m 106.3,0 v 170.079 h 34.016 v -19.196 c 10.899,13.485 27.309,21.324 44.645,21.324 13.16,0 25.918,-4.523 36.14,-12.808 l -24.16,-29.813 c -6.226,5.543 -14.273,8.602 -22.609,8.602 -18.785,0 -34.016,-15.227 -34.016,-34.012 V 158.925 Z m 272.125,72.286 h -106.3 v -4.254 c 0,-14.778 9,-28.067 22.722,-33.555 5.621,-2.25 11.618,-3.406 17.672,-3.406 13.883,0 27.074,6.062 36.113,16.597 l 25.813,-22.156 c -15.504,-18.062 -38.121,-28.457 -61.926,-28.457 -10.383,0 -20.668,1.984 -30.308,5.84 -26.633,10.652 -44.102,36.449 -44.102,65.137 v 34.015 c 0,38.746 31.41,70.16 70.16,70.16 38.746,0 70.156,-31.414 70.156,-70.16 z m -106.3,29.761 h 72.285 c 0,19.961 -16.18,36.141 -36.141,36.141 -19.961,0 -36.144,-16.18 -36.144,-36.141 z m 187.086,-102.047 h -34.016 v 170.079 h 34.016 z m 0,204.094 h -34.016 v 34.016 h 34.016 z" /></g></g></svg>