<?xml version="1.0" encoding="UTF-8" standalone="no"?>
<svg
   xmlns:dc="http://purl.org/dc/elements/1.1/"
   xmlns:cc="http://creativecommons.org/ns#"
   xmlns:rdf="http://www.w3.org/1999/02/22-rdf-syntax-ns#"
   xmlns:svg="http://www.w3.org/2000/svg"
   xmlns="http://www.w3.org/2000/svg"
   viewBox="0 0 1250 500.00497"
   height="500.00497"
   width="1250"
   xml:space="preserve"
   version="1.1"
   id="svg3559"><metadata
     id="metadata3565"><rdf:RDF><cc:Work
         rdf:about=""><dc:format>image/svg+xml</dc:format><dc:type
           rdf:resource="http://purl.org/dc/dcmitype/StillImage" /><dc:title></dc:title></cc:Work></rdf:RDF></metadata><defs
     id="defs3563" /><g
     transform="matrix(1.25,0,0,-1.25,0,500.00496)"
     id="g3567"><g
       id="g3569"><path
         id="path3571"
         style="fill:#ffffff;fill-opacity:1;fill-rule:nonzero;stroke:none"
         d="m 47.996,399.508 c -26.187,0 -47.5,-21.313 -47.5,-47.516 l 0,-303.996 c 0,-26.187 21.313,-47.5 47.5,-47.5 l 904.012,0 c 26.183,0 47.496,21.313 47.496,47.5 l 0,303.996 c 0,26.203 -21.313,47.516 -47.496,47.516" /><path
         id="path3573"
         style="fill:#000000;fill-opacity:1;fill-rule:nonzero;stroke:none"
         d="M 47.996,400.004 C 21.488,400.004 0,378.504 0,351.992 L 0,47.996 C 0,21.484 21.488,0 47.996,0 L 952.008,0 C 978.516,0 1000,21.484 1000,47.996 l 0,303.996 c 0,26.512 -21.484,48.012 -47.992,48.012 l -904.012,0 z m 0,-0.496 904.012,0 c 26.183,0 47.496,-21.313 47.496,-47.516 l 0,-303.996 c 0,-26.187 -21.313,-47.5 -47.496,-47.5 l -904.012,0 c -26.184,0 -47.5,21.313 -47.5,47.5 l 0,303.996 c 0,26.203 21.316,47.516 47.5,47.516 z" /><path
         id="path3575"
         style="fill:#000000;fill-opacity:1;fill-rule:nonzero;stroke:none"
         d="M 47.996,388.004 C 28.117,388.004 12,371.887 12,351.992 L 12,47.996 C 12,28.117 28.117,12 47.996,12 l 904.012,0 C 971.883,12 988,28.117 988,47.996 l 0,303.996 c 0,19.895 -16.117,36.012 -35.992,36.012 l -904.012,0 z m 0,-15.996 904.012,0 c 11.039,0 19.996,-8.957 19.996,-20.016 l 0,-303.996 c 0,-11.043 -8.957,-20 -19.996,-20 l -904.012,0 c -11.043,0 -20,8.957 -20,20 l 0,303.996 c 0,11.059 8.957,20.016 20,20.016 z" /><path
         id="path3577"
         style="fill:#000000;fill-opacity:1;fill-rule:nonzero;stroke:none"
         d="m 197.312,135.59 0,61.805 c 0,20.968 -12.765,31.726 -38.105,31.726 -15.316,0 -24.434,-3.101 -33.184,-13.308 l 12.215,-11.489 c 5.106,6.563 10.028,8.934 20.239,8.934 14.402,0 20.238,-5.652 20.238,-17.32 l 0,-6.563 -24.43,0 c -21.152,0 -31.906,-11.121 -31.906,-26.621 0,-7.84 2.551,-14.949 7.293,-19.871 5.648,-5.652 13.308,-8.387 24.793,-8.387 11.488,0 17.867,2.735 24.613,9.481 l 0,-8.387 18.234,0 z m -18.597,33.363 c 0,-6.562 -1.277,-10.937 -4.012,-13.672 -4.922,-4.742 -10.211,-5.289 -17.32,-5.289 -11.668,0 -16.957,4.742 -16.957,13.129 0,8.387 5.652,13.309 16.594,13.309 l 21.695,0 0,-7.477 z" /><path
         id="path3579"
         style="fill:#000000;fill-opacity:1;fill-rule:nonzero;stroke:none"
         d="m 291.828,135.59 0,92.437 -18.594,0 0,-56.339 c 0,-14.219 -8.754,-20.602 -19.144,-20.602 -10.395,0 -18.598,6.199 -18.598,20.602 l 0,56.339 -18.597,0 0,-59.074 c 0,-10.39 2.187,-19.14 9.3,-26.07 5.469,-5.289 13.309,-8.387 22.789,-8.387 9.297,0 18.231,3.465 24.614,10.391 l 0,-9.297 18.23,0 z" /><path
         id="path3581"
         style="fill:#000000;fill-opacity:1;fill-rule:nonzero;stroke:none"
         d="m 348.559,212.164 0,14.223 -18.414,0 0,13.308 c 0,6.746 3.281,10.758 10.21,10.758 l 8.204,0 0,15.86 -11.668,0 c -17.321,0 -25.344,-12.399 -25.344,-25.707 l 0,-14.219 -10.574,0 0,-14.223 10.574,0 0,-76.574 18.598,0 0,76.574 18.414,0 z" /><path
         id="path3583"
         style="fill:#000000;fill-opacity:1;fill-rule:nonzero;stroke:none"
         d="m 489.254,135.59 0,16.59 -52.875,0 40.66,49.773 c 8.02,9.848 12.215,16.594 12.215,28.078 0,22.426 -15.316,36.465 -37.559,36.465 -22.062,0 -37.742,-14.586 -37.742,-36.648 l 18.598,0 c 0,14.586 9.301,20.058 19.144,20.058 12.032,0 18.961,-8.023 18.961,-19.691 0,-6.563 -2.004,-11.305 -6.929,-17.32 l -49.954,-60.715 0,-16.59 75.481,0 z" /><path
         id="path3585"
         style="fill:#000000;fill-opacity:1;fill-rule:nonzero;stroke:none"
         d="m 588.695,155.098 0,17.32 -13.855,0 0,36.664 -18.051,0 0,-36.664 -32.269,0 45.578,92.984 -20.055,0 -45.762,-92.984 0,-17.32 52.508,0 0,-19.508 18.051,0 0,19.508 13.855,0 z" /><path
         id="path3587"
         style="fill:#000000;fill-opacity:1;fill-rule:nonzero;stroke:none"
         d="m 738.016,135.59 -36.102,56.156 32.09,36.281 -22.609,0 -35.918,-42.664 0,80.039 -18.594,0 0,-129.812 18.594,0 0,27.164 13.675,15.5 25.891,-42.664 22.973,0 z" /><path
         id="path3589"
         style="fill:#000000;fill-opacity:1;fill-rule:nonzero;stroke:none"
         d="m 878.613,135.59 0,59.07 c 0,10.395 -2.734,19.145 -9.843,26.074 -5.469,5.286 -13.856,8.387 -23.336,8.387 -12.215,0 -21.516,-4.375 -28.989,-13.492 -5.836,8.934 -14.769,13.492 -26.257,13.492 -9.297,0 -18.415,-3.648 -24.614,-10.394 l 0,9.3 -18.23,0 0,-92.437 18.597,0 0,56.336 c 0,14.222 8.75,20.601 19.145,20.601 10.391,0 18.594,-6.195 18.594,-20.601 l 0,-56.336 18.597,0 0,57.25 c 0,13.308 9.118,19.687 19.145,19.687 10.39,0 18.598,-6.195 18.598,-20.601 l 0,-56.336 18.593,0 z" /></g></g></svg>