<?xml version="1.0" encoding="UTF-8" standalone="no"?>
<svg
   xmlns:dc="http://purl.org/dc/elements/1.1/"
   xmlns:cc="http://creativecommons.org/ns#"
   xmlns:rdf="http://www.w3.org/1999/02/22-rdf-syntax-ns#"
   xmlns:svg="http://www.w3.org/2000/svg"
   xmlns="http://www.w3.org/2000/svg"
   viewBox="0 0 600 450.005"
   height="450.005"
   width="600"
   xml:space="preserve"
   version="1.1"
   id="svg4895"><metadata
     id="metadata4901"><rdf:RDF><cc:Work
         rdf:about=""><dc:format>image/svg+xml</dc:format><dc:type
           rdf:resource="http://purl.org/dc/dcmitype/StillImage" /><dc:title></dc:title></cc:Work></rdf:RDF></metadata><defs
     id="defs4899" /><g
     transform="matrix(1.25,0,0,-1.25,0,450.005)"
     id="g4903"><g
       id="g4905"><path
         id="path4907"
         style="fill:#ffffff;fill-opacity:1;fill-rule:nonzero;stroke:none"
         d="m 31.996,359.762 c -17.504,0 -31.754,-14.25 -31.754,-31.754 L 0.242,32 c 0,-17.516 14.25,-31.758 31.754,-31.758 l 416.008,0 c 17.516,0 31.766,14.242 31.766,31.758 l 0,296.008 c 0,17.504 -14.25,31.754 -31.766,31.754" /><path
         id="path4909"
         style="fill:#000000;fill-opacity:1;fill-rule:nonzero;stroke:none"
         d="M 31.996,0.473 C 14.613,0.473 0.473,14.613 0.473,32 l 0,295.996 c 0,17.383 14.14,31.535 31.523,31.535 l 416.008,0 c 17.383,0 31.523,-14.152 31.523,-31.535 l 0,-295.996 c 0,-17.387 -14.14,-31.527 -31.523,-31.527 l -416.008,0 z m 416.008,359.531 -416.008,0 C 14.328,360.004 0,345.676 0,327.996 L 0,32 C 0,14.316 14.328,0 31.996,0 L 448.004,0 C 465.672,0 480,14.316 480,32 l 0,295.996 c 0,17.68 -14.328,32.008 -31.996,32.008" /><path
         id="path4911"
         style="fill:#000000;fill-opacity:1;fill-rule:nonzero;stroke:none"
         d="M 31.996,352 C 18.746,352 8.004,341.254 8.004,328.004 L 8.004,32 C 8.004,18.75 18.746,7.996 31.996,7.996 l 416.008,0 c 13.25,0 24.004,10.754 24.004,24.004 l 0,296.004 c 0,13.25 -10.754,23.996 -24.004,23.996 l -416.008,0 z m 0,-11.996 416.008,0 c 6.629,0 12.004,-5.367 12.004,-12 l 0,-296.004 c 0,-6.633 -5.375,-11.996 -12.004,-11.996 l -416.008,0 C 25.379,20.004 20,25.367 20,32 l 0,296.004 c 0,6.633 5.379,12 11.996,12 z" /><path
         id="path4913"
         style="fill:#000000;fill-opacity:1;fill-rule:nonzero;stroke:none"
         d="m 267.352,304.68 c 0,-8.563 -6.946,-15.5 -15.497,-15.5 -8.558,0 -15.484,6.937 -15.484,15.5 0,8.551 6.926,15.496 15.484,15.496 8.551,0 15.497,-6.945 15.497,-15.496 z m -27.11,-83.281 0,11.625 -38.738,0 c 0,7.48 6.074,13.546 13.558,13.546 l 25.18,0 0,23.243 c 0,7.496 6.063,13.566 13.547,13.566 7.496,0 13.563,-6.07 13.563,-13.566 l 0,-52.286 c 0,-7.484 -6.067,-13.554 -13.563,-13.554 l -43.992,0 c -1.777,0 -3.32,-1.215 -3.762,-2.922 l -13.359,-53.149 c -2.035,-8.101 -10.129,-13.132 -18.285,-11.367 l 15.64,72.641 c 1.531,7.137 7.848,12.223 15.149,12.223 l 35.062,0 z m -25.097,-25.18 8.175,0 c -7.488,-20.035 2.68,-42.352 22.727,-49.836 20.035,-7.484 42.351,2.691 49.836,22.726 7.203,19.278 -1.93,40.817 -20.785,49.055 l 0,8.317 c 24.191,-8.551 36.879,-35.102 28.324,-59.305 -8.555,-24.199 -35.117,-36.887 -59.309,-28.328 -23.461,8.293 -36.23,33.582 -28.968,57.371" /><path
         id="path4915"
         style="fill:#000000;fill-opacity:1;fill-rule:nonzero;stroke:none"
         d="m 47.812,55.617 9.028,0 7.351,20.055 7.438,-20.055 9.027,0 -12.285,31.168 11.363,28.332 -9.023,0 -6.52,-17.633 -6.433,17.633 -9.024,0 L 59.848,86.785 47.812,55.617 Z" /><path
         id="path4917"
         style="fill:#000000;fill-opacity:1;fill-rule:nonzero;stroke:none"
         d="m 81.895,55.617 9.023,0 7.355,20.055 7.438,-20.055 9.023,0 -12.285,31.168 11.367,28.332 -9.027,0 -6.516,-17.633 -6.437,17.633 -9.024,0 L 93.926,86.785 81.895,55.617 Z" /><path
         id="path4919"
         style="fill:#000000;fill-opacity:1;fill-rule:nonzero;stroke:none"
         d="m 137.258,55.617 8.523,0 0,23.231 4.344,0 c 6.27,0 10.027,2.34 12.367,6.183 2.008,3.262 2.426,6.77 2.426,11.95 0,7.105 -0.922,10.863 -3.844,13.957 -2.926,3.089 -6.351,4.179 -11.031,4.179 l -12.785,0 0,-59.5 z m 8.523,51.477 4.426,0 c 6.688,0 6.688,-4.598 6.688,-10.195 0,-5.934 -0.086,-10.028 -7.02,-10.028 l -4.094,0 0,20.223 z" /><path
         id="path4921"
         style="fill:#000000;fill-opacity:1;fill-rule:nonzero;stroke:none"
         d="m 186.996,55.617 8.524,0 0,29.5 c 0,8.856 -5.684,13.367 -12.786,13.367 -3.843,0 -7.019,-1.335 -9.277,-3.589 -2.258,-2.258 -3.594,-5.434 -3.844,-9.196 l 8.274,0 c 0.5,2.758 2.672,4.262 4.847,4.262 3.176,0 4.262,-2.172 4.262,-5.012 l 0,-4.429 c -1.758,0.082 -2.926,0.25 -4.098,0.25 -10.695,0 -13.453,-4.68 -13.453,-14.371 0,-9.36 5.266,-11.282 9.192,-11.282 4.097,0 5.933,1.754 8.191,4.844 l 0.168,0 0,-4.344 z m 0,12.449 c 0,-3.425 -1.758,-5.429 -4.598,-5.429 -2.757,0 -4.429,2.172 -4.429,5.429 0,4.516 3.008,6.02 6.687,6.02 0.75,0 1.418,-0.086 2.34,-0.25 l 0,-5.77 z" /><path
         id="path4923"
         style="fill:#000000;fill-opacity:1;fill-rule:nonzero;stroke:none"
         d="m 203.477,55.617 8.523,0 0,25.153 c 0,6.937 5.098,9.191 8.691,9.191 0.918,0 1.754,-0.164 2.59,-0.5 l 0,9.023 c -4.929,0 -7.769,-1.921 -11.281,-5.011 l 0,4.511 -8.523,0 0,-42.367 z" /><path
         id="path4925"
         style="fill:#000000;fill-opacity:1;fill-rule:nonzero;stroke:none"
         d="m 228.254,55.617 8.523,0 0,11.867 4.094,6.434 7.688,-18.301 9.277,0 -12.199,25.153 10.109,17.214 -8.523,0 -10.278,-18.468 -0.168,0 0,35.601 -8.523,0 0,-59.5 z" /><path
         id="path4927"
         style="fill:#000000;fill-opacity:1;fill-rule:nonzero;stroke:none"
         d="m 285.652,86.117 c -0.086,7.02 -5.097,12.367 -12.035,12.367 -6.851,0 -12.535,-5.179 -12.535,-12.367 0,-5.679 3.262,-9.691 8.609,-11.699 l 4.094,-1.504 c 3.258,-1.254 4.262,-2.84 4.262,-5.18 0,-2.839 -2.34,-4.597 -4.762,-4.597 -3.176,0 -4.262,2.426 -4.597,4.765 l -8.024,0 c 0.336,-8.359 6.02,-12.785 12.703,-12.785 7.356,0 12.703,5.766 12.703,12.785 0,5.012 -2.008,9.524 -8.355,11.95 l -5.016,2.004 c -3.176,1.253 -3.594,2.757 -3.594,4.347 0,2.172 1.504,4.262 4.18,4.262 2.254,0 4.262,-1.504 4.344,-4.348 l 8.023,0 z" /><path
         id="path4929"
         style="fill:#000000;fill-opacity:1;fill-rule:nonzero;stroke:none"
         d="m 294.75,97.984 -4.262,0 0,-6.683 4.262,0 0,-25.738 c 0,-4.516 2.59,-9.946 10.277,-9.946 l 3.508,0 0,8.024 c -3.758,0 -5.262,0.25 -5.262,4.175 l 0,23.485 5.262,0 0,6.683 -5.262,0 0,12.872 -8.523,0 0,-12.872 z" /><path
         id="path4931"
         style="fill:#000000;fill-opacity:1;fill-rule:nonzero;stroke:none"
         d="m 328.176,55.617 8.523,0 0,29.5 c 0,8.856 -5.679,13.367 -12.785,13.367 -3.844,0 -7.019,-1.335 -9.273,-3.589 -2.258,-2.258 -3.594,-5.434 -3.844,-9.196 l 8.273,0 c 0.5,2.758 2.672,4.262 4.844,4.262 3.176,0 4.262,-2.172 4.262,-5.012 l 0,-4.429 c -1.754,0.082 -2.922,0.25 -4.094,0.25 -10.695,0 -13.453,-4.68 -13.453,-14.371 0,-9.36 5.266,-11.282 9.191,-11.282 4.094,0 5.934,1.754 8.192,4.844 l 0.164,0 0,-4.344 z m 0,12.449 c 0,-3.425 -1.754,-5.429 -4.594,-5.429 -2.758,0 -4.43,2.172 -4.43,5.429 0,4.516 3.008,6.02 6.684,6.02 0.754,0 1.422,-0.086 2.34,-0.25 l 0,-5.77 z m -14.707,36.52 7.523,0 0,8.523 -7.523,0 0,-8.523 z m 13.539,0 7.519,0 0,8.523 -7.519,0 0,-8.523 z" /><path
         id="path4933"
         style="fill:#000000;fill-opacity:1;fill-rule:nonzero;stroke:none"
         d="m 343.059,55.617 8.523,0 0,28.496 c 0,3.762 1.086,5.848 4.262,5.848 2.676,0 4.179,-1.922 4.179,-5.012 l 0,-29.332 8.524,0 0,32.508 c 0,7.602 -4.512,10.359 -8.774,10.359 -3.929,0 -6.269,-1.921 -8.023,-4.593 l -0.168,0 0,4.093 -8.523,0 0,-42.367 z" /><path
         id="path4935"
         style="fill:#000000;fill-opacity:1;fill-rule:nonzero;stroke:none"
         d="m 384.062,84.949 c 0,2.672 0.918,5.012 4.18,5.012 2.422,0 4.262,-1.922 4.262,-4.594 l 0,-16.465 c 0,-3.089 -1.672,-5.261 -4.262,-5.261 -2.926,0 -4.18,2.34 -4.18,5.765 l 0,15.543 z m 8.442,-29.332 8.523,0 0,59.5 -8.523,0 0,-20.976 -0.168,0 c -1.84,2.758 -4.512,4.343 -7.856,4.343 -4.093,0 -6.183,-1.585 -7.605,-3.843 -1.086,-1.754 -1.336,-4.176 -1.336,-10.278 l 0,-16.129 c 0,-4.679 0.418,-7.269 1.422,-9.109 1.504,-2.758 4.012,-4.008 7.437,-4.008 4.262,0 5.934,1.922 8.106,4.344 l 0,-3.844 z" /><path
         id="path4937"
         style="fill:#000000;fill-opacity:1;fill-rule:nonzero;stroke:none"
         d="m 432.672,73.582 0,11.699 c 0,7.438 -4.848,13.203 -12.703,13.203 -5.18,0 -9.11,-2.421 -11.114,-6.097 -1.171,-2.172 -1.589,-5.184 -1.589,-8.61 l 0,-13.953 c 0,-3.425 0.418,-6.437 1.589,-8.609 2.004,-3.676 5.934,-6.098 11.114,-6.098 3.926,0 7.019,1.418 9.277,3.758 2.172,2.258 3.426,5.516 3.426,9.027 l -8.524,0 c -0.168,-1.839 -0.921,-4.261 -4.179,-4.261 -2.59,0 -4.18,1.504 -4.18,4.175 l 0,5.766 16.883,0 z m -16.883,11.535 c 0,3.176 1.59,4.844 4.18,4.844 2.59,0 4.179,-1.668 4.179,-4.844 l 0,-4.847 -8.359,0 0,4.847 z" /></g></g></svg>