<?xml version="1.0" encoding="UTF-8" standalone="no"?>
<svg
   xmlns:dc="http://purl.org/dc/elements/1.1/"
   xmlns:cc="http://creativecommons.org/ns#"
   xmlns:rdf="http://www.w3.org/1999/02/22-rdf-syntax-ns#"
   xmlns:svg="http://www.w3.org/2000/svg"
   xmlns="http://www.w3.org/2000/svg"
   viewBox="0 0 1250 500.00388"
   height="500.00388"
   width="1250"
   xml:space="preserve"
   version="1.1"
   id="svg7081"><metadata
     id="metadata7087"><rdf:RDF><cc:Work
         rdf:about=""><dc:format>image/svg+xml</dc:format><dc:type
           rdf:resource="http://purl.org/dc/dcmitype/StillImage" /><dc:title></dc:title></cc:Work></rdf:RDF></metadata><defs
     id="defs7085" /><g
     transform="matrix(1.25,0,0,-1.25,0,500.00389)"
     id="g7089"><g
       id="g7091"><path
         id="path7093"
         style="fill:#ffffff;fill-opacity:1;fill-rule:nonzero;stroke:none"
         d="m 47.996,399.507 c -26.187,0 -47.5,-21.312 -47.5,-47.516 l 0,-303.996 c 0,-26.187 21.313,-47.5 47.5,-47.5 l 904.012,0 c 26.183,0 47.496,21.313 47.496,47.5 l 0,303.996 c 0,26.204 -21.313,47.516 -47.496,47.516" /><path
         id="path7095"
         style="fill:#000000;fill-opacity:1;fill-rule:nonzero;stroke:none"
         d="M 47.996,400.003 C 21.488,400.003 0,378.503 0,351.991 L 0,47.995 C 0,21.484 21.488,-0.001 47.996,-0.001 l 904.012,0 c 26.508,0 47.992,21.485 47.992,47.996 l 0,303.996 c 0,26.512 -21.484,48.012 -47.992,48.012 l -904.012,0 z m 0,-0.496 904.012,0 c 26.183,0 47.496,-21.312 47.496,-47.516 l 0,-303.996 c 0,-26.187 -21.313,-47.5 -47.496,-47.5 l -904.012,0 c -26.184,0 -47.5,21.313 -47.5,47.5 l 0,303.996 c 0,26.204 21.316,47.516 47.5,47.516 z" /><path
         id="path7097"
         style="fill:#000000;fill-opacity:1;fill-rule:nonzero;stroke:none"
         d="M 47.996,388.003 C 28.117,388.003 12,371.886 12,351.991 L 12,47.995 C 12,28.116 28.117,11.999 47.996,11.999 l 904.012,0 c 19.875,0 35.992,16.117 35.992,35.996 l 0,303.996 c 0,19.895 -16.117,36.012 -35.992,36.012 l -904.012,0 z m 0,-15.996 904.012,0 c 11.039,0 19.996,-8.957 19.996,-20.016 l 0,-303.996 c 0,-11.043 -8.957,-20 -19.996,-20 l -904.012,0 c -11.043,0 -20,8.957 -20,20 l 0,303.996 c 0,11.059 8.957,20.016 20,20.016 z" /><path
         id="path7099"
         style="fill:#000000;fill-opacity:1;fill-rule:nonzero;stroke:none"
         d="m 870.273,235.851 9.024,9.078 c 7.469,-7.438 18.578,-9.813 28.422,-6.121 3.316,1.25 4.992,4.922 3.761,8.238 -0.902,2.359 -3.093,3.984 -5.605,4.137 l -13.586,0.855 c -10.598,0.668 -18.633,9.778 -17.965,20.356 0.52,8.41 6.477,15.504 14.68,17.468 11.914,2.872 24.492,0.071 34.082,-7.57 l -7.981,-10.015 c -6.511,5.195 -15.043,7.089 -23.125,5.144 -3.418,-0.82 -5.554,-4.273 -4.718,-7.711 0.656,-2.734 3.008,-4.715 5.812,-4.906 l 13.606,-0.836 c 10.578,-0.668 18.629,-9.793 17.961,-20.375 -0.465,-7.555 -5.332,-14.117 -12.426,-16.766 -14.543,-5.453 -30.918,-1.929 -41.942,9.024 z m -65.597,0 9.039,9.078 c 7.453,-7.438 18.562,-9.813 28.406,-6.121 3.317,1.25 4.992,4.922 3.746,8.238 -0.875,2.359 -3.078,3.984 -5.59,4.137 l -13.605,0.855 c -10.582,0.668 -18.613,9.778 -17.965,20.356 0.535,8.41 6.496,15.504 14.684,17.468 11.929,2.872 24.507,0.071 34.078,-7.57 l -7.981,-10.015 c -6.496,5.195 -15.023,7.089 -23.109,5.144 -3.434,-0.82 -5.555,-4.273 -4.715,-7.711 0.641,-2.734 3.008,-4.715 5.809,-4.906 l 13.605,-0.836 c 10.582,-0.668 18.633,-9.793 17.965,-20.375 -0.481,-7.555 -5.332,-14.117 -12.426,-16.766 -14.547,-5.453 -30.937,-1.929 -41.941,9.024 z m -16,-10.254 -12.801,0 0,7.23 c -7.504,-9.281 -21.094,-10.734 -30.375,-3.23 -5.074,4.101 -8.016,10.273 -8.016,16.801 l 0,43.191 12.805,0 0,-39.191 c 0,-7.078 5.723,-12.801 12.781,-12.801 7.078,0 12.805,5.723 12.805,12.801 l 0,39.191 12.801,0 0,-63.992 z m -63.992,0 -8,0 c -7.965,0 -14.411,6.445 -14.411,14.41 l 0,75.188 12.805,0 0,-73.602 c 0,-2.203 1.793,-3.996 4,-3.996 l 5.606,0 0,-12 z m -91.204,0 0,89.598 12.801,0 0,-32.817 c 7.504,9.277 21.094,10.715 30.375,3.211 5.074,-4.102 8.032,-10.273 8.032,-16.801 l 0,-43.191 -12.817,0 0,39.191 c 0,7.078 -5.726,12.801 -12.785,12.801 -7.078,0 -12.805,-5.723 -12.805,-12.801 l 0,-39.191 -12.801,0 z m -12.8,9.605 c -10.172,-12.238 -28.321,-13.929 -40.559,-3.761 -6.582,5.472 -10.394,13.589 -10.394,22.152 l 0,8 c 0,15.914 12.886,28.801 28.8,28.801 8.563,0 16.68,-3.813 22.153,-10.395 l -9.848,-8.187 c -5.656,6.804 -15.738,7.746 -22.527,2.086 -3.657,-3.024 -5.778,-7.536 -5.778,-12.305 l 0,-8 c 0,-8.836 7.164,-15.996 16,-15.996 4.75,0 9.262,2.117 12.305,5.777 l 9.848,-8.172 z m -118.157,0.649 9.024,9.078 c 7.469,-7.438 18.562,-9.813 28.422,-6.121 3.316,1.25 4.992,4.922 3.746,8.238 -0.891,2.359 -3.078,3.984 -5.59,4.137 l -13.605,0.855 c -10.579,0.668 -18.629,9.778 -17.965,20.356 0.535,8.41 6.476,15.504 14.683,17.468 11.93,2.872 24.492,0.071 34.082,-7.57 l -7.984,-10.015 c -6.492,5.195 -15.024,7.089 -23.106,5.144 -3.437,-0.82 -5.558,-4.273 -4.738,-7.711 0.672,-2.734 3.028,-4.715 5.832,-4.906 l 13.606,-0.836 c 10.578,-0.668 18.609,-9.793 17.961,-20.375 -0.477,-7.555 -5.348,-14.117 -12.426,-16.766 -14.543,-5.453 -30.934,-1.929 -41.942,9.024 z m -47.996,-10.254 0,63.992 12.801,0 0,-7.211 c 7.488,9.277 21.094,10.715 30.375,3.211 l 0,-0.016 -9.094,-11.211 c -5.281,4.7 -13.367,4.219 -18.066,-1.062 -2.086,-2.34 -3.231,-5.367 -3.231,-8.512 l 0,-39.191 -12.8,0 0.015,0 z m -57.597,38.406 27.191,0 c 0,7.504 -6.086,13.586 -13.605,13.586 -7.504,0 -13.586,-6.082 -13.586,-13.586 z m 39.992,-11.215 -39.992,0 0,-1.586 c 0,-5.554 3.382,-10.566 8.543,-12.632 7.113,-2.856 15.246,-0.856 20.238,4.972 l 9.707,-8.34 c -8.543,-9.965 -22.508,-13.398 -34.695,-8.511 -10.035,4 -16.598,13.707 -16.598,24.511 l 0,12.801 c 0,14.578 11.813,26.391 26.391,26.391 14.578,0 26.406,-11.813 26.406,-26.391 l 0,-11.215 z m -96.809,-27.191 -23.191,63.992 13.601,0 15.196,-44.797 15.195,44.797 13.606,0 -23.192,-63.992 -11.215,0 z m -87.187,0 0,70.402 c 0,8.274 5.285,15.606 13.129,18.219 8.086,2.703 16.851,2.703 24.937,0 7.844,-2.613 13.125,-9.945 13.125,-18.219 l 0,-2.394 c 0,-5.743 -3.605,-10.871 -9.008,-12.801 5.403,-1.949 9.008,-7.074 9.008,-12.801 l 0,-24.801 c 0,-9.726 -7.879,-17.605 -17.601,-17.605 l -8,0 0,12 6.406,0 c 3.539,0 6.394,2.871 6.394,6.39 l 0,24.016 c 0,3.535 -2.855,6.391 -6.394,6.391 l -7.996,0 0,12 7.996,0 c 3.539,0 6.394,2.871 6.394,6.41 l 0,3.195 c 0,2.75 -1.761,5.196 -4.375,6.067 -5.468,1.828 -11.367,1.828 -16.836,0 -2.617,-0.871 -4.394,-3.317 -4.394,-6.067 l 0,-70.402 -12.785,0 z m -19.211,76.812 -12.801,0 0,12.786 12.801,0 0,-12.786 z m 0,-76.812 -12.801,0 0,63.992 12.801,0 0,-63.992 z m -70.399,38.406 27.211,0 c 0,7.504 -6.086,13.586 -13.605,13.586 -7.504,0 -13.606,-6.082 -13.606,-13.586 z m 40.012,-11.215 -40.012,0 0,-1.586 c 0,-5.554 3.399,-10.566 8.563,-12.632 7.109,-2.856 15.246,-0.856 20.234,4.972 l 9.711,-8.34 c -8.562,-9.965 -22.512,-13.398 -34.699,-8.511 -10.031,4 -16.594,13.707 -16.594,24.511 l 0,12.801 c 0,14.578 11.809,26.391 26.391,26.391 14.578,0 26.406,-11.813 26.406,-26.391 l 0,-11.215 z m -114.398,23.211 22.39,0 c 7.524,0 13.606,6.086 13.606,13.59 0,7.52 -6.082,13.606 -13.606,13.606 l -22.39,0 0,-27.196 z m -13.606,-50.402 0,89.598 36.801,0 c 14.137,0 25.602,-11.454 25.602,-25.606 0,-10.973 -6.989,-20.715 -17.399,-24.234 l 20.598,-39.758 -16,0 -18.406,38.406 -17.59,0 0,-38.406" /><path
         id="path7101"
         style="fill:#000000;fill-opacity:1;fill-rule:nonzero;stroke:none"
         d="m 708.805,109.593 c 0,-7.059 5.726,-12.801 12.8,-12.801 7.059,0 12.801,5.742 12.801,12.801 l 0,39.996 c 0,7.074 -5.742,12.82 -12.801,12.82 -7.074,0 -12.8,-5.746 -12.8,-12.82 l 0,-39.996 z m -12.801,0 0,39.996 c 0,14.152 11.469,25.606 25.601,25.606 14.137,0 25.586,-11.454 25.586,-25.606 l 0,-39.996 c 0,-14.133 -11.449,-25.602 -25.586,-25.602 -14.132,0 -25.601,11.469 -25.601,25.602 z m -56.012,0 c 0,-7.059 5.742,-12.801 12.801,-12.801 7.078,0 12.805,5.742 12.805,12.801 l 0,39.996 c 0,7.074 -5.727,12.82 -12.805,12.82 -7.059,0 -12.801,-5.746 -12.801,-12.82 l 0,-39.996 z m -12.785,0 0,39.996 c 0,14.152 11.453,25.606 25.586,25.606 14.137,0 25.605,-11.454 25.605,-25.606 l 0,-39.996 c 0,-14.133 -11.468,-25.602 -25.605,-25.602 -14.133,0 -25.586,11.469 -25.586,25.602 z M 560,84.792 l 0,12 35.621,44.848 c 4.395,5.539 3.488,13.574 -2.066,17.98 -5.524,4.395 -13.59,3.473 -17.981,-2.05 -1.797,-2.274 -2.769,-5.075 -2.769,-7.981 l -12.805,0 c 0,14.152 11.453,25.606 25.605,25.606 14.137,0 25.586,-11.454 25.586,-25.606 0,-5.793 -1.964,-11.434 -5.589,-15.98 l -28.797,-36.012 34.386,0 0,-12.805 -51.191,0 z m -115.199,0 0,64.012 12.804,0 0,-7.231 c 7.5,9.282 21.09,10.715 30.372,3.231 5.078,-4.102 8.031,-10.274 8.031,-16.801 l 0,-43.211 -12.801,0 0,39.211 c 0,7.059 -5.742,12.801 -12.801,12.801 -7.078,0 -12.801,-5.742 -12.801,-12.801 l 0,-39.211 -12.804,0 z m -19.192,76.813 -12.804,0 0,12.785 12.804,0 0,-12.785 z m 0,-76.813 -12.804,0 0,64.012 12.804,0 0,-64.012 z m -76.812,0 -8,0 c -7.945,0 -14.391,6.445 -14.391,14.41 l 0,39.192 -6.41,0 0,10.41 6.41,0 0,19.191 12.801,0 0,-19.191 9.59,0 0,-10.41 -9.59,0 0,-37.602 c 0,-2.207 1.777,-4 4,-4 l 5.59,0 0,-12 z m -94.399,10.258 9.024,9.074 c 7.469,-7.433 18.578,-9.812 28.426,-6.117 3.316,1.246 4.988,4.922 3.742,8.238 -0.891,2.356 -3.078,3.981 -5.59,4.133 l -13.605,0.856 c -10.579,0.668 -18.614,9.777 -17.965,20.359 0.535,8.426 6.496,15.5 14.683,17.465 11.93,2.871 24.512,0.07 34.082,-7.571 l -7.984,-10 c -6.492,5.18 -15.02,7.079 -23.106,5.129 -3.437,-0.82 -5.554,-4.273 -4.734,-7.707 0.668,-2.738 3.024,-4.718 5.828,-4.906 l 13.606,-0.84 c 10.578,-0.664 18.629,-9.773 17.965,-20.355 -0.481,-7.555 -5.336,-14.133 -12.43,-16.785 -14.543,-5.45 -30.934,-1.93 -41.942,9.027 z m -47.996,-10.258 0,64.012 12.805,0 0,-7.231 c 7.484,9.282 21.09,10.715 30.371,3.231 l 0,-0.016 -9.109,-11.23 c -5.281,4.699 -13.367,4.238 -18.067,-1.059 -2.086,-2.344 -3.23,-5.367 -3.23,-8.496 l 0,-39.211 -12.801,0 0.031,0 z m -57.597,38.406 27.191,0 c 0,7.504 -6.082,13.606 -13.586,13.606 -7.523,0 -13.605,-6.102 -13.605,-13.606 z m 39.992,-11.195 -39.992,0 0,-1.605 c 0,-5.555 3.383,-10.563 8.543,-12.633 7.113,-2.836 15.246,-0.836 20.238,4.976 l 9.707,-8.343 c -8.543,-9.965 -22.508,-13.399 -34.695,-8.512 -10.032,4 -16.594,13.707 -16.594,24.512 l 0,12.8 c 0,14.579 11.824,26.391 26.406,26.391 14.563,0 26.387,-11.812 26.387,-26.391" /><path
         id="path7103"
         style="fill:#000000;fill-opacity:1;fill-rule:nonzero;stroke:none"
         d="m 774.402,84.792 0,64.012 12.805,0 0,-7.231 c 7.484,9.282 21.09,10.715 30.371,3.231 1.453,-1.18 2.734,-2.531 3.828,-4.016 8.395,10.254 23.52,11.774 33.774,3.399 5.59,-4.563 8.82,-11.383 8.82,-18.594 l 0,-40.801 -12.805,0 0,39.211 c 0,7.059 -5.722,12.801 -12.8,12.801 -7.075,0 -12.801,-5.742 -12.801,-12.801 l 0,-39.211 -12.801,0 0,39.211 c 0,7.059 -5.727,12.801 -12.785,12.801 -7.078,0 -12.801,-5.742 -12.801,-12.801 l 0,-39.211" /></g></g></svg>