<?xml version="1.0" encoding="UTF-8" standalone="no"?>
<svg
   xmlns:dc="http://purl.org/dc/elements/1.1/"
   xmlns:cc="http://creativecommons.org/ns#"
   xmlns:rdf="http://www.w3.org/1999/02/22-rdf-syntax-ns#"
   xmlns:svg="http://www.w3.org/2000/svg"
   xmlns="http://www.w3.org/2000/svg"
   xmlns:sodipodi="http://sodipodi.sourceforge.net/DTD/sodipodi-0.dtd"
   xmlns:inkscape="http://www.inkscape.org/namespaces/inkscape"
   viewBox="0 0 847.15851 743.62274"
   height="743.62274"
   width="847.15851"
   xml:space="preserve"
   version="1.1"
   id="svg4553"
   sodipodi:docname="DE_101-23.svg"
   inkscape:version="1.0.1 (3bc2e813f5, 2020-09-07)"><sodipodi:namedview
     pagecolor="#ffffff"
     bordercolor="#666666"
     borderopacity="1"
     objecttolerance="10"
     gridtolerance="10"
     guidetolerance="10"
     inkscape:pageopacity="0"
     inkscape:pageshadow="2"
     inkscape:window-width="1920"
     inkscape:window-height="1027"
     id="namedview884"
     showgrid="false"
     inkscape:zoom="0.98840441"
     inkscape:cx="423.57925"
     inkscape:cy="371.81137"
     inkscape:window-x="-8"
     inkscape:window-y="-8"
     inkscape:window-maximized="1"
     inkscape:current-layer="svg4553" /><metadata
     id="metadata4559"><rdf:RDF><cc:Work
         rdf:about=""><dc:format>image/svg+xml</dc:format><dc:type
           rdf:resource="http://purl.org/dc/dcmitype/StillImage" /><dc:title></dc:title></cc:Work></rdf:RDF></metadata><defs
     id="defs4557" /><path
     id="path4565"
     style="fill:#ffffff;fill-opacity:1;fill-rule:nonzero;stroke:none;stroke-width:1.25"
     d="m 423.58375,0.49774 c -9.39,0 -18.77875,3.58375 -25.9475,10.7475 -2.34875,2.34875 -4.30625,4.94125 -5.88375,7.69 l -19.0575,32.695 h -0.0875 L 6.23,686.68399 c -0.0675,0.1175 -0.12125,0.24 -0.19,0.3625 -1.855,2.9875 -3.32,6.3025 -4.2875,9.8875 -5.23875,19.57 6.3775,39.6925 25.9525,44.93625 3.2325,0.86875 6.485,1.265 9.6675,1.25 h 772.59375 c 20.26375,0 36.68875,-16.42625 36.68875,-36.695 0,-6.625 -1.7675,-12.85125 -4.84875,-18.2225 -0.0237,-0.0437 -0.0487,-0.0775 -0.0625,-0.12125 L 461.27875,27.56774 c -4.82375,-8.33 -7.06,-11.63 -11.7525,-16.3225 -7.1625,-7.16375 -16.5525,-10.7475 -25.9425,-10.7475 z" /><path
     id="path4567"
     style="fill:#c1121c;fill-opacity:1;fill-rule:nonzero;stroke:none;stroke-width:1.25"
     d="M 423.58375,9.69274 C 414.6775,9.62899 404.8975,14.18399 400.1075,22.69524 L 13.49125,692.56399 c -2.23125,4.56 -3.16875,8.525 -3.19875,13.06125 0,8.12 3.59375,15.825 9.81,21.055 5.48375,4.2375 10.66875,6.445 17.65125,6.445 h 772.3825 c 4.7125,0.0438 9.43375,-1.08875 13.72625,-3.91625 8.05625,-4.86875 12.9975,-13.60375 13.0075,-23.0325 -0.22875,-4.8675 -1.43,-10 -3.59875,-13.6125 L 446.88,22.58774 c -0.0337,-0.05875 -0.0738,-0.1175 -0.1125,-0.17625 -0.0387,-0.0575 -0.0775,-0.11125 -0.1175,-0.18 -1.36625,-2.1975 -3.085,-4.13125 -5.05375,-5.79125 -4.4825,-3.88625 -10.1025,-6.22 -16.025,-6.64 -0.66375,-0.06375 -1.3275,-0.1025 -1.9875,-0.1075 z m -385.83,723.4325 H 35.85 37.7925 Z m 385.43,-590.66375 294.62875,510.66375 H 128.14 Z" /><path
     id="path4569"
     style="fill:#000000;fill-opacity:1;fill-rule:nonzero;stroke:none;stroke-width:1.25"
     d="m 423.58375,2.4e-4 c -9.52125,0 -19.0375,3.6325 -26.29875,10.89875 -2.3825,2.3725 -4.365,5.00875 -5.96625,7.7875 L 372.4075,51.13274 h -0.0888 L 5.80125,686.43024 c -0.08375,0.1475 -0.1475,0.27375 -0.20125,0.37625 -1.87875,3.0275 -3.35375,6.3775 -4.325,9.995 -5.3125,19.83875 6.46375,40.235 26.29875,45.5525 3.27625,0.87875 6.57125,1.27875 9.79875,1.26875 h 772.59375 c 20.53125,0 37.1925,-16.66 37.1925,-37.1975 0,-6.71875 -1.7975,-13.0175 -4.9175,-18.46625 -0.02,-0.02 -0.0338,-0.0638 -0.0638,-0.1225 L 461.72375,27.31899 C 456.885,18.98399 454.605,15.61524 449.8875,10.89899 442.6275,3.63274 433.105,2.4e-4 423.58875,2.4e-4 Z m 0,0.4975 c 9.39,0 18.78,3.58375 25.9425,10.7475 4.6925,4.6925 6.92875,7.9925 11.7525,16.3225 l 380.46,660.51375 c 0.0188,0.0437 0.0438,0.0775 0.0675,0.12125 3.08125,5.37125 4.84875,11.5975 4.84875,18.2225 0,20.26875 -16.425,36.695 -36.68875,36.695 H 37.3725 c -3.1825,0.015 -6.435,-0.38125 -9.6675,-1.25 C 8.13,736.62649 -3.48625,716.50399 1.7525,696.93399 c 0.9625,-3.585 2.4325,-6.9 4.2875,-9.8875 0.06875,-0.1225 0.1225,-0.245 0.19,-0.3625 L 372.6075,51.63024 h 0.0875 l 19.0575,-32.695 c 1.5775,-2.74875 3.535,-5.34125 5.88375,-7.69 C 404.805,4.08149 414.19,0.49774 423.58375,0.49774 Z" /><path
     id="path4571"
     style="fill:#000000;fill-opacity:1;fill-rule:nonzero;stroke:none;stroke-width:1.25"
     d="m 544.39757,609.40351 v -64.18 l -46.70375,-30.56125 2.44625,-5.65 c 2.98375,-6.89875 4.52625,-14.335 4.52625,-21.855 0,-5.61 -0.86,-11.19125 -2.54875,-16.5425 l 17.8275,-32.35875 42.7875,9.17 9.17,-9.17 -36.675,-42.78375 v -18.34 l -12.22625,12.2275 c -20.78625,0 -40.15125,10.56625 -51.40125,28.04625 l -11.9875,18.6325 -26.28875,-13.17875 1.7575,-3.12875 c 1.5375,-2.74 2.34875,-5.835 2.34875,-8.98 0,-10.1275 -8.2125,-18.335 -18.34,-18.335 -6.62625,0 -12.73875,3.57875 -15.98625,9.36 l -24.86875,44.2825 c -1.28375,2.285 -1.9525,4.85875 -1.9525,7.48 0,4.84375 2.295,9.405 6.19125,12.28625 l -22.12875,-3.9025 c -2.8025,-0.4925 -5.64,-0.74125 -8.49125,-0.74125 -9.62875,0 -19.0425,2.84125 -27.06,8.17375 l -8.13,-8.13 c -6.875,-6.88 -16.20625,-10.7425 -25.9325,-10.7425 -16.5875,0 -31.11375,11.1375 -35.41625,27.16375 l -5.84375,21.7375 22.925,12.2225 4.8825,-27.87625 c 1.665,-9.5025 9.91625,-16.43625 19.565,-16.43625 5.26875,0 10.3225,2.09 14.0475,5.81625 l 4.44875,4.4475 c -7.97875,8.955 -12.3825,20.5275 -12.3825,32.52 0,5.65375 0.98125,11.265 2.895,16.5825 l -24.2875,40.12125 9.16625,58.07125 17.3475,5.9475 -9.17,-58.07125 43.2675,-33.755 -5.60125,42.925 27.505,51.9525 h 18.335 l -27.505,-51.9525 27.105,-47.945 c 14.14,3.42875 28.6375,5.16125 43.18875,5.16125 13.8225,0 27.5975,-1.5675 41.06375,-4.6575 l -28.8375,84.11625 3.05625,15.2775 h 15.27875 l -3.05625,-15.2775 36.67375,-84.7225 39.7325,23.59875 v 42.78375 z m -103.91125,-143.6375 -24.39,-12.2275 9.7375,-17.33875 25.46375,12.76375 z m -24.4525,-94.74125 c 0,10.12625 8.2125,18.335 18.34,18.335 10.12625,0 18.335,-8.20875 18.335,-18.335 0,-10.1275 -8.20875,-18.34 -18.335,-18.34 -10.1275,0 -18.34,8.2125 -18.34,18.34" /></svg>
