<?xml version="1.0" encoding="UTF-8" standalone="no"?>
<svg
   xmlns:dc="http://purl.org/dc/elements/1.1/"
   xmlns:cc="http://creativecommons.org/ns#"
   xmlns:rdf="http://www.w3.org/1999/02/22-rdf-syntax-ns#"
   xmlns:svg="http://www.w3.org/2000/svg"
   xmlns="http://www.w3.org/2000/svg"
   viewBox="0 0 600 330"
   height="330"
   width="600"
   xml:space="preserve"
   id="svg5969"
   version="1.1"><metadata
     id="metadata5975"><rdf:RDF><cc:Work
         rdf:about=""><dc:format>image/svg+xml</dc:format><dc:type
           rdf:resource="http://purl.org/dc/dcmitype/StillImage" /><dc:title></dc:title></cc:Work></rdf:RDF></metadata><defs
     id="defs5973"><clipPath
       id="clipPath5991"
       clipPathUnits="userSpaceOnUse"><path
         id="path5989"
         d="M 0,0 H 450 V 248 H 0 Z" /></clipPath></defs><g
     transform="matrix(1.3333333,0,0,-1.3333333,0,330)"
     id="g5977"><g
       id="g5979" /><g
       id="g5981"><g
         transform="translate(0,-0.5)"
         id="g5983"><g
           id="g5985"><g
             clip-path="url(#clipPath5991)"
             id="g5987"><g
               id="g5993"><path
                 id="path5995"
                 style="fill:#ffffff;fill-opacity:1;fill-rule:nonzero;stroke:none"
                 d="m 29.996,247.785 c -16.418,0 -29.769,-13.363 -29.769,-29.781 V 30.508 C 0.227,14.086 13.578,0.734 29.996,0.734 h 390.008 c 16.418,0 29.769,13.352 29.769,29.774 v 187.496 c 0,16.418 -13.351,29.781 -29.769,29.781" /><path
                 id="path5997"
                 style="fill:#000000;fill-opacity:1;fill-rule:nonzero;stroke:none"
                 d="M 29.996,0.949 C 13.699,0.949 0.449,14.211 0.449,30.508 v 187.496 c 0,16.297 13.25,29.555 29.547,29.555 h 390.008 c 16.297,0 29.547,-13.258 29.547,-29.555 V 30.508 c 0,-16.297 -13.25,-29.559 -29.547,-29.559 z M 420.004,248.012 H 29.996 C 13.426,248.012 0,234.574 0,218.004 V 30.508 C 0,13.945 13.426,0.5 29.996,0.5 H 420.004 C 436.566,0.5 450,13.945 450,30.508 v 187.496 c 0,16.57 -13.434,30.008 -29.996,30.008" /></g></g></g></g><path
         id="path5999"
         style="fill:#000000;fill-opacity:1;fill-rule:nonzero;stroke:none"
         d="m 29.996,18.758 h 390.008 c 6.215,0 11.25,5.035 11.25,11.25 v 187.496 c 0,6.215 -5.035,11.25 -11.25,11.25 H 29.996 c -6.215,0 -11.25,-5.035 -11.25,-11.25 V 30.008 c 0,-6.215 5.035,-11.25 11.25,-11.25 z m 0,-11.25 c -12.43,0 -22.5,10.07 -22.5,22.5 v 187.496 c 0,12.43 10.07,22.5 22.5,22.5 h 390.008 c 12.43,0 22.5,-10.07 22.5,-22.5 V 30.008 c 0,-12.43 -10.07,-22.5 -22.5,-22.5" /><path
         id="path6001"
         style="fill:#000000;fill-opacity:1;fill-rule:nonzero;stroke:none"
         d="m 46.809,126.805 c 0,11.05 0.293,18.172 0.879,21.367 0.589,3.191 1.64,6.133 3.152,8.82 2.144,3.992 5.66,7.754 10.555,11.281 4.894,3.532 10.957,5.297 18.183,5.297 7.184,0 13.223,-1.765 18.117,-5.297 4.895,-3.527 8.457,-7.289 10.684,-11.281 1.469,-2.687 2.5,-5.629 3.09,-8.82 0.586,-3.195 0.879,-10.317 0.879,-21.367 0,-11.047 -0.293,-18.168 -0.879,-21.364 -0.59,-3.191 -1.621,-6.132 -3.09,-8.82 -2.227,-4.035 -5.789,-7.785 -10.684,-11.25 -4.894,-3.469 -10.933,-5.199 -18.117,-5.199 -7.226,0 -13.289,1.73 -18.183,5.199 -4.895,3.465 -8.411,7.215 -10.555,11.25 -1.512,2.688 -2.563,5.629 -3.152,8.82 -0.586,3.196 -0.879,10.317 -0.879,21.364 z m 13.925,0 c 0,-9.453 0.325,-15.586 0.977,-18.403 0.652,-2.812 1.879,-5.355 3.687,-7.625 1.387,-1.847 3.278,-3.433 5.672,-4.757 2.395,-1.325 5.231,-1.985 8.508,-1.985 3.277,0 6.113,0.66 8.508,1.985 2.394,1.324 4.285,2.91 5.672,4.757 1.805,2.27 3.035,4.813 3.687,7.625 0.649,2.817 0.977,8.95 0.977,18.403 0,9.414 -0.328,15.527 -0.977,18.34 -0.652,2.816 -1.882,5.398 -3.687,7.753 -1.387,1.762 -3.278,3.317 -5.672,4.665 -2.395,1.343 -5.231,2.015 -8.508,2.015 -3.277,0 -6.113,-0.672 -8.508,-2.015 -2.394,-1.348 -4.285,-2.903 -5.672,-4.665 -1.808,-2.355 -3.035,-4.937 -3.687,-7.753 -0.652,-2.813 -0.977,-8.926 -0.977,-18.34 z m 23.254,52.308 v 13.93 h 13.93 v -13.93 z m -22.75,0 v 13.93 H 75.23 v -13.93 z M 127.41,96.746 v 76.004 h 13.172 V 97.816 c 0,-3.023 1.641,-4.539 4.918,-4.539 h 4.473 V 80.926 h -5.797 c -4.789,0 -8.781,1.168 -11.977,3.5 -3.191,2.332 -4.789,6.437 -4.789,12.32 z m 26.028,-4.918 9.203,9.078 c 5.714,-5.59 12.582,-8.383 20.609,-8.383 3.738,0 6.824,0.704 9.262,2.11 2.437,1.41 3.656,3.5 3.656,6.273 0,3.821 -2.668,5.965 -8.004,6.426 l -11.598,1.07 c -5.418,0.422 -9.914,2.207 -13.484,5.36 -3.57,3.152 -5.359,7.539 -5.359,13.172 0,6.636 2.332,11.656 6.996,15.062 4.664,3.402 10.461,5.102 17.394,5.102 5.715,0 10.61,-0.809 14.684,-2.426 4.078,-1.617 7.73,-3.77 10.965,-6.457 l -8.129,-9.582 c -2.606,1.765 -5.293,3.215 -8.067,4.351 -2.773,1.133 -5.921,1.7 -9.453,1.7 -4.199,0 -7.121,-0.746 -8.758,-2.239 -1.64,-1.488 -2.46,-3.371 -2.46,-5.64 0,-1.426 0.609,-2.75 1.828,-3.969 1.218,-1.219 3.488,-1.953 6.808,-2.207 l 10.84,-0.754 c 6.762,-0.465 11.617,-2.555 14.555,-6.27 2.941,-3.718 4.414,-8.164 4.414,-13.332 0,-6.425 -2.625,-11.386 -7.879,-14.871 -5.25,-3.488 -11.66,-5.23 -19.223,-5.23 -10.879,0 -20.48,3.887 -28.8,11.656 z m 69.261,-37.371 v 91.887 h 13.172 v -6.871 c 4.578,5.086 10.211,7.625 16.891,7.625 3.992,0 7.437,-0.809 10.336,-2.426 2.898,-1.617 5.293,-3.645 7.183,-6.082 1.805,-2.352 3.035,-5.094 3.688,-8.223 0.648,-3.129 0.976,-8.726 0.976,-16.797 0,-8.023 -0.328,-13.609 -0.976,-16.761 -0.653,-3.153 -1.883,-5.883 -3.688,-8.192 -1.89,-2.48 -4.285,-4.508 -7.183,-6.082 -2.899,-1.578 -6.344,-2.363 -10.336,-2.363 -3.403,0 -6.461,0.691 -9.172,2.078 -2.707,1.387 -5.281,3.258 -7.719,5.609 V 54.457 Z m 26.09,38.82 c 6.176,0 9.887,2.125 11.125,6.368 1.238,4.242 1.859,8.886 1.859,13.925 0,5.043 -0.621,9.696 -1.859,13.961 -1.238,4.266 -4.949,6.399 -11.125,6.399 -6.176,0 -9.871,-2.207 -11.09,-6.617 -1.219,-4.415 -1.828,-8.993 -1.828,-13.743 0,-4.746 0.609,-9.316 1.828,-13.707 1.219,-4.39 4.914,-6.586 11.09,-6.586 z m 40.965,9.582 v 43.485 h 13.172 v -39.012 c 0,-4.453 1.23,-7.91 3.687,-10.367 2.457,-2.457 5.578,-3.688 9.36,-3.688 3.652,0 6.711,1.231 9.168,3.688 2.457,2.457 3.687,5.914 3.687,10.367 v 39.012 H 342 V 80.926 h -13.172 v 6.933 h -0.254 c -4.074,-5.125 -9.703,-7.687 -16.886,-7.687 -5.168,0 -10.118,1.922 -14.844,5.766 -4.727,3.843 -7.09,9.484 -7.09,16.921 z m 69.324,-21.933 v 65.418 h 13.172 v -6.996 h 0.25 c 4.078,5.168 9.75,7.75 17.02,7.75 4.789,0 9.347,-1.68 13.671,-5.039 l -9.515,-11.344 c -2.856,2.14 -5.754,3.215 -8.696,3.215 -3.234,0 -6.164,-1.082 -8.792,-3.246 -2.625,-2.164 -3.938,-5.641 -3.938,-10.43 V 80.926 Z" /></g></g></svg>