<?xml version="1.0" encoding="UTF-8" standalone="no"?>
<!-- Created with Inkscape (http://www.inkscape.org/) -->
<svg
   xmlns:svg="http://www.w3.org/2000/svg"
   xmlns="http://www.w3.org/2000/svg"
   version="1.0"
   width="2120"
   height="1480"
   id="svg2">
  <defs
     id="defs4" />
  <g
     id="layer1">
    <path
       d="M 5.8511569,1209.3298 L 752.90068,1044.6846 C 821.85575,1049.0563 890.78924,1043.7344 954.9844,1109.7472 L 1203.625,1428.1397 L 2112.1739,1428.1397 L 1625.9879,964.09236 C 1619.8778,945.46974 1578.9831,899.69882 1709.5018,834.72356 L 2111.6852,749.79728 L 2111.1299,326.18435 L 1270.6955,491.07993 C 1183.3415,507.37092 1120.1152,487.928 1063.2714,442.28559 L 665.89417,61.365324 L 153.37616,61.920642 L 519.18908,530.98694 C 535.60752,632.32446 482.35823,623.99379 455.32724,641.30455 L 6.7044507,726.58227 L 5.8511569,1209.3298 z "
       style="fill:#999;fill-opacity:1;fill-rule:evenodd;stroke:none;stroke-width:1px;stroke-linecap:butt;stroke-linejoin:miter;stroke-opacity:1"
       id="path20653" />
    <path
       d="M 669.73692,61.451255 L 1058.7669,440.28434 C 1130.9873,495.12921 1202.0039,505.16122 1280.6914,487.66721 L 2113.2762,329.27303 L 2111.9224,310.31988 L 2113.2762,237.21487 L 1254.9693,387.48628 C 1191.9072,399.32987 1171.252,371.82695 1143.958,349.57998 L 814.25389,61.112006 L 669.73692,61.451255 z "
       style="fill:white;fill-opacity:1;fill-rule:evenodd;stroke:none;stroke-width:1px;stroke-linecap:butt;stroke-linejoin:miter;stroke-opacity:1"
       id="path20673" />
    <path
       d="M 4.2107051,726.28379 L 468.79183,636.45541 C 518.84974,615.19224 547.038,560.21338 505.28461,512.9414 L 153.5373,61.540732 L 39.848262,61.113122 L 352.96475,511.17561 C 368.09248,541.06354 348.63939,541.54489 336.30806,545.95795 L 5.7350105,602.89051 L 4.2107051,726.28379 z "
       style="fill:white;fill-opacity:1;fill-rule:evenodd;stroke:none;stroke-width:1px;stroke-linecap:butt;stroke-linejoin:miter;stroke-opacity:1"
       id="path20669" />
    <path
       d="M 6.0358396,1210.6334 L 740.29999,1051.2124 C 835.52502,1036.7363 902.83498,1061.9289 952.86137,1111.6824 L 1203.8578,1428.2455 L 963.80995,1428.2455 L 828.25642,1227.1253 C 803.53034,1199.5785 784.0002,1202.5425 756.79182,1201.4713 L 5.543252,1368.6686 L 6.0358396,1210.6334 z "
       style="fill:white;fill-opacity:1;fill-rule:evenodd;stroke:none;stroke-width:1px;stroke-linecap:butt;stroke-linejoin:miter;stroke-opacity:1"
       id="path20665" />
    <path
       d="M 2112.2223,1426.0445 L 1626.8435,966.67558 C 1619.6963,927.91927 1586.3666,888.95704 1701.0781,840.3188 L 2111.7377,750.2896 L 2112.7206,907.9826 L 1926.9409,949.30153 C 1898.2113,955.95188 1889.8154,969.61383 1911.1463,993.5264 L 2113.0736,1164.756 L 2112.2223,1426.0445 z "
       style="fill:white;fill-opacity:1;fill-rule:evenodd;stroke:none;stroke-width:1px;stroke-linecap:butt;stroke-linejoin:miter;stroke-opacity:1"
       id="path20661" />
    <path
       d="M 1822.7127,825.10324 L 1822.7127,1093.061 C 1823.0374,1102.8449 1837.9749,1103.9617 1838.2102,1093.061 L 1838.2102,821.60378 L 1822.7127,825.10324 z "
       style="fill:black;fill-opacity:1;fill-rule:evenodd;stroke:none;stroke-width:1px;stroke-linecap:butt;stroke-linejoin:miter;stroke-opacity:1"
       id="path20693" />
    <path
       d="M 963.05048,1426.9953 L 831.7204,1230.7382 C 812.17567,1205.8354 779.39276,1197.3513 742.69834,1205.3034 L 7.047661,1371.0766"
       style="fill:none;fill-opacity:1;fill-rule:evenodd;stroke:black;stroke-width:5;stroke-linecap:butt;stroke-linejoin:miter;stroke-miterlimit:4;stroke-dasharray:none;stroke-opacity:1"
       id="path10893" />
    <path
       d="M 2112.8823,1164.6443 L 1907.6156,991.65041 C 1894.0156,979.51285 1894.3357,957.01084 1922.8765,948.72336 L 2112.927,907.25721"
       style="fill:none;fill-opacity:1;fill-rule:evenodd;stroke:black;stroke-width:5;stroke-linecap:butt;stroke-linejoin:miter;stroke-miterlimit:4;stroke-dasharray:none;stroke-opacity:1"
       id="path10895" />
    <path
       d="M 2111.6051,237.35139 L 1246.7282,388.29689 C 1222.1329,395.47284 1186.1791,385.0278 1161.0828,364.622 L 810.21016,58.664559 L 812.5793,61.033703"
       style="fill:none;fill-opacity:1;fill-rule:evenodd;stroke:black;stroke-width:5;stroke-linecap:butt;stroke-linejoin:miter;stroke-miterlimit:4;stroke-dasharray:none;stroke-opacity:1"
       id="path12667" />
    <path
       d="M 5.5374741,603.45926 L 337.2074,546.99544 C 353.44119,543.2149 363.22543,525.90431 353.30235,510.43034 L 40.646614,62.058494"
       style="fill:none;fill-opacity:1;fill-rule:evenodd;stroke:black;stroke-width:5;stroke-linecap:butt;stroke-linejoin:miter;stroke-miterlimit:4;stroke-dasharray:none;stroke-opacity:1"
       id="path13554" />
    <path
       d="M 488.21128,488.91711 L 509.40796,514.85168 L 788.12333,474.22584 L 764.47867,447.3141 L 414.67393,61.750547 L 387.52911,61.789471 L 735.52187,451.65593 L 488.21128,488.91711 z "
       style="fill:white;fill-opacity:1;fill-rule:evenodd;stroke:black;stroke-width:1px;stroke-linecap:butt;stroke-linejoin:miter;stroke-opacity:1"
       id="path20657" />
    <path
       d="M 6.6785944,711.21958 L 455.62855,624.39785 C 506.62586,610.86833 543.88201,563.58495 510.54144,518.28241 L 153.60767,62.653858"
       style="fill:none;fill-opacity:1;fill-rule:evenodd;stroke:black;stroke-width:5;stroke-linecap:butt;stroke-linejoin:miter;stroke-miterlimit:4;stroke-dasharray:none;stroke-opacity:1"
       id="path14441" />
    <path
       d="M 6.3455378,726.69401 L 457.78523,640.576 C 481.35093,633.76289 541.02105,606.90565 519.42759,532.70186"
       style="fill:none;fill-opacity:1;fill-rule:evenodd;stroke:black;stroke-width:5;stroke-linecap:butt;stroke-linejoin:miter;stroke-miterlimit:4;stroke-dasharray:none;stroke-opacity:1"
       id="path15328" />
    <path
       d="M 683.34238,61.523157 L 1090.2402,444.20542 C 1130.694,477.28862 1217.9086,489.88212 1265.8521,474.40197 L 2112.7554,312.73918"
       style="fill:none;fill-opacity:1;fill-rule:evenodd;stroke:black;stroke-width:5;stroke-linecap:butt;stroke-linejoin:miter;stroke-miterlimit:4;stroke-dasharray:none;stroke-opacity:1"
       id="path16215" />
    <path
       d="M 668.46062,62.16535 L 1058.7327,439.26009 C 1134.7571,506.06853 1218.8083,499.58914 1298.3207,485.6625 L 2110.8365,329.40947"
       style="fill:none;fill-opacity:1;fill-rule:evenodd;stroke:black;stroke-width:5;stroke-linecap:butt;stroke-linejoin:miter;stroke-miterlimit:4;stroke-dasharray:none;stroke-opacity:1"
       id="path17102" />
    <path
       d="M 2112.5094,1428.3059 L 1634.1733,974.01675 C 1620.3797,960.87572 1613.7724,940.96987 1617.7376,914.10614"
       style="fill:none;fill-opacity:1;fill-rule:evenodd;stroke:black;stroke-width:5;stroke-linecap:butt;stroke-linejoin:miter;stroke-miterlimit:4;stroke-dasharray:none;stroke-opacity:1"
       id="path17989" />
    <path
       d="M 2111.9455,1412.7238 L 1621.8398,941.99936 C 1596.5523,894.63082 1659.4242,851.864 1708.7018,837.72203 L 2112.7337,749.55296"
       style="fill:none;fill-opacity:1;fill-rule:evenodd;stroke:black;stroke-width:5;stroke-linecap:butt;stroke-linejoin:miter;stroke-miterlimit:4;stroke-dasharray:none;stroke-opacity:1"
       id="path18877" />
    <path
       d="M 1204.6629,1426.1197 L 954.46203,1108.9391 C 914.25756,1063.8921 826.63775,1036.6524 728.40523,1051.2225 L 4.8097191,1210.6557"
       style="fill:none;fill-opacity:1;fill-rule:evenodd;stroke:black;stroke-width:5;stroke-linecap:butt;stroke-linejoin:miter;stroke-miterlimit:4;stroke-dasharray:none;stroke-opacity:1"
       id="path19765" />
    <path
       d="M 1355.0465,1090.3654 L 1389.9275,1127.2078 L 1705.4653,1057.9423 L 1669.5465,1022.8478 L 1355.0465,1090.3654 z "
       style="fill:white;fill-opacity:1;fill-rule:evenodd;stroke:black;stroke-width:1px;stroke-linecap:butt;stroke-linejoin:miter;stroke-opacity:1"
       id="path20655" />
    <path
       d="M 1546.6886,670.05325 L 1524.164,645.65161 L 2111.6804,518.01226 L 2111.6804,546.168 L 1546.6886,670.05325 z "
       style="fill:white;fill-opacity:1;fill-rule:evenodd;stroke:black;stroke-width:1px;stroke-linecap:butt;stroke-linejoin:miter;stroke-opacity:1"
       id="path20659" />
    <g
       transform="matrix(0.311242,-6.779685e-2,0,0.342283,1735.572,640.5841)"
       style="opacity:1;fill-opacity:1"
       id="g20686">
      <g
         transform="matrix(1.024827,0,0,1.024827,2.800107,-162.1289)"
         style="fill-opacity:1"
         id="g3715">
        <path
           d="M 181.10184,743.44678 L 179.34895,743.44678 L 176.2814,743.00855 L 172.77562,742.13211 L 169.70807,741.25567 L 166.64052,739.941 L 164.01118,738.18811 L 161.38185,735.997 L 4.9366117,579.55176 L 2.7455019,576.92243 L 0.99261404,574.2931 L -0.32205186,571.22554 L -2.0749397,565.09044 L -2.5131617,561.58466 L -2.5131617,340.28257 L -2.0749397,337.21501 L -1.1984958,333.70924 L -0.32205186,330.64168 L 0.99261404,328.01235 L 2.7455019,324.9448 L 4.9366117,322.31547 L 6.2512776,321.44633 L 160.50541,167.19219 L 161.38185,165.87753 L 166.64052,162.37175 L 169.70807,160.61886 L 172.77562,159.74242 L 176.2814,158.86598 L 179.34895,158.42775 L 400.65105,158.42775 L 403.7186,158.86598 L 407.22438,159.74242 L 410.29193,160.61886 L 412.92126,162.37175 L 415.98881,164.12464 L 418.61815,165.87753 L 419.49459,167.19219 L 573.74872,321.44633 L 575.06339,322.31547 L 577.2545,324.9448 L 579.00739,328.01235 L 580.32205,330.64168 L 581.1985,333.70924 L 582.06764,337.21501 L 582.50586,340.28257 L 582.50586,561.58466 L 582.06764,565.09044 L 580.32205,571.22554 L 579.00739,574.2931 L 577.2545,576.92243 L 575.06339,579.55176 L 418.61815,735.997 L 415.98881,738.18811 L 412.92126,739.941 L 410.29193,741.25567 L 407.22438,742.13211 L 403.7186,743.00855 L 400.65105,743.44678 L 181.10184,743.44678"
           style="fill:#fffefe;fill-opacity:1;fill-rule:evenodd;stroke:none"
           id="path32" />
        <path
           d="M 181.10184,743.44678 L 179.34895,743.44678 M 179.34895,743.44678 L 176.2814,743.00855 M 176.2814,743.00855 L 172.77562,742.13211 M 172.77562,742.13211 L 169.70807,741.25567 M 169.70807,741.25567 L 166.64052,739.941 M 166.64052,739.941 L 164.01118,738.18811 M 164.01118,738.18811 L 161.38185,735.997 M 161.38185,735.997 L 160.50541,735.12056 L 6.2512776,580.86643 L 4.9366117,579.55176 M 4.9366117,579.55176 L 2.7455019,576.92243 M 2.7455019,576.92243 L 0.99261404,574.2931 M 0.99261404,574.2931 L -0.32205186,571.22554 M -0.32205186,571.22554 L -1.1984958,568.15799 L -2.0749397,565.09044 M -2.0749397,565.09044 L -2.5131617,561.58466 M -2.5131617,561.58466 L -2.5131617,559.83177 L -2.5131617,342.03545 L -2.5131617,340.28257 M -2.5131617,340.28257 L -2.0749397,337.21501 M -2.0749397,337.21501 L -1.1984958,333.70924 M -1.1984958,333.70924 L -0.32205186,330.64168 M -0.32205186,330.64168 L 0.99261404,328.01235 M 0.99261404,328.01235 L 2.7455019,324.9448 M 2.7455019,324.9448 L 4.9366117,322.31547 M 4.9366117,322.31547 L 6.2512776,321.43902 M 6.2512776,321.43902 L 160.50541,167.18489 M 160.50541,167.18489 L 161.38185,165.87022 M 161.38185,165.87022 L 164.01118,164.11734 L 166.64052,162.36445 M 166.64052,162.36445 L 169.70807,160.61156 M 169.70807,160.61156 L 172.77562,159.73512 M 172.77562,159.73512 L 176.2814,158.85867 M 176.2814,158.85867 L 179.34895,158.42045 M 179.34895,158.42045 L 181.10184,158.42045 L 398.89816,158.42045 L 400.65105,158.42045 M 400.65105,158.42045 L 403.7186,158.85867 M 403.7186,158.85867 L 407.22438,159.73512 M 407.22438,159.73512 L 410.29193,160.61156 M 410.29193,160.61156 L 412.92126,162.36445 M 412.92126,162.36445 L 415.98881,164.11734 M 415.98881,164.11734 L 418.61815,165.87022 M 418.61815,165.87022 L 419.49459,167.18489 M 419.49459,167.18489 L 573.74872,321.43902 M 573.74872,321.43902 L 575.06339,322.31547 M 575.06339,322.31547 L 577.2545,324.9448 M 577.2545,324.9448 L 579.00739,328.01235 M 579.00739,328.01235 L 580.32205,330.64168 M 580.32205,330.64168 L 581.1985,333.70924 M 581.1985,333.70924 L 582.07494,337.21501 M 582.07494,337.21501 L 582.51316,340.28257 M 582.51316,340.28257 L 582.51316,342.03545 L 582.51316,559.83177 L 582.51316,561.58466 M 582.51316,561.58466 L 582.07494,565.09044 M 582.07494,565.09044 L 581.1985,568.15799 L 580.32205,571.22554 M 580.32205,571.22554 L 579.00739,574.2931 M 579.00739,574.2931 L 577.2545,576.92243 M 577.2545,576.92243 L 575.06339,579.55176 M 575.06339,579.55176 L 573.74872,580.86643 L 419.49459,735.12056 L 418.61815,735.997 M 418.61815,735.997 L 415.98881,738.18811 M 415.98881,738.18811 L 412.92126,739.941 M 412.92126,739.941 L 410.29193,741.25567 M 410.29193,741.25567 L 407.22438,742.13211 M 407.22438,742.13211 L 403.7186,743.00855 M 403.7186,743.00855 L 400.65105,743.44678 M 400.65105,743.44678 L 398.89816,743.44678 M 398.89816,743.44678 L 181.10184,743.44678"
           style="fill-opacity:1;stroke:black;stroke-width:0.43822196;stroke-miterlimit:4;stroke-dasharray:none;stroke-opacity:1"
           id="path34" />
        <path
           d="M 181.10184,714.0859 L 26.84771,559.83177 L 26.84771,342.03545 L 181.10184,187.78132 L 398.89816,187.78132 L 553.15229,342.03545 L 553.15229,559.83177 L 398.89816,714.0859 L 181.10184,714.0859"
           style="fill:#c00;fill-opacity:1;fill-rule:evenodd;stroke:none"
           id="path36" />
        <path
           d="M 66.287687,494.97492 L 95.210336,494.97492 C 91.711865,515.23538 104.70515,531.59567 125.44765,524.33579 C 132.74405,520.88845 137.84325,514.47418 138.09887,506.47663 C 137.63834,506.99726 142.74281,475.21111 125.88587,465.61405 C 101.82749,456.17037 78.492169,450.72911 70.231685,423.54474 C 65.520798,407.48391 66.309598,377.99887 78.996124,364.823 C 113.28699,326.3325 172.86327,353.31237 166.64052,407.33053 L 137.27964,407.33053 C 137.80551,395.84181 138.30216,384.49186 126.76232,378.40788 C 119.83111,374.63917 108.97051,375.47179 103.53655,381.47543 C 95.005832,389.48029 96.722202,402.21794 97.401446,412.58919 C 100.57855,431.22093 126.70389,431.27936 138.59431,439.32073 C 156.5395,448.71329 166.00509,463.83195 166.64052,484.01937 C 167.75798,511.78073 167.67034,531.12823 142.97653,547.99978 C 104.12085,568.80802 60.598105,541.45566 66.287687,494.97492 z M 212.2156,553.25844 L 212.2156,376.21677 L 177.59607,376.21677 L 177.59607,348.60878 L 276.19601,348.60878 L 276.19601,376.21677 L 241.57647,376.21677 L 241.57647,553.25844 L 212.2156,553.25844 z M 291.09555,505.93047 L 291.09555,392.8692 L 291.53378,386.7341 L 293.28666,381.03721 L 295.47777,375.34032 L 298.54533,369.64344 C 305.35968,357.87718 320.74857,348.36776 334.04131,347.29412 C 363.81849,343.54002 388.87748,366.10845 389.6955,395.93676 L 389.6955,505.93047 L 389.25727,508.99802 L 388.81905,515.13313 L 387.06616,521.26824 L 384.87506,526.96512 L 381.8075,532.22379 C 375.0954,543.78554 359.53122,553.7624 346.31152,554.57311 C 318.01699,558.84577 289.74437,534.87503 291.09555,505.93047 z M 320.0182,505.93047 L 320.0182,395.06031 L 320.45643,392.43098 L 320.89465,389.80165 L 322.20931,387.61054 L 323.08576,385.41943 C 327.85507,379.445 329.90741,377.77246 337.54708,376.21677 C 349.59819,374.79255 360.29811,383.66654 360.33463,395.93676 L 360.33463,507.24514 L 359.8964,509.43625 L 359.45818,512.06558 L 358.58174,514.25669 L 357.26707,516.4478 C 353.14778,522.40031 349.91225,524.16781 342.80575,525.65046 C 331.03949,527.49829 320.10585,517.68943 320.0182,505.93047 z M 418.61815,553.25844 L 418.61815,348.60878 C 459.17559,344.70131 510.79814,343.47428 513.71231,395.93676 C 519.51145,446.9604 502.65451,477.53369 447.97902,473.06382 L 447.97902,553.25844 L 418.61815,553.25844 z M 447.97902,376.21677 C 465.52981,374.66108 484.4683,374.27398 486.54255,395.93676 C 488.88704,433.11259 488.62411,449.56782 447.97902,445.45584 L 447.97902,376.21677"
           style="fill:#fffefe;fill-opacity:1;fill-rule:evenodd;stroke:none"
           id="path38" />
      </g>
    </g>
    <path
       d="M 418.20647,259.95719 L 418.20647,454.18447 C 418.44183,461.27626 429.26917,462.08577 429.43973,454.18447 L 429.43973,257.42064 L 418.20647,259.95719 z "
       style="fill:black;fill-opacity:1;fill-rule:evenodd;stroke:none;stroke-width:1px;stroke-linecap:butt;stroke-linejoin:miter;stroke-opacity:1"
       id="path20695" />
    <g
       transform="matrix(0.236284,-1.664085e-2,0,0.25985,352.9745,108.5806)"
       style="opacity:1;fill:#666;fill-opacity:1"
       id="g20697">
      <g
         transform="matrix(1.024827,0,0,1.024827,2.800107,-162.1289)"
         style="fill:#666;fill-opacity:1"
         id="g20699">
        <path
           d="M 181.10184,743.44678 L 179.34895,743.44678 L 176.2814,743.00855 L 172.77562,742.13211 L 169.70807,741.25567 L 166.64052,739.941 L 164.01118,738.18811 L 161.38185,735.997 L 4.9366117,579.55176 L 2.7455019,576.92243 L 0.99261404,574.2931 L -0.32205186,571.22554 L -2.0749397,565.09044 L -2.5131617,561.58466 L -2.5131617,340.28257 L -2.0749397,337.21501 L -1.1984958,333.70924 L -0.32205186,330.64168 L 0.99261404,328.01235 L 2.7455019,324.9448 L 4.9366117,322.31547 L 6.2512776,321.44633 L 160.50541,167.19219 L 161.38185,165.87753 L 166.64052,162.37175 L 169.70807,160.61886 L 172.77562,159.74242 L 176.2814,158.86598 L 179.34895,158.42775 L 400.65105,158.42775 L 403.7186,158.86598 L 407.22438,159.74242 L 410.29193,160.61886 L 412.92126,162.37175 L 415.98881,164.12464 L 418.61815,165.87753 L 419.49459,167.19219 L 573.74872,321.44633 L 575.06339,322.31547 L 577.2545,324.9448 L 579.00739,328.01235 L 580.32205,330.64168 L 581.1985,333.70924 L 582.06764,337.21501 L 582.50586,340.28257 L 582.50586,561.58466 L 582.06764,565.09044 L 580.32205,571.22554 L 579.00739,574.2931 L 577.2545,576.92243 L 575.06339,579.55176 L 418.61815,735.997 L 415.98881,738.18811 L 412.92126,739.941 L 410.29193,741.25567 L 407.22438,742.13211 L 403.7186,743.00855 L 400.65105,743.44678 L 181.10184,743.44678"
           style="fill:#666;fill-opacity:1;fill-rule:evenodd;stroke:none"
           id="path20701" />
        <path
           d="M 181.10184,743.44678 L 179.34895,743.44678 M 179.34895,743.44678 L 176.2814,743.00855 M 176.2814,743.00855 L 172.77562,742.13211 M 172.77562,742.13211 L 169.70807,741.25567 M 169.70807,741.25567 L 166.64052,739.941 M 166.64052,739.941 L 164.01118,738.18811 M 164.01118,738.18811 L 161.38185,735.997 M 161.38185,735.997 L 160.50541,735.12056 L 6.2512776,580.86643 L 4.9366117,579.55176 M 4.9366117,579.55176 L 2.7455019,576.92243 M 2.7455019,576.92243 L 0.99261404,574.2931 M 0.99261404,574.2931 L -0.32205186,571.22554 M -0.32205186,571.22554 L -1.1984958,568.15799 L -2.0749397,565.09044 M -2.0749397,565.09044 L -2.5131617,561.58466 M -2.5131617,561.58466 L -2.5131617,559.83177 L -2.5131617,342.03545 L -2.5131617,340.28257 M -2.5131617,340.28257 L -2.0749397,337.21501 M -2.0749397,337.21501 L -1.1984958,333.70924 M -1.1984958,333.70924 L -0.32205186,330.64168 M -0.32205186,330.64168 L 0.99261404,328.01235 M 0.99261404,328.01235 L 2.7455019,324.9448 M 2.7455019,324.9448 L 4.9366117,322.31547 M 4.9366117,322.31547 L 6.2512776,321.43902 M 6.2512776,321.43902 L 160.50541,167.18489 M 160.50541,167.18489 L 161.38185,165.87022 M 161.38185,165.87022 L 164.01118,164.11734 L 166.64052,162.36445 M 166.64052,162.36445 L 169.70807,160.61156 M 169.70807,160.61156 L 172.77562,159.73512 M 172.77562,159.73512 L 176.2814,158.85867 M 176.2814,158.85867 L 179.34895,158.42045 M 179.34895,158.42045 L 181.10184,158.42045 L 398.89816,158.42045 L 400.65105,158.42045 M 400.65105,158.42045 L 403.7186,158.85867 M 403.7186,158.85867 L 407.22438,159.73512 M 407.22438,159.73512 L 410.29193,160.61156 M 410.29193,160.61156 L 412.92126,162.36445 M 412.92126,162.36445 L 415.98881,164.11734 M 415.98881,164.11734 L 418.61815,165.87022 M 418.61815,165.87022 L 419.49459,167.18489 M 419.49459,167.18489 L 573.74872,321.43902 M 573.74872,321.43902 L 575.06339,322.31547 M 575.06339,322.31547 L 577.2545,324.9448 M 577.2545,324.9448 L 579.00739,328.01235 M 579.00739,328.01235 L 580.32205,330.64168 M 580.32205,330.64168 L 581.1985,333.70924 M 581.1985,333.70924 L 582.07494,337.21501 M 582.07494,337.21501 L 582.51316,340.28257 M 582.51316,340.28257 L 582.51316,342.03545 L 582.51316,559.83177 L 582.51316,561.58466 M 582.51316,561.58466 L 582.07494,565.09044 M 582.07494,565.09044 L 581.1985,568.15799 L 580.32205,571.22554 M 580.32205,571.22554 L 579.00739,574.2931 M 579.00739,574.2931 L 577.2545,576.92243 M 577.2545,576.92243 L 575.06339,579.55176 M 575.06339,579.55176 L 573.74872,580.86643 L 419.49459,735.12056 L 418.61815,735.997 M 418.61815,735.997 L 415.98881,738.18811 M 415.98881,738.18811 L 412.92126,739.941 M 412.92126,739.941 L 410.29193,741.25567 M 410.29193,741.25567 L 407.22438,742.13211 M 407.22438,742.13211 L 403.7186,743.00855 M 403.7186,743.00855 L 400.65105,743.44678 M 400.65105,743.44678 L 398.89816,743.44678 M 398.89816,743.44678 L 181.10184,743.44678"
           style="fill:#666;fill-opacity:1;stroke:black;stroke-width:0.43822196;stroke-miterlimit:4;stroke-dasharray:none;stroke-opacity:1"
           id="path20703" />
        <path
           d="M 181.10184,714.0859 L 26.84771,559.83177 L 26.84771,342.03545 L 181.10184,187.78132 L 398.89816,187.78132 L 553.15229,342.03545 L 553.15229,559.83177 L 398.89816,714.0859 L 181.10184,714.0859"
           style="fill:#666;fill-opacity:1;fill-rule:evenodd;stroke:none"
           id="path20705" />
        <path
           d="M 66.287687,494.97492 L 95.210336,494.97492 C 91.711865,515.23538 104.70515,531.59567 125.44765,524.33579 C 132.74405,520.88845 137.84325,514.47418 138.09887,506.47663 C 137.63834,506.99726 142.74281,475.21111 125.88587,465.61405 C 101.82749,456.17037 78.492169,450.72911 70.231685,423.54474 C 65.520798,407.48391 66.309598,377.99887 78.996124,364.823 C 113.28699,326.3325 172.86327,353.31237 166.64052,407.33053 L 137.27964,407.33053 C 137.80551,395.84181 138.30216,384.49186 126.76232,378.40788 C 119.83111,374.63917 108.97051,375.47179 103.53655,381.47543 C 95.005832,389.48029 96.722202,402.21794 97.401446,412.58919 C 100.57855,431.22093 126.70389,431.27936 138.59431,439.32073 C 156.5395,448.71329 166.00509,463.83195 166.64052,484.01937 C 167.75798,511.78073 167.67034,531.12823 142.97653,547.99978 C 104.12085,568.80802 60.598105,541.45566 66.287687,494.97492 z M 212.2156,553.25844 L 212.2156,376.21677 L 177.59607,376.21677 L 177.59607,348.60878 L 276.19601,348.60878 L 276.19601,376.21677 L 241.57647,376.21677 L 241.57647,553.25844 L 212.2156,553.25844 z M 291.09555,505.93047 L 291.09555,392.8692 L 291.53378,386.7341 L 293.28666,381.03721 L 295.47777,375.34032 L 298.54533,369.64344 C 305.35968,357.87718 320.74857,348.36776 334.04131,347.29412 C 363.81849,343.54002 388.87748,366.10845 389.6955,395.93676 L 389.6955,505.93047 L 389.25727,508.99802 L 388.81905,515.13313 L 387.06616,521.26824 L 384.87506,526.96512 L 381.8075,532.22379 C 375.0954,543.78554 359.53122,553.7624 346.31152,554.57311 C 318.01699,558.84577 289.74437,534.87503 291.09555,505.93047 z M 320.0182,505.93047 L 320.0182,395.06031 L 320.45643,392.43098 L 320.89465,389.80165 L 322.20931,387.61054 L 323.08576,385.41943 C 327.85507,379.445 329.90741,377.77246 337.54708,376.21677 C 349.59819,374.79255 360.29811,383.66654 360.33463,395.93676 L 360.33463,507.24514 L 359.8964,509.43625 L 359.45818,512.06558 L 358.58174,514.25669 L 357.26707,516.4478 C 353.14778,522.40031 349.91225,524.16781 342.80575,525.65046 C 331.03949,527.49829 320.10585,517.68943 320.0182,505.93047 z M 418.61815,553.25844 L 418.61815,348.60878 C 459.17559,344.70131 510.79814,343.47428 513.71231,395.93676 C 519.51145,446.9604 502.65451,477.53369 447.97902,473.06382 L 447.97902,553.25844 L 418.61815,553.25844 z M 447.97902,376.21677 C 465.52981,374.66108 484.4683,374.27398 486.54255,395.93676 C 488.88704,433.11259 488.62411,449.56782 447.97902,445.45584 L 447.97902,376.21677"
           style="fill:#666;fill-opacity:1;fill-rule:evenodd;stroke:none"
           id="path20707" />
      </g>
    </g>
  </g>
</svg>
