<?xml version="1.0" encoding="UTF-8" standalone="no"?>
<svg
   xmlns:dc="http://purl.org/dc/elements/1.1/"
   xmlns:cc="http://creativecommons.org/ns#"
   xmlns:rdf="http://www.w3.org/1999/02/22-rdf-syntax-ns#"
   xmlns:svg="http://www.w3.org/2000/svg"
   xmlns="http://www.w3.org/2000/svg"
   viewBox="0 0 600.995 600.995"
   height="600.995"
   width="600.995"
   xml:space="preserve"
   version="1.1"
   id="svg5947"><metadata
     id="metadata5953"><rdf:RDF><cc:Work
         rdf:about=""><dc:format>image/svg+xml</dc:format><dc:type
           rdf:resource="http://purl.org/dc/dcmitype/StillImage" /><dc:title></dc:title></cc:Work></rdf:RDF></metadata><defs
     id="defs5951" /><g
     transform="matrix(1.25,0,0,-1.25,0,600.99499)"
     id="g5955"><g
       id="g5957"><path
         id="path5959"
         style="fill:#ffffff;fill-opacity:1;fill-rule:nonzero;stroke:none"
         d="m 480.398,240.398 c 0,-132.551 -107.449,-240 -240,-240 -132.55,0 -240,107.449 -240,240 0,132.55 107.45,240 240,240 132.551,0 240,-107.45 240,-240 z" /><path
         id="path5961"
         style="fill:#000000;fill-opacity:1;fill-rule:nonzero;stroke:none"
         d="M 240.398,480.796 C 107.633,480.796 0,373.163 0,240.398 0,107.632 107.633,-0.001 240.398,-0.001 c 132.766,0 240.399,107.633 240.399,240.399 0,132.765 -107.633,240.398 -240.399,240.398 z m 0,-0.398 c 132.551,0 240,-107.45 240,-240 0,-132.551 -107.449,-240 -240,-240 -132.55,0 -240,107.449 -240,240 0,132.55 107.45,240 240,240 z" /><path
         id="path5963"
         style="fill:#000000;fill-opacity:1;fill-rule:nonzero;stroke:none"
         d="m 202.68,176.62 -118.625,0 C 72.66,204.554 68.961,235.015 73.34,264.858 l 129.34,0 0,-88.238 z m -18.918,-28.363 -15.75,0 c 0,8.57 -3.871,16.676 -10.543,22.062 l 45.211,0 0,-15.761 -18.918,-6.301 z m -22.063,0 c 0,-12.184 -9.867,-22.063 -22.051,-22.063 -12.183,0 -22.062,9.879 -22.062,22.063 0,12.184 9.879,22.062 22.062,22.062 12.184,0 22.051,-9.878 22.051,-22.062 z m -59.961,0 -2.836,0 c -4.574,7.043 -8.632,14.418 -12.121,22.062 l 35.035,0 c -6.66,-5.386 -10.531,-13.492 -10.531,-22.062" /><path
         id="path5965"
         style="fill:#000000;fill-opacity:1;fill-rule:nonzero;stroke:none"
         d="m 351.578,264.858 0,-88.238 45.164,0 c 11.375,27.934 15.094,58.395 10.715,88.238 l -55.879,0 z m -12.601,-22.05 -54.618,-3.414 c -2.48,-0.161 -4.644,-1.75 -5.504,-4.082 l -13.91,-37.071 c -1.058,-2.824 -1.601,-5.836 -1.601,-8.855 l 0,-34.828 c 0,-3.477 2.82,-6.301 6.301,-6.301 l 3.156,0 c 0,15.664 12.691,28.363 28.351,28.363 15.676,0 28.379,-12.699 28.379,-28.363 l 52.36,0 c 4.589,7.043 8.632,14.418 12.125,22.062 l -55.039,0 0,72.489 z m -22.059,-11.024 -0.004,-31.523 -41.844,-4.918 c -1.726,-0.211 -3.293,1.035 -3.492,2.75 -0.098,0.504 0,1.012 0.18,1.48 l 10.555,28.18 c 0.445,1.156 1.531,1.945 2.75,2.031 l 31.855,2 z m -15.766,-61.465 c -12.183,0 -22.062,-9.878 -22.062,-22.062 0,-12.184 9.879,-22.063 22.062,-22.063 12.184,0 22.063,9.879 22.063,22.063 0,12.184 -9.879,22.062 -22.063,22.062 z" /><path
         id="path5967"
         style="fill:#000000;fill-opacity:1;fill-rule:nonzero;stroke:none"
         d="m 258.754,295.456 0,43.692 8.746,0 0,-4.934 c 5.117,6.34 14.391,7.328 20.727,2.195 0.988,-0.789 1.878,-1.715 2.617,-2.738 5.734,7.008 16.054,8.055 23.074,2.332 3.809,-3.121 6.016,-7.77 6.016,-12.703 l 0,-27.844 -8.743,0 0,26.762 c 0,4.82 -3.91,8.742 -8.742,8.742 -4.824,0 -8.734,-3.922 -8.734,-8.742 l 0,-26.762 -8.742,0 0,26.762 c 0,4.82 -3.91,8.742 -8.743,8.742 -4.824,0 -8.73,-3.922 -8.73,-8.742 l 0,-26.762 -8.746,0 z m -38.242,16.93 c 0,-4.832 3.922,-8.742 8.746,-8.742 4.832,0 8.742,3.91 8.742,8.742 l 0,27.305 c 0,4.835 -3.91,8.742 -8.742,8.742 -4.824,0 -8.746,-3.907 -8.746,-8.742 l 0,-27.305 z m -8.731,0 0,27.305 c 0,9.656 7.821,17.488 17.477,17.488 9.652,0 17.472,-7.832 17.472,-17.488 l 0,-27.305 c 0,-9.656 -7.82,-17.485 -17.472,-17.485 -9.656,0 -17.477,7.829 -17.477,17.485 z m -40.426,-16.93 20.758,52.438 -16.39,0 0,-8.746 -8.731,0 0,17.476 34.961,0 0,-8.191 -20.758,-52.977" /><path
         id="path5969"
         style="fill:#c1121c;fill-opacity:1;fill-rule:nonzero;stroke:none"
         d="m 240.398,472.398 c -127.746,0 -232,-104.254 -232,-232 0,-127.747 104.254,-232 232,-232 127.747,0 232,104.253 232,232 0,127.746 -104.253,232 -232,232 z m 0,-64.321 c 92.989,0 167.68,-74.691 167.68,-167.679 0,-92.989 -74.691,-167.68 -167.68,-167.68 -92.988,0 -167.679,74.691 -167.679,167.68 0,92.988 74.691,167.679 167.679,167.679 z" /></g></g></svg>