<?xml version="1.0" encoding="UTF-8" standalone="no"?>
<svg
   xmlns:dc="http://purl.org/dc/elements/1.1/"
   xmlns:cc="http://creativecommons.org/ns#"
   xmlns:rdf="http://www.w3.org/1999/02/22-rdf-syntax-ns#"
   xmlns:svg="http://www.w3.org/2000/svg"
   xmlns="http://www.w3.org/2000/svg"
   viewBox="0 0 1760.8494 684.69952"
   height="684.69952"
   width="1760.8494"
   xml:space="preserve"
   id="svg12073"
   version="1.1"><metadata
     id="metadata12079"><rdf:RDF><cc:Work
         rdf:about=""><dc:format>image/svg+xml</dc:format><dc:type
           rdf:resource="http://purl.org/dc/dcmitype/StillImage" /><dc:title></dc:title></cc:Work></rdf:RDF></metadata><defs
     id="defs12077" /><g
     transform="matrix(1.3333333,0,0,-1.3333333,0,684.69954)"
     id="g12081"><g
       id="g12083"><path
         id="path12085"
         style="fill:#ffffff;fill-opacity:1;fill-rule:evenodd;stroke:none"
         d="m 37.648,513.06 h 1245.344 c 20.59,0 37.27,-16.68 37.27,-37.285 V 37.646 c 0,-20.59 -16.68,-37.27 -37.27,-37.27 H 37.648 c -20.605,0 -37.289,16.68 -37.289,37.27 v 438.129 c 0,20.605 16.684,37.285 37.289,37.285" /><path
         id="path12087"
         style="fill:#000000;fill-opacity:1;fill-rule:evenodd;stroke:none"
         d="M 37.648,513.45 C 16.84,513.45 0,496.579 0,475.771 V 37.65 C 0,16.857 16.84,0.001 37.648,0.001 h 1245.34 c 20.793,0 37.649,16.856 37.649,37.649 v 438.121 c 0,20.808 -16.856,37.679 -37.649,37.679 z m 0,-0.39 h 1245.344 c 20.59,0 37.27,-16.68 37.27,-37.285 V 37.646 c 0,-20.59 -16.68,-37.27 -37.27,-37.27 H 37.648 c -20.609,0 -37.289,16.68 -37.289,37.27 v 438.129 c 0,20.605 16.68,37.285 37.289,37.285 z" /><path
         id="path12089"
         style="fill:#000000;fill-opacity:1;fill-rule:evenodd;stroke:none"
         d="m 37.645,499.079 c -12.872,0 -23.297,-10.429 -23.297,-23.3 V 37.65 c 0,-12.871 10.425,-23.297 23.297,-23.297 h 1245.347 c 12.871,0 23.301,10.426 23.301,23.297 v 438.129 c 0,12.871 -10.43,23.3 -23.301,23.3 z m 0,-18.644 h 1245.347 c 2.563,0 4.656,-2.078 4.656,-4.656 V 37.65 c 0,-2.578 -2.093,-4.657 -4.656,-4.657 H 37.645 c -2.575,0 -4.657,2.079 -4.657,4.657 v 438.129 c 0,2.578 2.082,4.656 4.657,4.656 z" /><path
         id="path12091"
         style="fill:#633a34;fill-opacity:1;fill-rule:evenodd;stroke:none"
         d="M 92.559,424.501 H 1228.082 V 242.724 H 92.559 Z" /><path
         id="path12093"
         style="fill:#ffffff;fill-opacity:1;fill-rule:evenodd;stroke:none"
         d="M 134.52,410.513 H 288.321 V 256.712 H 134.52 Z" /><path
         id="path12095"
         style="fill:#633a34;fill-opacity:1;fill-rule:evenodd;stroke:none"
         d="m 181.262,280.4 v 62.445 h 18.871 l 11.328,-42.609 11.195,42.609 h 18.918 V 280.4 h -11.711 v 49.148 L 217.469,280.4 H 205.32 l -12.343,49.148 V 280.4 Z m -31.164,51.937 61.312,61.379 61.332,-61.414 -0.019,-60.012 H 150.098 Z m -2.969,-63.015 0.016,64.23 64.265,64.352 64.301,-64.368 -0.016,-64.214 z" /><path
         id="path12097"
         style="fill:#ffffff;fill-opacity:1;fill-rule:nonzero;stroke:none"
         d="m 358.23,295.872 c 2.809,-3.89 6.34,-6.968 10.594,-9.234 4.344,-2.262 9.188,-3.395 14.528,-3.395 3.894,0 7.695,0.68 11.41,2.039 3.801,1.45 7.148,3.532 10.047,6.247 2.898,2.714 5.207,5.972 6.925,9.777 1.719,3.891 2.579,8.148 2.579,12.766 v 66.671 h -14.665 v -65.179 c 0,-3.168 -0.496,-5.883 -1.492,-8.149 -0.996,-2.261 -2.308,-4.117 -3.937,-5.566 -1.633,-1.359 -3.442,-2.356 -5.434,-2.988 -1.902,-0.633 -3.847,-0.95 -5.84,-0.95 -2.804,0 -5.34,0.586 -7.605,1.766 -2.172,1.176 -3.938,2.758 -5.293,4.75 z" /><path
         id="path12099"
         style="fill:#ffffff;fill-opacity:1;fill-rule:nonzero;stroke:none"
         d="m 430.711,307.146 c 0,-3.715 0.633,-7.11 1.902,-10.188 1.356,-2.984 3.168,-5.519 5.43,-7.601 2.266,-1.992 4.754,-3.532 7.469,-4.617 2.808,-0.997 5.57,-1.497 8.285,-1.497 7.512,0 13.441,2.719 17.789,8.149 h 0.269 v -7.332 h 13.852 v 68.847 h -13.852 v -41.011 c 0,-4.617 -1.265,-8.239 -3.8,-10.864 -2.535,-2.625 -5.793,-3.937 -9.778,-3.937 -3.984,0 -7.289,1.312 -9.914,3.937 -2.535,2.625 -3.8,6.247 -3.8,10.864 v 41.011 h -13.852 z" /><path
         id="path12101"
         style="fill:#ffffff;fill-opacity:1;fill-rule:nonzero;stroke:none"
         d="M 503.648,284.06 H 517.5 v 41.418 c 0,4.707 1.313,8.281 3.938,10.726 2.625,2.446 5.792,3.668 9.503,3.668 1.723,0 3.262,-0.273 4.618,-0.816 1.359,-0.453 2.851,-1.313 4.48,-2.582 l 10.051,11.953 c -4.527,3.527 -9.324,5.293 -14.395,5.293 -7.605,0 -13.578,-2.715 -17.925,-8.145 h -0.27 v 7.332 h -13.852 z" /><path
         id="path12103"
         style="fill:#ffffff;fill-opacity:1;fill-rule:nonzero;stroke:none"
         d="m 590.293,284.06 h 13.852 v 46.984 c 0,8.059 -2.536,13.852 -7.606,17.383 -4.976,3.527 -11.992,5.293 -21.047,5.293 -5.34,0 -9.914,-0.813 -13.715,-2.441 -3.8,-1.539 -6.972,-4.075 -9.507,-7.606 l 10.867,-8.285 c 1.265,1.992 2.851,3.352 4.75,4.074 1.902,0.817 4.664,1.223 8.285,1.223 5.07,0 8.691,-0.68 10.863,-2.035 2.172,-1.27 3.258,-3.532 3.258,-6.789 v -7.2 h -19.145 c -7.062,0 -12.585,-1.945 -16.57,-5.839 -3.89,-3.891 -5.836,-8.735 -5.836,-14.528 0,-6.156 2.172,-11.226 6.516,-15.211 4.347,-3.89 10.277,-5.84 17.789,-5.84 4.617,0 8.238,0.543 10.863,1.629 2.625,1.09 4.664,2.852 6.113,5.297 h 0.27 z m 0,24.172 c 0,-5.16 -1.039,-8.465 -3.121,-9.914 -2.082,-1.36 -6.203,-2.036 -12.359,-2.036 -4.434,0 -7.739,0.813 -9.915,2.442 -2.082,1.629 -3.121,3.711 -3.121,6.246 0,2.625 0.996,4.664 2.989,6.113 1.992,1.449 4.976,2.172 8.961,2.172 h 16.566 z" /><path
         id="path12105"
         style="fill:#ffffff;fill-opacity:1;fill-rule:nonzero;stroke:none"
         d="m 620.438,328.599 h 40.875 v -13.852 h -40.875 z" /><path
         id="path12107"
         style="fill:#ffffff;fill-opacity:1;fill-rule:nonzero;stroke:none"
         d="m 678.59,284.06 h 14.668 v 60.293 h 0.269 l 20.235,-46.442 h 12.218 l 20.235,46.442 h 0.273 V 284.06 h 14.664 v 96.683 h -13.851 l -27.156,-63.007 -27.704,63.007 H 678.59 Z" /><path
         id="path12109"
         style="fill:#ffffff;fill-opacity:1;fill-rule:nonzero;stroke:none"
         d="m 780.273,307.146 c 0,-3.715 0.633,-7.11 1.903,-10.188 1.359,-2.984 3.168,-5.519 5.429,-7.601 2.266,-1.992 4.754,-3.532 7.469,-4.617 2.809,-0.997 5.571,-1.497 8.285,-1.497 7.516,0 13.446,2.719 17.789,8.149 h 0.274 v -7.332 h 13.848 v 68.847 h -13.848 v -41.011 c 0,-4.617 -1.27,-8.239 -3.805,-10.864 -2.535,-2.625 -5.793,-3.937 -9.777,-3.937 -3.985,0 -7.285,1.312 -9.914,3.937 -2.531,2.625 -3.801,6.247 -3.801,10.864 v 41.011 h -13.852 z" /><path
         id="path12111"
         style="fill:#ffffff;fill-opacity:1;fill-rule:nonzero;stroke:none"
         d="m 845.605,295.603 c 8.782,-8.238 18.875,-12.36 30.282,-12.36 8.238,0 15.031,1.903 20.371,5.704 5.43,3.804 8.148,8.964 8.148,15.48 0,5.887 -1.629,10.684 -4.89,14.395 -3.258,3.71 -8.282,5.793 -15.075,6.246 l -11.406,0.816 c -3.258,0.27 -5.613,0.996 -7.058,2.172 -1.36,1.176 -2.039,2.625 -2.039,4.348 0,2.531 0.906,4.523 2.718,5.972 1.899,1.539 4.934,2.309 9.098,2.309 3.527,0 6.742,-0.543 9.641,-1.629 2.894,-1.086 5.839,-2.672 8.824,-4.754 l 8.558,10.051 c -3.625,3.078 -7.605,5.387 -11.953,6.926 -4.344,1.628 -9.367,2.441 -15.07,2.441 -7.516,0 -13.672,-1.855 -18.469,-5.566 -4.797,-3.622 -7.199,-8.825 -7.199,-15.618 0,-5.703 1.812,-10.273 5.434,-13.714 3.71,-3.438 8.507,-5.387 14.394,-5.84 l 12.223,-1.086 c 2.625,-0.18 4.66,-0.813 6.109,-1.899 1.539,-0.996 2.309,-2.625 2.309,-4.89 0,-2.805 -1.27,-4.977 -3.805,-6.516 -2.441,-1.539 -5.703,-2.309 -9.777,-2.309 -4.524,0 -8.508,0.723 -11.95,2.172 -3.437,1.45 -6.699,3.664 -9.777,6.653 z" /><path
         id="path12113"
         style="fill:#ffffff;fill-opacity:1;fill-rule:nonzero;stroke:none"
         d="m 971.824,313.255 v 11.406 c 0,4.348 -0.769,8.286 -2.308,11.813 -1.45,3.621 -3.489,6.699 -6.114,9.234 -2.625,2.625 -5.656,4.617 -9.097,5.977 -3.442,1.359 -7.063,2.035 -10.864,2.035 -3.531,0 -6.972,-0.633 -10.32,-1.898 -3.348,-1.27 -6.383,-3.305 -9.098,-6.114 -2.714,-2.715 -4.89,-6.379 -6.519,-10.996 -1.629,-4.617 -2.445,-10.097 -2.445,-16.433 0,-6.789 0.863,-12.493 2.582,-17.11 1.812,-4.527 4.164,-8.101 7.062,-10.726 2.985,-2.625 6.246,-4.481 9.777,-5.571 3.622,-1.086 7.333,-1.629 11.133,-1.629 4.801,0 9.325,0.907 13.582,2.719 4.254,1.809 8.012,4.617 11.27,8.418 l -10.051,8.555 c -1.988,-2.082 -4.344,-3.711 -7.059,-4.891 -2.625,-1.176 -5.296,-1.762 -8.011,-1.762 -4.891,0 -8.875,1.446 -11.949,4.344 -2.989,2.989 -4.485,7.196 -4.485,12.629 z m -42.914,11.406 c 0.184,5.071 1.586,9.008 4.211,11.813 2.715,2.808 6.156,4.211 10.32,4.211 4.164,0 7.559,-1.403 10.184,-4.211 2.719,-2.805 4.164,-6.742 4.348,-11.813 z" /><path
         id="path12115"
         style="fill:#ffffff;fill-opacity:1;fill-rule:nonzero;stroke:none"
         d="m 986.352,307.146 c 0,-3.715 0.632,-7.11 1.902,-10.188 1.359,-2.984 3.168,-5.519 5.43,-7.601 2.265,-1.992 4.754,-3.532 7.468,-4.617 2.809,-0.997 5.571,-1.497 8.286,-1.497 7.515,0 13.445,2.719 17.789,8.149 h 0.269 v -7.332 h 13.852 v 68.847 h -13.852 v -41.011 c 0,-4.617 -1.266,-8.239 -3.801,-10.864 -2.535,-2.625 -5.793,-3.937 -9.777,-3.937 -3.984,0 -7.285,1.312 -9.914,3.937 -2.535,2.625 -3.801,6.247 -3.801,10.864 v 41.011 h -13.851 z" /><path
         id="path12117"
         style="fill:#ffffff;fill-opacity:1;fill-rule:nonzero;stroke:none"
         d="m 1060.102,284.06 h 13.851 v 41.008 c 0,4.617 1.27,8.238 3.805,10.863 2.625,2.629 5.93,3.941 9.91,3.941 3.984,0 7.242,-1.312 9.777,-3.941 2.535,-2.625 3.805,-6.246 3.805,-10.863 V 284.06 h 13.852 v 41.008 c 0,4.617 1.265,8.238 3.8,10.863 2.625,2.629 5.93,3.941 9.914,3.941 3.981,0 7.243,-1.312 9.778,-3.941 2.531,-2.625 3.801,-6.246 3.801,-10.863 V 284.06 h 13.851 v 45.762 c 0,3.8 -0.68,7.199 -2.039,10.183 -1.266,2.988 -3.031,5.477 -5.293,7.469 -2.266,2.082 -4.754,3.621 -7.469,4.617 -2.718,1.086 -5.433,1.629 -8.148,1.629 -4.707,0 -8.828,-0.723 -12.359,-2.172 -3.438,-1.449 -6.563,-3.711 -9.368,-6.789 -2.898,2.988 -5.75,5.207 -8.554,6.652 -2.809,1.539 -6.43,2.309 -10.864,2.309 -7.605,0 -13.582,-2.715 -17.925,-8.145 h -0.274 v 7.332 h -13.851 z" /><path
         id="path12119"
         style="fill:#000000;fill-opacity:1;fill-rule:nonzero;stroke:none"
         d="m 278.453,90.111 h 11.406 l 25.258,68.847 h -14.668 l -16.16,-48.207 h -0.269 l -16.161,48.207 h -14.664 z" /><path
         id="path12121"
         style="fill:#000000;fill-opacity:1;fill-rule:nonzero;stroke:none"
         d="m 323.582,90.111 h 13.852 v 68.847 h -13.852 z m 0,82.836 h 13.852 v 13.851 h -13.852 z" /><path
         id="path12123"
         style="fill:#000000;fill-opacity:1;fill-rule:nonzero;stroke:none"
         d="m 391.922,90.111 h 13.848 v 46.984 c 0,8.059 -2.536,13.852 -7.602,17.383 -4.98,3.531 -11.996,5.297 -21.051,5.297 -5.34,0 -9.91,-0.817 -13.715,-2.446 -3.8,-1.539 -6.968,-4.074 -9.504,-7.605 l 10.864,-8.281 c 1.265,1.992 2.851,3.347 4.754,4.074 1.898,0.812 4.66,1.219 8.281,1.219 5.07,0 8.691,-0.676 10.863,-2.036 2.172,-1.265 3.262,-3.531 3.262,-6.789 v -7.199 h -19.149 c -7.062,0 -12.582,-1.945 -16.566,-5.836 -3.894,-3.894 -5.84,-8.738 -5.84,-14.531 0,-6.156 2.172,-11.227 6.52,-15.211 4.343,-3.891 10.273,-5.836 17.789,-5.836 4.617,0 8.238,0.543 10.863,1.629 2.625,1.086 4.66,2.852 6.109,5.297 h 0.274 z m 0,24.171 c 0,-5.16 -1.043,-8.464 -3.125,-9.914 -2.082,-1.355 -6.203,-2.035 -12.356,-2.035 -4.437,0 -7.742,0.813 -9.914,2.446 -2.082,1.628 -3.125,3.711 -3.125,6.246 0,2.625 0.996,4.66 2.989,6.109 1.992,1.449 4.98,2.172 8.961,2.172 h 16.57 z" /><path
         id="path12125"
         style="fill:#000000;fill-opacity:1;fill-rule:nonzero;stroke:none"
         d="m 457.539,90.111 h 14.668 v 29.468 l 16.973,17.789 26.343,-47.257 h 17.383 l -34.218,58.527 30.96,38.16 h -17.382 l -39.789,-49.84 h -0.27 v 49.84 h -14.668 z" /><path
         id="path12127"
         style="fill:#000000;fill-opacity:1;fill-rule:nonzero;stroke:none"
         d="m 542.391,90.111 h 13.851 v 68.847 h -13.851 z m 0,82.836 h 13.851 v 13.851 h -13.851 z" /><path
         id="path12129"
         style="fill:#000000;fill-opacity:1;fill-rule:nonzero;stroke:none"
         d="m 574.605,62.275 h 13.852 v 35.168 c 2.809,-2.625 5.613,-4.661 8.422,-6.11 2.894,-1.359 6.019,-2.035 9.367,-2.035 3.984,0 7.516,0.813 10.594,2.442 3.168,1.628 5.793,3.804 7.875,6.519 0.996,1.266 1.812,2.535 2.445,3.801 0.633,1.359 1.133,2.988 1.492,4.89 0.364,1.899 0.59,4.207 0.68,6.926 0.18,2.805 0.273,6.336 0.273,10.59 0,4.348 -0.093,7.922 -0.273,10.731 -0.09,2.804 -0.316,5.113 -0.68,6.921 -0.359,1.813 -0.859,3.399 -1.492,4.754 -0.633,1.36 -1.449,2.672 -2.445,3.938 -2.082,2.719 -4.707,4.89 -7.875,6.519 -3.078,1.629 -6.61,2.446 -10.594,2.446 -3.437,0 -6.699,-0.727 -9.777,-2.176 -3.078,-1.445 -5.746,-3.395 -8.012,-5.836 v 7.195 h -13.852 z m 27.434,40.871 c -3.078,0 -5.57,0.59 -7.469,1.765 -1.812,1.27 -3.168,2.899 -4.074,4.891 -0.816,1.992 -1.359,4.164 -1.629,6.516 -0.273,2.355 -0.41,5.07 -0.41,8.148 0,3.168 0.137,5.93 0.41,8.285 0.27,2.352 0.813,4.528 1.629,6.516 0.906,1.992 2.262,3.578 4.074,4.754 1.899,1.269 4.391,1.902 7.469,1.902 3.078,0 5.566,-0.59 7.469,-1.766 1.898,-1.085 3.258,-2.625 4.074,-4.617 0.902,-1.992 1.492,-4.164 1.762,-6.519 0.273,-2.352 0.41,-5.203 0.41,-8.555 0,-3.258 -0.137,-6.062 -0.41,-8.418 -0.27,-2.355 -0.86,-4.527 -1.762,-6.519 -0.816,-1.899 -2.176,-3.438 -4.074,-4.618 -1.903,-1.175 -4.391,-1.765 -7.469,-1.765 z" /><path
         id="path12131"
         style="fill:#000000;fill-opacity:1;fill-rule:nonzero;stroke:none"
         d="m 647.328,90.111 h 13.852 v 58.257 h 13.851 v 10.59 H 661.18 v 9.098 c 0,2.082 0.406,3.531 1.222,4.348 0.907,0.902 2.489,1.355 4.754,1.355 h 7.875 v 13.039 h -8.961 c -5.613,0 -10.14,-1.586 -13.582,-4.754 -3.437,-3.168 -5.16,-7.832 -5.16,-13.988 v -9.098 h -6.926 v -10.59 h 6.926 z" /><path
         id="path12133"
         style="fill:#000000;fill-opacity:1;fill-rule:nonzero;stroke:none"
         d="m 736.184,119.306 v 11.406 c 0,4.348 -0.77,8.285 -2.309,11.817 -1.445,3.621 -3.484,6.699 -6.109,9.234 -2.625,2.625 -5.657,4.617 -9.098,5.973 -3.441,1.359 -7.063,2.039 -10.863,2.039 -3.532,0 -6.973,-0.637 -10.321,-1.903 -3.351,-1.265 -6.382,-3.304 -9.097,-6.109 -2.719,-2.719 -4.891,-6.383 -6.52,-11 -1.629,-4.617 -2.445,-10.094 -2.445,-16.434 0,-6.789 0.863,-12.492 2.582,-17.109 1.809,-4.523 4.164,-8.102 7.062,-10.727 2.985,-2.625 6.247,-4.48 9.774,-5.566 3.625,-1.086 7.336,-1.629 11.137,-1.629 4.796,0 9.324,0.902 13.578,2.715 4.258,1.809 8.011,4.617 11.273,8.418 l -10.051,8.555 c -1.992,-2.082 -4.343,-3.711 -7.058,-4.887 -2.629,-1.18 -5.297,-1.766 -8.012,-1.766 -4.891,0 -8.875,1.449 -11.953,4.344 -2.984,2.988 -4.481,7.199 -4.481,12.629 z m -42.911,11.406 c 0.184,5.07 1.586,9.008 4.211,11.817 2.715,2.804 6.157,4.207 10.321,4.207 4.164,0 7.558,-1.403 10.183,-4.207 2.715,-2.809 4.164,-6.747 4.348,-11.817 z" /><path
         id="path12135"
         style="fill:#000000;fill-opacity:1;fill-rule:nonzero;stroke:none"
         d="m 750.715,90.111 h 13.851 v 41.011 c 0,4.618 1.266,8.239 3.801,10.864 2.625,2.625 5.93,3.937 9.914,3.937 3.985,0 7.242,-1.312 9.778,-3.937 2.535,-2.625 3.8,-6.246 3.8,-10.864 V 90.111 h 13.852 v 45.761 c 0,3.805 -0.68,7.2 -2.035,10.188 -1.27,2.984 -3.035,5.476 -5.297,7.469 -2.262,2.082 -4.754,3.621 -7.469,4.617 -2.715,1.086 -5.433,1.629 -8.148,1.629 -7.606,0 -13.578,-2.719 -17.926,-8.149 h -0.27 v 7.332 h -13.851 z" /><path
         id="path12137"
         style="fill:#000000;fill-opacity:1;fill-rule:nonzero;stroke:none"
         d="m 823.652,90.111 h 13.852 v 7.199 c 2.262,-2.445 4.934,-4.391 8.012,-5.84 3.078,-1.449 6.336,-2.172 9.777,-2.172 3.98,0 7.512,0.813 10.59,2.442 3.168,1.628 5.793,3.804 7.875,6.519 0.996,1.266 1.765,2.535 2.308,3.801 0.637,1.359 1.133,2.988 1.497,4.89 0.453,1.899 0.722,4.207 0.812,6.926 0.184,2.805 0.273,6.383 0.273,10.727 0,4.344 -0.089,7.875 -0.273,10.594 -0.09,2.804 -0.316,5.113 -0.68,6.921 -0.359,1.903 -0.859,3.489 -1.492,4.754 -0.633,1.36 -1.449,2.672 -2.445,3.938 -2.082,2.719 -4.707,4.89 -7.875,6.519 -3.078,1.629 -6.61,2.446 -10.59,2.446 -3.352,0 -6.477,-0.727 -9.371,-2.176 -2.809,-1.356 -5.613,-3.348 -8.418,-5.973 v 35.172 h -13.852 z m 27.43,55.812 c 3.078,0 5.566,-0.59 7.469,-1.766 1.902,-1.085 3.258,-2.625 4.074,-4.617 0.906,-1.992 1.492,-4.164 1.766,-6.519 0.269,-2.352 0.406,-5.16 0.406,-8.418 0,-3.348 -0.137,-6.199 -0.406,-8.555 -0.274,-2.355 -0.86,-4.527 -1.766,-6.519 -0.816,-1.899 -2.172,-3.438 -4.074,-4.618 -1.903,-1.175 -4.391,-1.765 -7.469,-1.765 -3.078,0 -5.566,0.59 -7.469,1.765 -1.812,1.27 -3.168,2.899 -4.074,4.891 -0.816,2.082 -1.359,4.254 -1.629,6.516 -0.273,2.355 -0.406,5.117 -0.406,8.285 0,3.168 0.133,5.883 0.406,8.148 0.27,2.352 0.813,4.528 1.629,6.516 0.906,1.992 2.262,3.578 4.074,4.754 1.903,1.269 4.391,1.902 7.469,1.902 z" /><path
         id="path12139"
         style="fill:#000000;fill-opacity:1;fill-rule:nonzero;stroke:none"
         d="m 947.566,119.306 v 11.406 c 0,4.348 -0.769,8.285 -2.308,11.817 -1.449,3.621 -3.485,6.699 -6.11,9.234 -2.625,2.625 -5.66,4.617 -9.097,5.973 -3.442,1.359 -7.063,2.039 -10.863,2.039 -3.532,0 -6.973,-0.637 -10.321,-1.903 -3.351,-1.265 -6.383,-3.304 -9.097,-6.109 -2.719,-2.719 -4.891,-6.383 -6.52,-11 -1.629,-4.617 -2.445,-10.094 -2.445,-16.434 0,-6.789 0.859,-12.492 2.582,-17.109 1.808,-4.523 4.164,-8.102 7.058,-10.727 2.989,-2.625 6.25,-4.48 9.778,-5.566 3.621,-1.086 7.336,-1.629 11.136,-1.629 4.797,0 9.325,0.902 13.579,2.715 4.257,1.809 8.011,4.617 11.273,8.418 l -10.051,8.555 c -1.992,-2.082 -4.344,-3.711 -7.062,-4.887 -2.625,-1.18 -5.293,-1.766 -8.012,-1.766 -4.887,0 -8.871,1.449 -11.949,4.344 -2.989,2.988 -4.481,7.199 -4.481,12.629 z m -42.91,11.406 c 0.18,5.07 1.586,9.008 4.211,11.817 2.715,2.804 6.156,4.207 10.321,4.207 4.164,0 7.558,-1.403 10.183,-4.207 2.715,-2.809 4.164,-6.747 4.344,-11.817 z" /><path
         id="path12141"
         style="fill:#000000;fill-opacity:1;fill-rule:nonzero;stroke:none"
         d="m 962.098,90.111 h 13.851 v 41.418 c 0,4.707 1.313,8.285 3.938,10.726 2.625,2.445 5.793,3.668 9.504,3.668 1.722,0 3.261,-0.273 4.617,-0.816 1.359,-0.453 2.851,-1.313 4.48,-2.578 l 10.051,11.949 c -4.527,3.531 -9.324,5.297 -14.394,5.297 -7.606,0 -13.579,-2.719 -17.926,-8.149 h -0.27 v 7.332 h -13.851 z" /><path
         id="path12143"
         style="fill:#000000;fill-opacity:1;fill-rule:nonzero;stroke:none"
         d="m 1053.578,90.247 c 0,-4.707 -1.449,-8.375 -4.348,-11 -2.894,-2.625 -6.695,-3.937 -11.406,-3.937 -2.535,0 -4.933,0.59 -7.195,1.765 -2.262,1.086 -4.344,2.579 -6.246,4.481 l -10.727,-8.555 c 3.074,-3.531 6.742,-6.336 10.996,-8.418 4.258,-2.082 8.555,-3.125 12.903,-3.125 3.984,0 7.738,0.633 11.269,1.903 3.621,1.175 6.836,3.031 9.641,5.566 2.808,2.535 4.98,5.703 6.519,9.508 1.629,3.801 2.446,8.234 2.446,13.305 v 67.218 h -13.852 v -7.332 c -5.16,5.43 -11.09,8.149 -17.789,8.149 -4.074,0 -7.695,-0.817 -10.863,-2.446 -3.078,-1.629 -5.524,-3.621 -7.332,-5.976 -1.18,-1.539 -2.082,-2.852 -2.719,-3.938 -0.543,-1.086 -0.996,-2.535 -1.355,-4.343 -0.364,-1.813 -0.633,-4.165 -0.817,-7.063 -0.18,-2.805 -0.269,-6.652 -0.269,-11.543 0,-4.887 0.089,-8.781 0.269,-11.676 0.184,-2.808 0.453,-5.07 0.817,-6.793 0.359,-1.718 0.859,-3.168 1.492,-4.343 0.633,-1.176 1.496,-2.489 2.582,-3.938 1.808,-2.355 4.254,-4.348 7.332,-5.976 3.168,-1.629 6.789,-2.442 10.863,-2.442 3.441,0 6.699,0.723 9.777,2.172 3.079,1.449 5.75,3.395 8.012,5.84 z m -27.293,34.219 c 0,5.703 0.133,9.418 0.406,11.137 0.36,1.808 1.129,3.484 2.309,5.023 1.176,1.449 2.668,2.672 4.48,3.668 1.809,1.086 3.985,1.629 6.52,1.629 2.441,0 4.57,-0.543 6.379,-1.629 1.812,-0.996 3.305,-2.219 4.484,-3.668 1.176,-1.539 1.899,-3.215 2.172,-5.023 0.363,-1.719 0.543,-5.434 0.543,-11.137 0,-5.613 -0.18,-9.324 -0.543,-11.133 -0.273,-1.722 -0.996,-3.351 -2.172,-4.89 -1.179,-1.45 -2.672,-2.715 -4.484,-3.801 -1.809,-0.996 -3.938,-1.496 -6.379,-1.496 -2.535,0 -4.711,0.5 -6.52,1.496 -1.812,1.086 -3.304,2.351 -4.48,3.801 -1.18,1.539 -1.949,3.168 -2.309,4.89 -0.273,1.809 -0.406,5.52 -0.406,11.133 z" /></g></g></svg>