<?xml version="1.0" encoding="UTF-8" standalone="no"?>
<svg
   xmlns:dc="http://purl.org/dc/elements/1.1/"
   xmlns:cc="http://creativecommons.org/ns#"
   xmlns:rdf="http://www.w3.org/1999/02/22-rdf-syntax-ns#"
   xmlns:svg="http://www.w3.org/2000/svg"
   xmlns="http://www.w3.org/2000/svg"
   viewBox="0 0 730 612.08557"
   height="612.08557"
   width="730"
   xml:space="preserve"
   version="1.1"
   id="svg5726"><metadata
     id="metadata5732"><rdf:RDF><cc:Work
         rdf:about=""><dc:format>image/svg+xml</dc:format><dc:type
           rdf:resource="http://purl.org/dc/dcmitype/StillImage" /><dc:title></dc:title></cc:Work></rdf:RDF></metadata><defs
     id="defs5730"><clipPath
       id="clipPath5742"
       clipPathUnits="userSpaceOnUse"><path
         id="path5744"
         d="M 0,0 584,0 584,490 0,490 0,0 Z" /></clipPath></defs><g
     transform="matrix(1.25,0,0,-1.25,0,612.08557)"
     id="g5734"><g
       id="g5736"><g
         transform="translate(0,-0.331543)"
         id="g5738"><g
           id="g5740" /><g
           id="g5746"><g
             id="g5748"
             clip-path="url(#clipPath5742)"><g
               id="g5750"><path
                 id="path5752"
                 style="fill:#f0c900;fill-opacity:1;fill-rule:nonzero;stroke:none"
                 d="M 22.813,0.332 C -0.105,0.332 0,22.332 0,22.332 l 0,445.664 c 0,0 0.109,22.004 22.813,22.004 l 538.386,0 C 584.105,490 584,467.996 584,467.996 l 0,-445.664 c 0,-22.07 -22.801,-22 -22.801,-22" /></g></g></g></g></g><g
       id="g5754"><path
         id="path5756"
         style="fill:#000000;fill-opacity:1;fill-rule:nonzero;stroke:none"
         d="m 569.629,22 c 0,-4.648 -3.77,-8.425 -8.43,-8.425 l -538.386,0 c -4.661,0 -8.442,3.777 -8.442,8.425 l 0,445.665 c 0,4.648 3.781,8.429 8.442,8.429 l 538.386,0 c 4.66,0 8.43,-3.781 8.43,-8.429 l 0,-445.665 z m -8.43,462.536 -538.386,0 c -9.317,0 -16.868,-7.551 -16.868,-16.871 L 5.945,22 c 0,-9.304 7.551,-16.867 16.868,-16.867 l 538.386,0 c 9.309,0 16.856,7.563 16.856,16.867 l 0,445.665 c 0,9.32 -7.547,16.871 -16.856,16.871" /><path
         id="path5758"
         style="fill:#000000;fill-opacity:1;fill-rule:nonzero;stroke:none"
         d="m 215.121,80.512 98.024,94.067 -26.805,16.363 c -1.77,1.078 -2.328,3.383 -1.25,5.152 0.547,0.895 1.437,1.52 2.465,1.719 l 76.199,15.246 c 2.039,0.41 4.008,-0.906 4.418,-2.941 0.098,-0.481 0.098,-0.989 0,-1.465 l -15.246,-76.227 c -0.41,-2.023 -2.383,-3.355 -4.418,-2.941 -1.012,0.199 -1.914,0.824 -2.461,1.73 l -16.34,26.801 -94.051,-98.062" /><path
         id="path5760"
         style="fill:#000000;fill-opacity:1;fill-rule:nonzero;stroke:none"
         d="m 70.289,363.114 0,65.629 9.356,0 18.75,-42.766 18.746,42.766 9.359,0 0,-65.629 -9.945,0 0,41.609 -14.063,-32.223 -8.183,0 -14.063,32.223 0,-41.609" /><path
         id="path5762"
         style="fill:#000000;fill-opacity:1;fill-rule:nonzero;stroke:none"
         d="m 166.34,383.633 -13.477,0 c -3.234,0 -5.859,-2.625 -5.859,-5.859 0,-3.238 2.625,-5.859 5.859,-5.859 l 7.617,0 c 3.239,0 5.86,2.621 5.86,5.859 l 0,5.859 z m 9.371,-20.519 -9.371,0 0,4.844 c -1.652,-2.981 -4.793,-4.844 -8.203,-4.844 l -5.86,0 c -7.757,0 -14.058,6.297 -14.058,14.074 0,7.762 6.301,14.059 14.058,14.059 l 14.063,0 0,4.687 c 0,2.555 -1.836,4.754 -4.367,5.191 -3.305,0.586 -6.7,0.586 -10.016,0 -1.664,-0.292 -3.074,-1.343 -3.809,-2.847 l -7.414,5.859 c 2.227,3.289 5.7,5.535 9.614,6.231 4.379,0.757 8.855,0.757 13.25,0 7,-1.243 12.113,-7.325 12.113,-14.434" /><path
         id="path5764"
         style="fill:#000000;fill-opacity:1;fill-rule:nonzero;stroke:none"
         d="m 199.133,419.368 -9.36,0 0,9.375 9.36,0 0,-9.375 z m -9.36,-56.254 0,46.883 9.36,0 0,-46.883" /><path
         id="path5766"
         style="fill:#000000;fill-opacity:1;fill-rule:nonzero;stroke:none"
         d="m 213.195,363.114 0,46.883 9.371,0 0,-5.289 c 5.485,6.792 15.461,7.839 22.247,2.359 3.703,-3.012 5.859,-7.524 5.859,-12.305 l 0,-31.648 -9.359,0 0,28.719 c 0,5.179 -4.196,9.375 -9.372,9.375 -5.179,0 -9.375,-4.196 -9.375,-9.375 l 0,-28.719" /><path
         id="path5768"
         style="fill:#000000;fill-opacity:1;fill-rule:nonzero;stroke:none"
         d="m 261.215,363.114 0,7.629 23.433,31.05 -22.261,0 0,8.204 33.98,0 0,-7.032 -23.433,-31.05 23.433,0 0,-8.801" /><path
         id="path5770"
         style="fill:#000000;fill-opacity:1;fill-rule:nonzero;stroke:none"
         d="m 86.676,260.004 -16.387,65.629 10.527,0 10.547,-46.883 12.887,46.883 7.031,0 12.891,-46.883 10.531,46.883 10.547,0 -16.395,-65.629 -8.785,0 -12.304,47.454 -12.301,-47.454" /><path
         id="path5772"
         style="fill:#000000;fill-opacity:1;fill-rule:nonzero;stroke:none"
         d="m 162.824,316.247 -9.375,0 0,9.386 9.375,0 0,-9.386 z m -9.375,-56.243 0,46.868 9.375,0 0,-46.868" /><path
         id="path5774"
         style="fill:#000000;fill-opacity:1;fill-rule:nonzero;stroke:none"
         d="m 185.074,288.125 19.93,0 c 0,5.5 -4.461,9.961 -9.973,9.961 -5.488,0 -9.957,-4.461 -9.957,-9.961 z m 29.293,-8.203 -29.293,0 0,-1.172 c 0,-4.07 2.489,-7.734 6.266,-9.238 5.207,-2.09 11.16,-0.625 14.824,3.637 l 7.109,-6.113 c -6.257,-7.297 -16.484,-9.813 -25.402,-6.231 -7.351,2.93 -12.16,10.039 -12.16,17.945 l 0,9.375 c 0,10.68 8.656,19.333 19.32,19.333 10.68,0 19.336,-8.653 19.336,-19.333" /><path
         id="path5776"
         style="fill:#000000;fill-opacity:1;fill-rule:nonzero;stroke:none"
         d="m 223.738,267.516 6.606,6.645 c 5.453,-5.434 13.59,-7.192 20.808,-4.489 2.438,0.918 3.649,3.621 2.743,6.047 -0.653,1.727 -2.25,2.914 -4.102,3.031 l -9.945,0.614 c -7.746,0.492 -13.649,7.164 -13.153,14.914 0.383,6.164 4.754,11.355 10.746,12.793 8.731,2.105 17.934,0.054 24.946,-5.551 l -5.828,-7.32 c -4.766,3.789 -11.012,5.175 -16.938,3.75 -2.504,-0.594 -4.051,-3.125 -3.449,-5.641 0.484,-2 2.195,-3.449 4.262,-3.582 l 9.961,-0.629 c 7.738,-0.476 13.632,-7.164 13.14,-14.91 -0.332,-5.527 -3.902,-10.332 -9.094,-12.289 -10.64,-3.996 -22.632,-1.414 -30.703,6.617" /><path
         id="path5778"
         style="fill:#000000;fill-opacity:1;fill-rule:nonzero;stroke:none"
         d="m 284.648,278.165 c 0,-5.176 4.196,-9.372 9.375,-9.372 5.168,0 9.372,4.196 9.372,9.372 l 0,10.546 c 0,5.18 -4.204,9.375 -9.372,9.375 -5.179,0 -9.375,-4.195 -9.375,-9.375 l 0,-10.546 z m -9.371,-18.161 0,65.629 9.371,0 0,-24.047 c 5.489,6.789 15.461,7.856 22.25,2.372 3.704,-3.012 5.872,-7.536 5.872,-12.317 l 0,-16.406 c 0,-8.731 -7.082,-15.817 -15.817,-15.817 -4.777,0 -9.308,2.157 -12.305,5.875 l 0,-5.289" /><path
         id="path5780"
         style="fill:#000000;fill-opacity:1;fill-rule:nonzero;stroke:none"
         d="m 351.422,280.508 -13.473,0 c -3.234,0 -5.859,-2.621 -5.859,-5.859 0,-3.231 2.625,-5.856 5.859,-5.856 l 7.617,0 c 3.235,0 5.856,2.625 5.856,5.856 l 0,5.859 z m 9.375,-20.504 -9.375,0 0,4.836 c -1.664,-2.984 -4.789,-4.836 -8.199,-4.836 l -5.86,0 c -7.761,0 -14.058,6.301 -14.058,14.063 0,7.762 6.297,14.058 14.058,14.058 l 14.059,0 0,4.704 c 0,2.554 -1.852,4.734 -4.367,5.179 -3.301,0.586 -6.696,0.586 -10.012,0 -1.664,-0.281 -3.074,-1.347 -3.809,-2.851 l -7.418,5.855 c 2.227,3.305 5.704,5.555 9.618,6.235 4.379,0.757 8.855,0.757 13.246,0 7.004,-1.227 12.117,-7.309 12.117,-14.418" /><path
         id="path5782"
         style="fill:#000000;fill-opacity:1;fill-rule:nonzero;stroke:none"
         d="m 401.793,278.165 0,10.546 c 0,5.18 -4.195,9.375 -9.375,9.375 -5.176,0 -9.359,-4.195 -9.359,-9.375 l 0,-10.546 c 0,-5.176 4.183,-9.372 9.359,-9.372 5.18,0 9.375,4.196 9.375,9.372 z m 9.375,-18.161 -9.375,0 0,5.289 c -5.488,-6.793 -15.445,-7.843 -22.234,-2.359 -3.719,3.012 -5.887,7.524 -5.887,12.301 l 0,16.406 c 0,8.746 7.082,15.817 15.82,15.817 4.778,0 9.289,-2.157 12.301,-5.872 l 0,24.047 9.375,0" /><path
         id="path5784"
         style="fill:#000000;fill-opacity:1;fill-rule:nonzero;stroke:none"
         d="m 433.414,288.125 19.918,0 c 0,5.5 -4.461,9.961 -9.961,9.961 -5.5,0 -9.957,-4.461 -9.957,-9.961 z m 29.289,-8.203 -29.289,0 0,-1.172 c 0,-4.07 2.481,-7.734 6.258,-9.238 5.207,-2.09 11.172,-0.625 14.832,3.637 l 7.113,-6.113 c -6.273,-7.297 -16.488,-9.813 -25.418,-6.231 -7.34,2.93 -12.144,10.039 -12.144,17.945 l 0,9.375 c 0,10.68 8.64,19.333 19.316,19.333 10.684,0 19.332,-8.653 19.332,-19.333" /><path
         id="path5786"
         style="fill:#000000;fill-opacity:1;fill-rule:nonzero;stroke:none"
         d="m 475.582,260.004 0,46.868 9.383,0 0,-5.286 c 5.488,6.789 15.449,7.856 22.238,2.372 3.715,-3.012 5.871,-7.536 5.871,-12.317 l 0,-31.637 -9.375,0 0,28.707 c 0,5.18 -4.176,9.375 -9.359,9.375 -5.18,0 -9.375,-4.195 -9.375,-9.375 l 0,-28.707" /></g></g></svg>