<?xml version="1.0" encoding="UTF-8" standalone="no"?>
<svg
   xmlns:dc="http://purl.org/dc/elements/1.1/"
   xmlns:cc="http://creativecommons.org/ns#"
   xmlns:rdf="http://www.w3.org/1999/02/22-rdf-syntax-ns#"
   xmlns:svg="http://www.w3.org/2000/svg"
   xmlns="http://www.w3.org/2000/svg"
   viewBox="0 0 774.18164 248.83946"
   height="248.83946"
   width="774.18164"
   xml:space="preserve"
   id="svg24671"
   version="1.1"><metadata
     id="metadata24677"><rdf:RDF><cc:Work
         rdf:about=""><dc:format>image/svg+xml</dc:format><dc:type
           rdf:resource="http://purl.org/dc/dcmitype/StillImage" /><dc:title></dc:title></cc:Work></rdf:RDF></metadata><defs
     id="defs24675" /><g
     transform="matrix(1.3333333,0,0,-1.3333333,0,248.83946)"
     id="g24679"><g
       id="g24681"><path
         id="path24683"
         style="fill:#ffffff;fill-opacity:1;fill-rule:nonzero;stroke:none"
         d="m 12.559,186.106 h 555.535 c 6.734,0 12.179,-5.445 12.179,-12.18 V 12.696 c 0,-6.719 -5.445,-12.18 -12.179,-12.18 H 12.559 c -6.731,0 -12.176,5.461 -12.176,12.18 v 161.23 c 0,6.735 5.445,12.18 12.176,12.18" /><path
         id="path24685"
         style="fill:#000000;fill-opacity:1;fill-rule:nonzero;stroke:none"
         d="M 12.563,186.481 C 5.625,186.481 0,180.852 0,173.919 V 12.684 C 0,5.762 5.625,0.149 12.563,0.149 h 555.542 c 6.934,0 12.532,5.613 12.532,12.535 v 161.235 c 0,6.933 -5.598,12.562 -12.532,12.562 z m 0,-0.375 h 555.531 c 6.734,0 12.179,-5.445 12.179,-12.18 V 12.696 c 0,-6.719 -5.445,-12.18 -12.179,-12.18 H 12.563 c -6.735,0 -12.18,5.461 -12.18,12.18 v 161.23 c 0,6.735 5.445,12.18 12.18,12.18 z" /><path
         id="path24687"
         style="fill:#633a34;fill-opacity:1;fill-rule:nonzero;stroke:none"
         d="m 12.559,177.985 h 555.535 c 2.246,0 4.066,-1.82 4.066,-4.051 V 12.704 c 0,-2.246 -1.82,-4.067 -4.066,-4.067 H 12.559 c -2.243,0 -4.063,1.821 -4.063,4.067 v 161.23 c 0,2.231 1.82,4.051 4.063,4.051" /><path
         id="path24689"
         style="fill:#ffffff;fill-opacity:1;fill-rule:nonzero;stroke:none"
         d="m 375.27,43.864 c 4.515,-3.969 10.062,-5.898 16.394,-5.898 9.207,0 15.051,4.589 15.051,12.48 0,5.852 -3.735,11.395 -11.75,12.363 -2.035,0.242 -3.664,0.485 -4.809,0.668 -4.347,0.66 -6.09,3.071 -6.09,5.473 0,4.121 3.192,6.172 7.176,6.172 3.785,0 7.461,-1.332 10.602,-3.321 l 3.609,5.356 c -3.918,2.598 -8.617,4.469 -13.918,4.469 -8.855,0 -13.976,-5.192 -13.976,-12.543 0,-6.207 3.968,-11.039 11.39,-12.067 2.227,-0.297 3.739,-0.539 5.664,-0.785 3.852,-0.476 5.598,-2.762 5.598,-5.785 0,-3.555 -3.191,-5.977 -8.496,-5.977 -4.578,0 -8.918,1.692 -12.176,4.286" /><path
         id="path24691"
         style="fill:#ffffff;fill-opacity:1;fill-rule:nonzero;stroke:none"
         d="m 413.402,68.899 h -3.066 v -4.711 h 3.066 V 45.856 c 0,-4.812 3.133,-7.527 7.422,-7.527 h 3.18 v 5.781 h -2.285 c -1.5,0 -2.176,0.606 -2.176,2.293 v 17.785 h 4.461 v 4.711 h -4.461 v 9.289 h -6.141" /><path
         id="path24693"
         style="fill:#ffffff;fill-opacity:1;fill-rule:nonzero;stroke:none"
         d="m 429.785,38.329 h 6.149 v 18.39 c 0,4.461 2.941,6.387 5.961,6.387 1.574,0 2.593,-0.414 4.043,-1.5 l 4.449,5.301 c -1.856,1.449 -3.91,2.351 -6.379,2.351 -3.254,0 -6.028,-1.21 -7.961,-3.617 h -0.113 v 3.258 h -6.149" /><path
         id="path24695"
         style="fill:#ffffff;fill-opacity:1;fill-rule:evenodd;stroke:none"
         d="m 468.16,49.059 c 0,-4.754 -1.742,-5.301 -6.871,-5.301 -4.164,0 -5.781,1.801 -5.781,3.852 0,2.227 1.68,3.672 5.301,3.672 h 7.351 z m 0,-10.73 h 6.133 v 20.863 c 0,7.539 -5.18,10.066 -12.695,10.066 -4.586,0 -7.961,-1.21 -10.313,-4.46 l 4.817,-3.68 c 1.086,1.758 2.601,2.359 5.793,2.359 4.398,0 6.265,-1.031 6.265,-3.926 v -3.195 h -8.504 c -6.562,0 -9.937,-4.148 -9.937,-9.055 0,-5.3 3.98,-9.335 10.789,-9.335 4.152,0 6.277,0.957 7.531,3.078 h 0.121" /><path
         id="path24697"
         style="fill:#ffffff;fill-opacity:1;fill-rule:nonzero;stroke:none"
         d="m 493.707,61.606 h 3.559 c 2.41,0 3.375,-1.265 3.375,-3.562 V 47.301 c 0,-2.394 -1.028,-3.191 -3.977,-3.191 h -2.172 v -5.781 h 3.797 c 5.113,0 8.488,3.922 8.488,8.676 v 10.918 c 0,3.257 -1.386,5.492 -4.39,6.687 2.824,1.215 4.39,3.5 4.39,6.832 0,6.203 -4.812,10.184 -11.804,10.184 -7.41,0 -12.832,-3.254 -12.832,-10.004 V 38.329 h 6.14 v 33.293 c 0.121,2.469 1.633,3.726 6.09,3.851 2.047,0.063 4.461,-0.543 5.305,-1.254 0.785,-0.726 0.965,-1.691 0.965,-3.265 0,-2.66 -1.27,-3.567 -3.254,-3.567 h -3.68" /><path
         id="path24699"
         style="fill:#ffffff;fill-opacity:1;fill-rule:evenodd;stroke:none"
         d="m 519.25,56.356 c 0.121,4.641 2.828,7.121 6.434,7.121 3.629,0 6.269,-2.48 6.453,-7.121 z m 19.039,-5.074 v 5.074 c 0,7.902 -5.848,12.902 -12.605,12.902 -5.895,0 -12.586,-3.863 -12.586,-15.73 0,-12.547 7.297,-15.562 13.554,-15.562 4.102,0 8.028,1.449 11.028,4.945 l -4.457,3.801 c -1.813,-1.871 -4.332,-2.954 -6.688,-2.954 -4.226,0 -7.285,2.524 -7.285,7.524" /><path
         id="path24701"
         style="fill:#ffffff;fill-opacity:1;fill-rule:nonzero;stroke:none"
         d="M 196.121,38.798 V 81.61 h 6.488 V 44.907 H 223.5 v -6.109 z" /><path
         id="path24703"
         style="fill:#ffffff;fill-opacity:1;fill-rule:nonzero;stroke:none"
         d="m 229.266,38.798 v 30.5 h 6.136 v -30.5 z m 0,36.668 v 6.144 h 6.136 v -6.144 z" /><path
         id="path24705"
         style="fill:#ffffff;fill-opacity:1;fill-rule:nonzero;stroke:none"
         d="m 243.895,38.798 v 30.5 h 6.148 v -3.262 h 0.109 c 1.938,2.406 4.586,3.613 7.934,3.613 2.141,0 3.832,-0.379 5.086,-1.148 1.254,-0.758 2.426,-1.703 3.523,-2.817 2.41,2.641 5.625,3.965 9.637,3.965 2.371,0 4.652,-0.898 6.848,-2.703 2.215,-1.801 3.316,-4.43 3.316,-7.875 V 38.798 h -6.137 v 18.16 c 0,2.054 -0.578,3.66 -1.738,4.816 -1.148,1.156 -2.582,1.734 -4.285,1.734 -1.766,0 -3.223,-0.578 -4.383,-1.734 -1.133,-1.156 -1.699,-2.762 -1.699,-4.816 v -18.16 h -6.109 v 18.16 c 0,2.054 -0.582,3.66 -1.739,4.816 -1.156,1.156 -2.586,1.734 -4.285,1.734 -1.766,0 -3.223,-0.578 -4.383,-1.734 -1.14,-1.156 -1.695,-2.762 -1.695,-4.816 v -18.16 z" /><path
         id="path24707"
         style="fill:#ffffff;fill-opacity:1;fill-rule:nonzero;stroke:none"
         d="m 318.293,51.723 h -18.98 c 0,-2.504 0.675,-4.382 2.023,-5.64 1.375,-1.25 3.113,-1.875 5.234,-1.875 2.524,0 4.758,0.976 6.7,2.933 l 4.433,-3.789 c -1.508,-1.761 -3.211,-3.023 -5.113,-3.785 -1.879,-0.754 -3.848,-1.121 -5.902,-1.121 -3.137,0 -6.172,1.008 -9.114,3.023 -2.937,2.039 -4.406,6.188 -4.406,12.461 0,5.934 1.355,10.039 4.055,12.309 2.726,2.273 5.566,3.41 8.523,3.41 3.348,0 6.274,-1.164 8.785,-3.5 2.508,-2.308 3.762,-5.433 3.762,-9.367 z m -18.98,5.059 h 12.863 c -0.094,2.289 -0.738,4.043 -1.934,5.258 -1.195,1.215 -2.695,1.82 -4.496,1.82 -1.824,0 -3.344,-0.605 -4.555,-1.82 -1.191,-1.215 -1.824,-2.969 -1.878,-5.258 z" /><path
         id="path24709"
         style="fill:#ffffff;fill-opacity:1;fill-rule:nonzero;stroke:none"
         d="m 321.375,43.88 4.293,4.234 c 2.66,-2.602 5.859,-3.906 9.602,-3.906 1.75,0 3.187,0.316 4.324,0.965 1.133,0.668 1.707,1.644 1.707,2.941 0,1.781 -1.246,2.781 -3.731,2.996 l -5.41,0.496 c -2.527,0.199 -4.625,1.027 -6.289,2.5 -1.664,1.473 -2.492,3.516 -2.492,6.141 0,3.09 1.086,5.437 3.258,7.023 2.176,1.586 4.879,2.379 8.105,2.379 2.668,0 4.946,-0.379 6.848,-1.148 1.902,-0.743 3.609,-1.739 5.113,-2.996 l -3.789,-4.461 c -1.215,0.82 -2.469,1.496 -3.762,2.023 -1.289,0.527 -2.761,0.793 -4.41,0.793 -1.957,0 -3.316,-0.352 -4.082,-1.059 -0.762,-0.687 -1.14,-1.554 -1.14,-2.613 0,-0.668 0.277,-1.281 0.847,-1.847 0.571,-0.575 1.625,-0.915 3.172,-1.032 l 5.055,-0.351 c 3.152,-0.215 5.418,-1.2 6.785,-2.942 1.375,-1.722 2.059,-3.789 2.059,-6.195 0,-2.996 -1.227,-5.313 -3.676,-6.938 -2.446,-1.621 -5.434,-2.437 -8.957,-2.437 -5.075,0 -9.551,1.816 -13.43,5.434 z" /><path
         id="path24711"
         style="fill:#ffffff;fill-opacity:1;fill-rule:nonzero;stroke:none"
         d="M 352.875,58.512 H 371 v -6.141 h -18.125 z" /><path
         id="path24713"
         style="fill:#ffffff;fill-opacity:1;fill-rule:nonzero;stroke:none"
         d="m 105.352,33.008 -60.301,60.313 60.301,60.297 60.304,-60.297 z" /><path
         id="path24715"
         style="fill:#633a34;fill-opacity:1;fill-rule:evenodd;stroke:none"
         d="m 91.406,128.466 c 0,0 -18.609,-5.657 -18.648,-27.375 C 72.723,79.372 89.43,74.399 89.43,74.399 c 0.558,-0.203 0.562,-0.211 0.562,-0.801 0,-1.011 -0.437,-2.183 -1.097,-2.918 -1.086,-1.203 -2.707,-1.734 -5.813,-1.89 l -1.676,-0.086 v -1.371 h 53.699 v 27.691 c -0.062,-0.25 -0.32,-1.371 -0.578,-2.504 -1.047,-4.621 -2.472,-7.648 -5.394,-11.504 -1.27,-1.672 -4.477,-4.875 -6.133,-6.136 -4.578,-3.473 -8.969,-5.352 -13.906,-5.946 -1.129,-0.136 -3.672,-0.183 -10.914,-0.183 l -9.442,-0.004 0.887,0.886 c 0.613,0.61 1.012,1.153 1.301,1.758 l 0.414,0.879 0.035,28.102 z" /><path
         id="path24717"
         style="fill:#633a34;fill-opacity:1;fill-rule:evenodd;stroke:none"
         d="M 101.66,130.54 V 70.809 l 0.418,-0.051 c 1.027,-0.125 2.293,-0.117 3.656,0.012 9.61,0.309 18.371,6.082 23.094,15.219 0.133,0.25 0.274,0.504 0.399,0.762 0.078,0.148 0.148,0.3 0.222,0.449 1.223,2.523 2.102,5.246 2.578,8.109 0.27,1.614 0.411,3.469 0.426,5.317 0,0 0.016,1.914 -0.461,4.781 -0.402,2.719 -1.144,5.363 -2.215,7.859 -0.214,0.528 -0.449,1.055 -0.703,1.582 -0.035,0.071 -0.066,0.141 -0.097,0.207 -1.809,3.715 -4.547,7.469 -8.711,10.36 -4.524,3.332 -9.86,5.117 -15.317,5.125 z m 3.063,-2.032 c 14.156,0 25.629,-12.507 25.629,-27.941 0,-15.434 -11.473,-27.941 -25.629,-27.941 -0.219,0.007 -0.446,0.023 -0.668,0.035 v 0.027 l -0.094,-0.008 0.07,2.922 h 0.024 l 1.484,0.039 1.516,0.035 v 1.594 h -3.09 v 3.781 h 3.074 v 1.665 h -3.074 l 0.035,22.851 0.031,22.844 c 0.008,0 0.016,0 0.024,0 0.008,0 0.011,0 0.015,0.004 v 0.054 c 0.219,0.012 0.438,0.028 0.653,0.039 z" /><path
         id="path24719"
         style="fill:#633a34;fill-opacity:1;fill-rule:evenodd;stroke:none"
         d="m 107.039,96.622 v 10.066 h -2.176 v 6.41 h 2.176 v 1.399 l -1.312,0.039 -1.325,0.035 5.434,4.594 c 2.988,2.531 5.512,4.609 5.609,4.621 0.098,0.008 2.637,-2.063 5.641,-4.602 l 5.465,-4.613 -1.297,-0.039 -1.293,-0.035 v -1.399 h 2.309 v -6.41 h -2.309 v -17.57 l -2.246,0.07 -0.027,8.75 -0.036,8.75 h -12.3 V 87.973 h 2.687 v -1.41 h -5 z m 16.899,13.301 0.035,0.867 h -16.934 v -1.797 l 8.43,0.035 8.429,0.031 z m -9.715,3.878 v 0.579 h -4.746 v -1.157 h 4.746 z m 7.304,0 v 0.579 h -4.746 v -1.157 h 4.746 z m -3.074,4.711 c -1.285,1.071 -2.5,2.086 -2.691,2.246 l -0.356,0.293 -0.82,-0.738 c -0.449,-0.41 -1.535,-1.344 -2.414,-2.078 -0.883,-0.73 -1.692,-1.41 -1.793,-1.504 -0.156,-0.144 0.668,-0.172 5.109,-0.172 h 5.301 z" /><path
         id="path24721"
         style="fill:#633a34;fill-opacity:1;fill-rule:evenodd;stroke:none"
         d="m 113.453,87.266 v 0.707 h 3.203 v -1.41 h -3.203 z" /><path
         id="path24723"
         style="fill:#633a34;fill-opacity:1;fill-rule:evenodd;stroke:none"
         d="m 118.066,87.266 v 0.707 h 3.332 v -1.41 h -3.332 z" /><path
         id="path24725"
         style="fill:#633a34;fill-opacity:1;fill-rule:evenodd;stroke:none"
         d="m 122.809,87.266 v 0.707 h 3.336 v -1.41 h -3.336 z" /><path
         id="path24727"
         style="fill:#633a34;fill-opacity:1;fill-rule:evenodd;stroke:none"
         d="m 120.504,84.512 v 0.778 l 1.566,-0.035 1.575,-0.036 0.039,-0.738 0.035,-0.734 h -3.215 z" /><path
         id="path24729"
         style="fill:#633a34;fill-opacity:1;fill-rule:evenodd;stroke:none"
         d="m 115.883,84.446 v 0.707 l 1.351,0.02 c 0.739,0.011 1.414,0.023 1.504,0.031 0.11,0.008 0.172,-0.231 0.2,-0.723 l 0.035,-0.734 h -3.09 z" /><path
         id="path24731"
         style="fill:#633a34;fill-opacity:1;fill-rule:evenodd;stroke:none"
         d="m 118.066,81.883 v 0.833 h 3.332 v -1.661 h -3.332 z" /><path
         id="path24733"
         style="fill:#633a34;fill-opacity:1;fill-rule:evenodd;stroke:none"
         d="m 113.453,81.883 v 0.833 h 3.203 v -1.661 h -3.203 z" /><path
         id="path24735"
         style="fill:#633a34;fill-opacity:1;fill-rule:evenodd;stroke:none"
         d="m 108.707,81.883 v 0.833 h 3.332 v -1.661 h -3.332 z" /><path
         id="path24737"
         style="fill:#633a34;fill-opacity:1;fill-rule:evenodd;stroke:none"
         d="m 111.145,84.508 v 0.774 h 3.203 v -1.535 h -3.203 z" /><path
         id="path24739"
         style="fill:#633a34;fill-opacity:1;fill-rule:evenodd;stroke:none"
         d="m 106.531,84.446 v 0.707 h 3.074 v -1.406 h -3.074 z" /><path
         id="path24741"
         style="fill:#633a34;fill-opacity:1;fill-rule:evenodd;stroke:none"
         d="m 106.531,79.13 v 0.769 h 3.074 v -1.543 h -3.074 z" /><path
         id="path24743"
         style="fill:#633a34;fill-opacity:1;fill-rule:evenodd;stroke:none"
         d="m 111.145,79.13 v 0.769 h 3.203 v -1.543 h -3.203 z" /><path
         id="path24745"
         style="fill:#633a34;fill-opacity:1;fill-rule:evenodd;stroke:none"
         d="m 115.883,79.13 v 0.769 h 3.082 v -1.543 h -3.082 z" /><path
         id="path24747"
         style="fill:#633a34;fill-opacity:1;fill-rule:evenodd;stroke:none"
         d="m 108.707,77.27 c 1.09,0.051 3.27,0 3.27,0 v -1.605 h -3.27 z" /><path
         id="path24749"
         style="fill:#633a34;fill-opacity:1;fill-rule:evenodd;stroke:none"
         d="m 113.211,76.501 v 0.769 h 3.203 v -1.539 h -3.203 z" /><path
         id="path24751"
         style="fill:#ffffff;fill-opacity:1;fill-rule:evenodd;stroke:none"
         d="m 202.68,142.337 h 7.836 c 3.523,0 5.711,-0.918 7.722,-3.649 1.758,-2.363 1.946,-4.254 1.946,-12.043 0,-8.023 -0.188,-9.242 -1.645,-11.429 -1.699,-2.508 -4.312,-3.77 -8.023,-3.77 h -7.836 z m -6.559,-37.098 h 14.703 c 6.438,0 10.934,3.16 13.489,7.172 1.933,3.043 2.429,4.754 2.429,14.48 0,9.071 -0.183,10.703 -2.304,14.352 -2.797,4.746 -7.477,7.297 -13.192,7.297 h -15.125" /><path
         id="path24753"
         style="fill:#ffffff;fill-opacity:1;fill-rule:evenodd;stroke:none"
         d="m 238.531,123.423 c 0.125,4.683 2.86,7.171 6.492,7.171 3.653,0 6.321,-2.488 6.508,-7.171 z m 19.203,-5.11 v 5.11 c 0,7.976 -5.89,13.023 -12.711,13.023 -5.945,0 -12.699,-3.887 -12.699,-15.879 0,-12.652 7.364,-15.691 13.676,-15.691 4.137,0 8.082,1.461 11.121,4.98 l -4.496,3.84 c -1.824,-1.887 -4.383,-2.988 -6.75,-2.988 -4.242,0 -7.344,2.55 -7.344,7.605" /><path
         id="path24755"
         style="fill:#ffffff;fill-opacity:1;fill-rule:nonzero;stroke:none"
         d="m 264.23,115.591 c 0,-7.016 5.477,-10.715 10.336,-10.715 3.223,0 6.004,1.211 7.957,3.648 h 0.122 v -3.285 h 6.203 v 30.84 h -6.203 v -18.367 c 0,-4.196 -2.614,-6.637 -6.071,-6.637 -3.531,0 -6.14,2.441 -6.14,6.637 v 18.367 h -6.204" /><path
         id="path24757"
         style="fill:#ffffff;fill-opacity:1;fill-rule:nonzero;stroke:none"
         d="m 297.223,136.079 h -3.102 v -4.746 h 3.102 v -18.489 c 0,-4.871 3.156,-7.605 7.472,-7.605 h 3.219 v 5.836 h -2.316 c -1.516,0 -2.18,0.609 -2.18,2.324 v 17.934 h 4.496 v 4.746 h -4.496 v 9.359 h -6.195" /><path
         id="path24759"
         style="fill:#ffffff;fill-opacity:1;fill-rule:nonzero;stroke:none"
         d="m 310.336,110.403 c 3.949,-3.707 8.566,-5.527 13.547,-5.527 7.172,0 12.765,3.465 12.765,9.484 0,4.934 -2.546,8.82 -8.933,9.246 l -5.106,0.363 c -3.097,0.247 -4.07,1.582 -4.07,2.922 0,2.125 1.34,3.703 5.289,3.703 3.336,0 5.832,-1.148 8.27,-2.855 l 3.82,4.508 c -3.039,2.554 -6.68,4.199 -12.09,4.199 -6.504,0 -11.484,-3.227 -11.484,-9.488 0,-5.297 3.761,-8.336 8.863,-8.762 l 5.477,-0.484 c 2.125,-0.18 3.769,-0.848 3.769,-3.036 0,-2.628 -2.555,-3.96 -6.078,-3.96 -4.141,0 -7.051,1.332 -9.711,3.96" /><path
         id="path24761"
         style="fill:#ffffff;fill-opacity:1;fill-rule:nonzero;stroke:none"
         d="m 361.016,114.309 c -1.524,-1.898 -3.707,-3.234 -6.262,-3.234 -5.039,0 -8.016,2.871 -8.016,9.555 0,6.742 2.977,9.597 8.016,9.597 2.555,0 4.738,-1.332 6.262,-3.219 l 4.55,4.09 c -2.668,3.102 -6.371,5.348 -11.054,5.348 -7.106,0 -13.977,-4.496 -13.977,-15.816 0,-11.258 6.871,-15.754 13.977,-15.754 4.683,0 8.386,2.246 11.054,5.347" /><path
         id="path24763"
         style="fill:#ffffff;fill-opacity:1;fill-rule:nonzero;stroke:none"
         d="m 369.887,105.239 h 6.187 v 18.367 c 0,4.199 2.617,6.621 6.141,6.621 3.465,0 6.07,-2.422 6.07,-6.621 v -18.367 h 6.199 v 20.496 c 0,6.996 -5.464,10.711 -10.261,10.711 -3.278,0 -6.082,-1.219 -8.024,-3.656 h -0.125 v 15.75 h -6.187" /><path
         id="path24765"
         style="fill:#ffffff;fill-opacity:1;fill-rule:evenodd;stroke:none"
         d="m 407.188,123.423 c 0.113,4.683 2.843,7.171 6.496,7.171 3.648,0 6.308,-2.488 6.5,-7.171 z m 19.187,-5.11 v 5.11 c 0,7.976 -5.891,13.023 -12.691,13.023 -5.957,0 -12.707,-3.887 -12.707,-15.879 0,-12.652 7.351,-15.691 13.683,-15.691 4.121,0 8.07,1.461 11.113,4.98 l -4.488,3.84 c -1.828,-1.887 -4.383,-2.988 -6.758,-2.988 -4.246,0 -7.339,2.55 -7.339,7.605" /></g></g></svg>