<?xml version="1.0" encoding="UTF-8" standalone="no"?>
<svg
   xmlns:dc="http://purl.org/dc/elements/1.1/"
   xmlns:cc="http://creativecommons.org/ns#"
   xmlns:rdf="http://www.w3.org/1999/02/22-rdf-syntax-ns#"
   xmlns:svg="http://www.w3.org/2000/svg"
   xmlns="http://www.w3.org/2000/svg"
   viewBox="0 0 1760.8494 684.69952"
   height="684.69952"
   width="1760.8494"
   xml:space="preserve"
   id="svg12242"
   version="1.1"><metadata
     id="metadata12248"><rdf:RDF><cc:Work
         rdf:about=""><dc:format>image/svg+xml</dc:format><dc:type
           rdf:resource="http://purl.org/dc/dcmitype/StillImage" /><dc:title></dc:title></cc:Work></rdf:RDF></metadata><defs
     id="defs12246" /><g
     transform="matrix(1.3333333,0,0,-1.3333333,0,684.69954)"
     id="g12250"><g
       id="g12252"><path
         id="path12254"
         style="fill:#ffffff;fill-opacity:1;fill-rule:evenodd;stroke:none"
         d="m 37.648,513.06 h 1245.344 c 20.59,0 37.27,-16.68 37.27,-37.285 V 37.646 c 0,-20.59 -16.68,-37.27 -37.27,-37.27 H 37.648 c -20.605,0 -37.289,16.68 -37.289,37.27 v 438.129 c 0,20.605 16.684,37.285 37.289,37.285" /><path
         id="path12256"
         style="fill:#000000;fill-opacity:1;fill-rule:evenodd;stroke:none"
         d="M 37.648,513.45 C 16.84,513.45 0,496.579 0,475.771 V 37.65 C 0,16.857 16.84,0.001 37.648,0.001 h 1245.34 c 20.793,0 37.649,16.856 37.649,37.649 v 438.121 c 0,20.808 -16.856,37.679 -37.649,37.679 z m 0,-0.39 h 1245.344 c 20.59,0 37.27,-16.68 37.27,-37.285 V 37.646 c 0,-20.59 -16.68,-37.27 -37.27,-37.27 H 37.648 c -20.609,0 -37.289,16.68 -37.289,37.27 v 438.129 c 0,20.605 16.68,37.285 37.289,37.285 z" /><path
         id="path12258"
         style="fill:#000000;fill-opacity:1;fill-rule:evenodd;stroke:none"
         d="m 37.645,499.079 c -12.872,0 -23.297,-10.429 -23.297,-23.3 V 37.65 c 0,-12.871 10.425,-23.297 23.297,-23.297 h 1245.347 c 12.871,0 23.301,10.426 23.301,23.297 v 438.129 c 0,12.871 -10.43,23.3 -23.301,23.3 z m 0,-18.644 h 1245.347 c 2.563,0 4.656,-2.078 4.656,-4.656 V 37.65 c 0,-2.578 -2.093,-4.657 -4.656,-4.657 H 37.645 c -2.575,0 -4.657,2.079 -4.657,4.657 v 438.129 c 0,2.578 2.082,4.656 4.657,4.656 z" /><path
         id="path12260"
         style="fill:#633a34;fill-opacity:1;fill-rule:evenodd;stroke:none"
         d="M 92.559,424.501 H 1228.082 V 242.724 H 92.559 Z" /><path
         id="path12262"
         style="fill:#ffffff;fill-opacity:1;fill-rule:evenodd;stroke:none"
         d="M 134.52,410.513 H 288.321 V 256.712 H 134.52 Z" /><path
         id="path12264"
         style="fill:#633a34;fill-opacity:1;fill-rule:evenodd;stroke:none"
         d="m 181.262,280.4 v 62.445 h 18.871 l 11.328,-42.609 11.195,42.609 h 18.918 V 280.4 h -11.711 v 49.148 L 217.469,280.4 H 205.32 l -12.343,49.148 V 280.4 Z m -31.164,51.937 61.312,61.379 61.332,-61.414 -0.019,-60.012 H 150.098 Z m -2.969,-63.015 0.016,64.23 64.265,64.352 64.301,-64.368 -0.016,-64.214 z" /><path
         id="path12266"
         style="fill:#ffffff;fill-opacity:1;fill-rule:nonzero;stroke:none"
         d="m 358.23,295.872 c 2.809,-3.89 6.34,-6.968 10.594,-9.234 4.344,-2.262 9.188,-3.395 14.528,-3.395 3.894,0 7.695,0.68 11.41,2.039 3.801,1.45 7.148,3.532 10.047,6.247 2.898,2.714 5.207,5.972 6.925,9.777 1.719,3.891 2.579,8.148 2.579,12.766 v 66.671 h -14.665 v -65.179 c 0,-3.168 -0.496,-5.883 -1.492,-8.149 -0.996,-2.261 -2.308,-4.117 -3.937,-5.566 -1.633,-1.359 -3.442,-2.356 -5.434,-2.988 -1.902,-0.633 -3.847,-0.95 -5.84,-0.95 -2.804,0 -5.34,0.586 -7.605,1.766 -2.172,1.176 -3.938,2.758 -5.293,4.75 z" /><path
         id="path12268"
         style="fill:#ffffff;fill-opacity:1;fill-rule:nonzero;stroke:none"
         d="m 430.711,307.146 c 0,-3.715 0.633,-7.11 1.902,-10.188 1.356,-2.984 3.168,-5.519 5.43,-7.601 2.266,-1.992 4.754,-3.532 7.469,-4.617 2.808,-0.997 5.57,-1.497 8.285,-1.497 7.512,0 13.441,2.719 17.789,8.149 h 0.269 v -7.332 h 13.852 v 68.847 h -13.852 v -41.011 c 0,-4.617 -1.265,-8.239 -3.8,-10.864 -2.535,-2.625 -5.793,-3.937 -9.778,-3.937 -3.984,0 -7.289,1.312 -9.914,3.937 -2.535,2.625 -3.8,6.247 -3.8,10.864 v 41.011 h -13.852 z" /><path
         id="path12270"
         style="fill:#ffffff;fill-opacity:1;fill-rule:nonzero;stroke:none"
         d="M 503.648,284.06 H 517.5 v 41.418 c 0,4.707 1.313,8.281 3.938,10.726 2.625,2.446 5.792,3.668 9.503,3.668 1.723,0 3.262,-0.273 4.618,-0.816 1.359,-0.453 2.851,-1.313 4.48,-2.582 l 10.051,11.953 c -4.527,3.527 -9.324,5.293 -14.395,5.293 -7.605,0 -13.578,-2.715 -17.925,-8.145 h -0.27 v 7.332 h -13.852 z" /><path
         id="path12272"
         style="fill:#ffffff;fill-opacity:1;fill-rule:nonzero;stroke:none"
         d="m 590.293,284.06 h 13.852 v 46.984 c 0,8.059 -2.536,13.852 -7.606,17.383 -4.976,3.527 -11.992,5.293 -21.047,5.293 -5.34,0 -9.914,-0.813 -13.715,-2.441 -3.8,-1.539 -6.972,-4.075 -9.507,-7.606 l 10.867,-8.285 c 1.265,1.992 2.851,3.352 4.75,4.074 1.902,0.817 4.664,1.223 8.285,1.223 5.07,0 8.691,-0.68 10.863,-2.035 2.172,-1.27 3.258,-3.532 3.258,-6.789 v -7.2 h -19.145 c -7.062,0 -12.585,-1.945 -16.57,-5.839 -3.89,-3.891 -5.836,-8.735 -5.836,-14.528 0,-6.156 2.172,-11.226 6.516,-15.211 4.347,-3.89 10.277,-5.84 17.789,-5.84 4.617,0 8.238,0.543 10.863,1.629 2.625,1.09 4.664,2.852 6.113,5.297 h 0.27 z m 0,24.172 c 0,-5.16 -1.039,-8.465 -3.121,-9.914 -2.082,-1.36 -6.203,-2.036 -12.359,-2.036 -4.434,0 -7.739,0.813 -9.915,2.442 -2.082,1.629 -3.121,3.711 -3.121,6.246 0,2.625 0.996,4.664 2.989,6.113 1.992,1.449 4.976,2.172 8.961,2.172 h 16.566 z" /><path
         id="path12274"
         style="fill:#ffffff;fill-opacity:1;fill-rule:nonzero;stroke:none"
         d="m 620.438,328.599 h 40.875 v -13.852 h -40.875 z" /><path
         id="path12276"
         style="fill:#ffffff;fill-opacity:1;fill-rule:nonzero;stroke:none"
         d="m 678.59,284.06 h 14.668 v 60.293 h 0.269 l 20.235,-46.442 h 12.218 l 20.235,46.442 h 0.273 V 284.06 h 14.664 v 96.683 h -13.851 l -27.156,-63.007 -27.704,63.007 H 678.59 Z" /><path
         id="path12278"
         style="fill:#ffffff;fill-opacity:1;fill-rule:nonzero;stroke:none"
         d="m 780.273,307.146 c 0,-3.715 0.633,-7.11 1.903,-10.188 1.359,-2.984 3.168,-5.519 5.429,-7.601 2.266,-1.992 4.754,-3.532 7.469,-4.617 2.809,-0.997 5.571,-1.497 8.285,-1.497 7.516,0 13.446,2.719 17.789,8.149 h 0.274 v -7.332 h 13.848 v 68.847 h -13.848 v -41.011 c 0,-4.617 -1.27,-8.239 -3.805,-10.864 -2.535,-2.625 -5.793,-3.937 -9.777,-3.937 -3.985,0 -7.285,1.312 -9.914,3.937 -2.531,2.625 -3.801,6.247 -3.801,10.864 v 41.011 h -13.852 z" /><path
         id="path12280"
         style="fill:#ffffff;fill-opacity:1;fill-rule:nonzero;stroke:none"
         d="m 845.605,295.603 c 8.782,-8.238 18.875,-12.36 30.282,-12.36 8.238,0 15.031,1.903 20.371,5.704 5.43,3.804 8.148,8.964 8.148,15.48 0,5.887 -1.629,10.684 -4.89,14.395 -3.258,3.71 -8.282,5.793 -15.075,6.246 l -11.406,0.816 c -3.258,0.27 -5.613,0.996 -7.058,2.172 -1.36,1.176 -2.039,2.625 -2.039,4.348 0,2.531 0.906,4.523 2.718,5.972 1.899,1.539 4.934,2.309 9.098,2.309 3.527,0 6.742,-0.543 9.641,-1.629 2.894,-1.086 5.839,-2.672 8.824,-4.754 l 8.558,10.051 c -3.625,3.078 -7.605,5.387 -11.953,6.926 -4.344,1.628 -9.367,2.441 -15.07,2.441 -7.516,0 -13.672,-1.855 -18.469,-5.566 -4.797,-3.622 -7.199,-8.825 -7.199,-15.618 0,-5.703 1.812,-10.273 5.434,-13.714 3.71,-3.438 8.507,-5.387 14.394,-5.84 l 12.223,-1.086 c 2.625,-0.18 4.66,-0.813 6.109,-1.899 1.539,-0.996 2.309,-2.625 2.309,-4.89 0,-2.805 -1.27,-4.977 -3.805,-6.516 -2.441,-1.539 -5.703,-2.309 -9.777,-2.309 -4.524,0 -8.508,0.723 -11.95,2.172 -3.437,1.45 -6.699,3.664 -9.777,6.653 z" /><path
         id="path12282"
         style="fill:#ffffff;fill-opacity:1;fill-rule:nonzero;stroke:none"
         d="m 971.824,313.255 v 11.406 c 0,4.348 -0.769,8.286 -2.308,11.813 -1.45,3.621 -3.489,6.699 -6.114,9.234 -2.625,2.625 -5.656,4.617 -9.097,5.977 -3.442,1.359 -7.063,2.035 -10.864,2.035 -3.531,0 -6.972,-0.633 -10.32,-1.898 -3.348,-1.27 -6.383,-3.305 -9.098,-6.114 -2.714,-2.715 -4.89,-6.379 -6.519,-10.996 -1.629,-4.617 -2.445,-10.097 -2.445,-16.433 0,-6.789 0.863,-12.493 2.582,-17.11 1.812,-4.527 4.164,-8.101 7.062,-10.726 2.985,-2.625 6.246,-4.481 9.777,-5.571 3.622,-1.086 7.333,-1.629 11.133,-1.629 4.801,0 9.325,0.907 13.582,2.719 4.254,1.809 8.012,4.617 11.27,8.418 l -10.051,8.555 c -1.988,-2.082 -4.344,-3.711 -7.059,-4.891 -2.625,-1.176 -5.296,-1.762 -8.011,-1.762 -4.891,0 -8.875,1.446 -11.949,4.344 -2.989,2.989 -4.485,7.196 -4.485,12.629 z m -42.914,11.406 c 0.184,5.071 1.586,9.008 4.211,11.813 2.715,2.808 6.156,4.211 10.32,4.211 4.164,0 7.559,-1.403 10.184,-4.211 2.719,-2.805 4.164,-6.742 4.348,-11.813 z" /><path
         id="path12284"
         style="fill:#ffffff;fill-opacity:1;fill-rule:nonzero;stroke:none"
         d="m 986.352,307.146 c 0,-3.715 0.632,-7.11 1.902,-10.188 1.359,-2.984 3.168,-5.519 5.43,-7.601 2.265,-1.992 4.754,-3.532 7.468,-4.617 2.809,-0.997 5.571,-1.497 8.286,-1.497 7.515,0 13.445,2.719 17.789,8.149 h 0.269 v -7.332 h 13.852 v 68.847 h -13.852 v -41.011 c 0,-4.617 -1.266,-8.239 -3.801,-10.864 -2.535,-2.625 -5.793,-3.937 -9.777,-3.937 -3.984,0 -7.285,1.312 -9.914,3.937 -2.535,2.625 -3.801,6.247 -3.801,10.864 v 41.011 h -13.851 z" /><path
         id="path12286"
         style="fill:#ffffff;fill-opacity:1;fill-rule:nonzero;stroke:none"
         d="m 1060.102,284.06 h 13.851 v 41.008 c 0,4.617 1.27,8.238 3.805,10.863 2.625,2.629 5.93,3.941 9.91,3.941 3.984,0 7.242,-1.312 9.777,-3.941 2.535,-2.625 3.805,-6.246 3.805,-10.863 V 284.06 h 13.852 v 41.008 c 0,4.617 1.265,8.238 3.8,10.863 2.625,2.629 5.93,3.941 9.914,3.941 3.981,0 7.243,-1.312 9.778,-3.941 2.531,-2.625 3.801,-6.246 3.801,-10.863 V 284.06 h 13.851 v 45.762 c 0,3.8 -0.68,7.199 -2.039,10.183 -1.266,2.988 -3.031,5.477 -5.293,7.469 -2.266,2.082 -4.754,3.621 -7.469,4.617 -2.718,1.086 -5.433,1.629 -8.148,1.629 -4.707,0 -8.828,-0.723 -12.359,-2.172 -3.438,-1.449 -6.563,-3.711 -9.368,-6.789 -2.898,2.988 -5.75,5.207 -8.554,6.652 -2.809,1.539 -6.43,2.309 -10.864,2.309 -7.605,0 -13.582,-2.715 -17.925,-8.145 h -0.274 v 7.332 h -13.851 z" /><path
         id="path12288"
         style="fill:#000000;fill-opacity:1;fill-rule:nonzero;stroke:none"
         d="m 354.16,90.111 h 13.848 v 68.847 H 354.16 Z m 0,82.836 h 13.848 v 13.851 H 354.16 Z" /><path
         id="path12290"
         style="fill:#000000;fill-opacity:1;fill-rule:nonzero;stroke:none"
         d="m 386.375,90.111 h 13.852 v 41.011 c 0,4.618 1.265,8.239 3.8,10.864 2.625,2.625 5.93,3.937 9.914,3.937 3.981,0 7.243,-1.312 9.778,-3.937 2.531,-2.625 3.801,-6.246 3.801,-10.864 V 90.111 h 13.851 v 45.761 c 0,3.805 -0.68,7.2 -2.039,10.188 -1.266,2.984 -3.031,5.476 -5.293,7.469 -2.266,2.082 -4.754,3.621 -7.469,4.617 -2.718,1.086 -5.433,1.629 -8.148,1.629 -7.606,0 -13.582,-2.719 -17.926,-8.149 h -0.269 v 7.332 h -13.852 z" /><path
         id="path12292"
         style="fill:#000000;fill-opacity:1;fill-rule:nonzero;stroke:none"
         d="m 493.156,90.111 h 61.785 v 13.851 H 507.82 v 28.383 h 40.196 V 145.38 H 507.82 v 27.567 h 47.121 v 13.851 h -61.785 z" /><path
         id="path12294"
         style="fill:#000000;fill-opacity:1;fill-rule:nonzero;stroke:none"
         d="m 567.93,90.111 h 13.847 v 68.847 H 567.93 Z m 0,82.836 h 13.847 v 13.851 H 567.93 Z" /><path
         id="path12296"
         style="fill:#000000;fill-opacity:1;fill-rule:nonzero;stroke:none"
         d="m 640.609,110.345 c -1.808,-2.172 -3.937,-3.938 -6.382,-5.297 -2.352,-1.266 -4.887,-1.902 -7.606,-1.902 -5.793,0 -10.226,1.722 -13.305,5.16 -3.078,3.531 -4.617,8.918 -4.617,16.16 0,7.332 1.539,12.719 4.617,16.16 3.079,3.531 7.512,5.297 13.305,5.297 2.719,0 5.254,-0.68 7.606,-2.039 2.445,-1.266 4.574,-2.984 6.382,-5.16 l 10.184,9.101 c -3.168,3.711 -6.832,6.606 -11,8.688 -4.164,2.176 -8.734,3.262 -13.715,3.262 -4.074,0 -7.965,-0.68 -11.676,-2.039 -3.711,-1.356 -7.062,-3.485 -10.05,-6.383 -2.989,-2.805 -5.34,-6.473 -7.059,-10.996 -1.633,-4.528 -2.445,-9.825 -2.445,-15.891 0,-6.062 0.859,-11.359 2.578,-15.887 1.722,-4.437 4.031,-8.101 6.926,-11 2.898,-2.804 6.203,-4.886 9.914,-6.246 3.8,-1.359 7.738,-2.035 11.812,-2.035 4.981,0 9.551,1.039 13.715,3.121 4.168,2.172 7.832,5.117 11,8.828 z" /><path
         id="path12298"
         style="fill:#000000;fill-opacity:1;fill-rule:nonzero;stroke:none"
         d="m 660.348,90.111 h 13.851 v 41.011 c 0,4.618 1.27,8.239 3.801,10.864 2.629,2.625 5.93,3.937 9.914,3.937 3.984,0 7.242,-1.312 9.777,-3.937 2.536,-2.625 3.801,-6.246 3.801,-10.864 V 90.111 h 13.852 v 45.761 c 0,3.805 -0.676,7.2 -2.035,10.188 -1.27,2.984 -3.036,5.476 -5.297,7.469 -2.262,2.082 -4.754,3.621 -7.469,4.617 -2.715,1.086 -5.43,1.629 -8.148,1.629 -7.602,0 -13.579,-2.719 -17.922,-8.149 h -0.274 v 35.172 h -13.851 z" /><path
         id="path12300"
         style="fill:#000000;fill-opacity:1;fill-rule:nonzero;stroke:none"
         d="m 725.68,101.654 c 8.781,-8.239 18.875,-12.356 30.281,-12.356 8.238,0 15.027,1.899 20.371,5.703 5.43,3.801 8.148,8.961 8.148,15.481 0,5.883 -1.632,10.679 -4.89,14.394 -3.258,3.711 -8.281,5.793 -15.074,6.246 l -11.407,0.813 c -3.257,0.273 -5.613,0.996 -7.058,2.172 -1.36,1.179 -2.039,2.629 -2.039,4.347 0,2.536 0.906,4.528 2.715,5.973 1.902,1.539 4.933,2.309 9.101,2.309 3.527,0 6.742,-0.543 9.641,-1.629 2.894,-1.086 5.84,-2.668 8.824,-4.75 l 8.555,10.047 c -3.621,3.078 -7.602,5.386 -11.95,6.925 -4.343,1.629 -9.367,2.446 -15.07,2.446 -7.515,0 -13.672,-1.856 -18.469,-5.571 -4.8,-3.621 -7.199,-8.824 -7.199,-15.613 0,-5.703 1.813,-10.277 5.434,-13.715 3.711,-3.441 8.508,-5.386 14.394,-5.84 l 12.219,-1.086 c 2.629,-0.183 4.664,-0.816 6.113,-1.902 1.539,-0.996 2.309,-2.625 2.309,-4.891 0,-2.804 -1.27,-4.976 -3.805,-6.515 -2.441,-1.539 -5.703,-2.309 -9.777,-2.309 -4.524,0 -8.508,0.723 -11.949,2.172 -3.438,1.449 -6.7,3.668 -9.778,6.652 z" /><path
         id="path12302"
         style="fill:#000000;fill-opacity:1;fill-rule:nonzero;stroke:none"
         d="m 799.344,158.958 h -6.926 v -10.59 h 6.926 v -41.281 c 0,-5.344 1.539,-9.508 4.617,-12.496 3.078,-2.984 7.105,-4.48 12.086,-4.48 h 7.195 v 13.035 h -5.16 c -3.258,0 -4.887,1.722 -4.887,5.16 v 40.062 h 10.047 v 10.59 h -10.047 v 20.914 h -13.851 z" /><path
         id="path12304"
         style="fill:#000000;fill-opacity:1;fill-rule:nonzero;stroke:none"
         d="m 865.793,169.685 h 14.668 v 14.668 h -14.668 z m -23.898,0 h 14.664 v 14.668 h -14.664 z m 30.418,-79.574 h 13.851 v 46.984 c 0,8.059 -2.535,13.852 -7.605,17.383 -4.981,3.531 -11.996,5.297 -21.047,5.297 -5.344,0 -9.914,-0.817 -13.715,-2.446 -3.805,-1.539 -6.973,-4.074 -9.508,-7.605 l 10.863,-8.281 c 1.27,1.992 2.852,3.347 4.754,4.074 1.903,0.812 4.66,1.219 8.285,1.219 5.067,0 8.688,-0.676 10.864,-2.036 2.172,-1.265 3.258,-3.531 3.258,-6.789 v -7.199 h -19.149 c -7.059,0 -12.582,-1.945 -16.566,-5.836 -3.891,-3.894 -5.84,-8.738 -5.84,-14.531 0,-6.156 2.176,-11.227 6.519,-15.211 4.344,-3.891 10.274,-5.836 17.789,-5.836 4.618,0 8.239,0.543 10.864,1.629 2.625,1.086 4.664,2.852 6.109,5.297 h 0.274 z m 0,24.171 c 0,-5.16 -1.043,-8.464 -3.125,-9.914 -2.083,-1.355 -6.2,-2.035 -12.356,-2.035 -4.437,0 -7.742,0.813 -9.914,2.446 -2.082,1.628 -3.121,3.711 -3.121,6.246 0,2.625 0.996,4.66 2.984,6.109 1.992,1.449 4.981,2.172 8.965,2.172 h 16.567 z" /><path
         id="path12306"
         style="fill:#000000;fill-opacity:1;fill-rule:nonzero;stroke:none"
         d="m 904.902,158.958 h -6.925 v -10.59 h 6.925 v -41.281 c 0,-5.344 1.539,-9.508 4.618,-12.496 3.078,-2.984 7.105,-4.48 12.085,-4.48 h 7.196 v 13.035 h -5.16 c -3.258,0 -4.887,1.722 -4.887,5.16 v 40.062 h 10.047 v 10.59 h -10.047 v 20.914 h -13.852 z" /><path
         id="path12308"
         style="fill:#000000;fill-opacity:1;fill-rule:nonzero;stroke:none"
         d="m 942.563,158.958 h -6.926 v -10.59 h 6.926 v -41.281 c 0,-5.344 1.539,-9.508 4.617,-12.496 3.078,-2.984 7.109,-4.48 12.086,-4.48 h 7.199 v 13.035 h -5.16 c -3.262,0 -4.891,1.722 -4.891,5.16 v 40.062 h 10.051 v 10.59 h -10.051 v 20.914 h -13.851 z" /></g></g></svg>