<?xml version="1.0" encoding="UTF-8" standalone="no"?>
<svg
   xmlns:dc="http://purl.org/dc/elements/1.1/"
   xmlns:cc="http://creativecommons.org/ns#"
   xmlns:rdf="http://www.w3.org/1999/02/22-rdf-syntax-ns#"
   xmlns:svg="http://www.w3.org/2000/svg"
   xmlns="http://www.w3.org/2000/svg"
   viewBox="0 0 930.05243 200"
   height="200"
   width="930.05243"
   xml:space="preserve"
   id="svg19025"
   version="1.1"><metadata
     id="metadata19031"><rdf:RDF><cc:Work
         rdf:about=""><dc:format>image/svg+xml</dc:format><dc:type
           rdf:resource="http://purl.org/dc/dcmitype/StillImage" /><dc:title></dc:title></cc:Work></rdf:RDF></metadata><defs
     id="defs19029"><clipPath
       id="clipPath19047"
       clipPathUnits="userSpaceOnUse"><path
         id="path19045"
         d="M 0,0 H 698 V 150 H 0 Z" /></clipPath></defs><g
     transform="matrix(1.3333333,0,0,-1.3333333,0,200)"
     id="g19033"><g
       id="g19035"><path
         id="path19037"
         style="fill:#ffffff;fill-opacity:1;fill-rule:evenodd;stroke:none"
         d="M 677.566,149.621 H 18.98 l -1.011,-0.09 -0.961,-0.133 -0.953,-0.164 -0.957,-0.222 -0.91,-0.262 -0.915,-0.301 -0.918,-0.351 -0.871,-0.399 L 10.656,147.27 9.828,146.785 9.035,146.266 8.262,145.699 7.52,145.137 6.824,144.52 6.121,143.867 5.469,143.172 4.859,142.477 4.254,141.738 3.723,140.953 3.203,140.168 2.73,139.34 2.289,138.469 1.902,137.641 1.547,136.727 1.25,135.809 0.984,134.895 0.766,133.934 0.598,132.973 0.457,131.977 0.379,131.016 V 19.027 L 0.457,18.035 0.598,17.031 0.766,16.07 0.984,15.109 1.25,14.195 1.547,13.285 1.902,12.406 2.289,11.535 2.73,10.66 3.203,9.887 3.723,9.051 4.254,8.316 4.859,7.57 5.469,6.828 6.121,6.18 6.824,5.527 7.52,4.875 8.262,4.301 9.035,3.738 9.828,3.254 10.656,2.777 11.484,2.348 12.355,1.949 13.273,1.598 14.188,1.254 15.098,1 16.055,0.777 17.008,0.602 17.969,0.469 18.98,0.426 19.977,0.383 h 657.589 l 2.008,0.086 0.949,0.133 0.961,0.175 0.961,0.223 0.961,0.254 0.871,0.344 0.914,0.351 0.864,0.399 0.84,0.429 0.816,0.477 0.793,0.484 0.785,0.563 0.738,0.574 0.735,0.652 0.66,0.653 0.652,0.648 0.606,0.742 0.609,0.746 0.527,0.735 0.52,0.836 0.484,0.773 0.434,0.875 0.387,0.871 0.351,0.879 0.301,0.91 0.262,0.914 0.222,0.961 0.176,0.961 0.133,1.004 0.078,0.992 v 111.989 l -0.078,0.961 -0.133,0.996 -0.176,0.961 -0.222,0.961 -0.262,0.914 -0.301,0.918 -0.351,0.914 -0.387,0.828 -0.434,0.871 -0.484,0.828 -0.52,0.785 -0.527,0.785 -0.609,0.739 -0.606,0.695 -0.652,0.695 -0.66,0.653 -0.735,0.617 -0.738,0.562 -0.785,0.567 -0.793,0.519 -0.816,0.485 -0.84,0.429 -0.864,0.399 -0.914,0.351 -0.871,0.301 -0.961,0.262 -0.961,0.222 -0.961,0.164 -0.949,0.133 -1.004,0.09 z" /><g
         id="g19039"><g
           id="g19041"><g
             clip-path="url(#clipPath19047)"
             id="g19043"><g
               id="g19049"><path
                 id="path19051"
                 style="fill:#000000;fill-opacity:1;fill-rule:nonzero;stroke:none"
                 d="m 678.578,150 1.035,-0.086 0.961,-0.137 0.981,-0.175 0.984,-0.223 0.977,-0.274 0.898,-0.292 0.926,-0.364 0.879,-0.41 0.859,-0.43 0.824,-0.5 0.813,-0.535 0.808,-0.566 0.739,-0.567 0.758,-0.636 0.668,-0.672 0.671,-0.707 0.602,-0.703 0.637,-0.758 0.535,-0.809 0.531,-0.793 0.484,-0.84 0.446,-0.894 0.394,-0.844 0.364,-0.93 0.308,-0.929 0.258,-0.946 0.223,-0.964 0.191,-0.981 0.121,-1.012 0.086,-0.984 V 19.012 l -0.07,-1.016 -0.137,-1.031 L 697.141,16 696.918,15.02 696.66,14.074 696.352,13.16 695.988,12.25 695.594,11.371 695.148,10.48 694.664,9.688 694.133,8.844 693.582,8.086 692.98,7.328 692.359,6.574 691.691,5.902 691.02,5.25 690.277,4.578 689.523,3.992 688.715,3.426 687.902,2.926 687.078,2.445 686.219,2.016 685.34,1.602 684.414,1.242 683.516,0.895 682.539,0.637 681.555,0.414 680.594,0.227 679.613,0.086 678.578,0.055 677.566,0 H 19.973 L 18.957,0.051 17.926,0.086 16.945,0.227 15.984,0.414 15,0.637 14.074,0.895 13.145,1.238 12.215,1.602 11.32,2.012 10.477,2.445 9.633,2.926 8.824,3.426 8.035,3.992 7.277,4.594 6.574,5.25 5.848,5.902 5.195,6.574 4.559,7.328 3.957,8.086 3.406,8.844 2.891,9.688 2.391,10.477 1.945,11.371 1.547,12.25 1.188,13.16 0.895,14.074 0.621,15.02 0.395,16 0.223,16.965 0.086,17.996 0,19.012 v 112.027 l 0.086,0.981 0.137,1.015 0.172,0.965 0.226,0.98 0.274,0.946 0.293,0.929 0.359,0.93 0.398,0.844 0.446,0.891 0.5,0.843 0.515,0.793 0.551,0.809 0.617,0.758 0.621,0.703 0.653,0.707 0.726,0.672 0.703,0.617 0.758,0.586 0.789,0.566 0.809,0.535 0.844,0.5 0.843,0.43 0.895,0.41 0.93,0.364 0.929,0.292 0.926,0.274 0.984,0.223 0.961,0.171 0.981,0.141 1.031,0.086 z m -0.008,-0.379 H 18.98 l -1.011,-0.09 -0.961,-0.129 -0.953,-0.168 -0.957,-0.222 -0.91,-0.266 -0.915,-0.297 -0.918,-0.351 -0.871,-0.399 L 10.656,147.27 9.828,146.785 9.035,146.266 8.262,145.699 7.52,145.137 6.824,144.52 6.121,143.867 5.469,143.172 4.859,142.477 4.254,141.738 3.727,140.953 3.203,140.168 2.73,139.34 2.289,138.469 1.902,137.641 1.551,136.727 1.25,135.809 0.984,134.895 0.766,133.934 0.598,132.973 0.457,131.977 0.379,131.016 V 19.031 L 0.457,18.035 0.598,17.031 0.766,16.07 0.984,15.109 1.25,14.195 1.551,13.285 1.902,12.406 2.289,11.535 2.73,10.66 3.203,9.887 3.727,9.051 4.254,8.32 4.859,7.57 5.469,6.832 6.121,6.176 6.824,5.527 7.52,4.875 8.262,4.301 9.035,3.738 9.828,3.254 10.656,2.777 11.484,2.348 12.355,1.949 13.273,1.598 14.188,1.254 15.098,1 16.055,0.777 17.008,0.602 17.969,0.469 18.98,0.426 19.977,0.383 h 657.589 l 2.008,0.086 0.949,0.133 0.961,0.175 0.961,0.223 0.961,0.254 0.871,0.344 0.914,0.351 0.864,0.399 0.84,0.429 0.816,0.477 0.793,0.484 0.785,0.563 0.742,0.574 0.731,0.652 0.66,0.649 0.648,0.656 0.61,0.738 0.609,0.75 0.527,0.731 0.52,0.836 0.484,0.773 0.434,0.875 0.387,0.871 0.351,0.879 0.301,0.91 0.262,0.914 0.218,0.961 0.18,0.961 0.133,1.004 0.078,0.996 v 111.985 l -0.078,0.961 -0.133,0.996 -0.18,0.961 -0.218,0.961 -0.262,0.914 -0.301,0.918 -0.351,0.914 -0.387,0.828 -0.434,0.871 -0.484,0.828 -0.52,0.785 -0.527,0.785 -0.609,0.739 -0.61,0.695 -0.648,0.695 -0.66,0.653 -0.731,0.617 -0.742,0.562 -0.785,0.567 -0.793,0.519 -0.816,0.485 -0.84,0.429 -0.864,0.399 -0.914,0.351 -0.871,0.297 -0.961,0.266 -0.961,0.222 -0.961,0.168 -0.949,0.129 z" /></g></g></g></g><path
         id="path19053"
         style="fill:#633a34;fill-opacity:1;fill-rule:evenodd;stroke:none"
         d="M 677.566,139.82 H 19.492 l -0.512,-0.047 -0.484,-0.085 -0.476,-0.09 -0.961,-0.211 -0.871,-0.352 -0.872,-0.398 -0.828,-0.52 -0.738,-0.562 -0.699,-0.606 -0.649,-0.707 -0.574,-0.785 -0.476,-0.781 -0.395,-0.871 -0.352,-0.918 -0.257,-0.907 -0.086,-0.484 -0.047,-0.519 -0.043,-0.485 V 19.508 l 0.043,-0.477 0.047,-0.476 0.086,-0.52 0.257,-0.914 0.352,-0.918 0.395,-0.828 0.476,-0.836 0.574,-0.73 0.649,-0.696 0.699,-0.66 0.738,-0.566 0.828,-0.485 0.872,-0.429 0.871,-0.309 0.961,-0.258 0.476,-0.086 0.484,-0.043 0.512,-0.047 0.485,-0.042 h 657.589 l 0.473,0.042 0.531,0.047 0.473,0.043 0.488,0.086 0.949,0.258 0.872,0.309 0.875,0.429 0.824,0.485 0.742,0.566 0.703,0.66 0.645,0.696 0.57,0.73 0.477,0.836 0.398,0.828 0.344,0.918 0.261,0.914 0.09,0.52 0.086,0.953 v 110.984 l -0.043,0.485 -0.043,0.519 -0.09,0.484 -0.261,0.907 -0.344,0.918 -0.398,0.871 -0.477,0.781 -0.57,0.785 -0.645,0.707 -0.703,0.606 -0.742,0.562 -0.824,0.52 -0.875,0.398 -0.872,0.352 -0.949,0.211 -0.488,0.09 -0.473,0.085 -0.531,0.047 z" /><path
         id="path19055"
         style="fill:#ffffff;fill-opacity:1;fill-rule:evenodd;stroke:none"
         d="m 610.832,33.762 41.203,41.265 -41.203,41.223 h -19.82 L 623.98,83.262 H 569.582 V 66.746 H 623.98 L 591.012,33.762 Z" /><path
         id="path19057"
         style="fill:#ffffff;fill-opacity:1;fill-rule:evenodd;stroke:none"
         d="m 160.98,107.398 h 64.777 V 42.605 H 160.98 Z" /><path
         id="path19059"
         style="fill:#633a34;fill-opacity:1;fill-rule:evenodd;stroke:none"
         d="m 197.703,49.754 h -8.668 v 7.973 l 0.043,0.441 0.043,0.43 0.133,0.343 0.133,0.395 0.168,0.301 0.218,0.308 0.266,0.266 0.254,0.262 0.309,0.222 0.351,0.168 0.344,0.176 0.398,0.129 0.387,0.082 0.395,0.098 0.433,0.043 h 0.914 l 0.434,-0.043 0.394,-0.098 0.391,-0.082 0.395,-0.129 0.351,-0.176 0.344,-0.168 0.308,-0.222 0.258,-0.262 0.262,-0.266 0.223,-0.308 0.175,-0.301 0.121,-0.395 0.133,-0.343 0.043,-0.43 0.047,-0.441 z m -17.512,52.242 h -3.003 v -3.445 h -1.313 v 3.445 h -3.004 v -3.445 h -1.305 v 3.445 H 168.52 V 48.012 h 49.695 v 47.535 h -3.477 v -3.488 h -1.703 v 3.488 h -3.488 V 80.426 h -5.176 v 6.015 l -3.445,3.489 -3.446,-3.489 v -6.015 h -5.179 v 6.015 l -3.488,3.489 -3.434,-3.489 v -6.015 h -5.188 z" /><path
         id="path19061"
         style="fill:#ffffff;fill-opacity:1;fill-rule:evenodd;stroke:none"
         d="m 255.203,95.637 h 26.488 V 89.75 H 261.477 V 77.594 h 17.289 V 72.063 H 261.477 V 54.367 h -6.274 z m 43.082,-17.301 -0.652,-0.043 -0.61,-0.09 -0.613,-0.168 -0.566,-0.219 -0.563,-0.265 -0.527,-0.309 -0.477,-0.344 -0.441,-0.394 -0.387,-0.477 -0.351,-0.476 -0.344,-0.485 -0.266,-0.562 -0.175,-0.563 -0.168,-0.617 -0.086,-0.609 -0.047,-0.652 h 12.5 v 0.652 l -0.133,0.609 -0.133,0.617 -0.211,0.563 -0.262,0.562 -0.308,0.485 -0.344,0.476 -0.433,0.477 -0.438,0.394 -0.484,0.344 -0.52,0.309 -0.519,0.265 -0.61,0.219 -0.574,0.168 -0.648,0.09 z m -2.351,-17.953 0.386,-0.176 0.352,-0.086 0.387,-0.125 0.398,-0.098 0.387,-0.043 0.398,-0.035 0.387,-0.043 h 0.828 l 0.441,0.043 0.43,0.035 0.442,0.09 0.871,0.262 0.828,0.309 0.785,0.433 0.695,0.485 0.352,0.254 0.344,0.308 0.308,0.309 0.301,0.343 4.492,-3.832 -0.531,-0.574 -0.563,-0.562 -0.574,-0.477 -0.562,-0.484 -0.653,-0.43 -0.605,-0.441 -0.653,-0.344 -0.695,-0.352 -0.707,-0.265 -0.687,-0.254 -0.746,-0.266 -0.743,-0.176 -0.738,-0.132 -0.742,-0.079 -0.781,-0.089 h -1.438 l -0.652,0.047 -0.696,0.078 -0.66,0.14 -0.652,0.125 -0.652,0.176 -0.606,0.219 -0.652,0.211 -0.828,0.398 -0.828,0.438 -0.739,0.476 -0.75,0.52 -0.652,0.617 -0.652,0.609 -0.563,0.696 -0.527,0.738 -0.477,0.742 -0.433,0.781 -0.352,0.828 -0.301,0.829 -0.218,0.875 -0.176,0.914 -0.09,0.918 -0.043,0.914 v 6.492 l 0.043,0.652 0.09,0.571 0.133,0.609 0.121,0.609 0.14,0.571 0.215,0.562 0.219,0.567 0.219,0.519 0.257,0.527 0.309,0.52 0.309,0.476 0.339,0.485 0.399,0.441 0.344,0.473 0.441,0.391 0.387,0.394 0.441,0.387 0.473,0.398 0.476,0.297 0.485,0.309 0.519,0.308 0.52,0.266 0.531,0.254 0.563,0.222 0.562,0.176 0.574,0.176 0.606,0.121 0.566,0.133 0.613,0.047 0.61,0.086 h 1.262 l 0.605,-0.086 0.617,-0.047 0.61,-0.133 0.562,-0.121 0.617,-0.176 0.563,-0.176 0.519,-0.222 0.563,-0.254 0.531,-0.266 0.473,-0.308 0.531,-0.309 0.473,-0.297 0.433,-0.398 0.442,-0.387 0.429,-0.394 0.399,-0.391 0.386,-0.473 0.352,-0.441 0.344,-0.485 0.308,-0.476 0.309,-0.52 0.254,-0.527 0.265,-0.519 0.211,-0.567 0.176,-0.562 0.176,-0.571 0.133,-0.609 0.09,-0.609 0.086,-0.571 0.043,-0.652 0.046,-0.609 v -5.145 h -18.429 v -1.215 l 0.09,-0.484 0.089,-0.43 0.122,-0.484 0.132,-0.434 0.176,-0.394 0.219,-0.434 0.258,-0.395 0.261,-0.343 0.309,-0.352 0.301,-0.344 0.351,-0.308 0.387,-0.266 0.398,-0.262 0.387,-0.214 z m 29.226,-6.016 -0.695,0.047 -0.652,0.129 -0.653,0.133 -0.609,0.211 -0.571,0.308 -0.519,0.309 -0.52,0.387 -0.484,0.441 -0.434,0.477 -0.394,0.484 -0.309,0.562 -0.3,0.563 -0.219,0.609 -0.133,0.661 -0.125,0.652 v 35.297 h 5.875 V 61.73 l 0.047,-0.343 0.086,-0.352 0.176,-0.297 0.211,-0.265 0.265,-0.266 0.309,-0.133 0.343,-0.129 0.395,-0.047 h 2.574 v -5.531 z m 18.559,18.086 h -0.266 l -0.301,0.086 -0.261,0.09 -0.258,0.086 -0.219,0.133 -0.219,0.168 -0.222,0.14 -0.219,0.211 -0.168,0.219 -0.133,0.223 -0.176,0.218 -0.086,0.258 -0.089,0.262 -0.079,0.266 -0.054,0.253 v 0.309 l 0.054,0.52 0.122,0.484 0.175,0.434 0.266,0.394 0.344,0.344 0.394,0.308 0.434,0.211 0.484,0.176 0.344,0.09 0.352,0.043 0.343,0.09 0.399,0.043 0.34,0.043 h 0.355 l 0.387,0.047 h 0.351 l 1.047,-0.047 1.043,-0.133 1.004,-0.219 1.004,-0.301 1.004,-0.394 0.906,-0.477 0.871,-0.527 0.871,-0.609 3.664,4.574 -0.613,0.484 -0.652,0.438 -0.61,0.433 -0.695,0.387 -0.652,0.352 -0.696,0.308 -0.738,0.301 -0.707,0.262 -0.738,0.265 -0.742,0.211 -0.739,0.176 -0.738,0.133 -0.785,0.133 -0.742,0.043 -0.782,0.089 h -1.304 l -0.528,-0.043 -0.566,-0.046 -0.52,-0.043 -0.527,-0.09 -0.562,-0.086 -0.52,-0.09 -0.531,-0.133 -0.738,-0.164 -0.696,-0.309 -0.652,-0.308 -0.652,-0.387 -0.563,-0.398 -0.574,-0.477 -0.52,-0.519 -0.484,-0.528 -0.387,-0.609 -0.386,-0.606 -0.352,-0.652 -0.266,-0.703 -0.218,-0.699 -0.125,-0.696 -0.09,-0.738 -0.043,-0.785 0.043,-0.871 0.125,-0.828 0.176,-0.828 0.265,-0.785 0.352,-0.739 0.429,-0.703 0.477,-0.699 0.531,-0.606 0.563,-0.562 0.652,-0.531 0.652,-0.43 0.739,-0.398 0.785,-0.297 0.781,-0.266 0.828,-0.176 0.875,-0.078 6.278,-0.398 0.257,-0.043 0.262,-0.043 0.309,-0.09 0.211,-0.133 0.265,-0.133 0.219,-0.129 0.215,-0.168 0.219,-0.175 0.308,-0.442 0.254,-0.476 0.09,-0.254 0.086,-0.309 0.047,-0.265 v -0.301 l -0.047,-0.438 -0.086,-0.433 -0.168,-0.442 -0.219,-0.343 -0.265,-0.352 -0.344,-0.309 -0.399,-0.261 -0.386,-0.168 -0.528,-0.176 -0.519,-0.176 -0.563,-0.125 -0.531,-0.141 -0.562,-0.078 -0.52,-0.047 -0.574,-0.042 h -1.168 l -0.61,0.042 -0.617,0.09 -0.562,0.078 -0.61,0.133 -0.562,0.176 -0.574,0.176 -0.563,0.211 -0.562,0.265 -0.532,0.266 -0.519,0.309 -0.527,0.296 -0.477,0.356 -0.473,0.394 -0.488,0.387 -0.43,0.434 -4.14,-4.176 0.652,-0.66 0.652,-0.567 0.696,-0.562 0.75,-0.484 0.781,-0.485 0.742,-0.429 0.828,-0.391 0.782,-0.395 0.828,-0.3 0.875,-0.262 0.816,-0.266 0.883,-0.168 0.906,-0.176 0.871,-0.089 0.875,-0.086 h 1.742 l 0.829,0.043 0.828,0.09 0.785,0.121 0.781,0.175 0.828,0.223 0.785,0.219 0.786,0.258 0.605,0.261 0.609,0.352 0.571,0.344 0.519,0.398 0.531,0.387 0.465,0.484 0.442,0.52 0.398,0.527 0.352,0.566 0.297,0.563 0.3,0.609 0.219,0.614 0.18,0.652 0.129,0.652 0.09,0.696 v 0.66 l -0.043,0.875 -0.133,0.816 -0.176,0.828 -0.301,0.785 -0.351,0.75 -0.387,0.739 -0.484,0.652 -0.532,0.609 -0.562,0.563 -0.653,0.519 -0.695,0.442 -0.695,0.394 -0.785,0.352 -0.785,0.211 -0.829,0.18 -0.871,0.129 z m 33.32,5.883 -0.652,-0.043 -0.606,-0.09 -0.609,-0.168 -0.574,-0.219 -0.52,-0.265 -0.519,-0.309 -0.473,-0.344 -0.441,-0.394 -0.442,-0.477 -0.344,-0.476 -0.308,-0.485 -0.254,-0.562 -0.219,-0.563 -0.18,-0.617 -0.085,-0.609 -0.043,-0.652 h 12.543 l -0.036,0.652 -0.097,0.609 -0.168,0.617 -0.219,0.563 -0.258,0.562 -0.308,0.485 -0.352,0.476 -0.387,0.477 -0.484,0.394 -0.477,0.344 -0.476,0.309 -0.571,0.265 -0.566,0.219 -0.605,0.168 -0.618,0.09 z m -2.309,-17.953 0.356,-0.176 0.387,-0.086 0.343,-0.125 0.395,-0.098 0.398,-0.043 0.395,-0.035 0.387,-0.043 h 0.828 l 0.433,0.043 0.485,0.035 0.429,0.09 0.829,0.262 0.828,0.309 0.785,0.433 0.738,0.485 0.352,0.254 0.308,0.308 0.344,0.309 0.301,0.343 4.449,-3.832 -0.531,-0.574 -0.52,-0.562 -0.562,-0.477 -0.606,-0.484 -0.617,-0.43 -0.644,-0.441 -0.661,-0.344 -0.695,-0.352 -0.695,-0.265 -0.696,-0.254 -0.699,-0.266 -0.746,-0.176 -0.777,-0.132 -0.746,-0.079 -0.742,-0.089 h -1.481 l -0.648,0.047 -0.653,0.078 -0.66,0.14 -0.644,0.125 -0.661,0.176 -0.652,0.219 -0.609,0.211 -0.871,0.398 -0.786,0.438 -0.781,0.476 -0.742,0.52 -0.66,0.617 -0.598,0.609 -0.617,0.696 -0.52,0.738 -0.476,0.742 -0.395,0.781 -0.343,0.828 -0.309,0.829 -0.266,0.875 -0.175,0.914 -0.086,0.918 -0.035,0.914 v 5.883 l 0.035,0.609 0.043,0.652 0.043,0.571 0.265,1.218 0.176,0.571 0.176,0.562 0.211,0.567 0.265,0.519 0.254,0.527 0.309,0.52 0.308,0.476 0.344,0.485 0.352,0.441 0.398,0.473 0.387,0.391 0.43,0.394 0.441,0.387 0.434,0.398 0.484,0.297 0.473,0.309 0.531,0.308 0.519,0.266 0.563,0.254 0.527,0.222 0.567,0.176 0.562,0.176 0.606,0.121 0.617,0.133 0.601,0.047 0.618,0.086 h 1.214 l 0.661,-0.086 0.562,-0.047 0.609,-0.133 0.606,-0.121 0.566,-0.176 0.571,-0.176 0.574,-0.222 0.519,-0.254 0.52,-0.266 0.519,-0.308 0.485,-0.309 0.476,-0.297 0.43,-0.398 0.484,-0.387 0.387,-0.394 0.399,-0.391 0.386,-0.473 0.399,-0.441 0.304,-0.485 0.344,-0.476 0.266,-0.52 0.254,-0.527 0.265,-0.519 0.219,-0.567 0.18,-0.562 0.176,-0.571 0.129,-0.609 0.125,-0.609 0.089,-0.571 0.043,-0.652 V 66.918 H 370.77 V 66.18 l 0.043,-0.477 0.042,-0.484 0.09,-0.43 0.133,-0.484 0.121,-0.434 0.219,-0.394 0.223,-0.434 0.218,-0.395 0.258,-0.343 0.309,-0.352 0.351,-0.344 0.344,-0.308 0.352,-0.266 0.386,-0.262 0.442,-0.214 z m 28.454,23.449 V 80.52 l 0.343,0.433 0.395,0.395 0.433,0.386 0.395,0.352 0.434,0.344 0.472,0.308 0.485,0.266 0.476,0.254 0.528,0.222 0.476,0.176 0.574,0.176 0.52,0.121 0.519,0.133 0.571,0.047 0.566,0.086 h 1.039 l 0.528,-0.043 0.476,-0.09 0.477,-0.086 0.957,-0.211 0.918,-0.355 0.871,-0.43 0.828,-0.484 0.785,-0.563 0.695,-0.652 0.653,-0.696 0.562,-0.793 0.485,-0.82 0.433,-0.828 0.309,-0.926 0.261,-0.949 0.079,-0.531 0.046,-0.473 0.051,-0.531 0.035,-0.473 V 54.367 h -5.918 v 18.649 l -0.089,0.617 -0.176,0.562 -0.176,0.528 -0.254,0.519 -0.308,0.477 -0.309,0.441 -0.387,0.442 -0.441,0.386 -0.43,0.344 -0.476,0.262 -0.528,0.265 -0.566,0.211 -0.571,0.133 -0.566,0.09 -0.605,0.043 -0.61,-0.043 -0.562,-0.09 -0.574,-0.133 -0.52,-0.211 -0.52,-0.265 -0.484,-0.262 -0.476,-0.344 -0.395,-0.386 -0.387,-0.442 -0.355,-0.441 -0.297,-0.477 -0.223,-0.519 -0.218,-0.528 -0.133,-0.562 -0.078,-0.617 -0.043,-0.563 V 54.367 h -5.887 V 83.832 Z M 435.59,72.453 v -7.234 l 0.086,-0.606 0.176,-0.574 0.168,-0.519 0.265,-0.52 0.309,-0.484 0.344,-0.485 0.351,-0.386 0.43,-0.387 0.441,-0.356 0.477,-0.261 0.519,-0.258 0.571,-0.219 0.566,-0.133 0.562,-0.086 0.618,-0.047 0.605,0.047 0.567,0.086 0.562,0.133 0.52,0.219 0.527,0.258 0.484,0.261 0.477,0.356 0.387,0.387 0.398,0.386 0.352,0.485 0.3,0.484 0.438,1.039 0.125,0.574 0.09,0.606 0.043,0.566 v 6.668 l -0.043,0.563 -0.09,0.617 -0.125,0.562 -0.219,0.528 -0.219,0.519 -0.3,0.477 -0.352,0.441 -0.398,0.442 -0.387,0.386 -0.477,0.344 -0.484,0.262 -0.527,0.265 -0.52,0.211 -0.562,0.133 -0.567,0.09 -0.605,0.043 -0.618,-0.043 -0.562,-0.09 -0.566,-0.133 -0.571,-0.211 -0.519,-0.265 -0.477,-0.262 -0.441,-0.344 -0.43,-0.386 -0.351,-0.442 -0.344,-0.441 -0.309,-0.477 -0.265,-0.519 -0.168,-0.528 -0.176,-0.562 -0.086,-0.617 z m 0,8.067 0.34,0.433 0.398,0.395 0.395,0.386 0.433,0.352 0.442,0.344 0.472,0.308 0.477,0.266 0.484,0.254 0.477,0.222 1.039,0.352 0.527,0.121 0.567,0.133 0.519,0.047 0.57,0.086 h 1.094 l 0.477,-0.043 0.519,-0.09 0.485,-0.086 0.949,-0.211 0.918,-0.355 0.871,-0.43 0.828,-0.484 0.738,-0.563 0.696,-0.652 0.664,-0.696 0.562,-0.793 0.52,-0.82 0.394,-0.828 0.344,-0.926 0.266,-0.949 0.09,-0.531 0.043,-0.473 0.042,-0.531 V 63.434 l -0.042,-0.477 -0.043,-0.531 -0.09,-0.473 -0.266,-0.961 -0.344,-0.918 -0.394,-0.871 -0.52,-0.785 -0.562,-0.781 -0.664,-0.696 -0.696,-0.652 -0.738,-0.566 -0.828,-0.485 -0.871,-0.429 -0.434,-0.176 -0.484,-0.176 -0.477,-0.133 -0.472,-0.09 -0.485,-0.078 -0.519,-0.097 -0.477,-0.043 h -1.094 l -0.57,0.043 -0.519,0.097 -0.567,0.125 -0.527,0.133 -0.52,0.176 -0.519,0.164 -0.477,0.223 -0.484,0.261 -0.477,0.266 -0.472,0.301 -0.442,0.351 -0.433,0.344 -0.793,0.793 -0.34,0.43 v -3.356 h -5.93 v 41.27 h 5.93 z m 43.422,-22.797 -0.387,-0.43 -0.344,-0.398 -0.441,-0.395 -0.438,-0.344 -0.433,-0.351 -0.442,-0.301 -0.472,-0.266 -0.477,-0.261 -0.519,-0.223 -0.532,-0.164 -0.519,-0.176 -0.528,-0.133 -0.519,-0.125 -0.563,-0.097 -0.566,-0.043 h -1.047 l -0.527,0.043 -0.477,0.097 -0.519,0.078 -0.485,0.09 -0.476,0.133 -0.438,0.176 -0.433,0.176 -0.871,0.429 -0.829,0.485 -0.785,0.566 -0.695,0.652 -0.652,0.696 -0.571,0.781 -0.476,0.785 -0.434,0.871 -0.176,0.485 -0.175,0.433 -0.133,0.477 -0.086,0.484 -0.09,0.473 -0.086,0.531 -0.035,0.477 v 20.398 h 5.875 V 65.785 l 0.043,-0.566 0.086,-0.606 0.133,-0.574 0.222,-0.519 0.254,-0.52 0.266,-0.484 0.344,-0.485 0.394,-0.386 0.434,-0.387 0.437,-0.356 0.477,-0.261 0.519,-0.258 0.528,-0.219 0.566,-0.133 0.617,-0.086 0.606,-0.047 0.566,0.047 0.613,0.086 0.567,0.133 0.519,0.219 0.528,0.258 0.476,0.261 0.477,0.356 0.387,0.387 0.394,0.386 0.352,0.485 0.265,0.484 0.254,0.52 0.223,0.519 0.121,0.574 0.098,0.606 0.035,0.566 v 18.047 h 5.886 V 54.367 h -5.886 z m 20.613,26.109 V 80.52 l 0.344,0.433 0.394,0.395 0.434,0.386 0.394,0.352 0.434,0.344 0.484,0.308 0.473,0.266 0.477,0.254 0.527,0.222 0.477,0.176 0.531,0.176 0.562,0.121 0.52,0.133 0.57,0.047 0.567,0.086 h 0.519 l 0.871,-0.043 0.828,-0.09 0.828,-0.211 0.829,-0.219 0.785,-0.308 0.738,-0.387 0.695,-0.441 0.696,-0.52 -4.176,-5.145 -0.438,0.309 -0.433,0.301 -0.485,0.262 -0.476,0.222 -0.485,0.176 -0.519,0.078 -0.52,0.09 -0.57,0.043 -0.609,-0.043 -0.563,-0.09 -0.562,-0.133 -0.532,-0.211 -0.519,-0.265 -0.485,-0.262 -0.476,-0.344 -0.395,-0.386 -0.386,-0.442 -0.352,-0.441 -0.301,-0.477 -0.218,-0.519 -0.223,-0.528 -0.133,-0.562 -0.078,-0.617 -0.043,-0.563 V 54.367 h -5.887 v 29.465 z m 22.82,-11.379 0.047,0.563 0.086,0.617 0.125,0.562 0.176,0.528 0.262,0.519 0.308,0.477 0.344,0.441 0.352,0.442 0.441,0.386 0.434,0.344 0.519,0.262 0.484,0.265 0.563,0.211 0.562,0.133 0.567,0.09 0.617,0.043 0.606,-0.043 0.562,-0.09 0.566,-0.133 0.571,-0.211 0.476,-0.265 0.52,-0.262 0.441,-0.344 0.43,-0.386 0.355,-0.442 0.34,-0.441 0.309,-0.477 0.265,-0.519 0.176,-0.528 0.168,-0.562 0.098,-0.617 v -7.797 l -0.098,-0.606 -0.168,-0.574 -0.176,-0.519 -0.265,-0.52 -0.309,-0.484 -0.34,-0.485 -0.355,-0.386 -0.43,-0.387 -0.441,-0.356 -0.52,-0.261 -0.476,-0.258 -0.571,-0.219 -0.566,-0.133 -0.562,-0.086 -0.606,-0.047 -0.617,0.047 -0.567,0.086 -0.562,0.133 -0.563,0.219 -0.484,0.258 -0.519,0.261 -0.434,0.356 -0.441,0.387 -0.352,0.386 -0.344,0.485 -0.308,0.484 -0.262,0.52 -0.176,0.519 -0.125,0.574 -0.086,0.606 -0.047,0.566 z m 5.145,-30.371 h 0.785 l 0.781,0.086 0.785,0.09 0.743,0.176 0.738,0.175 0.738,0.254 0.742,0.309 0.696,0.308 0.738,0.387 0.699,0.485 0.649,0.476 0.617,0.52 0.566,0.566 0.571,0.613 0.476,0.61 0.43,0.695 0.39,0.695 0.352,0.743 0.309,0.746 0.253,0.742 0.219,0.828 0.133,0.781 0.09,0.821 0.043,0.828 v 29.816 h -5.918 V 80.52 l -0.352,0.433 -0.398,0.395 -0.387,0.386 -0.441,0.352 -0.43,0.344 -0.477,0.308 -0.484,0.266 -0.476,0.254 -0.485,0.222 -1.039,0.352 -0.527,0.121 -0.567,0.133 -0.562,0.047 -0.527,0.086 h -1.086 l -0.52,-0.043 -0.484,-0.09 -0.485,-0.086 -0.949,-0.211 -0.918,-0.355 -0.871,-0.43 -0.828,-0.484 -0.738,-0.563 -0.696,-0.652 -0.664,-0.696 -0.562,-0.793 -0.52,-0.82 -0.394,-0.828 -0.176,-0.484 -0.168,-0.442 -0.133,-0.476 -0.125,-0.473 -0.098,-0.531 -0.043,-0.473 -0.035,-0.531 V 63.434 l 0.035,-0.477 0.043,-0.531 0.098,-0.473 0.125,-0.484 0.133,-0.477 0.168,-0.433 0.176,-0.485 0.394,-0.871 0.52,-0.785 0.562,-0.781 0.664,-0.696 0.696,-0.652 0.738,-0.566 0.828,-0.485 0.871,-0.429 0.434,-0.176 0.484,-0.176 0.477,-0.133 0.472,-0.09 0.485,-0.078 0.484,-0.097 0.52,-0.043 h 1.086 l 0.527,0.043 0.562,0.097 0.567,0.125 0.527,0.133 0.52,0.176 0.519,0.164 0.485,0.223 0.476,0.261 0.484,0.266 0.477,0.301 0.43,0.351 0.441,0.344 0.387,0.395 0.398,0.398 0.352,0.43 v -4.137 l -0.043,-0.398 -0.098,-0.387 -0.082,-0.387 -0.129,-0.398 -0.133,-0.387 -0.175,-0.352 -0.211,-0.343 -0.223,-0.352 -0.262,-0.309 -0.257,-0.308 -0.262,-0.301 -0.356,-0.266 -0.308,-0.21 -0.688,-0.438 -0.437,-0.176 -0.399,-0.168 -0.386,-0.133 -0.442,-0.132 -0.429,-0.09 -0.442,-0.043 -0.43,-0.043 h -0.875 l -0.386,0.043 -0.442,0.043 -0.386,0.09 -0.829,0.211 -0.738,0.351 -0.742,0.391 -0.703,0.484 -0.301,0.262 -0.308,0.258 -0.309,0.308 -0.254,0.352 -4.578,-3.754 0.484,-0.563 0.528,-0.527 0.562,-0.523 0.563,-0.473 0.609,-0.441 0.609,-0.387 0.661,-0.399 0.652,-0.308 0.652,-0.297 0.696,-0.266 0.703,-0.254 0.73,-0.175 0.742,-0.133 0.739,-0.09 0.75,-0.086 z" /></g></g></svg>