<?xml version="1.0" encoding="UTF-8" standalone="no"?>
<svg
   xmlns:dc="http://purl.org/dc/elements/1.1/"
   xmlns:cc="http://creativecommons.org/ns#"
   xmlns:rdf="http://www.w3.org/1999/02/22-rdf-syntax-ns#"
   xmlns:svg="http://www.w3.org/2000/svg"
   xmlns="http://www.w3.org/2000/svg"
   viewBox="0 0 421.02548 630.72314"
   height="630.72314"
   width="421.02548"
   xml:space="preserve"
   id="svg2780"
   version="1.1"><metadata
     id="metadata2786"><rdf:RDF><cc:Work
         rdf:about=""><dc:format>image/svg+xml</dc:format><dc:type
           rdf:resource="http://purl.org/dc/dcmitype/StillImage" /><dc:title></dc:title></cc:Work></rdf:RDF></metadata><defs
     id="defs2784" /><g
     transform="matrix(1.3333333,0,0,1.3333333,0,1.1768079e-5)"
     id="g2788"><g
       id="g2790"><path
         id="path2792"
         style="fill:#ffffff;fill-opacity:1;fill-rule:evenodd;stroke:none"
         d="M 21.594,472.668 H 294.59 c 20.906,0 20.805,-17.051 20.805,-17.051 V 17.203 c 0,0 0.136,-16.824 -17.977,-16.824 H 18.945 c 0,0 -18.531,-0.309 -18.57,18.508 v 435.047 c 0,18.777 21.219,18.734 21.219,18.734 z" /><path
         id="path2794"
         style="fill:#154889;fill-opacity:1;fill-rule:evenodd;stroke:none"
         d="m 18.422,464.32 h 279.019 c 0,0 10.153,-0.027 10.153,-10.269 V 18.184 c 0,0 -0.008,-10.063 -11.235,-10.063 H 19.504 c 0,0 -11.152,0 -11.152,10.059 v 436.511 c 0.039,9.731 10.07,9.629 10.07,9.629 z" /><path
         id="path2796"
         style="fill:#000000;fill-opacity:1;fill-rule:evenodd;stroke:none"
         d="M 18.945,0 C 18.938,0 14.234,-0.082 9.512,2.238 4.781,4.559 0.02,9.352 0,18.883 v 435.051 c 0,9.527 5.441,14.379 10.832,16.754 5.391,2.371 10.762,2.355 10.762,2.355 H 294.59 c 10.555,0 15.918,-4.348 18.562,-8.707 2.645,-4.356 2.618,-8.715 2.618,-8.715 V 17.203 c 0,-0.004 0.035,-4.289 -2.243,-8.59 C 311.25,4.313 306.59,0 297.418,0 Z m 0,0.379 h 278.473 c 18.113,0 17.977,16.824 17.977,16.824 v 438.418 c 0,0 0.101,17.047 -20.805,17.047 H 21.594 c 0,0 -21.219,0.043 -21.219,-18.73 V 18.887 C 0.414,0.07 18.945,0.379 18.945,0.379 Z" /><path
         id="path2798"
         style="fill:#ffffff;fill-opacity:1;fill-rule:nonzero;stroke:none"
         d="m 51.313,50.617 h 213.32 V 263.933 H 51.313 Z" /><path
         id="path2800"
         style="fill:#0c0b09;fill-opacity:1;fill-rule:evenodd;stroke:none"
         d="M 62.086,229.875 V 160.836 L 76.875,125.77 104.27,99.465 139.891,84.668 h 36.695 l 35.078,14.797 27.391,26.305 14.8,35.066 v 69.039 z m 15.883,-2.742 H 64.82 V 199.73 H 77.969 Z M 64.82,196.996 v -34.195 l 14.137,5.215 c -0.019,0.129 -0.035,0.25 -0.062,0.375 -0.129,0.871 -0.254,1.75 -0.356,2.621 -0.098,0.836 -0.187,1.672 -0.254,2.508 -0.086,0.828 -0.144,1.668 -0.191,2.511 -0.031,0.664 -0.071,1.332 -0.082,2.008 -0.028,0.711 -0.043,1.434 -0.043,2.145 v 16.812 z m 0.551,-36.883 13.285,-31.484 11.477,9.516 c -0.149,0.25 -0.309,0.5 -0.457,0.757 -1.078,1.75 -2.09,3.547 -3.016,5.387 -0.894,1.738 -1.715,3.512 -2.461,5.32 -0.761,1.805 -1.449,3.629 -2.07,5.493 -0.508,1.484 -0.949,2.972 -1.367,4.488 -0.442,1.609 -0.828,3.226 -1.153,4.859 -0.066,0.285 -0.117,0.582 -0.179,0.867 z m 14.824,-33.75 24.602,-23.597 7.301,12.257 c -0.239,0.153 -0.481,0.329 -0.723,0.497 -1.668,1.199 -3.305,2.457 -4.871,3.789 -1.508,1.257 -2.957,2.566 -4.344,3.937 -1.414,1.363 -2.762,2.777 -4.055,4.246 -1.046,1.168 -2.035,2.371 -3.007,3.606 -1.035,1.304 -2.032,2.644 -2.969,4.015 -0.16,0.242 -0.332,0.492 -0.508,0.731 z m 26.899,-25.105 32.019,-13.297 2.242,14.352 c -0.285,0.058 -0.57,0.113 -0.859,0.179 -2.012,0.449 -4,0.969 -5.965,1.582 -1.875,0.567 -3.726,1.211 -5.543,1.926 -1.824,0.695 -3.621,1.473 -5.386,2.324 -1.418,0.664 -2.809,1.379 -4.188,2.133 -1.457,0.801 -2.891,1.648 -4.301,2.547 -0.246,0.152 -0.496,0.32 -0.746,0.476 z M 141.797,87.41 h 32.34 l -2.25,14.371 c -0.145,-0.027 -0.278,-0.043 -0.418,-0.066 -0.973,-0.176 -1.93,-0.313 -2.91,-0.449 -0.918,-0.121 -1.848,-0.231 -2.774,-0.325 -0.926,-0.078 -1.859,-0.164 -2.785,-0.222 -0.742,-0.039 -1.5,-0.082 -2.227,-0.106 -0.804,-0.027 -1.601,-0.043 -2.39,-0.05 h -0.836 c -0.281,0.011 -0.559,0.011 -0.836,0.011 -0.707,0.012 -1.41,0.031 -2.106,0.055 -0.925,0.043 -1.863,0.098 -2.792,0.176 -0.926,0.062 -1.852,0.148 -2.782,0.254 -0.742,0.086 -1.484,0.171 -2.222,0.281 -0.789,0.109 -1.567,0.234 -2.344,0.375 -0.141,0.023 -0.285,0.039 -0.418,0.066 z M 251.113,227.133 H 237.965 V 199.73 h 13.148 z m 0,-30.137 h -13.148 v -16.812 c 0,-0.887 -0.027,-1.766 -0.059,-2.645 -0.035,-0.844 -0.074,-1.68 -0.14,-2.508 -0.059,-0.847 -0.125,-1.683 -0.215,-2.511 -0.059,-0.672 -0.141,-1.336 -0.223,-2.008 -0.094,-0.715 -0.183,-1.414 -0.301,-2.121 -0.015,-0.125 -0.035,-0.246 -0.058,-0.375 l 14.144,-5.215 z m -13.832,-68.367 13.278,31.484 -14.063,5.203 c -0.055,-0.285 -0.113,-0.582 -0.172,-0.867 -0.414,-2.008 -0.906,-4.011 -1.484,-5.98 -0.527,-1.891 -1.145,-3.746 -1.824,-5.586 -0.661,-1.836 -1.407,-3.649 -2.227,-5.422 -0.648,-1.434 -1.336,-2.832 -2.062,-4.219 -0.782,-1.476 -1.602,-2.933 -2.469,-4.34 -0.16,-0.257 -0.309,-0.507 -0.465,-0.757 z m -26.144,-25.863 24.59,23.597 -11.426,9.481 c -0.164,-0.239 -0.332,-0.489 -0.496,-0.731 -1.172,-1.687 -2.395,-3.336 -3.7,-4.937 -1.23,-1.535 -2.523,-2.996 -3.859,-4.414 -1.344,-1.438 -2.734,-2.809 -4.176,-4.129 -1.152,-1.059 -2.336,-2.074 -3.554,-3.074 -1.293,-1.059 -2.602,-2.071 -3.961,-3.039 -0.239,-0.168 -0.489,-0.344 -0.731,-0.497 z m -34.317,-14.805 32.02,13.297 -7.285,12.222 c -0.25,-0.156 -0.489,-0.316 -0.746,-0.476 -1.731,-1.109 -3.512,-2.145 -5.329,-3.106 -1.734,-0.918 -3.5,-1.769 -5.285,-2.558 -1.789,-0.785 -3.605,-1.516 -5.441,-2.16 -1.484,-0.532 -2.969,-1.004 -4.477,-1.442 -1.597,-0.465 -3.226,-0.886 -4.839,-1.246 -0.29,-0.066 -0.583,-0.121 -0.86,-0.179 l 2.242,-14.352" /><path
         id="path2802"
         style="fill:#ffffff;fill-opacity:1;fill-rule:nonzero;stroke:none"
         d="m 47.719,339.707 -20.625,20.617 v 14.453 l 15.301,-15.281 v 70.418 h 10.66 v -70.418 l 15.289,15.281 v -14.453 z" /><path
         id="path2804"
         style="fill:#ffffff;fill-opacity:1;fill-rule:nonzero;stroke:none"
         d="m 268.223,339.707 -20.625,20.617 v 14.453 l 15.293,-15.281 v 70.418 h 10.66 v -70.418 l 15.297,15.281 v -14.453 z" /><path
         id="path2806"
         style="fill:#ffffff;fill-opacity:1;fill-rule:nonzero;stroke:none"
         d="m 114.27,387.641 c 1.484,0 2.972,0.418 4.457,1.25 1.546,0.832 2.675,1.812 3.386,2.941 0.774,1.07 1.278,2.231 1.516,3.477 0.297,1.187 0.445,2.468 0.445,3.832 v 13.375 c 0,1.308 -0.058,2.406 -0.176,3.297 -0.058,0.894 -0.386,2.14 -0.98,3.746 -0.594,1.605 -2.051,3.148 -4.371,4.636 -2.258,1.485 -4.695,2.227 -7.309,2.227 -2.019,0 -3.953,-0.473 -5.797,-1.426 -1.781,-1.008 -3.179,-2.226 -4.187,-3.656 -1.012,-1.426 -1.695,-2.852 -2.051,-4.277 -0.359,-1.485 -0.535,-3 -0.535,-4.547 V 411 h 8.648 v 1.516 c 0,0.593 0,1.187 0,1.781 0.059,0.598 0.387,1.34 0.981,2.23 0.594,0.891 1.633,1.336 3.117,1.336 1.606,0 2.676,-0.414 3.211,-1.246 0.535,-0.89 0.832,-1.574 0.891,-2.051 0.062,-0.535 0.089,-1.101 0.089,-1.695 v -12.57 c 0,-0.535 -0.027,-1.098 -0.089,-1.692 0,-0.597 -0.325,-1.339 -0.981,-2.23 -0.594,-0.891 -1.605,-1.336 -3.031,-1.336 -2.078,0 -3.477,1.039 -4.188,3.117 h -7.578 v -31.738 h 24.336 v 7.937 h -16.758 v 15.957 c 2.079,-1.781 4.399,-2.675 6.954,-2.675 z" /><path
         id="path2808"
         style="fill:#ffffff;fill-opacity:1;fill-rule:nonzero;stroke:none"
         d="m 140.797,425.887 v -59.465 h 8.558 v 35.394 l 10.7,-18.363 h 8.468 l -10.074,16.848 12.125,25.586 h -9.539 l -7.398,-18.098 -4.282,6.332 v 11.766 z" /><path
         id="path2810"
         style="fill:#ffffff;fill-opacity:1;fill-rule:nonzero;stroke:none"
         d="m 198.914,387.285 c 1.129,-1.426 2.375,-2.496 3.742,-3.211 1.367,-0.769 2.914,-1.156 4.637,-1.156 2.914,0 5.289,1.039 7.133,3.117 1.902,2.024 2.851,4.488 2.851,7.403 v 32.449 h -8.558 v -30.043 c 0,-1.367 -0.356,-2.465 -1.071,-3.297 -0.652,-0.895 -1.691,-1.34 -3.121,-1.34 -1.187,0 -2.199,0.477 -3.031,1.426 -0.769,0.894 -1.156,1.961 -1.156,3.211 v 30.043 h -8.559 v -30.043 c 0,-1.309 -0.386,-2.406 -1.16,-3.297 -0.773,-0.895 -1.812,-1.34 -3.121,-1.34 -1.187,0 -2.199,0.477 -3.031,1.426 -0.774,0.894 -1.156,1.961 -1.156,3.211 v 30.043 h -8.559 v -42.434 h 8.559 v 3.832 c 1.96,-2.914 4.632,-4.367 8.023,-4.367 1.602,0 3.031,0.387 4.277,1.156 1.309,0.715 2.407,1.785 3.301,3.211 z" /></g></g></svg>