<?xml version="1.0" encoding="UTF-8" standalone="no"?>
<svg
   xmlns:dc="http://purl.org/dc/elements/1.1/"
   xmlns:cc="http://creativecommons.org/ns#"
   xmlns:rdf="http://www.w3.org/1999/02/22-rdf-syntax-ns#"
   xmlns:svg="http://www.w3.org/2000/svg"
   xmlns="http://www.w3.org/2000/svg"
   viewBox="0 0 900.90338 600.5954"
   height="600.5954"
   width="900.90338"
   xml:space="preserve"
   version="1.1"
   id="svg11871"><metadata
     id="metadata11877"><rdf:RDF><cc:Work
         rdf:about=""><dc:format>image/svg+xml</dc:format><dc:type
           rdf:resource="http://purl.org/dc/dcmitype/StillImage" /><dc:title></dc:title></cc:Work></rdf:RDF></metadata><defs
     id="defs11875"><clipPath
       id="clipPath11887"
       clipPathUnits="userSpaceOnUse"><path
         id="path11889"
         d="M 0,0 721,0 721,481 0,481 0,0 Z" /></clipPath></defs><g
     transform="matrix(1.25,0,0,-1.25,0,600.5954)"
     id="g11879"><g
       id="g11881"><g
         transform="translate(0,-0.523682)"
         id="g11883"><g
           id="g11885" /><g
           id="g11891"><g
             id="g11893"
             clip-path="url(#clipPath11887)"><g
               id="g11895"><path
                 id="path11897"
                 style="fill:#ffffff;fill-opacity:1;fill-rule:nonzero;stroke:none"
                 d="M 32.027,480.637 C 14.57,480.637 0.363,466.43 0.363,448.973 l 0,-416.575 C 0.363,14.941 14.57,0.637 32.027,0.637 l 656.668,0 c 17.457,0 31.668,14.304 31.668,31.761 l 0,416.575 c 0,17.457 -14.211,31.664 -31.668,31.664 l -656.668,0 z" /><path
                 id="path11899"
                 style="fill:#000000;fill-opacity:1;fill-rule:nonzero;stroke:none"
                 d="m 32.027,481.051 c -17.675,0 -32.082,-14.406 -32.082,-32.082 l 0,-416.555 c 0,-17.676 14.403,-32.176 32.082,-32.176 l 656.672,0 c 17.68,0 32.051,14.5 32.051,32.176 l 0,416.555 c 0,17.676 -14.375,32.082 -32.051,32.082 l -656.672,0 z m 0,-0.414 656.668,0 c 17.457,0 31.664,-14.207 31.664,-31.664 l 0,-416.571 c 0,-17.461 -14.207,-31.765 -31.664,-31.765 l -656.668,0 C 14.57,0.637 0.359,14.941 0.359,32.402 l 0,416.571 c 0,17.457 14.211,31.664 31.668,31.664 z" /></g></g></g></g></g><g
       id="g11901"><path
         id="path11903"
         style="fill:#633a34;fill-opacity:1;fill-rule:nonzero;stroke:none"
         d="M 51.723,114.039 63.727,93.226 c 30.816,17.789 68.363,19.434 100.605,4.387 l 18.738,-9.738 c 35.645,-16.625 76.821,-16.625 112.477,0 l 18.726,9.738 c 29.219,13.617 62.957,13.617 92.176,0 l 18.742,-9.738 c 35.641,-16.625 76.817,-16.625 112.461,0 l 18.739,9.738 c 32.242,15.047 69.789,13.402 100.605,-4.387 L 669,114.039 c -37.578,21.695 -83.406,23.699 -122.758,5.351 L 527.5,109.636 c -29.203,-13.617 -62.957,-13.617 -92.16,0 l -18.738,9.754 c -35.661,16.625 -76.821,16.625 -112.481,0 l -18.723,-9.754 c -29.218,-13.617 -62.957,-13.617 -92.175,0 l -18.743,9.754 c -39.335,18.348 -85.164,16.344 -122.757,-5.351 z m 452.668,142.207 12.007,0 0,36.789 c 0,6.637 5.387,12.008 12.024,12.008 2.937,0 5.781,-1.086 7.98,-3.039 l 8.524,10.527 c -8.688,7.047 -21.449,5.719 -28.496,-2.973 l -0.028,-0.023 0,6.781 -12.004,0 0,-60.066 -0.007,-0.004 z m -30.024,26.277 0,-7.504 c 0,-4.14 -3.367,-7.508 -7.508,-7.508 l -9.754,0 c -4.156,0 -7.523,3.368 -7.523,7.508 0,4.137 3.367,7.504 7.523,7.504 l 17.262,0 z m 12.004,-26.277 0,42.047 c 0,9.113 -6.551,16.918 -15.535,18.492 -5.602,0.988 -11.352,0.988 -16.969,0 -5.023,-0.887 -9.476,-3.762 -12.316,-7.981 l 9.492,-7.507 c 0.953,1.922 2.777,3.285 4.895,3.648 4.238,0.754 8.589,0.754 12.828,0 3.234,-0.559 5.601,-3.367 5.601,-6.652 l 0,-6.012 -18.019,0 c -9.953,0 -18.02,-8.066 -18.02,-18.02 0,-9.953 8.067,-18.015 18.02,-18.015 l 7.507,0 c 4.368,0 8.391,2.379 10.512,6.191 l 0,-6.191 12.004,0 z m -108.105,0 12.023,0 0,17.277 9.754,10.512 15.77,-27.789 15.011,0 -23.273,36.789 20.265,23.273 -14.269,0 -23.258,-28.527 0,52.559 -12.023,0 0,-84.094 z m -12.008,9.015 -9.246,7.672 c -5.289,-6.375 -14.766,-7.261 -21.141,-1.957 -3.433,2.86 -5.418,7.078 -5.418,11.547 l 0,7.508 c 0,8.293 6.715,15.012 15.012,15.012 4.465,0 8.703,-1.989 11.547,-5.422 l 9.246,7.672 c -9.543,11.496 -26.574,13.074 -38.055,3.531 -6.195,-5.125 -9.773,-12.762 -9.773,-20.793 l 0,-7.508 c 0,-14.929 12.105,-27.019 27.035,-27.019 8.031,0 15.652,3.566 20.793,9.757 z m -98.879,27.02 c 0,7.047 5.719,12.762 12.762,12.762 7.062,0 12.765,-5.715 12.765,-12.762 l -25.527,0 z m 37.547,-10.512 0,10.512 c 0,13.68 -11.102,24.785 -24.785,24.785 -13.68,0 -24.766,-11.105 -24.766,-24.785 l 0,-12.008 c 0,-10.133 6.156,-19.234 15.57,-23.012 11.446,-4.566 24.539,-1.363 32.571,8 l -9.118,7.817 c -4.679,-5.453 -12.316,-7.324 -18.988,-4.664 -4.844,1.957 -8.031,6.637 -8.031,11.859 l 0,1.496 37.547,0 z m -129.129,-25.523 12.762,0 0,60.062 38.285,-60.062 12.008,0 0,84.094 -12.762,0 0,-60.067 -38.289,60.067 -12.004,0 0,-84.094 z M 32.027,11.761 c -11.054,0 -20.019,9.043 -20.019,20.114 l 0,416.574 c 0,11.055 8.965,20.02 20.019,20.02 l 656.668,0 c 11.055,0 20.02,-8.965 20.02,-20.02 l 0,-416.574 c 0,-11.071 -8.965,-20.114 -20.02,-20.114" /></g></g></svg>