<?xml version="1.0" encoding="UTF-8" standalone="no"?>
<svg
   xmlns:dc="http://purl.org/dc/elements/1.1/"
   xmlns:cc="http://creativecommons.org/ns#"
   xmlns:rdf="http://www.w3.org/1999/02/22-rdf-syntax-ns#"
   xmlns:svg="http://www.w3.org/2000/svg"
   xmlns="http://www.w3.org/2000/svg"
   viewBox="0 0 931.02661 201.30669"
   height="201.30669"
   width="931.02661"
   xml:space="preserve"
   id="svg22548"
   version="1.1"><metadata
     id="metadata22554"><rdf:RDF><cc:Work
         rdf:about=""><dc:format>image/svg+xml</dc:format><dc:type
           rdf:resource="http://purl.org/dc/dcmitype/StillImage" /><dc:title></dc:title></cc:Work></rdf:RDF></metadata><defs
     id="defs22552" /><g
     transform="matrix(1.3333333,0,0,-1.3333333,0,201.30668)"
     id="g22556"><g
       id="g22558"><path
         id="path22560"
         style="fill:#ffffff;fill-opacity:1;fill-rule:nonzero;stroke:none"
         d="M 684.992,150.593 H 13.266 c -7.125,0 -12.887,-5.758 -12.887,-12.867 V 13.238 c 0,-7.11 5.762,-12.871 12.887,-12.871 h 671.726 c 7.11,0 12.887,5.761 12.887,12.871 v 124.488 c 0,7.109 -5.777,12.867 -12.887,12.867" /><path
         id="path22562"
         style="fill:#000000;fill-opacity:1;fill-rule:nonzero;stroke:none"
         d="m 684.992,150.98 c 7.313,0 13.278,-5.93 13.278,-13.242 V 13.242 C 698.27,5.929 692.305,0 684.992,0 H 13.277 C 5.949,0 0,5.929 0,13.242 v 124.496 c 0,7.312 5.949,13.242 13.277,13.242 z m 0,-0.387 H 13.266 c -7.125,0 -12.887,-5.758 -12.887,-12.867 V 13.238 c 0,-7.11 5.762,-12.871 12.887,-12.871 h 671.726 c 7.11,0 12.887,5.761 12.887,12.871 v 124.488 c 0,7.109 -5.777,12.867 -12.887,12.867 z" /><path
         id="path22564"
         style="fill:#633a34;fill-opacity:1;fill-rule:nonzero;stroke:none"
         d="M 684.992,142.007 H 13.266 c -2.387,0 -4.293,-1.925 -4.293,-4.293 V 13.242 c 0,-2.371 1.906,-4.297 4.293,-4.297 h 671.726 c 2.371,0 4.297,1.926 4.297,4.297 v 124.472 c 0,2.368 -1.926,4.293 -4.297,4.293" /><path
         id="path22566"
         style="fill:#ffffff;fill-opacity:1;fill-rule:nonzero;stroke:none"
         d="m 214.355,11.742 -63.742,63.75 63.742,63.734 63.743,-63.734 z" /><path
         id="path22568"
         style="fill:#633a34;fill-opacity:1;fill-rule:evenodd;stroke:none"
         d="m 199.613,112.64 c 0,0 -19.668,-5.976 -19.711,-28.933 -0.039,-22.957 17.621,-28.215 17.621,-28.215 0.59,-0.215 0.598,-0.223 0.598,-0.848 0,-1.066 -0.465,-2.309 -1.164,-3.082 -1.144,-1.273 -2.859,-1.832 -6.141,-2 l -1.773,-0.09 v -1.449 h 56.762 v 29.27 c -0.067,-0.262 -0.34,-1.45 -0.61,-2.645 -1.109,-4.887 -2.613,-8.086 -5.703,-12.16 -1.344,-1.77 -4.73,-5.156 -6.48,-6.488 -4.84,-3.672 -9.481,-5.657 -14.699,-6.286 -1.196,-0.144 -3.883,-0.191 -11.54,-0.195 l -9.98,-0.004 0.937,0.938 c 0.649,0.644 1.071,1.218 1.375,1.859 l 0.438,0.93 0.039,29.703 z" /><path
         id="path22570"
         style="fill:#633a34;fill-opacity:1;fill-rule:evenodd;stroke:none"
         d="M 210.453,114.835 V 51.699 l 0.442,-0.055 c 1.085,-0.133 2.425,-0.125 3.867,0.012 10.156,0.328 19.418,6.429 24.406,16.086 0.145,0.265 0.289,0.535 0.422,0.804 0.082,0.161 0.156,0.321 0.238,0.477 1.289,2.668 2.219,5.547 2.723,8.57 0.285,1.707 0.433,3.668 0.449,5.621 0,0 0.02,2.024 -0.484,5.055 -0.426,2.871 -1.211,5.668 -2.344,8.309 -0.227,0.554 -0.473,1.113 -0.742,1.672 -0.035,0.074 -0.071,0.144 -0.102,0.214 -1.914,3.93 -4.808,7.899 -9.211,10.954 -4.781,3.523 -10.418,5.41 -16.187,5.417 z m 3.238,-2.148 c 14.961,0 27.09,-13.223 27.09,-29.535 0,-16.313 -12.129,-29.535 -27.09,-29.535 -0.234,0.008 -0.472,0.023 -0.707,0.039 v 0.027 l -0.101,-0.008 0.074,3.09 h 0.027 l 1.571,0.039 1.601,0.039 v 1.684 h -3.265 v 3.996 h 3.25 v 1.762 h -3.25 l 0.035,24.152 0.031,24.148 c 0.012,0 0.02,0 0.027,0 0.008,0 0.012,0 0.016,0.004 v 0.055 c 0.23,0.016 0.461,0.031 0.691,0.043 z" /><path
         id="path22572"
         style="fill:#633a34;fill-opacity:1;fill-rule:evenodd;stroke:none"
         d="m 216.141,78.984 v 10.637 h -2.301 v 6.777 h 2.301 v 1.477 l -1.391,0.043 -1.398,0.035 5.742,4.859 c 3.16,2.676 5.828,4.871 5.929,4.883 0.106,0.008 2.79,-2.18 5.965,-4.863 l 5.774,-4.879 -1.371,-0.039 -1.364,-0.039 v -1.477 h 2.438 v -6.777 h -2.438 V 71.05 l -2.375,0.075 -0.031,9.25 -0.035,9.246 H 218.582 V 69.839 h 2.844 v -1.488 h -5.285 z M 234,93.043 l 0.039,0.914 h -17.898 v -1.899 l 8.91,0.035 8.906,0.035 z m -10.27,4.097 v 0.613 h -5.015 v -1.222 h 5.015 z m 7.723,0 v 0.613 h -5.015 v -1.222 h 5.015 z m -3.25,4.981 c -1.359,1.132 -2.64,2.207 -2.844,2.375 l -0.375,0.308 -0.867,-0.781 c -0.476,-0.434 -1.625,-1.418 -2.554,-2.195 -0.934,-0.774 -1.786,-1.493 -1.895,-1.59 -0.164,-0.153 0.707,-0.184 5.402,-0.184 h 5.602 z" /><path
         id="path22574"
         style="fill:#633a34;fill-opacity:1;fill-rule:evenodd;stroke:none"
         d="m 222.918,69.093 v 0.746 h 3.387 v -1.488 h -3.387 z" /><path
         id="path22576"
         style="fill:#633a34;fill-opacity:1;fill-rule:evenodd;stroke:none"
         d="m 227.793,69.093 v 0.746 h 3.523 v -1.488 h -3.523 z" /><path
         id="path22578"
         style="fill:#633a34;fill-opacity:1;fill-rule:evenodd;stroke:none"
         d="m 232.809,69.093 v 0.746 h 3.523 v -1.488 h -3.523 z" /><path
         id="path22580"
         style="fill:#633a34;fill-opacity:1;fill-rule:evenodd;stroke:none"
         d="m 230.371,66.183 v 0.82 l 1.656,-0.039 1.664,-0.035 0.039,-0.781 0.04,-0.777 h -3.399 z" /><path
         id="path22582"
         style="fill:#633a34;fill-opacity:1;fill-rule:evenodd;stroke:none"
         d="m 225.488,66.113 v 0.746 l 1.426,0.019 c 0.781,0.012 1.496,0.028 1.59,0.036 0.117,0.007 0.184,-0.246 0.211,-0.766 l 0.039,-0.777 h -3.266 z" /><path
         id="path22584"
         style="fill:#633a34;fill-opacity:1;fill-rule:evenodd;stroke:none"
         d="m 227.793,63.402 v 0.883 h 3.523 v -1.758 h -3.523 z" /><path
         id="path22586"
         style="fill:#633a34;fill-opacity:1;fill-rule:evenodd;stroke:none"
         d="m 222.918,63.402 v 0.883 h 3.387 v -1.758 h -3.387 z" /><path
         id="path22588"
         style="fill:#633a34;fill-opacity:1;fill-rule:evenodd;stroke:none"
         d="m 217.902,63.402 v 0.883 h 3.524 v -1.758 h -3.524 z" /><path
         id="path22590"
         style="fill:#633a34;fill-opacity:1;fill-rule:evenodd;stroke:none"
         d="m 220.477,66.179 v 0.817 h 3.386 v -1.625 h -3.386 z" /><path
         id="path22592"
         style="fill:#633a34;fill-opacity:1;fill-rule:evenodd;stroke:none"
         d="m 215.602,66.113 v 0.746 h 3.25 v -1.488 h -3.25 z" /><path
         id="path22594"
         style="fill:#633a34;fill-opacity:1;fill-rule:evenodd;stroke:none"
         d="m 215.602,60.492 v 0.812 h 3.25 v -1.629 h -3.25 z" /><path
         id="path22596"
         style="fill:#633a34;fill-opacity:1;fill-rule:evenodd;stroke:none"
         d="m 220.477,60.492 v 0.812 h 3.386 v -1.629 h -3.386 z" /><path
         id="path22598"
         style="fill:#633a34;fill-opacity:1;fill-rule:evenodd;stroke:none"
         d="m 225.488,60.492 v 0.812 h 3.254 v -1.629 h -3.254 z" /><path
         id="path22600"
         style="fill:#633a34;fill-opacity:1;fill-rule:evenodd;stroke:none"
         d="m 217.902,58.527 c 1.153,0.055 3.457,0 3.457,0 v -1.695 h -3.457 z" /><path
         id="path22602"
         style="fill:#633a34;fill-opacity:1;fill-rule:evenodd;stroke:none"
         d="m 222.66,57.714 v 0.813 h 3.387 v -1.625 h -3.387 z" /><path
         id="path22604"
         style="fill:#ffffff;fill-opacity:1;fill-rule:evenodd;stroke:none"
         d="m 310.23,123.492 h 7.629 c 3.43,0 5.563,-0.895 7.52,-3.555 1.711,-2.301 1.891,-4.141 1.891,-11.727 0,-7.812 -0.18,-9 -1.602,-11.128 -1.652,-2.442 -4.199,-3.672 -7.809,-3.672 h -7.629 z m -6.39,-36.125 h 14.316 c 6.27,0 10.649,3.074 13.137,6.984 1.883,2.965 2.367,4.629 2.367,14.098 0,8.832 -0.18,10.422 -2.242,13.976 -2.727,4.621 -7.285,7.106 -12.848,7.106 h -14.73" /><path
         id="path22606"
         style="fill:#ffffff;fill-opacity:1;fill-rule:evenodd;stroke:none"
         d="m 345.137,105.074 c 0.125,4.558 2.789,6.98 6.324,6.98 3.555,0 6.156,-2.422 6.336,-6.98 z m 18.699,-4.977 v 4.977 c 0,7.765 -5.734,12.679 -12.375,12.679 -5.789,0 -12.367,-3.785 -12.367,-15.46 0,-12.321 7.172,-15.282 13.32,-15.282 4.024,0 7.867,1.422 10.828,4.852 l -4.379,3.738 c -1.777,-1.836 -4.265,-2.906 -6.574,-2.906 -4.133,0 -7.152,2.48 -7.152,7.402" /><path
         id="path22608"
         style="fill:#ffffff;fill-opacity:1;fill-rule:nonzero;stroke:none"
         d="m 370.164,97.445 c 0,-6.828 5.332,-10.434 10.066,-10.434 3.137,0 5.844,1.18 7.747,3.555 h 0.117 v -3.199 h 6.039 v 30.031 h -6.039 V 99.511 c 0,-4.086 -2.543,-6.461 -5.91,-6.461 -3.438,0 -5.981,2.375 -5.981,6.461 v 17.887 h -6.039" /><path
         id="path22610"
         style="fill:#ffffff;fill-opacity:1;fill-rule:nonzero;stroke:none"
         d="m 402.289,117.398 h -3.019 v -4.621 h 3.019 V 94.769 c 0,-4.738 3.074,-7.402 7.277,-7.402 h 3.137 v 5.683 h -2.258 c -1.476,0 -2.121,0.59 -2.121,2.262 v 17.465 h 4.379 v 4.621 h -4.379 v 9.113 h -6.035" /><path
         id="path22612"
         style="fill:#ffffff;fill-opacity:1;fill-rule:nonzero;stroke:none"
         d="m 415.059,92.394 c 3.847,-3.609 8.339,-5.383 13.191,-5.383 6.984,0 12.43,3.375 12.43,9.239 0,4.8 -2.481,8.585 -8.696,9 l -4.976,0.355 c -3.012,0.242 -3.961,1.539 -3.961,2.844 0,2.07 1.305,3.605 5.152,3.605 3.25,0 5.676,-1.117 8.051,-2.777 l 3.719,4.387 c -2.957,2.488 -6.504,4.089 -11.77,4.089 -6.336,0 -11.187,-3.14 -11.187,-9.242 0,-5.152 3.668,-8.113 8.636,-8.527 l 5.329,-0.473 c 2.07,-0.176 3.671,-0.824 3.671,-2.957 0,-2.558 -2.488,-3.855 -5.918,-3.855 -4.031,0 -6.867,1.297 -9.46,3.855" /><path
         id="path22614"
         style="fill:#ffffff;fill-opacity:1;fill-rule:nonzero;stroke:none"
         d="m 464.41,96.199 c -1.484,-1.848 -3.613,-3.149 -6.101,-3.149 -4.907,0 -7.801,2.793 -7.801,9.305 0,6.563 2.894,9.344 7.801,9.344 2.488,0 4.617,-1.297 6.101,-3.133 l 4.434,3.98 c -2.602,3.02 -6.207,5.207 -10.766,5.207 -6.922,0 -13.613,-4.378 -13.613,-15.398 0,-10.965 6.691,-15.344 13.613,-15.344 4.559,0 8.164,2.188 10.766,5.207" /><path
         id="path22616"
         style="fill:#ffffff;fill-opacity:1;fill-rule:nonzero;stroke:none"
         d="m 473.047,87.367 h 6.023 v 17.883 c 0,4.089 2.551,6.449 5.981,6.449 3.375,0 5.914,-2.36 5.914,-6.449 V 87.367 H 497 v 19.957 c 0,6.812 -5.324,10.429 -9.996,10.429 -3.188,0 -5.918,-1.183 -7.809,-3.558 h -0.125 v 15.336 h -6.023" /><path
         id="path22618"
         style="fill:#ffffff;fill-opacity:1;fill-rule:evenodd;stroke:none"
         d="m 509.367,105.074 c 0.113,4.558 2.77,6.98 6.328,6.98 3.551,0 6.145,-2.422 6.332,-6.98 z m 18.684,-4.977 v 4.977 c 0,7.765 -5.731,12.679 -12.356,12.679 -5.804,0 -12.371,-3.785 -12.371,-15.46 0,-12.321 7.153,-15.282 13.321,-15.282 4.015,0 7.863,1.422 10.82,4.852 l -4.371,3.738 c -1.778,-1.836 -4.266,-2.906 -6.578,-2.906 -4.137,0 -7.149,2.48 -7.149,7.402" /><path
         id="path22620"
         style="fill:#ffffff;fill-opacity:1;fill-rule:nonzero;stroke:none"
         d="m 478.305,27.168 c 4.398,-3.868 9.8,-5.747 15.965,-5.747 8.968,0 14.66,4.469 14.66,12.153 0,5.699 -3.637,11.101 -11.442,12.043 -1.984,0.238 -3.57,0.468 -4.687,0.648 -4.231,0.645 -5.93,2.992 -5.93,5.332 0,4.012 3.109,6.008 6.988,6.008 3.688,0 7.266,-1.293 10.325,-3.23 l 3.515,5.214 c -3.816,2.528 -8.39,4.352 -13.551,4.352 -8.625,0 -13.613,-5.059 -13.613,-12.219 0,-6.043 3.867,-10.75 11.094,-11.746 2.168,-0.289 3.641,-0.527 5.516,-0.766 3.75,-0.464 5.453,-2.687 5.453,-5.636 0,-3.461 -3.11,-5.817 -8.274,-5.817 -4.461,0 -8.687,1.649 -11.859,4.168" /><path
         id="path22622"
         style="fill:#ffffff;fill-opacity:1;fill-rule:nonzero;stroke:none"
         d="m 515.441,51.546 h -2.988 V 46.96 h 2.988 V 29.105 c 0,-4.687 3.051,-7.328 7.227,-7.328 h 3.098 v 5.629 h -2.227 c -1.461,0 -2.117,0.59 -2.117,2.23 V 46.96 h 4.344 v 4.586 h -4.344 v 9.047 h -5.981" /><path
         id="path22624"
         style="fill:#ffffff;fill-opacity:1;fill-rule:nonzero;stroke:none"
         d="m 531.398,21.777 h 5.985 v 17.91 c 0,4.344 2.867,6.219 5.805,6.219 1.535,0 2.527,-0.403 3.937,-1.461 l 4.332,5.164 c -1.805,1.41 -3.805,2.289 -6.211,2.289 -3.168,0 -5.867,-1.18 -7.754,-3.523 h -0.109 v 3.171 h -5.985" /><path
         id="path22626"
         style="fill:#ffffff;fill-opacity:1;fill-rule:evenodd;stroke:none"
         d="m 568.766,32.226 c 0,-4.633 -1.696,-5.164 -6.692,-5.164 -4.054,0 -5.629,1.754 -5.629,3.754 0,2.168 1.637,3.574 5.164,3.574 h 7.157 z m 0,-10.449 h 5.976 v 20.316 c 0,7.34 -5.047,9.805 -12.367,9.805 -4.465,0 -7.754,-1.18 -10.043,-4.344 l 4.691,-3.586 c 1.059,1.711 2.532,2.297 5.641,2.297 4.285,0 6.102,-1.004 6.102,-3.82 v -3.113 h -8.278 c -6.394,0 -9.679,-4.039 -9.679,-8.817 0,-5.164 3.875,-9.094 10.507,-9.094 4.043,0 6.11,0.934 7.332,2.997 h 0.118" /><path
         id="path22628"
         style="fill:#ffffff;fill-opacity:1;fill-rule:nonzero;stroke:none"
         d="m 593.645,44.445 h 3.468 c 2.344,0 3.285,-1.235 3.285,-3.473 V 30.515 c 0,-2.332 -1,-3.109 -3.875,-3.109 h -2.113 v -5.629 h 3.699 c 4.977,0 8.266,3.816 8.266,8.445 v 10.637 c 0,3.172 -1.352,5.348 -4.277,6.512 2.75,1.179 4.277,3.406 4.277,6.652 0,6.043 -4.691,9.918 -11.496,9.918 -7.219,0 -12.496,-3.172 -12.496,-9.742 V 21.777 h 5.98 v 32.422 c 0.117,2.406 1.586,3.629 5.93,3.75 1.992,0.062 4.344,-0.528 5.164,-1.223 0.766,-0.703 0.941,-1.648 0.941,-3.18 0,-2.589 -1.234,-3.472 -3.168,-3.472 h -3.585" /><path
         id="path22630"
         style="fill:#ffffff;fill-opacity:1;fill-rule:evenodd;stroke:none"
         d="m 618.523,39.332 c 0.114,4.519 2.75,6.933 6.262,6.933 3.535,0 6.106,-2.414 6.285,-6.933 z m 18.54,-4.942 v 4.942 c 0,7.695 -5.696,12.566 -12.278,12.566 -5.742,0 -12.254,-3.762 -12.254,-15.32 0,-12.219 7.102,-15.157 13.199,-15.157 3.993,0 7.813,1.411 10.739,4.821 l -4.344,3.695 c -1.762,-1.82 -4.219,-2.875 -6.512,-2.875 -4.113,0 -7.09,2.457 -7.09,7.328" /><path
         id="path22632"
         style="fill:#ffffff;fill-opacity:1;fill-rule:nonzero;stroke:none"
         d="m 303.844,22.234 v 41.691 h 6.32 V 28.183 h 20.344 v -5.949 z" /><path
         id="path22634"
         style="fill:#ffffff;fill-opacity:1;fill-rule:nonzero;stroke:none"
         d="m 336.121,22.234 v 29.703 h 5.977 V 22.234 Z m 0,35.707 v 5.984 h 5.977 v -5.984 z" /><path
         id="path22636"
         style="fill:#ffffff;fill-opacity:1;fill-rule:nonzero;stroke:none"
         d="m 350.367,22.234 v 29.703 h 5.985 v -3.18 h 0.109 c 1.891,2.348 4.465,3.52 7.73,3.52 2.079,0 3.727,-0.371 4.95,-1.117 1.218,-0.742 2.363,-1.66 3.433,-2.746 2.344,2.574 5.473,3.863 9.383,3.863 2.309,0 4.531,-0.875 6.668,-2.633 2.156,-1.754 3.23,-4.312 3.23,-7.668 V 22.234 h -5.976 v 17.684 c 0,2 -0.563,3.566 -1.691,4.691 -1.122,1.125 -2.516,1.687 -4.176,1.687 -1.719,0 -3.137,-0.562 -4.266,-1.687 -1.105,-1.125 -1.656,-2.691 -1.656,-4.691 V 22.234 h -5.949 v 17.684 c 0,2 -0.567,3.566 -1.692,4.691 -1.125,1.125 -2.519,1.687 -4.176,1.687 -1.718,0 -3.14,-0.562 -4.265,-1.687 -1.11,-1.125 -1.656,-2.691 -1.656,-4.691 V 22.234 Z" /><path
         id="path22638"
         style="fill:#ffffff;fill-opacity:1;fill-rule:nonzero;stroke:none"
         d="m 422.82,34.82 h -18.484 c 0,-2.438 0.656,-4.27 1.969,-5.492 1.34,-1.219 3.035,-1.828 5.097,-1.828 2.461,0 4.633,0.953 6.524,2.859 l 4.32,-3.691 c -1.469,-1.715 -3.129,-2.946 -4.98,-3.688 -1.828,-0.73 -3.746,-1.09 -5.75,-1.09 -3.055,0 -6.008,0.981 -8.871,2.945 -2.864,1.985 -4.293,6.028 -4.293,12.133 0,5.782 1.32,9.778 3.949,11.989 2.652,2.214 5.418,3.32 8.297,3.32 3.265,0 6.113,-1.137 8.558,-3.406 2.442,-2.25 3.664,-5.293 3.664,-9.125 z m -18.484,4.926 h 12.527 c -0.093,2.23 -0.722,3.937 -1.886,5.121 -1.164,1.183 -2.622,1.773 -4.379,1.773 -1.774,0 -3.25,-0.59 -4.434,-1.773 -1.16,-1.184 -1.773,-2.891 -1.828,-5.121 z" /><path
         id="path22640"
         style="fill:#ffffff;fill-opacity:1;fill-rule:nonzero;stroke:none"
         d="m 425.82,27.183 4.18,4.121 c 2.594,-2.535 5.711,-3.804 9.355,-3.804 1.7,0 3.102,0.312 4.208,0.941 1.105,0.648 1.66,1.602 1.66,2.863 0,1.735 -1.211,2.707 -3.633,2.918 l -5.266,0.485 c -2.461,0.191 -4.504,1 -6.125,2.433 -1.621,1.434 -2.429,3.426 -2.429,5.981 0,3.011 1.058,5.293 3.175,6.839 2.118,1.543 4.75,2.317 7.895,2.317 2.594,0 4.816,-0.371 6.668,-1.117 1.851,-0.723 3.512,-1.696 4.976,-2.918 l -3.687,-4.348 c -1.184,0.801 -2.406,1.457 -3.664,1.973 -1.258,0.515 -2.688,0.773 -4.293,0.773 -1.906,0 -3.231,-0.344 -3.977,-1.031 -0.742,-0.668 -1.113,-1.516 -1.113,-2.547 0,-0.648 0.273,-1.246 0.828,-1.801 0.555,-0.554 1.582,-0.886 3.09,-1 l 4.922,-0.343 c 3.07,-0.211 5.273,-1.168 6.609,-2.864 1.336,-1.679 2.004,-3.691 2.004,-6.035 0,-2.918 -1.195,-5.172 -3.578,-6.754 -2.383,-1.582 -5.293,-2.375 -8.727,-2.375 -4.937,0 -9.3,1.766 -13.078,5.293 z" /><path
         id="path22642"
         style="fill:#ffffff;fill-opacity:1;fill-rule:nonzero;stroke:none"
         d="m 456.496,41.433 h 17.652 v -5.98 h -17.652 z" /><path
         id="path22644"
         style="fill:#ffffff;fill-opacity:1;fill-rule:nonzero;stroke:none"
         d="M 79.801,120.543 124.867,75.476 V 52.945 L 88.816,88.992 V 30.41 H 70.785 V 88.992 L 34.734,52.945 v 22.531 z" /></g></g></svg>