<?xml version="1.0" encoding="UTF-8" standalone="no"?>
<svg
   xmlns:dc="http://purl.org/dc/elements/1.1/"
   xmlns:cc="http://creativecommons.org/ns#"
   xmlns:rdf="http://www.w3.org/1999/02/22-rdf-syntax-ns#"
   xmlns:svg="http://www.w3.org/2000/svg"
   xmlns="http://www.w3.org/2000/svg"
   viewBox="0 0 930.05243 200"
   height="200"
   width="930.05243"
   xml:space="preserve"
   id="svg11351"
   version="1.1"><metadata
     id="metadata11357"><rdf:RDF><cc:Work
         rdf:about=""><dc:format>image/svg+xml</dc:format><dc:type
           rdf:resource="http://purl.org/dc/dcmitype/StillImage" /><dc:title></dc:title></cc:Work></rdf:RDF></metadata><defs
     id="defs11355"><clipPath
       id="clipPath11373"
       clipPathUnits="userSpaceOnUse"><path
         id="path11371"
         d="M 0,0 H 698 V 150 H 0 Z" /></clipPath><clipPath
       id="clipPath11387"
       clipPathUnits="userSpaceOnUse"><path
         id="path11385"
         d="M 10,10 H 688 V 140 H 10 Z" /></clipPath></defs><g
     transform="matrix(1.3333333,0,0,-1.3333333,0,200)"
     id="g11359"><g
       id="g11361"><path
         id="path11363"
         style="fill:#ffffff;fill-opacity:1;fill-rule:evenodd;stroke:none"
         d="m 19.973,149.621 h 658.586 l 1.011,-0.09 0.961,-0.133 0.953,-0.164 0.957,-0.222 0.911,-0.262 0.914,-0.301 0.918,-0.351 0.871,-0.399 0.828,-0.429 0.828,-0.485 0.793,-0.519 0.773,-0.567 0.743,-0.562 0.695,-0.617 0.703,-0.653 0.652,-0.695 0.61,-0.695 0.605,-0.739 0.531,-0.785 0.52,-0.785 0.473,-0.828 0.441,-0.871 0.387,-0.828 0.355,-0.914 0.297,-0.918 0.266,-0.914 0.218,-0.961 0.168,-0.961 0.141,-0.996 0.078,-0.961 V 19.027 l -0.078,-0.992 -0.141,-1.004 -0.168,-0.961 -0.218,-0.961 -0.266,-0.914 -0.297,-0.91 -0.355,-0.879 -0.387,-0.871 -0.441,-0.875 -0.473,-0.773 -0.52,-0.836 L 693.285,8.316 692.68,7.57 692.07,6.828 691.418,6.18 690.715,5.527 690.02,4.875 689.277,4.301 688.504,3.738 687.711,3.254 686.883,2.777 686.055,2.348 685.184,1.949 684.266,1.598 683.352,1.254 682.441,1 681.484,0.777 680.531,0.602 679.57,0.469 678.559,0.426 677.563,0.383 H 19.973 L 17.965,0.469 17.016,0.602 16.055,0.777 15.094,1 14.133,1.254 13.262,1.598 12.348,1.949 11.484,2.348 10.645,2.777 9.828,3.254 9.035,3.738 8.25,4.301 7.512,4.875 6.777,5.527 6.117,6.18 5.465,6.828 4.859,7.57 4.25,8.316 3.723,9.051 3.203,9.887 2.719,10.66 2.285,11.535 1.898,12.406 1.547,13.285 1.246,14.195 0.984,15.109 0.762,16.07 0.586,17.031 0.453,18.035 0.375,19.027 v 111.989 l 0.078,0.961 0.133,0.996 0.176,0.961 0.222,0.961 0.262,0.914 0.301,0.918 0.351,0.914 0.387,0.828 0.434,0.871 0.484,0.828 0.52,0.785 0.527,0.785 0.609,0.739 0.606,0.695 0.652,0.695 0.66,0.653 0.735,0.617 0.738,0.562 0.785,0.567 0.793,0.519 0.817,0.485 0.839,0.429 0.864,0.399 0.914,0.351 0.871,0.301 0.961,0.262 0.961,0.222 0.961,0.164 0.949,0.133 1.004,0.09 z" /><g
         id="g11365"><g
           id="g11367"><g
             clip-path="url(#clipPath11373)"
             id="g11369"><g
               id="g11375"><path
                 id="path11377"
                 style="fill:#000000;fill-opacity:1;fill-rule:nonzero;stroke:none"
                 d="m 18.961,150 -1.035,-0.086 -0.961,-0.137 -0.981,-0.175 -0.984,-0.223 -0.977,-0.274 -0.898,-0.292 -0.926,-0.364 -0.879,-0.41 -0.859,-0.43 -0.824,-0.5 L 8.824,146.574 8.016,146.008 7.277,145.441 6.52,144.805 5.852,144.133 5.18,143.426 4.578,142.723 3.941,141.965 3.406,141.156 2.875,140.363 2.391,139.523 1.945,138.629 1.551,137.785 1.188,136.855 0.879,135.926 0.621,134.98 0.398,134.016 0.207,133.035 0.086,132.023 0,131.039 V 19.012 L 0.07,17.996 0.207,16.965 0.398,16 0.621,15.02 0.879,14.074 1.188,13.16 1.551,12.25 1.945,11.371 2.391,10.48 2.875,9.688 3.406,8.844 3.957,8.086 4.559,7.328 5.18,6.574 5.848,5.902 6.52,5.25 7.262,4.578 8.016,3.992 8.824,3.426 9.637,2.926 10.461,2.445 11.32,2.016 12.199,1.602 13.125,1.242 14.023,0.895 15,0.637 15.984,0.414 16.945,0.227 17.926,0.086 18.961,0.055 19.973,0 h 657.593 l 1.016,0.051 1.031,0.035 0.981,0.141 0.961,0.187 0.984,0.223 0.926,0.258 0.93,0.343 0.929,0.364 0.895,0.41 0.844,0.433 0.843,0.481 0.809,0.5 0.789,0.566 0.758,0.602 0.703,0.656 0.726,0.652 0.653,0.672 0.636,0.754 0.602,0.758 0.551,0.758 0.515,0.844 0.5,0.789 0.446,0.894 0.398,0.879 0.36,0.91 0.293,0.914 0.273,0.946 0.227,0.98 0.171,0.965 0.137,1.031 0.086,1.016 v 112.027 l -0.086,0.981 -0.137,1.015 -0.171,0.965 -0.227,0.98 -0.273,0.946 -0.293,0.929 -0.36,0.93 -0.398,0.844 -0.446,0.891 -0.5,0.843 -0.515,0.793 -0.551,0.809 -0.617,0.758 -0.621,0.703 -0.653,0.707 -0.726,0.672 -0.703,0.617 -0.758,0.586 -0.789,0.566 -0.809,0.535 -0.843,0.5 -0.844,0.43 -0.895,0.41 -0.929,0.364 -0.93,0.292 -0.926,0.274 -0.984,0.223 -0.961,0.171 -0.981,0.141 -1.031,0.086 z m 0.008,-0.379 h 659.59 l 1.011,-0.09 0.961,-0.129 0.953,-0.168 0.957,-0.222 0.911,-0.266 0.914,-0.297 0.918,-0.351 0.871,-0.399 0.828,-0.429 0.828,-0.485 0.793,-0.519 0.773,-0.567 0.743,-0.562 0.695,-0.617 0.703,-0.653 0.652,-0.695 0.61,-0.695 0.605,-0.739 0.528,-0.785 0.523,-0.785 0.473,-0.828 0.441,-0.871 0.387,-0.828 0.351,-0.914 0.301,-0.918 0.266,-0.914 0.218,-0.961 0.168,-0.961 0.141,-0.996 0.078,-0.961 V 19.031 l -0.078,-0.996 -0.141,-1.004 -0.168,-0.961 -0.218,-0.961 -0.266,-0.914 -0.301,-0.91 -0.351,-0.879 L 695.25,11.535 694.809,10.66 694.336,9.887 693.813,9.051 693.285,8.32 692.68,7.57 692.07,6.832 691.418,6.176 690.715,5.527 690.02,4.875 689.277,4.301 688.504,3.738 687.711,3.254 686.883,2.777 686.055,2.348 685.184,1.949 684.266,1.598 683.352,1.254 682.441,1 681.484,0.777 680.531,0.602 679.57,0.469 678.559,0.426 677.563,0.383 H 19.973 L 17.965,0.469 17.016,0.602 16.055,0.777 15.094,1 14.133,1.254 13.262,1.598 12.348,1.949 11.484,2.348 10.645,2.777 9.828,3.254 9.035,3.738 8.25,4.301 7.508,4.875 6.777,5.527 6.117,6.176 5.469,6.832 4.859,7.57 4.25,8.32 3.723,9.051 3.203,9.887 2.719,10.66 2.285,11.535 1.898,12.406 1.547,13.285 1.246,14.195 0.984,15.109 0.766,16.07 0.586,17.031 0.453,18.035 0.375,19.031 v 111.985 l 0.078,0.961 0.133,0.996 0.18,0.961 0.218,0.961 0.262,0.914 0.301,0.918 0.351,0.914 0.387,0.828 0.434,0.871 0.484,0.828 0.52,0.785 0.527,0.785 0.609,0.739 0.61,0.695 0.648,0.695 0.66,0.653 0.731,0.617 0.742,0.562 0.785,0.567 0.793,0.519 0.817,0.485 0.839,0.429 0.864,0.399 0.914,0.351 0.871,0.297 0.961,0.266 0.961,0.222 0.961,0.168 0.949,0.129 z" /></g></g></g></g><g
         id="g11379"><g
           id="g11381"><g
             clip-path="url(#clipPath11387)"
             id="g11383"><g
               id="g11389"><path
                 id="path11391"
                 style="fill:#633a34;fill-opacity:1;fill-rule:evenodd;stroke:none"
                 d="m 19.973,139.82 h 658.074 l 0.512,-0.047 0.484,-0.085 0.477,-0.09 0.96,-0.211 0.872,-0.352 0.871,-0.398 0.828,-0.52 0.738,-0.562 0.699,-0.606 0.649,-0.707 0.574,-0.785 0.477,-0.781 0.394,-0.871 0.352,-0.918 0.257,-0.907 0.086,-0.484 0.047,-0.519 0.043,-0.485 V 19.508 l -0.043,-0.477 -0.047,-0.476 -0.086,-0.52 -0.257,-0.914 -0.352,-0.918 -0.394,-0.828 -0.477,-0.836 -0.574,-0.73 -0.649,-0.696 -0.699,-0.66 -0.738,-0.566 -0.828,-0.485 -0.871,-0.429 -0.872,-0.309 -0.96,-0.258 -0.477,-0.086 -0.484,-0.043 -0.512,-0.047 -0.484,-0.042 H 19.973 l -0.473,0.042 -0.531,0.047 -0.473,0.043 -0.488,0.086 -0.949,0.258 -0.871,0.309 -0.875,0.429 -0.825,0.485 -0.742,0.566 -0.703,0.66 -0.645,0.696 -0.57,0.73 -0.476,0.836 -0.399,0.828 -0.344,0.918 -0.261,0.914 -0.09,0.52 -0.086,0.953 v 110.984 l 0.043,0.485 0.043,0.519 0.09,0.484 0.261,0.907 0.344,0.918 0.399,0.871 0.476,0.781 0.57,0.785 0.645,0.707 0.703,0.606 0.742,0.562 0.825,0.52 0.875,0.398 0.871,0.352 0.949,0.211 0.488,0.09 0.473,0.085 0.531,0.047 z" /><path
                 id="path11393"
                 style="fill:#ffffff;fill-opacity:1;fill-rule:evenodd;stroke:none"
                 d="m 157.406,107.398 h 64.777 V 42.605 h -64.777 z" /><path
                 id="path11395"
                 style="fill:#633a34;fill-opacity:1;fill-rule:evenodd;stroke:none"
                 d="m 194.129,49.754 h -8.668 v 7.973 l 0.043,0.441 0.043,0.43 0.133,0.343 0.133,0.395 0.167,0.301 0.219,0.308 0.266,0.266 0.254,0.262 0.308,0.222 0.352,0.168 0.344,0.176 0.398,0.129 0.387,0.082 0.394,0.098 0.434,0.043 h 0.914 l 0.434,-0.043 0.394,-0.098 0.391,-0.082 0.394,-0.129 0.352,-0.176 0.344,-0.168 0.308,-0.222 0.258,-0.262 0.262,-0.266 0.222,-0.308 0.176,-0.301 0.121,-0.395 0.133,-0.343 0.043,-0.43 0.047,-0.441 z m -17.512,52.242 h -3.004 v -3.445 h -1.312 v 3.445 h -3.004 v -3.445 h -1.305 v 3.445 h -3.047 V 48.012 h 49.696 v 47.535 h -3.477 v -3.488 h -1.703 v 3.488 h -3.488 V 80.426 h -5.176 v 6.015 l -3.445,3.489 -3.446,-3.489 v -6.015 h -5.179 v 6.015 l -3.489,3.489 -3.433,-3.489 v -6.015 h -5.188 z" /><path
                 id="path11397"
                 style="fill:#ffffff;fill-opacity:1;fill-rule:evenodd;stroke:none"
                 d="M 86.707,33.762 45.504,75.027 86.707,116.25 h 19.82 L 73.559,83.262 h 54.398 V 66.746 H 73.559 l 32.968,-32.984 z" /><path
                 id="path11399"
                 style="fill:#ffffff;fill-opacity:1;fill-rule:evenodd;stroke:none"
                 d="m 251.629,95.637 h 26.488 V 89.75 H 257.902 V 77.594 h 17.289 V 72.063 H 257.902 V 54.367 h -6.273 z m 43.082,-17.301 -0.652,-0.043 -0.61,-0.09 -0.613,-0.168 -0.566,-0.219 -0.563,-0.265 -0.527,-0.309 -0.477,-0.344 -0.441,-0.394 -0.387,-0.477 -0.352,-0.476 -0.343,-0.485 -0.266,-0.562 -0.176,-0.563 -0.168,-0.617 -0.086,-0.609 -0.046,-0.652 h 12.5 v 0.652 l -0.133,0.609 -0.133,0.617 -0.211,0.563 -0.262,0.562 -0.308,0.485 -0.344,0.476 -0.434,0.477 -0.437,0.394 -0.485,0.344 -0.519,0.309 -0.52,0.265 -0.609,0.219 -0.574,0.168 -0.649,0.09 z m -2.352,-17.953 0.387,-0.176 0.352,-0.086 0.386,-0.125 0.399,-0.098 0.387,-0.043 0.398,-0.035 0.387,-0.043 h 0.828 l 0.441,0.043 0.43,0.035 0.441,0.09 0.871,0.262 0.829,0.309 0.785,0.433 0.695,0.485 0.352,0.254 0.343,0.308 0.309,0.309 0.301,0.343 4.492,-3.832 -0.531,-0.574 -0.563,-0.562 -0.574,-0.477 -0.563,-0.484 -0.652,-0.43 -0.605,-0.441 -0.653,-0.344 -0.695,-0.352 -0.707,-0.265 -0.688,-0.254 -0.746,-0.266 -0.742,-0.176 -0.738,-0.132 -0.742,-0.079 -0.782,-0.089 h -1.437 l -0.652,0.047 -0.696,0.078 -0.66,0.14 -0.652,0.125 -0.653,0.176 -0.605,0.219 -0.652,0.211 -0.829,0.398 -0.828,0.438 -0.738,0.476 -0.75,0.52 -0.652,0.617 -0.653,0.609 -0.562,0.696 -0.527,0.738 -0.477,0.742 -0.434,0.781 -0.351,0.828 -0.301,0.829 -0.219,0.875 -0.175,0.914 -0.09,0.918 -0.043,0.914 v 6.492 l 0.043,0.652 0.09,0.571 0.132,0.609 0.121,0.609 0.141,0.571 0.215,0.562 0.219,0.567 0.218,0.519 0.258,0.527 0.309,0.52 0.308,0.476 0.34,0.485 0.399,0.441 0.343,0.473 0.442,0.391 0.387,0.394 0.441,0.387 0.473,0.398 0.476,0.297 0.485,0.309 0.519,0.308 0.52,0.266 0.531,0.254 0.562,0.222 0.563,0.176 0.574,0.176 0.606,0.121 0.566,0.133 0.613,0.047 0.61,0.086 h 1.261 l 0.606,-0.086 0.617,-0.047 0.609,-0.133 0.563,-0.121 0.617,-0.176 0.563,-0.176 0.519,-0.222 0.563,-0.254 0.531,-0.266 0.472,-0.308 0.532,-0.309 0.472,-0.297 0.434,-0.398 0.441,-0.387 0.43,-0.394 0.399,-0.391 0.386,-0.473 0.352,-0.441 0.344,-0.485 0.308,-0.476 0.309,-0.52 0.254,-0.527 0.265,-0.519 0.211,-0.567 0.176,-0.562 0.176,-0.571 0.133,-0.609 0.089,-0.609 0.086,-0.571 0.043,-0.652 0.047,-0.609 v -5.145 h -18.429 v -1.215 l 0.089,-0.484 0.09,-0.43 0.121,-0.484 0.133,-0.434 0.176,-0.394 0.219,-0.434 0.257,-0.395 0.262,-0.343 0.309,-0.352 0.301,-0.344 0.351,-0.308 0.387,-0.266 0.398,-0.262 0.387,-0.214 z m 29.227,-6.016 -0.695,0.047 -0.653,0.129 -0.652,0.133 -0.609,0.211 -0.571,0.308 -0.519,0.309 -0.52,0.387 -0.484,0.441 -0.434,0.477 -0.394,0.484 -0.309,0.562 -0.301,0.563 -0.218,0.609 -0.133,0.661 -0.125,0.652 v 35.297 h 5.875 V 61.73 l 0.047,-0.343 0.086,-0.352 0.175,-0.297 0.211,-0.265 0.266,-0.266 0.309,-0.133 0.343,-0.129 0.395,-0.047 h 2.574 v -5.531 z m 18.559,18.086 h -0.266 l -0.301,0.086 -0.262,0.09 -0.257,0.086 -0.219,0.133 -0.219,0.168 -0.223,0.14 -0.218,0.211 -0.168,0.219 -0.133,0.223 -0.176,0.218 -0.086,0.258 -0.09,0.262 -0.078,0.266 -0.054,0.253 v 0.309 l 0.054,0.52 0.121,0.484 0.176,0.434 0.266,0.394 0.343,0.344 0.395,0.308 0.434,0.211 0.484,0.176 0.344,0.09 0.351,0.043 0.344,0.09 0.398,0.043 0.34,0.043 h 0.356 l 0.387,0.047 h 0.351 l 1.047,-0.047 1.043,-0.133 1.004,-0.219 1.004,-0.301 1.004,-0.394 0.906,-0.477 0.871,-0.527 0.871,-0.609 3.664,4.574 -0.613,0.484 -0.652,0.438 -0.61,0.433 -0.695,0.387 -0.653,0.352 -0.695,0.308 -0.738,0.301 -0.707,0.262 -0.738,0.265 -0.743,0.211 -0.738,0.176 -0.738,0.133 -0.785,0.133 -0.743,0.043 -0.781,0.089 h -1.304 l -0.528,-0.043 -0.566,-0.046 -0.52,-0.043 -0.527,-0.09 -0.563,-0.086 -0.519,-0.09 -0.531,-0.133 -0.739,-0.164 -0.695,-0.309 -0.652,-0.308 -0.653,-0.387 -0.562,-0.398 -0.574,-0.477 -0.52,-0.519 -0.484,-0.528 -0.387,-0.609 -0.387,-0.606 -0.351,-0.652 -0.266,-0.703 -0.219,-0.699 -0.125,-0.696 -0.089,-0.738 -0.043,-0.785 0.043,-0.871 0.125,-0.828 0.175,-0.828 0.266,-0.785 0.351,-0.739 0.43,-0.703 0.477,-0.699 0.531,-0.606 0.562,-0.562 0.653,-0.531 0.652,-0.43 0.738,-0.398 0.786,-0.297 0.781,-0.266 0.828,-0.176 0.875,-0.078 6.277,-0.398 0.258,-0.043 0.262,-0.043 0.308,-0.09 0.211,-0.133 0.266,-0.133 0.219,-0.129 0.215,-0.168 0.218,-0.175 0.309,-0.442 0.254,-0.476 0.09,-0.254 0.086,-0.309 0.047,-0.265 v -0.301 l -0.047,-0.438 -0.086,-0.433 -0.168,-0.442 -0.219,-0.343 -0.266,-0.352 -0.343,-0.309 -0.399,-0.261 -0.387,-0.168 -0.527,-0.176 -0.519,-0.176 -0.563,-0.125 -0.531,-0.141 -0.563,-0.078 -0.519,-0.047 -0.574,-0.042 h -1.168 l -0.61,0.042 -0.617,0.09 -0.562,0.078 -0.61,0.133 -0.562,0.176 -0.575,0.176 -0.562,0.211 -0.563,0.265 -0.531,0.266 -0.519,0.309 -0.528,0.296 -0.476,0.356 -0.473,0.394 -0.488,0.387 -0.43,0.434 -4.14,-4.176 0.652,-0.66 0.652,-0.567 0.696,-0.562 0.75,-0.484 0.781,-0.485 0.742,-0.429 0.828,-0.391 0.781,-0.395 0.828,-0.3 0.875,-0.262 0.817,-0.266 0.883,-0.168 0.906,-0.176 0.871,-0.089 0.875,-0.086 h 1.742 l 0.828,0.043 0.828,0.09 0.786,0.121 0.781,0.175 0.828,0.223 0.785,0.219 0.785,0.258 0.606,0.261 0.609,0.352 0.57,0.344 0.52,0.398 0.531,0.387 0.465,0.484 0.441,0.52 0.399,0.527 0.351,0.566 0.297,0.563 0.301,0.609 0.219,0.614 0.18,0.652 0.128,0.652 0.09,0.696 v 0.66 l -0.043,0.875 -0.132,0.816 -0.176,0.828 -0.301,0.785 -0.352,0.75 -0.386,0.739 -0.485,0.652 -0.531,0.609 -0.562,0.563 -0.653,0.519 -0.695,0.442 -0.695,0.394 -0.786,0.352 -0.785,0.211 -0.828,0.18 -0.871,0.129 z m 33.32,5.883 -0.652,-0.043 -0.606,-0.09 -0.609,-0.168 -0.575,-0.219 -0.519,-0.265 -0.52,-0.309 -0.472,-0.344 -0.442,-0.394 -0.441,-0.477 -0.344,-0.476 -0.308,-0.485 -0.254,-0.562 -0.219,-0.563 -0.18,-0.617 -0.086,-0.609 -0.043,-0.652 h 12.543 l -0.035,0.652 -0.098,0.609 -0.167,0.617 -0.219,0.563 -0.258,0.562 -0.309,0.485 -0.351,0.476 -0.387,0.477 -0.484,0.394 -0.477,0.344 -0.476,0.309 -0.571,0.265 -0.566,0.219 -0.606,0.168 -0.617,0.09 z m -2.309,-17.953 0.356,-0.176 0.386,-0.086 0.344,-0.125 0.395,-0.098 0.398,-0.043 0.395,-0.035 0.386,-0.043 h 0.829 l 0.433,0.043 0.485,0.035 0.429,0.09 0.828,0.262 0.828,0.309 0.786,0.433 0.738,0.485 0.351,0.254 0.309,0.308 0.344,0.309 0.301,0.343 4.449,-3.832 -0.531,-0.574 -0.52,-0.562 -0.562,-0.477 -0.606,-0.484 -0.617,-0.43 -0.645,-0.441 -0.66,-0.344 -0.695,-0.352 -0.695,-0.265 -0.696,-0.254 -0.699,-0.266 -0.746,-0.176 -0.777,-0.132 -0.747,-0.079 -0.742,-0.089 h -1.48 l -0.649,0.047 -0.652,0.078 -0.66,0.14 -0.645,0.125 -0.66,0.176 -0.652,0.219 -0.61,0.211 -0.871,0.398 -0.785,0.438 -0.781,0.476 -0.742,0.52 -0.66,0.617 -0.598,0.609 -0.617,0.696 -0.52,0.738 -0.476,0.742 -0.395,0.781 -0.344,0.828 -0.308,0.829 -0.266,0.875 -0.176,0.914 -0.086,0.918 -0.035,0.914 v 5.883 l 0.035,0.609 0.043,0.652 0.043,0.571 0.266,1.218 0.176,0.571 0.176,0.562 0.211,0.567 0.265,0.519 0.254,0.527 0.309,0.52 0.308,0.476 0.344,0.485 0.352,0.441 0.398,0.473 0.387,0.391 0.429,0.394 0.442,0.387 0.433,0.398 0.485,0.297 0.472,0.309 0.532,0.308 0.519,0.266 0.563,0.254 0.527,0.222 0.566,0.176 0.563,0.176 0.605,0.121 0.618,0.133 0.601,0.047 0.617,0.086 h 1.215 l 0.66,-0.086 0.563,-0.047 0.609,-0.133 0.606,-0.121 0.566,-0.176 0.57,-0.176 0.575,-0.222 0.519,-0.254 0.52,-0.266 0.519,-0.308 0.485,-0.309 0.476,-0.297 0.43,-0.398 0.484,-0.387 0.387,-0.394 0.398,-0.391 0.387,-0.473 0.399,-0.441 0.304,-0.485 0.344,-0.476 0.266,-0.52 0.254,-0.527 0.265,-0.519 0.219,-0.567 0.18,-0.562 0.175,-0.571 0.129,-0.609 0.125,-0.609 0.09,-0.571 0.043,-0.652 V 66.918 H 367.195 V 66.18 l 0.043,-0.477 0.043,-0.484 0.09,-0.43 0.133,-0.484 0.121,-0.434 0.219,-0.394 0.222,-0.434 0.219,-0.395 0.258,-0.343 0.309,-0.352 0.351,-0.344 0.344,-0.308 0.351,-0.266 0.387,-0.262 0.442,-0.214 z m 28.453,23.449 V 80.52 l 0.344,0.433 0.395,0.395 0.433,0.386 0.395,0.352 0.433,0.344 0.473,0.308 0.484,0.266 0.477,0.254 0.527,0.222 0.477,0.176 0.574,0.176 0.52,0.121 0.519,0.133 0.57,0.047 0.567,0.086 h 1.039 l 0.527,-0.043 0.477,-0.09 0.476,-0.086 0.957,-0.211 0.918,-0.355 0.872,-0.43 0.828,-0.484 0.785,-0.563 0.695,-0.652 0.652,-0.696 0.563,-0.793 0.484,-0.82 0.434,-0.828 0.309,-0.926 0.261,-0.949 0.078,-0.531 0.047,-0.473 0.051,-0.531 0.035,-0.473 V 54.367 h -5.918 v 18.649 l -0.09,0.617 -0.175,0.562 -0.176,0.528 -0.254,0.519 -0.309,0.477 -0.308,0.441 -0.387,0.442 -0.441,0.386 -0.43,0.344 -0.477,0.262 -0.527,0.265 -0.566,0.211 -0.571,0.133 -0.566,0.09 -0.606,0.043 -0.609,-0.043 -0.562,-0.09 -0.575,-0.133 -0.519,-0.211 -0.52,-0.265 -0.484,-0.262 -0.477,-0.344 -0.394,-0.386 -0.387,-0.442 -0.355,-0.441 -0.297,-0.477 -0.223,-0.519 -0.219,-0.528 -0.133,-0.562 -0.078,-0.617 -0.043,-0.563 V 54.367 h -5.886 v 29.465 z m 32.407,-11.379 v -7.234 l 0.086,-0.606 0.175,-0.574 0.168,-0.519 0.266,-0.52 0.309,-0.484 0.343,-0.485 0.352,-0.386 0.43,-0.387 0.441,-0.356 0.477,-0.261 0.519,-0.258 0.57,-0.219 0.567,-0.133 0.562,-0.086 0.617,-0.047 0.606,0.047 0.566,0.086 0.563,0.133 0.519,0.219 0.528,0.258 0.484,0.261 0.477,0.356 0.386,0.387 0.399,0.386 0.351,0.485 0.301,0.484 0.438,1.039 0.125,0.574 0.089,0.606 0.043,0.566 v 6.668 l -0.043,0.563 -0.089,0.617 -0.125,0.562 -0.219,0.528 -0.219,0.519 -0.301,0.477 -0.351,0.441 -0.399,0.442 -0.386,0.386 -0.477,0.344 -0.484,0.262 -0.528,0.265 -0.519,0.211 -0.563,0.133 -0.566,0.09 -0.606,0.043 -0.617,-0.043 -0.562,-0.09 -0.567,-0.133 -0.57,-0.211 -0.519,-0.265 -0.477,-0.262 -0.441,-0.344 -0.43,-0.386 -0.352,-0.442 -0.343,-0.441 -0.309,-0.477 -0.266,-0.519 -0.168,-0.528 -0.175,-0.562 -0.086,-0.617 z m 0,8.067 0.339,0.433 0.399,0.395 0.394,0.386 0.434,0.352 0.441,0.344 0.473,0.308 0.477,0.266 0.484,0.254 0.477,0.222 1.039,0.352 0.527,0.121 0.566,0.133 0.52,0.047 0.57,0.086 h 1.094 l 0.477,-0.043 0.519,-0.09 0.484,-0.086 0.95,-0.211 0.918,-0.355 0.871,-0.43 0.828,-0.484 0.738,-0.563 0.695,-0.652 0.665,-0.696 0.562,-0.793 0.52,-0.82 0.394,-0.828 0.344,-0.926 0.265,-0.949 0.09,-0.531 0.043,-0.473 0.043,-0.531 V 63.434 l -0.043,-0.477 -0.043,-0.531 -0.09,-0.473 -0.265,-0.961 -0.344,-0.918 -0.394,-0.871 -0.52,-0.785 -0.562,-0.781 -0.665,-0.696 -0.695,-0.652 -0.738,-0.566 -0.828,-0.485 -0.871,-0.429 -0.434,-0.176 -0.484,-0.176 -0.477,-0.133 -0.473,-0.09 -0.484,-0.078 -0.519,-0.097 -0.477,-0.043 h -1.094 l -0.57,0.043 -0.52,0.097 -0.566,0.125 -0.527,0.133 -0.52,0.176 -0.519,0.164 -0.477,0.223 -0.484,0.261 -0.477,0.266 -0.473,0.301 -0.441,0.351 -0.434,0.344 -0.793,0.793 -0.339,0.43 v -3.356 h -5.93 v 41.27 h 5.93 z m 43.422,-22.797 -0.387,-0.43 -0.344,-0.398 -0.441,-0.395 -0.438,-0.344 -0.433,-0.351 -0.442,-0.301 -0.473,-0.266 -0.476,-0.261 -0.52,-0.223 -0.531,-0.164 -0.519,-0.176 -0.528,-0.133 -0.519,-0.125 -0.563,-0.097 -0.566,-0.043 h -1.047 l -0.527,0.043 -0.477,0.097 -0.519,0.078 -0.485,0.09 -0.476,0.133 -0.438,0.176 -0.434,0.176 -0.871,0.429 -0.828,0.485 -0.785,0.566 -0.695,0.652 -0.653,0.696 -0.57,0.781 -0.476,0.785 -0.434,0.871 -0.176,0.485 -0.176,0.433 -0.132,0.477 -0.086,0.484 -0.09,0.473 -0.086,0.531 -0.035,0.477 v 20.398 h 5.875 V 65.785 l 0.043,-0.566 0.086,-0.606 0.132,-0.574 0.223,-0.519 0.254,-0.52 0.266,-0.484 0.343,-0.485 0.395,-0.386 0.434,-0.387 0.437,-0.356 0.477,-0.261 0.519,-0.258 0.527,-0.219 0.567,-0.133 0.617,-0.086 0.606,-0.047 0.566,0.047 0.613,0.086 0.567,0.133 0.519,0.219 0.527,0.258 0.477,0.261 0.477,0.356 0.386,0.387 0.395,0.386 0.351,0.485 0.266,0.484 0.254,0.52 0.223,0.519 0.121,0.574 0.097,0.606 0.036,0.566 v 18.047 h 5.886 V 54.367 h -5.886 z m 20.613,26.109 V 80.52 l 0.344,0.433 0.394,0.395 0.434,0.386 0.394,0.352 0.434,0.344 0.484,0.308 0.473,0.266 0.476,0.254 0.528,0.222 0.476,0.176 0.532,0.176 0.562,0.121 0.52,0.133 0.57,0.047 0.566,0.086 h 0.52 l 0.871,-0.043 0.828,-0.09 0.828,-0.211 0.828,-0.219 0.785,-0.308 0.739,-0.387 0.695,-0.441 0.695,-0.52 -4.175,-5.145 -0.438,0.309 -0.434,0.301 -0.484,0.262 -0.476,0.222 -0.485,0.176 -0.519,0.078 -0.52,0.09 -0.57,0.043 -0.61,-0.043 -0.562,-0.09 -0.563,-0.133 -0.531,-0.211 -0.519,-0.265 -0.485,-0.262 -0.476,-0.344 -0.395,-0.386 -0.387,-0.442 -0.351,-0.441 -0.301,-0.477 -0.219,-0.519 -0.222,-0.528 -0.133,-0.562 -0.078,-0.617 -0.043,-0.563 V 54.367 h -5.887 v 29.465 z m 22.82,-11.379 0.047,0.563 0.086,0.617 0.125,0.562 0.176,0.528 0.261,0.519 0.309,0.477 0.344,0.441 0.351,0.442 0.442,0.386 0.433,0.344 0.52,0.262 0.484,0.265 0.563,0.211 0.562,0.133 0.567,0.09 0.617,0.043 0.605,-0.043 0.563,-0.09 0.566,-0.133 0.571,-0.211 0.476,-0.265 0.52,-0.262 0.441,-0.344 0.43,-0.386 0.355,-0.442 0.34,-0.441 0.309,-0.477 0.265,-0.519 0.176,-0.528 0.168,-0.562 0.098,-0.617 v -7.797 l -0.098,-0.606 -0.168,-0.574 -0.176,-0.519 -0.265,-0.52 -0.309,-0.484 -0.34,-0.485 -0.355,-0.386 -0.43,-0.387 -0.441,-0.356 -0.52,-0.261 -0.476,-0.258 -0.571,-0.219 -0.566,-0.133 -0.563,-0.086 -0.605,-0.047 -0.617,0.047 -0.567,0.086 -0.562,0.133 -0.563,0.219 -0.484,0.258 -0.52,0.261 -0.433,0.356 -0.442,0.387 -0.351,0.386 -0.344,0.485 -0.309,0.484 -0.261,0.52 -0.176,0.519 -0.125,0.574 -0.086,0.606 -0.047,0.566 z m 5.145,-30.371 h 0.785 l 0.781,0.086 0.785,0.09 0.742,0.176 0.739,0.175 0.738,0.254 0.742,0.309 0.695,0.308 0.739,0.387 0.699,0.485 0.648,0.476 0.618,0.52 0.566,0.566 0.57,0.613 0.477,0.61 0.43,0.695 0.39,0.695 0.352,0.743 0.308,0.746 0.254,0.742 0.219,0.828 0.133,0.781 0.09,0.821 0.043,0.828 v 29.816 h -5.918 V 80.52 l -0.352,0.433 -0.398,0.395 -0.387,0.386 -0.441,0.352 -0.43,0.344 -0.477,0.308 -0.484,0.266 -0.477,0.254 -0.484,0.222 -1.039,0.352 -0.527,0.121 -0.567,0.133 -0.562,0.047 -0.528,0.086 h -1.086 l -0.519,-0.043 -0.485,-0.09 -0.484,-0.086 -0.949,-0.211 -0.918,-0.355 -0.871,-0.43 -0.828,-0.484 -0.739,-0.563 -0.695,-0.652 -0.664,-0.696 -0.562,-0.793 -0.52,-0.82 -0.395,-0.828 -0.175,-0.484 -0.168,-0.442 -0.133,-0.476 -0.125,-0.473 -0.098,-0.531 -0.043,-0.473 -0.035,-0.531 V 63.434 l 0.035,-0.477 0.043,-0.531 0.098,-0.473 0.125,-0.484 0.133,-0.477 0.168,-0.433 0.175,-0.485 0.395,-0.871 0.52,-0.785 0.562,-0.781 0.664,-0.696 0.695,-0.652 0.739,-0.566 0.828,-0.485 0.871,-0.429 0.433,-0.176 0.485,-0.176 0.476,-0.133 0.473,-0.09 0.484,-0.078 0.485,-0.097 0.519,-0.043 h 1.086 l 0.528,0.043 0.562,0.097 0.567,0.125 0.527,0.133 0.519,0.176 0.52,0.164 0.484,0.223 0.477,0.261 0.484,0.266 0.477,0.301 0.43,0.351 0.441,0.344 0.387,0.395 0.398,0.398 0.352,0.43 v -4.137 l -0.043,-0.398 -0.098,-0.387 -0.082,-0.387 -0.129,-0.398 -0.133,-0.387 -0.176,-0.352 -0.21,-0.343 -0.223,-0.352 -0.262,-0.309 -0.258,-0.308 -0.261,-0.301 -0.356,-0.266 -0.308,-0.21 -0.688,-0.438 -0.437,-0.176 -0.399,-0.168 -0.387,-0.133 -0.441,-0.132 -0.43,-0.09 -0.441,-0.043 -0.43,-0.043 h -0.875 l -0.386,0.043 -0.442,0.043 -0.387,0.09 -0.828,0.211 -0.738,0.351 -0.742,0.391 -0.703,0.484 -0.301,0.262 -0.309,0.258 -0.308,0.308 -0.254,0.352 -4.578,-3.754 0.484,-0.563 0.527,-0.527 0.563,-0.523 0.562,-0.473 0.61,-0.441 0.609,-0.387 0.66,-0.399 0.653,-0.308 0.652,-0.297 0.695,-0.266 0.703,-0.254 0.731,-0.175 0.742,-0.133 0.738,-0.09 0.75,-0.086 z" /></g></g></g></g></g></g></svg>