<?xml version="1.0" encoding="UTF-8" standalone="no"?>
<svg
   xmlns:dc="http://purl.org/dc/elements/1.1/"
   xmlns:cc="http://creativecommons.org/ns#"
   xmlns:rdf="http://www.w3.org/1999/02/22-rdf-syntax-ns#"
   xmlns:svg="http://www.w3.org/2000/svg"
   xmlns="http://www.w3.org/2000/svg"
   viewBox="0 0 1000.9709 333.97653"
   height="333.97653"
   width="1000.9709"
   xml:space="preserve"
   id="svg7545"
   version="1.1"><metadata
     id="metadata7551"><rdf:RDF><cc:Work
         rdf:about=""><dc:format>image/svg+xml</dc:format><dc:type
           rdf:resource="http://purl.org/dc/dcmitype/StillImage" /><dc:title></dc:title></cc:Work></rdf:RDF></metadata><defs
     id="defs7549"><clipPath
       id="clipPath7567"
       clipPathUnits="userSpaceOnUse"><path
         id="path7565"
         d="M 0,0 H 751 V 251 H 0 Z" /></clipPath></defs><g
     transform="matrix(1.3333333,0,0,-1.3333333,0,333.97654)"
     id="g7553"><g
       id="g7555" /><g
       id="g7557"><g
         transform="translate(0,-0.517593)"
         id="g7559"><g
           id="g7561"><g
             clip-path="url(#clipPath7567)"
             id="g7563"><g
               id="g7569"><path
                 id="path7571"
                 style="fill:#ffffff;fill-opacity:1;fill-rule:nonzero;stroke:none"
                 d="M 30.074,250.637 C 13.691,250.637 0.367,237.313 0.367,220.93 V 30.605 C 0.367,14.211 13.691,0.887 30.074,0.887 h 690.574 c 16.383,0 29.719,13.324 29.719,29.718 V 220.93 c 0,16.383 -13.336,29.707 -29.719,29.707 z" /><path
                 id="path7573"
                 style="fill:#000000;fill-opacity:1;fill-rule:nonzero;stroke:none"
                 d="M 30.086,251 C 13.5,251 0,237.527 0,220.941 V 30.602 C 0,14.004 13.5,0.52 30.086,0.52 h 690.559 c 16.585,0 30.082,13.484 30.082,30.082 v 190.339 c 0,16.586 -13.497,30.059 -30.082,30.059 z m -0.012,-0.363 h 690.574 c 16.383,0 29.719,-13.324 29.719,-29.707 V 30.605 c 0,-16.394 -13.336,-29.718 -29.719,-29.718 H 30.074 C 13.691,0.887 0.367,14.211 0.367,30.605 V 220.93 c 0,16.383 13.324,29.707 29.707,29.707 z" /></g></g></g></g><path
         id="path7575"
         style="fill:#633a34;fill-opacity:1;fill-rule:nonzero;stroke:none"
         d="m 30.074,11.271 c -10.386,0 -18.804,8.43 -18.804,18.817 v 190.324 c 0,10.387 8.418,18.801 18.804,18.801 h 690.574 c 10.387,0 18.813,-8.414 18.813,-18.801 V 30.088 c 0,-10.387 -8.426,-18.817 -18.813,-18.817" /><path
         id="path7577"
         style="fill:#ffffff;fill-opacity:1;fill-rule:nonzero;stroke:none"
         d="m 619.855,72.588 v 12.223 l 37.618,49.839 H 621.73 v 13.161 h 54.547 V 136.525 L 638.656,86.686 h 37.621 V 72.588 Z m -16.925,0 h -9.41 c -9.34,0 -16.926,7.586 -16.926,16.926 v 46.074 h -7.52 v 12.223 h 7.52 v 22.57 h 15.051 v -22.57 H 602.93 V 135.588 H 591.645 V 91.389 c 0,-2.598 2.109,-4.703 4.703,-4.703 h 6.582 z m -45.137,0 h -9.41 c -9.34,0 -16.91,7.586 -16.91,16.926 v 88.382 h 15.035 V 91.389 c 0,-2.598 2.109,-4.703 4.703,-4.703 h 6.582 z m -114.719,0 v 105.308 h 67.703 v -15.035 h -51.714 v -30.086 h 44.199 V 118.662 H 459.063 V 87.639 h 51.714 V 72.588 Z m -90.277,29.148 v 16.926 c 0,8.32 -6.727,15.051 -15.047,15.051 -8.297,0 -15.039,-6.731 -15.039,-15.051 v -16.926 c 0,-8.308 6.742,-15.05 15.039,-15.05 8.32,0 15.047,6.742 15.047,15.05 z m 15.051,46.075 V 71.65 c 0,-11.394 -6.446,-21.82 -16.641,-26.921 -14.371,-7.192 -31.812,-3.426 -41.941,9.042 l 11.664,9.504 c 5.699,-7.004 15.484,-9.125 23.547,-5.086 5.097,2.543 8.32,7.75 8.32,13.461 v 9.434 C 343.988,70.166 328,68.467 317.098,77.291 c -5.969,4.813 -9.438,12.074 -9.438,19.742 v 26.336 c 0,14.016 11.367,25.383 25.399,25.383 7.668,0 14.925,-3.469 19.738,-9.422 v 8.481 z M 249.363,72.588 v 75.223 h 15.051 v -8.485 c 8.809,10.906 24.797,12.606 35.703,3.781 0.012,0 0.012,-0.011 0.028,-0.011 l -10.688,-13.188 c -6.211,5.52 -15.715,4.961 -21.234,-1.238 -2.461,-2.758 -3.809,-6.324 -3.809,-10.008 V 72.588 Z m -22.57,0 h -15.047 v 8.496 c -8.812,-10.918 -24.801,-12.617 -35.703,-3.793 -5.957,4.813 -9.438,12.074 -9.438,19.742 v 50.778 h 15.051 v -46.075 c 0,-8.304 6.746,-15.05 15.051,-15.05 8.309,0 15.039,6.746 15.039,15.05 v 46.075 h 15.047 z M 90.445,133.713 h 25.383 c 8.32,0 15.051,6.73 15.051,15.035 0,8.32 -6.731,15.051 -15.051,15.051 H 90.445 Z m 0,-46.074 h 26.336 c 8.821,0 15.973,7.148 15.973,15.972 0,8.84 -7.152,15.989 -15.973,15.989 H 90.445 Z M 74.457,72.588 v 105.308 h 43.262 c 15.578,0 28.211,-12.613 28.211,-28.195 0,-9.219 -4.489,-17.836 -12.032,-23.113 13.715,-8.414 18.028,-26.375 9.61,-40.094 -5.301,-8.644 -14.711,-13.906 -24.852,-13.906" /></g></g></svg>