<?xml version="1.0" encoding="UTF-8" standalone="no"?>
<svg
   xmlns:dc="http://purl.org/dc/elements/1.1/"
   xmlns:cc="http://creativecommons.org/ns#"
   xmlns:rdf="http://www.w3.org/1999/02/22-rdf-syntax-ns#"
   xmlns:svg="http://www.w3.org/2000/svg"
   xmlns="http://www.w3.org/2000/svg"
   viewBox="0 0 421.02548 630.72314"
   height="630.72314"
   width="421.02548"
   xml:space="preserve"
   version="1.1"
   id="svg3943"><metadata
     id="metadata3949"><rdf:RDF><cc:Work
         rdf:about=""><dc:format>image/svg+xml</dc:format><dc:type
           rdf:resource="http://purl.org/dc/dcmitype/StillImage" /><dc:title></dc:title></cc:Work></rdf:RDF></metadata><defs
     id="defs3947" /><g
     transform="matrix(1.25,0,0,-1.25,0,630.72315)"
     id="g3951"><g
       id="g3953"><path
         id="path3955"
         style="fill:#ffffff;fill-opacity:1;fill-rule:evenodd;stroke:none"
         d="m 23.035,0.399 291.195,0 c 22.301,0 22.192,18.187 22.192,18.187 l 0,467.641 c 0,0 0.144,17.949 -19.176,17.949 l -297.039,0 c 0,0 -19.766,0.328 -19.809,-19.742 l 0,-464.051 C 0.398,0.352 23.035,0.399 23.035,0.399 Z" /><path
         id="path3957"
         style="fill:#154889;fill-opacity:1;fill-rule:evenodd;stroke:none"
         d="m 19.648,9.305 297.622,0 c 0,0 10.828,0.027 10.828,10.953 l 0,464.926 c 0,0 -0.008,10.73 -11.981,10.73 l -295.312,0 c 0,0 -11.895,0 -11.895,-10.726 l 0,-465.613 C 8.949,9.196 19.648,9.305 19.648,9.305 Z" /><path
         id="path3959"
         style="fill:#000000;fill-opacity:1;fill-rule:evenodd;stroke:none"
         d="m 20.207,504.579 c -0.008,0 -5.023,0.085 -10.062,-2.387 C 5.098,499.715 0.02,494.602 0,484.438 L 0,20.383 C 0,10.219 5.805,5.047 11.555,2.512 17.305,-0.019 23.035,0 23.035,0 L 314.23,0 c 11.258,0 16.977,4.637 19.801,9.286 2.821,4.648 2.789,9.296 2.789,9.296 l 0,467.645 c 0,0.004 0.039,4.578 -2.39,9.164 -2.43,4.586 -7.399,9.188 -17.184,9.188 l -297.039,0 z m 0,-0.403 297.039,0 c 19.32,0 19.176,-17.949 19.176,-17.949 l 0,-467.645 c 0,0 0.109,-18.183 -22.192,-18.183 l -291.195,0 c 0,0 -22.637,-0.047 -22.637,19.98 l 0,464.055 c 0.043,20.07 19.809,19.742 19.809,19.742 z" /><path
         id="path3961"
         style="fill:#ffffff;fill-opacity:1;fill-rule:nonzero;stroke:none"
         d="m 54.734,450.586 0,-227.535 227.539,0 0,227.535 -227.539,0 z" /><path
         id="path3963"
         style="fill:#0c0b09;fill-opacity:1;fill-rule:evenodd;stroke:none"
         d="m 66.223,259.379 0,73.641 15.777,37.406 29.219,28.055 37.996,15.785 39.144,0 37.414,-15.785 29.219,-28.055 15.789,-37.406 0,-73.641 -204.558,0 z m 16.945,2.926 -14.027,0 0,29.227 14.027,0 0,-29.227 z m -14.027,32.145 0,36.476 15.078,-5.566 c -0.02,-0.137 -0.035,-0.266 -0.063,-0.399 -0.14,-0.929 -0.273,-1.867 -0.383,-2.793 -0.101,-0.894 -0.199,-1.785 -0.269,-2.679 -0.09,-0.883 -0.152,-1.778 -0.203,-2.676 -0.035,-0.711 -0.074,-1.422 -0.09,-2.141 -0.027,-0.761 -0.043,-1.531 -0.043,-2.289 l 0,-17.933 -14.027,0 z m 0.589,39.339 14.172,33.586 12.239,-10.152 c -0.157,-0.266 -0.328,-0.531 -0.485,-0.805 -1.152,-1.867 -2.23,-3.785 -3.218,-5.746 -0.954,-1.855 -1.829,-3.746 -2.625,-5.676 -0.813,-1.925 -1.547,-3.871 -2.208,-5.859 -0.542,-1.582 -1.015,-3.172 -1.46,-4.789 -0.469,-1.715 -0.883,-3.441 -1.227,-5.18 -0.074,-0.308 -0.125,-0.621 -0.195,-0.929 l -14.993,5.55 z m 15.813,36 26.242,25.172 7.785,-13.074 c -0.254,-0.164 -0.511,-0.351 -0.769,-0.531 -1.781,-1.277 -3.524,-2.621 -5.196,-4.039 -1.609,-1.344 -3.156,-2.738 -4.636,-4.203 -1.508,-1.453 -2.946,-2.961 -4.324,-4.528 -1.114,-1.246 -2.172,-2.527 -3.207,-3.843 -1.106,-1.395 -2.168,-2.821 -3.168,-4.286 -0.172,-0.257 -0.352,-0.523 -0.54,-0.777 l -12.187,10.109 z m 28.691,26.782 34.153,14.183 2.394,-15.308 c -0.308,-0.063 -0.609,-0.121 -0.918,-0.192 -2.148,-0.48 -4.269,-1.035 -6.363,-1.687 -2,-0.606 -3.973,-1.293 -5.914,-2.055 -1.945,-0.742 -3.863,-1.57 -5.746,-2.48 -1.512,-0.707 -2.996,-1.469 -4.465,-2.274 -1.555,-0.855 -3.082,-1.758 -4.586,-2.715 -0.266,-0.164 -0.531,-0.343 -0.797,-0.511 l -7.758,13.039 z m 37.016,14.769 34.496,0 -2.402,-15.328 c -0.153,0.027 -0.293,0.047 -0.446,0.07 -1.035,0.188 -2.058,0.336 -3.101,0.481 -0.981,0.129 -1.973,0.246 -2.961,0.344 -0.988,0.086 -1.981,0.175 -2.969,0.238 -0.793,0.043 -1.601,0.086 -2.375,0.113 -0.859,0.028 -1.707,0.047 -2.551,0.055 l -0.89,0 c -0.301,-0.012 -0.598,-0.012 -0.891,-0.012 -0.754,-0.015 -1.504,-0.035 -2.246,-0.062 -0.988,-0.043 -1.988,-0.102 -2.98,-0.184 -0.989,-0.07 -1.977,-0.16 -2.969,-0.273 -0.789,-0.09 -1.582,-0.184 -2.371,-0.301 -0.84,-0.113 -1.668,-0.25 -2.5,-0.399 -0.149,-0.023 -0.301,-0.043 -0.442,-0.07 l -2.402,15.328 z m 116.605,-149.035 -14.027,0 0,29.227 14.027,0 0,-29.227 z m 0,32.145 -14.027,0 0,17.933 c 0,0.946 -0.027,1.883 -0.062,2.821 -0.036,0.898 -0.078,1.792 -0.149,2.675 -0.062,0.903 -0.133,1.797 -0.23,2.68 -0.063,0.715 -0.149,1.422 -0.239,2.141 -0.097,0.761 -0.195,1.507 -0.32,2.261 -0.015,0.133 -0.035,0.262 -0.062,0.399 l 15.089,5.566 0,-36.476 z m -14.753,72.925 14.16,-33.586 -15,-5.55 c -0.059,0.308 -0.121,0.621 -0.184,0.929 -0.441,2.141 -0.965,4.278 -1.582,6.379 -0.562,2.016 -1.219,3.996 -1.945,5.957 -0.707,1.957 -1.5,3.891 -2.375,5.782 -0.692,1.531 -1.426,3.023 -2.199,4.5 -0.836,1.574 -1.711,3.128 -2.637,4.632 -0.168,0.274 -0.328,0.539 -0.496,0.805 l 12.258,10.152 z m -27.891,27.586 26.23,-25.172 -12.187,-10.109 c -0.176,0.254 -0.352,0.52 -0.531,0.777 -1.246,1.801 -2.551,3.559 -3.942,5.266 -1.316,1.637 -2.695,3.199 -4.117,4.711 -1.434,1.531 -2.918,2.996 -4.457,4.402 -1.227,1.129 -2.492,2.215 -3.789,3.278 -1.379,1.132 -2.777,2.211 -4.227,3.242 -0.253,0.18 -0.519,0.367 -0.777,0.531 l 7.797,13.074 z m -36.602,15.793 34.153,-14.183 -7.77,-13.039 c -0.265,0.168 -0.523,0.339 -0.797,0.511 -1.847,1.18 -3.746,2.286 -5.683,3.309 -1.848,0.98 -3.731,1.891 -5.637,2.73 -1.91,0.84 -3.844,1.618 -5.805,2.305 -1.582,0.567 -3.164,1.07 -4.773,1.539 -1.707,0.496 -3.442,0.945 -5.164,1.328 -0.309,0.071 -0.621,0.129 -0.918,0.192 l 2.394,15.308" /><path
         id="path3965"
         style="fill:#ffffff;fill-opacity:1;fill-rule:nonzero;stroke:none"
         d="m 50.902,142.223 -22,-21.992 0,-15.414 16.317,16.301 0,-75.114 11.371,0 0,75.114 16.312,-16.301 0,15.414 -22,21.992 z" /><path
         id="path3967"
         style="fill:#ffffff;fill-opacity:1;fill-rule:nonzero;stroke:none"
         d="m 286.105,142.223 -22,-21.992 0,-15.414 16.313,16.301 0,-75.114 11.371,0 0,75.114 16.316,-16.301 0,15.414 -22,21.992 z" /><path
         id="path3969"
         style="fill:#ffffff;fill-opacity:1;fill-rule:nonzero;stroke:none"
         d="m 106.535,91.094 c 0,-2.473 -2.125,-4.418 -4.422,-4.418 -2.297,0 -4.418,1.945 -4.418,4.418 l 0,9.195 c 0,2.473 2.121,4.418 4.418,4.418 2.297,0 4.422,-1.945 4.422,-4.418 l 0,-9.195 z m -17.859,5.66 c 0,-7.425 0.179,-9.992 4.508,-13.437 -4.329,-3.27 -4.508,-5.922 -4.508,-15.469 0,-7.691 0.621,-9.812 2.476,-12.555 2.032,-3.093 5.746,-5.566 10.961,-5.566 5.215,0 8.93,2.473 10.961,5.566 1.856,2.743 2.477,4.864 2.477,12.555 0,9.547 -0.176,12.199 -4.508,15.469 4.332,3.445 4.508,6.012 4.508,13.437 0,6.895 -0.883,9.102 -3.27,12.11 -2.386,3.093 -6.101,4.863 -10.168,4.863 -4.066,0 -7.777,-1.77 -10.164,-4.863 -2.386,-3.008 -3.273,-5.215 -3.273,-12.11 z m 17.859,-33.593 c 0,-2.473 -2.125,-4.418 -4.422,-4.418 -2.297,0 -4.418,1.945 -4.418,4.418 l 0,12.375 c 0,2.476 2.121,4.421 4.418,4.421 2.297,0 4.422,-1.945 4.422,-4.421 l 0,-12.375 z" /><path
         id="path3971"
         style="fill:#ffffff;fill-opacity:1;fill-rule:nonzero;stroke:none"
         d="m 123.805,63.25 c 0,-8.398 6.277,-13.523 13.437,-13.523 7.16,0 13.434,5.125 13.434,13.523 l 0,36.95 c 0,8.398 -6.274,13.527 -13.434,13.527 -7.16,0 -13.437,-5.129 -13.437,-13.527 l 0,-36.95 z m 9.015,36.95 c 0,2.562 1.856,4.507 4.422,4.507 2.563,0 4.418,-1.945 4.418,-4.507 l 0,-36.95 c 0,-2.562 -1.855,-4.507 -4.418,-4.507 -2.566,0 -4.422,1.945 -4.422,4.507 l 0,36.95 z" /><path
         id="path3973"
         style="fill:#ffffff;fill-opacity:1;fill-rule:nonzero;stroke:none"
         d="m 158.93,63.25 c 0,-8.398 6.277,-13.523 13.437,-13.523 7.16,0 13.438,5.125 13.438,13.523 l 0,36.95 c 0,8.398 -6.278,13.527 -13.438,13.527 -7.16,0 -13.437,-5.129 -13.437,-13.527 l 0,-36.95 z m 9.019,36.95 c 0,2.562 1.856,4.507 4.418,4.507 2.563,0 4.422,-1.945 4.422,-4.507 l 0,-36.95 c 0,-2.562 -1.859,-4.507 -4.422,-4.507 -2.562,0 -4.418,1.945 -4.418,4.507 l 0,36.95 z" /><path
         id="path3975"
         style="fill:#ffffff;fill-opacity:1;fill-rule:nonzero;stroke:none"
         d="m 203.426,50.254 9.015,0 0,30.145 c 0,3.976 1.149,6.187 4.508,6.187 2.828,0 4.422,-2.031 4.422,-5.304 l 0,-31.028 9.016,0 0,30.145 c 0,3.976 1.148,6.187 4.508,6.187 2.828,0 4.418,-2.031 4.418,-5.304 l 0,-31.028 9.019,0 0,34.387 c 0,8.047 -5.305,10.961 -9.812,10.961 -4.774,0 -7.161,-2.031 -9.372,-4.508 -1.589,2.211 -4.156,4.508 -8.043,4.508 -4.156,0 -6.632,-2.031 -8.488,-4.859 l -0.176,0 0,4.332 -9.015,0 0,-44.821 z" /></g></g></svg>