<?xml version="1.0" encoding="UTF-8" standalone="no"?>
<svg
   xmlns:dc="http://purl.org/dc/elements/1.1/"
   xmlns:cc="http://creativecommons.org/ns#"
   xmlns:rdf="http://www.w3.org/1999/02/22-rdf-syntax-ns#"
   xmlns:svg="http://www.w3.org/2000/svg"
   xmlns="http://www.w3.org/2000/svg"
   viewBox="0 0 421.02505 630.72418"
   height="630.72418"
   width="421.02505"
   xml:space="preserve"
   version="1.1"
   id="svg4250"><metadata
     id="metadata4256"><rdf:RDF><cc:Work
         rdf:about=""><dc:format>image/svg+xml</dc:format><dc:type
           rdf:resource="http://purl.org/dc/dcmitype/StillImage" /><dc:title></dc:title></cc:Work></rdf:RDF></metadata><defs
     id="defs4254"><clipPath
       id="clipPath4276"
       clipPathUnits="userSpaceOnUse"><path
         id="path4278"
         d="m 170,395.579 127,0 0,-144 -127,0 0,144 z" /></clipPath><clipPath
       id="clipPath4286"
       clipPathUnits="userSpaceOnUse"><path
         id="path4288"
         d="m 170,252 127,0 0,144 -127,0 0,-144 z" /></clipPath></defs><g
     transform="matrix(1.25,0,0,-1.25,0,630.72418)"
     id="g4258"><g
       id="g4260"><path
         id="path4262"
         style="fill:#ffffff;fill-opacity:1;fill-rule:evenodd;stroke:none"
         d="m 23.035,0.4 291.195,0 c 22.301,0 22.192,18.187 22.192,18.187 l 0,467.641 c 0,0 0.144,17.949 -19.176,17.949 l -297.039,0 c 0,0 -19.766,0.328 -19.809,-19.742 l 0,-464.051 C 0.398,0.353 23.035,0.4 23.035,0.4 Z" /><path
         id="path4264"
         style="fill:#154889;fill-opacity:1;fill-rule:evenodd;stroke:none"
         d="m 19.648,9.306 297.622,0 c 0,0 10.828,0.027 10.828,10.953 l 0,464.926 c 0,0 -0.008,10.73 -11.981,10.73 l -295.312,0 c 0,0 -11.895,0 -11.895,-10.726 l 0,-465.614 C 8.949,9.197 19.648,9.306 19.648,9.306 Z" /><path
         id="path4266"
         style="fill:#000000;fill-opacity:1;fill-rule:evenodd;stroke:none"
         d="m 20.207,504.579 c -0.008,0 -5.023,0.086 -10.062,-2.386 C 5.098,499.716 0.02,494.603 0,484.439 L 0,20.384 C 0,10.22 5.805,5.048 11.555,2.513 c 5.75,-2.531 11.48,-2.512 11.48,-2.512 l 291.195,0 c 11.258,0 16.977,4.637 19.801,9.285 2.821,4.649 2.789,9.297 2.789,9.297 l 0,467.645 c 0,0.004 0.039,4.578 -2.39,9.164 -2.43,4.586 -7.399,9.187 -17.184,9.187 l -297.039,0 z m 0,-0.402 297.039,0 c 19.32,0 19.176,-17.949 19.176,-17.949 l 0,-467.645 c 0,0 0.109,-18.183 -22.192,-18.183 l -291.195,0 c 0,0 -22.637,-0.047 -22.637,19.98 l 0,464.055 c 0.043,20.07 19.809,19.742 19.809,19.742 z" /><path
         id="path4268"
         style="fill:#ffffff;fill-opacity:1;fill-rule:nonzero;stroke:none"
         d="m 216.203,215.548 c 4.246,0.012 8.172,-2.324 10.18,-6.113 l 21.312,-40.281 c 1.5,-2.836 3.332,-5.504 5.45,-7.93 l 3.027,-3.449 c 1.976,-2.246 3.156,-5.071 3.387,-8.055 l 2.269,-29.789 c 0.477,-6.313 -4.258,-11.84 -10.594,-12.313 L 81.652,94.669 c -6.336,-0.484 -11.863,4.262 -12.34,10.586 l -2.269,29.801 c -0.231,2.961 0.527,5.937 2.117,8.453 l 2.477,3.875 c 1.734,2.719 3.144,5.629 4.195,8.656 l 14.957,43.039 c 1.488,4.325 5.414,7.352 9.953,7.688 l 114.61,8.746 c 0.285,0.023 0.57,0.035 0.851,0.035 z m -2.07,-11.707 c -0.223,0.016 -0.449,0.016 -0.676,0 L 104.41,195.529 c -1.832,-0.129 -3.398,-1.348 -4,-3.079 l -12.992,-37.41 148.973,11.367 -18.524,35.008 c -0.754,1.403 -2.172,2.317 -3.734,2.426 z m 37.457,-100.816 1.926,-25.211 c 0.296,-3.797 -2.551,-7.121 -6.352,-7.399 l -13.75,-1.039 c -3.797,-0.297 -7.109,2.551 -7.402,6.336 l -1.922,25.203 27.5,2.11 z M 109.504,92.181 111.43,66.974 c 0.281,-3.797 -2.567,-7.106 -6.364,-7.387 L 91.328,58.536 c -3.808,-0.308 -7.121,2.551 -7.414,6.348 l -1.91,25.211 27.5,2.086 z m 185,-22.832 0,-27.094 -252,0 0,16.254 138.187,0 0,10.84 113.813,0 z" /><path
         id="path4270"
         style="fill:#ffffff;fill-opacity:1;fill-rule:nonzero;stroke:none"
         d="m 68.422,377.548 42.773,0 c 16.035,0 29.785,12.984 29.785,29.785 0,16.039 -13.75,29.024 -29.785,29.024 l -42.773,0 0,-58.809 z m -27.496,-98.523 0,183.3 71.793,0 c 30.551,0 55.754,-24.441 55.754,-54.992 0,-31.312 -25.203,-55.754 -55.754,-55.754 l -44.297,0 0,-72.554" /></g><g
       id="g4272"><g
         clip-path="url(#clipPath4276)"
         id="g4274"><g
           transform="translate(0,-0.420654)"
           id="g4280"><g
             id="g4282"><g
               clip-path="url(#clipPath4286)"
               id="g4284"><g
                 id="g4290"><path
                   id="path4292"
                   style="fill:#ffffff;fill-opacity:1;fill-rule:nonzero;stroke:none"
                   d="m 170.141,359.938 35.968,35.835 19.965,0 -27.957,-27.875 97.965,0 0,-15.921 -97.965,0 27.957,-27.875 -19.965,0 -35.968,35.836 z m 125.941,-71.672 -35.969,-35.836 -19.988,0 27.98,27.875 -97.964,0 0,15.922 97.964,0 -27.98,27.875 19.988,0 35.969,-35.836" /></g></g></g></g></g></g></g></svg>