<?xml version="1.0" encoding="UTF-8" standalone="no"?>
<svg
   xmlns:dc="http://purl.org/dc/elements/1.1/"
   xmlns:cc="http://creativecommons.org/ns#"
   xmlns:rdf="http://www.w3.org/1999/02/22-rdf-syntax-ns#"
   xmlns:svg="http://www.w3.org/2000/svg"
   xmlns="http://www.w3.org/2000/svg"
   viewBox="0 0 421.02548 630.72314"
   height="630.72314"
   width="421.02548"
   xml:space="preserve"
   version="1.1"
   id="svg4279"><metadata
     id="metadata4285"><rdf:RDF><cc:Work
         rdf:about=""><dc:format>image/svg+xml</dc:format><dc:type
           rdf:resource="http://purl.org/dc/dcmitype/StillImage" /><dc:title></dc:title></cc:Work></rdf:RDF></metadata><defs
     id="defs4283"><clipPath
       id="clipPath4305"
       clipPathUnits="userSpaceOnUse"><path
         id="path4307"
         d="m 170,395.579 127,0 0,-144 -127,0 0,144 z" /></clipPath><clipPath
       id="clipPath4315"
       clipPathUnits="userSpaceOnUse"><path
         id="path4317"
         d="m 170,252 127,0 0,144 -127,0 0,-144 z" /></clipPath><clipPath
       id="clipPath4325"
       clipPathUnits="userSpaceOnUse"><path
         id="path4327"
         d="m 170,396 127,0 0,-144 -127,0 0,144 z" /></clipPath><clipPath
       id="clipPath4335"
       clipPathUnits="userSpaceOnUse"><path
         id="path4337"
         d="m 170,252 127,0 0,144 -127,0 0,-144 z" /></clipPath><clipPath
       id="clipPath4345"
       clipPathUnits="userSpaceOnUse"><path
         id="path4347"
         d="m 170,396 127,0 0,-144 -127,0 0,144 z" /></clipPath><clipPath
       id="clipPath4355"
       clipPathUnits="userSpaceOnUse"><path
         id="path4357"
         d="m 170,252 127,0 0,144 -127,0 0,-144 z" /></clipPath><clipPath
       id="clipPath4365"
       clipPathUnits="userSpaceOnUse"><path
         id="path4367"
         d="m 170,396 127,0 0,-144 -127,0 0,144 z" /></clipPath><clipPath
       id="clipPath4375"
       clipPathUnits="userSpaceOnUse"><path
         id="path4377"
         d="m 170,252 127,0 0,144 -127,0 0,-144 z" /></clipPath><clipPath
       id="clipPath4385"
       clipPathUnits="userSpaceOnUse"><path
         id="path4387"
         d="m 170,396 127,0 0,-144 -127,0 0,144 z" /></clipPath><clipPath
       id="clipPath4395"
       clipPathUnits="userSpaceOnUse"><path
         id="path4397"
         d="m 170,252 127,0 0,144 -127,0 0,-144 z" /></clipPath><clipPath
       id="clipPath4405"
       clipPathUnits="userSpaceOnUse"><path
         id="path4407"
         d="m 170,396 127,0 0,-144 -127,0 0,144 z" /></clipPath><clipPath
       id="clipPath4415"
       clipPathUnits="userSpaceOnUse"><path
         id="path4417"
         d="m 170,252 127,0 0,144 -127,0 0,-144 z" /></clipPath><clipPath
       id="clipPath4425"
       clipPathUnits="userSpaceOnUse"><path
         id="path4427"
         d="m 170,396 127,0 0,-144 -127,0 0,144 z" /></clipPath><clipPath
       id="clipPath4435"
       clipPathUnits="userSpaceOnUse"><path
         id="path4437"
         d="m 170,252 127,0 0,144 -127,0 0,-144 z" /></clipPath><clipPath
       id="clipPath4445"
       clipPathUnits="userSpaceOnUse"><path
         id="path4447"
         d="m 170,396 127,0 0,-144 -127,0 0,144 z" /></clipPath><clipPath
       id="clipPath4455"
       clipPathUnits="userSpaceOnUse"><path
         id="path4457"
         d="m 170,252 127,0 0,144 -127,0 0,-144 z" /></clipPath></defs><g
     transform="matrix(1.25,0,0,-1.25,0,630.72315)"
     id="g4287"><g
       id="g4289"><path
         id="path4291"
         style="fill:#ffffff;fill-opacity:1;fill-rule:evenodd;stroke:none"
         d="m 23.035,0.399 291.195,0 c 22.301,0 22.192,18.187 22.192,18.187 l 0,467.641 c 0,0 0.144,17.949 -19.176,17.949 l -297.039,0 c 0,0 -19.766,0.328 -19.809,-19.742 l 0,-464.051 C 0.398,0.352 23.035,0.399 23.035,0.399 Z" /><path
         id="path4293"
         style="fill:#154889;fill-opacity:1;fill-rule:evenodd;stroke:none"
         d="m 19.648,9.305 297.622,0 c 0,0 10.828,0.027 10.828,10.953 l 0,464.926 c 0,0 -0.008,10.73 -11.981,10.73 l -295.312,0 c 0,0 -11.895,0 -11.895,-10.726 l 0,-465.613 C 8.949,9.196 19.648,9.305 19.648,9.305 Z" /><path
         id="path4295"
         style="fill:#000000;fill-opacity:1;fill-rule:evenodd;stroke:none"
         d="m 20.207,504.579 c -0.008,0 -5.023,0.085 -10.062,-2.387 C 5.098,499.715 0.02,494.602 0,484.438 L 0,20.383 C 0,10.219 5.805,5.047 11.555,2.512 17.305,-0.019 23.035,0 23.035,0 L 314.23,0 c 11.258,0 16.977,4.637 19.801,9.286 2.821,4.648 2.789,9.296 2.789,9.296 l 0,467.645 c 0,0.004 0.039,4.578 -2.39,9.164 -2.43,4.586 -7.399,9.188 -17.184,9.188 l -297.039,0 z m 0,-0.403 297.039,0 c 19.32,0 19.176,-17.949 19.176,-17.949 l 0,-467.645 c 0,0 0.109,-18.183 -22.192,-18.183 l -291.195,0 c 0,0 -22.637,-0.047 -22.637,19.98 l 0,464.055 c 0.043,20.07 19.809,19.742 19.809,19.742 z" /><path
         id="path4297"
         style="fill:#ffffff;fill-opacity:1;fill-rule:nonzero;stroke:none"
         d="m 181.188,159.434 c -0.157,0.004 -0.313,0 -0.473,-0.008 L 88.797,152.18 c -1.09,-0.078 -2.117,-0.531 -2.902,-1.277 L 44.016,111.629 c -1.067,-1 -1.621,-2.422 -1.493,-3.875 l 2.442,-31.156 c 0.215,-2.644 2.519,-4.609 5.156,-4.406 l 9.563,0.762 c -1.039,13.195 8.812,24.734 22.023,25.773 13.195,1.035 24.731,-8.816 25.77,-22.016 l 121.855,9.59 c -1.039,13.207 8.828,24.746 22.023,25.781 13.196,1.039 24.735,-8.812 25.774,-22.007 l 11.957,0.937 c 2.633,0.203 4.609,2.52 4.391,5.164 l -1.747,22.227 c -0.191,2.332 -2.027,4.195 -4.371,4.398 l -68.578,5.965 -34.57,29.52 c -0.856,0.718 -1.922,1.121 -3.023,1.148 z m 0.761,-9.555 c 1.102,-0.023 2.168,-0.425 3.008,-1.156 l 25.027,-21.367 c 0.477,-0.418 0.782,-0.996 0.832,-1.633 0.102,-1.316 -0.882,-2.469 -2.203,-2.57 l -65.918,-5.207 -2.265,28.675 41.047,3.243 c 0.156,0.011 0.312,0.019 0.472,0.015 z m -48.687,-3.816 2.265,-28.672 -52.976,-4.176 c -1.278,-0.094 -2.531,0.301 -3.492,1.137 -2.012,1.711 -2.254,4.75 -0.532,6.75 l 17.602,20.629 c 0.824,0.965 2,1.574 3.281,1.66 l 33.852,2.672 z m 120.437,-38.699 c -0.648,0.015 -1.304,0 -1.961,-0.055 -10.562,-0.832 -18.453,-10.066 -17.617,-20.629 0.766,-9.68 8.574,-17.098 18.004,-17.629 l -93.422,0 0,-13.398 -74.594,0 c 0.321,0.011 0.641,0.023 0.965,0.051 10.563,0.835 18.449,10.066 17.629,20.632 C 101.867,86.895 92.633,94.774 82.074,93.95 71.508,93.114 63.621,83.879 64.457,73.332 c 0.781,-9.878 8.91,-17.418 18.59,-17.679 l -37.817,0 0,-13.399 249.274,0 0,26.797 -40.227,0 c 0.153,0.012 0.305,0.012 0.461,0.028 10.563,0.832 18.453,10.054 17.614,20.617 -0.782,9.902 -8.946,17.445 -18.653,17.668 z" /><path
         id="path4299"
         style="fill:#ffffff;fill-opacity:1;fill-rule:nonzero;stroke:none"
         d="m 68.422,377.547 42.773,0 c 16.035,0 29.785,12.985 29.785,29.785 0,16.039 -13.75,29.024 -29.785,29.024 l -42.773,0 0,-58.809 z m -27.496,-98.523 0,183.301 71.793,0 c 30.551,0 55.754,-24.442 55.754,-54.993 0,-31.312 -25.203,-55.753 -55.754,-55.753 l -44.297,0 0,-72.555" /></g><g
       id="g4301"><g
         clip-path="url(#clipPath4305)"
         id="g4303"><g
           transform="translate(0,-0.421478)"
           id="g4309"><g
             id="g4311"><g
               clip-path="url(#clipPath4315)"
               id="g4313"><g
                 id="g4319" /><g
                 id="g4321"><g
                   clip-path="url(#clipPath4325)"
                   id="g4323"><g
                     id="g4329"><g
                       id="g4331"><g
                         clip-path="url(#clipPath4335)"
                         id="g4333"><g
                           id="g4339" /><g
                           id="g4341"><g
                             clip-path="url(#clipPath4345)"
                             id="g4343"><g
                               id="g4349"><g
                                 id="g4351"><g
                                   clip-path="url(#clipPath4355)"
                                   id="g4353"><g
                                   id="g4359" /><g
                                   id="g4361"><g
                                   clip-path="url(#clipPath4365)"
                                   id="g4363"><g
                                   id="g4369"><g
                                   id="g4371"><g
                                   clip-path="url(#clipPath4375)"
                                   id="g4373"><g
                                   id="g4379" /><g
                                   id="g4381"><g
                                   clip-path="url(#clipPath4385)"
                                   id="g4383"><g
                                   id="g4389"><g
                                   id="g4391"><g
                                   clip-path="url(#clipPath4395)"
                                   id="g4393"><g
                                   id="g4399" /><g
                                   id="g4401"><g
                                   clip-path="url(#clipPath4405)"
                                   id="g4403"><g
                                   id="g4409"><g
                                   id="g4411"><g
                                   clip-path="url(#clipPath4415)"
                                   id="g4413"><g
                                   id="g4419" /><g
                                   id="g4421"><g
                                   clip-path="url(#clipPath4425)"
                                   id="g4423"><g
                                   id="g4429"><g
                                   id="g4431"><g
                                   clip-path="url(#clipPath4435)"
                                   id="g4433"><g
                                   id="g4439" /><g
                                   id="g4441"><g
                                   clip-path="url(#clipPath4445)"
                                   id="g4443"><g
                                   id="g4449"><g
                                   id="g4451"><g
                                   clip-path="url(#clipPath4455)"
                                   id="g4453"><g
                                   id="g4459"><path
                                   id="path4461"
                                   style="fill:#ffffff;fill-opacity:1;fill-rule:nonzero;stroke:none"
                                   d="m 170.141,359.938 35.968,35.835 19.965,0 -27.957,-27.875 97.965,0 0,-15.921 -97.965,0 27.957,-27.875 -19.965,0 -35.968,35.836 z m 125.941,-71.672 -35.969,-35.836 -19.988,0 27.98,27.875 -97.964,0 0,15.922 97.964,0 -27.98,27.875 19.988,0 35.969,-35.836" /></g></g></g></g></g></g></g></g></g></g></g></g></g></g></g></g></g></g></g></g></g></g></g></g></g></g></g></g></g></g></g></g></g></g></g></g></g></g></g></g></g></g></svg>