<?xml version="1.0" encoding="UTF-8" standalone="no"?>
<svg
   xmlns:dc="http://purl.org/dc/elements/1.1/"
   xmlns:cc="http://creativecommons.org/ns#"
   xmlns:rdf="http://www.w3.org/1999/02/22-rdf-syntax-ns#"
   xmlns:svg="http://www.w3.org/2000/svg"
   xmlns="http://www.w3.org/2000/svg"
   viewBox="0 0 2503.0012 3603.0012"
   height="3603.0012"
   width="2503.0012"
   xml:space="preserve"
   version="1.1"
   id="svg6980"><metadata
     id="metadata6986"><rdf:RDF><cc:Work
         rdf:about=""><dc:format>image/svg+xml</dc:format><dc:type
           rdf:resource="http://purl.org/dc/dcmitype/StillImage" /><dc:title></dc:title></cc:Work></rdf:RDF></metadata><defs
     id="defs6984" /><g
     transform="matrix(1.25,0,0,-1.25,0,3603.0011)"
     id="g6988"><g
       id="g6990"><path
         id="path6992"
         style="fill:#ffffff;fill-opacity:1;fill-rule:nonzero;stroke:none"
         d="m 104.23,2881.202 c 0,0 -103.031,0.16 -103.031,-103.051 l 0,-2673.899 C 1.199,-0.107 104.23,1.202 104.23,1.202 l 1793.938,0 c 102.973,0 103.031,103.05 103.031,103.05 l 0,2673.903 c 0,0 1.289,103.047 -103.031,103.047 l -1793.938,0 z" /><path
         id="path6994"
         style="fill:#154889;fill-opacity:1;fill-rule:nonzero;stroke:none"
         d="m 104.23,49.202 c 0,0 -55.031,-0.293 -55.031,55.031 l 0,2673.348 c 0,54.964 55.031,55.621 55.031,55.621 l 1793.938,0 c 54.855,0 54.547,-55.766 54.547,-55.766 l 0,-2673.352 c 0,0 0.308,-55.335 -54.547,-54.882" /><path
         id="path6996"
         style="fill:#ffffff;fill-opacity:1;fill-rule:nonzero;stroke:none"
         d="m 201.199,839.299 1600,0 0,-640 -1600,0 0,640 z" /><path
         id="path6998"
         style="fill:#ffffff;fill-opacity:1;fill-rule:nonzero;stroke:none"
         d="m 201.199,1519.6 1600,0 0,-640 -1600,0 0,640 z" /><path
         id="path7000"
         style="fill:#ffffff;fill-opacity:1;fill-rule:nonzero;stroke:none"
         d="m 201.199,2199.6 1600,0 0,-640 -1600,0 0,640 z" /><path
         id="path7002"
         style="fill:#000000;fill-opacity:1;fill-rule:nonzero;stroke:none"
         d="m 361.199,1720.038 0,85.664 53.332,64.207 53.301,-64.207 0,-42.832 21.34,0 0,107.039 10.668,21.398 0,85.664 32.008,107.067 32.007,-107.067 0,-85.664 10.665,-21.398 0,-42.809 32.011,21.418 74.664,-42.816 0,-64.25 21.336,0 0,149.855 10.672,0 0,64.25 10.668,0 0,64.246 53.332,0 0,-74.953 10.645,0 0,-117.75 21.336,0 0,-64.23 21.339,0 0,107.039 42.665,42.816 42.675,-42.816 0,-64.207 42.672,42.816 42.664,-42.816 0,-85.664" /><path
         id="path7004"
         style="fill:#000000;fill-opacity:1;fill-rule:nonzero;stroke:none"
         d="m 1439.57,1833.108 c 0,-16.43 13.309,-29.789 29.75,-29.789 16.477,0 29.789,13.359 29.789,29.789 l 0,93.016 c 0,16.449 -13.312,29.781 -29.789,29.781 -16.441,0 -29.75,-13.332 -29.75,-29.781 l 0,-93.016 z m -29.785,0 0,93.016 c 0,32.918 26.664,59.535 59.535,59.535 32.903,0 59.567,-26.617 59.567,-59.535 l 0,-93.016 c 0,-32.906 -26.664,-59.566 -59.567,-59.566 -32.871,0 -59.535,26.66 -59.535,59.566 z m -137.699,39.086 0,111.617 111.66,0 0,-29.781 -83.754,0 0,-46.992 c 23.383,18.507 57.324,14.535 75.813,-8.801 7.554,-9.567 11.64,-21.332 11.64,-33.531 l 0,-31.598 c 0,-32.906 -26.66,-59.566 -59.523,-59.566 -30.719,0 -56.414,23.378 -59.258,53.972 l 30.012,0 c 3.078,-16.156 18.668,-26.734 34.84,-23.637 14.004,2.657 24.195,14.926 24.195,29.231 l 0,26.035 c 0,16.449 -13.352,29.801 -29.789,29.801 -11.43,0 -21.805,-6.535 -26.777,-16.75" /><path
         id="path7006"
         style="fill:#c1121c;fill-opacity:1;fill-rule:nonzero;stroke:none"
         d="m 1398.777,1637.174 c -133.488,0 -242.425,108.942 -242.425,242.426 0,133.492 108.937,242.426 242.425,242.426 133.485,0 242.422,-108.934 242.422,-242.426 0,-133.484 -108.937,-242.426 -242.422,-242.426 z m 0,67.211 c 97.164,0 175.211,78.051 175.211,175.215 0,97.172 -78.047,175.219 -175.211,175.219 -97.168,0 -175.218,-78.047 -175.218,-175.219 0,-97.164 78.05,-175.215 175.218,-175.215 z" /><path
         id="path7008"
         style="fill:#000000;fill-opacity:1;fill-rule:nonzero;stroke:none"
         d="m 1174.898,2106.639 0,-0.023 -0.023,0 0.023,0.023 z" /><path
         id="path7010"
         style="fill:#000000;fill-opacity:1;fill-rule:nonzero;stroke:none"
         d="m 1174.875,2106.639 0.023,0 0,-0.023 -0.023,0 0,0.023 z" /><path
         id="path7012"
         style="fill:#000000;fill-opacity:1;fill-rule:nonzero;stroke:none"
         d="m 1174.875,2106.616 0,0.023 0.023,-0.023 -0.023,0 z m 0.023,0 -0.023,0.023 0,-0.023 0.023,0 z" /><path
         id="path7014"
         style="fill:#000000;fill-opacity:1;fill-rule:nonzero;stroke:none"
         d="m 1174.926,2106.616 -0.051,0 0.023,0 0,0.023 0.028,-0.023 z" /><path
         id="path7016"
         style="fill:#000000;fill-opacity:1;fill-rule:nonzero;stroke:none"
         d="m 1174.875,2106.616 0,0.023 0,-0.023 0.023,0.023 -0.023,-0.023 z" /><path
         id="path7018"
         style="fill:#000000;fill-opacity:1;fill-rule:nonzero;stroke:none"
         d="m 1174.875,2106.639 0.023,0 0,-0.023 -0.023,0 0,0.023 z" /><path
         id="path7020"
         style="fill:#000000;fill-opacity:1;fill-rule:nonzero;stroke:none"
         d="m 1174.926,2106.639 0,-0.047 -0.051,0 0.051,0.047 z" /><path
         id="path7022"
         style="fill:#000000;fill-opacity:1;fill-rule:nonzero;stroke:none"
         d="m 1174.875,2106.639 0.051,0 0,-0.047 -0.051,0 0,0.047 z" /><path
         id="path7024"
         style="fill:#000000;fill-opacity:1;fill-rule:nonzero;stroke:none"
         d="m 1174.875,2106.592 0,0.047 0.051,-0.047 -0.051,0 z m 0.051,0 -0.051,0.047 0,-0.047 0.051,0 z" /><path
         id="path7026"
         style="fill:#000000;fill-opacity:1;fill-rule:nonzero;stroke:none"
         d="m 1174.926,2106.592 -0.051,0 0.023,0 0,0.047 0.028,-0.047 z" /><path
         id="path7028"
         style="fill:#000000;fill-opacity:1;fill-rule:nonzero;stroke:none"
         d="m 1174.875,2106.592 0,0.047 0,-0.047 0.051,0.047 -0.051,-0.047 z" /><path
         id="path7030"
         style="fill:#000000;fill-opacity:1;fill-rule:nonzero;stroke:none"
         d="m 1174.875,2106.639 0.051,0 0,-0.047 -0.051,0 0,0.047 z" /><path
         id="path7032"
         style="fill:#000000;fill-opacity:1;fill-rule:nonzero;stroke:none"
         d="m 1174.926,2106.639 0,-0.047 -0.051,0 0.051,0.047 z" /><path
         id="path7034"
         style="fill:#000000;fill-opacity:1;fill-rule:nonzero;stroke:none"
         d="m 1174.875,2106.639 0.051,0 0,-0.047 -0.051,0 0,0.047 z" /><path
         id="path7036"
         style="fill:#000000;fill-opacity:1;fill-rule:nonzero;stroke:none"
         d="m 1174.875,2106.592 0,0.047 0.051,-0.047 -0.051,0 z m 0.051,0 -0.051,0.047 0,-0.047 0.051,0 z" /><path
         id="path7038"
         style="fill:#000000;fill-opacity:1;fill-rule:nonzero;stroke:none"
         d="m 1174.926,2106.592 -0.051,0 0.023,0 0,0.047 0.028,-0.047 z" /><path
         id="path7040"
         style="fill:#000000;fill-opacity:1;fill-rule:nonzero;stroke:none"
         d="m 1174.875,2106.592 0,0.047 0,-0.047 0.051,0.047 -0.051,-0.047 z" /><path
         id="path7042"
         style="fill:#000000;fill-opacity:1;fill-rule:nonzero;stroke:none"
         d="m 1174.875,2106.639 0.051,0 0,-0.047 -0.051,0 0,0.047 z" /><path
         id="path7044"
         style="fill:#000000;fill-opacity:1;fill-rule:nonzero;stroke:none"
         d="m 1174.926,2106.639 0,-0.047 -0.051,0 0.051,0.047 z" /><path
         id="path7046"
         style="fill:#000000;fill-opacity:1;fill-rule:nonzero;stroke:none"
         d="m 1174.875,2106.639 0.051,0 0,-0.047 -0.051,0 0,0.047 z" /><path
         id="path7048"
         style="fill:#000000;fill-opacity:1;fill-rule:nonzero;stroke:none"
         d="m 1174.875,2106.592 0,0.047 0.051,-0.047 -0.051,0 z m 0.051,0 -0.051,0.047 0,-0.047 0.051,0 z" /><path
         id="path7050"
         style="fill:#000000;fill-opacity:1;fill-rule:nonzero;stroke:none"
         d="m 1174.926,2106.592 -0.051,0 0.023,0 0,0.047 0.028,-0.047 z" /><path
         id="path7052"
         style="fill:#000000;fill-opacity:1;fill-rule:nonzero;stroke:none"
         d="m 1174.875,2106.592 0,0.047 0,-0.047 0.051,0.047 -0.051,-0.047 z" /><path
         id="path7054"
         style="fill:#000000;fill-opacity:1;fill-rule:nonzero;stroke:none"
         d="m 1174.875,2106.639 0.051,0 0,-0.047 -0.051,0 0,0.047 z" /><path
         id="path7056"
         style="fill:#000000;fill-opacity:1;fill-rule:nonzero;stroke:none"
         d="m 1482.289,1138.834 c 0,-8.14 6.578,-14.75 14.707,-14.75 8.137,0 14.746,6.61 14.746,14.75 l 0,121.575 c 0,8.14 -6.609,14.738 -14.746,14.738 -8.129,0 -14.707,-6.598 -14.707,-14.738 l 0,-121.575 z m -29.484,0 0,121.575 c 0,24.406 19.781,44.191 44.191,44.191 24.402,0 44.192,-19.785 44.192,-44.191 l 0,-121.575 c 0,-24.445 -19.79,-44.234 -44.192,-44.234 -24.41,0 -44.191,19.789 -44.191,44.234 z m -81.047,0 c 0,-8.14 6.566,-14.75 14.707,-14.75 8.168,0 14.777,6.61 14.777,14.75 l 0,121.575 c 0,8.14 -6.609,14.738 -14.777,14.738 -8.141,0 -14.707,-6.598 -14.707,-14.738 l 0,-121.575 z m -29.485,0 0,121.575 c 0,24.406 19.786,44.191 44.192,44.191 24.433,0 44.219,-19.785 44.219,-44.191 l 0,-121.575 c 0,-24.445 -19.786,-44.234 -44.219,-44.234 -24.406,0 -44.192,19.789 -44.192,44.234 z m -81.058,110.5 0,31.317 29.453,22.117 29.484,0 0,-206.34 -29.484,0 0,175.008" /><path
         id="path7058"
         style="fill:#c1121c;fill-opacity:1;fill-rule:nonzero;stroke:none"
         d="m 1401.199,959.6 c -132.152,0 -240,107.848 -240,240 0,132.152 107.848,240 240,240 132.153,0 240,-107.848 240,-240 0,-132.152 -107.847,-240 -240,-240 z m 0,66.535 c 96.196,0 173.469,77.274 173.469,173.465 0,96.195 -77.273,173.461 -173.469,173.461 -96.191,0 -173.465,-77.266 -173.465,-173.461 0,-96.191 77.274,-173.465 173.465,-173.465 z" /><path
         id="path7060"
         style="fill:#000000;fill-opacity:1;fill-rule:nonzero;stroke:none"
         d="m 1175.098,1431.682 0,-0.027 -0.024,0 0.024,0.027 z" /><path
         id="path7062"
         style="fill:#000000;fill-opacity:1;fill-rule:nonzero;stroke:none"
         d="m 1175.074,1431.682 0.023,0 0,-0.027 -0.023,0 0,0.027 z" /><path
         id="path7064"
         style="fill:#000000;fill-opacity:1;fill-rule:nonzero;stroke:none"
         d="m 1175.074,1431.655 0,0.027 0.024,-0.027 -0.024,0 z m 0.024,0 -0.024,0.027 0,-0.027 0.024,0 z" /><path
         id="path7066"
         style="fill:#000000;fill-opacity:1;fill-rule:nonzero;stroke:none"
         d="m 1175.129,1431.655 -0.055,0 0.024,0 0,0.027 0.031,-0.027 z" /><path
         id="path7068"
         style="fill:#000000;fill-opacity:1;fill-rule:nonzero;stroke:none"
         d="m 1175.074,1431.655 0,0.027 0,-0.027 0.024,0.027 -0.024,-0.027 z" /><path
         id="path7070"
         style="fill:#000000;fill-opacity:1;fill-rule:nonzero;stroke:none"
         d="m 1175.074,1431.682 0.023,0 0,-0.027 -0.023,0 0,0.027 z" /><path
         id="path7072"
         style="fill:#000000;fill-opacity:1;fill-rule:nonzero;stroke:none"
         d="m 1175.129,1431.682 0,-0.051 -0.055,0 0.055,0.051 z" /><path
         id="path7074"
         style="fill:#000000;fill-opacity:1;fill-rule:nonzero;stroke:none"
         d="m 1175.074,1431.682 0.055,0 0,-0.051 -0.055,0 0,0.051 z" /><path
         id="path7076"
         style="fill:#000000;fill-opacity:1;fill-rule:nonzero;stroke:none"
         d="m 1175.074,1431.631 0,0.051 0.055,-0.051 -0.055,0 z m 0.055,0 -0.055,0.051 0,-0.051 0.055,0 z" /><path
         id="path7078"
         style="fill:#000000;fill-opacity:1;fill-rule:nonzero;stroke:none"
         d="m 1175.129,1431.631 -0.055,0 0.024,0 0,0.051 0.031,-0.051 z" /><path
         id="path7080"
         style="fill:#000000;fill-opacity:1;fill-rule:nonzero;stroke:none"
         d="m 1175.074,1431.631 0,0.051 0,-0.051 0.055,0.051 -0.055,-0.051 z" /><path
         id="path7082"
         style="fill:#000000;fill-opacity:1;fill-rule:nonzero;stroke:none"
         d="m 1175.074,1431.682 0.055,0 0,-0.051 -0.055,0 0,0.051 z" /><path
         id="path7084"
         style="fill:#000000;fill-opacity:1;fill-rule:nonzero;stroke:none"
         d="m 1175.129,1431.682 0,-0.051 -0.055,0 0.055,0.051 z" /><path
         id="path7086"
         style="fill:#000000;fill-opacity:1;fill-rule:nonzero;stroke:none"
         d="m 1175.074,1431.682 0.055,0 0,-0.051 -0.055,0 0,0.051 z" /><path
         id="path7088"
         style="fill:#000000;fill-opacity:1;fill-rule:nonzero;stroke:none"
         d="m 1175.074,1431.631 0,0.051 0.055,-0.051 -0.055,0 z m 0.055,0 -0.055,0.051 0,-0.051 0.055,0 z" /><path
         id="path7090"
         style="fill:#000000;fill-opacity:1;fill-rule:nonzero;stroke:none"
         d="m 1175.129,1431.631 -0.055,0 0.024,0 0,0.051 0.031,-0.051 z" /><path
         id="path7092"
         style="fill:#000000;fill-opacity:1;fill-rule:nonzero;stroke:none"
         d="m 1175.074,1431.631 0,0.051 0,-0.051 0.055,0.051 -0.055,-0.051 z" /><path
         id="path7094"
         style="fill:#000000;fill-opacity:1;fill-rule:nonzero;stroke:none"
         d="m 1175.074,1431.682 0.055,0 0,-0.051 -0.055,0 0,0.051 z" /><path
         id="path7096"
         style="fill:#000000;fill-opacity:1;fill-rule:nonzero;stroke:none"
         d="m 1175.129,1431.682 0,-0.051 -0.055,0 0.055,0.051 z" /><path
         id="path7098"
         style="fill:#000000;fill-opacity:1;fill-rule:nonzero;stroke:none"
         d="m 1175.074,1431.682 0.055,0 0,-0.051 -0.055,0 0,0.051 z" /><path
         id="path7100"
         style="fill:#000000;fill-opacity:1;fill-rule:nonzero;stroke:none"
         d="m 1175.074,1431.631 0,0.051 0.055,-0.051 -0.055,0 z m 0.055,0 -0.055,0.051 0,-0.051 0.055,0 z" /><path
         id="path7102"
         style="fill:#000000;fill-opacity:1;fill-rule:nonzero;stroke:none"
         d="m 1175.129,1431.631 -0.055,0 0.024,0 0,0.051 0.031,-0.051 z" /><path
         id="path7104"
         style="fill:#000000;fill-opacity:1;fill-rule:nonzero;stroke:none"
         d="m 1175.074,1431.631 0,0.051 0,-0.051 0.055,0.051 -0.055,-0.051 z" /><path
         id="path7106"
         style="fill:#000000;fill-opacity:1;fill-rule:nonzero;stroke:none"
         d="m 361.406,1039.6 0,85.66 53.332,64.207 53.305,-64.207 0,-42.828 21.336,0 0,107.035 10.668,21.407 0,85.656 32.008,107.07 32.007,-107.07 0,-85.656 10.665,-21.407 0,-42.804 32.011,21.418 74.664,-42.821 0,-64.242 21.336,0 0,149.856 10.672,0 0,64.242 10.668,0 0,64.254 53.332,0 0,-74.961 10.645,0 0,-117.746 21.336,0 0,-64.231 21.339,0 0,107.035 42.665,42.821 42.675,-42.821 0,-64.207 42.672,42.821 42.664,-42.821 0,-85.66" /><path
         id="path7108"
         style="fill:#c1121c;fill-opacity:1;fill-rule:nonzero;stroke:none"
         d="m 972.785,1369.389 -668.851,-334.418 28.66,-57.308 668.812,334.386 -28.621,57.34 z" /><path
         id="path7110"
         style="fill:#154889;fill-opacity:1;fill-rule:nonzero;stroke:none"
         d="m 1182.242,761.202 c -11.66,0 -21.043,-9.442 -21.043,-21.043 l 0,-437.91 c 0,-11.645 9.383,-21.047 21.043,-21.047 l 437.91,0 c 11.61,0 21.047,9.402 21.047,21.047 l 0,437.91 c 0,11.601 -9.437,21.043 -21.047,21.043 l -437.91,0 z" /><path
         id="path7112"
         style="fill:#ffffff;fill-opacity:1;fill-rule:nonzero;stroke:none"
         d="m 1494.68,456.917 c 0,-8.629 6.957,-15.551 15.574,-15.551 8.586,0 15.586,6.922 15.586,15.551 l 0,128.542 c 0,8.59 -7,15.575 -15.586,15.575 -8.617,0 -15.574,-6.985 -15.574,-15.575 l 0,-128.542 z m -31.172,0 0,128.542 c 0,25.836 20.914,46.743 46.746,46.743 25.828,0 46.742,-20.907 46.742,-46.743 l 0,-128.542 c 0,-25.793 -20.914,-46.715 -46.742,-46.715 -25.832,0 -46.746,20.922 -46.746,46.715 z m -124.653,17.527 31.196,0 0,-17.527 c 0,-8.629 6.961,-15.551 15.551,-15.551 8.613,0 15.617,6.922 15.617,15.551 l 0,38.976 c 0,8.613 -7.004,15.535 -15.617,15.535 l -9.715,0 0,27.293 9.715,0 c 8.613,0 15.617,6.985 15.617,15.574 l 0,31.164 c 0,8.59 -7.004,15.575 -15.617,15.575 -8.59,0 -15.551,-6.985 -15.551,-15.575 l 0,-17.519 -31.196,0 0,17.519 c 0,25.836 20.954,46.743 46.747,46.743 25.828,0 46.781,-20.907 46.781,-46.743 l 0,-29.218 c 0,-13.121 -7.36,-25.121 -19.012,-31.168 11.652,-6.004 19.012,-18.024 19.012,-31.164 l 0,-36.992 c 0,-25.793 -20.953,-46.715 -46.781,-46.715 -25.793,0 -46.747,20.922 -46.747,46.715 l 0,17.527 z m -93.457,99.316 0,33.117 31.168,23.356 31.164,0 0,-218.086 -31.164,0 0,185.016" /><path
         id="path7114"
         style="fill:#154889;fill-opacity:1;fill-rule:nonzero;stroke:none"
         d="m 382.242,761.202 c -11.66,0 -21.043,-9.442 -21.043,-21.043 l 0,-437.91 c 0,-11.645 9.383,-21.047 21.043,-21.047 l 437.918,0 c 11.602,0 21.039,9.402 21.039,21.047 l 0,437.91 c 0,11.601 -9.437,21.043 -21.039,21.043 l -437.918,0 z" /><path
         id="path7116"
         style="fill:#ffffff;fill-opacity:1;fill-rule:nonzero;stroke:none"
         d="m 613.188,586.643 -4.739,123.559 21.821,0 42.753,-123.559 -59.835,0 z m -83.864,0 42.797,123.559 21.774,0 -4.743,-123.559 -59.828,0 z m -77.144,-50.922 0,21.844 -39.981,0 0,14.523 378,0 0,-14.523 -39.996,0 0,-21.844 -36.355,0 0,21.844 -225.336,0 0,-21.844 -36.332,0 z m 170.836,-203.519 -7.84,203.519 75.472,0 70.477,-203.519 -138.109,0 z m -181.754,0 70.449,203.519 75.48,0 -7.816,-203.519" /><path
         id="path7118"
         style="fill:#ffffff;fill-opacity:1;fill-rule:nonzero;stroke:none"
         d="m 1301.191,2517.206 c 0,-110.446 -134.418,-200.004 -300.226,-200.004 -165.832,0 -300.242,89.558 -300.242,200.004 0,110.449 134.41,199.996 300.242,199.996 165.808,0 300.226,-89.547 300.226,-199.996" /><path
         id="path7120"
         style="fill:#000000;fill-opacity:1;fill-rule:nonzero;stroke:none"
         d="m 958.914,2417.823 56.379,0 c 31.145,0 56.336,25.574 56.336,57.148 l 0,84.465 c 0,31.563 -25.191,57.141 -56.336,57.141 l -56.379,0 0,-198.754 z m -41.676,-39.739 0,278.231 98.055,0 c 54.121,0 98.043,-44.481 98.043,-99.387 l 0,-79.461 c 0,-54.886 -43.922,-99.383 -98.043,-99.383" /><path
         id="path7122"
         style="fill:#000000;fill-opacity:1;fill-rule:nonzero;stroke:none"
         d="m 104.23,2882.401 c -0.011,0 -26.011,0.055 -52.05,-12.949 C 26.137,2856.448 0,2830.155 0,2778.151 L 0,104.252 C 0,51.678 26.133,25.377 52.184,12.518 78.211,-0.333 104.184,-0.001 104.23,0.002 l 1793.938,0 c 51.887,0 78.176,26.141 91.203,52.188 13.031,26.051 13.027,52.062 13.027,52.062 l 0,2673.903 c 0,0.086 0.325,26.043 -12.515,52.054 -12.863,26.051 -39.156,52.192 -91.711,52.192 l -1793.942,0 z m 0,-1.199 1793.938,0 c 104.32,0 103.031,-103.047 103.031,-103.047 l 0,-2673.903 c 0,0 -0.058,-103.05 -103.031,-103.05 l -1793.938,0 c 0,0 -103.031,-1.309 -103.031,103.05 l 0,2673.899 c 0,103.211 103.031,103.051 103.031,103.051 z" /></g></g></svg>