<?xml version="1.0" encoding="UTF-8" standalone="no"?>
<svg
   xmlns:dc="http://purl.org/dc/elements/1.1/"
   xmlns:cc="http://creativecommons.org/ns#"
   xmlns:rdf="http://www.w3.org/1999/02/22-rdf-syntax-ns#"
   xmlns:svg="http://www.w3.org/2000/svg"
   xmlns="http://www.w3.org/2000/svg"
   viewBox="0 0 931.00391 530.99213"
   height="530.99213"
   width="931.00391"
   xml:space="preserve"
   id="svg21661"
   version="1.1"><metadata
     id="metadata21667"><rdf:RDF><cc:Work
         rdf:about=""><dc:format>image/svg+xml</dc:format><dc:type
           rdf:resource="http://purl.org/dc/dcmitype/StillImage" /><dc:title></dc:title></cc:Work></rdf:RDF></metadata><defs
     id="defs21665" /><g
     transform="matrix(1.3333333,0,0,-1.3333333,0,530.99215)"
     id="g21669"><g
       id="g21671"><path
         id="path21673"
         style="fill:#ffffff;fill-opacity:1;fill-rule:nonzero;stroke:none"
         d="m 27.324,397.857 h 643.614 c 14.878,0 26.941,-12.062 26.941,-26.941 V 27.303 c 0,-14.879 -12.063,-26.946 -26.941,-26.946 H 27.324 C 12.445,0.357 0.379,12.424 0.379,27.303 v 343.613 c 0,14.879 12.066,26.941 26.945,26.941" /><path
         id="path21675"
         style="fill:#000000;fill-opacity:1;fill-rule:nonzero;stroke:none"
         d="M 27.32,398.244 C 12.242,398.244 0,386.002 0,370.92 V 27.291 C 0,12.209 12.242,0.002 27.32,0.002 h 643.61 c 15.082,0 27.324,12.207 27.324,27.289 V 370.92 c 0,15.082 -12.242,27.324 -27.324,27.324 z m 0,-0.387 h 643.618 c 14.878,0 26.941,-12.062 26.941,-26.941 V 27.303 c 0,-14.879 -12.063,-26.946 -26.941,-26.946 H 27.32 C 12.445,0.357 0.379,12.424 0.379,27.303 v 343.613 c 0,14.879 12.066,26.941 26.941,26.941 z" /><path
         id="path21677"
         style="fill:#000000;fill-opacity:1;fill-rule:nonzero;stroke:none"
         d="m 27.324,391.119 h 643.614 c 11.16,0 20.21,-9.051 20.21,-20.211 V 27.311 C 691.148,16.135 682.098,7.1 670.938,7.1 H 27.324 C 16.164,7.1 7.113,16.135 7.113,27.311 v 343.597 c 0,11.16 9.051,20.211 20.211,20.211" /><path
         id="path21679"
         style="fill:#ffffff;fill-opacity:1;fill-rule:nonzero;stroke:none"
         d="m 27.324,381.014 h 643.614 c 5.582,0 10.105,-4.524 10.105,-10.106 V 27.311 c 0,-5.579 -4.523,-10.106 -10.105,-10.106 H 27.324 c -5.582,0 -10.105,4.527 -10.105,10.106 v 343.597 c 0,5.582 4.523,10.106 10.105,10.106" /><path
         id="path21681"
         style="fill:#633a34;fill-opacity:1;fill-rule:nonzero;stroke:none"
         d="m 57.637,354.061 h 582.98 V 192.358 H 57.637 Z" /><path
         id="path21683"
         style="fill:#ffffff;fill-opacity:1;fill-rule:nonzero;stroke:none"
         d="m 144.547,206.521 -66.688,66.688 66.688,66.707 66.691,-66.707 z" /><path
         id="path21685"
         style="fill:#633a34;fill-opacity:1;fill-rule:nonzero;stroke:none"
         d="m 144.555,326.342 30.922,-31.008 H 113.629 Z M 113.48,291.236 h 62.145 v -45.687 h -15.75 v 22.301 c 0,8.359 -9.066,11.406 -15.32,11.472 -6.254,-0.066 -15.34,-3.113 -15.34,-11.472 V 245.549 H 113.48 Z" /><path
         id="path21687"
         style="fill:#ffffff;fill-opacity:1;fill-rule:nonzero;stroke:none"
         d="m 599.352,306.904 h 14.32 c 0,3.949 -3.211,7.16 -7.16,7.16 -3.949,0 -7.16,-3.211 -7.16,-7.16 m 21.05,-5.89 h -21.05 v -0.84 c 0,-2.93 1.777,-5.563 4.496,-6.649 1.117,-0.445 2.304,-0.675 3.504,-0.675 2.75,0 5.367,1.203 7.16,3.273 l 5.101,-4.375 c -3.062,-3.574 -7.554,-5.645 -12.261,-5.645 -2.059,0 -4.098,0.395 -6.008,1.168 -5.266,2.106 -8.723,7.207 -8.723,12.903 v 6.73 c 0,7.672 6.223,13.891 13.891,13.891 7.672,0 13.89,-6.219 13.89,-13.891 z m -64.004,-14.321 v 47.153 h 6.747 v -17.262 c 2.156,2.664 5.398,4.211 8.839,4.211 6.286,0 11.371,-5.086 11.371,-11.371 v -22.731 h -6.746 v 20.625 c 0,3.735 -3.011,6.746 -6.734,6.746 -3.719,0 -6.73,-3.011 -6.73,-6.746 v -20.625 z m -6.734,5.055 c -2.879,-3.473 -7.156,-5.48 -11.668,-5.48 -8.359,0 -15.156,6.796 -15.156,15.156 v 4.215 c 0,8.375 6.797,15.156 15.156,15.156 4.512,0 8.789,-2.008 11.668,-5.465 l -5.184,-4.309 c -1.593,1.922 -3.964,3.043 -6.484,3.043 -4.641,0 -8.41,-3.769 -8.41,-8.425 v -4.215 c 0,-4.641 3.769,-8.41 8.41,-8.41 2.52,0 4.891,1.101 6.484,3.027 z m -62.195,0.344 4.758,4.773 c 2.648,-2.648 6.238,-4.129 9.992,-4.129 1.691,0 3.371,0.313 4.969,0.903 1.316,0.496 2.187,1.761 2.187,3.16 0,1.777 -1.383,3.242 -3.16,3.359 l -7.156,0.442 c -5.336,0.347 -9.481,4.757 -9.481,10.089 0,4.676 3.207,8.743 7.75,9.829 1.598,0.394 3.242,0.574 4.891,0.574 4.738,0 9.328,-1.598 13.051,-4.559 l -4.215,-5.265 c -2.5,2.007 -5.629,3.093 -8.836,3.093 -1.121,0 -2.239,-0.133 -3.328,-0.394 -1.512,-0.364 -2.582,-1.711 -2.582,-3.278 0,-1.777 1.382,-3.242 3.16,-3.355 l 7.16,-0.445 c 5.332,-0.328 9.48,-4.758 9.48,-10.09 0,-4.211 -2.617,-7.981 -6.55,-9.461 -2.356,-0.891 -4.84,-1.336 -7.34,-1.336 -5.531,0 -10.832,2.191 -14.75,6.09 m -15.156,41.754 h 6.73 v -6.731 h -6.73 z m 0,-13.461 h 6.73 v -33.692 h -6.73 z m -9.266,-33.692 h -4.215 c -4.18,0 -7.57,3.391 -7.57,7.571 v 20.64 h -3.375 v 5.481 h 3.375 v 10.105 h 6.73 v -10.105 h 5.055 v -5.481 h -5.055 v -19.785 c 0,-1.168 0.942,-2.105 2.11,-2.105 h 2.945 z m -49.688,0 v 33.692 h 6.746 v -3.801 c 2.157,2.664 5.399,4.211 8.84,4.211 6.27,0 11.371,-5.086 11.371,-11.371 v -22.731 h -6.746 v 20.625 c 0,3.735 -3.011,6.746 -6.73,6.746 -3.723,0 -6.735,-3.011 -6.735,-6.746 v -20.625 z m -16.836,14.731 h -9.695 c -2.32,0 -4.195,-1.875 -4.195,-4.211 0,-2.324 1.875,-4.199 4.195,-4.199 h 5.481 c 2.32,0 4.214,1.875 4.214,4.199 z m 6.731,-14.731 h -6.731 v 3.473 c -1.187,-2.137 -3.441,-3.473 -5.894,-3.473 h -4.211 c -5.582,0 -10.105,4.528 -10.105,10.106 0,5.582 4.523,10.105 10.105,10.105 h 10.105 v 3.375 c 0,1.844 -1.316,3.407 -3.144,3.719 -1.184,0.215 -2.387,0.313 -3.606,0.313 -1.199,0 -2.402,-0.098 -3.585,-0.313 -1.188,-0.195 -2.208,-0.953 -2.75,-2.039 l -5.317,4.211 c 1.598,2.371 4.082,3.984 6.899,4.476 1.578,0.266 3.175,0.415 4.753,0.415 1.614,0 3.196,-0.149 4.774,-0.415 5.035,-0.886 8.707,-5.265 8.707,-10.367 z m -81.684,0 v 33.692 h 6.731 v -3.801 c 2.156,2.664 5.418,4.211 8.84,4.211 3.621,0 7.027,-1.727 9.168,-4.641 2.402,2.946 5.988,4.641 9.793,4.641 6.976,0 12.621,-5.645 12.621,-12.621 v -21.481 h -6.731 v 20.625 c 0,3.735 -3.012,6.746 -6.73,6.746 -3.739,0 -6.75,-3.011 -6.75,-6.746 v -20.625 h -6.731 v 20.625 c 0,3.735 -3.011,6.746 -6.746,6.746 -3.703,0 -6.734,-3.011 -6.734,-6.746 v -20.625 z m -30.316,13.481 c 0,-3.965 3.195,-7.16 7.16,-7.16 3.949,0 7.16,3.195 7.16,7.16 v 6.73 c 0,3.949 -3.211,7.16 -7.16,7.16 -3.965,0 -7.16,-3.211 -7.16,-7.16 z m -6.746,0 v 6.73 c 0,7.672 6.222,13.891 13.906,13.891 7.672,0 13.891,-6.219 13.891,-13.891 v -6.73 c 0,-7.688 -6.219,-13.906 -13.891,-13.906 -7.684,0 -13.906,6.218 -13.906,13.906 m -32.422,13.051 h 11.801 c 3.949,0 7.156,3.191 7.156,7.16 0,3.949 -3.207,7.16 -7.156,7.16 h -11.801 z m -7.16,-26.532 v 47.153 h 19.371 c 7.437,0 13.48,-6.024 13.48,-13.461 0,-5.778 -3.687,-10.914 -9.152,-12.774 l 10.828,-20.918 h -8.41 l -9.691,20.211 h -9.266 v -20.211 z" /><path
         id="path21689"
         style="fill:#ffffff;fill-opacity:1;fill-rule:nonzero;stroke:none"
         d="m 415.887,232.795 h 14.32 c 0,3.949 -3.211,7.156 -7.16,7.156 -3.949,0 -7.16,-3.207 -7.16,-7.156 m 21.051,-5.895 h -21.051 v -0.839 c 0,-2.93 1.777,-5.563 4.496,-6.649 1.117,-0.445 2.305,-0.676 3.504,-0.676 2.75,0 5.367,1.203 7.16,3.293 l 5.101,-4.394 c -3.062,-3.571 -7.539,-5.645 -12.261,-5.645 -2.059,0 -4.098,0.395 -6.008,1.168 -5.266,2.106 -8.723,7.211 -8.723,12.903 v 6.734 c 0,7.668 6.223,13.891 13.891,13.891 7.672,0 13.891,-6.223 13.891,-13.891 z m -64.004,-14.316 v 37.047 c 0,4.359 2.796,8.211 6.91,9.594 2.125,0.707 4.347,1.07 6.566,1.07 2.238,0 4.445,-0.363 6.57,-1.07 4.129,-1.383 6.911,-5.235 6.911,-9.594 v -1.25 c 0,-3.031 -1.891,-5.731 -4.739,-6.75 2.848,-1.02 4.739,-3.719 4.739,-6.731 v -13.05 c 0,-5.122 -4.149,-9.266 -9.266,-9.266 h -4.215 v 6.32 h 3.375 c 1.86,0 3.36,1.496 3.36,3.356 v 12.64 c 0,1.86 -1.5,3.375 -3.36,3.375 h -4.211 v 6.301 h 4.211 c 1.86,0 3.36,1.516 3.36,3.375 v 1.68 c 0,1.449 -0.922,2.75 -2.29,3.207 -1.433,0.48 -2.929,0.711 -4.445,0.711 -1.496,0 -2.992,-0.231 -4.426,-0.711 -1.382,-0.457 -2.304,-1.758 -2.304,-3.207 v -37.047 z m -16.836,14.73 h -9.68 c -2.336,0 -4.215,-1.878 -4.215,-4.199 0,-2.336 1.879,-4.211 4.215,-4.211 h 5.465 c 2.336,0 4.215,1.875 4.215,4.211 z m 6.73,-14.73 h -6.73 v 3.473 c -1.188,-2.141 -3.442,-3.473 -5.895,-3.473 h -4.211 c -5.582,0 -10.105,4.523 -10.105,10.105 0,5.579 4.523,10.106 10.105,10.106 h 10.106 v 3.371 c 0,1.844 -1.321,3.41 -3.145,3.738 -1.187,0.196 -2.387,0.313 -3.59,0.313 -1.218,0 -2.418,-0.117 -3.601,-0.313 -1.188,-0.215 -2.207,-0.972 -2.75,-2.058 l -5.317,4.215 c 1.598,2.367 4.082,3.98 6.895,4.476 1.582,0.262 3.18,0.41 4.773,0.41 1.598,0 3.176,-0.148 4.758,-0.41 5.035,-0.891 8.707,-5.266 8.707,-10.371 z m -53.047,0 v 33.687 h 6.731 v -3.8 c 2.156,2.668 5.418,4.215 8.84,4.215 2.617,0 5.136,-0.891 7.16,-2.536 l -4.774,-5.91 c -1.25,1.106 -2.832,1.711 -4.492,1.711 -3.719,0 -6.734,-3.012 -6.734,-6.73 v -20.637 z m -9.265,0 h -4.211 c -4.184,0 -7.575,3.391 -7.575,7.586 v 20.621 h -3.371 v 5.48 h 3.371 v 10.106 h 6.735 v -10.106 h 5.051 v -5.48 h -5.051 V 221.01 c 0,-1.168 0.937,-2.106 2.105,-2.106 h 2.946 z m -55.578,6.07 4.625,5.449 c 3.636,-3.078 8.277,-4.773 13.05,-4.773 1.66,0 3.309,0.199 4.903,0.594 2.816,0.707 4.793,3.242 4.793,6.137 0,3.16 -2.356,5.843 -5.5,6.253 l -7.653,1.024 c -6.699,0.887 -11.703,6.598 -11.703,13.348 0,6.812 5.086,12.554 11.852,13.378 1.101,0.133 2.207,0.2 3.308,0.2 5.563,0 10.992,-1.696 15.586,-4.84 l -4.066,-5.891 c -3.391,2.32 -7.406,3.57 -11.52,3.57 -0.808,0 -1.629,-0.05 -2.437,-0.148 -3.176,-0.379 -5.563,-3.078 -5.563,-6.269 0,-3.161 2.356,-5.844 5.496,-6.254 l 7.637,-1.024 c 6.699,-0.887 11.719,-6.597 11.719,-13.347 0,-6.188 -4.211,-11.586 -10.219,-13.083 -2.156,-0.542 -4.394,-0.808 -6.633,-0.808 -6.468,0 -12.738,2.289 -17.675,6.484" /><path
         id="path21691"
         style="fill:#000000;fill-opacity:1;fill-rule:nonzero;stroke:none"
         d="m 324.191,118.162 h 5.575 l 12.343,33.649 h -7.168 l -7.898,-23.563 h -0.133 l -7.898,23.563 h -7.164 z" /><path
         id="path21693"
         style="fill:#000000;fill-opacity:1;fill-rule:nonzero;stroke:none"
         d="m 346.246,118.162 h 6.77 v 33.649 h -6.77 z m 0,40.484 h 6.77 v 6.77 h -6.77 z" /><path
         id="path21695"
         style="fill:#000000;fill-opacity:1;fill-rule:nonzero;stroke:none"
         d="m 379.645,118.162 h 6.769 v 22.961 c 0,3.938 -1.238,6.77 -3.715,8.496 -2.433,1.727 -5.863,2.59 -10.289,2.59 -2.609,0 -4.844,-0.398 -6.703,-1.195 -1.855,-0.754 -3.406,-1.993 -4.644,-3.719 l 5.308,-4.047 c 0.621,0.973 1.395,1.637 2.324,1.992 0.93,0.399 2.278,0.598 4.047,0.598 2.481,0 4.25,-0.332 5.313,-0.996 1.058,-0.621 1.59,-1.727 1.59,-3.321 v -3.515 h -9.356 c -3.453,0 -6.152,-0.953 -8.098,-2.856 -1.902,-1.902 -2.855,-4.269 -2.855,-7.101 0,-3.008 1.062,-5.485 3.187,-7.434 2.125,-1.902 5.024,-2.851 8.696,-2.851 2.254,0 4.023,0.265 5.308,0.797 1.282,0.531 2.278,1.39 2.985,2.585 h 0.133 z m 0,11.813 c 0,-2.524 -0.508,-4.137 -1.524,-4.844 -1.019,-0.664 -3.031,-0.996 -6.043,-0.996 -2.168,0 -3.781,0.398 -4.844,1.195 -1.015,0.797 -1.527,1.813 -1.527,3.051 0,1.285 0.488,2.281 1.461,2.988 0.973,0.707 2.434,1.063 4.383,1.063 h 8.094 z" /><path
         id="path21697"
         style="fill:#000000;fill-opacity:1;fill-rule:nonzero;stroke:none"
         d="m 205.578,85.061 h 10.352 c 1.105,0 2.035,-0.09 2.789,-0.266 0.797,-0.18 1.57,-0.531 2.32,-1.063 0.977,-0.621 1.727,-1.461 2.258,-2.523 0.531,-1.016 0.797,-2.277 0.797,-3.781 0,-2.035 -0.707,-3.828 -2.125,-5.375 -1.371,-1.504 -3.297,-2.258 -5.774,-2.258 H 205.578 Z M 198.41,44.576 h 7.168 v 18.449 h 10.883 c 2.344,0 4.445,0.399 6.305,1.196 1.859,0.84 3.406,1.945 4.644,3.316 1.285,1.371 2.235,2.899 2.856,4.582 0.664,1.68 0.996,3.383 0.996,5.109 0,2.434 -0.489,4.622 -1.461,6.571 -0.93,1.992 -2.145,3.562 -3.649,4.711 -1.683,1.328 -3.343,2.211 -4.98,2.656 -1.637,0.441 -3.516,0.664 -5.641,0.664 H 198.41 Z" /><path
         id="path21699"
         style="fill:#000000;fill-opacity:1;fill-rule:nonzero;stroke:none"
         d="m 237.219,44.576 h 6.769 v 20.242 c 0,2.301 0.641,4.047 1.922,5.243 1.285,1.195 2.832,1.792 4.649,1.792 0.839,0 1.589,-0.132 2.254,-0.398 0.664,-0.223 1.394,-0.644 2.191,-1.262 l 4.91,5.84 c -2.211,1.727 -4.555,2.59 -7.035,2.59 -3.715,0 -6.637,-1.328 -8.758,-3.984 h -0.133 v 3.586 h -6.769 z" /><path
         id="path21701"
         style="fill:#000000;fill-opacity:1;fill-rule:nonzero;stroke:none"
         d="m 263.211,44.576 h 6.769 v 33.649 h -6.769 z m 0,40.485 h 6.769 v 6.769 h -6.769 z" /><path
         id="path21703"
         style="fill:#000000;fill-opacity:1;fill-rule:nonzero;stroke:none"
         d="m 279.355,78.225 h -3.386 v -5.18 h 3.386 V 52.869 c 0,-2.609 0.75,-4.644 2.254,-6.105 1.504,-1.457 3.473,-2.188 5.907,-2.188 h 3.519 v 6.371 h -2.523 c -1.594,0 -2.387,0.84 -2.387,2.52 v 19.578 h 4.91 v 5.18 h -4.91 v 10.218 h -6.77 z" /><path
         id="path21705"
         style="fill:#000000;fill-opacity:1;fill-rule:nonzero;stroke:none"
         d="m 297.762,78.225 h -3.387 v -5.18 h 3.387 V 52.869 c 0,-2.609 0.75,-4.644 2.254,-6.105 1.504,-1.457 3.472,-2.188 5.906,-2.188 h 3.519 v 6.371 h -2.523 c -1.59,0 -2.387,0.84 -2.387,2.52 v 19.578 h 4.91 v 5.18 h -4.91 v 10.218 h -6.769 z" /><path
         id="path21707"
         style="fill:#000000;fill-opacity:1;fill-rule:nonzero;stroke:none"
         d="m 315.77,44.576 h 6.769 v 20.242 c 0,2.301 0.641,4.047 1.922,5.243 1.285,1.195 2.832,1.792 4.648,1.792 0.84,0 1.594,-0.132 2.254,-0.398 0.664,-0.223 1.395,-0.644 2.192,-1.262 l 4.91,5.84 c -2.211,1.727 -4.555,2.59 -7.035,2.59 -3.715,0 -6.637,-1.328 -8.758,-3.984 h -0.133 v 3.586 h -6.769 z" /><path
         id="path21709"
         style="fill:#000000;fill-opacity:1;fill-rule:nonzero;stroke:none"
         d="m 341.762,44.576 h 6.769 v 33.649 h -6.769 z m 0,40.485 h 6.769 v 6.769 h -6.769 z" /><path
         id="path21711"
         style="fill:#000000;fill-opacity:1;fill-rule:nonzero;stroke:none"
         d="m 377.285,54.463 c -0.887,-1.063 -1.926,-1.922 -3.121,-2.586 -1.148,-0.621 -2.387,-0.93 -3.715,-0.93 -2.832,0 -5,0.84 -6.504,2.52 -1.504,1.726 -2.257,4.359 -2.257,7.898 0,3.586 0.753,6.219 2.257,7.899 1.504,1.726 3.672,2.589 6.504,2.589 1.328,0 2.567,-0.332 3.715,-0.996 1.195,-0.621 2.234,-1.461 3.121,-2.523 l 4.977,4.445 c -1.547,1.817 -3.34,3.231 -5.375,4.25 -2.035,1.063 -4.27,1.594 -6.703,1.594 -1.993,0 -3.895,-0.332 -5.707,-0.996 -1.817,-0.664 -3.454,-1.703 -4.911,-3.121 -1.461,-1.371 -2.613,-3.164 -3.453,-5.375 -0.797,-2.211 -1.195,-4.801 -1.195,-7.766 0,-2.965 0.422,-5.551 1.262,-7.765 0.84,-2.168 1.968,-3.957 3.386,-5.375 1.414,-1.372 3.028,-2.387 4.844,-3.051 1.86,-0.664 3.781,-0.996 5.774,-0.996 2.433,0 4.668,0.508 6.703,1.527 2.035,1.059 3.828,2.5 5.375,4.313 z" /><path
         id="path21713"
         style="fill:#000000;fill-opacity:1;fill-rule:nonzero;stroke:none"
         d="m 386.934,44.576 h 6.769 v 20.043 c 0,2.254 0.617,4.024 1.856,5.309 1.285,1.281 2.898,1.925 4.843,1.925 1.95,0 3.543,-0.644 4.782,-1.925 1.238,-1.285 1.855,-3.055 1.855,-5.309 V 44.576 h 6.77 v 22.363 c 0,1.86 -0.329,3.52 -0.993,4.981 -0.621,1.457 -1.484,2.676 -2.589,3.648 -1.106,1.02 -2.325,1.77 -3.649,2.258 -1.328,0.531 -2.656,0.797 -3.984,0.797 -3.715,0 -6.637,-1.328 -8.762,-3.984 h -0.129 V 91.83 h -6.769 z" /><path
         id="path21715"
         style="fill:#000000;fill-opacity:1;fill-rule:nonzero;stroke:none"
         d="m 422.777,44.576 h 6.77 v 33.649 h -6.77 z m 0,40.485 h 6.77 v 6.769 h -6.77 z" /><path
         id="path21717"
         style="fill:#000000;fill-opacity:1;fill-rule:nonzero;stroke:none"
         d="m 438.523,44.576 h 6.77 v 20.043 c 0,2.254 0.617,4.024 1.855,5.309 1.286,1.281 2.899,1.925 4.848,1.925 1.945,0 3.539,-0.644 4.777,-1.925 1.239,-1.285 1.86,-3.055 1.86,-5.309 V 44.576 h 6.765 v 22.363 c 0,1.86 -0.328,3.52 -0.992,4.981 -0.621,1.457 -1.484,2.676 -2.59,3.648 -1.105,1.02 -2.324,1.77 -3.648,2.258 -1.328,0.531 -2.656,0.797 -3.984,0.797 -3.715,0 -6.637,-1.328 -8.758,-3.984 h -0.133 v 3.586 h -6.77 z" /><path
         id="path21719"
         style="fill:#000000;fill-opacity:1;fill-rule:nonzero;stroke:none"
         d="m 493.082,44.643 c 0,-2.301 -0.707,-4.094 -2.125,-5.375 -1.414,-1.286 -3.273,-1.926 -5.574,-1.926 -1.238,0 -2.41,0.285 -3.516,0.863 -1.105,0.531 -2.125,1.262 -3.054,2.188 l -5.243,-4.18 c 1.504,-1.727 3.297,-3.098 5.375,-4.113 2.082,-1.02 4.184,-1.528 6.305,-1.528 1.949,0 3.785,0.309 5.508,0.93 1.773,0.574 3.344,1.48 4.715,2.719 1.371,1.238 2.433,2.789 3.183,4.648 0.797,1.856 1.196,4.024 1.196,6.504 v 32.852 h -6.77 v -3.586 c -2.519,2.656 -5.418,3.984 -8.695,3.984 -1.989,0 -3.758,-0.398 -5.309,-1.195 -1.504,-0.797 -2.699,-1.77 -3.582,-2.922 -0.574,-0.75 -1.019,-1.395 -1.328,-1.922 -0.266,-0.531 -0.488,-1.242 -0.664,-2.125 -0.176,-0.887 -0.309,-2.035 -0.399,-3.453 -0.085,-1.371 -0.132,-3.25 -0.132,-5.641 0,-2.387 0.047,-4.289 0.132,-5.707 0.09,-1.371 0.223,-2.476 0.399,-3.316 0.176,-0.844 0.422,-1.551 0.73,-2.125 0.309,-0.574 0.731,-1.219 1.262,-1.926 0.883,-1.148 2.078,-2.121 3.582,-2.918 1.551,-0.797 3.32,-1.195 5.309,-1.195 1.683,0 3.277,0.351 4.781,1.062 1.504,0.707 2.809,1.656 3.914,2.852 z m -13.34,16.722 c 0,2.789 0.067,4.602 0.199,5.442 0.176,0.886 0.555,1.703 1.129,2.457 0.575,0.707 1.305,1.304 2.192,1.793 0.883,0.531 1.945,0.796 3.183,0.796 1.196,0 2.235,-0.265 3.121,-0.796 0.883,-0.489 1.614,-1.086 2.188,-1.793 0.578,-0.754 0.93,-1.571 1.062,-2.457 0.176,-0.84 0.266,-2.653 0.266,-5.442 0,-2.742 -0.09,-4.554 -0.266,-5.441 -0.132,-0.84 -0.484,-1.637 -1.062,-2.391 -0.574,-0.707 -1.305,-1.324 -2.188,-1.855 -0.886,-0.489 -1.925,-0.731 -3.121,-0.731 -1.238,0 -2.3,0.242 -3.183,0.731 -0.887,0.531 -1.617,1.148 -2.192,1.855 -0.574,0.754 -0.953,1.551 -1.129,2.391 -0.132,0.887 -0.199,2.699 -0.199,5.441 z" /></g></g></svg>