<?xml version="1.0" encoding="UTF-8" standalone="no"?>
<svg
   xmlns:dc="http://purl.org/dc/elements/1.1/"
   xmlns:cc="http://creativecommons.org/ns#"
   xmlns:rdf="http://www.w3.org/1999/02/22-rdf-syntax-ns#"
   xmlns:svg="http://www.w3.org/2000/svg"
   xmlns="http://www.w3.org/2000/svg"
   viewBox="0 0 601.01166 600.99805"
   height="600.99805"
   width="601.01166"
   xml:space="preserve"
   id="svg17800"
   version="1.1"><metadata
     id="metadata17806"><rdf:RDF><cc:Work
         rdf:about=""><dc:format>image/svg+xml</dc:format><dc:type
           rdf:resource="http://purl.org/dc/dcmitype/StillImage" /><dc:title></dc:title></cc:Work></rdf:RDF></metadata><defs
     id="defs17804" /><g
     transform="matrix(1.3333333,0,0,-1.3333333,0,600.99805)"
     id="g17808"><g
       id="g17810"><path
         id="path17812"
         style="fill:#ffffff;fill-opacity:1;fill-rule:nonzero;stroke:none"
         d="M 420.375,450.385 H 30.383 c -16.578,0 -30.004,-13.422 -30.004,-29.992 V 30.374 C 0.379,13.803 13.805,0.362 30.383,0.362 h 389.992 c 16.57,0 30.004,13.441 30.004,30.012 v 390.019 c 0,16.57 -13.434,29.992 -30.004,29.992" /><path
         id="path17814"
         style="fill:#000000;fill-opacity:1;fill-rule:nonzero;stroke:none"
         d="M 30.383,450.76 C 13.605,450.76 0,437.167 0,420.393 V 30.366 C 0,13.596 13.605,0.002 30.383,0.002 h 389.988 c 16.77,0 30.387,13.59 30.387,30.364 v 390.027 c 0,16.774 -13.617,30.367 -30.387,30.367 z m 0,-0.375 h 389.992 c 16.57,0 30.004,-13.422 30.004,-29.992 V 30.374 c 0,-16.571 -13.434,-30.012 -30.004,-30.012 H 30.383 C 13.805,0.362 0.379,13.803 0.379,30.374 v 390.019 c 0,16.57 13.426,29.992 30.004,29.992 z" /><path
         id="path17816"
         style="fill:#231f20;fill-opacity:1;fill-rule:nonzero;stroke:none"
         d="m 30.383,442.893 c -12.426,0 -22.508,-10.082 -22.508,-22.5 V 30.374 C 7.875,17.944 17.957,7.87 30.383,7.87 h 390.004 c 12.418,0 22.5,10.074 22.5,22.504 v 390.019 c 0,12.418 -10.082,22.5 -22.5,22.5 z m 0,-11.25 h 390.004 c 6.203,0 11.238,-5.035 11.238,-11.25 V 30.374 c 0,-6.215 -5.035,-11.25 -11.238,-11.25 H 30.383 c -6.215,0 -11.258,5.035 -11.258,11.25 v 390.019 c 0,6.215 5.043,11.25 11.258,11.25 z" /><path
         id="path17818"
         style="fill:#8a8a8a;fill-opacity:1;fill-rule:nonzero;stroke:none"
         d="m 60.375,394.131 c -2.07,0 -3.75,-1.679 -3.75,-3.75 V 60.377 c 0,-2.074 1.68,-3.75 3.75,-3.75 h 330.008 c 2.07,0 3.75,1.676 3.75,3.75 v 330.004 c 0,2.071 -1.68,3.75 -3.75,3.75 z m 144.754,-30.75 h 16.5 l -2.25,-70.5 h -35.25 z m 24,0 h 16.5 l 21,-70.5 h -35.25 z m -34.5,-83.101 13.875,-0.012 v -8.437 l -13.875,0.011 c -3.699,0 -6.965,-2.41 -8.063,-5.941 l -3.375,-10.945 h 75.368 l 3.164,8.437 -17.856,4.27 c -0.945,0.226 -1.613,1.07 -1.613,2.043 0,1.16 0.941,2.101 2.101,2.101 l 35.872,0.024 v -8.438 h -9.493 l -3.164,-8.437 12.235,-27.379 c 4.222,1.375 8.636,2.078 13.074,2.078 23.301,0 42.187,-18.891 42.187,-42.188 0,-23.3 -18.886,-42.187 -42.187,-42.187 -20.047,0 -37.324,14.105 -41.336,33.75 h -17.727 c -2.39,0 -4.668,1.012 -6.265,2.789 l -49.875,55.316 -3.356,-10.816 c 15.606,-6.606 25.746,-21.906 25.746,-38.852 0,-23.3 -18.89,-42.187 -42.187,-42.187 -23.301,0 -42.191,18.887 -42.191,42.187 0,23.297 18.89,42.188 42.191,42.188 2.812,0 5.621,-0.281 8.383,-0.844 l 12.246,39.586 c 2.187,7.066 8.722,11.883 16.121,11.883 z m -14.047,-33.762 52.832,-58.613 21.981,58.613 z m 82.77,-2.809 -21.094,-56.253 8.433,0.011 c 0,15.192 8.172,29.215 21.391,36.703 z M 157.879,221.217 c -18.641,0 -33.75,-15.113 -33.75,-33.75 0,-18.64 15.109,-33.75 33.75,-33.75 18.641,0 33.75,15.11 33.75,33.75 0,13.246 -7.75,25.27 -19.82,30.739 l -9.883,-31.993 c -0.551,-1.773 -2.192,-2.984 -4.047,-2.984 -2.34,0 -4.238,1.895 -4.238,4.238 0,0.422 0.062,0.844 0.187,1.25 l 9.926,31.973 -0.004,0.012 c -1.938,0.343 -3.902,0.515 -5.871,0.515 z m 135,0 c -3.25,0 -6.488,-0.472 -9.609,-1.398 l 15.546,-34.879 c 0.239,-0.539 0.364,-1.121 0.364,-1.711 0,-2.32 -1.879,-4.199 -4.2,-4.199 l -34.777,-0.012 c 3.852,-14.898 17.293,-25.301 32.676,-25.301 18.641,0 33.75,15.11 33.75,33.75 0,18.637 -15.109,33.75 -33.75,33.75 z m -17.332,-4.793 c -10.184,-6.093 -16.418,-17.09 -16.418,-28.957 l 0.004,-0.004 v -0.007 h 29.351 z M 133.129,131.627 h 81.75 l -3,-44.25 h -93.75 z m 102.75,0 h 81.75 l 15,-44.25 h -93.75 z" /><path
         id="path17820"
         style="fill:#231f20;fill-opacity:1;fill-rule:nonzero;stroke:none"
         d="M 392.652,431.631 19.125,58.104 v 11.137 l 362.391,362.39 h 11.136" /><path
         id="path17822"
         style="fill:#231f20;fill-opacity:1;fill-rule:nonzero;stroke:none"
         d="M 414.926,431.631 19.125,35.831 v 11.136 l 384.664,384.664 h 11.137" /><path
         id="path17824"
         style="fill:#231f20;fill-opacity:1;fill-rule:nonzero;stroke:none"
         d="M 430.621,425.053 25.703,20.143 c -2.461,1.121 -4.437,3.098 -5.562,5.559 l 404.914,404.914 c 2.465,-1.125 4.437,-3.098 5.562,-5.563" /><path
         id="path17826"
         style="fill:#231f20;fill-opacity:1;fill-rule:nonzero;stroke:none"
         d="M 431.633,403.792 46.969,19.124 H 35.832 l 395.801,395.804 v -11.136" /><path
         id="path17828"
         style="fill:#231f20;fill-opacity:1;fill-rule:nonzero;stroke:none"
         d="M 431.633,381.514 69.242,19.124 H 58.105 l 373.528,373.531 v -11.141" /></g></g></svg>