<?xml version="1.0" encoding="UTF-8" standalone="no"?>
<svg
   xmlns:dc="http://purl.org/dc/elements/1.1/"
   xmlns:cc="http://creativecommons.org/ns#"
   xmlns:rdf="http://www.w3.org/1999/02/22-rdf-syntax-ns#"
   xmlns:svg="http://www.w3.org/2000/svg"
   xmlns="http://www.w3.org/2000/svg"
   viewBox="0 0 968.81702 242.45401"
   height="242.45401"
   width="968.81702"
   xml:space="preserve"
   version="1.1"
   id="svg3452"><metadata
     id="metadata3458"><rdf:RDF><cc:Work
         rdf:about=""><dc:format>image/svg+xml</dc:format><dc:type
           rdf:resource="http://purl.org/dc/dcmitype/StillImage" /><dc:title></dc:title></cc:Work></rdf:RDF></metadata><defs
     id="defs3456"><clipPath
       id="clipPath3470"
       clipPathUnits="userSpaceOnUse"><path
         id="path3472"
         d="M 0,0 775,0 775,194 0,194 0,0 Z" /></clipPath></defs><g
     transform="matrix(1.25,0,0,-1.25,0,242.45401)"
     id="g3460"><g
       id="g3462"><g
         transform="translate(0,-0.0367889)"
         id="g3464"><g
           id="g3466"><g
             clip-path="url(#clipPath3470)"
             id="g3468"><g
               id="g3474"><path
                 id="path3476"
                 style="fill:#f0c900;fill-opacity:1;fill-rule:nonzero;stroke:none"
                 d="m 23.25,193.605 c -12.609,0 -22.855,-10.261 -22.855,-22.882 l 0,-147.411 C 0.395,10.691 10.641,0.414 23.25,0.414 l 588.562,0 c 12.157,0 24.161,3.211 34.692,9.313 l 116.73,67.457 c 3.477,2.007 6.364,4.91 8.371,8.386 3.055,5.301 3.868,11.469 2.286,17.371 -1.586,5.907 -5.356,10.84 -10.657,13.899 l -116.73,67.472 c -10.531,6.083 -22.535,9.293 -34.692,9.293" /></g></g></g></g><path
         id="path3478"
         style="fill:#000000;fill-opacity:1;fill-rule:nonzero;stroke:none"
         d="m 23.25,188.143 c -9.621,0 -17.43,-7.809 -17.43,-17.457 l 0,-147.41 c 0,-9.645 7.809,-17.457 17.43,-17.457 l 588.562,0 c 11.231,0 22.25,2.957 31.969,8.566 l 116.746,67.473 c 2.649,1.531 4.852,3.73 6.379,6.394 4.809,8.344 1.949,19.028 -6.379,23.84 l -116.746,67.469 c -9.719,5.625 -20.738,8.582 -31.969,8.582 l -588.562,0 z m 0,-9.703 588.562,0 c 9.52,0 18.887,-2.508 27.133,-7.278 L 755.688,103.69 c 3.703,-2.145 4.98,-6.883 2.835,-10.586 -0.687,-1.176 -1.656,-2.16 -2.835,-2.848 L 638.945,22.799 c -8.246,-4.781 -17.613,-7.293 -27.133,-7.293 l -588.562,0 c -4.277,0 -7.758,3.481 -7.758,7.77 l 0,147.41 c 0,4.277 3.481,7.754 7.758,7.754 z" /><path
         id="path3480"
         style="fill:#000000;fill-opacity:1;fill-rule:nonzero;stroke:none"
         d="m 391.234,143.92 0,-71.976 -113.617,0 c 6.606,-5.356 10.445,-13.403 10.445,-21.914 l 112.555,0 c 0,15.562 12.606,28.171 28.141,28.171 15.551,0 28.14,-12.609 28.14,-28.171 l 3.129,0 c 3.45,0 6.254,2.804 6.254,6.265 l 0,34.578 c 0,3.004 -0.535,5.977 -1.586,8.793 l -13.797,36.821 c -0.871,2.312 -3,3.898 -5.468,4.054 l -54.196,3.379 z m 21.891,-10.953 31.602,-1.976 c 1.234,-0.067 2.3,-0.868 2.734,-2.02 l 10.477,-27.988 c 0.601,-1.61 -0.211,-3.418 -1.825,-4.024 -0.476,-0.168 -0.965,-0.238 -1.472,-0.179 l -41.516,4.89 0,31.297 z" /><path
         id="path3482"
         style="fill:#000000;fill-opacity:1;fill-rule:nonzero;stroke:none"
         d="m 238.035,50.03 c 0,12.101 9.801,21.918 21.887,21.918 12.086,0 21.887,-9.817 21.887,-21.918 0,-12.102 -9.801,-21.903 -21.887,-21.903 -12.086,0 -21.887,9.801 -21.887,21.903 z m 168.836,0 c 0,12.101 9.801,21.918 21.887,21.918 12.086,0 21.887,-9.817 21.887,-21.918 0,-12.102 -9.801,-21.903 -21.887,-21.903 -12.086,0 -21.887,9.801 -21.887,21.903 z m -28.129,28.168 -181.359,0 0,87.636 181.359,0 0,-87.636 z M 216.145,50.03 l -18.762,6.269 0,15.649 44.855,0 C 235.621,66.588 231.781,58.541 231.781,50.03" /></g></g></svg>