<?xml version="1.0" encoding="UTF-8" standalone="no"?>
<svg
   xmlns:dc="http://purl.org/dc/elements/1.1/"
   xmlns:cc="http://creativecommons.org/ns#"
   xmlns:rdf="http://www.w3.org/1999/02/22-rdf-syntax-ns#"
   xmlns:svg="http://www.w3.org/2000/svg"
   xmlns="http://www.w3.org/2000/svg"
   viewBox="0 0 1173.256 839.75995"
   height="839.75995"
   width="1173.256"
   xml:space="preserve"
   id="svg5082"
   version="1.1"><metadata
     id="metadata5088"><rdf:RDF><cc:Work
         rdf:about=""><dc:format>image/svg+xml</dc:format><dc:type
           rdf:resource="http://purl.org/dc/dcmitype/StillImage" /><dc:title></dc:title></cc:Work></rdf:RDF></metadata><defs
     id="defs5086" /><g
     transform="matrix(1.3333333,0,0,1.3333333,0,2.2993998e-5)"
     id="g5090"><g
       id="g5092"><path
         id="path5094"
         style="fill:#f0c900;fill-opacity:1;fill-rule:evenodd;stroke:none"
         d="M 21.449,0 C 9.625,0 0,9.641 0,21.48 v 586.86 c 0,11.84 9.625,21.48 21.449,21.48 h 837.024 c 11.84,0 21.468,-9.64 21.468,-21.48 V 21.48 C 879.941,9.641 870.313,0 858.473,0" /><path
         id="path5096"
         style="fill:#000000;fill-opacity:1;fill-rule:evenodd;stroke:none"
         d="m 21.449,6.871 c -8.078,0 -14.597,6.516 -14.597,14.609 v 586.86 c 0,8.094 6.519,14.598 14.597,14.598 h 837.024 c 8.078,0 14.597,-6.504 14.597,-14.598 V 21.48 c 0,-8.093 -6.519,-14.609 -14.597,-14.609 z m 0,10.961 h 837.024 c 2.039,0 3.668,1.609 3.668,3.648 V 300.664 H 17.801 V 21.48 c 0,-2.039 1.609,-3.648 3.648,-3.648 z m -3.648,293.797 h 844.34 V 456.32 H 17.801 Z m 0,155.656 h 844.34 V 608.34 c 0,2.043 -1.629,3.648 -3.668,3.648 H 21.449 c -2.039,0 -3.648,-1.605 -3.648,-3.648 z" /><path
         id="path5098"
         style="fill:#000000;fill-opacity:1;fill-rule:evenodd;stroke:none"
         d="m 190.699,130.895 c -4.765,0 -8.625,3.851 -8.625,8.621 v 39.468 c 0,4.766 3.86,8.621 8.625,8.621 h 81.313 c 4.769,0 8.621,-3.855 8.621,-8.621 v -39.468 c 0,-4.77 -3.852,-8.621 -8.621,-8.621 z m 0,3.679 h 81.313 c 2.711,0 4.926,2.211 4.926,4.942 v 39.468 c 0,2.727 -2.215,4.922 -4.926,4.922 h -81.313 c -2.711,0 -4.926,-2.195 -4.926,-4.922 v -39.468 c 0,-2.731 2.215,-4.942 4.926,-4.942 z" /><path
         id="path5100"
         style="fill:#000000;fill-opacity:1;fill-rule:evenodd;stroke:none"
         d="m 220.879,166.348 c 0,-3.094 1.496,-6.008 4.016,-7.793 -2.137,-1.688 -3.395,-4.285 -3.395,-7.028 0,-5.433 4.414,-9.863 9.863,-9.863 5.434,0 9.848,4.43 9.848,9.863 0,2.743 -1.262,5.34 -3.395,7.028 2.52,1.785 4,4.699 4,7.793 0,5.785 -4.687,10.468 -10.453,10.468 -5.8,0 -10.484,-4.683 -10.484,-10.468 z m 10.484,5.543 c 3.043,0 5.528,-2.481 5.528,-5.543 0,-3.078 -2.485,-5.563 -5.528,-5.563 -3.078,0 -5.558,2.485 -5.558,5.563 0,3.062 2.48,5.543 5.558,5.543 z m 0,-15.426 c 2.707,0 4.907,-2.195 4.907,-4.938 0,-2.707 -2.2,-4.922 -4.907,-4.922 -2.738,0 -4.941,2.215 -4.941,4.922 0,2.743 2.203,4.938 4.941,4.938" /><path
         id="path5102"
         style="fill:#000000;fill-opacity:1;fill-rule:evenodd;stroke:none"
         d="m 542.227,63.473 c -3.86,0 -6.981,3.121 -6.981,6.976 h 13.957 c 0,-3.855 -3.137,-6.976 -6.976,-6.976 z m -2.598,20.043 c 1.082,0.449 2.246,0.672 3.41,0.672 2.695,0 5.227,-1.18 6.977,-3.219 l 4.988,4.285 c -2.996,3.488 -7.359,5.496 -11.965,5.496 -2.008,0 -3.984,-0.383 -5.851,-1.133 -5.145,-2.054 -8.524,-7.043 -8.524,-12.586 v -6.582 c 0,-7.492 6.07,-13.558 13.563,-13.558 7.472,0 13.543,6.066 13.543,13.558 v 5.75 h -20.524 v 0.832 c 0,2.852 1.738,5.418 4.383,6.485 z M 494.168,57.305 h 6.977 l 7.808,23.008 7.809,-23.008 h 6.98 l -11.906,32.886 h -5.75 z m -25.469,13.144 c 0,-3.855 3.125,-6.976 6.996,-6.976 3.86,0 6.981,3.121 6.981,6.976 v 6.582 c 0,3.856 -3.121,6.996 -6.981,6.996 -3.871,0 -6.996,-3.14 -6.996,-6.996 z m -6.547,0 v 6.582 c 0,7.489 6.055,13.559 13.543,13.559 7.493,0 13.547,-6.07 13.547,-13.559 v -6.582 c 0,-7.488 -6.054,-13.558 -13.547,-13.558 -7.488,0 -13.543,6.07 -13.543,13.558 z M 433.406,57.305 v 3.711 c 2.102,-2.614 5.274,-4.125 8.606,-4.125 6.133,0 11.086,4.968 11.086,11.086 v 22.214 h -6.563 V 70.035 c 0,-3.633 -2.945,-6.562 -6.582,-6.562 -3.601,0 -6.547,2.929 -6.547,6.562 V 90.191 H 426.84 V 57.305 Z m -36.14,0 v 3.711 c 2.105,-2.614 5.273,-4.125 8.617,-4.125 6.121,0 11.094,4.968 11.094,11.086 V 90.191 H 410.41 V 70.035 c 0,-3.633 -2.949,-6.562 -6.582,-6.562 -3.617,0 -6.562,2.929 -6.562,6.562 v 20.156 h -6.567 V 57.305 Z m -27.11,26.722 c 2.282,0 4.114,-1.851 4.114,-4.113 v -4.109 h -9.45 c -2.261,0 -4.097,1.832 -4.097,4.109 0,2.262 1.836,4.113 4.097,4.113 z m -1.64,6.164 h -4.11 c -5.433,0 -9.867,-4.429 -9.867,-9.878 0,-5.434 4.434,-9.864 9.867,-9.864 h 9.864 v -3.285 c 0,-1.797 -1.29,-3.34 -3.059,-3.644 -1.164,-0.211 -2.328,-0.305 -3.508,-0.305 -1.18,0 -2.359,0.09 -3.519,0.305 -1.164,0.207 -2.153,0.953 -2.661,1.992 l -5.214,-4.098 c 1.566,-2.309 4,-3.887 6.742,-4.367 1.527,-0.27 3.09,-0.414 4.652,-0.414 1.547,0 3.11,0.144 4.641,0.414 4.906,0.859 8.492,5.133 8.492,10.117 v 23.027 h -6.566 v -3.406 c -1.165,2.102 -3.364,3.406 -5.754,3.406 z m -55.039,-46.05 h 6.996 v 19.73 h 18.882 v -19.73 h 6.997 v 46.05 h -6.997 V 70.035 h -18.882 v 20.156 h -6.996 z m 257.894,13.164 v 3.711 c 2.102,-2.614 5.274,-4.125 8.621,-4.125 2.547,0 5.02,0.859 6.996,2.468 l -4.672,5.766 c -1.207,-1.066 -2.753,-1.652 -4.363,-1.652 -3.633,0 -6.582,2.929 -6.582,6.562 v 20.156 h -6.566 V 57.305" /><path
         id="path5104"
         style="fill:#000000;fill-opacity:1;fill-rule:evenodd;stroke:none"
         d="m 590.273,129.648 v 3.715 c 2.102,-2.597 5.274,-4.113 8.618,-4.113 2.55,0 5.023,0.859 6.98,2.473 l -4.668,5.75 c -1.195,-1.067 -2.758,-1.657 -4.367,-1.657 -3.617,0 -6.563,2.946 -6.563,6.579 v 20.144 h -6.566 v -32.891 z m -36.144,13.149 c 0,-3.856 3.125,-6.981 6.98,-6.981 3.856,0 6.981,3.125 6.981,6.981 v 6.594 c 0,3.855 -3.125,6.98 -6.981,6.98 -3.855,0 -6.98,-3.125 -6.98,-6.98 z m -6.566,0 v 6.594 c 0,7.476 6.074,13.547 13.546,13.547 7.489,0 13.563,-6.071 13.563,-13.547 v -6.594 c 0,-7.477 -6.074,-13.547 -13.563,-13.547 -7.472,0 -13.546,6.07 -13.546,13.547 z m -28.747,-0.402 c 0,-3.633 2.934,-6.579 6.567,-6.579 3.633,0 6.566,2.946 6.566,6.579 v 7.394 c 0,3.652 -2.933,6.582 -6.566,6.582 -3.633,0 -6.567,-2.93 -6.567,-6.582 z m 13.133,16.433 v 3.711 h 6.578 V 116.5 h -6.578 v 16.863 c -2.105,-2.597 -5.277,-4.113 -8.621,-4.113 -6.121,0 -11.094,4.957 -11.094,11.094 v 11.504 c 0,6.132 4.973,11.09 11.094,11.09 3.344,0 6.516,-1.512 8.621,-4.11 z m -30.375,3.711 c -4.094,0 -7.406,-3.316 -7.406,-7.394 V 116.5 h 6.578 v 37.816 c 0,1.133 0.926,2.055 2.055,2.055 h 2.867 v 6.168 z m -29.988,-26.723 c -3.844,0 -6.981,3.125 -6.981,6.981 h 13.961 c 0,-3.856 -3.125,-6.981 -6.98,-6.981 z m -2.582,20.047 c 1.07,0.446 2.23,0.668 3.41,0.668 2.676,0 5.227,-1.164 6.965,-3.218 l 4.988,4.304 c -2.996,3.473 -7.367,5.496 -11.953,5.496 -2.008,0 -4,-0.398 -5.863,-1.133 -5.149,-2.054 -8.512,-7.042 -8.512,-12.589 v -6.594 c 0,-7.477 6.059,-13.547 13.547,-13.547 7.488,0 13.562,6.07 13.562,13.547 v 5.766 h -20.543 v 0.828 c 0,2.851 1.735,5.418 4.399,6.472 z m -34.582,-13.48 c -1.734,-0.106 -3.07,-1.547 -3.07,-3.27 0,-1.531 1.035,-2.851 2.515,-3.203 1.067,-0.25 2.153,-0.379 3.238,-0.379 3.118,0 6.161,1.067 8.618,3.028 l 4.093,-5.149 c -3.617,-2.883 -8.109,-4.461 -12.711,-4.461 -1.613,0 -3.207,0.192 -4.769,0.555 -4.43,1.07 -7.566,5.035 -7.566,9.609 0,5.215 4.062,9.516 9.257,9.836 l 6.961,0.442 c 1.723,0.117 3.09,1.547 3.09,3.285 0,1.371 -0.859,2.597 -2.133,3.074 -1.547,0.586 -3.187,0.879 -4.84,0.879 -3.652,0 -7.156,-1.438 -9.757,-4.016 l -4.618,4.664 c 3.825,3.797 8.989,5.93 14.375,5.93 2.434,0 4.856,-0.445 7.137,-1.289 3.856,-1.449 6.403,-5.129 6.403,-9.242 0,-5.211 -4.043,-9.528 -9.243,-9.848 z m -33.668,0 c -1.734,-0.106 -3.078,-1.547 -3.078,-3.27 0,-1.531 1.039,-2.851 2.519,-3.203 1.055,-0.25 2.137,-0.379 3.219,-0.379 3.141,0 6.199,1.067 8.637,3.028 l 4.113,-5.149 c -3.617,-2.883 -8.113,-4.461 -12.75,-4.461 -1.59,0 -3.187,0.192 -4.762,0.555 -4.433,1.07 -7.554,5.035 -7.554,9.609 0,5.215 4.062,9.516 9.257,9.836 l 6.981,0.442 c 1.734,0.117 3.074,1.547 3.074,3.285 0,1.371 -0.859,2.597 -2.133,3.074 -1.547,0.586 -3.187,0.879 -4.863,0.879 -3.648,0 -7.141,-1.438 -9.723,-4.016 l -4.632,4.664 c 3.824,3.797 8.968,5.93 14.355,5.93 2.453,0 4.875,-0.445 7.172,-1.289 3.84,-1.449 6.391,-5.129 6.391,-9.242 0,-5.211 -4.047,-9.528 -9.243,-9.848 z M 370.988,116.5 h 6.563 v 6.566 h -6.563 z m -13.148,0 h 6.566 v 6.566 h -6.566 z m 16.43,42.328 c -2.122,2.598 -5.293,4.11 -8.637,4.11 -6.102,0 -11.094,-4.958 -11.094,-11.09 v -22.2 h 6.582 v 20.141 c 0,3.652 2.934,6.582 6.582,6.582 3.617,0 6.567,-2.93 6.567,-6.582 v -20.141 h 6.566 v 32.891 h -6.566 z m -53.797,-35.762 v 32.891 h 9.449 c 5.211,0 9.433,-4.238 9.433,-9.449 v -13.973 c 0,-5.226 -4.222,-9.469 -9.433,-9.469 z m -6.996,-6.566 h 16.445 c 9.066,0 16.43,7.367 16.43,16.434 v 13.16 c 0,9.082 -7.364,16.445 -16.43,16.445 h -16.445 z m 298.976,18.488 h -3.301 v -5.34 h 3.301 v -4.941 c 0,-4.519 3.664,-8.207 8.207,-8.207 h 4.938 v 6.168 h -4.524 c -1.133,0 -2.054,0.914 -2.054,2.039 v 4.941 h 6.578 v 5.34 h -6.578 v 27.551 h -6.567" /><path
         id="path5106"
         style="fill:#000000;fill-opacity:1;fill-rule:evenodd;stroke:none"
         d="m 678.934,77.445 15.601,-33.304 h 7.395 l -15.602,32.89 h 11.922 v -13.16 h 6.547 v 13.16 h 3.715 v 6.168 h -3.715 v 6.992 h -6.547 v -6.992 h -19.316 z m -22.993,-28.363 6.563,-4.941 h 6.566 v 46.05 h -6.566 v -39.07 l -6.563,4.938 z m 86.176,1.641 h -18.484 v 10.39 c 2.105,-1.675 4.715,-2.582 7.41,-2.582 6.562,0 11.887,5.34 11.887,11.918 v 6.996 c 0,7.266 -5.883,13.145 -13.133,13.145 -6.77,0 -12.445,-5.16 -13.078,-11.918 h 6.625 c 0.59,3.109 3.301,5.355 6.453,5.355 3.617,0 6.582,-2.964 6.582,-6.582 v -5.754 c 0,-3.648 -2.965,-6.578 -6.582,-6.578 -2.516,0 -4.813,1.434 -5.895,3.696 H 717.48 V 44.141 h 24.637" /><path
         id="path5108"
         style="fill:#000000;fill-opacity:1;fill-rule:evenodd;stroke:none"
         d="m 701.977,129.25 c 0,-3.648 -2.934,-6.582 -6.582,-6.582 -3.618,0 -6.567,2.934 -6.567,6.582 h -6.562 c 0,-7.281 5.879,-13.16 13.129,-13.16 7.265,0 13.164,5.879 13.164,13.16 0,2.98 -1.039,5.867 -2.887,8.207 l -14.789,18.5 h 17.676 v 6.582 h -26.293 v -6.168 l 18.277,-23.043 c 0.941,-1.164 1.434,-2.594 1.434,-4.078 z m -43.536,-7.824 6.582,-4.926 h 6.547 v 46.039 h -6.547 V 123.48 l -6.582,4.942 z m 70.957,34.945 c 3.844,0 6.981,-3.125 6.981,-6.98 v -0.828 c 0,-3.872 -3.137,-6.997 -6.981,-6.997 h -2.882 v -5.75 h 2.882 c 3.618,0 6.551,-2.949 6.551,-6.566 0,-3.648 -2.933,-6.582 -6.551,-6.582 -3.168,0 -5.878,2.25 -6.468,5.34 h -6.629 c 0.64,-6.758 6.312,-11.918 13.097,-11.918 7.239,0 13.133,5.879 13.133,13.16 0,3.727 -1.816,7.234 -4.879,9.402 3.301,2.211 5.278,5.926 5.278,9.911 v 0.828 c 0,7.476 -6.055,13.547 -13.532,13.547 -6.867,0 -12.632,-5.118 -13.46,-11.922 h 6.675 c 0.746,3.14 3.551,5.355 6.785,5.355" /><path
         id="path5110"
         style="fill:#000000;fill-opacity:1;fill-rule:evenodd;stroke:none"
         d="m 762.656,55.84 h 4.895 v 21.461 l 9.496,-11.664 h 5.832 l -8.27,9.531 9.496,15.023 h -6.136 l -6.438,-11.359 -3.98,4.301 v 7.058 h -4.895 z m 30.629,12.586 c 1.578,-1.961 3.938,-3.09 6.438,-3.09 2.629,0 5.097,1.273 6.675,3.394 1.735,-2.156 4.352,-3.394 7.11,-3.394 5.082,0 9.195,4.125 9.195,9.207 v 15.648 h -4.914 V 75.168 c 0,-2.727 -2.195,-4.926 -4.887,-4.926 -2.711,0 -4.91,2.199 -4.91,4.926 v 15.023 h -4.894 V 75.168 c 0,-2.727 -2.196,-4.926 -4.907,-4.926 -2.707,0 -4.906,2.199 -4.906,4.926 v 15.023 h -4.894 V 65.637 h 4.894" /><path
         id="path5112"
         style="fill:#000000;fill-opacity:1;fill-rule:evenodd;stroke:none"
         d="m 762.656,128.184 h 4.895 v 21.464 L 777.047,138 h 5.832 l -8.27,9.512 9.496,15.027 h -6.136 l -6.438,-11.348 -3.98,4.289 v 7.059 h -4.895 z m 30.629,12.586 c 1.578,-1.946 3.938,-3.075 6.438,-3.075 2.629,0 5.097,1.258 6.675,3.379 1.735,-2.133 4.352,-3.379 7.11,-3.379 5.082,0 9.195,4.125 9.195,9.196 v 15.648 h -4.914 v -15.027 c 0,-2.711 -2.195,-4.907 -4.887,-4.907 -2.711,0 -4.91,2.196 -4.91,4.907 v 15.027 h -4.894 v -15.027 c 0,-2.711 -2.196,-4.907 -4.907,-4.907 -2.707,0 -4.906,2.196 -4.906,4.907 v 15.027 h -4.894 V 138 h 4.894" /><path
         id="path5114"
         style="fill:#ffffff;fill-opacity:1;fill-rule:nonzero;stroke:none"
         d="m 313.477,188.848 h 447.617 v 85.508 H 313.477 Z" /><path
         id="path5116"
         style="fill:#000000;fill-opacity:1;fill-rule:evenodd;stroke:none"
         d="m 685.547,234.469 c 0,-3.614 2.93,-6.582 6.562,-6.582 3.633,0 6.582,2.968 6.582,6.582 v 7.41 c 0,3.633 -2.949,6.582 -6.582,6.582 -3.632,0 -6.562,-2.949 -6.562,-6.582 z m 13.144,16.445 v 3.695 h 6.567 v -46.035 h -6.567 v 16.875 c -2.117,-2.609 -5.273,-4.125 -8.636,-4.125 -6.117,0 -11.071,4.969 -11.071,11.106 v 11.508 c 0,6.117 4.954,11.105 11.071,11.105 3.363,0 6.519,-1.531 8.636,-4.129 z m -48.472,-29.176 v 3.711 c 2.117,-2.609 5.289,-4.125 8.636,-4.125 6.118,0 11.094,4.969 11.094,11.106 v 22.179 h -6.586 v -20.14 c 0,-3.614 -2.929,-6.582 -6.562,-6.582 -3.633,0 -6.582,2.968 -6.582,6.582 v 20.14 h -6.567 v -32.871 z m -26.262,-13.164 h 6.563 v 6.582 h -6.563 z m -13.144,0 h 6.562 v 6.582 h -6.562 z m 12.316,39.887 c 2.262,0 4.098,-1.848 4.098,-4.125 v -4.098 h -9.434 c -2.266,0 -4.113,1.832 -4.113,4.098 0,2.277 1.847,4.125 4.113,4.125 z m -1.641,6.148 h -4.113 c -5.449,0 -9.848,-4.398 -9.848,-9.859 0,-5.449 4.399,-9.867 9.848,-9.867 h 9.852 v -3.281 c 0,-1.801 -1.282,-3.329 -3.047,-3.649 -1.164,-0.191 -2.34,-0.289 -3.52,-0.289 -1.18,0 -2.359,0.106 -3.523,0.289 -1.149,0.207 -2.137,0.938 -2.664,2.008 l -5.192,-4.113 c 1.559,-2.309 3.985,-3.891 6.723,-4.364 1.547,-0.285 3.094,-0.414 4.656,-0.414 1.559,0 3.106,0.129 4.653,0.414 4.91,0.84 8.476,5.129 8.476,10.118 v 23.007 h -6.562 v -3.375 c -1.153,2.086 -3.348,3.375 -5.739,3.375 z m -23.011,0 c -4.079,0 -7.391,-3.293 -7.391,-7.39 v -38.645 h 6.578 v 37.828 c 0,1.137 0.926,2.059 2.055,2.059 h 2.867 v 6.148 z m -29.973,-26.722 c -3.856,0 -6.981,3.14 -6.981,6.996 h 13.961 c 0,-3.856 -3.125,-6.996 -6.98,-6.996 z m -2.582,20.066 c 1.082,0.43 2.23,0.668 3.41,0.668 2.676,0 5.227,-1.18 6.965,-3.223 l 4.988,4.29 c -2.996,3.492 -7.367,5.5 -11.953,5.5 -2.027,0 -4,-0.368 -5.863,-1.133 -5.149,-2.055 -8.512,-7.043 -8.512,-12.59 v -6.582 c 0,-7.488 6.059,-13.559 13.547,-13.559 7.488,0 13.562,6.071 13.562,13.559 v 5.769 h -20.543 v 0.817 c 0,2.867 1.735,5.429 4.399,6.484 z m -39.727,-13.484 c 0,-3.614 2.95,-6.582 6.582,-6.582 3.633,0 6.567,2.968 6.567,6.582 v 7.41 c 0,3.633 -2.934,6.582 -6.567,6.582 -3.632,0 -6.582,-2.949 -6.582,-6.582 z m 5.754,33.91 c 2.324,0 4.621,-0.524 6.707,-1.578 4.446,-2.231 7.266,-6.789 7.266,-11.758 v -33.305 h -6.578 v 3.711 c -2.11,-2.609 -5.262,-4.125 -8.621,-4.125 -6.121,0 -11.075,4.969 -11.075,11.106 v 11.508 c 0,6.117 4.954,11.105 11.075,11.105 3.359,0 6.511,-1.531 8.621,-4.129 v 4.129 c 0,2.488 -1.406,4.766 -3.621,5.883 -1.18,0.57 -2.469,0.875 -3.774,0.875 -2.535,0 -4.926,-1.133 -6.519,-3.106 l -5.098,4.141 c 2.836,3.523 7.125,5.543 11.617,5.543 z m -34.09,-40.492 c -3.855,0 -6.976,3.14 -6.976,6.996 h 13.961 c 0,-3.856 -3.11,-6.996 -6.985,-6.996 z m -2.578,20.066 c 1.082,0.43 2.246,0.668 3.41,0.668 2.68,0 5.227,-1.18 6.977,-3.223 l 4.988,4.29 c -2.996,3.492 -7.359,5.5 -11.965,5.5 -2.007,0 -4,-0.368 -5.867,-1.133 -5.129,-2.055 -8.504,-7.043 -8.504,-12.59 v -6.582 c 0,-7.488 6.067,-13.559 13.539,-13.559 7.493,0 13.563,6.071 13.563,13.559 v 5.769 h -20.539 v 0.817 c 0,2.867 1.754,5.429 4.398,6.484 z m -34.578,-13.484 c -1.723,-0.114 -3.078,-1.543 -3.078,-3.281 0,-1.512 1.039,-2.836 2.52,-3.204 1.05,-0.238 2.136,-0.382 3.234,-0.382 3.141,0 6.168,1.07 8.621,3.027 l 4.113,-5.133 c -3.617,-2.883 -8.113,-4.476 -12.734,-4.476 -1.613,0 -3.203,0.207 -4.766,0.574 -4.429,1.066 -7.566,5.035 -7.566,9.594 0,5.21 4.043,9.527 9.258,9.847 l 6.965,0.445 c 1.734,0.106 3.089,1.532 3.089,3.27 0,1.367 -0.859,2.594 -2.136,3.09 -1.563,0.574 -3.203,0.879 -4.844,0.879 -3.652,0 -7.156,-1.449 -9.75,-4.02 l -4.625,4.656 c 3.809,3.809 8.988,5.946 14.375,5.946 2.441,0 4.859,-0.449 7.156,-1.309 3.84,-1.449 6.391,-5.117 6.391,-9.242 0,-5.215 -4.051,-9.516 -9.231,-9.832 z m -33.656,0 c -1.734,-0.114 -3.09,-1.543 -3.09,-3.281 0,-1.512 1.051,-2.836 2.516,-3.204 1.05,-0.238 2.132,-0.382 3.234,-0.382 3.141,0 6.184,1.07 8.637,3.027 l 4.082,-5.133 c -3.606,-2.883 -8.098,-4.476 -12.719,-4.476 -1.609,0 -3.203,0.207 -4.766,0.574 -4.425,1.066 -7.55,5.035 -7.55,9.594 0,5.21 4.047,9.527 9.242,9.847 l 6.98,0.445 c 1.723,0.106 3.075,1.532 3.075,3.27 0,1.367 -0.844,2.594 -2.118,3.09 -1.562,0.574 -3.203,0.879 -4.863,0.879 -3.648,0 -7.152,-1.449 -9.734,-4.02 l -4.637,4.656 c 3.809,3.809 8.988,5.946 14.371,5.946 2.438,0 4.863,-0.449 7.156,-1.309 3.84,-1.449 6.387,-5.117 6.387,-9.242 0,-5.215 -4.043,-9.516 -9.223,-9.832 z m -31.84,-6.582 c -3.855,0 -6.977,3.14 -6.977,6.996 h 13.958 c 0,-3.856 -3.122,-6.996 -6.981,-6.996 z m -2.582,20.066 c 1.086,0.43 2.23,0.668 3.41,0.668 2.68,0 5.227,-1.18 6.969,-3.223 l 4.984,4.29 c -2.992,3.492 -7.343,5.5 -11.953,5.5 -2.004,0 -3.996,-0.368 -5.863,-1.133 -5.149,-2.055 -8.508,-7.043 -8.508,-12.59 v -6.582 c 0,-7.488 6.055,-13.559 13.543,-13.559 7.492,0 13.563,6.071 13.563,13.559 v 5.769 h -20.54 v 0.817 c 0,2.867 1.735,5.429 4.395,6.484 z m -59.437,-39.379 h 6.582 l 13.144,30.024 13.149,-30.024 h 6.566 v 46.035 h -6.996 v -29.175 l -9.848,22.613 h -5.75 l -9.847,-22.613 v 29.175 h -7 z m 394.652,19.313 c -3.856,0 -6.981,3.14 -6.981,6.996 h 13.973 c 0,-3.856 -3.137,-6.996 -6.992,-6.996 z m -2.582,20.066 c 1.082,0.43 2.246,0.668 3.41,0.668 2.676,0 5.227,-1.18 6.977,-3.223 l 4.988,4.29 c -2.996,3.492 -7.36,5.5 -11.965,5.5 -2.008,0 -4,-0.368 -5.863,-1.133 -5.149,-2.055 -8.512,-7.043 -8.512,-12.59 v -6.582 c 0,-7.488 6.07,-13.559 13.547,-13.559 7.488,0 13.558,6.071 13.558,13.559 v 5.769 h -20.539 v 0.817 c 0,2.867 1.754,5.429 4.399,6.484" /><path
         id="path5118"
         style="fill:#000000;fill-opacity:1;fill-rule:evenodd;stroke:none"
         d="m 57.227,158.16 46.003,-46.055 45.989,46.055 v 22.098 l -36.793,-36.84 v 62.973 H 94.02 v -62.973 l -36.793,36.84" /><path
         id="path5120"
         style="fill:#000000;fill-opacity:1;fill-rule:evenodd;stroke:none"
         d="m 582.352,380.262 c -3.86,0 -6.981,3.136 -6.981,6.996 h 13.961 c 0,-3.86 -3.141,-6.996 -6.98,-6.996 z m -2.598,20.058 c 1.082,0.43 2.246,0.653 3.41,0.653 2.676,0 5.227,-1.16 6.965,-3.2 l 5,4.286 c -2.992,3.507 -7.379,5.5 -11.965,5.5 -2.008,0 -3.984,-0.383 -5.851,-1.118 -5.145,-2.07 -8.524,-7.062 -8.524,-12.605 v -6.578 c 0,-7.492 6.07,-13.563 13.563,-13.563 7.472,0 13.546,6.071 13.546,13.563 v 5.75 h -20.527 v 0.828 c 0,2.852 1.719,5.418 4.383,6.484 z m -34.582,-13.48 c -1.734,-0.113 -3.07,-1.543 -3.07,-3.281 0,-1.528 1.035,-2.836 2.515,-3.204 1.067,-0.253 2.153,-0.382 3.235,-0.382 3.121,0 6.183,1.07 8.621,3.027 l 4.109,-5.145 c -3.617,-2.886 -8.113,-4.445 -12.73,-4.445 -1.61,0 -3.204,0.172 -4.766,0.555 -4.445,1.07 -7.57,5.035 -7.57,9.594 0,5.214 4.062,9.511 9.261,9.847 l 6.961,0.43 c 1.754,0.117 3.09,1.547 3.09,3.285 0,1.371 -0.859,2.609 -2.133,3.09 -1.547,0.574 -3.187,0.863 -4.843,0.863 -3.664,0 -7.153,-1.437 -9.735,-4.019 l -4.637,4.668 c 3.825,3.812 8.985,5.929 14.372,5.929 2.437,0 4.859,-0.429 7.152,-1.289 3.844,-1.433 6.391,-5.133 6.391,-9.242 0,-5.211 -4.047,-9.512 -9.243,-9.851 z m -26.484,16.43 c -2.102,2.617 -5.274,4.128 -8.637,4.128 -6.117,0 -11.071,-4.957 -11.071,-11.109 v -22.195 h 6.567 v 20.156 c 0,3.633 2.945,6.566 6.578,6.566 3.617,0 6.563,-2.933 6.563,-6.566 v -20.156 h 6.566 v 32.89 h -6.566 z m -39.422,-2.454 c 2.261,0 4.093,-1.832 4.093,-4.113 v -4.094 h -9.433 c -2.258,0 -4.11,1.836 -4.11,4.094 0,2.281 1.852,4.113 4.11,4.113 z m -1.641,6.168 h -4.113 c -5.449,0 -9.864,-4.414 -9.864,-9.863 0,-5.453 4.415,-9.863 9.864,-9.863 h 9.847 v -3.281 c 0,-1.805 -1.273,-3.348 -3.058,-3.653 -1.164,-0.211 -2.324,-0.304 -3.504,-0.304 -1.164,0 -2.344,0.101 -3.508,0.304 -1.16,0.207 -2.148,0.942 -2.676,1.992 l -5.195,-4.113 c 1.562,-2.308 4,-3.871 6.738,-4.348 1.532,-0.273 3.094,-0.417 4.641,-0.417 1.562,0 3.105,0.144 4.652,0.417 4.91,0.844 8.496,5.133 8.496,10.122 v 23.007 h -6.586 v -3.379 c -1.144,2.09 -3.343,3.379 -5.734,3.379 z m -41.062,-46.039 v 16.864 c 2.101,-2.602 5.273,-4.114 8.621,-4.114 6.117,0 11.086,4.973 11.086,11.094 v 22.195 h -6.579 V 386.84 c 0,-3.633 -2.933,-6.578 -6.566,-6.578 -3.617,0 -6.562,2.945 -6.562,6.578 v 20.144 h -6.567 v -46.039 z m -36.141,25.895 c 0,-3.633 2.945,-6.578 6.562,-6.578 3.649,0 6.582,2.945 6.582,6.578 v 7.41 c 0,3.633 -2.933,6.566 -6.582,6.566 -3.617,0 -6.562,-2.933 -6.562,-6.566 z m 5.75,33.914 c 2.328,0 4.617,-0.543 6.691,-1.578 4.461,-2.231 7.266,-6.789 7.266,-11.778 v -33.304 h -6.563 v 3.715 c -2.105,-2.602 -5.277,-4.114 -8.625,-4.114 -6.132,0 -11.086,4.973 -11.086,11.094 v 11.5 c 0,6.152 4.954,11.109 11.086,11.109 3.348,0 6.52,-1.511 8.625,-4.128 v 4.128 c 0,2.485 -1.402,4.782 -3.636,5.895 -1.16,0.574 -2.453,0.879 -3.758,0.879 -2.52,0 -4.922,-1.129 -6.516,-3.109 l -5.101,4.16 c 2.836,3.492 7.105,5.531 11.617,5.531 z m -41.067,-46.66 v 3.715 c 2.102,-2.602 5.274,-4.114 8.622,-4.114 6.132,0 11.093,4.973 11.093,11.094 v 22.195 h -6.566 V 386.84 c 0,-3.633 -2.949,-6.578 -6.582,-6.578 -3.617,0 -6.567,2.945 -6.567,6.578 v 20.144 h -6.566 v -32.89 z m -22.992,-13.149 h 6.567 v 6.582 h -6.567 z m 0,13.149 h 6.567 v 32.89 h -6.567 z m -12.336,32.89 c -4.078,0 -7.379,-3.3 -7.379,-7.394 v -38.645 h 6.567 v 37.817 c 0,1.133 0.926,2.054 2.058,2.054 h 2.868 v 6.168 z m -41.875,-46.039 h 6.567 v 28.782 l 12.726,-15.633 h 7.809 l -11.09,12.746 12.734,20.144 h -8.222 l -8.621,-15.203 -5.336,5.754 v 9.449 h -6.567 z m -32.734,27.551 c 0,-8.172 6.629,-14.801 14.789,-14.801 4.398,0 8.559,1.961 11.379,5.34 l -5.051,4.207 c -1.562,-1.883 -3.89,-2.98 -6.328,-2.98 -4.539,0 -8.207,3.679 -8.207,8.234 v 4.113 c 0,4.528 3.668,8.207 8.207,8.207 2.438,0 4.766,-1.086 6.328,-2.961 l 5.051,4.204 c -2.82,3.379 -6.981,5.339 -11.379,5.339 -8.16,0 -14.789,-6.628 -14.789,-14.789 z m -20.938,-8.234 c -3.855,0 -6.976,3.136 -6.976,6.996 h 13.957 c 0,-3.86 -3.125,-6.996 -6.981,-6.996 z m -2.597,20.058 c 1.086,0.43 2.23,0.653 3.43,0.653 2.675,0 5.222,-1.16 6.96,-3.2 l 4.989,4.286 c -2.996,3.507 -7.364,5.5 -11.949,5.5 -2.028,0 -4.004,-0.383 -5.868,-1.118 -5.144,-2.07 -8.527,-7.062 -8.527,-12.605 v -6.578 c 0,-7.492 6.074,-13.563 13.562,-13.563 7.473,0 13.559,6.071 13.559,13.563 v 5.75 h -20.535 v 0.828 c 0,2.852 1.734,5.418 4.379,6.484 z m -31.074,-33.207 h -11.504 v 13.977 h 11.504 c 3.843,0 6.98,-3.125 6.98,-6.996 0,-3.84 -3.137,-6.981 -6.98,-6.981 z m 0.402,-6.168 c 7.266,0 13.141,5.899 13.141,13.149 0,5.66 -3.586,10.66 -8.918,12.476 l 10.562,20.414 h -8.207 l -9.449,-19.726 h -9.035 v 19.726 h -6.981 v -46.039 z m 410.535,13.149 v 3.715 c 2.102,-2.602 5.274,-4.114 8.621,-4.114 6.133,0 11.09,4.973 11.09,11.094 v 22.195 h -6.566 V 386.84 c 0,-3.633 -2.95,-6.578 -6.563,-6.578 -3.633,0 -6.582,2.945 -6.582,6.578 v 20.144 h -6.566 v -32.89" /><path
         id="path5122"
         style="fill:#000000;fill-opacity:1;fill-rule:evenodd;stroke:none"
         d="m 677.512,400.816 c 3.859,0 6.98,-3.125 6.98,-6.98 v -0.828 c 0,-3.856 -3.121,-6.981 -6.98,-6.981 h -2.879 v -5.765 h 2.879 c 3.636,0 6.586,-2.934 6.586,-6.567 0,-3.632 -2.95,-6.582 -6.586,-6.582 -3.153,0 -5.864,2.246 -6.449,5.34 h -6.629 c 0.636,-6.754 6.308,-11.918 13.078,-11.918 7.269,0 13.148,5.895 13.148,13.16 0,3.746 -1.832,7.25 -4.875,9.399 3.301,2.219 5.289,5.929 5.289,9.914 v 0.828 c 0,7.488 -6.066,13.562 -13.562,13.562 -6.848,0 -12.617,-5.117 -13.446,-11.921 h 6.676 c 0.75,3.144 3.555,5.339 6.77,5.339 z m 27.523,-6.566 v -2.055 c 0,-3.632 2.934,-6.578 6.567,-6.578 3.632,0 6.566,2.946 6.566,6.578 v 2.055 c 0,3.633 -2.934,6.566 -6.566,6.566 -3.633,0 -6.567,-2.933 -6.567,-6.566 z m 4.973,-13.59 9.801,-19.715 h -7.379 l -12.606,25.403 c -0.89,1.816 -1.371,3.808 -1.371,5.847 v 2.055 c 0,7.27 5.895,13.148 13.149,13.148 7.25,0 13.144,-5.878 13.144,-13.148 v -3.711 c 0,-5.898 -4.781,-10.676 -10.676,-10.676 -1.402,0 -2.773,0.27 -4.062,0.797" /><path
         id="path5124"
         style="fill:#000000;fill-opacity:1;fill-rule:evenodd;stroke:none"
         d="m 744.457,372.645 h 4.91 v 21.46 l 9.496,-11.648 h 5.817 l -8.27,9.5 9.496,15.027 h -6.133 l -6.441,-11.347 -3.965,4.304 v 7.043 h -4.91 z m 30.645,12.585 c 1.562,-1.957 3.937,-3.089 6.421,-3.089 2.645,0 5.114,1.273 6.68,3.394 1.735,-2.148 4.348,-3.394 7.106,-3.394 5.082,0 9.191,4.125 9.191,9.211 v 15.632 h -4.887 v -15.027 c 0,-2.695 -2.203,-4.891 -4.914,-4.891 -2.703,0 -4.906,2.196 -4.906,4.891 v 15.027 h -4.906 v -15.027 c 0,-2.695 -2.184,-4.891 -4.891,-4.891 -2.711,0 -4.894,2.196 -4.894,4.891 v 15.027 h -4.907 v -24.527 h 4.907" /><path
         id="path5126"
         style="fill:#000000;fill-opacity:1;fill-rule:evenodd;stroke:none"
         d="M 103.23,430.012 57.227,383.977 103.23,337.938 h 22.071 l -36.797,36.828 h 60.715 v 18.418 H 88.504 l 36.797,36.828" /><path
         id="path5128"
         style="fill:#000000;fill-opacity:1;fill-rule:evenodd;stroke:none"
         d="m 472.305,535.93 c -3.86,0 -6.981,3.136 -6.981,6.98 h 13.961 c 0,-3.844 -3.125,-6.98 -6.98,-6.98 z m -2.582,20.066 c 1.082,0.426 2.242,0.649 3.41,0.649 2.676,0 5.226,-1.165 6.961,-3.204 l 5.004,4.289 c -2.993,3.489 -7.379,5.497 -11.965,5.497 -2.008,0 -4,-0.399 -5.863,-1.129 -5.153,-2.059 -8.512,-7.047 -8.512,-12.594 v -6.594 c 0,-7.476 6.07,-13.547 13.547,-13.547 7.488,0 13.558,6.071 13.558,13.547 v 5.766 h -20.539 v 0.828 c 0,2.855 1.735,5.422 4.399,6.488 z m -39.715,-13.484 c 0,-3.614 2.949,-6.582 6.582,-6.582 3.617,0 6.566,2.968 6.566,6.582 v 7.394 c 0,3.649 -2.949,6.578 -6.566,6.578 -3.633,0 -6.582,-2.929 -6.582,-6.578 z m 5.754,33.91 c 2.328,0 4.609,-0.543 6.695,-1.594 4.461,-2.23 7.266,-6.769 7.266,-11.758 v -33.308 h -6.567 v 3.715 c -2.121,-2.598 -5.273,-4.114 -8.621,-4.114 -6.117,0 -11.09,4.961 -11.09,11.094 v 11.52 c 0,6.121 4.973,11.093 11.09,11.093 3.348,0 6.5,-1.515 8.621,-4.129 v 4.129 c 0,2.481 -1.418,4.778 -3.633,5.879 -1.164,0.586 -2.453,0.891 -3.761,0.891 -2.532,0 -4.926,-1.145 -6.516,-3.121 l -5.098,4.16 c 2.832,3.504 7.122,5.543 11.614,5.543 z m -32.028,-19.938 c 2.262,0 4.094,-1.832 4.094,-4.105 v -4.113 h -9.433 c -2.262,0 -4.094,1.847 -4.094,4.113 0,2.273 1.832,4.105 4.094,4.105 z m -1.64,6.168 h -4.114 c -5.433,0 -9.847,-4.414 -9.847,-9.863 0,-5.449 4.414,-9.879 9.847,-9.879 h 9.848 v -3.265 c 0,-1.817 -1.273,-3.348 -3.043,-3.668 -1.164,-0.176 -2.344,-0.286 -3.504,-0.286 -1.179,0 -2.359,0.114 -3.523,0.286 -1.164,0.211 -2.149,0.957 -2.664,2.011 l -5.211,-4.113 c 1.578,-2.309 4.004,-3.887 6.742,-4.363 1.531,-0.278 3.094,-0.403 4.656,-0.403 1.543,0 3.09,0.129 4.637,0.403 4.906,0.859 8.492,5.129 8.492,10.133 v 23.007 h -6.582 v -3.39 c -1.144,2.086 -3.348,3.39 -5.734,3.39 z m -60.778,-29.175 c 2.102,-2.598 5.274,-4.114 8.622,-4.114 3.519,0 6.851,1.676 8.937,4.528 2.344,-2.868 5.852,-4.528 9.531,-4.528 6.821,0 12.336,5.516 12.336,12.336 v 20.953 h -6.566 v -20.14 c 0,-3.614 -2.949,-6.582 -6.582,-6.582 -3.617,0 -6.567,2.968 -6.567,6.582 v 20.14 h -6.566 v -20.14 c 0,-3.614 -2.949,-6.582 -6.582,-6.582 -3.613,0 -6.563,2.968 -6.563,6.582 v 20.14 h -6.566 v -32.89 h 6.566 z m -27.105,-3.715 v 3.715 c 2.102,-2.598 5.273,-4.114 8.621,-4.114 2.531,0 5,0.864 6.981,2.473 l -4.657,5.769 c -1.207,-1.085 -2.773,-1.675 -4.379,-1.675 -3.632,0 -6.566,2.968 -6.566,6.582 v 20.14 h -6.582 v -32.89 z M 278.07,542.91 c 0,-3.844 3.121,-6.98 6.977,-6.98 3.859,0 6.984,3.136 6.984,6.98 v 6.598 c 0,3.855 -3.125,6.976 -6.984,6.976 -3.856,0 -6.977,-3.121 -6.977,-6.976 z m -6.566,0 v 6.598 c 0,7.488 6.055,13.562 13.543,13.562 7.492,0 13.562,-6.074 13.562,-13.562 v -6.598 c 0,-7.476 -6.07,-13.547 -13.562,-13.547 -7.488,0 -13.543,6.071 -13.543,13.547 z m -34.082,-19.726 v 32.906 h 9.43 c 5.226,0 9.449,-4.242 9.449,-9.465 v -13.977 c 0,-5.21 -4.223,-9.464 -9.449,-9.464 z m -6.984,-6.567 h 16.414 c 9.086,0 16.429,7.363 16.429,16.43 v 13.164 c 0,9.082 -7.343,16.441 -16.429,16.441 h -16.414 z m 271.027,13.145 v 3.715 c 2.101,-2.598 5.273,-4.114 8.621,-4.114 6.121,0 11.09,4.961 11.09,11.094 v 22.195 h -6.563 v -20.14 c 0,-3.614 -2.949,-6.582 -6.566,-6.582 -3.633,0 -6.582,2.968 -6.582,6.582 v 20.14 h -6.567 v -32.89" /><path
         id="path5130"
         style="fill:#000000;fill-opacity:1;fill-rule:evenodd;stroke:none"
         d="m 554.035,549.906 15.602,-33.289 h 7.394 l -15.601,32.891 h 11.898 v -13.164 h 6.582 v 13.164 h 3.684 v 6.152 h -3.684 v 6.992 h -6.582 v -6.992 h -19.293 z m 57.492,-20.543 c 0,-3.648 -2.949,-6.582 -6.582,-6.582 -3.613,0 -6.562,2.934 -6.562,6.582 h -6.567 c 0,-7.265 5.879,-13.16 13.129,-13.16 7.27,0 13.149,5.895 13.149,13.16 0,2.981 -1.02,5.883 -2.883,8.207 l -14.773,18.52 h 17.656 v 6.562 h -26.278 v -6.168 l 18.278,-23.023 c 0.922,-1.18 1.433,-2.613 1.433,-4.098" /><path
         id="path5132"
         style="fill:#000000;fill-opacity:1;fill-rule:evenodd;stroke:none"
         d="m 637.805,528.313 h 4.906 v 21.468 l 9.496,-11.652 h 5.82 l -8.273,9.496 9.5,15.027 h -6.121 l -6.438,-11.343 -3.984,4.285 v 7.058 h -4.906 z m 30.64,12.574 c 1.563,-1.942 3.938,-3.074 6.438,-3.074 2.629,0 5.101,1.253 6.664,3.375 1.754,-2.133 4.351,-3.375 7.121,-3.375 5.07,0 9.195,4.128 9.195,9.191 v 15.648 h -4.906 v -15.027 c 0,-2.707 -2.203,-4.906 -4.894,-4.906 -2.708,0 -4.907,2.199 -4.907,4.906 v 15.027 h -4.906 v -15.027 c 0,-2.707 -2.199,-4.906 -4.891,-4.906 -2.711,0 -4.914,2.199 -4.914,4.906 v 15.027 h -4.906 v -24.523 h 4.906" /><path
         id="path5134"
         style="fill:#000000;fill-opacity:1;fill-rule:evenodd;stroke:none"
         d="m 776.695,493.594 46.008,46.051 -46.008,46.035 h -22.07 l 36.793,-36.84 h -60.711 v -18.406 h 60.711 l -36.793,-36.84" /></g></g></svg>