<?xml version="1.0" encoding="UTF-8" standalone="no"?>
<svg
   xmlns:dc="http://purl.org/dc/elements/1.1/"
   xmlns:cc="http://creativecommons.org/ns#"
   xmlns:rdf="http://www.w3.org/1999/02/22-rdf-syntax-ns#"
   xmlns:svg="http://www.w3.org/2000/svg"
   xmlns="http://www.w3.org/2000/svg"
   xmlns:sodipodi="http://sodipodi.sourceforge.net/DTD/sodipodi-0.dtd"
   xmlns:inkscape="http://www.inkscape.org/namespaces/inkscape"
   viewBox="0 0 3001.0012 2751.0012"
   height="2751.0012"
   width="3001.0012"
   xml:space="preserve"
   version="1.1"
   id="svg4757"
   sodipodi:docname="Zeichen_441_-_Gegliederter Vorwegweiser_zur_Autobahn_(3000x2750) - nach RWB;_StVO_2009.svg"
   inkscape:version="0.92.4 (5da689c313, 2019-01-14)"><sodipodi:namedview
     pagecolor="#ffffff"
     bordercolor="#666666"
     borderopacity="1"
     objecttolerance="10"
     gridtolerance="10"
     guidetolerance="10"
     inkscape:pageopacity="0"
     inkscape:pageshadow="2"
     inkscape:window-width="1524"
     inkscape:window-height="802"
     id="namedview3388"
     showgrid="false"
     inkscape:zoom="1.1083866"
     inkscape:cx="2283.9037"
     inkscape:cy="-238.1239"
     inkscape:window-x="22"
     inkscape:window-y="229"
     inkscape:window-maximized="0"
     inkscape:current-layer="svg4757"
     fit-margin-top="0"
     fit-margin-left="0"
     fit-margin-right="0"
     fit-margin-bottom="0"
     showguides="false" /><metadata
     id="metadata4763"><rdf:RDF><cc:Work
         rdf:about=""><dc:format>image/svg+xml</dc:format><dc:type
           rdf:resource="http://purl.org/dc/dcmitype/StillImage" /><dc:title></dc:title></cc:Work></rdf:RDF></metadata><defs
     id="defs4761"><clipPath
       clipPathUnits="userSpaceOnUse"
       id="clipPath1056"><path
         d="m 406.178,541.349 h 48.855 v 40.258 h -48.855 z"
         id="path1054"
         inkscape:connector-curvature="0" /></clipPath><clipPath
       clipPathUnits="userSpaceOnUse"
       id="clipPath1044"><path
         d="m 410.587,541.719 h 40.036 v 37.178 h -40.036 z"
         id="path1042"
         inkscape:connector-curvature="0" /></clipPath><clipPath
       clipPathUnits="userSpaceOnUse"
       id="clipPath1032"><path
         d="m 406.178,541.349 h 48.855 v 40.258 h -48.855 z"
         id="path1030"
         inkscape:connector-curvature="0" /></clipPath></defs><path
     id="path4769"
     style="fill:#ffffff;fill-opacity:1;fill-rule:nonzero;stroke:none;stroke-width:1.25"
     d="m 75.4975,0.4975 c -41.42,0 -75,33.58 -75,75 0.1275,1025.2988 0.025,1574.5025 0,2600 0,41.4213 33.58,75 75,75 h 2850 c 41.4213,0 75,-33.5787 75,-75 -0.024,-1025.4975 -0.1213,-1574.7012 0,-2600 0,-41.42 -33.5787,-75 -75,-75 z"
     inkscape:connector-curvature="0"
     sodipodi:nodetypes="sccssccss" /><path
     id="path4771"
     style="fill:#154889;fill-opacity:1;fill-rule:nonzero;stroke:none;stroke-width:1.25"
     d="m 75.4975,55.4975 c -11.045,0 -20,8.955 -20,20 0,0.39125 0.015,0.77625 0.04,1.1575 l -0.07375,2598.8425 h 0.03375 c 0,11.05 8.955,20 20,20 h 2850.0938 c 11.0449,0 20,-8.95 20,-20 h 0.034 L 2945.5563,76.655 c 0.02,-0.38125 0.035,-0.76625 0.035,-1.1575 0,-11.045 -8.9551,-20 -20,-20 z"
     inkscape:connector-curvature="0"
     sodipodi:nodetypes="sscccsscccsss" /><path
     id="path4827"
     style="fill:#000000;fill-opacity:1;fill-rule:nonzero;stroke:none;stroke-width:1.25"
     d="M 75.4975,0 C 33.80875,0 0,33.80875 0,75.4975 c 0.1225,1025.2988 0.025,1574.5025 0,2600 0,41.695 33.80875,75.5038 75.4975,75.5038 h 2850 c 41.695,0 75.5037,-33.8088 75.5037,-75.5038 -0.025,-1025.4975 -0.1274,-1574.7012 0,-2600 C 3001.0012,33.80875 2967.1925,0 2925.4975,0 Z m 0,1.00125 h 2850 C 2966.65,1.00125 3000,34.35 3000,75.4975 c -0.1225,1025.2988 -0.025,1574.5025 0,2600 0,41.1525 -33.35,74.5025 -74.5025,74.5025 h -2850 C 34.35,2750 1.00125,2716.65 1.00125,2675.4975 1.025,1650 1.1225,1100.7963 1.00125,75.4975 1.00125,34.35 34.35,1.00125 75.4975,1.00125 Z"
     inkscape:connector-curvature="0"
     sodipodi:nodetypes="sccssccssssccssccs" /><g
     transform="matrix(75.076943,0,0,-75.076943,-30828.044,43459.353)"
     id="g1050"><g
       id="g1052"
       clip-path="url(#clipPath1056)"><g
         id="g1058"
         transform="translate(412.0355,542.4895)" /><path
         d="m 421.882,576.432 h 24.088 v -4.631 h -24.088 z"
         style="fill:#f0c900;fill-opacity:1;fill-rule:evenodd;stroke:none"
         id="path1062"
         inkscape:connector-curvature="0" /><g
         id="g1064"
         transform="translate(432.1981,568.1079)"><path
           d="m 0,0 0.763,-0.197 c 0.016,-0.004 0.033,-0.006 0.05,-0.006 0.113,0 0.204,0.091 0.204,0.203 0,0.04 -0.012,0.08 -0.034,0.113 L -0.508,2.338 -1.999,0.113 C -2.021,0.08 -2.033,0.04 -2.033,0 c 0,-0.112 0.091,-0.203 0.203,-0.203 0.017,0 0.035,0.002 0.051,0.006 L -1.017,0 v -11.725 h -6.02 l 0.197,0.763 c 0.004,0.016 0.006,0.033 0.006,0.05 0,0.113 -0.091,0.204 -0.203,0.204 -0.04,0 -0.08,-0.012 -0.113,-0.035 l -2.225,-1.49 2.225,-1.491 c 0.033,-0.022 0.073,-0.034 0.113,-0.034 0.112,0 0.203,0.091 0.203,0.203 0,0.017 -0.002,0.034 -0.006,0.051 l -0.197,0.762 h 6.02 V -23.924 H 0 Z"
           style="fill:#ffffff;fill-opacity:1;fill-rule:evenodd;stroke:none"
           id="path1066"
           inkscape:connector-curvature="0" /></g><g
         id="g1068"
         transform="translate(444.9539,572.931)"><path
           d="m 0,0 h -0.339 v 0.191 c -0.109,-0.134 -0.272,-0.212 -0.445,-0.212 -0.316,0 -0.572,0.256 -0.572,0.572 v 0.593 c 0,0.315 0.256,0.572 0.572,0.572 0.173,0 0.336,-0.079 0.445,-0.213 V 2.372 H 0 V 0 l -0.339,0.656 v 0.382 c 0,0.187 -0.152,0.339 -0.339,0.339 -0.187,0 -0.339,-0.152 -0.339,-0.339 V 0.656 c 0,-0.187 0.152,-0.338 0.339,-0.338 0.187,0 0.339,0.151 0.339,0.338 z m -1.695,0 h -0.211 c -0.211,0 -0.382,0.171 -0.382,0.381 v 1.991 h 0.339 V 0.424 c 0,-0.059 0.048,-0.106 0.106,-0.106 h 0.148 z m -2.117,1.017 h 0.72 c 0,0.198 -0.162,0.36 -0.36,0.36 -0.199,0 -0.36,-0.162 -0.36,-0.36 M -2.754,0.72 H -3.812 V 0.678 c 0,-0.147 0.089,-0.28 0.226,-0.335 C -3.53,0.321 -3.47,0.31 -3.41,0.31 c 0.138,0 0.27,0.06 0.36,0.165 l 0.257,-0.221 c -0.155,-0.18 -0.38,-0.283 -0.617,-0.283 -0.104,0 -0.206,0.019 -0.302,0.058 -0.266,0.106 -0.439,0.363 -0.439,0.649 v 0.339 c 0,0.386 0.313,0.699 0.699,0.699 0.386,0 0.698,-0.313 0.698,-0.699 z M -5.126,0 v 1.419 h -0.169 v 0.275 h 0.169 v 0.255 c 0,0.233 0.19,0.423 0.424,0.423 h 0.254 V 2.054 h -0.233 c -0.058,0 -0.106,-0.047 -0.106,-0.105 V 1.694 h 0.339 V 1.419 H -4.787 V 0 Z m -1.905,0 v 1.694 h 0.338 V 1.503 c 0.109,0.134 0.272,0.213 0.445,0.213 0.316,0 0.572,-0.257 0.572,-0.572 V 0 h -0.339 v 1.038 c 0,0.187 -0.152,0.339 -0.339,0.339 -0.187,0 -0.339,-0.152 -0.339,-0.339 V 0 Z m -1.526,1.017 h 0.721 c 0,0.198 -0.161,0.36 -0.361,0.36 -0.199,0 -0.36,-0.162 -0.36,-0.36 m 1.06,-0.297 h -1.06 V 0.678 c 0,-0.147 0.09,-0.28 0.227,-0.335 0.056,-0.022 0.115,-0.033 0.176,-0.033 0.138,0 0.27,0.06 0.36,0.165 l 0.257,-0.221 c -0.155,-0.18 -0.38,-0.283 -0.617,-0.283 -0.103,0 -0.206,0.019 -0.302,0.058 -0.265,0.106 -0.44,0.363 -0.44,0.649 v 0.339 c 0,0.386 0.314,0.699 0.699,0.699 0.386,0 0.7,-0.313 0.7,-0.699 z M -9.7,0.656 v 0.382 c 0,0.187 -0.152,0.339 -0.339,0.339 -0.187,0 -0.339,-0.152 -0.339,-0.339 V 0.656 c 0,-0.187 0.152,-0.338 0.339,-0.338 0.187,0 0.339,0.151 0.339,0.338 m 0.339,1.038 v -1.715 c 0,-0.257 -0.145,-0.492 -0.375,-0.607 -0.107,-0.053 -0.226,-0.081 -0.346,-0.081 -0.232,0 -0.452,0.105 -0.599,0.285 l 0.263,0.214 c 0.082,-0.101 0.206,-0.16 0.336,-0.16 0.068,0 0.134,0.016 0.195,0.046 0.114,0.057 0.187,0.175 0.187,0.303 v 0.212 c -0.109,-0.134 -0.272,-0.212 -0.445,-0.212 -0.316,0 -0.572,0.256 -0.572,0.572 v 0.593 c 0,0.315 0.256,0.572 0.572,0.572 0.173,0 0.336,-0.079 0.445,-0.213 V 1.694 Z M -12.538,0 v 1.694 h 0.339 V 1.503 c 0.108,0.134 0.272,0.213 0.444,0.213 0.316,0 0.572,-0.257 0.572,-0.572 V 0 h -0.339 v 1.038 c 0,0.187 -0.151,0.339 -0.339,0.339 -0.187,0 -0.338,-0.152 -0.338,-0.339 V 0 Z m -0.847,0.741 h -0.488 c -0.116,0 -0.211,-0.094 -0.211,-0.212 0,-0.116 0.095,-0.211 0.211,-0.211 h 0.276 c 0.116,0 0.212,0.095 0.212,0.211 z M -13.046,0 h -0.339 V 0.175 C -13.445,0.067 -13.559,0 -13.682,0 h -0.212 c -0.28,0 -0.508,0.228 -0.508,0.508 0,0.281 0.228,0.509 0.508,0.509 h 0.509 v 0.169 c 0,0.093 -0.067,0.172 -0.158,0.188 -0.06,0.01 -0.121,0.016 -0.181,0.016 -0.061,0 -0.121,-0.006 -0.181,-0.016 -0.06,-0.011 -0.111,-0.049 -0.138,-0.103 l -0.268,0.212 c 0.08,0.119 0.206,0.2 0.347,0.225 0.079,0.013 0.159,0.02 0.24,0.02 0.08,0 0.16,-0.007 0.239,-0.02 0.253,-0.045 0.439,-0.265 0.439,-0.522 z m -3.135,0 v 2.372 h 0.36 V 0.339 h 1.165 V 0 Z"
           style="fill:#231f20;fill-opacity:1;fill-rule:evenodd;stroke:none"
           id="path1070"
           inkscape:connector-curvature="0" /></g><g
         id="g1072"
         transform="translate(427.3268,563.3298)"><path
           d="M 0,0 V 1.694 H 0.339 V 1.503 c 0.109,0.134 0.272,0.213 0.445,0.213 0.131,0 0.258,-0.045 0.36,-0.128 L 0.903,1.291 C 0.841,1.346 0.761,1.377 0.678,1.377 0.491,1.377 0.339,1.225 0.339,1.038 V 0 H 0 1.483 v 1.419 h -0.17 v 0.275 h 0.17 v 0.254 c 0,0.234 0.189,0.424 0.423,0.424 H 2.161 V 2.054 H 1.927 C 1.869,2.054 1.822,2.007 1.822,1.948 V 1.694 H 2.161 V 1.419 H 1.822 V 0 H 1.483 Z m -1.525,0.678 c 0,-0.199 0.161,-0.36 0.36,-0.36 0.199,0 0.36,0.161 0.36,0.36 v 0.339 c 0,0.198 -0.161,0.36 -0.36,0.36 -0.199,0 -0.36,-0.162 -0.36,-0.36 z m -0.339,0 v 0.339 c 0,0.386 0.313,0.699 0.699,0.699 0.386,0 0.699,-0.313 0.699,-0.699 V 0.678 c 0,-0.386 -0.313,-0.699 -0.699,-0.699 -0.386,0 -0.699,0.313 -0.699,0.699 M -2.668,0.657 v 0.381 c 0,0.187 -0.152,0.339 -0.339,0.339 -0.187,0 -0.339,-0.152 -0.339,-0.339 V 0.657 c 0,-0.188 0.152,-0.339 0.339,-0.339 0.187,0 0.339,0.151 0.339,0.339 M -2.33,0 h -0.338 v 0.191 c -0.109,-0.134 -0.273,-0.212 -0.445,-0.212 -0.316,0 -0.572,0.256 -0.572,0.572 v 0.593 c 0,0.316 0.256,0.572 0.572,0.572 0.172,0 0.336,-0.079 0.445,-0.213 v 0.869 h 0.338 z m -1.694,0 h -0.212 c -0.21,0 -0.381,0.171 -0.381,0.381 v 1.991 h 0.339 V 0.424 c 0,-0.059 0.047,-0.106 0.106,-0.106 h 0.148 z m -2.118,1.017 h 0.72 c 0,0.198 -0.161,0.36 -0.36,0.36 -0.199,0 -0.36,-0.162 -0.36,-0.36 M -5.083,0.72 H -6.142 V 0.678 c 0,-0.147 0.09,-0.28 0.227,-0.335 0.056,-0.022 0.115,-0.033 0.176,-0.033 0.138,0 0.269,0.06 0.359,0.165 l 0.257,-0.221 c -0.154,-0.18 -0.379,-0.283 -0.616,-0.283 -0.104,0 -0.206,0.019 -0.302,0.058 -0.266,0.106 -0.44,0.363 -0.44,0.649 v 0.339 c 0,0.386 0.313,0.699 0.699,0.699 0.386,0 0.699,-0.313 0.699,-0.699 z m -3.219,-0.449 0.239,0.241 c 0.133,-0.133 0.314,-0.208 0.502,-0.208 0.086,0 0.17,0.016 0.25,0.046 0.066,0.025 0.11,0.088 0.11,0.158 0,0.09 -0.069,0.164 -0.159,0.169 L -7.72,0.7 c -0.267,0.017 -0.476,0.239 -0.476,0.507 0,0.235 0.161,0.44 0.389,0.495 0.081,0.019 0.163,0.029 0.246,0.029 0.239,0 0.47,-0.081 0.657,-0.23 L -7.116,1.236 c -0.126,0.101 -0.283,0.156 -0.445,0.156 -0.056,0 -0.112,-0.007 -0.167,-0.02 -0.076,-0.018 -0.129,-0.086 -0.129,-0.165 0,-0.089 0.069,-0.163 0.158,-0.169 l 0.361,-0.022 c 0.267,-0.017 0.476,-0.239 0.476,-0.508 0,-0.212 -0.131,-0.401 -0.33,-0.475 -0.118,-0.045 -0.243,-0.068 -0.369,-0.068 -0.278,0 -0.544,0.11 -0.741,0.306 m -1.737,0 0.239,0.241 c 0.134,-0.133 0.314,-0.208 0.502,-0.208 0.086,0 0.17,0.016 0.251,0.046 0.066,0.025 0.109,0.088 0.109,0.158 0,0.09 -0.069,0.164 -0.158,0.169 L -9.456,0.7 c -0.268,0.017 -0.477,0.239 -0.477,0.507 0,0.235 0.161,0.44 0.39,0.495 0.08,0.019 0.163,0.029 0.245,0.029 0.239,0 0.47,-0.081 0.657,-0.23 L -8.852,1.236 c -0.127,0.101 -0.284,0.156 -0.446,0.156 -0.056,0 -0.112,-0.007 -0.166,-0.02 -0.076,-0.018 -0.13,-0.086 -0.13,-0.165 0,-0.089 0.069,-0.163 0.159,-0.169 l 0.36,-0.022 c 0.268,-0.017 0.476,-0.239 0.476,-0.508 0,-0.212 -0.131,-0.401 -0.329,-0.475 -0.119,-0.045 -0.243,-0.068 -0.37,-0.068 -0.277,0 -0.544,0.11 -0.741,0.306 m -0.932,2.101 h 0.339 V 2.033 h -0.339 z m -0.678,0 h 0.339 V 2.033 h -0.339 z M -10.462,0 h -0.339 v 0.191 c -0.109,-0.134 -0.272,-0.212 -0.445,-0.212 -0.316,0 -0.572,0.256 -0.572,0.572 v 1.143 h 0.339 V 0.657 c 0,-0.188 0.152,-0.339 0.339,-0.339 0.187,0 0.339,0.151 0.339,0.339 v 1.037 h 0.339 z m -3.114,0.339 h 0.487 c 0.269,0 0.487,0.218 0.487,0.487 v 0.72 c 0,0.269 -0.218,0.487 -0.487,0.487 h -0.487 z M -13.936,0 v 2.372 h 0.847 c 0.468,0 0.847,-0.379 0.847,-0.847 V 0.847 C -12.242,0.379 -12.621,0 -13.089,0 Z"
           style="fill:#ffffff;fill-opacity:1;fill-rule:evenodd;stroke:none"
           id="path1074"
           inkscape:connector-curvature="0" /></g><g
         id="g1076"
         transform="translate(446.0835,556.5524)"><path
           d="m 0,0 h -0.212 c -0.211,0 -0.381,0.171 -0.381,0.381 v 1.991 h 0.339 V 0.424 c 0,-0.059 0.047,-0.106 0.106,-0.106 H 0 V 0 H 0.381 V 1.694 H 0.72 V 1.503 C 0.828,1.637 0.992,1.715 1.165,1.715 1.48,1.715 1.737,1.46 1.737,1.144 V 0 H 1.398 V 1.038 C 1.398,1.225 1.246,1.377 1.059,1.377 0.872,1.377 0.72,1.225 0.72,1.038 V 0 H 0.381 Z M -1.589,2.372 H -1.25 V 2.033 h -0.339 z m -0.677,0 h 0.339 V 2.033 h -0.339 z m 0.148,-1.694 c 0,-0.199 0.161,-0.36 0.36,-0.36 0.199,0 0.36,0.161 0.36,0.36 v 0.339 c 0,0.198 -0.161,0.36 -0.36,0.36 -0.199,0 -0.36,-0.162 -0.36,-0.36 z m -0.339,0 v 0.339 c 0,0.386 0.313,0.698 0.699,0.698 0.386,0 0.699,-0.312 0.699,-0.698 V 0.678 c 0,-0.386 -0.313,-0.699 -0.699,-0.699 -0.386,0 -0.699,0.313 -0.699,0.699 M -4.49,0 v 2.372 h 0.36 V 1.144 l 0.995,1.228 h 0.424 L -3.474,1.44 -2.627,0 H -3.05 L -3.706,1.165 -4.13,0.72 V 0 Z"
           style="fill:#ffffff;fill-opacity:1;fill-rule:evenodd;stroke:none"
           id="path1078"
           inkscape:connector-curvature="0" /></g><g
         id="g1080"
         transform="translate(423.2943,572.7052)" /><g
         id="g1084"
         transform="translate(424.9041,573.7923)"><path
           d="m 0,0 c 0,-0.14 0.114,-0.254 0.254,-0.254 0.14,0 0.254,0.114 0.254,0.254 0,0.14 -0.114,0.254 -0.254,0.254 C 0.114,0.254 0,0.14 0,0 l 0.028,0.678 c 0,-0.125 0.101,-0.226 0.226,-0.226 0.125,0 0.226,0.101 0.226,0.226 0,0.124 -0.101,0.226 -0.226,0.226 -0.125,0 -0.226,-0.102 -0.226,-0.226 z m -0.042,0.356 c -0.098,0.078 -0.156,0.197 -0.156,0.322 0,0.249 0.202,0.452 0.452,0.452 0.25,0 0.452,-0.203 0.452,-0.452 C 0.706,0.553 0.648,0.434 0.55,0.356 0.666,0.274 0.734,0.142 0.734,0 c 0,-0.265 -0.215,-0.48 -0.48,-0.48 -0.265,0 -0.48,0.215 -0.48,0.48 0,0.142 0.068,0.274 0.184,0.356 M -1.61,-0.805 h 3.728 c 0.125,0 0.226,0.101 0.226,0.226 v 1.807 c 0,0.125 -0.101,0.226 -0.226,0.226 H -1.61 c -0.125,0 -0.226,-0.101 -0.226,-0.226 v -1.807 c 0,-0.125 0.101,-0.226 0.226,-0.226 m 0,-0.169 c -0.218,0 -0.395,0.177 -0.395,0.395 v 1.807 c 0,0.219 0.177,0.396 0.395,0.396 h 3.728 c 0.218,0 0.395,-0.177 0.395,-0.396 v -1.807 c 0,-0.218 -0.177,-0.395 -0.395,-0.395 z"
           style="fill:#231f20;fill-opacity:1;fill-rule:evenodd;stroke:none"
           id="path1086"
           inkscape:connector-curvature="0" /></g><g
         id="g1088"
         transform="translate(421.0492,561.0361)"><path
           d="M 0,0 0.383,1.108 H 0.579 L 0.536,0 H 0 0.752 L 0.709,1.108 H 0.905 L 1.288,0 H 0.752 Z m -0.692,-0.456 v 0.195 H -1.05 V -0.13 H 2.339 V -0.261 H 1.98 V -0.456 H 1.654 v 0.195 h -2.02 V -0.456 Z M 0.84,-2.281 0.769,-0.456 h 0.677 l 0.632,-1.825 z m -1.63,0 0.632,1.825 h 0.677 l -0.07,-1.825 z"
           style="fill:#ffffff;fill-opacity:1;fill-rule:evenodd;stroke:none"
           id="path1090"
           inkscape:connector-curvature="0" /></g><g
         id="g1092"
         transform="translate(424.7431,559.2635)"><path
           style="fill:#ffffff;fill-opacity:1;fill-rule:evenodd;stroke:none;stroke-width:75.07694244"
           d="m 1077.3359,1276.5098 c -9.3846,0 -16.9668,7.5821 -16.9668,16.9668 v 178.082 c 0,9.3846 7.5822,16.9687 16.9668,16.9687 h 322.2305 c 9.3846,0 16.9688,-7.5841 16.9688,-16.9687 v -178.082 c 0,-9.3847 -7.5842,-16.9668 -16.9688,-16.9668 z m 161.1543,8.5214 c 1.7268,0 3.453,0.075 5.1797,0.375 l 153.0059,23.875 c 4.1292,0.6757 7.1328,4.2039 7.1328,8.4083 v 129.6582 c 0,4.2043 -3.0036,7.7325 -7.1328,8.4082 l -153.0059,23.873 c -1.7267,0.3003 -3.4529,0.377 -5.1797,0.377 -1.8018,0 -3.5291,-0.077 -5.2558,-0.377 l -152.9317,-23.873 c -4.1292,-0.6757 -7.207,-4.2039 -7.207,-8.4082 v -129.6582 c 0,-4.2044 3.0778,-7.7326 7.207,-8.4083 l 152.9317,-23.875 c 1.7267,-0.3003 3.454,-0.375 5.2558,-0.375 z"
           transform="matrix(0.01331967,0,0,-0.01331967,-14.12377,19.600679)"
           id="path1094"
           inkscape:connector-curvature="0" /></g><g
         id="g1096"
         transform="translate(424.9126,559.586)" /><g
         id="g1100"
         transform="translate(427.6649,559.6586)"><path
           d="M 0,0 H -0.254 L 0.083,0.677 C 0.039,0.659 -0.008,0.65 -0.056,0.65 c -0.203,0 -0.368,0.164 -0.368,0.367 v 0.127 c 0,0.249 0.203,0.452 0.452,0.452 0.25,0 0.452,-0.203 0.452,-0.452 V 1.073 C 0.48,1.004 0.464,0.935 0.433,0.872 L 0,0 0.254,1.144 c 0,0.125 -0.101,0.226 -0.226,0.226 -0.125,0 -0.226,-0.101 -0.226,-0.226 V 1.073 c 0,-0.124 0.101,-0.225 0.226,-0.225 0.125,0 0.226,0.101 0.226,0.225 v 0.071 z m -1.553,0.734 v 0.848 h 0.847 V 1.356 H -1.341 V 0.999 c 0.072,0.057 0.162,0.088 0.254,0.088 0.226,0 0.409,-0.183 0.409,-0.409 v -0.24 c 0,-0.25 -0.202,-0.452 -0.452,-0.452 -0.233,0 -0.428,0.178 -0.449,0.41 h 0.227 c 0.021,-0.107 0.114,-0.184 0.222,-0.184 0.125,0 0.226,0.101 0.226,0.226 v 0.198 c 0,0.124 -0.101,0.226 -0.226,0.226 -0.086,0 -0.165,-0.05 -0.203,-0.128 z"
           style="fill:#ffffff;fill-opacity:1;fill-rule:evenodd;stroke:none"
           id="path1102"
           inkscape:connector-curvature="0" /></g><g
         id="g1104"
         transform="translate(439.3817,554.2585)"><path
           d="M 0,0 0.384,1.108 H 0.579 L 0.537,0 H 0 0.752 L 0.709,1.108 H 0.905 L 1.288,0 H 0.752 Z M -0.692,-0.456 V -0.26 H -1.05 v 0.13 H 2.339 V -0.26 H 1.98 V -0.456 H 1.655 V -0.26 H -0.366 V -0.456 Z M 0.84,-2.281 0.77,-0.456 h 0.676 l 0.632,-1.825 z m -1.629,0 0.631,1.825 h 0.677 l -0.07,-1.825 z"
           style="fill:#ffffff;fill-opacity:1;fill-rule:evenodd;stroke:none"
           id="path1106"
           inkscape:connector-curvature="0" /></g><g
         id="g1108"
         transform="translate(443.0758,552.4861)"><path
           style="fill:#ffffff;fill-opacity:1;fill-rule:evenodd;stroke:none;stroke-width:75.07694244"
           d="m 2453.6992,1785.3359 c -9.3846,0 -16.9668,7.5822 -16.9668,16.9668 v 178.0821 c 0,9.3846 7.5822,16.9687 16.9668,16.9687 h 322.2305 c 9.3846,0 16.9687,-7.5841 16.9687,-16.9687 v -178.0821 c 0,-9.3846 -7.5841,-16.9668 -16.9687,-16.9668 z m 161.1543,8.5293 c 1.7268,0 3.4529,0.075 5.1797,0.375 l 153.0059,23.8731 c 4.1292,0.6757 7.1328,4.2058 7.1328,8.4101 v 129.6582 c 0,4.2043 -3.0036,7.7315 -7.1328,8.3321 l -153.0059,23.9492 c -1.7268,0.3003 -3.4529,0.3769 -5.1797,0.3769 -1.8018,0 -3.5291,-0.077 -5.2558,-0.3769 l -152.9317,-23.9492 c -4.2043,-0.6006 -7.207,-4.1278 -7.207,-8.3321 v -129.6582 c 0,-4.2043 3.0027,-7.7344 7.207,-8.4101 l 152.9317,-23.8731 c 1.7267,-0.3003 3.454,-0.375 5.2558,-0.375 z"
           transform="matrix(0.01331967,0,0,-0.01331967,-32.45647,26.378079)"
           id="path1110"
           inkscape:connector-curvature="0" /></g><g
         id="g1112"
         transform="translate(443.2453,552.8085)" /><g
         id="g1116"
         transform="translate(445.9977,552.8812)"><path
           d="M 0,0 H -0.254 L 0.083,0.678 C 0.039,0.659 -0.009,0.65 -0.057,0.65 c -0.202,0 -0.367,0.164 -0.367,0.367 v 0.127 c 0,0.249 0.203,0.452 0.452,0.452 0.25,0 0.452,-0.203 0.452,-0.452 V 1.073 c 0,-0.07 -0.016,-0.138 -0.047,-0.2 L 0,0 0.254,1.144 c 0,0.125 -0.101,0.226 -0.226,0.226 -0.124,0 -0.226,-0.101 -0.226,-0.226 V 1.073 c 0,-0.124 0.102,-0.225 0.226,-0.225 0.125,0 0.226,0.101 0.226,0.225 v 0.071 z m -1.553,0.734 v 0.848 h 0.847 V 1.356 H -1.342 V 0.999 c 0.073,0.057 0.162,0.089 0.255,0.089 0.226,0 0.409,-0.184 0.409,-0.41 v -0.24 c 0,-0.25 -0.202,-0.452 -0.452,-0.452 -0.233,0 -0.428,0.178 -0.449,0.41 h 0.228 c 0.02,-0.107 0.113,-0.184 0.221,-0.184 0.125,0 0.226,0.101 0.226,0.226 v 0.198 c 0,0.124 -0.101,0.226 -0.226,0.226 -0.086,0 -0.165,-0.05 -0.203,-0.128 z"
           style="fill:#ffffff;fill-opacity:1;fill-rule:evenodd;stroke:none"
           id="path1118"
           inkscape:connector-curvature="0" /></g><g
         id="g1120"
         transform="translate(435.6208,544.1841)"><path
           d="m 0,0 h 1.017 v 4.405 h 6.02 L 6.84,3.642 C 6.836,3.626 6.834,3.609 6.834,3.592 c 0,-0.113 0.091,-0.204 0.203,-0.204 0.04,0 0.08,0.012 0.113,0.035 L 9.375,4.913 7.15,6.404 C 7.117,6.426 7.077,6.438 7.037,6.438 6.925,6.438 6.834,6.347 6.834,6.235 6.834,6.217 6.836,6.201 6.84,6.184 L 7.037,5.421 h -6.02 v 18.503 l 0.762,-0.197 c 0.017,-0.004 0.034,-0.006 0.051,-0.006 0.112,0 0.203,0.091 0.203,0.203 0,0.04 -0.012,0.079 -0.034,0.113 l -1.491,2.225 -1.49,-2.225 c -0.023,-0.034 -0.035,-0.073 -0.035,-0.113 0,-0.112 0.091,-0.203 0.203,-0.203 0.018,0 0.035,0.002 0.051,0.006 L 0,23.924 Z"
           style="fill:#ffffff;fill-opacity:1;fill-rule:evenodd;stroke:none"
           id="path1122"
           inkscape:connector-curvature="0" /></g></g></g></svg>