<?xml version="1.0" encoding="UTF-8" standalone="no"?>
<svg
   xmlns:dc="http://purl.org/dc/elements/1.1/"
   xmlns:cc="http://creativecommons.org/ns#"
   xmlns:rdf="http://www.w3.org/1999/02/22-rdf-syntax-ns#"
   xmlns:svg="http://www.w3.org/2000/svg"
   xmlns="http://www.w3.org/2000/svg"
   xmlns:sodipodi="http://sodipodi.sourceforge.net/DTD/sodipodi-0.dtd"
   xmlns:inkscape="http://www.inkscape.org/namespaces/inkscape"
   viewBox="0 0 656.04016 1510.55"
   height="1510.55"
   width="656.04016"
   xml:space="preserve"
   version="1.1"
   id="svg19708"
   sodipodi:docname="DE_450-55.svg"
   inkscape:version="1.0.1 (3bc2e813f5, 2020-09-07)"><sodipodi:namedview
     pagecolor="#ffffff"
     bordercolor="#666666"
     borderopacity="1"
     objecttolerance="10"
     gridtolerance="10"
     guidetolerance="10"
     inkscape:pageopacity="0"
     inkscape:pageshadow="2"
     inkscape:window-width="1920"
     inkscape:window-height="1027"
     id="namedview8739"
     showgrid="false"
     inkscape:zoom="0.44584634"
     inkscape:cx="446.02008"
     inkscape:cy="794.30515"
     inkscape:window-x="-8"
     inkscape:window-y="-8"
     inkscape:window-maximized="1"
     inkscape:current-layer="svg19708" /><metadata
     id="metadata19714"><rdf:RDF><cc:Work
         rdf:about=""><dc:format>image/svg+xml</dc:format><dc:type
           rdf:resource="http://purl.org/dc/dcmitype/StillImage" /><dc:title></dc:title></cc:Work></rdf:RDF></metadata><defs
     id="defs19712"><clipPath
       id="clipPath19724"
       clipPathUnits="userSpaceOnUse"><path
         id="path19726"
         d="m 136,1318.84 h 521 v -1201 H 136 Z" /></clipPath><clipPath
       id="clipPath19734"
       clipPathUnits="userSpaceOnUse"><path
         id="path19736"
         d="M 136,118 H 657 V 1319 H 136 Z" /></clipPath></defs><g
     id="g19718"
     transform="matrix(1.25,0,0,-1.25,0,1648.5501)" /><g
     id="g19720"
     transform="matrix(1.25,0,0,-1.25,-170.46232,1653.036)"><g
       clip-path="url(#clipPath19724)"
       id="g19722"><g
         transform="translate(0,-0.159912)"
         id="g19728"><g
           id="g19730"><g
             clip-path="url(#clipPath19734)"
             id="g19732"><g
               id="g19738"><path
                 id="path19740"
                 style="fill:#f0c900;fill-opacity:1;fill-rule:nonzero;stroke:none"
                 d="m 186.484,1318.449 c -27.613,0 -50,-22.387 -50,-50 v -1100 c 0,-27.613 22.387,-50 50,-50 h 422.5 c 27.614,0 47.5,22.387 47.5,50 v 1100 c 0,27.613 -19.886,50 -47.5,50 z" /></g></g></g></g><path
         id="path19742"
         style="fill:#000000;fill-opacity:1;fill-rule:nonzero;stroke:none"
         d="M 636.242,1032.418 156.484,755.43 V 644.582 l 479.746,276.981 0.012,0.008 z M 636.23,810.715 156.484,533.731 V 422.895 L 636.23,699.879 v -0.004 l 0.012,0.008 c 0.012,85.832 -0.012,110.832 -0.012,110.832 z M 636.242,589.028 633.25,587.305 156.484,312.047 V 201.184 c 0,0 319.828,184.668 479.758,276.965 z" /></g></g><path
     id="path19894"
     style="fill:#000000;fill-opacity:1;fill-rule:nonzero;stroke:none;stroke-width:1.25"
     d="M 393.53143,456.97095 V 393.8122 c 0,-11.10875 -2.925,-20.46875 -10.5275,-27.87625 -5.84875,-5.64875 -14.81375,-8.965 -24.95125,-8.965 -13.06125,0 -23.0025,4.6775 -30.99,14.42375 -6.24125,-9.55 -15.79125,-14.42375 -28.0725,-14.42375 -9.94125,0 -19.6875,3.89625 -26.3175,11.10875 v -9.94125 h -19.4925 v 98.8325 h 19.8825 V 396.7372 c 0,-15.205 9.35625,-22.02625 20.46875,-22.02625 11.10875,0 19.88375,6.625 19.88375,22.02625 v 60.23375 h 19.8825 V 395.7597 c 0,-14.2275 9.74625,-21.04875 20.46875,-21.04875 11.10875,0 19.8825,6.625 19.8825,22.02625 v 60.23375 z" /><path
     id="path19896"
     style="fill:#000000;fill-opacity:1;fill-rule:nonzero;stroke:none;stroke-width:1.25"
     d="m 380.01643,238.8272 c 0,7.11375 -1.39125,13.88125 -4.165,20.3025 -2.77875,6.245 -6.50875,11.70875 -11.19125,16.39625 -4.6875,4.6825 -10.24,8.4125 -16.66,11.19125 -6.24625,2.77375 -12.925,4.165 -20.04,4.165 -7.29,0 -14.14,-1.39125 -20.56125,-4.165 -6.245,-2.77875 -11.71375,-6.50875 -16.39625,-11.19125 -4.6875,-4.6875 -8.4175,-10.15125 -11.19125,-16.39625 -2.6025,-6.42125 -3.90625,-13.18875 -3.90625,-20.3025 v -85.89375 c 0,-7.115 1.30375,-13.79375 3.90625,-20.04 2.77375,-6.42 6.50375,-11.9725 11.19125,-16.655 4.6825,-4.6875 10.15125,-8.4175 16.39625,-11.19625 6.42125,-2.77375 13.27125,-4.16 20.56125,-4.16 7.115,0 13.79375,1.38625 20.04,4.16 6.42,2.77875 11.9725,6.50875 16.66,11.19625 4.6825,4.6825 8.4125,10.235 11.19125,16.655 2.77375,6.24625 4.165,12.925 4.165,20.04 z m -52.05625,-111.92 c -7.29,0 -13.4475,2.515 -18.48125,7.54875 -5.02875,5.03 -7.54875,11.1925 -7.54875,18.4775 v 85.89375 c 0,7.285 2.52,13.44625 7.54875,18.47625 5.03375,5.03375 11.19125,7.54875 18.48125,7.54875 7.285,0 13.4475,-2.515 18.4775,-7.54875 5.03375,-5.03 7.54875,-11.19125 7.54875,-18.47625 v -85.89375 c 0,-7.285 -2.515,-13.4475 -7.54875,-18.4775 -5.03,-5.03375 -11.1925,-7.54875 -18.4775,-7.54875 z" /><path
     id="path19898"
     style="fill:#000000;fill-opacity:1;fill-rule:nonzero;stroke:none;stroke-width:1.25"
     d="m 510.66018,238.8272 c 0,7.11375 -1.38625,13.88125 -4.165,20.3025 -2.7775,6.245 -6.50875,11.70875 -11.19125,16.39625 -4.6875,4.6825 -10.23875,8.4125 -16.66,11.19125 -6.245,2.77375 -12.925,4.165 -20.03875,4.165 -7.285,0 -14.14125,-1.39125 -20.56125,-4.165 -6.245,-2.77875 -11.70875,-6.50875 -16.39625,-11.19125 -4.6875,-4.6875 -8.41875,-10.15125 -11.1925,-16.39625 -2.6025,-6.42125 -3.90625,-13.18875 -3.90625,-20.3025 v -85.89375 c 0,-7.115 1.30375,-13.79375 3.90625,-20.04 2.77375,-6.42 6.505,-11.9725 11.1925,-16.655 4.6875,-4.6875 10.15125,-8.4175 16.39625,-11.19625 6.42,-2.77375 13.27625,-4.16 20.56125,-4.16 7.11375,0 13.79375,1.38625 20.03875,4.16 6.42125,2.77875 11.9725,6.50875 16.66,11.19625 4.6825,4.6825 8.41375,10.235 11.19125,16.655 2.77875,6.24625 4.165,12.925 4.165,20.04 z m -52.055,-111.92 c -7.285,0 -13.4475,2.515 -18.48125,7.54875 -5.03,5.03 -7.53875,11.1925 -7.53875,18.4775 v 85.89375 c 0,7.285 2.50875,13.44625 7.53875,18.47625 5.03375,5.03375 11.19625,7.54875 18.48125,7.54875 7.29,0 13.4475,-2.515 18.48125,-7.54875 5.02875,-5.03 7.54375,-11.19125 7.54375,-18.47625 v -85.89375 c 0,-7.285 -2.515,-13.4475 -7.54375,-18.4775 -5.03375,-5.03375 -11.19125,-7.54875 -18.48125,-7.54875 z" /><path
     id="path19900"
     style="fill:#000000;fill-opacity:1;fill-rule:nonzero;stroke:none;stroke-width:1.25"
     d="m 182.28143,181.4872 h 9.16 c 8.8975,0 15.875,-2.44125 20.9375,-7.32875 5.235,-5.05875 7.8525,-11.425 7.8525,-19.10125 0,-3.8375 -0.69875,-7.32875 -2.095,-10.46875 -1.39625,-3.315 -3.40375,-6.19625 -6.02125,-8.6375 -2.44125,-2.44125 -5.32125,-4.36 -8.6375,-5.7575 -3.315,-1.39625 -6.80125,-2.09375 -10.46875,-2.09375 -5.58125,0 -10.9025,1.83 -15.96125,5.4975 -5.05875,3.6625 -8.28625,9.33125 -9.6825,17.01125 h -26.695 c 0.5225,-6.63 2.26625,-12.915 5.235,-18.8475 2.96375,-5.9275 6.71875,-11.16125 11.255,-15.6975 4.70625,-4.53625 10.02875,-8.11625 15.96125,-10.7325 5.9325,-2.6175 12.2125,-3.92625 18.8425,-3.92625 8.375,0 15.88,1.485 22.505,4.44875 6.8075,2.96875 12.56375,6.9825 17.27625,12.04 4.8825,4.88375 8.6375,10.5575 11.255,17.0125 2.61625,6.27875 3.925,12.8225 3.925,19.62375 0,7.15875 -1.39625,14.13625 -4.18875,20.9375 -2.6175,6.63125 -7.8525,12.47625 -15.70375,17.53375 7.85125,5.06375 13.4375,11.255 16.74875,18.585 3.49125,7.1525 5.23375,14.565 5.23375,22.245 0,8.72125 -1.48,16.5725 -4.44875,23.55 -2.7875,6.9825 -6.80125,12.99875 -12.035,18.0625 -5.05875,4.8825 -11.08,8.72 -18.0625,11.5125 -6.80125,2.6175 -14.13,3.92625 -21.9825,3.92625 -6.27875,0 -12.3875,-1.045 -18.32,-3.14 -5.75625,-2.09375 -10.99125,-5.14625 -15.6975,-9.16 -4.7125,-4.01375 -8.72625,-8.98375 -12.04125,-14.91625 -3.31625,-5.9325 -5.58125,-12.8275 -6.8025,-20.67375 h 26.69 c 2.44625,6.455 5.76125,11.60125 9.94625,15.43875 4.18875,3.8375 10.1225,5.7575 17.7975,5.7575 3.6625,0 7.15375,-0.69875 10.46875,-2.095 3.48625,-1.39625 6.54375,-3.315 9.16,-5.7575 2.6175,-2.61625 4.7075,-5.75625 6.28,-9.41875 1.5725,-3.66625 2.35375,-7.76875 2.35375,-12.305 0,-9.41875 -2.87625,-16.66 -8.63375,-21.71875 -5.585,-5.23375 -12.3,-7.85125 -20.15125,-7.85125 h -11.255 z" /><path
     id="path19902"
     style="fill:#000000;fill-opacity:1;fill-rule:nonzero;stroke:none;stroke-width:1.25"
     d="m 62.173932,15.9997 c -27.62125,0 -52.01625,24.37 -52.01625,51.9625 V 1442.386 c 0,27.5925 24.395,51.9637 52.01625,51.9637 H 588.16018 c 27.6225,0 51.96875,-24.3712 51.96875,-51.9637 V 67.9622 c 0,-27.5925 -22.34375,-51.9625 -49.96625,-51.9625 z m 4.01375,25.005 H 584.47393 c 18.6775,0 30.92375,14.6525 30.92375,33.70125 l -0.5375,681.48875 0.5375,681.5426 c 0,19.0487 -14.24375,31.6124 -32.92,31.6124 H 66.187682 c -18.67625,0 -30.76125,-12.5637 -30.76125,-31.6124 l -0.5375,-340.3563 0.5375,-1022.67505 c 0,-19.04875 12.085,-33.70125 30.76125,-33.70125 z" /></svg>
