<?xml version="1.0" encoding="UTF-8" standalone="no"?>
<!-- Created with Inkscape (http://www.inkscape.org/) -->

<svg
   xmlns:dc="http://purl.org/dc/elements/1.1/"
   xmlns:cc="http://creativecommons.org/ns#"
   xmlns:rdf="http://www.w3.org/1999/02/22-rdf-syntax-ns#"
   xmlns:svg="http://www.w3.org/2000/svg"
   xmlns="http://www.w3.org/2000/svg"
   xmlns:sodipodi="http://sodipodi.sourceforge.net/DTD/sodipodi-0.dtd"
   xmlns:inkscape="http://www.inkscape.org/namespaces/inkscape"
   version="1.0"
   width="1350"
   height="960"
   id="svg2"
   inkscape:version="0.48.1 r9760"
   sodipodi:docname="Zeichen_448.1.svg">
  <metadata
     id="metadata17">
    <rdf:RDF>
      <cc:Work
         rdf:about="">
        <dc:format>image/svg+xml</dc:format>
        <dc:type
           rdf:resource="http://purl.org/dc/dcmitype/StillImage" />
        <dc:title></dc:title>
      </cc:Work>
    </rdf:RDF>
  </metadata>
  <sodipodi:namedview
     pagecolor="#ffffff"
     bordercolor="#666666"
     borderopacity="1"
     objecttolerance="10"
     gridtolerance="10"
     guidetolerance="10"
     inkscape:pageopacity="0"
     inkscape:pageshadow="2"
     inkscape:window-width="640"
     inkscape:window-height="484"
     id="namedview15"
     showgrid="false"
     inkscape:zoom="0.24583333"
     inkscape:cx="675"
     inkscape:cy="480"
     inkscape:window-x="0"
     inkscape:window-y="0"
     inkscape:window-maximized="0"
     inkscape:current-layer="svg2" />
  <defs
     id="defs9" />
  <path
     d="M 10.917039,50.726816 L 11.225075,924.21583 C 11.225075,946.90909 20.632842,957.21375 40.277711,957.21375 L 1311.0837,957.90243 C 1321.6537,957.90243 1339.083,939.62024 1339.083,923.94181 L 1339.0025,38.057373 C 1339.0025,22.52823 1323.6457,3.254031 1307.193,3.254031 L 58.466932,2.099497 C 20.628189,1.874647 10.917039,21.370627 10.917039,50.726816 z "
     style="fill:white;fill-opacity:1;fill-rule:evenodd;stroke:black;stroke-width:2.37036228;stroke-linecap:butt;stroke-linejoin:miter;stroke-miterlimit:4;stroke-dasharray:none;stroke-opacity:1"
     id="path3829" />
  <path
     d="M 30.178245,40.856827 L 30.201036,912.59113 C 30.201036,926.89045 37.876113,931.89856 48.157974,931.89856 L 1308.2854,932.15716 C 1313.1671,932.15716 1318.7601,923.21724 1318.7601,918.07717 L 1318.2982,43.256394 C 1318.1001,34.874645 1306.0468,25.426226 1298.6782,25.426226 L 48.517322,25.166307 C 38.225778,25.166307 30.178245,32.630594 30.178245,40.856827 z "
     style="fill:#154889;fill-opacity:1;fill-rule:evenodd;stroke:none;stroke-width:19.30764197999999965;stroke-linecap:butt;stroke-linejoin:miter;stroke-miterlimit:4;stroke-dasharray:none;stroke-opacity:1"
     id="path2057" />
  <path
     d="M 1079.1805 693.76538 A 102.91912 102.91912 0 1 1  873.34223,693.76538 A 102.91912 102.91912 0 1 1  1079.1805 693.76538 z"
     transform="matrix(1.545931,0,0,1.545931,-574.6289,-377.1511)"
     style="fill:none;fill-opacity:1;fill-rule:nonzero;stroke:white;stroke-width:12.93718815;stroke-linecap:round;stroke-linejoin:miter;stroke-miterlimit:4;stroke-dasharray:none;stroke-dashoffset:0;stroke-opacity:1"
     id="path4839" />
  <path
     d="M 196.87804,144.53205 L 196.87769,455.55198 L 1152.8725,455.55198 L 1152.855,144.56603 L 196.87804,144.53205 z "
     style="fill:white;fill-opacity:1;fill-rule:evenodd;stroke:none;stroke-width:1px;stroke-linecap:butt;stroke-linejoin:miter;stroke-opacity:1"
     id="path4816" />
  <path
     d="M 272.18302,384.15625 L 333.00759,217.46035 L 353.816,217.46035 L 414.64056,384.15625 L 388.11556,384.15625 L 375.31039,346.54106 L 312.08485,346.54106 L 298.82235,384.15625 L 272.18302,384.15625 z M 319.51643,324.24634 L 367.76449,324.24634 C 364.25822,313.95654 361.4952,305.89615 359.47542,300.06514 C 357.45548,294.23431 355.70239,289.07032 354.21616,284.57317 C 352.72976,280.07622 351.22439,275.50295 349.70005,270.85334 C 348.17555,266.20396 346.15568,259.91572 343.64046,251.98858 C 340.97264,260.2206 338.83845,266.79468 337.23787,271.71083 C 335.63716,276.62721 334.09368,281.37198 332.60743,285.94515 C 331.12106,290.51852 329.40608,295.62534 327.46249,301.26563 C 325.5188,306.90608 322.87011,314.56631 319.51643,324.24634 L 319.51643,324.24634 z M 438.50533,344.48308 L 438.50533,265.59408 L 462.40069,265.59408 L 462.40069,336.36552 C 462.40065,344.44501 464.63012,350.7142 469.08911,355.17311 C 473.548,359.63208 479.20742,361.86155 486.06739,361.86153 C 492.69857,361.86155 498.24367,359.63208 502.70268,355.17311 C 507.16154,350.7142 509.39101,344.44501 509.3911,336.36552 L 509.3911,265.59408 L 533.28647,265.59408 L 533.28647,384.27058 L 509.3911,384.27058 L 509.3911,371.69407 L 508.93377,371.69407 C 501.54023,380.99307 491.32659,385.64256 478.29283,385.64256 C 468.91756,385.64256 459.94252,382.15544 451.36766,375.1812 C 442.79275,368.20697 438.50531,357.97427 438.50533,344.48308 L 438.50533,344.48308 z M 570.6424,265.59408 L 570.6424,229.57953 L 594.53777,229.57953 L 594.53777,265.59408 L 611.91621,265.59408 L 611.91621,283.88718 L 594.53777,283.88718 L 594.53777,352.94364 C 594.53772,358.88893 597.35791,361.86155 602.99833,361.86153 L 611.91621,361.86153 L 611.91621,384.27058 L 599.45404,384.27058 C 591.14588,384.27058 584.26692,381.75528 578.81713,376.72468 C 573.36729,371.69409 570.64238,364.49118 570.6424,355.11595 L 570.6424,283.88718 L 558.75188,283.88718 L 558.75188,265.59408 L 570.6424,265.59408 z M 633.37998,324.818 C 633.37997,312.08912 634.37085,302.59958 636.35261,296.34936 C 638.33435,290.09931 641.61186,284.45894 646.18515,279.42824 C 649.46264,275.84594 653.97875,272.41599 659.73348,269.13837 C 665.48815,265.86097 673.01499,264.22221 682.31403,264.22209 C 691.46052,264.22221 698.93019,265.86097 704.72308,269.13837 C 710.51581,272.41599 715.05097,275.84594 718.32858,279.42824 C 722.90175,284.45894 726.17927,290.09931 728.16112,296.34936 C 730.14277,302.59958 731.13364,312.08912 731.13375,324.818 C 731.13364,337.77566 730.14277,347.37953 728.16112,353.62963 C 726.17927,359.8798 722.90175,365.52017 718.32858,370.55075 C 715.05097,374.20939 710.51581,377.63934 704.72308,380.84063 C 698.93019,384.04192 691.46052,385.64256 682.31403,385.64256 C 673.01499,385.64256 665.48815,384.04192 659.73348,380.84063 C 653.97875,377.63934 649.46264,374.20939 646.18515,370.55075 C 641.61186,365.52017 638.33435,359.8798 636.35261,353.62963 C 634.37085,347.37953 633.37997,337.77566 633.37998,324.818 L 633.37998,324.818 z M 707.35272,325.04666 C 707.35263,316.43373 706.91436,310.37414 706.0379,306.86789 C 705.16127,303.36179 703.6559,300.00806 701.52179,296.80668 C 697.32955,291.01396 690.92697,288.11756 682.31403,288.11746 C 673.54854,288.11756 667.14596,291.01396 663.10627,296.80668 C 660.8196,300.00806 659.27612,303.36179 658.47583,306.86789 C 657.67547,310.37414 657.27531,316.3575 657.27535,324.818 C 657.27531,333.50727 657.67547,339.62402 658.47583,343.16827 C 659.27612,346.71259 660.8196,350.04727 663.10627,353.17231 C 667.14596,358.96515 673.54854,361.86155 682.31403,361.86153 C 690.92697,361.86155 697.32955,358.96515 701.52179,353.17231 C 703.6559,350.04727 705.16127,346.73165 706.0379,343.22543 C 706.91436,339.7193 707.35263,333.65971 707.35272,325.04666 L 707.35272,325.04666 z M 761.28677,384.27058 L 761.28677,217.68901 L 785.18214,217.68901 L 785.18214,278.28492 L 785.63947,278.28492 C 793.03288,268.90982 803.32274,264.22221 816.50908,264.22209 C 825.73177,264.22221 834.6306,267.72839 843.20558,274.74063 C 851.78036,281.75309 856.0678,291.96673 856.06791,305.38158 L 856.06791,384.27058 L 832.17255,384.27058 L 832.17255,313.61347 C 832.17246,305.61032 829.94299,299.36018 825.48413,294.86304 C 821.02511,290.36608 815.48002,288.11756 808.84884,288.11746 C 801.98887,288.11756 796.32945,290.36608 791.87056,294.86304 C 787.41157,299.36018 785.1821,305.61032 785.18214,313.61347 L 785.18214,384.27058 L 761.28677,384.27058 z M 886.22092,324.818 C 886.22091,312.08912 887.21179,302.59958 889.19355,296.34936 C 891.17529,290.09931 894.4528,284.45894 899.0261,279.42824 C 902.30358,275.84594 906.81969,272.41599 912.57442,269.13837 C 918.32909,265.86097 925.85593,264.22221 935.15497,264.22209 C 944.30146,264.22221 951.77113,265.86097 957.56403,269.13837 C 963.35675,272.41599 967.89191,275.84594 971.16952,279.42824 C 975.7427,284.45894 979.02021,290.09931 981.00206,296.34936 C 982.98371,302.59958 983.97458,312.08912 983.97469,324.818 C 983.97458,337.77566 982.98371,347.37953 981.00206,353.62963 C 979.02021,359.8798 975.7427,365.52017 971.16952,370.55075 C 967.89191,374.20939 963.35675,377.63934 957.56403,380.84063 C 951.77113,384.04192 944.30146,385.64256 935.15497,385.64256 C 925.85593,385.64256 918.32909,384.04192 912.57442,380.84063 C 906.81969,377.63934 902.30358,374.20939 899.0261,370.55075 C 894.4528,365.52017 891.17529,359.8798 889.19355,353.62963 C 887.21179,347.37953 886.22091,337.77566 886.22092,324.818 L 886.22092,324.818 z M 960.19366,325.04666 C 960.19357,316.43373 959.7553,310.37414 958.87884,306.86789 C 958.00222,303.36179 956.49685,300.00806 954.36273,296.80668 C 950.17049,291.01396 943.76791,288.11756 935.15497,288.11746 C 926.38948,288.11756 919.9869,291.01396 915.94722,296.80668 C 913.66054,300.00806 912.11706,303.36179 911.31677,306.86789 C 910.51642,310.37414 910.11626,316.3575 910.11629,324.818 C 910.11626,333.50727 910.51642,339.62402 911.31677,343.16827 C 912.11706,346.71259 913.66054,350.04727 915.94722,353.17231 C 919.9869,358.96515 926.38948,361.86155 935.15497,361.86153 C 943.76791,361.86155 950.17049,358.96515 954.36273,353.17231 C 956.49685,350.04727 958.00222,346.73165 958.87884,343.22543 C 959.7553,339.7193 960.19357,333.65971 960.19366,325.04666 L 960.19366,325.04666 z M 1017.9007,384.27058 L 1017.9007,283.88718 L 1005.8958,283.88718 L 1005.8958,265.59408 L 1017.9007,265.59408 L 1017.9007,249.93061 C 1017.9006,238.87867 1020.9495,230.74206 1027.0472,225.52075 C 1033.1449,220.29975 1040.8432,217.68918 1050.1423,217.68901 L 1065.5771,217.68901 L 1065.5771,240.09806 L 1052.0859,240.09806 C 1045.1497,240.09821 1041.6817,243.37572 1041.6817,249.93061 L 1041.6817,265.59408 L 1065.5771,265.59408 L 1065.5771,283.88718 L 1041.6817,283.88718 L 1041.6817,384.27058 L 1017.9007,384.27058 z "
     style="font-size:234.15171814px;font-style:normal;font-variant:normal;font-weight:normal;font-stretch:normal;text-align:center;line-height:100%;letter-spacing:5px;writing-mode:lr-tb;text-anchor:middle;fill:black;fill-opacity:1;stroke:none;stroke-width:1px;stroke-linecap:butt;stroke-linejoin:miter;stroke-opacity:1;font-family:DIN 1451 Mittelschrift"
     id="text4818" />
  <g
     transform="matrix(0.843183,0,0,0.843183,240.9671,551.2251)"
     style="fill:white"
     id="XMLID_4_">
    <g
       style="fill:white"
       id="g4824">
      <path
         d="M 486.25,4.25 C 486.25,7.25 486.25,10.25 486.25,13.25 C 472.1,44.28 455.67,85.48 440.25,122.25 C 436.73,130.64 431.42,154.11 420.25,153.25 C 411.01,152.54 406.15,129.01 403.25,120.25 C 398.31,105.32 395.63,94.74 391.25,82.25 C 340.51,102.9 303.56,135.92 305.25,204.25 C 306.59,258.51 326.41,303.92 338.25,347.25 C 288.92,347.25 239.58,347.25 190.25,347.25 C 185.7,231.8 181.26,116.24 177.25,0.25 C 194.25,0.25 211.25,0.25 228.25,0.25 C 239.98,38.86 252.72,76.45 264.25,115.25 C 289.69,90.62 324.8,64.4 367.25,52.25 C 360.56,43.5 350.84,37.24 342.25,30.25 C 334.42,23.88 321.93,18.01 322.25,4.25 C 324.24,3.57 324.54,1.2 326.25,0.25 C 378.25,0.25 430.25,0.25 482.25,0.25 C 482.69,1.48 483.53,2.3 485.25,2.25 C 485.09,3.41 485.47,4.03 486.25,4.25 z "
         style="fill:white"
         id="path4826" />
      <path
         d="M 111.25,0.25 C 128.25,0.25 145.25,0.25 162.25,0.25 C 157.72,115.72 153.31,231.31 149.25,347.25 C 99.58,347.25 49.92,347.25 0.25,347.25 C 0.25,346.25 0.25,345.25 0.25,344.25 C 37.98,230.31 73.81,114.48 111.25,0.25 z "
         style="fill:white"
         id="path4828" />
    </g>
  </g>
  <path
     d="M 833.80686,772.37747 L 833.80686,751.29257 L 895.1252,674.59087 C 897.4918,671.57884 899.03372,668.81773 899.75096,666.30752 C 900.46806,663.79752 900.82665,661.35913 900.82672,658.99235 C 900.82665,653.54195 898.89028,648.46795 895.01762,643.77034 C 891.14482,639.07299 885.8736,636.72425 879.20394,636.72411 C 873.10792,636.72425 867.89049,638.75026 863.55163,642.80216 C 859.2127,646.85431 856.79224,652.39447 856.29025,659.42265 L 833.80686,659.42265 C 833.87857,646.72881 838.21747,636.025 846.82356,627.31121 C 855.42962,618.59771 865.64933,614.24088 877.48273,614.24072 C 890.53522,614.24088 901.41832,618.63357 910.13205,627.41879 C 918.84562,636.2043 923.20244,646.80052 923.20254,659.2075 C 923.20244,669.82177 920.08274,679.00158 913.84342,686.74696 L 863.39027,750.00166 L 923.20254,750.00166 L 923.20254,772.37747 L 833.80686,772.37747 z "
     style="font-size:220.31568909px;font-style:normal;font-variant:normal;font-weight:normal;font-stretch:normal;text-align:center;line-height:100%;writing-mode:lr-tb;text-anchor:middle;fill:white;fill-opacity:1;stroke:none;stroke-width:1px;stroke-linecap:butt;stroke-linejoin:miter;stroke-opacity:1;font-family:DIN 1451 Mittelschrift"
     id="text5726" />
  <path
     d="M 951.40009,660.75019 L 951.40009,615.67583 L 1040.5806,615.67583 L 1040.5806,638.15922 L 987.54564,772.41409 L 962.37285,772.41409 L 1015.5154,638.15922 L 973.88348,638.15922 L 973.88348,660.75019 L 951.40009,660.75019 z "
     style="font-size:220.31568909px;font-style:normal;font-variant:normal;font-weight:normal;font-stretch:normal;text-align:center;line-height:100%;writing-mode:lr-tb;text-anchor:middle;fill:white;fill-opacity:1;stroke:none;stroke-width:1px;stroke-linecap:butt;stroke-linejoin:miter;stroke-opacity:1;font-family:DIN 1451 Mittelschrift"
     id="text5730" />
</svg>
