<?xml version="1.0" encoding="UTF-8" standalone="no"?>
<svg
   xmlns:dc="http://purl.org/dc/elements/1.1/"
   xmlns:cc="http://creativecommons.org/ns#"
   xmlns:rdf="http://www.w3.org/1999/02/22-rdf-syntax-ns#"
   xmlns:svg="http://www.w3.org/2000/svg"
   xmlns="http://www.w3.org/2000/svg"
   viewBox="0 0 3001 3251"
   height="3251"
   width="3001"
   xml:space="preserve"
   version="1.1"
   id="svg4757"><metadata
     id="metadata4763"><rdf:RDF><cc:Work
         rdf:about=""><dc:format>image/svg+xml</dc:format><dc:type
           rdf:resource="http://purl.org/dc/dcmitype/StillImage" /><dc:title></dc:title></cc:Work></rdf:RDF></metadata><defs
     id="defs4761" /><g
     transform="matrix(1.25,0,0,-1.25,0,3251.0001)"
     id="g4765"><g
       id="g4767"><path
         id="path4769"
         style="fill:#ffffff;fill-opacity:1;fill-rule:nonzero;stroke:none"
         d="m 60.398,2600.402 c -33.136,0 -60,-26.864 -60,-60 0.102,-820.239 0.02,-1659.602 0,-2480 0,-33.137 26.864,-60 60,-60 l 2280,0 c 33.137,0 60,26.863 60,60 -0.019,820.398 -0.097,1659.761 0,2480 0,33.136 -26.863,60 -60,60 l -2280,0 z" /><path
         id="path4771"
         style="fill:#154889;fill-opacity:1;fill-rule:nonzero;stroke:none"
         d="m 60.398,2556.402 c -8.836,0 -16,-7.164 -16,-16 0,-0.313 0.012,-0.621 0.032,-0.926 L 44.371,60.402 c 0.012,0 0.02,0 0.027,0 0,-8.84 7.164,-16 16,-16 l 2280.075,0 c 8.836,0 16,7.16 16,16 0.01,0 0.015,0 0.027,0 l -0.055,2479.074 c 0.016,0.305 0.028,0.613 0.028,0.926 0,8.836 -7.164,16 -16,16 l -2280.075,0 z" /><path
         id="path4773"
         style="fill:#f0c900;fill-opacity:1;fill-rule:nonzero;stroke:none"
         d="m 564.398,2400.402 1618.836,0 0,-312 -1618.836,0 0,312 z" /><path
         id="path4775"
         style="fill:#000000;fill-opacity:1;fill-rule:nonzero;stroke:none"
         d="m 1029.668,2162.745 0,166.7 25.285,0 0,-142.903 81.344,0 0,-23.797 -106.629,0 z m 194.512,0 0,10.528 -0.575,0 c -4.804,-7.934 -14.57,-11.899 -29.289,-11.899 -13.269,0 -23.57,3.449 -30.89,10.352 -7.324,6.902 -10.985,15.543 -10.985,25.914 0,9.383 3.243,17.582 9.727,24.598 6.48,7.019 16.129,10.527 28.945,10.527 l 33.067,0 0,12.355 c 0,10.145 -8.125,15.219 -24.371,15.219 -11.289,0 -18.801,-3.012 -22.539,-9.039 l -18.766,14.188 c 8.316,11.593 21.664,17.39 40.047,17.39 14.644,0 26.543,-2.859 35.695,-8.582 9.152,-5.719 13.731,-15.902 13.731,-30.547 l 0,-81.004 -23.797,0 z m 0,41.645 0,8.695 -28.606,0 c -13.804,0 -20.707,-4.765 -20.707,-14.301 0,-4.043 1.735,-7.55 5.203,-10.523 3.473,-2.977 9.25,-4.465 17.336,-4.465 9.914,0 16.856,1.106 20.824,3.32 3.965,2.211 5.95,7.969 5.95,17.274 z m 58.59,-41.645 0,118.758 23.91,0 0,-12.699 0.457,0 c 7.398,9.383 17.695,14.074 30.89,14.074 9.231,0 18.137,-3.508 26.715,-10.527 8.582,-7.016 12.871,-17.238 12.871,-30.66 l 0,-78.946 -23.91,0 0,70.707 c 0,8.008 -2.23,14.262 -6.695,18.762 -4.461,4.5 -10.008,6.75 -16.645,6.75 -6.867,0 -12.527,-2.25 -16.992,-6.75 -4.461,-4.5 -6.691,-10.754 -6.691,-18.762 l 0,-70.707 -23.91,0 z m 196.339,0.114 0,12.242 c -8.316,-9.153 -18.535,-13.727 -30.664,-13.727 -7.777,0 -14.281,1.543 -19.504,4.633 -5.226,3.09 -9.175,6.348 -11.843,9.781 -3.434,4.426 -5.778,9.114 -7.036,14.075 -1.257,4.957 -1.89,15.671 -1.89,32.148 0,16.477 0.633,27.191 1.89,32.148 1.258,4.957 3.602,9.688 7.036,14.188 2.668,3.355 6.617,6.617 11.843,9.781 5.223,3.168 11.727,4.75 19.504,4.75 11.594,0 21.817,-4.691 30.664,-14.074 l 0,12.699 23.911,0 0,-116.012 c 0,-17.847 -5.204,-31.003 -15.618,-39.472 -10.41,-8.465 -22.367,-12.699 -35.867,-12.699 -7.625,0 -15.101,1.832 -22.422,5.492 -7.324,3.66 -13.617,8.465 -18.879,14.414 l 18.536,14.762 c 2.898,-2.899 6.347,-5.418 10.351,-7.551 4.004,-2.137 8.297,-3.203 12.871,-3.203 7.934,0 14.438,2.211 19.508,6.632 5.074,4.426 7.609,10.754 7.609,18.993 z m -47.023,59.152 c 0,-9.535 0.246,-15.867 0.742,-18.992 0.496,-3.129 1.813,-6.028 3.949,-8.696 1.602,-2.136 3.965,-4.195 7.094,-6.179 3.125,-1.981 7.094,-2.973 11.899,-2.973 4.652,0 8.523,0.992 11.613,2.973 3.09,1.984 5.472,4.043 7.148,6.179 2.059,2.668 3.34,5.567 3.836,8.696 0.492,3.125 0.742,9.457 0.742,18.992 0,9.535 -0.25,15.863 -0.742,18.992 -0.496,3.125 -1.777,6.063 -3.836,8.809 -1.676,2.058 -4.058,4.101 -7.148,6.121 -3.09,2.023 -6.961,3.031 -11.613,3.031 -4.805,0 -8.774,-1.008 -11.899,-3.031 -3.129,-2.02 -5.492,-4.063 -7.094,-6.121 -2.136,-2.746 -3.453,-5.684 -3.949,-8.809 -0.496,-3.129 -0.742,-9.457 -0.742,-18.992 z m 197.828,-8.926 -73.91,0 c 0,-9.762 2.652,-17.086 7.953,-21.965 5.301,-4.882 12.07,-7.324 20.309,-7.324 9.839,0 18.531,3.817 26.086,11.442 l 17.273,-14.758 c -5.871,-6.867 -12.488,-11.766 -19.848,-14.703 -7.363,-2.938 -15.047,-4.403 -23.054,-4.403 -12.203,0 -24.028,3.946 -35.469,11.84 -11.442,7.895 -17.16,24.047 -17.16,48.453 0,23.11 5.281,39.09 15.844,47.938 10.566,8.847 21.605,13.273 33.121,13.273 13.046,0 24.449,-4.519 34.211,-13.558 9.761,-9.039 14.644,-21.223 14.644,-36.555 l 0,-19.68 z m -73.91,19.68 50.113,0 c -0.383,8.926 -2.898,15.75 -7.551,20.48 -4.652,4.727 -10.488,7.094 -17.507,7.094 -7.09,0 -12.985,-2.367 -17.676,-7.094 -4.688,-4.73 -7.149,-11.554 -7.379,-20.48 z m 102.867,-70.02 0,118.758 23.914,0 0,-12.699 0.457,0 c 7.399,9.383 17.696,14.074 30.891,14.074 9.23,0 18.133,-3.508 26.715,-10.527 8.582,-7.016 12.871,-17.238 12.871,-30.66 l 0,-78.946 -23.91,0 0,70.707 c 0,8.008 -2.235,14.262 -6.696,18.762 -4.461,4.5 -10.011,6.75 -16.644,6.75 -6.867,0 -12.531,-2.25 -16.992,-6.75 -4.461,-4.5 -6.692,-10.754 -6.692,-18.762 l 0,-70.707 -23.914,0 z m 133.414,0 0,100.453 -12.012,0 0,18.305 12.012,0 0,15.676 c 0,11.059 3.051,19.203 9.153,24.426 6.105,5.226 13.808,7.84 23.113,7.84 l 15.445,0 0,-22.426 -13.5,0 c -6.941,0 -10.41,-3.281 -10.41,-9.84 l 0,-15.676 23.91,0 0,-18.305 -23.91,0 0,-100.453 -23.801,0 z m 156.985,50.34 -73.911,0 c 0,-9.762 2.653,-17.086 7.953,-21.965 5.301,-4.882 12.071,-7.324 20.309,-7.324 9.84,0 18.535,3.817 26.086,11.442 l 17.273,-14.758 c -5.871,-6.867 -12.488,-11.766 -19.847,-14.703 -7.363,-2.938 -15.047,-4.403 -23.055,-4.403 -12.203,0 -24.027,3.946 -35.469,11.84 -11.441,7.895 -17.16,24.047 -17.16,48.453 0,23.11 5.281,39.09 15.844,47.938 10.566,8.847 21.605,13.273 33.125,13.273 13.043,0 24.445,-4.519 34.207,-13.558 9.766,-9.039 14.645,-21.223 14.645,-36.555 l 0,-19.68 z m -73.911,19.68 50.114,0 c -0.383,8.926 -2.899,15.75 -7.551,20.48 -4.652,4.727 -10.488,7.094 -17.504,7.094 -7.094,0 -12.988,-2.367 -17.68,-7.094 -4.687,-4.73 -7.148,-11.554 -7.379,-20.48 z m 102.868,-41.301 0,137.981 23.914,0 0,-136.036 c 0,-5.492 2.972,-8.238 8.921,-8.238 l 8.126,0 0,-22.426 -10.528,0 c -8.695,0 -15.941,2.118 -21.738,6.352 -5.797,4.23 -8.695,11.687 -8.695,22.367 z m 135.132,-28.719 0,12.356 c -8.312,-9.153 -18.535,-13.727 -30.664,-13.727 -7.32,0 -13.613,1.43 -18.875,4.289 -5.265,2.86 -9.574,6.539 -12.929,11.039 -3.356,4.196 -5.606,9.172 -6.75,14.934 -1.145,5.758 -1.715,15.957 -1.715,30.602 0,14.492 0.57,24.582 1.715,30.261 1.144,5.684 3.394,10.66 6.75,14.934 3.355,4.422 7.664,8.101 12.929,11.039 5.262,2.937 11.555,4.406 18.875,4.406 6.102,0 11.633,-1.297 16.59,-3.89 4.957,-2.594 9.649,-5.989 14.074,-10.184 l 0,60.641 23.911,0 0,-166.7 -23.911,0 z m -23.339,96.219 c -11.29,0 -18.059,-3.851 -20.309,-11.555 -2.25,-7.703 -3.375,-16.093 -3.375,-25.171 0,-9.305 1.125,-17.809 3.375,-25.512 2.25,-7.703 9.019,-11.555 20.309,-11.555 11.058,0 17.714,4.004 19.964,12.012 2.25,8.008 3.375,16.359 3.375,25.055 0,8.468 -1.125,16.707 -3.375,24.714 -2.25,8.008 -8.906,12.012 -19.964,12.012 z" /><path
         id="path4777"
         style="fill:#000000;fill-opacity:1;fill-rule:nonzero;stroke:none"
         d="m 636.992,2341.253 c -8.18,0 -15.058,-4.258 -19.617,-9.746 -4.555,-5.488 -7.203,-12.262 -7.203,-19.074 l -0.055,-133.508 c 0,-6.824 2.668,-13.609 7.242,-19.094 4.571,-5.484 11.453,-9.726 19.633,-9.726 l 280.473,-0.133 c 8.18,0 15.058,4.258 19.613,9.746 4.559,5.488 7.203,12.262 7.203,19.074 l 0.067,133.508 c 0,6.824 -2.668,13.602 -7.239,19.086 -4.574,5.48 -11.464,9.734 -19.644,9.734 l -274.254,0.125 0,0.01 -6.219,0 z m -0.012,-12.437 0.012,0 280.473,-0.133 c 3.906,0 7.347,-1.977 10.086,-5.258 2.738,-3.281 4.359,-7.801 4.359,-11.125 l -0.066,-133.496 0,-0.012 c 0,-3.336 -1.61,-7.855 -4.332,-11.133 -2.723,-3.281 -6.141,-5.25 -10.047,-5.25 l -280.473,0.133 c -3.906,0 -7.351,1.977 -10.086,5.258 -2.738,3.281 -4.359,7.801 -4.359,11.125 l 0.066,133.496 0,0.012 c 0,3.336 1.61,7.855 4.328,11.133 2.723,3.277 6.137,5.246 10.039,5.25 z" /><path
         id="path4779"
         style="fill:#000000;fill-opacity:1;fill-rule:nonzero;stroke:none"
         d="m 759.973,2273.777 c 0,-5.59 1.75,-9.825 5.25,-12.704 3.504,-2.878 7.425,-4.316 11.769,-4.316 4.34,0 8.266,1.438 11.766,4.316 3.504,2.879 5.254,7.114 5.254,12.704 0,5.539 -1.75,9.757 -5.254,12.664 -3.5,2.906 -7.426,4.355 -11.766,4.355 -4.344,0 -8.265,-1.449 -11.769,-4.355 -3.5,-2.907 -5.25,-7.125 -5.25,-12.664 z m -19.141,-51.059 c 0,11.563 4.672,20.469 14.008,26.711 -3.528,3.148 -6.391,6.637 -8.59,10.465 -2.199,3.828 -3.301,8.347 -3.301,13.558 0,9.555 3.274,17.672 9.817,24.348 6.539,6.68 14.617,10.016 24.226,10.02 9.61,0 17.684,-3.34 24.227,-10.02 6.539,-6.676 9.812,-14.793 9.812,-24.348 0,-5.211 -1.113,-9.73 -3.34,-13.558 -2.226,-3.828 -5.046,-7.317 -8.468,-10.465 9.285,-6.297 13.925,-15.203 13.925,-26.711 0,-10.531 -3.57,-19.098 -10.71,-25.691 -7.137,-6.598 -15.622,-9.895 -25.446,-9.895 -9.883,0 -18.379,3.297 -25.492,9.895 -7.109,6.593 -10.668,15.16 -10.668,25.691 z m 17.023,0.164 c 0,-5.43 1.911,-9.922 5.739,-13.48 3.828,-3.555 8.293,-5.332 13.398,-5.332 5.047,0 9.512,1.777 13.395,5.332 3.883,3.558 5.824,8.05 5.824,13.48 0,5.426 -1.941,9.934 -5.824,13.516 -3.883,3.586 -8.348,5.375 -13.395,5.375 -5.105,0 -9.57,-1.789 -13.398,-5.375 -3.828,-3.582 -5.739,-8.09 -5.739,-13.516 z" /><path
         id="path4781"
         style="fill:#ffffff;fill-opacity:1;fill-rule:nonzero;stroke:none"
         d="m 216.398,1514.546 0,166.531 58.293,0 c 22.786,0 39.7,-9.332 50.75,-28.004 4.114,-7.085 6.629,-13.714 7.543,-19.886 0.914,-6.172 1.371,-17.985 1.371,-35.434 0,-18.742 -0.628,-31.258 -1.886,-37.547 -1.258,-6.285 -3.75,-12.324 -7.485,-18.113 -4.953,-7.773 -11.754,-14.309 -20.402,-19.605 -8.648,-5.293 -19.144,-7.942 -31.488,-7.942 l -56.696,0 z m 25.262,142.645 0,-118.871 30.289,0 c 13.867,0 24.156,4.839 30.86,14.515 2.742,4.192 4.476,8.707 5.203,13.543 0.722,4.84 1.086,14.992 1.086,30.461 0,14.934 -0.403,25.262 -1.203,30.977 -0.801,5.715 -2.875,10.855 -6.227,15.429 -6.934,9.297 -16.84,13.946 -29.719,13.946 l -30.289,0 z m 126.172,-102.871 0,78.867 23.887,0 0,-70.75 c 0,-8.078 2.23,-14.344 6.687,-18.801 4.457,-4.461 10.114,-6.688 16.973,-6.688 6.629,0 12.172,2.227 16.629,6.688 4.457,4.457 6.687,10.723 6.687,18.801 l 0,70.75 23.887,0 0,-118.641 -23.887,0 0,12.57 -0.457,0 c -7.39,-9.293 -17.601,-13.941 -30.633,-13.941 -9.371,0 -18.343,3.484 -26.917,10.457 -8.571,6.973 -12.856,17.203 -12.856,30.688 z m 54.063,97.269 0,25.258 25.257,0 0,-25.258 -25.257,0 z m -41.262,0 0,25.258 25.375,0 0,-25.258 -25.375,0 z m 105.597,-117.269 16.688,16.457 c 10.363,-10.133 22.82,-15.2 37.375,-15.2 6.781,0 12.383,1.274 16.801,3.829 4.418,2.55 6.629,6.343 6.629,11.371 0,6.933 -4.84,10.82 -14.516,11.66 l -21.031,1.941 c -9.828,0.762 -17.985,4 -24.461,9.715 -6.477,5.715 -9.715,13.68 -9.715,23.891 0,12.039 4.23,21.144 12.688,27.316 8.457,6.172 18.972,9.258 31.546,9.258 10.364,0 19.243,-1.465 26.633,-4.399 7.391,-2.937 14.02,-6.839 19.887,-11.718 l -14.746,-17.371 c -4.723,3.199 -9.598,5.828 -14.629,7.886 -5.027,2.055 -10.742,3.086 -17.145,3.086 -7.621,0 -12.914,-1.351 -15.886,-4.058 -2.973,-2.707 -4.457,-6.114 -4.457,-10.231 0,-2.59 1.105,-4.988 3.312,-7.199 2.211,-2.211 6.324,-3.543 12.344,-4 l 19.66,-1.371 c 12.27,-0.84 21.07,-4.629 26.402,-11.375 5.336,-6.742 8.004,-14.801 8.004,-24.172 0,-11.66 -4.765,-20.652 -14.289,-26.977 -9.523,-6.324 -21.144,-9.484 -34.859,-9.484 -19.738,0 -37.149,7.047 -52.235,21.145 z m 118.282,0 16.687,16.457 c 10.363,-10.133 22.824,-15.2 37.375,-15.2 6.785,0 12.383,1.274 16.805,3.829 4.418,2.55 6.629,6.343 6.629,11.371 0,6.933 -4.84,10.82 -14.516,11.66 l -21.031,1.941 c -9.832,0.762 -17.984,4 -24.461,9.715 -6.477,5.715 -9.715,13.68 -9.715,23.891 0,12.039 4.231,21.144 12.688,27.316 8.457,6.172 18.972,9.258 31.547,9.258 10.363,0 19.238,-1.465 26.628,-4.399 7.395,-2.937 14.024,-6.839 19.891,-11.718 l -14.746,-17.371 c -4.723,3.199 -9.602,5.828 -14.629,7.886 -5.031,2.055 -10.746,3.086 -17.144,3.086 -7.622,0 -12.918,-1.351 -15.887,-4.058 -2.973,-2.707 -4.461,-6.114 -4.461,-10.231 0,-2.59 1.105,-4.988 3.316,-7.199 2.211,-2.211 6.324,-3.543 12.344,-4 l 19.66,-1.371 c 12.266,-0.84 21.067,-4.629 26.403,-11.375 5.332,-6.742 8,-14.801 8,-24.172 0,-11.66 -4.762,-20.652 -14.286,-26.977 -9.527,-6.324 -21.148,-9.484 -34.863,-9.484 -19.734,0 -37.144,7.047 -52.234,21.145 z m 223.324,30.515 -73.836,0 c 0,-9.754 2.648,-17.066 7.945,-21.945 5.293,-4.875 12.059,-7.313 20.285,-7.313 9.832,0 18.52,3.809 26.063,11.43 l 17.258,-14.746 c -5.867,-6.859 -12.477,-11.754 -19.832,-14.688 -7.352,-2.933 -15.028,-4.398 -23.031,-4.398 -12.192,0 -24,3.941 -35.43,11.828 -11.43,7.887 -17.145,24.024 -17.145,48.406 0,23.086 5.274,39.051 15.828,47.891 10.555,8.84 21.586,13.258 33.09,13.258 13.031,0 24.422,-4.516 34.176,-13.543 9.754,-9.031 14.629,-21.203 14.629,-36.52 l 0,-19.66 z m -73.836,19.66 50.062,0 c -0.382,8.914 -2.894,15.735 -7.542,20.461 -4.649,4.723 -10.477,7.086 -17.489,7.086 -7.086,0 -12.972,-2.363 -17.66,-7.086 -4.683,-4.726 -7.141,-11.547 -7.371,-20.461 z m 104.797,-41.261 0,137.843 23.887,0 0,-135.898 c 0,-5.488 2.972,-8.231 8.918,-8.231 l 8.113,0 0,-22.402 -10.516,0 c -8.687,0 -15.926,2.113 -21.715,6.344 -5.793,4.226 -8.687,11.676 -8.687,22.344 z m 137.027,-28.688 0,12.344 c -8.304,-9.145 -18.515,-13.715 -30.629,-13.715 -7.316,0 -13.601,1.426 -18.859,4.285 -5.258,2.856 -9.563,6.535 -12.918,11.028 -3.352,4.191 -5.602,9.164 -6.742,14.918 -1.145,5.753 -1.715,15.945 -1.715,30.574 0,14.476 0.57,24.554 1.715,30.234 1.14,5.676 3.39,10.649 6.742,14.914 3.355,4.418 7.66,8.094 12.918,11.031 5.258,2.934 11.543,4.399 18.859,4.399 6.094,0 11.617,-1.297 16.571,-3.887 4.953,-2.59 9.64,-5.98 14.058,-10.172 l 0,60.578 23.891,0 0,-166.531 -23.891,0 z m -23.316,96.125 c -11.278,0 -18.039,-3.848 -20.285,-11.547 -2.25,-7.695 -3.375,-16.074 -3.375,-25.144 0,-9.297 1.125,-17.793 3.375,-25.489 2.246,-7.695 9.007,-11.543 20.285,-11.543 11.051,0 17.699,4 19.945,12 2.25,8 3.371,16.344 3.371,25.032 0,8.457 -1.121,16.687 -3.371,24.687 -2.246,8.004 -8.894,12.004 -19.945,12.004 z m 74.051,-36.691 c 0,12.726 0.992,22.211 2.972,28.461 1.981,6.25 5.258,11.886 9.828,16.914 3.278,3.582 7.793,7.011 13.547,10.289 5.754,3.277 13.278,4.914 22.574,4.914 9.141,0 16.61,-1.637 22.403,-4.914 5.789,-3.278 10.324,-6.707 13.601,-10.289 4.571,-5.028 7.848,-10.664 9.828,-16.914 1.981,-6.25 2.973,-15.735 2.973,-28.461 0,-12.953 -0.992,-22.555 -2.973,-28.801 -1.98,-6.25 -5.257,-11.891 -9.828,-16.918 -3.277,-3.66 -7.812,-7.086 -13.601,-10.285 -5.793,-3.203 -13.262,-4.801 -22.403,-4.801 -9.296,0 -16.82,1.598 -22.574,4.801 -5.754,3.199 -10.269,6.625 -13.547,10.285 -4.57,5.027 -7.847,10.668 -9.828,16.918 -1.98,6.246 -2.972,15.848 -2.972,28.801 z m 73.953,-0.231 c 0,8.614 -0.438,14.672 -1.317,18.176 -0.875,3.504 -2.379,6.859 -4.515,10.059 -4.192,5.789 -10.59,8.687 -19.2,8.687 -8.765,0 -15.164,-2.898 -19.203,-8.687 -2.285,-3.2 -3.828,-6.555 -4.629,-10.059 -0.8,-3.504 -1.199,-9.488 -1.199,-17.945 0,-8.688 0.399,-14.801 1.199,-18.344 0.801,-3.543 2.344,-6.879 4.629,-10 4.039,-5.793 10.438,-8.688 19.203,-8.688 8.61,0 15.008,2.895 19.2,8.688 2.136,3.121 3.64,6.437 4.515,9.941 0.879,3.508 1.317,9.563 1.317,18.172 z m 54.73,-59.203 0,118.641 23.891,0 0,-12.688 0.457,0 c 7.39,9.371 17.68,14.059 30.859,14.059 8.688,0 16.957,-3.047 24.805,-9.145 l -17.258,-20.57 c -5.184,3.883 -10.441,5.828 -15.773,5.828 -5.868,0 -11.184,-1.965 -15.946,-5.887 -4.761,-3.925 -7.144,-10.23 -7.144,-18.918 l 0,-71.32 -23.891,0 z m 100.57,0 0,100.352 -12.003,0 0,18.289 12.003,0 0,15.66 c 0,11.047 3.047,19.184 9.145,24.402 6.094,5.219 13.793,7.828 23.086,7.828 l 15.43,0 0,-22.402 -13.485,0 c -6.933,0 -10.402,-3.277 -10.402,-9.828 l 0,-15.66 23.887,0 0,-18.289 -23.887,0 0,-100.352 -23.774,0 z" /><path
         id="path4783"
         style="fill:#ffffff;fill-opacity:1;fill-rule:nonzero;stroke:none"
         d="m 1753.844,1056.3 0,166.531 25.258,0 0,-85.836 0.574,0 68.465,85.836 30.058,0 -53.375,-65.718 58.977,-100.813 -29.946,0 -45.492,81.379 -29.261,-30.629 0,-50.75 -25.258,0 z m 143.664,59.434 c 0,12.726 0.988,22.214 2.972,28.461 1.981,6.25 5.254,11.886 9.829,16.918 3.277,3.582 7.793,7.011 13.543,10.285 5.753,3.277 13.277,4.918 22.574,4.918 9.144,0 16.613,-1.641 22.402,-4.918 5.793,-3.274 10.324,-6.703 13.602,-10.285 4.574,-5.032 7.847,-10.668 9.832,-16.918 1.98,-6.247 2.968,-15.735 2.968,-28.461 0,-12.953 -0.988,-22.555 -2.968,-28.801 -1.985,-6.25 -5.258,-11.887 -9.832,-16.918 -3.278,-3.656 -7.809,-7.086 -13.602,-10.285 -5.789,-3.203 -13.258,-4.801 -22.402,-4.801 -9.297,0 -16.821,1.598 -22.574,4.801 -5.75,3.199 -10.266,6.629 -13.543,10.285 -4.575,5.031 -7.848,10.668 -9.829,16.918 -1.984,6.246 -2.972,15.848 -2.972,28.801 z m 73.949,-0.227 c 0,8.609 -0.437,14.668 -1.312,18.172 -0.879,3.508 -2.383,6.859 -4.516,10.059 -4.191,5.793 -10.594,8.687 -19.203,8.687 -8.762,0 -15.164,-2.894 -19.203,-8.687 -2.285,-3.2 -3.828,-6.551 -4.629,-10.059 -0.797,-3.504 -1.199,-9.484 -1.199,-17.945 0,-8.684 0.402,-14.801 1.199,-18.344 0.801,-3.543 2.344,-6.875 4.629,-10 4.039,-5.793 10.441,-8.688 19.203,-8.688 8.609,0 15.012,2.895 19.203,8.688 2.133,3.125 3.637,6.437 4.516,9.945 0.875,3.504 1.312,9.563 1.312,18.172 z m -17.145,77.836 0,25.262 25.262,0 0,-25.262 -25.262,0 z m -41.148,0 0,25.262 25.262,0 0,-25.262 -25.262,0 z m 111.09,-108.355 0,137.843 23.887,0 0,-135.898 c 0,-5.488 2.972,-8.231 8.918,-8.231 l 8.113,0 0,-22.402 -10.516,0 c -8.687,0 -15.926,2.113 -21.715,6.344 -5.793,4.23 -8.687,11.676 -8.687,22.344 z m 64.226,-28.688 0,118.641 23.887,0 0,-12.684 0.457,0 c 7.391,9.371 17.68,14.059 30.864,14.059 9.218,0 18.113,-3.508 26.687,-10.516 8.57,-7.012 12.859,-17.223 12.859,-30.633 l 0,-78.867 -23.89,0 0,70.637 c 0,8 -2.227,14.25 -6.688,18.746 -4.457,4.496 -10,6.742 -16.629,6.742 -6.859,0 -12.515,-2.246 -16.972,-6.742 -4.457,-4.496 -6.688,-10.746 -6.688,-18.746 l 0,-70.637 -23.887,0 z" /><g
         transform="matrix(1,0,0,-0.999997,0,2600.8)"
         id="g4785"><path
           id="path4787"
           style="fill:#ffffff;fill-opacity:1;fill-rule:nonzero;stroke:#000000;stroke-width:0.073975;stroke-linecap:butt;stroke-linejoin:miter;stroke-miterlimit:4;stroke-dasharray:none;stroke-opacity:1"
           d="m 1006.652,1182.32 313.828,0 c 1.637,0 2.958,1.32 2.958,2.961 l 0,185.606 c 0,1.641 -1.321,2.961 -2.958,2.961 l -313.828,0 c -1.64,0 -2.957,-1.32 -2.957,-2.961 l 0,-185.606 c 0,-1.641 1.317,-2.961 2.957,-2.961 z" /></g><path
         id="path4789"
         style="fill:#154889;fill-opacity:1;fill-rule:nonzero;stroke:none"
         d="m 1014.512,1322.718 0,60.906 c 0,2.137 1.601,3.739 4.808,4.809 l 141.039,22.277 c 0,0.106 1.071,0.16 3.207,0.16 2.137,0 3.204,-0.054 3.204,-0.16 l 141.042,-22.277 c 3.204,-1.07 4.809,-2.672 4.809,-4.809 l 0,-121.808 c 0,-2.137 -1.605,-3.739 -4.809,-4.809 L 1166.77,1234.73 c 0,-0.106 -1.067,-0.16 -3.204,-0.16 -2.136,0 -3.207,0.054 -3.207,0.16 l -141.039,22.277 c -3.207,1.07 -4.808,2.672 -4.808,4.809" /><path
         id="path4791"
         style="fill:#ffffff;fill-opacity:1;fill-rule:nonzero;stroke:none"
         d="m 1096.07,1319.14 0,57.832 56.953,0 0,-15.34 -42.492,0 0,-24.144 c 4.891,3.914 10.59,5.871 17.098,5.871 4.062,0 7.769,-0.786 11.121,-2.348 3.352,-1.566 6.004,-3.402 7.961,-5.508 2.937,-3.18 5.078,-6.64 6.422,-10.383 1.347,-3.742 2.019,-10.043 2.019,-18.898 0,-7.191 -0.527,-12.539 -1.578,-16.035 -1.051,-3.5 -2.726,-6.715 -5.027,-9.653 -2.203,-2.789 -5.285,-5.382 -9.246,-7.777 -3.965,-2.398 -8.613,-3.598 -13.946,-3.598 -6.898,0 -13.554,2.129 -19.964,6.387 -6.407,4.254 -10.176,11.375 -11.301,21.356 l 15.34,0 c 1.808,-8.317 6.922,-12.477 15.34,-12.477 7.484,0 11.863,2.57 13.136,7.707 1.27,5.137 1.906,10.223 1.906,15.266 0,5.918 -1.003,10.836 -3.007,14.75 -2.008,3.914 -6.164,5.871 -12.477,5.871 -5.922,0 -10.519,-2.961 -13.797,-8.879 l -14.461,0 z" /><path
         id="path4793"
         style="fill:#ffffff;fill-opacity:1;fill-rule:nonzero;stroke:none"
         d="m 1223.992,1327.21 -28.769,-57.535 -17.172,0 22.601,45.281 -0.293,0 c -2.445,-0.929 -5.16,-1.394 -8.144,-1.394 -6.852,0 -12.82,2.371 -17.906,7.117 -5.141,4.699 -7.707,12.281 -7.707,22.754 0,12.277 3.253,21.062 9.761,26.344 6.555,5.336 13.844,8 21.867,8 7.438,0 14.29,-2.934 20.551,-8.805 6.215,-5.871 9.321,-13.848 9.321,-23.926 0,-6.508 -1.368,-12.453 -4.11,-17.836 z m -26.64,0 c 4.257,0 7.878,1.422 10.863,4.258 2.984,2.738 4.476,7.168 4.476,13.285 0,11.789 -5.113,17.688 -15.339,17.688 -3.571,0 -7.02,-1.348 -10.348,-4.039 -3.375,-2.739 -5.066,-7.289 -5.066,-13.649 0,-6.066 1.492,-10.496 4.48,-13.285 2.934,-2.836 6.578,-4.258 10.934,-4.258 z" /><path
         id="path4795"
         style="fill:#ffffff;fill-opacity:1;fill-rule:nonzero;stroke:none"
         d="m 808.332,1332.249 45.715,0 43.75,-133.461 -85.067,0 -4.398,133.461 z" /><path
         id="path4797"
         style="fill:#ffffff;fill-opacity:1;fill-rule:nonzero;stroke:none"
         d="m 807.5,1365.027 -3.211,81.621 14.207,0 26.039,-81.563 -37.035,-0.058 z" /><path
         id="path4799"
         style="fill:#ffffff;fill-opacity:1;fill-rule:nonzero;stroke:none"
         d="m 782.59,1446.648 13.914,0 -3.031,-81.621 -37.75,-0.411 26.867,82.032 z" /><path
         id="path4801"
         style="fill:#ffffff;fill-opacity:1;fill-rule:nonzero;stroke:none"
         d="m 745.32,1331.781 46.129,0 -4.043,-132.52 -85.48,-0.473 43.394,132.993 z" /><path
         id="path4803"
         style="fill:#ffffff;fill-opacity:1;fill-rule:nonzero;stroke:none"
         d="m 868.254,1331.546 0,14.305 -136.192,0.176 0,-14.246 -22.468,-0.059 0.117,13.953 -24.371,0.176 0.176,10.144 229.699,-0.058 0,-9.91 -24.61,0 0,-14.539 -22.351,0.058 z" /><g
         transform="matrix(1,0,0,-1,0,2600.8)"
         id="g4805"><path
           id="path4807"
           style="fill:#ffffff;fill-opacity:1;fill-rule:nonzero;stroke:#000000;stroke-width:0.0739749;stroke-linecap:butt;stroke-linejoin:miter;stroke-miterlimit:4;stroke-dasharray:none;stroke-opacity:1"
           d="m 1866.41,1641.156 313.828,0 c 1.637,0 2.957,1.321 2.957,2.961 l 0,185.606 c 0,1.64 -1.32,2.961 -2.957,2.961 l -313.828,0 c -1.637,0 -2.957,-1.321 -2.957,-2.961 l 0,-185.606 c 0,-1.64 1.32,-2.961 2.957,-2.961 z" /></g><path
         id="path4809"
         style="fill:#154889;fill-opacity:1;fill-rule:nonzero;stroke:none"
         d="m 1874.27,863.882 0,60.902 c 0,2.137 1.605,3.739 4.808,4.809 l 141.039,22.277 c 0,0.106 1.071,0.161 3.207,0.161 2.137,0 3.207,-0.055 3.207,-0.161 l 141.039,-22.277 c 3.203,-1.07 4.809,-2.672 4.809,-4.809 l 0,-121.808 c 0,-2.137 -1.606,-3.738 -4.809,-4.809 L 2026.531,775.89 c 0,-0.106 -1.07,-0.16 -3.207,-0.16 -2.136,0 -3.207,0.054 -3.207,0.16 l -141.039,22.277 c -3.203,1.071 -4.808,2.672 -4.808,4.809" /><path
         id="path4811"
         style="fill:#ffffff;fill-opacity:1;fill-rule:nonzero;stroke:none"
         d="m 1955.828,860.3 0,57.832 56.953,0 0,-15.34 -42.492,0 0,-24.144 c 4.891,3.914 10.59,5.871 17.098,5.871 4.062,0 7.769,-0.781 11.121,-2.348 3.351,-1.566 6.004,-3.402 7.961,-5.504 2.937,-3.183 5.078,-6.644 6.422,-10.386 1.347,-3.743 2.019,-10.043 2.019,-18.899 0,-7.191 -0.527,-12.535 -1.578,-16.035 -1.051,-3.5 -2.727,-6.715 -5.027,-9.652 -2.203,-2.789 -5.285,-5.379 -9.246,-7.778 -3.965,-2.398 -8.614,-3.597 -13.946,-3.597 -6.898,0 -13.554,2.128 -19.961,6.386 -6.41,4.254 -10.179,11.375 -11.304,21.356 l 15.34,0 c 1.808,-8.317 6.921,-12.477 15.339,-12.477 7.485,0 11.864,2.571 13.137,7.707 1.27,5.137 1.906,10.227 1.906,15.266 0,5.918 -1.004,10.836 -3.008,14.75 -2.007,3.914 -6.164,5.871 -12.476,5.871 -5.922,0 -10.52,-2.961 -13.797,-8.879 l -14.461,0 z" /><path
         id="path4813"
         style="fill:#ffffff;fill-opacity:1;fill-rule:nonzero;stroke:none"
         d="m 2083.75,868.374 -28.77,-57.539 -17.171,0 22.605,45.281 -0.297,0 c -2.445,-0.929 -5.16,-1.394 -8.144,-1.394 -6.852,0 -12.821,2.371 -17.907,7.117 -5.14,4.699 -7.707,12.281 -7.707,22.754 0,12.281 3.254,21.063 9.762,26.348 6.555,5.332 13.844,8 21.871,8 7.434,0 14.285,-2.938 20.547,-8.809 6.215,-5.871 9.32,-13.848 9.32,-23.926 0,-6.508 -1.367,-12.453 -4.109,-17.832 z m -26.641,0 c 4.258,0 7.879,1.418 10.864,4.254 2.984,2.742 4.476,7.168 4.476,13.285 0,11.793 -5.113,17.688 -15.34,17.688 -3.57,0 -7.019,-1.348 -10.347,-4.035 -3.375,-2.743 -5.063,-7.293 -5.063,-13.653 0,-6.066 1.492,-10.496 4.477,-13.285 2.933,-2.836 6.578,-4.254 10.933,-4.254 z" /><path
         id="path4815"
         style="fill:#ffffff;fill-opacity:1;fill-rule:nonzero;stroke:none"
         d="m 1672.535,739.952 -4.398,133.457 45.715,0 43.75,-133.457 -85.067,0 z" /><path
         id="path4817"
         style="fill:#ffffff;fill-opacity:1;fill-rule:nonzero;stroke:none"
         d="m 1704.34,906.245 -37.035,-0.058 -3.211,81.625 14.207,0 26.039,-81.567 z" /><path
         id="path4819"
         style="fill:#ffffff;fill-opacity:1;fill-rule:nonzero;stroke:none"
         d="m 1655.508,986.202 -2.914,-78.421 -36.266,-0.395 25.817,78.816 13.363,0 z" /><path
         id="path4821"
         style="fill:#ffffff;fill-opacity:1;fill-rule:nonzero;stroke:none"
         d="m 1561.73,739.952 43.395,132.989 46.129,0 -4.043,-132.52 -85.481,-0.469 z" /><path
         id="path4823"
         style="fill:#ffffff;fill-opacity:1;fill-rule:nonzero;stroke:none"
         d="m 1569.516,886.835 -24.371,0.176 0.179,10.145 229.696,-0.059 0,-9.906 -24.61,0 0,-14.543 -22.351,0.058 0,14.305 -136.192,0.18 0,-14.25 -22.469,-0.059 0.118,13.953 z" /><path
         id="path4825"
         style="fill:#ffffff;fill-opacity:1;fill-rule:nonzero;stroke:none"
         d="m 1444.844,1928.745 -103.367,-149.933 c -6.571,-10.199 3.664,-27.125 16.625,-23.489 l 54.402,13.192 -1.684,-721.035 -446.074,-0.239 13.133,50.707 c 5.039,14 -15.598,21.731 -23.488,16.567 L 804.633,1012.331 954.566,908.964 c 10.204,-6.57 27.129,3.664 23.493,16.625 l -12.84,49.645 445.426,-0.239 0,-774.593 70.527,0 -0.238,316.808 445.484,0 -13.016,-50.293 c -5.039,-14 15.598,-21.73 23.489,-16.566 l 149.757,102.183 -149.933,103.368 c -10.203,6.57 -27.129,-3.664 -23.492,-16.625 l 13.195,-50.946 -445.484,-0.828 0,1180.836 49.527,-12.84 c 13.996,-5.035 21.73,15.598 16.566,23.492 l -102.183,149.754 z" /><path
         id="path4827"
         style="fill:#000000;fill-opacity:1;fill-rule:nonzero;stroke:none"
         d="M 60.398,2600.8 C 27.047,2600.8 0,2573.753 0,2540.402 0.098,1720.163 0.02,880.8 0,60.402 0,27.046 27.047,-0.001 60.398,-0.001 l 2280,0 c 33.356,0 60.403,27.047 60.403,60.403 -0.02,820.398 -0.102,1659.761 0,2480 0,33.351 -27.047,60.398 -60.403,60.398 l -2280,0 z m 0,-0.801 2280,0 c 32.922,0 59.602,-26.679 59.602,-59.597 -0.098,-820.239 -0.02,-1659.602 0,-2480 C 2400,27.48 2373.32,0.8 2340.398,0.8 l -2280,0 C 27.48,0.8 0.801,27.48 0.801,60.402 c 0.019,820.398 0.097,1659.761 0,2480 0,32.918 26.679,59.597 59.597,59.597 z" /></g></g></svg>