<?xml version="1.0" encoding="UTF-8" standalone="no"?>
<svg
   xmlns:dc="http://purl.org/dc/elements/1.1/"
   xmlns:cc="http://creativecommons.org/ns#"
   xmlns:rdf="http://www.w3.org/1999/02/22-rdf-syntax-ns#"
   xmlns:svg="http://www.w3.org/2000/svg"
   xmlns="http://www.w3.org/2000/svg"
   id="svg4187"
   version="1.1"
   xml:space="preserve"
   width="968.83301"
   height="242.4361"
   viewBox="0 0 968.83301 242.4361"><metadata
     id="metadata4193"><rdf:RDF><cc:Work
         rdf:about=""><dc:format>image/svg+xml</dc:format><dc:type
           rdf:resource="http://purl.org/dc/dcmitype/StillImage" /><dc:title></dc:title></cc:Work></rdf:RDF></metadata><defs
     id="defs4191"><clipPath
       clipPathUnits="userSpaceOnUse"
       id="clipPath4203"><path
         d="M 0,0 776,0 776,194 0,194 0,0 Z"
         id="path4205" /></clipPath></defs><g
     id="g4195"
     transform="matrix(1.25,0,0,-1.25,0,242.4361)"><g
       id="g4197"><g
         id="g4199"
         transform="translate(0,-0.0511169)"><g
           id="g4201" /><g
           id="g4207"><g
             clip-path="url(#clipPath4203)"
             id="g4209"><g
               id="g4211"><path
                 d="m 163.254,193.621 c -12.168,0 -24.156,-3.211 -34.688,-9.297 L 11.82,116.852 C 8.355,114.848 5.469,111.957 3.465,108.48 0.406,103.18 -0.406,97.012 1.164,91.109 2.75,85.191 6.535,80.254 11.82,77.199 L 128.566,9.738 C 139.098,3.656 151.086,0.43 163.254,0.43 l 588.551,0 c 12.621,0 22.867,10.277 22.867,22.898 l 0,147.41 c 0,12.621 -10.246,22.883 -22.867,22.883"
                 style="fill:#f0c900;fill-opacity:1;fill-rule:nonzero;stroke:none"
                 id="path4213" /></g></g></g></g></g><g
       id="g4217"><path
         d="m 163.254,188.144 c -11.231,0 -22.25,-2.961 -31.969,-8.582 L 14.539,112.09 C 11.891,110.562 9.688,108.359 8.145,105.711 3.336,97.355 6.195,86.683 14.539,81.859 L 131.285,14.386 C 141.004,8.777 152.023,5.82 163.254,5.82 l 588.551,0 c 9.633,0 17.441,7.809 17.441,17.457 l 0,147.41 c 0,9.649 -7.808,17.457 -17.441,17.457 l -588.551,0 z m 0,-9.703 588.551,0 c 4.289,0 7.769,-3.476 7.769,-7.754 l 0,-147.41 c 0,-4.293 -3.48,-7.77 -7.769,-7.77 l -588.551,0 c -9.531,0 -18.887,2.512 -27.133,7.293 L 19.379,90.257 c -3.703,2.145 -4.977,6.887 -2.832,10.602 0.672,1.18 1.652,2.16 2.832,2.832 l 116.742,67.473 c 8.246,4.765 17.602,7.277 27.133,7.277 z"
         style="fill:#000000;fill-opacity:1;fill-rule:nonzero;stroke:none"
         id="path4219" /><path
         d="m 383.816,143.933 -54.179,-3.394 c -2.469,-0.153 -4.598,-1.739 -5.469,-4.051 l -13.797,-36.82 c -1.051,-2.821 -1.586,-5.793 -1.586,-8.793 l 0,-34.578 c 0,-3.465 2.793,-6.266 6.258,-6.266 l 3.125,0 c 0,15.547 12.59,28.168 28.125,28.168 15.551,0 28.145,-12.621 28.145,-28.168 l 112.566,0 c 0,8.508 3.84,16.559 10.445,21.914 l -113.633,0 0,71.988 z m -21.886,-10.965 0,-31.296 -41.504,-4.895 c -1.727,-0.195 -3.281,1.023 -3.477,2.75 -0.058,0.488 0,0.996 0.18,1.457 l 10.476,27.988 c 0.434,1.149 1.5,1.95 2.735,2.02 l 31.59,1.976 z"
         style="fill:#000000;fill-opacity:1;fill-rule:nonzero;stroke:none"
         id="path4221" /><path
         d="m 537.031,50.031 c 0,-12.102 -9.801,-21.918 -21.886,-21.918 -12.086,0 -21.887,9.816 -21.887,21.918 0,12.098 9.801,21.914 21.887,21.914 12.085,0 21.886,-9.816 21.886,-21.914 z m -168.836,0 c 0,-12.102 -9.8,-21.918 -21.898,-21.918 -12.09,0 -21.875,9.816 -21.875,21.918 0,12.098 9.785,21.914 21.875,21.914 12.098,0 21.898,-9.816 21.898,-21.914 z m 209.489,28.168 -181.36,0 0,87.637 181.36,0 0,-87.637 z m -18.762,-28.168 -15.637,0 c 0,8.512 -3.84,16.559 -10.457,21.914 l 44.856,0 0,-15.648"
         style="fill:#000000;fill-opacity:1;fill-rule:nonzero;stroke:none"
         id="path4223" /></g></g></svg>