<?xml version="1.0" encoding="UTF-8" standalone="no"?>
<svg
   xmlns:dc="http://purl.org/dc/elements/1.1/"
   xmlns:cc="http://creativecommons.org/ns#"
   xmlns:rdf="http://www.w3.org/1999/02/22-rdf-syntax-ns#"
   xmlns:svg="http://www.w3.org/2000/svg"
   xmlns="http://www.w3.org/2000/svg"
   viewBox="0 0 770.51288 986.24371"
   height="986.24371"
   width="770.51288"
   xml:space="preserve"
   id="svg3700"
   version="1.1"><metadata
     id="metadata3706"><rdf:RDF><cc:Work
         rdf:about=""><dc:format>image/svg+xml</dc:format><dc:type
           rdf:resource="http://purl.org/dc/dcmitype/StillImage" /><dc:title></dc:title></cc:Work></rdf:RDF></metadata><defs
     id="defs3704" /><g
     transform="matrix(1.3333333,0,0,-1.3333333,0,986.24373)"
     id="g3708"><g
       id="g3710"><path
         id="path3712"
         style="fill:#ffffff;fill-opacity:1;fill-rule:nonzero;stroke:none"
         d="m 27.742,739.327 c -15.09,0 -27.371,-12.285 -27.371,-27.375 V 27.734 C 0.371,12.64 12.652,0.37 27.742,0.37 h 522.399 c 15.101,0 27.375,12.27 27.375,27.364 v 684.218 c 0,15.09 -12.274,27.375 -27.375,27.375" /><path
         id="path3714"
         style="fill:#000000;fill-opacity:1;fill-rule:nonzero;stroke:none"
         d="M 27.746,739.683 C 12.422,739.683 0,727.265 0,711.952 V 27.734 C 0,12.421 12.422,-0.001 27.746,-0.001 h 522.395 c 15.324,0 27.746,12.422 27.746,27.735 v 684.218 c 0,15.313 -12.422,27.731 -27.746,27.731 z m 0,-0.356 h 522.395 c 15.101,0 27.375,-12.285 27.375,-27.375 V 27.734 C 577.516,12.64 565.242,0.37 550.141,0.37 H 27.746 C 12.652,0.37 0.367,12.64 0.367,27.734 v 684.218 c 0,15.09 12.285,27.375 27.379,27.375 z" /><path
         id="path3716"
         style="fill:#000000;fill-opacity:1;fill-rule:nonzero;stroke:none"
         d="m 27.746,732.753 c -11.5,0 -20.805,-9.316 -20.805,-20.801 V 27.73 c 0,-11.481 9.305,-20.789 20.805,-20.789 h 522.395 c 11.496,0 20.812,9.308 20.812,20.789 v 684.222 c 0,11.485 -9.316,20.801 -20.812,20.801 z m 0,-9.242 h 522.395 c 6.386,0 11.558,-5.172 11.558,-11.559 V 27.73 c 0,-6.375 -5.172,-11.543 -11.558,-11.543 H 27.746 c -6.391,0 -11.558,5.168 -11.558,11.543 v 684.222 c 0,6.387 5.167,11.559 11.558,11.559 z" /><path
         id="path3718"
         style="fill:#000000;fill-opacity:1;fill-rule:nonzero;stroke:none"
         d="m 157.184,416.542 h -18.489 v 83.219 h 272.762 v 44.84 l -20.852,-5.379 c -2.964,-0.75 -5.98,1.058 -6.718,4.027 -0.367,1.477 -0.129,3.051 0.699,4.332 l 40.727,60.817 40.769,-60.856 c 1.625,-2.597 0.836,-6.019 -1.75,-7.644 -1.277,-0.797 -2.832,-1.043 -4.293,-0.676 l -20.851,5.379 V 415.542 c -9.196,1.332 -18.54,1.332 -27.735,0 v 65.719 H 157.18 V 416.542 Z M 411.457,48.546 v 90.617 H 138.695 v 83.207 h 18.489 v -64.718 h 254.273 v 65.714 c 9.195,-1.328 18.539,-1.328 27.734,0 V 48.546" /><path
         id="path3720"
         style="fill:#c1121c;fill-opacity:1;fill-rule:nonzero;stroke:none"
         d="m 425.316,411.679 c -50.933,0 -92.218,-41.285 -92.218,-92.231 0,-50.921 41.285,-92.218 92.218,-92.218 50.946,0 92.231,41.297 92.231,92.218 0,50.946 -41.285,92.231 -92.231,92.231 z m 0,-24.262 c 37.543,0 67.957,-30.426 67.957,-67.969 0,-37.515 -30.414,-67.945 -67.957,-67.945 -37.527,0 -67.945,30.43 -67.945,67.945 0,37.543 30.418,67.969 67.945,67.969 z" /><path
         id="path3722"
         style="fill:#000000;fill-opacity:1;fill-rule:nonzero;stroke:none"
         d="m 287.445,331.945 v 34.832 h -4.16 v 6.769 h 4.16 v 6.242 c 0,5.746 4.657,10.399 10.403,10.399 h 6.242 v -7.801 h -5.727 c -1.437,0 -2.609,-1.16 -2.609,-2.598 v -6.242 h 8.336 v -6.769 h -8.336 v -34.832 z m -36.406,0 v 41.601 h 8.32 v -4.703 c 4.875,6.031 13.711,6.98 19.743,2.105 0,-0.007 0,-0.007 0,-0.007 l -5.922,-7.301 c -3.434,3.051 -8.688,2.746 -11.742,-0.688 -1.352,-1.515 -2.106,-3.496 -2.106,-5.527 v -25.48 h -8.32 z m -37.445,16.628 c 0,-4.875 3.953,-8.839 8.84,-8.839 4.882,0 8.836,3.964 8.836,8.839 v 8.321 c 0,4.898 -3.954,8.847 -8.836,8.847 -4.887,0 -8.84,-3.949 -8.84,-8.847 z m -8.321,0 v 8.321 c 0,9.488 7.68,17.168 17.161,17.168 9.476,0 17.156,-7.68 17.156,-17.168 v -8.321 c 0,-9.48 -7.68,-17.16 -17.156,-17.16 -9.481,0 -17.161,7.68 -17.161,17.16 z m -43.168,-8.308 h 11.954 c 6.609,0 11.964,5.34 11.964,11.961 v 17.676 c 0,6.609 -5.355,11.964 -11.964,11.964 h -11.954 z m -8.847,-8.32 v 58.242 h 20.801 c 11.496,0 20.8,-9.317 20.8,-20.801 v -16.641 c 0,-11.496 -9.304,-20.8 -20.8,-20.8 z m -14.563,18.707 h -24.961 v 8.332 h 24.961 z m -66.836,2.093 h 17.172 l -8.593,25.477 z m -16.382,-20.8 21.332,58.242 h 7.273 l 21.332,-58.242 h -9.367 l -4.383,12.984 H 69.223 l -4.379,-12.984" /><path
         id="path3724"
         style="fill:#000000;fill-opacity:1;fill-rule:nonzero;stroke:none"
         d="m 282.238,248.722 v 34.848 h -4.16 v 6.757 h 4.16 v 6.239 c 0,5.75 4.668,10.414 10.403,10.414 h 6.242 v -7.817 h -5.723 c -1.43,0 -2.597,-1.156 -2.597,-2.597 v -6.239 h 8.32 v -6.757 h -8.32 v -34.848 z m -36.406,0 v 41.605 h 8.32 v -4.691 c 4.875,6.019 13.723,6.969 19.754,2.094 0,0 0,0 0,-0.012 L 268,280.421 c -3.434,3.063 -8.703,2.758 -11.754,-0.691 -1.355,-1.512 -2.105,-3.485 -2.105,-5.528 v -25.476 h -8.321 z m -37.445,16.644 c 0,-4.886 3.965,-8.851 8.84,-8.851 4.886,0 8.847,3.965 8.847,8.851 v 8.321 c 0,4.871 -3.961,8.836 -8.847,8.836 -4.875,0 -8.84,-3.965 -8.84,-8.836 z m -8.321,0 v 8.321 c 0,9.476 7.68,17.156 17.161,17.156 9.476,0 17.168,-7.68 17.168,-17.156 v -8.321 c 0,-9.48 -7.692,-17.171 -17.168,-17.171 -9.481,0 -17.161,7.691 -17.161,17.171 z m -43.168,-8.324 h 11.965 c 6.61,0 11.965,5.356 11.965,11.965 v 17.688 c 0,6.597 -5.355,11.964 -11.965,11.964 h -11.965 z m -8.847,-8.32 v 58.258 h 20.812 c 11.485,0 20.805,-9.317 20.805,-20.813 v -16.64 c 0,-11.485 -9.32,-20.805 -20.805,-20.805 z M 133.5,267.445 h -24.973 v 8.332 H 133.5 Z m -69.176,15.078 h 14.047 c 4.59,0 8.32,3.742 8.32,8.32 0,4.605 -3.73,8.32 -8.32,8.32 H 64.324 Z m 0,-25.481 h 14.563 c 4.886,0 8.84,3.965 8.84,8.84 0,4.887 -3.954,8.848 -8.84,8.848 H 64.324 Z m -8.847,-8.32 v 58.258 h 23.929 c 8.614,0 15.606,-7.004 15.606,-15.606 0,-5.086 -2.485,-9.871 -6.66,-12.789 7.597,-4.64 9.972,-14.586 5.316,-22.168 -2.93,-4.777 -8.133,-7.695 -13.746,-7.695" /><path
         id="path3726"
         style="fill:#000000;fill-opacity:1;fill-rule:nonzero;stroke:none"
         d="m 305.074,48.546 v 41.617 h 8.321 v -4.715 c 4.875,6.043 13.71,6.977 19.742,2.106 0.937,-0.766 1.785,-1.641 2.488,-2.609 5.465,6.656 15.285,7.652 21.957,2.203 3.633,-2.957 5.734,-7.387 5.734,-12.078 V 48.546 h -8.32 v 25.481 c 0,4.601 -3.73,8.32 -8.32,8.32 -4.602,0 -8.321,-3.719 -8.321,-8.32 V 48.546 h -8.32 v 25.481 c 0,4.601 -3.73,8.32 -8.32,8.32 -4.606,0 -8.32,-3.719 -8.32,-8.32 V 48.546 Z m -36.41,16.125 c 0,-4.605 3.719,-8.332 8.32,-8.332 4.59,0 8.321,3.727 8.321,8.332 v 26.008 c 0,4.578 -3.731,8.32 -8.321,8.32 -4.601,0 -8.32,-3.742 -8.32,-8.32 z m -8.32,0 v 26.008 c 0,9.183 7.445,16.641 16.64,16.641 9.196,0 16.641,-7.458 16.641,-16.641 V 64.671 c 0,-9.195 -7.445,-16.656 -16.641,-16.656 -9.195,0 -16.64,7.461 -16.64,16.656 z m -36.41,26.008 c 0,-4.606 3.73,-8.332 8.32,-8.332 4.605,0 8.32,3.726 8.32,8.332 0,4.578 -3.715,8.32 -8.32,8.32 -4.59,0 -8.32,-3.742 -8.32,-8.32 z m -1.047,-24.977 c 0,-5.168 4.199,-9.363 9.367,-9.363 5.172,0 9.367,4.195 9.367,9.363 0,5.172 -4.195,9.368 -9.367,9.368 -5.168,0 -9.367,-4.196 -9.367,-9.368 z m -1.551,13.137 c -3.617,2.856 -5.723,7.223 -5.723,11.84 0,9.183 7.446,16.641 16.641,16.641 9.195,0 16.641,-7.458 16.641,-16.641 0,-4.617 -2.106,-8.984 -5.723,-11.84 4.246,-3.031 6.769,-7.93 6.769,-13.137 0,-9.757 -7.925,-17.687 -17.687,-17.687 -9.762,0 -17.676,7.93 -17.676,17.687 0,5.207 2.512,10.106 6.758,13.137" /><path
         id="path3728"
         style="fill:#000000;fill-opacity:1;fill-rule:nonzero;stroke:none"
         d="m 522.41,632.905 h -5.207 c -5.172,0 -9.355,4.184 -9.355,9.352 v 25.492 h -4.16 v 6.758 h 4.16 v 12.48 h 8.32 v -12.48 h 6.242 v -6.758 h -6.242 v -24.445 c 0,-1.438 1.168,-2.609 2.598,-2.609 h 3.644 z m -50.972,0 v 41.602 h 8.32 v -4.699 c 4.875,6.031 13.715,6.976 19.758,2.101 0,-0.007 0,-0.007 0,-0.007 l -5.922,-7.301 c -3.422,3.054 -8.692,2.746 -11.742,-0.688 -1.356,-1.515 -2.106,-3.484 -2.106,-5.527 v -25.481 h -8.32 z m -20.801,18.192 h -11.965 c -2.867,0 -5.207,-2.328 -5.207,-5.195 0,-2.868 2.34,-5.207 5.207,-5.207 h 6.769 c 2.868,0 5.196,2.339 5.196,5.207 z m 8.32,-18.192 h -8.32 v 4.282 c -1.465,-2.645 -4.258,-4.282 -7.274,-4.282 h -5.207 c -6.894,0 -12.48,5.586 -12.48,12.481 0,6.891 5.586,12.48 12.48,12.48 h 12.481 v 4.161 c 0,2.265 -1.637,4.21 -3.879,4.605 -2.942,0.516 -5.945,0.516 -8.887,0 -1.465,-0.246 -2.73,-1.195 -3.394,-2.523 l -6.575,5.191 c 1.981,2.93 5.059,4.926 8.532,5.527 3.886,0.692 7.863,0.692 11.765,0 6.215,-1.082 10.758,-6.484 10.758,-12.8 z m -52.016,16.11 v 9.367 c 0,4.594 -3.718,8.32 -8.32,8.32 -4.594,0 -8.32,-3.726 -8.32,-8.32 v -9.367 c 0,-4.59 3.726,-8.32 8.32,-8.32 4.602,0 8.32,3.73 8.32,8.32 z m 8.332,25.492 v -42.133 c 0,-6.301 -3.57,-12.062 -9.207,-14.879 -7.953,-3.976 -17.601,-1.898 -23.203,4.996 l 6.465,5.254 c 3.137,-3.875 8.555,-5.047 13.02,-2.804 2.82,1.402 4.593,4.285 4.593,7.433 v 5.219 c -4.863,-6.031 -13.699,-6.965 -19.742,-2.09 -3.301,2.656 -5.222,6.684 -5.222,10.918 v 14.559 c 0,7.754 6.293,14.047 14.046,14.047 4.247,0 8.258,-1.922 10.918,-5.219 v 4.699 z m -42.648,-41.602 h -5.207 c -5.172,0 -9.355,4.184 -9.355,9.352 v 25.492 h -4.161 v 6.758 h 4.161 v 12.48 h 8.32 v -12.48 h 6.242 v -6.758 h -6.242 v -24.445 c 0,-1.438 1.168,-2.609 2.597,-2.609 h 3.645 z m -27.043,0 h -5.207 c -5.172,0 -9.355,4.184 -9.355,9.352 v 25.492 h -4.172 v 6.758 h 4.172 v 12.48 h 8.32 v -12.48 h 6.242 v -6.758 h -6.242 v -24.445 c 0,-1.438 1.156,-2.609 2.598,-2.609 h 3.644 z m -29.125,0 h -8.32 v 4.688 c -4.887,-6.031 -13.723,-6.965 -19.754,-2.09 -3.301,2.656 -5.219,6.684 -5.219,10.918 v 28.086 h 8.32 v -25.492 c 0,-4.59 3.731,-8.32 8.321,-8.32 4.59,0 8.332,3.73 8.332,8.32 v 25.492 h 8.32 z m -42.648,0 h -5.207 c -5.168,0 -9.356,4.184 -9.356,9.352 v 25.492 h -4.16 v 6.758 h 4.16 v 12.48 h 8.32 v -12.48 h 6.243 v -6.758 h -6.243 v -24.445 c 0,-1.438 1.161,-2.609 2.598,-2.609 h 3.645 z m -68.657,7.485 5.711,6.742 c 6.129,-5.18 14.387,-7.113 22.18,-5.156 4.184,1.047 6.73,5.281 5.687,9.453 -0.781,3.113 -3.375,5.43 -6.55,5.848 l -9.453,1.253 c -9.11,1.207 -15.52,9.567 -14.317,18.684 1,7.523 6.969,13.418 14.5,14.328 8.211,1 16.52,-1.031 23.328,-5.734 l -5.011,-7.274 c -5.047,3.469 -11.176,4.973 -17.258,4.235 -4.27,-0.52 -7.321,-4.407 -6.793,-8.68 0.414,-3.531 3.187,-6.328 6.719,-6.793 l 9.441,-1.258 c 9.121,-1.203 15.523,-9.574 14.316,-18.683 -0.894,-6.77 -5.836,-12.309 -12.457,-13.957 -10.558,-2.649 -21.738,-0.039 -30.043,6.992" /></g></g></svg>