<?xml version="1.0" encoding="UTF-8" standalone="no"?>
<svg
   xmlns:dc="http://purl.org/dc/elements/1.1/"
   xmlns:cc="http://creativecommons.org/ns#"
   xmlns:rdf="http://www.w3.org/1999/02/22-rdf-syntax-ns#"
   xmlns:svg="http://www.w3.org/2000/svg"
   xmlns="http://www.w3.org/2000/svg"
   viewBox="0 0 967.85797 242.214"
   height="242.214"
   width="967.85797"
   xml:space="preserve"
   version="1.1"
   id="svg3997"><metadata
     id="metadata4003"><rdf:RDF><cc:Work
         rdf:about=""><dc:format>image/svg+xml</dc:format><dc:type
           rdf:resource="http://purl.org/dc/dcmitype/StillImage" /><dc:title></dc:title></cc:Work></rdf:RDF></metadata><defs
     id="defs4001"><clipPath
       id="clipPath4015"
       clipPathUnits="userSpaceOnUse"><path
         id="path4017"
         d="M 0,0 774,0 774,194 0,194 0,0 Z" /></clipPath></defs><g
     transform="matrix(1.25,0,0,-1.25,0,242.21401)"
     id="g4005"><g
       id="g4007"><g
         transform="translate(0,-0.22879)"
         id="g4009"><g
           id="g4011"><g
             clip-path="url(#clipPath4015)"
             id="g4013"><g
               id="g4019"><path
                 id="path4021"
                 style="fill:#f0c900;fill-opacity:1;fill-rule:nonzero;stroke:none"
                 d="m 23.227,193.609 c -12.594,0 -22.848,-10.254 -22.848,-22.863 l 0,-147.266 C 0.379,10.875 10.633,0.605 23.227,0.605 l 587.98,0 c 12.145,0 24.121,3.211 34.641,9.29 l 116.629,67.406 c 3.461,2.004 6.359,4.902 8.363,8.375 3.039,5.297 3.851,11.457 2.285,17.355 -1.586,5.899 -5.367,10.828 -10.648,13.883 l -116.629,67.395 c -10.52,6.093 -22.496,9.3 -34.641,9.3 l -587.98,0 z m 308.269,-34.32 c 24.824,0 44.938,-12.437 44.938,-27.777 0,-15.352 -20.114,-27.793 -44.938,-27.793 -24.808,0 -44.922,12.441 -44.922,27.793 0,15.34 20.114,27.777 44.922,27.777 z" /></g></g></g></g><path
         id="path4023"
         style="fill:#000000;fill-opacity:1;fill-rule:nonzero;stroke:none"
         d="m 23.227,187.959 c -9.625,0 -17.426,-7.817 -17.426,-17.442 l 0,-147.265 c 0,-9.637 7.801,-17.438 17.426,-17.438 l 587.98,0 c 11.207,0 22.231,2.953 31.938,8.559 l 116.628,67.406 c 2.637,1.527 4.848,3.727 6.375,6.387 4.805,8.336 1.961,19.008 -6.375,23.812 l -116.628,67.406 c -9.707,5.618 -20.731,8.575 -31.938,8.575 l -587.98,0 z m 0,-9.696 587.98,0 c 9.512,0 18.855,-2.504 27.09,-7.269 L 754.93,103.588 c 3.711,-2.141 4.972,-6.879 2.828,-10.575 -0.672,-1.179 -1.653,-2.171 -2.828,-2.843 L 638.297,22.775 c -8.235,-4.777 -17.578,-7.281 -27.09,-7.281 l -587.98,0 c -4.274,0 -7.75,3.473 -7.75,7.758 l 0,147.265 c 0,4.274 3.476,7.746 7.75,7.746 z" /><path
         id="path4025"
         style="fill:#154889;fill-opacity:1;fill-rule:nonzero;stroke:none"
         d="m 384.363,41.322 -2.437,1.023 c -5.211,2.157 -11.067,2.157 -16.262,0 l -4.891,-2.043 c -5.195,-2.171 -11.05,-2.171 -16.261,0 l -4.875,2.043 c -5.211,2.157 -11.067,2.157 -16.266,0 l -4.887,-2.043 c -5.199,-2.171 -11.054,-2.171 -16.265,0 l -4.875,2.043 c -5.211,2.157 -11.063,2.157 -16.262,0 l -2.437,-1.023 0,5.297 2.437,1.008 c 5.199,2.172 11.051,2.172 16.262,0 l 4.875,-2.032 c 5.211,-2.171 11.066,-2.171 16.265,0 l 4.887,2.032 c 5.199,2.172 11.055,2.172 16.266,0 l 4.875,-2.032 c 5.211,-2.171 11.066,-2.171 16.261,0 l 4.891,2.032 c 5.195,2.172 11.051,2.172 16.262,0 l 2.437,-1.008 0,-5.297 z m 0,-10.574 -2.437,1.008 c -5.211,2.171 -11.067,2.171 -16.262,0 l -4.891,-2.032 c -5.195,-2.172 -11.05,-2.172 -16.261,0 l -4.875,2.032 c -5.211,2.171 -11.067,2.171 -16.266,0 l -4.887,-2.032 c -5.199,-2.172 -11.054,-2.172 -16.265,0 l -4.875,2.032 c -5.211,2.171 -11.063,2.171 -16.262,0 l -2.437,-1.008 0,5.281 2.437,1.023 c 5.199,2.172 11.051,2.172 16.262,0 l 4.875,-2.031 c 5.211,-2.187 11.066,-2.187 16.265,0 l 4.887,2.031 c 5.199,2.172 11.055,2.172 16.266,0 l 4.875,-2.031 c 5.211,-2.187 11.066,-2.187 16.261,0 l 4.891,2.031 c 5.195,2.172 11.051,2.172 16.262,0 l 2.437,-1.023" /><path
         id="path4027"
         style="fill:#000000;fill-opacity:1;fill-rule:nonzero;stroke:none"
         d="m 331.496,165.67 c -29.191,0 -52.851,-15.391 -52.851,-34.387 0,-18.996 23.66,-34.402 52.851,-34.402 29.195,0 52.867,15.406 52.867,34.402 0,18.996 -23.672,34.387 -52.867,34.387 z m 0,-6.61 c 24.824,0 44.938,-12.437 44.938,-27.777 0,-15.352 -20.114,-27.793 -44.938,-27.793 -24.808,0 -44.922,12.441 -44.922,27.793 0,15.34 20.114,27.777 44.922,27.777 z m -52.851,-54.238 0,-15.871 105.718,0 0,15.871 -14.023,0 c -21.57,-14.121 -56.102,-14.121 -77.688,0 l -14.007,0 z m 7.929,-18.535 c -1.457,0 -2.648,-1.176 -2.648,-2.633 l 0,-26.461 c 0,-1.453 1.191,-2.648 2.648,-2.648 l 7.93,0 c 1.453,0 2.644,1.195 2.644,2.648 l 0,26.461 c 0,1.457 -1.191,2.633 -2.644,2.633 l -7.93,0 z m 15.856,0 c -1.457,0 -2.645,-1.176 -2.645,-2.633 l 0,-26.461 c 0,-1.453 1.188,-2.648 2.645,-2.648 l 7.929,0 c 1.457,0 2.649,1.195 2.649,2.648 l 0,7.285 c 0,1.457 1.176,2.633 2.633,2.633 l 5.027,0 c 1.359,0 2.664,-0.516 3.644,-1.457 l 1.723,-1.637 c 3.051,-2.914 7.871,-2.914 10.938,0 l 1.726,1.637 c 0.981,0.941 2.281,1.457 3.641,1.457 l 5.015,0 c 1.469,0 2.649,-1.176 2.649,-2.633 l 0,-7.285 c 0,-1.453 1.187,-2.648 2.644,-2.648 l 7.93,0 c 1.457,0 2.633,1.195 2.633,2.648 l 0,26.461 c 0,1.457 -1.176,2.633 -2.633,2.633 l -7.93,0 c -1.457,0 -2.644,-1.176 -2.644,-2.633 l 0,-7.281 c 0,-1.457 -1.18,-2.633 -2.649,-2.633 l -5.015,0 c -1.36,0 -2.66,0.516 -3.641,1.441 l -1.726,1.653 c -3.067,2.929 -7.887,2.929 -10.938,0 l -1.723,-1.653 c -0.98,-0.925 -2.285,-1.441 -3.644,-1.441 l -5.027,0 c -1.457,0 -2.633,1.176 -2.633,2.633 l 0,7.281 c 0,1.457 -1.192,2.633 -2.649,2.633 l -7.929,0 z m 66.074,0 c -1.457,0 -2.645,-1.176 -2.645,-2.633 l 0,-26.461 c 0,-1.453 1.188,-2.648 2.645,-2.648 l 7.93,0 c 1.457,0 2.632,1.195 2.632,2.648 l 0,26.461 c 0,1.457 -1.175,2.633 -2.632,2.633 l -7.93,0 z" /><path
         id="path4029"
         style="fill:#ec7c25;fill-opacity:1;fill-rule:nonzero;stroke:none"
         d="m 286.574,131.283 c 0,15.34 20.114,27.777 44.922,27.777 24.824,0 44.938,-12.437 44.938,-27.777 0,-15.352 -20.114,-27.793 -44.938,-27.793 -24.808,0 -44.922,12.441 -44.922,27.793" /></g></g></svg>