<?xml version="1.0" encoding="UTF-8" standalone="no"?>
<svg
   xmlns:dc="http://purl.org/dc/elements/1.1/"
   xmlns:cc="http://creativecommons.org/ns#"
   xmlns:rdf="http://www.w3.org/1999/02/22-rdf-syntax-ns#"
   xmlns:svg="http://www.w3.org/2000/svg"
   xmlns="http://www.w3.org/2000/svg"
   viewBox="0 0 1400.002 350"
   height="350"
   width="1400.002"
   xml:space="preserve"
   version="1.1"
   id="svg6171"><metadata
     id="metadata6177"><rdf:RDF><cc:Work
         rdf:about=""><dc:format>image/svg+xml</dc:format><dc:type
           rdf:resource="http://purl.org/dc/dcmitype/StillImage" /><dc:title></dc:title></cc:Work></rdf:RDF></metadata><defs
     id="defs6175" /><g
     transform="matrix(1.25,0,0,-1.25,0,350)"
     id="g6179"><g
       id="g6181"><path
         id="path6183"
         style="fill:#f0c900;fill-opacity:1;fill-rule:evenodd;stroke:none"
         d="m 236.273,280 c -17.558,0 -34.984,-4.672 -50.296,-13.516 L 16.586,168.703 C 6.363,162.793 0,151.793 0,139.922 0,128.18 6.363,117.219 16.586,111.277 L 185.977,13.465 C 201.289,4.613 218.586,0 236.273,0 L 1082,0 c 20.988,0 38,17.012 38,38 l 0,204 c 0,20.988 -17.012,38 -38,38 l -845.727,0 z" /><path
         id="path6185"
         style="fill:#000000;fill-opacity:1;fill-rule:evenodd;stroke:none"
         d="m 236.223,268.004 c -15.731,0 -31.211,-4.152 -44.895,-12.031 L 27.168,161.215 c -10.254,-5.973 -15.473,-12.5 -15.473,-21.301 0,-8.691 5.207,-15.25 15.473,-21.226 l 164.16,-94.786 c 13.684,-7.8 29.164,-11.898 44.895,-11.898 l 839.472,0 c 17.672,0 32,14.328 32,32 l 0,192 c 0,17.676 -14.328,32 -32,32 l -839.472,0 z" /><path
         id="path6187"
         style="fill:#f0c900;fill-opacity:1;fill-rule:evenodd;stroke:none"
         d="m 640.434,252.012 c -142.133,0 -278.996,-0.008 -404.211,-0.008 -13.43,0 -26.477,-3.754 -38.118,-10.434 L 36.344,148.117 c -3.391,-1.929 -8.645,-4.234 -8.645,-8.203 0,-3.832 5.254,-6.133 8.645,-8.055 L 198.105,38.48 c 11.641,-6.781 24.688,-10.472 38.118,-10.472 l 839.472,0 c 8.836,0 16,7.16 16,15.996 l 0,192 c -0.011,8.605 -6.914,15.93 -15.422,15.973 -146.3,0.027 -293.707,0.035 -435.839,0.035 z" /><path
         id="path6189"
         style="fill:#000000;fill-opacity:1;fill-rule:evenodd;stroke:none"
         d="m 209.438,109.691 0,61.293 c 0,7.387 5.984,13.391 13.441,13.391 l 126.344,0 c 7.32,0 13.308,-6.004 13.308,-13.391 l 0,-61.293 c 0,-7.32 -5.988,-13.316 -13.308,-13.316 l -126.344,0 c -7.457,0 -13.441,5.996 -13.441,13.316" /><path
         id="path6191"
         style="fill:#f0c900;fill-opacity:1;fill-rule:evenodd;stroke:none"
         d="m 215.293,109.691 0,61.293 c 0,4.231 3.328,7.668 7.586,7.668 l 126.344,0 c 4.257,0 7.586,-3.437 7.586,-7.668 l 0,-61.293 c 0,-4.128 -3.329,-7.589 -7.586,-7.589 l -126.344,0 c -4.258,0 -7.586,3.461 -7.586,7.589" /><path
         id="path6193"
         style="fill:#000000;fill-opacity:1;fill-rule:evenodd;stroke:none"
         d="m 325.66,120.742 c 4.524,0 8.117,3.59 8.117,8.117 l 0,0.938 c 0,4.523 -3.593,8.121 -8.117,8.121 l -3.469,0 0,6.781 3.469,0 c 4.129,0 7.582,3.332 7.582,7.621 0,4.231 -3.453,7.649 -7.582,7.649 -3.734,0 -6.926,-2.606 -7.597,-6.211 l -7.719,0 c 0.797,7.851 7.324,13.883 15.316,13.883 8.383,0 15.305,-6.86 15.305,-15.321 0,-4.422 -2.133,-8.418 -5.723,-10.949 3.86,-2.527 6.121,-6.922 6.121,-11.574 l 0,-0.938 c 0,-8.652 -7.05,-15.839 -15.703,-15.839 -7.992,0 -14.785,5.992 -15.715,13.972 l 7.723,0 c 0.934,-3.722 4.258,-6.25 7.992,-6.25 m -72.027,31.578 c 0,4.231 -3.457,7.649 -7.723,7.649 -4.125,0 -7.586,-3.418 -7.586,-7.649 l -7.722,0 c 0,8.461 6.925,15.321 15.308,15.321 8.52,0 15.309,-6.86 15.309,-15.321 0,-3.48 -1.063,-6.82 -3.328,-9.48 l -17.176,-21.567 20.504,0 0,-7.722 -30.617,0 0,7.191 21.304,26.891 c 1.067,1.258 1.727,2.972 1.727,4.687 z" /><path
         id="path6195"
         style="fill:#000000;fill-opacity:1;fill-rule:evenodd;stroke:none"
         d="m 293.703,152.32 c 0,4.231 -3.457,7.649 -7.723,7.649 -4.125,0 -7.585,-3.418 -7.585,-7.649 l -7.719,0 c 0,8.461 6.922,15.321 15.304,15.321 8.524,0 15.309,-6.86 15.309,-15.321 0,-3.48 -1.062,-6.82 -3.324,-9.48 l -17.18,-21.567 20.504,0 0,-7.722 -30.613,0 0,7.191 21.301,26.891 c 1.07,1.258 1.726,2.972 1.726,4.687 z" /><path
         id="path6197"
         style="fill:#000000;fill-opacity:1;fill-rule:evenodd;stroke:none"
         d="m 874.316,180.461 c 0,-10.613 8.602,-19.215 19.207,-19.215 10.602,0 19.204,8.602 19.204,19.215 0,5.644 -2.825,10.973 -7.422,14.246 3.89,3.102 6.242,7.836 6.242,12.852 0,9.961 -8.129,18.054 -18.024,18.054 -10.015,0 -18.148,-8.093 -18.148,-18.054 0,-5.016 2.359,-9.75 6.246,-12.852 -4.594,-3.273 -7.305,-8.602 -7.305,-14.246 m 19.207,-10.184 c -5.656,0 -10.253,4.551 -10.253,10.184 0,5.598 4.597,10.133 10.253,10.133 5.532,0 10.133,-4.535 10.133,-10.133 0,-5.633 -4.601,-10.184 -10.133,-10.184 z m 0,28.231 c -5.07,0 -9.074,4.07 -9.074,9.051 0,4.976 4.004,9.039 9.074,9.039 4.946,0 8.954,-4.063 8.954,-9.039 0,-4.981 -4.008,-9.051 -8.954,-9.051 z m -38.414,9.051 c 0,4.976 -4.007,9.039 -9.074,9.039 -4.949,0 -8.953,-4.063 -8.953,-9.039 l -9.074,0 c 0,9.961 8.129,18.054 18.027,18.054 10.016,0 18.145,-8.093 18.145,-18.054 0,-4.118 -1.41,-8.094 -4.004,-11.286 l -20.383,-25.425 24.387,0 0,-9.039 -36.172,0 0,8.468 25.097,31.661 c 1.293,1.57 2.004,3.562 2.004,5.621 z" /><path
         id="path6199"
         style="fill:#000000;fill-opacity:1;fill-rule:evenodd;stroke:none"
         d="m 871.371,73.332 21.82,46.512 10.309,0 -21.816,-46.031 16.656,0 0,18.46 9.113,0 0,-18.46 5.274,0 0,-8.629 -5.274,0 0,-9.707 -9.113,0 0,9.707 -26.969,0 m -32.242,47.707 9.23,6.953 9.231,0 0,-64.367 -9.231,0 0,54.535 -9.23,-6.828 0,9.707 z" /><path
         id="path6201"
         style="fill:#000000;fill-opacity:1;fill-rule:evenodd;stroke:none"
         d="m 978.859,191.703 c 2.239,2.688 5.418,4.231 8.84,4.231 3.653,0 7.067,-1.723 9.188,-4.621 2.355,2.921 6.011,4.621 9.781,4.621 6.949,0 12.605,-5.657 12.605,-12.618 l 0,-21.507 -6.714,0 0,20.644 c 0,3.711 -2.946,6.723 -6.715,6.723 -3.774,0 -6.723,-3.012 -6.723,-6.723 l 0,-20.644 -6.828,0 0,20.644 c 0,3.711 -2.945,6.723 -6.719,6.723 -3.652,0 -6.715,-3.012 -6.715,-6.723 l 0,-20.644 -6.718,0 0,33.711 6.718,0 m -42.07,13.476 6.723,0 0,-29.476 13.078,16 7.89,0 -11.308,-13.067 13.078,-20.644 -8.367,0 -8.953,15.586 -5.418,-5.903 0,-9.683 -6.723,0 0,47.187 z" /><path
         id="path6203"
         style="fill:#000000;fill-opacity:1;fill-rule:evenodd;stroke:none"
         d="m 978.91,87.281 c 2.242,2.59 5.426,4.125 8.848,4.125 3.66,0 7.082,-1.648 9.199,-4.597 2.363,2.949 6.02,4.597 9.797,4.597 6.957,0 12.617,-5.664 12.617,-12.621 l 0,-21.469 -6.719,0 0,20.645 c 0,3.773 -2.949,6.723 -6.726,6.723 -3.778,0 -6.727,-2.95 -6.727,-6.723 l 0,-20.645 -6.836,0 0,20.645 c 0,3.773 -2.949,6.723 -6.73,6.723 -3.656,0 -6.723,-2.95 -6.723,-6.723 l 0,-20.645 -6.726,0 0,33.739 6.726,0 m -42.121,13.449 6.731,0 0,-29.492 13.093,16.043 7.903,0 -11.325,-13.094 13.094,-20.645 -8.379,0 -8.961,15.571 -5.425,-5.899 0,-9.672 -6.731,0 0,47.188 z" /><path
         id="path6205"
         style="fill:#000000;fill-opacity:1;fill-rule:nonzero;stroke:none"
         d="m 422.957,120.191 24.555,0 c 4.89,0 7.277,-0.476 10.133,-1.91 5.605,-2.98 9.062,-9.054 9.062,-15.492 0,-5.605 -2.387,-10.012 -7.391,-13.945 5.36,-3.219 8.579,-8.942 8.579,-15.141 0,-6.558 -3.575,-12.519 -9.055,-15.613 -3.102,-1.672 -5.844,-2.266 -10.852,-2.266 l -25.031,0 m 24.793,37.43 c 5.723,0 9.777,3.93 9.777,9.18 0,5.48 -4.172,9.296 -9.89,9.296 l -15.024,0 0,-18.476 15.137,0 z m 0.125,-28.133 c 6.551,0 10.727,3.695 10.727,9.777 0,3.696 -2.028,7.032 -5.129,8.579 -1.43,0.839 -2.981,1.078 -5.485,1.078 l -15.375,0 0,-19.434 15.262,0 z" /><path
         id="path6207"
         style="fill:#000000;fill-opacity:1;fill-rule:nonzero;stroke:none"
         d="m 475.266,78.238 c 0,-4.886 0.363,-8.582 1.097,-11.086 0.793,-2.441 2.106,-4.703 3.938,-6.777 1.527,-1.711 3.422,-3.145 5.679,-4.305 2.321,-1.101 5.133,-1.648 8.43,-1.648 3.297,0 6.074,0.547 8.336,1.648 2.32,1.16 4.242,2.594 5.77,4.305 1.832,2.074 3.113,4.336 3.847,6.777 0.793,2.504 1.192,6.2 1.192,11.086 0,4.825 -0.399,8.457 -1.192,10.899 -0.734,2.504 -2.015,4.793 -3.847,6.871 -1.528,1.711 -3.45,3.113 -5.77,4.215 -2.262,1.16 -5.039,1.738 -8.336,1.738 -3.297,0 -6.109,-0.578 -8.43,-1.738 -2.257,-1.102 -4.152,-2.504 -5.679,-4.215 -1.832,-2.078 -3.145,-4.367 -3.938,-6.871 -0.734,-2.442 -1.097,-6.074 -1.097,-10.899 z m 28.945,-0.093 c 0,-3.235 -0.152,-5.555 -0.457,-6.961 -0.305,-1.407 -0.918,-2.75 -1.832,-4.032 -0.734,-0.976 -1.774,-1.8 -3.117,-2.472 -1.344,-0.61 -2.809,-0.918 -4.395,-0.918 -1.527,0 -2.992,0.308 -4.398,0.918 -1.344,0.672 -2.383,1.496 -3.114,2.472 -0.918,1.282 -1.527,2.625 -1.832,4.032 -0.304,1.406 -0.457,3.754 -0.457,7.054 0,3.235 0.153,5.555 0.457,6.961 0.305,1.403 0.914,2.746 1.832,4.031 0.731,0.977 1.77,1.77 3.114,2.379 1.406,0.672 2.871,1.008 4.398,1.008 1.586,0 3.051,-0.336 4.395,-1.008 1.343,-0.609 2.383,-1.402 3.117,-2.379 0.914,-1.285 1.527,-2.628 1.832,-4.031 0.305,-1.406 0.457,-3.758 0.457,-7.054 z" /><path
         id="path6209"
         style="fill:#000000;fill-opacity:1;fill-rule:nonzero;stroke:none"
         d="m 523.746,101.414 -4.672,0 0,-7.148 4.672,0 0,-27.844 c 0,-3.606 1.039,-6.414 3.113,-8.43 2.079,-2.015 4.793,-3.023 8.153,-3.023 l 4.855,0 0,8.793 -3.48,0 c -2.199,0 -3.297,1.16 -3.297,3.484 l 0,27.02 6.777,0 0,7.148 -6.777,0 0,14.106 -9.344,0 0,-14.106 z" /><path
         id="path6211"
         style="fill:#000000;fill-opacity:1;fill-rule:nonzero;stroke:none"
         d="m 550.992,101.414 -4.672,0 0,-7.148 4.672,0 0,-27.844 c 0,-3.606 1.039,-6.414 3.113,-8.43 2.079,-2.015 4.793,-3.023 8.153,-3.023 l 4.855,0 0,8.793 -3.48,0 c -2.199,0 -3.297,1.16 -3.297,3.484 l 0,27.02 6.777,0 0,7.148 -6.777,0 0,14.106 -9.344,0 0,-14.106 z" /><path
         id="path6213"
         style="fill:#000000;fill-opacity:1;fill-rule:nonzero;stroke:none"
         d="m 576.406,54.969 9.344,0 0,27.941 c 0,3.176 0.887,5.586 2.656,7.235 1.77,1.648 3.91,2.472 6.414,2.472 1.16,0 2.196,-0.183 3.114,-0.547 0.914,-0.308 1.921,-0.886 3.023,-1.742 l 6.777,8.063 c -3.054,2.379 -6.289,3.57 -9.711,3.57 -5.128,0 -9.16,-1.832 -12.089,-5.496 l -0.184,0 0,4.949 -9.344,0 0,-46.445 z" /><path
         id="path6215"
         style="fill:#000000;fill-opacity:1;fill-rule:nonzero;stroke:none"
         d="m 611.016,78.238 c 0,-4.886 0.367,-8.582 1.101,-11.086 0.793,-2.441 2.106,-4.703 3.938,-6.777 1.527,-1.711 3.418,-3.145 5.679,-4.305 2.321,-1.101 5.129,-1.648 8.426,-1.648 3.297,0 6.078,0.547 8.336,1.648 2.32,1.16 4.246,2.594 5.774,4.305 1.832,2.074 3.113,4.336 3.847,6.777 0.793,2.504 1.188,6.2 1.188,11.086 0,4.825 -0.395,8.457 -1.188,10.899 -0.734,2.504 -2.015,4.793 -3.847,6.871 -1.528,1.711 -3.454,3.113 -5.774,4.215 -2.258,1.16 -5.039,1.738 -8.336,1.738 -3.297,0 -6.105,-0.578 -8.426,-1.738 -2.261,-1.102 -4.152,-2.504 -5.679,-4.215 -1.832,-2.078 -3.145,-4.367 -3.938,-6.871 -0.734,-2.442 -1.101,-6.074 -1.101,-10.899 z m 28.945,-0.093 c 0,-3.235 -0.152,-5.555 -0.457,-6.961 -0.305,-1.407 -0.914,-2.75 -1.832,-4.032 -0.731,-0.976 -1.77,-1.8 -3.113,-2.472 -1.344,-0.61 -2.809,-0.918 -4.399,-0.918 -1.527,0 -2.992,0.308 -4.394,0.918 -1.344,0.672 -2.383,1.496 -3.118,2.472 -0.914,1.282 -1.527,2.625 -1.832,4.032 -0.304,1.406 -0.457,3.754 -0.457,7.054 0,3.235 0.153,5.555 0.457,6.961 0.305,1.403 0.918,2.746 1.832,4.031 0.735,0.977 1.774,1.77 3.118,2.379 1.402,0.672 2.867,1.008 4.394,1.008 1.59,0 3.055,-0.336 4.399,-1.008 1.343,-0.609 2.382,-1.402 3.113,-2.379 0.918,-1.285 1.527,-2.628 1.832,-4.031 0.305,-1.406 0.457,-3.758 0.457,-7.054 z" /><path
         id="path6217"
         style="fill:#000000;fill-opacity:1;fill-rule:nonzero;stroke:none"
         d="m 658.652,36.191 9.344,0 0,23.727 c 1.891,-1.773 3.785,-3.148 5.68,-4.125 1.953,-0.914 4.058,-1.371 6.32,-1.371 2.688,0 5.067,0.547 7.145,1.648 2.136,1.098 3.906,2.563 5.312,4.395 0.672,0.855 1.223,1.711 1.649,2.566 0.429,0.914 0.765,2.016 1.007,3.297 0.246,1.281 0.399,2.84 0.457,4.672 0.125,1.895 0.184,4.273 0.184,7.145 0,2.933 -0.059,5.343 -0.184,7.238 -0.058,1.89 -0.211,3.449 -0.457,4.672 -0.242,1.218 -0.578,2.289 -1.007,3.203 -0.426,0.918 -0.977,1.805 -1.649,2.66 -1.406,1.832 -3.176,3.297 -5.312,4.395 -2.078,1.101 -4.457,1.648 -7.145,1.648 -2.32,0 -4.519,-0.488 -6.598,-1.465 -2.074,-0.976 -3.875,-2.289 -5.402,-3.937 l 0,4.855 -9.344,0 0,-65.223 z m 18.504,27.571 c -2.078,0 -3.758,0.398 -5.039,1.191 -1.222,0.856 -2.137,1.957 -2.746,3.301 -0.551,1.34 -0.918,2.809 -1.101,4.394 -0.184,1.59 -0.274,3.422 -0.274,5.497 0,2.136 0.09,4 0.274,5.589 0.183,1.586 0.55,3.051 1.101,4.395 0.609,1.344 1.524,2.414 2.746,3.207 1.281,0.855 2.961,1.281 5.039,1.281 2.074,0 3.754,-0.394 5.039,-1.191 1.282,-0.731 2.196,-1.77 2.746,-3.113 0.61,-1.344 1.008,-2.809 1.192,-4.395 0.183,-1.59 0.273,-3.512 0.273,-5.773 0,-2.2 -0.09,-4.09 -0.273,-5.68 -0.184,-1.586 -0.582,-3.051 -1.192,-4.395 -0.55,-1.285 -1.464,-2.32 -2.746,-3.117 -1.285,-0.793 -2.965,-1.191 -5.039,-1.191 z" /><path
         id="path6219"
         style="fill:#000000;fill-opacity:1;fill-rule:nonzero;stroke:none"
         d="m 422.957,161.398 21.695,0 c 4.485,0 8.399,0.954 11.746,2.868 3.407,1.972 6.125,4.543 8.157,7.711 0.836,1.253 1.465,2.39 1.883,3.406 0.417,1.015 0.746,2.211 0.984,3.586 0.242,1.433 0.422,3.285 0.539,5.558 0.121,2.328 0.18,5.258 0.18,8.786 0,3.644 -0.032,6.453 -0.09,8.425 -0.059,2.032 -0.207,3.735 -0.449,5.11 -0.18,1.433 -0.508,2.718 -0.985,3.855 -0.418,1.137 -1.047,2.391 -1.883,3.766 -2.031,3.465 -4.722,6.125 -8.07,7.976 -3.344,1.856 -7.141,2.782 -11.383,2.782 l -22.324,0 0,-63.829 z m 9.684,54.684 11.562,0 c 2.692,0 4.902,-0.418 6.637,-1.254 1.73,-0.777 3.316,-2.152 4.75,-4.125 0.656,-0.894 1.164,-1.793 1.523,-2.687 0.418,-0.899 0.719,-1.973 0.899,-3.231 0.179,-1.195 0.297,-2.687 0.355,-4.48 0.063,-1.793 0.09,-4.242 0.09,-7.352 0,-3.168 -0.027,-5.648 -0.09,-7.441 -0.058,-1.793 -0.176,-3.227 -0.355,-4.301 -0.121,-1.02 -0.328,-1.914 -0.629,-2.691 -0.297,-0.719 -0.746,-1.524 -1.344,-2.422 -2.512,-3.703 -6.457,-5.559 -11.836,-5.559 l -11.562,0 0,45.543 z" /><path
         id="path6221"
         style="fill:#000000;fill-opacity:1;fill-rule:nonzero;stroke:none"
         d="m 479.711,184.168 c 0,-4.781 0.359,-8.398 1.078,-10.848 0.774,-2.39 2.059,-4.601 3.852,-6.632 1.496,-1.676 3.347,-3.079 5.558,-4.215 2.274,-1.075 5.024,-1.614 8.25,-1.614 3.227,0 5.946,0.539 8.156,1.614 2.274,1.136 4.153,2.539 5.649,4.215 1.793,2.031 3.047,4.242 3.766,6.632 0.777,2.45 1.164,6.067 1.164,10.848 0,4.723 -0.387,8.277 -1.164,10.668 -0.719,2.449 -1.973,4.691 -3.766,6.723 -1.496,1.675 -3.375,3.046 -5.649,4.125 -2.21,1.136 -4.929,1.703 -8.156,1.703 -3.226,0 -5.976,-0.567 -8.25,-1.703 -2.211,-1.079 -4.062,-2.45 -5.558,-4.125 -1.793,-2.032 -3.078,-4.274 -3.852,-6.723 -0.719,-2.391 -1.078,-5.945 -1.078,-10.668 z m 28.328,-0.09 c 0,-3.168 -0.148,-5.437 -0.445,-6.812 -0.301,-1.375 -0.899,-2.692 -1.793,-3.946 -0.719,-0.957 -1.735,-1.761 -3.051,-2.422 -1.312,-0.597 -2.746,-0.894 -4.301,-0.894 -1.496,0 -2.929,0.297 -4.304,0.894 -1.313,0.661 -2.332,1.465 -3.047,2.422 -0.899,1.254 -1.496,2.571 -1.793,3.946 -0.301,1.375 -0.45,3.675 -0.45,6.902 0,3.168 0.149,5.437 0.45,6.812 0.297,1.375 0.894,2.692 1.793,3.946 0.715,0.957 1.734,1.734 3.047,2.332 1.375,0.656 2.808,0.984 4.304,0.984 1.555,0 2.989,-0.328 4.301,-0.984 1.316,-0.598 2.332,-1.375 3.051,-2.332 0.894,-1.254 1.492,-2.571 1.793,-3.946 0.297,-1.375 0.445,-3.675 0.445,-6.902 z" /><path
         id="path6223"
         style="fill:#000000;fill-opacity:1;fill-rule:nonzero;stroke:none"
         d="m 529.656,161.398 9.145,0 0,27.34 c 0,3.11 0.867,5.469 2.597,7.082 1.735,1.614 3.829,2.422 6.278,2.422 1.137,0 2.152,-0.179 3.047,-0.539 0.898,-0.297 1.882,-0.867 2.961,-1.703 l 6.632,7.891 c -2.988,2.332 -6.156,3.496 -9.503,3.496 -5.02,0 -8.965,-1.793 -11.833,-5.379 l -0.179,0 0,4.84 -9.145,0 0,-45.45 z" /><path
         id="path6225"
         style="fill:#000000;fill-opacity:1;fill-rule:nonzero;stroke:none"
         d="m 563.16,169.016 c 5.797,-5.438 12.461,-8.157 19.992,-8.157 5.438,0 9.922,1.254 13.446,3.766 3.586,2.508 5.379,5.914 5.379,10.219 0,3.886 -1.075,7.051 -3.227,9.504 -2.152,2.449 -5.469,3.824 -9.949,4.121 l -7.531,0.539 c -2.153,0.18 -3.707,0.656 -4.661,1.433 -0.898,0.778 -1.347,1.735 -1.347,2.872 0,1.671 0.597,2.988 1.793,3.945 1.258,1.015 3.258,1.523 6.008,1.523 2.332,0 4.453,-0.359 6.363,-1.078 1.914,-0.715 3.855,-1.762 5.828,-3.137 l 5.648,6.633 c -2.39,2.035 -5.019,3.559 -7.89,4.574 -2.867,1.075 -6.184,1.614 -9.949,1.614 -4.961,0 -9.024,-1.227 -12.192,-3.676 -3.168,-2.391 -4.754,-5.828 -4.754,-10.309 0,-3.765 1.196,-6.785 3.586,-9.054 2.453,-2.274 5.621,-3.559 9.504,-3.856 l 8.07,-0.719 c 1.731,-0.117 3.078,-0.535 4.032,-1.253 1.015,-0.657 1.523,-1.735 1.523,-3.227 0,-1.852 -0.836,-3.289 -2.508,-4.305 -1.613,-1.015 -3.765,-1.523 -6.453,-1.523 -2.988,0 -5.621,0.476 -7.891,1.433 -2.269,0.957 -4.421,2.422 -6.453,4.395 l -6.367,-6.277 z" /><path
         id="path6227"
         style="fill:#000000;fill-opacity:1;fill-rule:nonzero;stroke:none"
         d="m 614.832,206.848 -4.574,0 0,-6.993 4.574,0 0,-27.253 c 0,-3.524 1.016,-6.274 3.047,-8.247 2.031,-1.972 4.691,-2.957 7.98,-2.957 l 4.75,0 0,8.606 -3.406,0 c -2.152,0 -3.226,1.133 -3.226,3.406 l 0,26.445 6.632,0 0,6.993 -6.632,0 0,13.804 -9.145,0 0,-13.804 z" /><path
         id="path6229"
         style="fill:#000000;fill-opacity:1;fill-rule:nonzero;stroke:none"
         d="m 677.828,180.672 0,7.531 c 0,2.867 -0.508,5.469 -1.523,7.797 -0.957,2.391 -2.301,4.422 -4.035,6.098 -1.731,1.734 -3.735,3.047 -6.004,3.945 -2.274,0.895 -4.664,1.344 -7.172,1.344 -2.332,0 -4.606,-0.418 -6.817,-1.254 -2.211,-0.84 -4.211,-2.184 -6.004,-4.035 -1.793,-1.793 -3.226,-4.215 -4.304,-7.262 -1.074,-3.047 -1.614,-6.664 -1.614,-10.848 0,-4.484 0.567,-8.246 1.704,-11.297 1.195,-2.988 2.75,-5.347 4.66,-7.082 1.972,-1.73 4.125,-2.957 6.457,-3.675 2.39,-0.715 4.84,-1.075 7.351,-1.075 3.168,0 6.157,0.598 8.965,1.793 2.809,1.196 5.289,3.047 7.442,5.559 l -6.637,5.648 c -1.313,-1.375 -2.867,-2.453 -4.66,-3.23 -1.735,-0.774 -3.496,-1.164 -5.289,-1.164 -3.227,0 -5.86,0.957 -7.891,2.867 -1.973,1.973 -2.957,4.754 -2.957,8.34 l 28.328,0 z m -28.328,7.531 c 0.121,3.344 1.047,5.945 2.777,7.797 1.793,1.855 4.067,2.781 6.817,2.781 2.746,0 4.988,-0.926 6.722,-2.781 1.793,-1.852 2.75,-4.453 2.868,-7.797 l -19.184,0 z" /><path
         id="path6231"
         style="fill:#000000;fill-opacity:1;fill-rule:nonzero;stroke:none"
         d="m 690.379,161.398 9.144,0 0,27.071 c 0,3.051 0.84,5.441 2.512,7.172 1.735,1.734 3.914,2.601 6.543,2.601 2.629,0 4.781,-0.867 6.457,-2.601 1.672,-1.731 2.508,-4.121 2.508,-7.172 l 0,-27.071 9.145,0 0,30.211 c 0,2.508 -0.45,4.75 -1.344,6.723 -0.836,1.973 -2.004,3.617 -3.496,4.93 -1.496,1.375 -3.137,2.39 -4.93,3.047 -1.793,0.718 -3.586,1.078 -5.379,1.078 -5.023,0 -8.965,-1.793 -11.836,-5.379 l -0.18,0 0,4.84 -9.144,0 0,-45.45 z" /></g></g></svg>