<?xml version="1.0" encoding="UTF-8" standalone="no"?>
<svg
   xmlns:dc="http://purl.org/dc/elements/1.1/"
   xmlns:cc="http://creativecommons.org/ns#"
   xmlns:rdf="http://www.w3.org/1999/02/22-rdf-syntax-ns#"
   xmlns:svg="http://www.w3.org/2000/svg"
   xmlns="http://www.w3.org/2000/svg"
   viewBox="0 0 1749.9998 450"
   height="450"
   width="1749.9998"
   xml:space="preserve"
   version="1.1"
   id="svg7087"><metadata
     id="metadata7093"><rdf:RDF><cc:Work
         rdf:about=""><dc:format>image/svg+xml</dc:format><dc:type
           rdf:resource="http://purl.org/dc/dcmitype/StillImage" /><dc:title></dc:title></cc:Work></rdf:RDF></metadata><defs
     id="defs7091" /><g
     transform="matrix(1.25,0,0,-1.25,0,450)"
     id="g7095"><g
       id="g7097"><path
         id="path7099"
         style="fill:#f0c900;fill-opacity:1;fill-rule:evenodd;stroke:none"
         d="m 1096.219,360 c 22.574,0 44.98,-6.008 64.668,-17.379 l 217.789,-125.719 c 13.144,-7.597 21.324,-21.738 21.324,-37.004 0,-15.093 -8.18,-29.187 -21.324,-36.828 L 1160.887,17.313 C 1141.199,5.93 1118.961,0 1096.219,0 L 48.855,0 C 21.871,0 0,21.871 0,48.855 l 0,262.29 C 0,338.129 21.871,360 48.855,360 l 1047.364,0 z" /><path
         id="path7101"
         style="fill:#000000;fill-opacity:1;fill-rule:evenodd;stroke:none"
         d="m 1096.285,347.996 c 20.223,0 36.528,-3.019 54.121,-13.152 l 220.801,-127.465 c 22.359,-12.996 22.359,-41.883 0,-54.816 L 1150.406,25.141 c -17.593,-10.032 -33.898,-13.137 -54.121,-13.137 l -1043.14,0 c -22.719,0 -41.141,18.422 -41.141,41.141 l 0,253.71 c 0,22.727 18.422,41.141 41.141,41.141 l 1043.14,0 z" /><path
         id="path7103"
         style="fill:#f0c900;fill-opacity:1;fill-rule:evenodd;stroke:none"
         d="m 576.582,332 c 182.75,0 358.719,-0.012 519.715,-0.012 17.269,0 31.086,-2.347 46.051,-10.937 l 213.988,-123.578 c 4.359,-2.481 15.684,-8.094 15.684,-17.586 0,-9.489 -11.325,-14.938 -15.684,-17.41 L 1142.348,38.984 C 1127.383,30.266 1113.566,28 1096.297,28 L 48.551,28 C 37.191,28 27.98,37.207 27.98,48.566 l 0,262.852 c 0.012,11.062 8.887,20.48 19.829,20.535 188.105,0.035 346.027,0.047 528.773,0.047 z" /><path
         id="path7105"
         style="fill:#000000;fill-opacity:1;fill-rule:evenodd;stroke:none"
         d="m 596.375,288.305 12.418,0 0,-12.438 -12.418,0 0,12.438 z m 0,-24.871 12.418,0 0,-62.172 -12.418,0 0,62.172 z M 553.68,251.77 c -7.309,0 -13.207,-5.911 -13.207,-13.207 l 26.394,0 c 0,7.296 -5.894,13.207 -13.187,13.207 z m -4.914,-37.899 c 2.074,-0.824 4.269,-1.246 6.468,-1.246 5.071,0 9.887,2.219 13.18,6.035 l 9.441,-8.062 c -5.667,-6.614 -13.933,-10.41 -22.621,-10.41 -3.796,0 -7.57,0.726 -11.093,2.125 -9.735,3.917 -16.075,13.328 -16.075,23.82 l 0,12.43 c 0,14.179 11.457,25.644 25.614,25.644 14.136,0 25.625,-11.465 25.625,-25.644 l 0,-10.887 -38.832,0 0,-1.543 c 0,-5.399 3.3,-10.266 8.293,-12.262 z m -75.059,74.434 0,-31.891 c 3.973,4.922 9.961,7.793 16.305,7.793 11.586,0 20.953,-9.387 20.953,-21.004 l 0,-41.941 -12.418,0 0,38.078 c 0,6.867 -5.563,12.43 -12.406,12.43 -6.895,0 -12.434,-5.563 -12.434,-12.43 l 0,-38.078 -12.437,0 0,87.043 12.437,0 z M 415.078,239.34 c -3.265,0.223 -5.812,2.945 -5.812,6.219 0,2.867 1.968,5.367 4.769,6.035 1.996,0.504 4.047,0.726 6.113,0.726 5.918,0 11.688,-1.992 16.305,-5.718 l 7.766,9.714 c -6.836,5.473 -15.332,8.438 -24.071,8.438 -3.043,0 -6.066,-0.348 -9.011,-1.043 -8.391,-2.027 -14.282,-9.539 -14.282,-18.152 0,-9.84 7.641,-18.008 17.477,-18.606 l 13.184,-0.848 c 3.273,-0.203 5.82,-2.917 5.82,-6.191 0,-2.598 -1.602,-4.922 -4.027,-5.82 -2.914,-1.094 -6.036,-1.672 -9.161,-1.672 -6.914,0 -13.531,2.75 -18.402,7.617 l -8.762,-8.812 c 7.215,-7.196 16.977,-11.243 27.164,-11.243 4.625,0 9.192,0.832 13.508,2.454 7.289,2.742 12.114,9.683 12.114,17.476 0,9.84 -7.665,18 -17.485,18.606 l -13.207,0.82 z m -60.144,12.43 c -7.289,0 -13.188,-5.911 -13.188,-13.207 l 26.367,0 c 0,7.296 -5.918,13.207 -13.179,13.207 z m -4.895,-37.899 c 2.047,-0.824 4.219,-1.246 6.441,-1.246 5.071,0 9.887,2.219 13.18,6.035 l 9.414,-8.062 c -5.64,-6.614 -13.906,-10.41 -22.594,-10.41 -3.796,0 -7.539,0.726 -11.066,2.125 -9.734,3.917 -16.101,13.328 -16.101,23.82 l 0,12.43 c 0,14.179 11.46,25.644 25.621,25.644 14.156,0 25.617,-11.465 25.617,-25.644 l 0,-10.887 -38.805,0 0,-1.543 c 0,-5.399 3.274,-10.266 8.293,-12.262 z m -75.078,25.469 c 0,6.867 5.562,12.43 12.406,12.43 6.895,0 12.434,-5.563 12.434,-12.43 l 0,-14.008 c 0,-6.844 -5.539,-12.41 -12.434,-12.41 -6.844,0 -12.406,5.566 -12.406,12.41 l 0,14.008 z m 24.84,-31.059 0,-7.019 12.437,0 0,87.043 -12.437,0 0,-31.891 c -3.965,4.922 -9.965,7.793 -16.278,7.793 -11.613,0 -20.98,-9.387 -20.98,-21.004 l 0,-21.742 c 0,-11.586 9.367,-20.973 20.98,-20.973 6.313,0 12.313,2.848 16.278,7.793 z m -57.457,-7.019 c -7.715,0 -13.953,6.265 -13.953,13.98 l 0,73.063 12.41,0 0,-71.516 c 0,-2.144 1.746,-3.867 3.867,-3.867 l 5.445,0 0,-11.66 -7.769,0 z m -45.012,87.043 12.406,0 0,-12.438 -12.406,0 0,12.438 z m 0,-24.871 12.406,0 0,-62.172 -12.406,0 0,62.172 z m -82.301,24.871 13.184,0 0,-37.309 35.726,0 0,37.309 13.211,0 0,-87.043 -13.211,0 0,38.078 -35.726,0 0,-38.078 -13.184,0 0,87.043 z m 524.793,-31.891 c 3.996,4.922 9.965,7.793 16.309,7.793 6.664,0 12.957,-3.172 16.898,-8.566 4.422,5.418 11.035,8.566 18.055,8.566 12.859,0 23.269,-10.441 23.269,-23.32 l 0,-39.625 -12.406,0 0,38.078 c 0,6.867 -5.57,12.43 -12.437,12.43 -6.836,0 -12.438,-5.563 -12.438,-12.43 l 0,-38.078 -12.406,0 0,38.078 c 0,6.867 -5.543,12.43 -12.406,12.43 -6.867,0 -12.438,-5.563 -12.438,-12.43 l 0,-38.078 -12.406,0 0,62.172 12.406,0" /><path
         id="path7107"
         style="fill:#000000;fill-opacity:1;fill-rule:evenodd;stroke:none"
         d="m 604.109,82.855 31.063,41.204 -29.508,0 0,10.882 45.043,0 0,-9.339 -31.062,-41.172 31.062,0 0,-11.66 -46.598,0 0,10.085 z M 585.465,72.77 c -7.715,0 -13.961,6.246 -13.961,13.98 l 0,73.063 12.437,0 0,-71.508 c 0,-2.153 1.719,-3.875 3.872,-3.875 l 5.417,0 0,-11.66 -7.765,0 z m -86.945,87.043 55.886,0 0,-12.438 -42.699,0 0,-24.863 36.5,0 0,-11.664 -36.5,0 0,-25.645 42.699,0 0,-12.433 -55.886,0 0,87.043 z m 190.21,-36.528 c -7.289,0 -13.207,-5.918 -13.207,-13.211 l 26.395,0 c 0,7.293 -5.891,13.211 -13.188,13.211 z m -4.914,-37.906 c 2.047,-0.82 4.247,-1.246 6.469,-1.246 5.067,0 9.887,2.219 13.18,6.066 l 9.441,-8.113 c -5.668,-6.594 -13.933,-10.391 -22.621,-10.391 -3.797,0 -7.543,0.703 -11.066,2.153 -9.735,3.89 -16.106,13.308 -16.106,23.793 l 0,12.433 c 0,14.156 11.489,25.645 25.617,25.645 14.137,0 25.625,-11.489 25.625,-25.645 l 0,-10.886 -38.832,0 0,-1.547 c 0,-5.418 3.274,-10.262 8.293,-12.262" /><path
         id="path7109"
         style="fill:#000000;fill-opacity:1;fill-rule:evenodd;stroke:none"
         d="m 779.875,224.695 29.422,62.836 13.957,0 -29.449,-62.035 22.468,0 0,24.813 12.387,0 0,-24.813 6.977,0 0,-11.637 -6.977,0 0,-13.179 -12.387,0 0,13.179 -36.398,0 0,10.836 z m 94.5,51.2 c 6.848,0 12.406,-5.559 12.406,-12.411 l 0,-3.863 c 0,-6.867 -5.558,-12.398 -12.406,-12.398 -6.852,0 -12.379,5.531 -12.379,12.398 l 0,3.863 c 0,6.852 5.527,12.411 12.379,12.411 z m 3.016,-38.02 -18.508,-37.195 13.949,0 23.738,47.883 c 1.696,3.437 2.594,7.226 2.594,11.058 l 0,3.863 c 0,13.711 -11.09,24.821 -24.789,24.821 -13.68,0 -24.789,-11.11 -24.789,-24.821 l 0,-6.972 c 0,-11.141 9.019,-20.157 20.129,-20.157 2.644,0 5.258,0.5 7.676,1.52" /><path
         id="path7111"
         style="fill:#000000;fill-opacity:1;fill-rule:evenodd;stroke:none"
         d="m 820.906,84.105 c 7.282,0 13.18,5.907 13.18,13.18 l 0,1.543 c 0,7.274 -5.898,13.18 -13.18,13.18 l -5.406,0 0,10.863 5.406,0 c 6.879,0 12.407,5.551 12.407,12.41 0,6.852 -5.528,12.403 -12.407,12.403 -5.953,0 -11.035,-4.235 -12.152,-10.063 l -12.512,0 c 1.196,12.731 11.887,22.469 24.664,22.469 13.707,0 24.817,-11.11 24.817,-24.809 0,-7.051 -3.461,-13.707 -9.219,-17.765 6.25,-4.161 9.988,-11.188 9.988,-18.688 l 0,-1.543 c 0,-14.125 -11.453,-25.59 -25.586,-25.59 -12.929,0 -23.789,9.645 -25.359,22.496 l 12.555,0 c 1.445,-5.925 6.753,-10.086 12.804,-10.086 z m 41.09,65.926 12.379,9.289 12.406,0 0,-86.851 -12.406,0 0,73.672 -12.379,-9.289" /><path
         id="path7113"
         style="fill:#000000;fill-opacity:1;fill-rule:evenodd;stroke:none"
         d="m 936.359,265.457 9.243,0 0,-40.488 17.918,22.004 10.964,0 -15.601,-17.969 17.914,-28.324 -11.563,0 -12.129,21.398 -7.503,-8.094 0,-13.304 -9.243,0 0,64.777 z m 57.778,-23.719 c 2.968,3.664 7.429,5.805 12.133,5.805 4.96,0 9.64,-2.363 12.582,-6.379 3.293,4.035 8.222,6.379 13.429,6.379 9.567,0 17.321,-7.777 17.321,-17.363 l 0,-29.5 -9.25,0 0,28.324 c 0,5.137 -4.11,9.269 -9.219,9.269 -5.106,0 -9.238,-4.132 -9.238,-9.269 l 0,-28.324 -9.25,0 0,28.324 c 0,5.137 -4.133,9.269 -9.266,9.269 -5.078,0 -9.242,-4.132 -9.242,-9.269 l 0,-28.324 -9.239,0 0,46.293 9.239,0" /><path
         id="path7115"
         style="fill:#000000;fill-opacity:1;fill-rule:evenodd;stroke:none"
         d="m 936.359,137.246 9.243,0 0,-40.484 17.918,21.976 10.964,0 -15.601,-17.918 17.914,-28.351 -11.563,0 -12.129,21.402 -7.503,-8.098 0,-13.304 -9.243,0 0,64.777 z m 57.778,-23.719 c 2.968,3.664 7.429,5.809 12.133,5.809 4.96,0 9.64,-2.367 12.582,-6.379 3.293,4.012 8.222,6.379 13.429,6.379 9.567,0 17.321,-7.773 17.321,-17.367 l 0,-29.5 -9.25,0 0,28.351 c 0,5.11 -4.11,9.25 -9.219,9.25 -5.106,0 -9.238,-4.14 -9.238,-9.25 l 0,-28.351 -9.25,0 0,28.351 c 0,5.11 -4.133,9.25 -9.266,9.25 -5.078,0 -9.242,-4.14 -9.242,-9.25 l 0,-28.351 -9.239,0 0,46.269 9.239,0" /></g></g></svg>