<?xml version="1.0" encoding="UTF-8" standalone="no"?>
<svg
   xmlns:dc="http://purl.org/dc/elements/1.1/"
   xmlns:cc="http://creativecommons.org/ns#"
   xmlns:rdf="http://www.w3.org/1999/02/22-rdf-syntax-ns#"
   xmlns:svg="http://www.w3.org/2000/svg"
   xmlns="http://www.w3.org/2000/svg"
   viewBox="0 0 1752 452"
   height="452"
   width="1752"
   xml:space="preserve"
   version="1.1"
   id="svg9840"><metadata
     id="metadata9846"><rdf:RDF><cc:Work
         rdf:about=""><dc:format>image/svg+xml</dc:format><dc:type
           rdf:resource="http://purl.org/dc/dcmitype/StillImage" /><dc:title></dc:title></cc:Work></rdf:RDF></metadata><defs
     id="defs9844" /><g
     transform="matrix(1.25,0,0,-1.25,0,452.00001)"
     id="g9848"><g
       id="g9850"><path
         id="path9852"
         style="fill:#ffffff;fill-opacity:1;fill-rule:nonzero;stroke:none"
         d="m 1360.402,360.401 c 22.09,0 40,-17.91 40,-40 l 0,-280 c 0,-22.094 -17.91,-40 -40,-40 l -1058.699,0 c -28.387,0 -56.351,7.515 -80.89,21.691 L 27.137,134.03 c -16.504,9.55 -26.735,27.3 -26.735,46.359 0,19.07 10.231,36.828 26.735,46.332 l 193.676,111.957 c 24.566,14.203 52.531,21.723 80.89,21.723 l 1058.699,0 z" /><path
         id="path9854"
         style="fill:#154889;fill-opacity:1;fill-rule:evenodd;stroke:none"
         d="m 1352.402,336.401 c 13.254,0 24,-10.746 24,-24 l 0,-264 c 0,-13.254 -10.746,-24 -24,-24 l -1053.257,0 c -23.758,0 -45.165,6.269 -65.704,18.168 L 35.32,156.924 c -8.371,4.852 -10.922,13.789 -10.922,23.465 0,9.691 2.551,18.633 10.922,23.477 l 198.121,114.367 c 20.539,11.926 44.504,18.168 68.262,18.168 l 1050.699,0 z" /><path
         id="path9856"
         style="fill:#ffffff;fill-opacity:1;fill-rule:evenodd;stroke:none"
         d="m 478.051,236.401 170.09,0 c 4.929,0 8.941,-4.012 8.941,-8.957 l 0,-94.102 c 0,-4.933 -4.012,-8.941 -8.941,-8.941 l -170.09,0 c -4.93,0 -8.946,4.008 -8.946,8.941 l 0,94.102 c 0,4.945 4.016,8.957 8.946,8.957 z m 85.039,-4.477 c -0.918,0 -1.836,-0.074 -2.754,-0.234 l -80.715,-12.633 c -2.195,-0.34 -3.801,-2.211 -3.801,-4.426 l 0,-68.496 c 0,-2.195 1.606,-4.07 3.801,-4.41 l 80.715,-12.633 c 0.918,-0.14 1.836,-0.215 2.754,-0.215 0.93,0 1.851,0.075 2.785,0.215 l 80.719,12.633 c 2.172,0.34 3.777,2.215 3.777,4.41 l 0,68.496 c 0,2.215 -1.605,4.086 -3.777,4.426 l -80.719,12.633 c -0.934,0.16 -1.855,0.234 -2.785,0.234 z m 0,-19.613 c 9.894,0 17.898,-8.027 17.898,-17.922 0,-4.07 -1.383,-8.008 -3.898,-11.191 l -20.137,-25.207 24.035,0 0,-8.961 -35.804,0 0,8.402 24.921,31.398 c 1.258,1.579 1.942,3.543 1.942,5.559 0,4.965 -4.012,8.957 -8.957,8.957 -4.934,0 -8.945,-3.992 -8.945,-8.957 l -8.961,0 c 0,9.895 8.023,17.922 17.906,17.922 z" /><path
         id="path9858"
         style="fill:#ffffff;fill-opacity:1;fill-rule:evenodd;stroke:none"
         d="m 797.559,269.819 10.289,0 -2.25,-58.473 -28.254,0 20.215,58.473 z m 17.171,0 10.309,0 20.207,-58.473 -28.281,0 -2.235,58.473 z m -92.785,-65.356 178.692,0 0,-6.886 -18.875,0 0,-10.309 -17.223,0 0,10.309 -106.5,0 0,-10.309 -17.191,0 0,10.309 -18.903,0 0,6.886 z m 47.043,-17.195 35.7,0 -3.696,-96.313 -65.308,0 33.304,96.313 z m 48.934,0 35.644,0 33.305,-96.313 -65.281,0 -3.668,96.313 z" /><path
         id="path9860"
         style="fill:#ffffff;fill-opacity:1;fill-rule:nonzero;stroke:none"
         d="m 958.348,136.795 36.406,0 c 3.23,0 6.305,0.567 9.219,1.7 2.914,1.132 5.461,2.789 7.644,4.976 2.27,2.184 4.004,4.77 5.219,7.766 1.297,3.074 1.937,6.429 1.937,10.07 0,4.691 -1.21,8.898 -3.636,12.621 -2.426,3.801 -5.907,6.227 -10.438,7.277 l 0,0.247 c 4.692,2.101 7.973,4.73 9.828,7.886 1.946,3.153 2.914,6.715 2.914,10.676 0,7.039 -2.222,12.66 -6.675,16.867 -4.45,4.207 -10.754,6.313 -18.926,6.313 l -33.492,0 0,-86.399 z m 33.25,38.344 c 4.613,0 8.086,-1.254 10.433,-3.762 2.43,-2.425 3.645,-5.5 3.645,-9.222 0,-3.641 -1.215,-6.715 -3.645,-9.219 -2.347,-2.508 -5.82,-3.762 -10.433,-3.762 l -20.145,0 0,25.965 20.145,0 z m -1.211,36.402 c 4.523,0 7.961,-1.171 10.308,-3.515 2.426,-2.348 3.645,-5.301 3.645,-8.86 0,-3.558 -1.219,-6.511 -3.645,-8.859 -2.347,-2.344 -5.785,-3.519 -10.308,-3.519 l -18.934,0 0,24.753 18.934,0 z" /><path
         id="path9862"
         style="fill:#ffffff;fill-opacity:1;fill-rule:nonzero;stroke:none"
         d="m 1086.09,162.885 0,10.192 c 0,3.882 -0.692,7.402 -2.067,10.558 -1.293,3.235 -3.113,5.985 -5.46,8.25 -2.34,2.348 -5.051,4.125 -8.129,5.34 -3.075,1.211 -6.313,1.82 -9.707,1.82 -3.157,0 -6.231,-0.566 -9.219,-1.699 -2.996,-1.133 -5.703,-2.953 -8.129,-5.461 -2.434,-2.426 -4.371,-5.703 -5.828,-9.828 -1.453,-4.125 -2.188,-9.019 -2.188,-14.684 0,-6.066 0.774,-11.164 2.313,-15.289 1.613,-4.043 3.715,-7.238 6.304,-9.586 2.668,-2.347 5.583,-4.003 8.739,-4.976 3.234,-0.969 6.551,-1.453 9.953,-1.453 4.281,0 8.332,0.808 12.133,2.426 3.797,1.617 7.16,4.125 10.066,7.523 l -8.976,7.645 c -1.782,-1.86 -3.883,-3.317 -6.309,-4.368 -2.348,-1.054 -4.734,-1.578 -7.156,-1.578 -4.375,0 -7.934,1.293 -10.684,3.883 -2.668,2.668 -4.004,6.43 -4.004,11.285 l 38.348,0 z m -38.348,10.192 c 0.16,4.531 1.414,8.05 3.766,10.558 2.422,2.508 5.5,3.762 9.219,3.762 3.718,0 6.753,-1.254 9.097,-3.762 2.434,-2.508 3.727,-6.027 3.891,-10.558 l -25.973,0 z" /><path
         id="path9864"
         style="fill:#ffffff;fill-opacity:1;fill-rule:nonzero;stroke:none"
         d="m 1103.871,136.795 12.375,0 0,37.012 c 0,4.203 1.18,7.398 3.52,9.586 2.347,2.184 5.179,3.273 8.496,3.273 1.539,0 2.914,-0.242 4.125,-0.726 1.211,-0.406 2.547,-1.172 4.004,-2.305 l 8.98,10.676 c -4.047,3.156 -8.332,4.734 -12.859,4.734 -6.797,0 -12.141,-2.425 -16.024,-7.281 l -0.242,0 0,6.551 -12.375,0 0,-61.52 z" /><path
         id="path9866"
         style="fill:#ffffff;fill-opacity:1;fill-rule:nonzero;stroke:none"
         d="m 1156.234,151.721 c 0,-5.18 1.414,-8.98 4.246,-11.406 2.833,-2.348 6.672,-3.52 11.532,-3.52 l 5.461,0 0,11.649 -4.25,0 c -3.075,0 -4.614,1.418 -4.614,4.246 l 0,70.504 -12.375,0 0,-71.473 z" /><path
         id="path9868"
         style="fill:#ffffff;fill-opacity:1;fill-rule:nonzero;stroke:none"
         d="m 1193.32,136.795 12.379,0 0,61.52 -12.379,0 0,-61.52 z m 0,74.02 12.379,0 0,12.379 -12.379,0 0,-12.379 z" /><path
         id="path9870"
         style="fill:#ffffff;fill-opacity:1;fill-rule:nonzero;stroke:none"
         d="m 1224.988,136.795 12.379,0 0,36.645 c 0,4.125 1.137,7.363 3.395,9.707 2.347,2.348 5.301,3.519 8.859,3.519 3.559,0 6.477,-1.171 8.738,-3.519 2.27,-2.344 3.399,-5.582 3.399,-9.707 l 0,-36.645 12.379,0 0,40.895 c 0,3.394 -0.61,6.43 -1.824,9.098 -1.133,2.671 -2.711,4.894 -4.727,6.675 -2.027,1.86 -4.25,3.235 -6.68,4.125 -2.426,0.973 -4.851,1.457 -7.277,1.457 -6.793,0 -12.137,-2.425 -16.02,-7.281 l -0.242,0 0,6.551 -12.379,0 0,-61.52 z" /><path
         id="path9872"
         style="fill:#000000;fill-opacity:1;fill-rule:nonzero;stroke:none"
         d="m 1360.402,360.799 c 22.305,0 40.399,-18.09 40.399,-40.398 l 0,-280 c 0,-22.309 -18.094,-40.403 -40.399,-40.403 l -1058.699,0 c -28.457,0 -56.492,7.54 -81.09,21.75 L 26.934,133.686 C 10.309,143.307 0,161.19 0,180.389 c 0,19.215 10.309,37.106 26.934,46.68 l 193.679,111.957 c 24.625,14.238 52.66,21.773 81.09,21.773 l 1058.699,0 z m 0,-0.398 -1058.699,0 c -28.359,0 -56.324,-7.52 -80.89,-21.723 L 27.137,226.721 C 10.633,217.217 0.402,199.459 0.402,180.389 0.402,161.33 10.633,143.58 27.137,134.03 L 220.813,22.092 C 245.352,7.916 273.316,0.401 301.703,0.401 l 1058.699,0 c 22.09,0 40,17.906 40,40 l 0,280 c 0,22.09 -17.91,40 -40,40 z" /></g></g></svg>