<?xml version="1.0" encoding="UTF-8" standalone="no"?>
<svg
   xmlns:dc="http://purl.org/dc/elements/1.1/"
   xmlns:cc="http://creativecommons.org/ns#"
   xmlns:rdf="http://www.w3.org/1999/02/22-rdf-syntax-ns#"
   xmlns:svg="http://www.w3.org/2000/svg"
   xmlns="http://www.w3.org/2000/svg"
   viewBox="0 0 1000 250.00591"
   height="250.00591"
   width="1000"
   xml:space="preserve"
   version="1.1"
   id="svg7068"><metadata
     id="metadata7074"><rdf:RDF><cc:Work
         rdf:about=""><dc:format>image/svg+xml</dc:format><dc:type
           rdf:resource="http://purl.org/dc/dcmitype/StillImage" /><dc:title></dc:title></cc:Work></rdf:RDF></metadata><defs
     id="defs7072" /><g
     transform="matrix(1.25,0,0,-1.25,0,250.00591)"
     id="g7076"><g
       id="g7078"><path
         id="path7080"
         style="fill:#f0c900;fill-opacity:1;fill-rule:nonzero;stroke:none"
         d="m 774,200.005 c 14.359,0 26,-11.641 26,-26 l 0,-148 c 0,-14.36 -11.641,-26 -26,-26 l -593.598,0 c -27.59,-0.047 -36.148,0.011 -54.714,12.418 L 13,77.481 13,77.489 C 5.23,81.985 0,90.384 0,100.005 c 0,9.621 5.23,18.015 13,22.511 l 0,0.012 112.707,65.074 c 18.648,12.442 27.141,12.403 54.695,12.403 l 593.598,0 z" /><path
         id="path7082"
         style="fill:#000000;fill-opacity:1;fill-rule:nonzero;stroke:none"
         d="m 208.379,60.653 0,79.348 50.754,0 0,-11.379 -38.719,0 0,-22.602 33.004,0 0,-10.73 -33.004,0 0,-23.309 38.719,0 0,-11.328 -50.754,0 z m 63.726,0 0,56.531 11.383,0 0,-56.531 -11.383,0 z m 0,67.969 0,11.379 11.383,0 0,-11.379 -11.383,0 z m 61.985,-51.356 8.387,-7.519 c -2.469,-2.828 -5.399,-5.16 -8.797,-6.996 -3.395,-1.832 -7.235,-2.75 -11.516,-2.75 -6.535,0 -12.445,2.226 -17.726,6.668 -5.286,4.449 -7.922,11.847 -7.922,22.195 0,10.348 2.636,17.766 7.922,22.246 5.281,4.485 11.191,6.727 17.726,6.727 4.281,0 8.121,-0.926 11.516,-2.778 3.398,-1.851 6.328,-4.191 8.797,-7.027 l -8.387,-7.461 c -3.195,3.922 -7.028,5.887 -11.488,5.887 -9.805,0 -14.707,-5.867 -14.707,-17.594 0,-11.687 4.902,-17.535 14.707,-17.535 4.5,0 8.332,1.977 11.488,5.937 z m 18.527,-16.613 0,79.348 11.379,0 0,-28.863 0.223,0 c 3.519,4.464 8.422,6.699 14.699,6.699 4.394,0 8.633,-1.668 12.719,-5.012 4.082,-3.336 6.125,-8.203 6.125,-14.594 l 0,-37.578 -11.379,0 0,33.656 c 0,3.817 -1.063,6.789 -3.188,8.934 -2.121,2.141 -4.765,3.215 -7.925,3.215 -3.266,0 -5.961,-1.074 -8.086,-3.215 -2.125,-2.145 -3.188,-5.117 -3.188,-8.934 l 0,-33.656 -11.379,0 z m 105.985,23.965 -35.18,0 c 0,-4.648 1.266,-8.133 3.789,-10.461 2.519,-2.32 5.746,-3.484 9.66,-3.484 4.684,0 8.828,1.816 12.418,5.449 l 8.227,-7.024 c -2.797,-3.269 -5.946,-5.605 -9.45,-7 -3.504,-1.398 -7.16,-2.097 -10.972,-2.097 -5.809,0 -11.438,1.879 -16.883,5.637 -5.445,3.757 -8.172,11.445 -8.172,23.062 0,11 2.516,18.609 7.543,22.816 5.031,4.215 10.285,6.321 15.77,6.321 6.203,0 11.632,-2.153 16.281,-6.453 4.648,-4.305 6.969,-10.102 6.969,-17.403 l 0,-9.363 z m -35.18,9.363 23.851,0 c -0.179,4.25 -1.378,7.5 -3.589,9.75 -2.219,2.25 -4.996,3.375 -8.332,3.375 -3.379,0 -6.184,-1.125 -8.414,-3.375 -2.235,-2.25 -3.407,-5.5 -3.516,-9.75 z m 49.461,-33.328 0,56.531 11.383,0 0,-6.046 0.214,0 c 3.524,4.464 8.422,6.699 14.704,6.699 4.394,0 8.632,-1.668 12.718,-5.012 4.086,-3.336 6.125,-8.203 6.125,-14.594 l 0,-37.578 -11.382,0 0,33.656 c 0,3.817 -1.063,6.789 -3.184,8.934 -2.125,2.141 -4.766,3.215 -7.926,3.215 -3.265,0 -5.961,-1.074 -8.086,-3.215 -2.121,-2.145 -3.183,-5.117 -3.183,-8.934 l 0,-33.656 -11.383,0 z m 62.199,0 0,79.348 11.383,0 0,-28.863 c 2.109,2 4.328,3.613 6.672,4.847 2.34,1.235 4.984,1.852 7.925,1.852 3.446,0 6.426,-0.699 8.93,-2.094 2.504,-1.398 4.574,-3.152 6.211,-5.258 1.559,-2.031 2.617,-4.402 3.184,-7.109 0.558,-2.703 0.843,-7.508 0.843,-14.403 0,-6.972 -0.285,-11.828 -0.843,-14.57 -0.567,-2.738 -1.625,-5.109 -3.184,-7.105 -1.637,-2.141 -3.707,-3.895 -6.211,-5.254 -2.504,-1.36 -5.484,-2.043 -8.93,-2.043 -5.808,0 -10.675,2.176 -14.597,6.535 l 0,-5.883 -11.383,0 z m 22.547,45.805 c -5.336,0 -8.531,-1.91 -9.582,-5.723 -1.055,-3.812 -1.582,-7.734 -1.582,-11.762 0,-4.136 0.527,-8.117 1.582,-11.925 1.051,-3.813 4.246,-5.719 9.582,-5.719 5.34,0 8.543,1.832 9.613,5.5 1.07,3.664 1.606,7.715 1.606,12.144 0,4.321 -0.536,8.313 -1.606,11.981 -1.07,3.668 -4.273,5.504 -9.613,5.504 z m 67.379,-45.805 0,5.012 -0.274,0 c -2.289,-3.774 -6.933,-5.664 -13.941,-5.664 -6.32,0 -11.219,1.64 -14.703,4.93 -3.488,3.285 -5.231,7.398 -5.231,12.335 0,4.461 1.543,8.368 4.629,11.707 3.086,3.34 7.68,5.008 13.778,5.008 l 15.742,0 0,5.883 c 0,4.832 -3.871,7.242 -11.606,7.242 -5.371,0 -8.949,-1.429 -10.726,-4.3 l -8.93,6.753 c 3.957,5.516 10.313,8.278 19.059,8.278 6.972,0 12.636,-1.364 16.996,-4.082 4.355,-2.727 6.531,-7.571 6.531,-14.543 l 0,-38.559 -11.324,0 z m 0,19.824 0,4.141 -13.617,0 c -6.571,0 -9.856,-2.27 -9.856,-6.809 0,-1.925 0.824,-3.593 2.477,-5.011 1.648,-1.418 4.402,-2.125 8.254,-2.125 4.714,0 8.019,0.527 9.906,1.582 1.89,1.051 2.836,3.797 2.836,8.222 z m 61.601,-3.211 8.387,-7.519 c -2.469,-2.828 -5.402,-5.16 -8.797,-6.996 -3.394,-1.832 -7.23,-2.75 -11.515,-2.75 -6.539,0 -12.446,2.226 -17.731,6.668 -5.281,4.449 -7.922,11.847 -7.922,22.195 0,10.348 2.641,17.766 7.922,22.246 5.285,4.485 11.192,6.727 17.731,6.727 4.285,0 8.121,-0.926 11.515,-2.778 3.395,-1.851 6.328,-4.191 8.797,-7.027 l -8.387,-7.461 c -3.199,3.922 -7.023,5.887 -11.492,5.887 -9.801,0 -14.703,-5.867 -14.703,-17.594 0,-11.687 4.902,-17.535 14.703,-17.535 4.5,0 8.332,1.977 11.492,5.937 z m 18.524,-16.613 0,79.348 11.383,0 0,-28.863 0.218,0 c 3.52,4.464 8.422,6.699 14.704,6.699 4.394,0 8.628,-1.668 12.714,-5.012 4.086,-3.336 6.129,-8.203 6.129,-14.594 l 0,-37.578 -11.383,0 0,33.656 c 0,3.817 -1.062,6.789 -3.183,8.934 -2.125,2.141 -4.77,3.215 -7.926,3.215 -3.269,0 -5.965,-1.074 -8.086,-3.215 -2.125,-2.145 -3.187,-5.117 -3.187,-8.934 l 0,-33.656 -11.383,0 z" /></g></g></svg>