<?xml version="1.0" encoding="UTF-8" standalone="no"?>
<svg
   xmlns:dc="http://purl.org/dc/elements/1.1/"
   xmlns:cc="http://creativecommons.org/ns#"
   xmlns:rdf="http://www.w3.org/1999/02/22-rdf-syntax-ns#"
   xmlns:svg="http://www.w3.org/2000/svg"
   xmlns="http://www.w3.org/2000/svg"
   xmlns:sodipodi="http://sodipodi.sourceforge.net/DTD/sodipodi-0.dtd"
   xmlns:inkscape="http://www.inkscape.org/namespaces/inkscape"
   viewBox="0 0 137.07999 1029.6716"
   height="1029.6716"
   width="137.07999"
   xml:space="preserve"
   version="1.1"
   id="svg6283"
   sodipodi:docname="DE_620-41.svg"
   inkscape:version="1.0.1 (3bc2e813f5, 2020-09-07)"><sodipodi:namedview
     pagecolor="#ffffff"
     bordercolor="#666666"
     borderopacity="1"
     objecttolerance="10"
     gridtolerance="10"
     guidetolerance="10"
     inkscape:pageopacity="0"
     inkscape:pageshadow="2"
     inkscape:window-width="1920"
     inkscape:window-height="1027"
     id="namedview10816"
     showgrid="false"
     inkscape:zoom="0.64210554"
     inkscape:cx="208.53999"
     inkscape:cy="569.57911"
     inkscape:window-x="-8"
     inkscape:window-y="-8"
     inkscape:window-maximized="1"
     inkscape:current-layer="svg6283" /><metadata
     id="metadata6289"><rdf:RDF><cc:Work
         rdf:about=""><dc:format>image/svg+xml</dc:format><dc:type
           rdf:resource="http://purl.org/dc/dcmitype/StillImage" /><dc:title></dc:title></cc:Work></rdf:RDF></metadata><defs
     id="defs6287" /><path
     id="path6379"
     style="fill:#ffffff;fill-opacity:1;fill-rule:nonzero;stroke:none;stroke-width:1.25"
     d="m 24.534492,7.3775754 c -8.23625,0 -14.9112497,6.7137496 -14.9112497,14.9999996 V 1019.3788 l 119.2862477,-9.9013 c -1.58125,-317.26117 2.2175,-632.66117 0,-949.922425 -0.0138,-1.875 -1.06875,-3.6675 -2.87,-4.51125 L 50.491992,8.3250754 c -0.24875,-0.18125 -0.5125,-0.3425 -0.80125,-0.47875 -0.66875,-0.3125 -1.36625,-0.45375 -2.055,-0.45875 l -0.0487,-0.015 h -23.05255 z" /><path
     id="path6381"
     style="fill:#000000;fill-opacity:1;fill-rule:nonzero;stroke:none;stroke-width:1.25"
     d="m 47.889492,4.8725754 -23.355,0.01 c -9.59375,0 -17.4062497,7.8662496 -17.4062497,17.4949996 V 1022.0888 l 124.2962477,-10.3125 -0.015,-2.3088 c -1.58125,-317.23117 2.2175,-632.63742 0,-949.922425 v -0.015 c -0.0188,-2.8025 -1.625,-5.4925 -4.31125,-6.7525 l 0.25875,0.14625 -75.546248,-46.7324996 0.14625,0.1025 c -0.36125,-0.26375 -0.7575,-0.50875 -1.20125,-0.71875 -1.015,-0.4725 -2.09,-0.6825 -3.1,-0.6925 l 0.56625,0.0725 -0.3325,-0.0875 z m -23.355,5.005 h 22.76 l 0.0337,0.01 h 0.2875 c 0.36625,0 0.69375,0.0675 1.01125,0.2187496 0.13125,0.06375 0.26375,0.1475 0.4,0.245 l 0.0737,0.05375 75.746248,46.84 0.1325,0.06375 c 0.9075,0.425 1.42625,1.32375 1.43,2.26625 2.2125,316.455005 -1.5475,631.093755 0,947.602425 l -114.286248,9.4876 V 22.377575 c 0,-6.94375 5.53625,-12.4999996 12.41125,-12.4999996 z" /><path
     id="path6383"
     style="fill:#000000;fill-opacity:1;fill-rule:evenodd;stroke:none;stroke-width:1.25"
     d="m 9.6232423,187.39258 v 250 l 119.6087477,69.0525 c 0.24,-83.19875 0.435,-166.41125 0.38125,-249.78 z" /><path
     id="path6385"
     style="fill:#ffffff;fill-opacity:1;fill-rule:nonzero;stroke:none;stroke-width:1.25"
     d="m 99.623242,426.91883 c 0,-16.5675 -13.4325,-30 -30,-30 -16.5675,0 -30,13.4325 -30,30 0,16.5675 13.4325,30 30,30 16.5675,0 30,-13.4325 30,-30 z" /><path
     id="path6409"
     style="fill:#ffffff;fill-opacity:1;fill-rule:nonzero;stroke:none;stroke-width:1.25"
     d="m 99.623242,266.91883 c 0,16.5675 -13.4325,30 -30,30 -16.5675,0 -30,-13.4325 -30,-30 0,-16.5725 13.4325,-30 30,-30 16.5675,0 30,13.4275 30,30 z" /></svg>
