<?xml version="1.0" encoding="UTF-8" standalone="no"?>
<svg
   xmlns:dc="http://purl.org/dc/elements/1.1/"
   xmlns:cc="http://creativecommons.org/ns#"
   xmlns:rdf="http://www.w3.org/1999/02/22-rdf-syntax-ns#"
   xmlns:svg="http://www.w3.org/2000/svg"
   xmlns="http://www.w3.org/2000/svg"
   viewBox="0 0 468.23007 1174.9606"
   height="1174.9606"
   width="468.23007"
   xml:space="preserve"
   version="1.1"
   id="svg26496"><metadata
     id="metadata26502"><rdf:RDF><cc:Work
         rdf:about=""><dc:format>image/svg+xml</dc:format><dc:type
           rdf:resource="http://purl.org/dc/dcmitype/StillImage" /><dc:title></dc:title></cc:Work></rdf:RDF></metadata><defs
     id="defs26500" /><g
     transform="matrix(1.25,0,0,-1.25,0,1174.9606)"
     id="g26504"><g
       id="g26506"><g
         transform="matrix(1,0,0,-0.999964,0,939.96844)"
         id="g26508"><path
           id="path26510"
           style="fill:#f0c900;fill-opacity:1;fill-rule:nonzero;stroke:#000000;stroke-width:1.60002899;stroke-linecap:butt;stroke-linejoin:miter;stroke-miterlimit:4;stroke-dasharray:none;stroke-opacity:1"
           d="m 373.785,906.22 c 0,7.946 -6.441,14.387 -14.387,14.387 -7.945,0 -14.386,-6.441 -14.386,-14.387 0,-7.945 6.441,-14.387 14.386,-14.387 7.946,0 14.387,6.442 14.387,14.387 z" /></g><g
         transform="matrix(1,0,0,-0.999964,0,939.96844)"
         id="g26512"><path
           id="path26514"
           style="fill:#f0c900;fill-opacity:1;fill-rule:nonzero;stroke:#000000;stroke-width:1.60002899;stroke-linecap:butt;stroke-linejoin:miter;stroke-miterlimit:4;stroke-dasharray:none;stroke-opacity:1"
           d="m 348.008,858 c 0,7.945 -6.442,14.387 -14.387,14.387 -7.945,0 -14.387,-6.442 -14.387,-14.387 0,-7.946 6.442,-14.384 14.387,-14.384 7.945,0 14.387,6.438 14.387,14.384 z" /></g><g
         transform="matrix(-1,0,0,-0.999964,0,939.96844)"
         id="g26516"><path
           id="path26518"
           style="fill:#f0c900;fill-opacity:1;fill-rule:nonzero;stroke:#000000;stroke-width:1.60002899;stroke-linecap:butt;stroke-linejoin:miter;stroke-miterlimit:4;stroke-dasharray:none;stroke-opacity:1"
           d="m -0.801,906.22 c 0,7.946 -6.441,14.387 -14.387,14.387 -7.945,0 -14.386,-6.441 -14.386,-14.387 0,-7.945 6.441,-14.387 14.386,-14.387 7.946,0 14.387,6.442 14.387,14.387 z" /></g><g
         transform="matrix(-1,0,0,-0.999964,0,939.96844)"
         id="g26520"><path
           id="path26522"
           style="fill:#f0c900;fill-opacity:1;fill-rule:nonzero;stroke:#000000;stroke-width:1.60002899;stroke-linecap:butt;stroke-linejoin:miter;stroke-miterlimit:4;stroke-dasharray:none;stroke-opacity:1"
           d="m -26.578,858 c 0,7.945 -6.442,14.387 -14.387,14.387 -7.945,0 -14.387,-6.442 -14.387,-14.387 0,-7.946 6.442,-14.384 14.387,-14.384 7.945,0 14.387,6.438 14.387,14.384 z" /></g><g
         transform="matrix(1,0,0,-0.999964,0,939.96844)"
         id="g26524"><path
           id="path26526"
           style="fill:#f0c900;fill-opacity:1;fill-rule:nonzero;stroke:#000000;stroke-width:1.60002899;stroke-linecap:butt;stroke-linejoin:miter;stroke-miterlimit:4;stroke-dasharray:none;stroke-opacity:1"
           d="m 361.82,939.202 -74.468,-137.376 -199.985,0 -74.472,137.376 348.925,-0.035 0,0.035 z" /></g><path
         id="path26528"
         style="fill:#c1121c;fill-opacity:1;fill-rule:evenodd;stroke:none"
         d="m 255.172,938.367 c 17.156,0 31.121,-13.981 31.121,-31.231 l 0,-736.527 c 0,-17.25 -13.965,-31.207 -31.121,-31.207 l -135.758,0 c -17.16,0 -31.125,13.957 -31.125,31.207 l 0,736.527 c 0,17.25 13.969,31.231 31.125,31.231 l 135.758,0 z" /><path
         id="path26530"
         style="fill:#ffffff;fill-opacity:1;fill-rule:evenodd;stroke:none"
         d="M 96.855,147.879 286.449,339.457 286.531,538.281 88.023,337.949 87.996,164.121 c 0.109,-3.953 2.738,-10.313 8.859,-16.242 z" /><path
         id="path26532"
         style="fill:#ffffff;fill-opacity:1;fill-rule:evenodd;stroke:none"
         d="M 95.82,928.406 286.629,735.988 286.602,537.164 87.93,737.55 87.898,911.383 c 0.11,4.23 2.465,10.421 7.922,17.023 z" /><g
         transform="matrix(-0.997298,0,0,1,0,939.96844)"
         id="g26534"><path
           id="path26536"
           style="fill:none;stroke:#000000;stroke-width:1.60216701;stroke-linecap:butt;stroke-linejoin:miter;stroke-miterlimit:4;stroke-dasharray:none;stroke-opacity:1"
           d="m -119.734,-0.801 -136.129,0 c -17.634,0 -32.005,-14.347 -32.005,-32.031 l 0,-736.527 c 0,-17.684 14.371,-32.008 32.005,-32.008 l 136.129,0 c 17.634,0 32.005,14.324 32.005,32.008 l 0,736.527 c 0,17.684 -14.371,32.031 -32.005,32.031 z" /></g></g></g></svg>