<?xml version="1.0" encoding="UTF-8" standalone="no"?>
<svg
   xmlns:dc="http://purl.org/dc/elements/1.1/"
   xmlns:cc="http://creativecommons.org/ns#"
   xmlns:rdf="http://www.w3.org/1999/02/22-rdf-syntax-ns#"
   xmlns:svg="http://www.w3.org/2000/svg"
   xmlns="http://www.w3.org/2000/svg"
   xmlns:sodipodi="http://sodipodi.sourceforge.net/DTD/sodipodi-0.dtd"
   xmlns:inkscape="http://www.inkscape.org/namespaces/inkscape"
   viewBox="0 0 142.57376 1025.6716"
   height="1025.6716"
   width="142.57376"
   xml:space="preserve"
   version="1.1"
   id="svg5479"
   sodipodi:docname="DE_620-40.svg"
   inkscape:version="1.0.1 (3bc2e813f5, 2020-09-07)"><sodipodi:namedview
     pagecolor="#ffffff"
     bordercolor="#666666"
     borderopacity="1"
     objecttolerance="10"
     gridtolerance="10"
     guidetolerance="10"
     inkscape:pageopacity="0"
     inkscape:pageshadow="2"
     inkscape:window-width="1920"
     inkscape:window-height="1027"
     id="namedview9734"
     showgrid="false"
     inkscape:zoom="0.64210554"
     inkscape:cx="208.28688"
     inkscape:cy="631.2199"
     inkscape:window-x="-8"
     inkscape:window-y="-8"
     inkscape:window-maximized="1"
     inkscape:current-layer="svg5479" /><metadata
     id="metadata5485"><rdf:RDF><cc:Work
         rdf:about=""><dc:format>image/svg+xml</dc:format><dc:type
           rdf:resource="http://purl.org/dc/dcmitype/StillImage" /><dc:title></dc:title></cc:Work></rdf:RDF></metadata><defs
     id="defs5483" /><path
     id="path5517"
     style="fill:#ffffff;fill-opacity:1;fill-rule:nonzero;stroke:none;stroke-width:1.25"
     d="m 115.30251,7.3775754 c 8.2325,0 14.9125,6.7137496 14.9125,14.9999996 V 1019.3788 l -119.287496,-9.9013 c 1.5775,-317.26117 -2.2162498,-632.66117 0,-949.922425 0.01,-1.875 1.07,-3.6675 2.87125,-4.51125 l 75.5425,-46.7187496 c 0.24875,-0.18125 0.5175,-0.3425 0.805,-0.47875 0.66375,-0.3125 1.3625,-0.45375 2.05625,-0.45875 l 0.0438,-0.01 z" /><path
     id="path5519"
     style="fill:#000000;fill-opacity:1;fill-rule:nonzero;stroke:none;stroke-width:1.25"
     d="m 91.948764,4.8725754 -0.3375,0.0825 0.56625,-0.0675 c -1.015,0.01375 -2.08,0.21875 -3.09,0.6925 -0.445,0.21 -0.85,0.455 -1.21125,0.71875 l 0.15125,-0.1025 -75.5425,46.7274996 0.24875,-0.14125 c -2.69,1.26 -4.2862498,3.955 -4.3012498,6.7625 -2.21625,317.285005 1.5774998,632.691255 0,949.922425 l -0.015,2.3088 124.2924958,10.3125 V 22.377575 c 0,-9.62875 -7.8175,-17.4949996 -17.4125,-17.4949996 z m 0.6,5.005 h 22.748746 c 6.875,0 12.4175,5.5562496 12.4175,12.4999996 V 1016.665 l -114.287496,-9.4875 c 1.5475,-316.50867 -2.21125,-631.14742 0,-947.602425 0.01,-0.9425 0.5225,-1.84125 1.43125,-2.26625 l 0.12625,-0.06375 75.7475,-46.84 0.0725,-0.05375 c 0.1375,-0.0975 0.26875,-0.18125 0.40125,-0.245 h 0.005 c 0.3175,-0.1512496 0.64875,-0.2187496 1.01,-0.2187496 h 0.28875 z" /><path
     id="path5521"
     style="fill:#000000;fill-opacity:1;fill-rule:evenodd;stroke:none;stroke-width:1.25"
     d="m 129.99501,187.39258 v 250 l -119.608746,69.0525 c -0.245,-83.19875 -0.4399998,-166.41125 -0.38125,-249.78 z" /><path
     id="path5739"
     style="fill:#ffffff;fill-opacity:1;fill-rule:nonzero;stroke:none;stroke-width:1.25"
     d="m 49.995014,257.59758 h 40 v 180 h -40 z" /></svg>
