<?xml version="1.0" encoding="UTF-8" standalone="no"?>
<svg
   xmlns:dc="http://purl.org/dc/elements/1.1/"
   xmlns:cc="http://creativecommons.org/ns#"
   xmlns:rdf="http://www.w3.org/1999/02/22-rdf-syntax-ns#"
   xmlns:svg="http://www.w3.org/2000/svg"
   xmlns="http://www.w3.org/2000/svg"
   viewBox="0 0 484.38962 1371.5221"
   height="1371.5221"
   width="484.38962"
   xml:space="preserve"
   version="1.1"
   id="svg5082"><metadata
     id="metadata5088"><rdf:RDF><cc:Work
         rdf:about=""><dc:format>image/svg+xml</dc:format><dc:type
           rdf:resource="http://purl.org/dc/dcmitype/StillImage" /><dc:title></dc:title></cc:Work></rdf:RDF></metadata><defs
     id="defs5086"><clipPath
       id="clipPath5098"
       clipPathUnits="userSpaceOnUse"><path
         id="path5100"
         d="m 93.754,1096.616 200,0 0,-801 -200,0 0,801 z" /></clipPath><clipPath
       id="clipPath5108"
       clipPathUnits="userSpaceOnUse"><path
         id="path5110"
         d="m 93,296 201,0 0,802 -201,0 0,-802 z" /></clipPath></defs><g
     transform="matrix(1.25,0,0,-1.25,0,1371.5221)"
     id="g5090"><g
       id="g5092" /><g
       id="g5094"><g
         clip-path="url(#clipPath5098)"
         id="g5096"><g
           transform="translate(0,-0.782349)"
           id="g5102"><g
             id="g5104"><g
               clip-path="url(#clipPath5108)"
               id="g5106"><g
                 id="g5112"><path
                   id="path5114"
                   style="fill:#ffffff;fill-opacity:1;fill-rule:nonzero;stroke:none"
                   d="m 261.637,1097.199 -135.762,0 c -17.59,0 -31.922,-14.347 -31.922,-32.031 l 0,-736.527 c 0,-17.684 14.332,-32.008 31.922,-32.008 l 135.762,0 c 17.59,0 31.922,14.324 31.922,32.008 l 0,736.527 c 0,17.684 -14.332,32.031 -31.922,32.031 z" /></g></g></g></g></g></g><g
       id="g5116"><path
         id="path5118"
         style="fill:#c1121c;fill-opacity:1;fill-rule:nonzero;stroke:none"
         d="m 126.066,1096.417 c -17.707,0 -32.113,-14.442 -32.113,-32.223 l 0,-169.105 190.809,191.347 c -5.821,6.141 -14.035,9.981 -23.125,9.981 l -135.571,0 z" /><path
         id="path5120"
         style="fill:#c1121c;fill-opacity:1;fill-rule:nonzero;stroke:none"
         d="M 293.559,896.878 93.953,696.737 l 0,-201.347 199.606,200.164 0,201.324 z" /><path
         id="path5122"
         style="fill:#c1121c;fill-opacity:1;fill-rule:nonzero;stroke:none"
         d="M 293.559,496.612 103.012,305.55 c 4.722,-4.864 10.961,-8.231 17.945,-9.321 1.488,-0.211 3,-0.324 4.523,-0.324 l 136.559,0 c 1.527,0 3.027,0.113 4.488,0.32 15.282,2.368 27.032,15.622 27.032,31.633 l 0,168.754 z" /><g
         transform="matrix(0.997298,0,0,1,0,1097.2177)"
         id="g5124"><path
           id="path5126"
           style="fill:none;stroke:#000000;stroke-width:1.60216606;stroke-linecap:butt;stroke-linejoin:miter;stroke-miterlimit:4;stroke-dasharray:none;stroke-opacity:1"
           d="m 262.346,-0.801 -136.13,0 c -17.634,0 -32.004,-14.347 -32.004,-32.031 l 0,-736.527 c 0,-17.684 14.37,-32.008 32.004,-32.008 l 136.13,0 c 17.633,0 32.004,14.324 32.004,32.008 l 0,736.527 c 0,17.684 -14.371,32.031 -32.004,32.031 z" /></g><g
         transform="matrix(-1,0,0,-0.999959,0,1097.2177)"
         id="g5128"><path
           id="path5130"
           style="fill:#f0c900;fill-opacity:1;fill-rule:nonzero;stroke:#000000;stroke-width:1.60003304;stroke-linecap:butt;stroke-linejoin:miter;stroke-miterlimit:4;stroke-dasharray:none;stroke-opacity:1"
           d="m -0.801,1056.027 c 0,7.942 -6.437,14.384 -14.379,14.384 -7.945,0 -14.382,-6.442 -14.382,-14.384 0,-7.941 6.437,-14.379 14.382,-14.379 7.942,0 14.379,6.438 14.379,14.379 z" /></g><g
         transform="matrix(-1,0,0,-0.999959,0,1097.2177)"
         id="g5132"><path
           id="path5134"
           style="fill:#f0c900;fill-opacity:1;fill-rule:nonzero;stroke:#000000;stroke-width:1.60003304;stroke-linecap:butt;stroke-linejoin:miter;stroke-miterlimit:4;stroke-dasharray:none;stroke-opacity:1"
           d="m -13.395,1006.178 c 0,7.942 -6.441,14.383 -14.382,14.383 -7.942,0 -14.383,-6.441 -14.383,-14.383 0,-7.942 6.441,-14.38 14.383,-14.38 7.941,0 14.382,6.438 14.382,14.38 z" /></g><g
         transform="matrix(1,0,0,-0.999959,0,1097.2177)"
         id="g5136"><path
           id="path5138"
           style="fill:#f0c900;fill-opacity:1;fill-rule:nonzero;stroke:#000000;stroke-width:1.60003304;stroke-linecap:butt;stroke-linejoin:miter;stroke-miterlimit:4;stroke-dasharray:none;stroke-opacity:1"
           d="m 386.711,1056.027 c 0,7.942 -6.438,14.384 -14.379,14.384 -7.945,0 -14.383,-6.442 -14.383,-14.384 0,-7.941 6.438,-14.379 14.383,-14.379 7.941,0 14.379,6.438 14.379,14.379 z" /></g><g
         transform="matrix(1,0,0,-0.999959,0,1097.2177)"
         id="g5140"><path
           id="path5142"
           style="fill:#f0c900;fill-opacity:1;fill-rule:nonzero;stroke:#000000;stroke-width:1.60003304;stroke-linecap:butt;stroke-linejoin:miter;stroke-miterlimit:4;stroke-dasharray:none;stroke-opacity:1"
           d="m 374.117,1006.178 c 0,7.942 -6.441,14.383 -14.383,14.383 -7.941,0 -14.382,-6.441 -14.382,-14.383 0,-7.942 6.441,-14.38 14.382,-14.38 7.942,0 14.383,6.438 14.383,14.38 z" /></g><g
         transform="matrix(-1,0,0,-0.999959,0,1097.2177)"
         id="g5144"><path
           id="path5146"
           style="fill:#f0c900;fill-opacity:1;fill-rule:nonzero;stroke:#000000;stroke-width:1.60003304;stroke-linecap:butt;stroke-linejoin:miter;stroke-miterlimit:4;stroke-dasharray:none;stroke-opacity:1"
           d="m -19.348,1096.463 -74.445,-294.633 -199.914,0 -74.445,294.633 348.804,-0.078 0,0.078 z" /></g></g></g></svg>