<?xml version="1.0" encoding="UTF-8" standalone="no"?>
<svg
   xmlns:dc="http://purl.org/dc/elements/1.1/"
   xmlns:cc="http://creativecommons.org/ns#"
   xmlns:rdf="http://www.w3.org/1999/02/22-rdf-syntax-ns#"
   xmlns:svg="http://www.w3.org/2000/svg"
   xmlns="http://www.w3.org/2000/svg"
   viewBox="0 0 1192 1589.3333"
   height="1589.3333"
   width="1192"
   xml:space="preserve"
   id="svg1016"
   version="1.1"><metadata
     id="metadata1022"><rdf:RDF><cc:Work
         rdf:about=""><dc:format>image/svg+xml</dc:format><dc:type
           rdf:resource="http://purl.org/dc/dcmitype/StillImage" /><dc:title></dc:title></cc:Work></rdf:RDF></metadata><defs
     id="defs1020" /><g
     transform="matrix(1.3333333,0,0,-1.3333333,0,1589.3333)"
     id="g1024"><g
       id="g1026"><g
         transform="translate(0,1192)"
         id="g1028"><path
           id="path1030"
           style="fill:#ffffff;fill-opacity:1;fill-rule:nonzero;stroke:#231f20;stroke-width:0.375;stroke-linecap:butt;stroke-linejoin:miter;stroke-miterlimit:4;stroke-dasharray:none;stroke-opacity:1"
           d="m 893.906,-1111.629 c 0,-43.836 -35.535,-79.371 -79.367,-79.371 H 80.371 C 36.535,-1191 1,-1155.465 1,-1111.629 V -79.824 c 0,43.832 35.535,79.367 79.371,79.367 h 734.168 c 43.832,0 79.367,-35.535 79.367,-79.367 z" /></g><path
         id="path1032"
         style="fill:#231f20;fill-opacity:1;fill-rule:nonzero;stroke:none"
         d="m 80.371,1171.703 c -32.879,0 -59.531,-26.652 -59.531,-59.531 V 80.371 C 20.84,47.492 47.492,20.84 80.371,20.84 h 734.168 c 32.875,0 59.527,26.652 59.527,59.531 v 1031.801 c 0,32.879 -26.652,59.531 -59.527,59.531 z m 0,-29.765 h 734.168 c 16.438,0 29.762,-13.325 29.762,-29.766 V 80.371 c 0,-16.441 -13.324,-29.766 -29.762,-29.766 H 80.371 c -16.437,0 -29.766,13.325 -29.766,29.766 v 1031.801 c 0,16.441 13.329,29.766 29.766,29.766 z" /><path
         id="path1034"
         style="fill:#231f20;fill-opacity:1;fill-rule:nonzero;stroke:none"
         d="m 284.461,1063.984 c -7.828,0 -14.172,-6.343 -14.172,-14.172 V 723.828 c 0,-7.824 6.344,-14.172 14.172,-14.172 h 325.984 c 7.828,0 14.172,6.348 14.172,14.172 v 325.984 c 0,7.829 -6.344,14.172 -14.172,14.172 z m 191.34,-17.714 134.644,-159.45 -134.644,-159.445 -65.688,54.008 51.735,62.918 H 288.004 v 85.039 h 173.844 l -51.735,62.918 z" /><path
         id="path1036"
         style="fill:#008754;fill-opacity:1;fill-rule:nonzero;stroke:none"
         d="m 302.18,858.477 v 56.691 h 189.672 l -61.79,75.144 43.79,36.008 114.699,-139.5 -114.699,-139.5 -43.79,36.008 61.79,75.149 H 302.18" /><path
         id="path1038"
         style="fill:#231f20;fill-opacity:1;fill-rule:nonzero;stroke:none"
         d="m 483.02,411.609 29.062,-0.011 c 15.531,0 29.254,-10.118 33.848,-24.953 l 25.793,-83.122 c 5.793,1.18 11.691,1.774 17.605,1.774 48.766,0 88.297,-39.531 88.297,-88.297 0,-48.766 -39.531,-88.301 -88.297,-88.301 -48.766,0 -88.301,39.535 -88.301,88.301 0,35.473 21.231,67.5 53.899,81.32 L 547.738,321.066 443.031,204.848 C 439.672,201.125 434.895,199 429.879,199 l -37.223,-0.008 c -8.422,-41.238 -44.699,-70.859 -86.793,-70.859 -48.922,0 -88.582,39.66 -88.582,88.582 0,48.922 39.66,88.582 88.582,88.582 9.325,0 18.586,-1.473 27.449,-4.359 l 25.719,57.539 -6.64,17.711 h -19.926 v 17.71 l 75.301,-0.015 c 0.004,0 0,0 0.004,0 v -0.004 0.004 -0.004 c 2.425,0 4.394,-1.969 4.394,-4.395 0,-2.027 -1.387,-3.789 -3.359,-4.269 l -37.496,-9.027 6.644,-17.711 h 158.203 l -7.148,22.925 c -2.297,7.418 -9.156,12.477 -16.922,12.477 l -29.066,0.019 v 17.711" /><path
         id="path1040"
         style="fill:#ffffff;fill-opacity:1;fill-rule:nonzero;stroke:none"
         d="M 541.641,340.766 430.734,217.723 384.594,340.766 h 157.047" /><path
         id="path1042"
         style="fill:#ffffff;fill-opacity:1;fill-rule:nonzero;stroke:none"
         d="m 576.969,286.547 0.027,0.094 c 4.07,0.718 8.195,1.082 12.332,1.082 39.137,0 70.863,-31.727 70.863,-70.868 0,-39.136 -31.726,-70.863 -70.863,-70.863 -39.14,0 -70.867,31.727 -70.867,70.863 0,27.821 16.277,53.071 41.617,64.551 l 20.719,-67.328 c 1.156,-3.742 4.613,-6.293 8.531,-6.293 4.93,0 8.93,4 8.93,8.93 0,0.902 -0.137,1.797 -0.406,2.656 l -20.883,67.176" /><path
         id="path1044"
         style="fill:#ffffff;fill-opacity:1;fill-rule:nonzero;stroke:none"
         d="m 412.172,216.773 -17.727,-0.058 c 0,31.91 -17.16,61.355 -44.925,77.078 l 18.367,41.074 44.285,-118.094" /><path
         id="path1046"
         style="fill:#ffffff;fill-opacity:1;fill-rule:nonzero;stroke:none"
         d="m 376.789,216.766 -0.043,0.007 h -61.617 l 27.117,60.754 c 21.391,-12.793 34.484,-35.886 34.484,-60.812 l 0.059,0.051" /><path
         id="path1048"
         style="fill:#ffffff;fill-opacity:1;fill-rule:nonzero;stroke:none"
         d="m 374.496,199.062 -0.016,-0.066 c -8.082,-31.285 -36.3,-53.148 -68.617,-53.148 -39.136,0 -70.863,31.73 -70.863,70.867 0,39.137 31.727,70.867 70.863,70.867 6.828,0 13.621,-0.988 20.168,-2.934 L 293.32,211.574 c -0.511,-1.144 -0.781,-2.39 -0.781,-3.644 0,-4.934 4,-8.93 8.93,-8.93 l 73.027,0.062" /><path
         id="path1050"
         style="fill:#231f20;fill-opacity:1;fill-rule:nonzero;stroke:none"
         d="m 291.648,505.961 v 109.332 h 21.868 v -12.34 c 7.004,8.668 17.554,13.707 28.699,13.707 20.383,0 36.902,-16.519 36.902,-36.898 V 505.961 H 357.25 v 66.965 c 0,12.078 -9.789,21.867 -21.867,21.867 -12.078,0 -21.867,-9.789 -21.867,-21.867 v -66.965 z m 205.004,0 h -21.867 v 12.34 c -7.004,-8.672 -17.555,-13.707 -28.699,-13.707 -20.383,0 -36.902,16.519 -36.902,36.898 v 73.801 h 21.867 v -66.969 c 0,-12.074 9.793,-21.863 21.867,-21.863 12.078,0 21.867,9.789 21.867,21.863 v 66.969 h 21.867 z m 32.801,0 v 109.332 h 21.867 v -12.34 c 7.004,8.668 17.555,13.707 28.7,13.707 8.46,0 16.664,-2.906 23.234,-8.23 l -15.531,-19.164 c -4.004,3.558 -9.176,5.527 -14.535,5.527 -12.079,0 -21.868,-9.789 -21.868,-21.867 v -66.965 h -21.867" /></g></g></svg>