<?xml version="1.0" encoding="UTF-8" standalone="no"?>
<svg
   xmlns:dc="http://purl.org/dc/elements/1.1/"
   xmlns:cc="http://creativecommons.org/ns#"
   xmlns:rdf="http://www.w3.org/1999/02/22-rdf-syntax-ns#"
   xmlns:svg="http://www.w3.org/2000/svg"
   xmlns="http://www.w3.org/2000/svg"
   xmlns:sodipodi="http://sodipodi.sourceforge.net/DTD/sodipodi-0.dtd"
   xmlns:inkscape="http://www.inkscape.org/namespaces/inkscape"
   viewBox="0 0 847.15851 743.62274"
   height="743.62274"
   width="847.15851"
   xml:space="preserve"
   version="1.1"
   id="svg4600"
   sodipodi:docname="DE_108-12.svg"
   inkscape:version="1.0.1 (3bc2e813f5, 2020-09-07)"><sodipodi:namedview
     pagecolor="#ffffff"
     bordercolor="#666666"
     borderopacity="1"
     objecttolerance="10"
     gridtolerance="10"
     guidetolerance="10"
     inkscape:pageopacity="0"
     inkscape:pageshadow="2"
     inkscape:window-width="1920"
     inkscape:window-height="1027"
     id="namedview1484"
     showgrid="false"
     inkscape:zoom="0.98840441"
     inkscape:cx="423.57925"
     inkscape:cy="371.81137"
     inkscape:window-x="-8"
     inkscape:window-y="-8"
     inkscape:window-maximized="1"
     inkscape:current-layer="layer2" /><metadata
     id="metadata4606"><rdf:RDF><cc:Work
         rdf:about=""><dc:format>image/svg+xml</dc:format><dc:type
           rdf:resource="http://purl.org/dc/dcmitype/StillImage" /><dc:title></dc:title></cc:Work></rdf:RDF></metadata><defs
     id="defs4604" /><path
     id="path4612"
     style="fill:#ffffff;fill-opacity:1;fill-rule:nonzero;stroke:none;stroke-width:1.25"
     d="m 423.58375,0.49774 c -9.39,0 -18.77875,3.58375 -25.9475,10.7475 -2.34875,2.34875 -4.30625,4.94125 -5.88375,7.69 l -19.0575,32.695 h -0.0875 L 6.23,686.68399 c -0.0675,0.1175 -0.12125,0.24 -0.19,0.3625 -1.855,2.9875 -3.32,6.3025 -4.2875,9.8875 -5.23875,19.57 6.3775,39.6925 25.9525,44.93625 3.2325,0.86875 6.485,1.265 9.6675,1.25 h 772.59375 c 20.26375,0 36.68875,-16.42625 36.68875,-36.695 0,-6.625 -1.7675,-12.85125 -4.84875,-18.2225 -0.0237,-0.0437 -0.0487,-0.0775 -0.0625,-0.12125 L 461.27875,27.56774 c -4.82375,-8.33 -7.06,-11.63 -11.7525,-16.3225 -7.1625,-7.16375 -16.5525,-10.7475 -25.9425,-10.7475 z" /><path
     id="path4614"
     style="fill:#c1121c;fill-opacity:1;fill-rule:nonzero;stroke:none;stroke-width:1.25"
     d="M 423.58375,9.69274 C 414.6775,9.62899 404.8975,14.18399 400.1075,22.69524 L 13.49125,692.56399 c -2.23125,4.56 -3.16875,8.525 -3.19875,13.06125 0,8.12 3.59375,15.825 9.81,21.055 5.48375,4.2375 10.66875,6.445 17.65125,6.445 h 772.3825 c 4.7125,0.0438 9.43375,-1.08875 13.72625,-3.91625 8.05625,-4.86875 12.9975,-13.60375 13.0075,-23.0325 -0.22875,-4.8675 -1.43,-10 -3.59875,-13.6125 L 446.88,22.58774 c -0.0337,-0.05875 -0.0738,-0.1175 -0.1125,-0.17625 -0.0387,-0.0575 -0.0775,-0.11125 -0.1175,-0.18 -1.36625,-2.1975 -3.085,-4.13125 -5.05375,-5.79125 -4.4825,-3.88625 -10.1025,-6.22 -16.025,-6.64 -0.66375,-0.06375 -1.3275,-0.1025 -1.9875,-0.1075 z m -385.83,723.4325 H 35.85 37.7925 Z m 385.43,-590.66375 294.62875,510.66375 H 128.14 Z" /><path
     id="path4616"
     style="fill:#000000;fill-opacity:1;fill-rule:nonzero;stroke:none;stroke-width:1.25"
     d="m 423.58375,2.4e-4 c -9.52125,0 -19.0375,3.6325 -26.29875,10.89875 -2.3825,2.3725 -4.365,5.00875 -5.96625,7.7875 L 372.4075,51.13274 h -0.0888 L 5.80125,686.43024 c -0.08375,0.1475 -0.1475,0.27375 -0.20125,0.37625 -1.87875,3.0275 -3.35375,6.3775 -4.325,9.995 -5.3125,19.83875 6.46375,40.235 26.29875,45.5525 3.27625,0.87875 6.57125,1.27875 9.79875,1.26875 h 772.59375 c 20.53125,0 37.1925,-16.66 37.1925,-37.1975 0,-6.71875 -1.7975,-13.0175 -4.9175,-18.46625 -0.02,-0.02 -0.0338,-0.0638 -0.0638,-0.1225 L 461.72375,27.31899 C 456.885,18.98399 454.605,15.61524 449.8875,10.89899 442.6275,3.63274 433.105,2.4e-4 423.58875,2.4e-4 Z m 0,0.4975 c 9.39,0 18.78,3.58375 25.9425,10.7475 4.6925,4.6925 6.92875,7.9925 11.7525,16.3225 l 380.46,660.51375 c 0.0188,0.0437 0.0438,0.0775 0.0675,0.12125 3.08125,5.37125 4.84875,11.5975 4.84875,18.2225 0,20.26875 -16.425,36.695 -36.68875,36.695 H 37.3725 c -3.1825,0.015 -6.435,-0.38125 -9.6675,-1.25 C 8.13,736.62649 -3.48625,716.50399 1.7525,696.93399 c 0.9625,-3.585 2.4325,-6.9 4.2875,-9.8875 0.06875,-0.1225 0.1225,-0.245 0.19,-0.3625 L 372.6075,51.63024 h 0.0875 l 19.0575,-32.695 c 1.5775,-2.74875 3.535,-5.34125 5.88375,-7.69 C 404.805,4.08149 414.19,0.49774 423.58375,0.49774 Z" /><path
     id="path4618"
     style="fill:#000000;fill-opacity:1;fill-rule:nonzero;stroke:none;stroke-width:1.25"
     d="m 145.7275,642.98774 139.22375,-240.995 417.45125,240.995" /><path
     id="path4620"
     style="fill:#000000;fill-opacity:1;fill-rule:nonzero;stroke:none;stroke-width:1.25"
     d="m 334.8925,404.41399 45.17125,-77.66125 -18.57875,1.94375 8.095,-13.91625 18.54,-1.88 13.16375,7.65625 -53.2275,91.51375 z" /><path
     id="path4622"
     style="fill:#000000;fill-opacity:1;fill-rule:nonzero;stroke:none;stroke-width:1.25"
     d="M 422.6225,419.95649 445.19,381.15274 c 2.54875,-4.385 3.355,-8.50625 2.4025,-12.35875 -0.9025,-3.82375 -3.28125,-6.855 -7.12375,-9.09125 -3.88625,-2.26125 -7.715,-2.8375 -11.48875,-1.73375 -3.775,1.10375 -6.93875,3.8475 -9.4925,8.2375 l -22.56875,38.79875 c -2.5725,4.42875 -3.4075,8.55875 -2.505,12.3875 0.9325,3.78375 3.34,6.80625 7.2275,9.0675 3.8425,2.23625 7.64125,2.8225 11.39125,1.7575 3.81375,-1.07875 7.01125,-3.8325 9.59,-8.26125 z m -39.23875,-21.81625 23.4425,-40.30875 c 4.8825,-8.3975 11.28375,-13.34375 19.19875,-14.83375 7.94,-1.5375 15.29375,-0.33625 22.06625,3.60375 6.72375,3.91125 11.38625,9.6975 13.97875,17.35875 2.65625,7.64125 1.54375,15.66375 -3.345,24.0625 l -23.44125,40.3025 c -4.88875,8.40375 -11.30875,13.335 -19.26375,14.805 -7.915,1.48875 -15.23375,0.2775 -21.9625,-3.63375 -6.7725,-3.94 -11.465,-9.71625 -14.0825,-17.33375 -2.61125,-7.61625 -1.47875,-15.625 3.40875,-24.0225 z" /><path
     id="path4624"
     style="fill:#000000;fill-opacity:1;fill-rule:nonzero;stroke:none;stroke-width:1.25"
     d="m 443.25625,467.19774 96.12375,-66.455 8.91625,5.19 -96.01625,66.455 z m 62.955,-56.1875 c -3.60875,6.31875 -11.73375,8.4625 -18.0525,4.84875 -6.3175,-3.6075 -8.46125,-11.7325 -4.8525,-18.05125 l 6.66,-11.39625 c 3.6075,-6.31875 11.7325,-8.575 18.05125,-4.84875 6.31875,3.60875 8.4625,11.73375 4.73625,18.05125 z m -6.54375,-3.8375 6.65625,-11.39625 c 1.46375,-2.705 0.56625,-6.20625 -2.14375,-7.67125 -2.71,-1.5775 -6.09375,-0.67875 -7.67125,2.03125 l -6.655,11.39625 c -1.5825,2.705 -0.56625,6.20625 2.14375,7.78375 2.705,1.5825 6.08875,0.67875 7.67,-2.14375 z m -14.21875,54.94625 -6.655,11.39625 c -3.60875,6.31875 -1.465,14.43875 4.85375,18.0525 6.31875,3.72 14.43875,1.465 18.05125,-4.85375 l 6.54375,-11.39625 c 3.72,-6.31875 1.465,-14.32625 -4.85375,-18.0525 -6.20625,-3.6075 -14.32625,-1.465 -17.94,4.85375 z m 6.54875,3.72125 c 1.465,-2.59375 4.96,-3.60875 7.67,-2.03125 2.705,1.58125 3.60875,5.0775 2.03125,7.675 l -6.5425,11.50875 c -1.5825,2.705 -5.0775,3.60875 -7.7875,2.02625 -2.70625,-1.57625 -3.60875,-4.96 -2.03125,-7.67 z" /><path
     id="path4626"
     style="fill:#000000;fill-opacity:1;fill-rule:nonzero;stroke:none;stroke-width:1.25"
     d="m 443.25625,467.19774 96.12375,-66.455 8.91625,5.19 -96.01625,66.455 z m 62.955,-56.1875 c -3.60875,6.31875 -11.73375,8.4625 -18.0525,4.84875 -6.3175,-3.6075 -8.46125,-11.7325 -4.8525,-18.05125 l 6.66,-11.39625 c 3.6075,-6.31875 11.7325,-8.575 18.05125,-4.84875 6.31875,3.60875 8.4625,11.73375 4.73625,18.05125 z m -6.54375,-3.8375 6.65625,-11.39625 c 1.46375,-2.705 0.56625,-6.20625 -2.14375,-7.67125 -2.71,-1.5775 -6.09375,-0.67875 -7.67125,2.03125 l -6.655,11.39625 c -1.5825,2.705 -0.56625,6.20625 2.14375,7.78375 2.705,1.5825 6.08875,0.67875 7.67,-2.14375 z m -14.21875,54.94625 -6.655,11.39625 c -3.60875,6.31875 -1.465,14.43875 4.85375,18.0525 6.31875,3.72 14.43875,1.465 18.05125,-4.85375 l 6.54375,-11.39625 c 3.72,-6.31875 1.465,-14.32625 -4.85375,-18.0525 -6.20625,-3.6075 -14.32625,-1.465 -17.94,4.85375 z m 6.54875,3.72125 c 1.465,-2.59375 4.96,-3.60875 7.67,-2.03125 2.705,1.58125 3.60875,5.0775 2.03125,7.675 l -6.5425,11.50875 c -1.5825,2.705 -5.0775,3.60875 -7.7875,2.02625 -2.70625,-1.57625 -3.60875,-4.96 -2.03125,-7.67 z" /><g
     inkscape:groupmode="layer"
     id="layer1"
     inkscape:label="Layer 1" /><g
     inkscape:groupmode="layer"
     id="layer3"
     inkscape:label="Layer 3"><rect
       style="fill:#ffffff;stroke-width:15.524;stroke-linejoin:round"
       id="rect2088"
       width="131.52512"
       height="150.74802"
       x="469.97223"
       y="44.825565"
       transform="rotate(30.338209)" /></g><g
     inkscape:groupmode="layer"
     id="layer2"
     inkscape:label="Layer 2"><text
       xml:space="preserve"
       style="font-size:149.583px;line-height:87.6458px;font-family:'DIN 1451 Mittelschrift';-inkscape-font-specification:'DIN 1451 Mittelschrift';letter-spacing:0px;word-spacing:0px;fill:#000000;stroke:#000000;stroke-width:3.50583px;stroke-linecap:butt;stroke-linejoin:miter;stroke-opacity:1"
       x="469.9483"
       y="180.11732"
       id="text2066"
       transform="rotate(29.73639)"><tspan
         sodipodi:role="line"
         id="tspan2064"
         x="469.9483"
         y="180.11732"
         style="fill:#000000;stroke-width:3.50583px">12</tspan></text></g></svg>
