<?xml version="1.0" encoding="UTF-8" standalone="no"?>
<svg
   xmlns:dc="http://purl.org/dc/elements/1.1/"
   xmlns:cc="http://creativecommons.org/ns#"
   xmlns:rdf="http://www.w3.org/1999/02/22-rdf-syntax-ns#"
   xmlns:svg="http://www.w3.org/2000/svg"
   xmlns="http://www.w3.org/2000/svg"
   viewBox="0 0 600 330"
   height="330"
   width="600"
   xml:space="preserve"
   version="1.1"
   id="svg14971"><metadata
     id="metadata14977"><rdf:RDF><cc:Work
         rdf:about=""><dc:format>image/svg+xml</dc:format><dc:type
           rdf:resource="http://purl.org/dc/dcmitype/StillImage" /><dc:title></dc:title></cc:Work></rdf:RDF></metadata><defs
     id="defs14975"><clipPath
       id="clipPath14989"
       clipPathUnits="userSpaceOnUse"><path
         id="path14991"
         d="M 0,0 480,0 480,264 0,264 0,0 Z" /></clipPath><clipPath
       id="clipPath15007"
       clipPathUnits="userSpaceOnUse"><path
         id="path15009"
         d="m 45,97 390,0 0,70 -390,0 0,-70 z" /></clipPath></defs><g
     transform="matrix(1.25,0,0,-1.25,0,330)"
     id="g14979"><g
       id="g14981"><g
         id="g14983"><g
           id="g14985"><g
             clip-path="url(#clipPath14989)"
             id="g14987"><g
               id="g14993"><path
                 id="path14995"
                 style="fill:#ffffff;fill-opacity:1;fill-rule:nonzero;stroke:none"
                 d="m 31.996,263.758 c -17.512,0 -31.754,-14.254 -31.754,-31.766 l 0,-199.996 C 0.242,14.484 14.484,0.242 31.996,0.242 l 416.008,0 c 17.512,0 31.754,14.242 31.754,31.754 l 0,199.996 c 0,17.512 -14.242,31.766 -31.754,31.766" /><path
                 id="path14997"
                 style="fill:#000000;fill-opacity:1;fill-rule:nonzero;stroke:none"
                 d="M 31.996,0.484 C 14.613,0.484 0.484,14.613 0.484,31.996 l 0,199.996 c 0,17.383 14.129,31.524 31.512,31.524 l 416.008,0 c 17.383,0 31.512,-14.141 31.512,-31.524 l 0,-199.996 c 0,-17.383 -14.129,-31.512 -31.512,-31.512 l -416.008,0 z M 448.004,264 31.996,264 C 14.32,264 0,249.672 0,231.992 L 0,31.996 C 0,14.328 14.32,0 31.996,0 L 448.004,0 C 465.672,0 480,14.328 480,31.996 l 0,199.996 C 480,249.672 465.672,264 448.004,264" /></g></g></g></g><path
         id="path14999"
         style="fill:#000000;fill-opacity:1;fill-rule:nonzero;stroke:none"
         d="m 31.996,19.996 416.008,0 c 6.629,0 12,5.371 12,12 l 0,199.996 c 0,6.629 -5.371,12 -12,12 l -416.008,0 c -6.629,0 -12,-5.371 -12,-12 l 0,-199.996 c 0,-6.629 5.371,-12 12,-12 z m 0,-12 c -13.258,0 -24,10.742 -24,24 l 0,199.996 c 0,13.258 10.742,24 24,24 l 416.008,0 c 13.258,0 24,-10.742 24,-24 l 0,-199.996 c 0,-13.258 -10.742,-24 -24,-24" /><g
         id="g15001"><g
           id="g15003"><g
             clip-path="url(#clipPath15007)"
             id="g15005"><g
               id="g15011"><path
                 id="path15013"
                 style="fill:#000000;fill-opacity:1;fill-rule:nonzero;stroke:none"
                 d="m 404.945,127.605 20.395,0 c 0,5.645 -4.567,10.239 -10.192,10.239 -5.64,0 -10.203,-4.594 -10.203,-10.239 m 29.985,-8.429 -29.985,0 0,-1.196 c 0,-4.179 2.539,-7.949 6.407,-9.511 1.586,-0.629 3.289,-0.953 4.988,-0.953 3.926,0 7.637,1.707 10.187,4.691 l 7.285,-6.269 c -4.378,-5.122 -10.757,-8.063 -17.472,-8.063 -2.918,0 -5.824,0.566 -8.547,1.664 -7.523,3.012 -12.441,10.309 -12.441,18.441 l 0,9.625 c 0,10.965 8.859,19.864 19.796,19.864 10.926,0 19.782,-8.899 19.782,-19.864 l 0,-8.429 z m -91.157,-20.461 0,48.144 9.59,0 0,-5.433 c 3.078,3.828 7.711,6.043 12.602,6.043 8.941,0 16.18,-7.278 16.18,-16.25 l 0,-32.504 -9.594,0 0,29.488 c 0,5.317 -4.293,9.641 -9.594,9.641 -5.297,0 -9.594,-4.324 -9.594,-9.641 l 0,-29.488 -9.59,0 z m -43.195,19.265 c 0,-5.66 4.563,-10.238 10.192,-10.238 5.636,0 10.203,4.578 10.203,10.238 l 0,9.625 c 0,5.645 -4.567,10.239 -10.203,10.239 -5.629,0 -10.192,-4.594 -10.192,-10.239 l 0,-9.625 z m -9.594,0 0,9.625 c 0,10.965 8.86,19.864 19.786,19.864 10.937,0 19.796,-8.899 19.796,-19.864 l 0,-9.625 c 0,-10.976 -8.859,-19.863 -19.796,-19.863 -10.926,0 -19.786,8.887 -19.786,19.863 m -44.382,-19.265 0,7.82 23.992,31.906 -22.801,0 0,8.418 34.789,0 0,-7.211 -23.988,-31.906 23.988,0 0,-9.027 -35.98,0 z m -38.387,28.89 20.39,0 c 0,5.645 -4.562,10.239 -10.203,10.239 -5.625,0 -10.187,-4.594 -10.187,-10.239 m 29.984,-8.429 -29.984,0 0,-1.196 c 0,-4.179 2.535,-7.949 6.406,-9.511 1.586,-0.629 3.274,-0.953 4.988,-0.953 3.911,0 7.637,1.707 10.188,4.691 l 7.285,-6.269 c -4.379,-5.122 -10.758,-8.063 -17.473,-8.063 -2.933,0 -5.839,0.566 -8.558,1.664 -7.512,3.012 -12.442,10.309 -12.442,18.441 l 0,9.625 c 0,10.965 8.868,19.864 19.793,19.864 10.926,0 19.797,-8.899 19.797,-19.864 l 0,-8.429 z m -62.379,-1.809 0,10.836 c 0,5.317 -4.293,9.641 -9.593,9.641 -5.297,0 -9.606,-4.324 -9.606,-9.641 l 0,-10.836 c 0,-5.316 4.309,-9.625 9.606,-9.625 5.3,0 9.593,4.309 9.593,9.625 m 9.594,-18.652 -9.594,0 0,5.43 c -3.074,-3.809 -7.707,-6.028 -12.597,-6.028 -8.942,0 -16.196,7.278 -16.196,16.25 l 0,16.852 c 0,8.972 7.254,16.25 16.196,16.25 4.89,0 9.523,-2.215 12.597,-6.043 l 0,24.699 9.594,0 0,-67.41 z m -61.176,21.07 -13.8,0 c -3.317,0 -5.993,-2.699 -5.993,-6.027 0,-3.313 2.676,-6.016 5.993,-6.016 l 7.808,0 c 3.301,0 5.992,2.703 5.992,6.016 l 0,6.027 z m 9.594,-21.07 -9.594,0 0,4.961 c -1.699,-3.059 -4.914,-4.961 -8.402,-4.961 l -5.992,0 c -7.949,0 -14.399,6.469 -14.399,14.445 0,7.977 6.45,14.445 14.399,14.445 l 14.394,0 0,4.821 c 0,2.633 -1.883,4.879 -4.461,5.332 -1.703,0.301 -3.418,0.441 -5.132,0.441 -1.727,0 -3.442,-0.14 -5.141,-0.441 -1.688,-0.297 -3.133,-1.391 -3.899,-2.93 l -7.582,6.016 c 2.27,3.383 5.825,5.687 9.836,6.398 2.239,0.399 4.504,0.582 6.786,0.582 2.269,0 4.535,-0.183 6.777,-0.582 7.183,-1.265 12.41,-7.508 12.41,-14.816 l 0,-33.711 z m -88.762,0 0,67.41 10.188,0 0,-57.785 32.988,0 0,-9.625 -43.176,0 z" /></g></g></g></g></g></g></svg>