<?xml version="1.0" encoding="UTF-8" standalone="no"?>
<svg
   xmlns:dc="http://purl.org/dc/elements/1.1/"
   xmlns:cc="http://creativecommons.org/ns#"
   xmlns:rdf="http://www.w3.org/1999/02/22-rdf-syntax-ns#"
   xmlns:svg="http://www.w3.org/2000/svg"
   xmlns="http://www.w3.org/2000/svg"
   viewBox="0 0 600 450.00339"
   height="450.00339"
   width="600"
   xml:space="preserve"
   id="svg5575"
   version="1.1"><metadata
     id="metadata5581"><rdf:RDF><cc:Work
         rdf:about=""><dc:format>image/svg+xml</dc:format><dc:type
           rdf:resource="http://purl.org/dc/dcmitype/StillImage" /><dc:title></dc:title></cc:Work></rdf:RDF></metadata><defs
     id="defs5579" /><g
     transform="matrix(1.3333333,0,0,-1.3333333,0,450.00338)"
     id="g5583"><g
       id="g5585"><path
         id="path5587"
         style="fill:#ffffff;fill-opacity:1;fill-rule:nonzero;stroke:none"
         d="m 29.996,337.288 c -16.41,0 -29.769,-13.36 -29.769,-29.782 V 29.999 C 0.227,13.585 13.586,0.225 29.996,0.225 h 390.008 c 16.422,0 29.781,13.36 29.781,29.774 v 277.507 c 0,16.422 -13.359,29.782 -29.781,29.782" /><path
         id="path5589"
         style="fill:#000000;fill-opacity:1;fill-rule:nonzero;stroke:none"
         d="M 29.996,0.44 C 13.699,0.44 0.445,13.698 0.445,29.999 v 277.507 c 0,16.297 13.254,29.555 29.551,29.555 h 390.008 c 16.297,0 29.551,-13.258 29.551,-29.555 V 29.999 C 449.555,13.698 436.301,0.44 420.004,0.44 Z M 420.004,337.503 H 29.996 C 13.434,337.503 0,324.069 0,307.506 V 29.999 c 0,-16.567 13.434,-30 29.996,-30 h 390.008 c 16.562,0 29.996,13.433 29.996,30 v 277.507 c 0,16.563 -13.434,29.997 -29.996,29.997" /><path
         id="path5591"
         style="fill:#000000;fill-opacity:1;fill-rule:nonzero;stroke:none"
         d="M 29.996,7.495 C 17.574,7.495 7.504,17.577 7.504,29.999 v 277.507 c 0,12.43 10.07,22.504 22.492,22.504 h 390.008 c 12.422,0 22.504,-10.074 22.504,-22.504 V 29.999 c 0,-12.422 -10.082,-22.504 -22.504,-22.504" /><path
         id="path5593"
         style="fill:#ffffff;fill-opacity:1;fill-rule:nonzero;stroke:none"
         d="m 29.996,18.753 c -6.203,0 -11.246,5.027 -11.246,11.246 v 277.507 c 0,6.215 5.043,11.247 11.246,11.247 h 390.008 c 6.215,0 11.254,-5.032 11.254,-11.247 V 29.999 c 0,-6.219 -5.039,-11.246 -11.254,-11.246" /><path
         id="path5595"
         style="fill:#000000;fill-opacity:1;fill-rule:nonzero;stroke:none"
         d="m 55.184,186.237 10.804,12.289 c 4.047,-3.258 8.707,-5.871 13.989,-7.848 5.277,-1.972 10.804,-2.961 16.578,-2.961 6.66,0 11.89,1.383 15.691,4.145 3.797,2.766 5.699,6.391 5.699,10.883 0,8.484 -4.687,13.343 -14.062,14.578 -2.469,0.297 -4.762,0.594 -6.883,0.89 -2.121,0.293 -4.59,0.641 -7.402,1.036 -9.325,1.281 -16.43,4.699 -21.317,10.25 -4.883,5.55 -7.328,12.25 -7.328,20.093 0,9.18 3.074,16.727 9.215,22.649 6.145,5.922 14.793,8.883 25.941,8.883 6.664,0 12.93,-1.063 18.801,-3.184 5.871,-2.121 11.274,-4.812 16.207,-8.066 l -9.101,-13.473 c -3.95,2.469 -8.192,4.469 -12.731,5.996 -4.539,1.531 -9.18,2.297 -13.914,2.297 -5.035,0 -9.301,-1.285 -12.805,-3.852 -3.503,-2.566 -5.253,-6.414 -5.253,-11.543 0,-3.062 1.183,-5.921 3.55,-8.586 2.371,-2.664 6.293,-4.417 11.77,-5.257 1.43,-0.246 3.156,-0.504 5.18,-0.778 2.023,-0.269 4.343,-0.554 6.957,-0.847 10.066,-1.235 17.503,-4.887 22.316,-10.957 4.809,-6.067 7.215,-12.778 7.215,-20.129 0,-9.918 -3.43,-17.617 -10.289,-23.094 -6.856,-5.477 -16.059,-8.215 -27.606,-8.215 -16.234,0 -29.976,4.934 -41.222,14.801 z m 114.793,-13.914 v 93.332 h -29.532 v 14.508 h 75.418 v -14.508 h -29.531 v -93.332 z m 53.804,53.883 c 0,12.976 0.348,21.34 1.039,25.09 0.688,3.75 1.922,7.203 3.7,10.363 2.515,4.687 6.648,9.101 12.398,13.246 5.746,4.144 12.863,6.219 21.352,6.219 8.437,0 15.531,-2.075 21.277,-6.219 5.75,-4.145 9.93,-8.559 12.547,-13.246 1.726,-3.16 2.933,-6.613 3.625,-10.363 0.691,-3.75 1.035,-12.114 1.035,-25.09 0,-12.977 -0.344,-21.34 -1.035,-25.09 -0.692,-3.75 -1.899,-7.203 -3.625,-10.363 -2.617,-4.735 -6.797,-9.141 -12.547,-13.211 -5.746,-4.071 -12.84,-6.106 -21.277,-6.106 -8.489,0 -15.606,2.035 -21.352,6.106 -5.75,4.07 -9.883,8.476 -12.398,13.211 -1.778,3.16 -3.012,6.613 -3.7,10.363 -0.691,3.75 -1.039,12.113 -1.039,25.09 z m 16.36,0 c 0,-11.102 0.382,-18.305 1.144,-21.614 0.766,-3.304 2.211,-6.289 4.332,-8.953 1.629,-2.172 3.848,-4.035 6.66,-5.59 2.813,-1.554 6.145,-2.332 9.993,-2.332 3.847,0 7.179,0.778 9.992,2.332 2.812,1.555 5.031,3.418 6.66,5.59 2.121,2.664 3.566,5.649 4.328,8.953 0.766,3.309 1.148,10.512 1.148,21.614 0,11.05 -0.382,18.23 -1.148,21.539 -0.762,3.304 -2.207,6.34 -4.328,9.101 -1.629,2.075 -3.848,3.899 -6.66,5.477 -2.813,1.578 -6.145,2.371 -9.992,2.371 -3.848,0 -7.18,-0.793 -9.993,-2.371 -2.812,-1.578 -5.031,-3.402 -6.66,-5.477 -2.121,-2.761 -3.566,-5.797 -4.332,-9.101 -0.762,-3.309 -1.144,-10.489 -1.144,-21.539 z m 95.992,38.488 v -34.789 h 24.277 c 6.07,0 10.598,1.828 13.582,5.476 2.985,3.653 4.477,7.625 4.477,11.918 0,6.512 -2.344,11.301 -7.031,14.36 -3.008,2.023 -6.883,3.035 -11.622,3.035 z m -16.356,-92.371 v 107.84 h 39.153 c 4.195,-0.004 8.226,-0.446 12.101,-1.336 3.871,-0.887 7.907,-2.957 12.102,-6.215 3.254,-2.516 6.019,-5.984 8.289,-10.399 2.269,-4.417 3.402,-9.535 3.402,-15.359 0,-7.695 -2.871,-15.023 -8.621,-21.98 -5.75,-6.957 -14.148,-10.438 -25.199,-10.438 h -24.871 v -42.113 z" /><path
         id="path5597"
         style="fill:#000000;fill-opacity:1;fill-rule:nonzero;stroke:none"
         d="m 114.715,56.581 v 67.218 l -11.254,-8.211 v 12.02 l 11.254,8.211 h 11.367 V 56.581 Z" /><path
         id="path5599"
         style="fill:#000000;fill-opacity:1;fill-rule:nonzero;stroke:none"
         d="m 178.914,79.831 v 33.664 c 0,3.804 -1.023,6.781 -3.07,8.918 -2.051,2.14 -4.742,3.211 -8.078,3.211 -3.371,0 -6.075,-1.071 -8.102,-3.211 -2.031,-2.137 -3.047,-5.114 -3.047,-8.918 V 79.831 c 0,-3.844 1.016,-6.825 3.047,-8.946 2.027,-2.121 4.731,-3.179 8.102,-3.179 3.336,0 6.027,1.058 8.078,3.179 2.047,2.121 3.07,5.102 3.07,8.946 z M 145.25,79.178 v 34.969 c 0,7.289 2.285,12.918 6.855,16.887 4.567,3.969 9.786,5.953 15.661,5.953 5.836,0 11.05,-1.984 15.636,-5.953 4.586,-3.969 6.879,-9.598 6.879,-16.887 V 79.178 c 0,-7.285 -2.293,-12.906 -6.879,-16.859 -4.586,-3.949 -9.8,-5.926 -15.636,-5.926 -5.875,0 -11.094,1.977 -15.661,5.926 -4.57,3.953 -6.855,9.574 -6.855,16.859 z m 87.18,0.653 v 33.664 c 0,3.804 -1.028,6.781 -3.075,8.918 -2.046,2.14 -4.742,3.211 -8.078,3.211 -3.371,0 -6.07,-1.071 -8.101,-3.211 -2.031,-2.137 -3.047,-5.114 -3.047,-8.918 V 79.831 c 0,-3.844 1.016,-6.825 3.047,-8.946 2.031,-2.121 4.73,-3.179 8.101,-3.179 3.336,0 6.032,1.058 8.078,3.179 2.047,2.121 3.075,5.102 3.075,8.946 z m -33.664,-0.653 v 34.969 c 0,7.289 2.281,12.918 6.851,16.887 4.567,3.969 9.789,5.953 15.66,5.953 5.84,0 11.051,-1.984 15.637,-5.953 4.586,-3.969 6.879,-9.598 6.879,-16.887 V 79.178 c 0,-7.285 -2.293,-12.906 -6.879,-16.859 -4.586,-3.949 -9.797,-5.926 -15.637,-5.926 -5.871,0 -11.093,1.977 -15.66,5.926 -4.57,3.953 -6.851,9.574 -6.851,16.859 z" /><path
         id="path5601"
         style="fill:#000000;fill-opacity:1;fill-rule:nonzero;stroke:none"
         d="m 271.004,56.381 v 54.602 H 282 v -5.84 h 0.211 c 3.469,4.313 8.203,6.469 14.199,6.469 3.824,0 6.856,-0.684 9.102,-2.051 2.242,-1.367 4.347,-3.051 6.312,-5.047 4.313,4.731 10.063,7.098 17.254,7.098 4.242,0 8.336,-1.613 12.281,-4.836 3.946,-3.227 5.918,-7.926 5.918,-14.098 V 56.381 h -10.996 v 32.508 c 0,3.684 -1.031,6.559 -3.101,8.629 -2.071,2.067 -4.629,3.102 -7.68,3.102 -3.156,0 -5.762,-1.035 -7.812,-3.102 -2.051,-2.07 -3.079,-4.945 -3.079,-8.629 V 56.381 h -10.937 v 32.508 c 0,3.684 -1.035,6.559 -3.106,8.629 -2.07,2.067 -4.628,3.102 -7.679,3.102 -3.157,0 -5.758,-1.035 -7.813,-3.102 C 283.023,95.448 282,92.573 282,88.889 V 56.381 Z" /></g></g></svg>