<?xml version="1.0" encoding="UTF-8" standalone="no"?>
<svg
   xmlns:dc="http://purl.org/dc/elements/1.1/"
   xmlns:cc="http://creativecommons.org/ns#"
   xmlns:rdf="http://www.w3.org/1999/02/22-rdf-syntax-ns#"
   xmlns:svg="http://www.w3.org/2000/svg"
   xmlns="http://www.w3.org/2000/svg"
   viewBox="0 0 601.63623 330.57626"
   height="330.57626"
   width="601.63623"
   xml:space="preserve"
   version="1.1"
   id="svg3974"><metadata
     id="metadata3980"><rdf:RDF><cc:Work
         rdf:about=""><dc:format>image/svg+xml</dc:format><dc:type
           rdf:resource="http://purl.org/dc/dcmitype/StillImage" /><dc:title></dc:title></cc:Work></rdf:RDF></metadata><defs
     id="defs3978" /><g
     transform="matrix(1.25,0,0,-1.25,0,330.57625)"
     id="g3982"><g
       id="g3984"><path
         id="path3986"
         style="fill:#ffffff;fill-opacity:1;fill-rule:nonzero;stroke:none"
         d="m 32.055,264.063 c -17.457,0 -31.657,-14.161 -31.657,-31.555 l 0,-200.809 c 0,-17.39 14.2,-31.535 31.657,-31.535 l 417.207,0 c 17.457,0 31.648,14.145 31.648,31.535 l 0,200.809 c 0,17.394 -14.191,31.555 -31.648,31.555 l -417.207,0 z" /><path
         id="path3988"
         style="fill:#000000;fill-opacity:1;fill-rule:nonzero;stroke:none"
         d="m 32.043,19.668 417.207,0 c 6.605,0 11.961,5.336 11.961,11.918 l 0,201.039 c 0,6.582 -5.356,11.918 -11.961,11.918 l -417.207,0 c -6.613,0 -11.965,-5.336 -11.965,-11.918 l 0,-201.039 c 0,-6.582 5.352,-11.918 11.965,-11.918 z M 32.609,8.316 c -13.214,0 -23.918,10.668 -23.918,23.84 l 0,199.895 c 0,13.168 10.704,23.836 23.918,23.836 l 416.184,0 c 13.215,0 23.922,-10.668 23.922,-23.836 l 0,-199.895 c 0,-13.172 -10.707,-23.84 -23.922,-23.84" /><path
         id="path3990"
         style="fill:#000000;fill-opacity:1;fill-rule:nonzero;stroke:none"
         d="M 32.055,264.461 C 14.379,264.461 0,250.121 0,232.508 L 0,31.938 C 0,14.328 14.379,0 32.055,0 l 417.207,0 c 17.672,0 32.047,14.328 32.047,31.938 l 0,200.57 c 0,17.613 -14.371,31.953 -32.047,31.953 l -417.207,0 z m 0,-0.398 417.207,0 c 17.457,0 31.648,-14.161 31.648,-31.555 l 0,-200.57 c 0,-17.391 -14.191,-31.536 -31.648,-31.536 l -417.207,0 C 14.598,0.402 0.398,14.547 0.398,31.938 l 0,200.57 c 0,17.394 14.2,31.555 31.657,31.555 z" /><path
         id="path3992"
         style="fill:#000000;fill-opacity:1;fill-rule:nonzero;stroke:none"
         d="m 142.184,159.508 23.039,28.84 c 0.937,1.16 1.519,2.207 1.738,3.148 0.277,0.938 0.414,1.852 0.414,2.735 0,1.05 -0.191,2.07 -0.578,3.066 -0.332,0.996 -0.856,1.879 -1.574,2.652 -0.719,0.774 -1.575,1.407 -2.571,1.907 -0.996,0.496 -2.125,0.746 -3.398,0.746 -2.32,0 -4.281,-0.774 -5.883,-2.321 -1.601,-1.492 -2.516,-3.566 -2.734,-6.215 l -8.453,0 c 0,2.375 0.441,4.582 1.324,6.629 0.887,2.098 2.074,3.922 3.566,5.469 1.488,1.547 3.231,2.734 5.219,3.563 1.988,0.886 4.09,1.328 6.301,1.328 2.484,0 4.777,-0.442 6.875,-1.328 2.101,-0.883 3.898,-2.098 5.386,-3.645 1.547,-1.492 2.766,-3.289 3.649,-5.387 0.883,-2.047 1.324,-4.226 1.324,-6.547 0,-1.933 -0.273,-3.757 -0.828,-5.468 -0.551,-1.715 -1.465,-3.344 -2.734,-4.891 l -18.977,-23.785 22.539,0 0,-8.453 -33.644,0 0,7.957 z" /><path
         id="path3994"
         style="fill:#000000;fill-opacity:1;fill-rule:nonzero;stroke:none"
         d="m 183.602,159.508 23.039,28.84 c 0.937,1.16 1.519,2.207 1.738,3.148 0.277,0.938 0.414,1.852 0.414,2.735 0,1.05 -0.191,2.07 -0.578,3.066 -0.332,0.996 -0.856,1.879 -1.574,2.652 -0.719,0.774 -1.575,1.407 -2.571,1.907 -0.996,0.496 -2.125,0.746 -3.398,0.746 -2.32,0 -4.281,-0.774 -5.883,-2.321 -1.601,-1.492 -2.516,-3.566 -2.734,-6.215 l -8.453,0 c 0,2.375 0.441,4.582 1.324,6.629 0.886,2.098 2.074,3.922 3.566,5.469 1.488,1.547 3.231,2.734 5.219,3.563 1.988,0.886 4.09,1.328 6.297,1.328 2.488,0 4.781,-0.442 6.879,-1.328 2.101,-0.883 3.894,-2.098 5.386,-3.645 1.547,-1.492 2.766,-3.289 3.649,-5.387 0.883,-2.047 1.324,-4.226 1.324,-6.547 0,-1.933 -0.273,-3.757 -0.828,-5.468 -0.551,-1.715 -1.465,-3.344 -2.734,-4.891 l -18.977,-23.785 22.539,0 0,-8.453 -33.644,0 0,7.957 z" /><path
         id="path3996"
         style="fill:#000000;fill-opacity:1;fill-rule:nonzero;stroke:none"
         d="m 228.359,178.734 24.945,0 0,-8.453 -24.945,0 0,8.453 z" /><path
         id="path3998"
         style="fill:#000000;fill-opacity:1;fill-rule:nonzero;stroke:none"
         d="m 280.285,210.555 9.445,0 -12.429,-24.942 0.164,0 c 0.609,0.274 1.328,0.469 2.156,0.578 0.828,0.11 1.602,0.165 2.32,0.165 1.879,0 3.645,-0.329 5.305,-0.993 1.711,-0.609 3.203,-1.574 4.473,-2.902 1.328,-1.324 2.379,-3.039 3.152,-5.137 0.774,-2.043 1.16,-4.504 1.16,-7.375 0,-3.371 -0.5,-6.269 -1.492,-8.703 -0.996,-2.375 -2.32,-4.336 -3.98,-5.883 -1.602,-1.492 -3.454,-2.597 -5.551,-3.316 -2.043,-0.66 -4.172,-0.992 -6.383,-0.992 -2.043,0 -4.059,0.414 -6.047,1.242 -1.933,0.828 -3.676,2.016 -5.223,3.562 -1.546,1.547 -2.789,3.426 -3.73,5.637 -0.937,2.266 -1.406,4.777 -1.406,7.539 0,3.594 0.746,6.879 2.234,9.863 l 15.832,31.657 z m -1.16,-31.657 c -2.32,0 -4.313,-0.8 -5.969,-2.402 -1.656,-1.547 -2.484,-3.976 -2.484,-7.293 0,-3.316 0.746,-5.773 2.234,-7.375 1.547,-1.547 3.621,-2.32 6.219,-2.32 0.992,0 1.988,0.164 2.98,0.496 0.997,0.387 1.879,0.965 2.653,1.738 0.828,0.778 1.492,1.77 1.988,2.985 0.555,1.214 0.832,2.707 0.832,4.476 0,3.317 -0.832,5.746 -2.488,7.293 -1.656,1.602 -3.645,2.402 -5.965,2.402 z" /><path
         id="path4000"
         style="fill:#000000;fill-opacity:1;fill-rule:nonzero;stroke:none"
         d="m 305.562,210.555 8.454,0 0,-21.461 0.164,0 c 1.328,1.656 2.902,2.898 4.722,3.726 1.879,0.828 3.953,1.246 6.219,1.246 1.656,0 3.313,-0.332 4.973,-0.996 1.656,-0.609 3.148,-1.519 4.472,-2.734 1.329,-1.215 2.403,-2.734 3.235,-4.559 0.883,-1.824 1.324,-3.921 1.324,-6.296 l 0,-27.93 -8.453,0 0,25.027 c 0,2.875 -0.801,5.082 -2.402,6.629 -1.547,1.602 -3.508,2.406 -5.887,2.406 -2.43,0 -4.445,-0.804 -6.047,-2.406 -1.547,-1.547 -2.32,-3.754 -2.32,-6.629 l 0,-25.027 -8.454,0 0,59.004 z" /><path
         id="path4002"
         style="fill:#000000;fill-opacity:1;fill-rule:nonzero;stroke:none"
         d="m 86.758,60.262 25.406,0 0,8.523 -16.883,0 0,50.977 -8.523,0 0,-59.5 z" /><path
         id="path4004"
         style="fill:#000000;fill-opacity:1;fill-rule:nonzero;stroke:none"
         d="m 133.395,60.262 8.523,0 0,29.5 c 0,8.859 -5.68,13.371 -12.785,13.371 -3.844,0 -7.02,-1.34 -9.274,-3.594 -2.257,-2.258 -3.593,-5.433 -3.843,-9.191 l 8.269,0 c 0.504,2.758 2.676,4.261 4.848,4.261 3.176,0 4.262,-2.175 4.262,-5.015 l 0,-4.43 c -1.754,0.086 -2.922,0.25 -4.094,0.25 -10.696,0 -13.453,-4.68 -13.453,-14.371 0,-9.359 5.265,-11.281 9.191,-11.281 4.094,0 5.934,1.754 8.188,4.847 l 0.168,0 0,-4.347 z m 0,12.453 c 0,-3.426 -1.754,-5.434 -4.594,-5.434 -2.758,0 -4.43,2.172 -4.43,5.434 0,4.512 3.008,6.016 6.684,6.016 0.754,0 1.422,-0.083 2.34,-0.25 l 0,-5.766 z m -14.707,36.516 7.519,0 0,8.523 -7.519,0 0,-8.523 z m 13.539,0 7.519,0 0,8.523 -7.519,0 0,-8.523 z" /><path
         id="path4006"
         style="fill:#000000;fill-opacity:1;fill-rule:nonzero;stroke:none"
         d="m 149.879,60.262 8.523,0 0,25.152 c 0,6.938 5.098,9.195 8.692,9.195 0.918,0 1.754,-0.168 2.59,-0.503 l 0,9.027 c -4.93,0 -7.774,-1.922 -11.282,-5.016 l 0,4.512 -8.523,0 0,-42.367 z" /><path
         id="path4008"
         style="fill:#000000;fill-opacity:1;fill-rule:nonzero;stroke:none"
         d="m 176.254,60.262 8.523,0 0,28.496 c 0,3.762 1.086,5.851 4.262,5.851 2.676,0 4.18,-1.921 4.18,-5.015 l 0,-29.332 8.523,0 0,28.496 c 0,3.762 1.086,5.851 4.262,5.851 2.676,0 4.18,-1.921 4.18,-5.015 l 0,-29.332 8.523,0 0,32.508 c 0,7.605 -5.016,10.363 -9.277,10.363 -4.512,0 -6.77,-1.922 -8.86,-4.262 -1.504,2.086 -3.925,4.262 -7.601,4.262 -3.93,0 -6.27,-1.922 -8.024,-4.598 l -0.168,0 0,4.094 -8.523,0 0,-42.367 z" /><path
         id="path4010"
         style="fill:#000000;fill-opacity:1;fill-rule:nonzero;stroke:none"
         d="m 249.191,90.766 c -0.086,7.019 -5.097,12.367 -12.035,12.367 -6.851,0 -12.535,-5.184 -12.535,-12.367 0,-5.684 3.262,-9.696 8.609,-11.7 l 4.094,-1.503 c 3.258,-1.254 4.262,-2.844 4.262,-5.184 0,-2.84 -2.34,-4.594 -4.762,-4.594 -3.176,0 -4.262,2.422 -4.597,4.762 l -8.024,0 c 0.336,-8.356 6.02,-12.785 12.703,-12.785 7.352,0 12.703,5.765 12.703,12.785 0,5.016 -2.007,9.527 -8.359,11.949 l -5.012,2.008 c -3.176,1.25 -3.593,2.758 -3.593,4.344 0,2.172 1.503,4.261 4.179,4.261 2.254,0 4.262,-1.503 4.344,-4.343 l 8.023,0 z" /><path
         id="path4012"
         style="fill:#000000;fill-opacity:1;fill-rule:nonzero;stroke:none"
         d="m 262.512,89.762 c 0,3.176 1.586,4.847 4.179,4.847 2.59,0 4.176,-1.589 4.176,-5.015 l 8.524,0 c 0,7.855 -4.844,13.539 -12.7,13.539 -5.183,0 -9.109,-2.426 -11.117,-6.102 -1.168,-2.172 -1.586,-5.179 -1.586,-8.605 l 0,-13.957 c 0,-3.426 0.418,-6.434 1.586,-8.606 2.008,-3.679 5.934,-6.101 11.117,-6.101 3.926,0 7.02,1.422 9.274,3.761 2.172,2.254 3.426,5.512 3.426,9.024 l -8.524,0 c -0.168,-1.84 -0.918,-4.262 -4.176,-4.262 -2.593,0 -4.179,1.504 -4.179,4.18 l 0,17.297 z" /><path
         id="path4014"
         style="fill:#000000;fill-opacity:1;fill-rule:nonzero;stroke:none"
         d="m 285.379,60.262 8.523,0 0,28.496 c 0,3.762 1.086,5.851 4.262,5.851 2.672,0 4.176,-1.921 4.176,-5.015 l 0,-29.332 8.523,0 0,32.508 c 0,7.605 -4.511,10.363 -8.773,10.363 -3.926,0 -6.266,-1.922 -8.02,-4.598 l -0.168,0 0,21.227 -8.523,0 0,-59.5 z" /><path
         id="path4016"
         style="fill:#000000;fill-opacity:1;fill-rule:nonzero;stroke:none"
         d="m 343.664,102.629 -8.523,0 0,-28.496 c 0,-3.758 -1.086,-5.848 -4.262,-5.848 -2.676,0 -4.18,1.922 -4.18,5.012 l 0,29.332 -8.523,0 0,-32.504 c 0,-7.605 4.512,-10.363 8.777,-10.363 3.926,0 6.266,1.922 8.02,4.594 l 0.168,0 0,-4.094 8.523,0 0,42.367 z" /><path
         id="path4018"
         style="fill:#000000;fill-opacity:1;fill-rule:nonzero;stroke:none"
         d="m 353.297,102.629 -4.262,0 0,-6.684 4.262,0 0,-25.738 c 0,-4.512 2.59,-9.945 10.277,-9.945 l 3.512,0 0,8.023 c -3.762,0 -5.266,0.25 -5.266,4.18 l 0,23.48 5.266,0 0,6.684 -5.266,0 0,12.871 -8.523,0 0,-12.871 z" /><path
         id="path4020"
         style="fill:#000000;fill-opacity:1;fill-rule:nonzero;stroke:none"
         d="m 371.066,60.262 23.485,0 0,8.023 -13.789,0 13.789,27.578 0,6.766 -22.399,0 0,-7.52 12.703,0 -13.789,-28.078 0,-6.769 z" /></g></g></svg>