<?xml version="1.0" encoding="UTF-8" standalone="no"?>
<svg
   xmlns:dc="http://purl.org/dc/elements/1.1/"
   xmlns:cc="http://creativecommons.org/ns#"
   xmlns:rdf="http://www.w3.org/1999/02/22-rdf-syntax-ns#"
   xmlns:svg="http://www.w3.org/2000/svg"
   xmlns="http://www.w3.org/2000/svg"
   viewBox="0 0 600 450.005"
   height="450.005"
   width="600"
   xml:space="preserve"
   version="1.1"
   id="svg3783"><metadata
     id="metadata3789"><rdf:RDF><cc:Work
         rdf:about=""><dc:format>image/svg+xml</dc:format><dc:type
           rdf:resource="http://purl.org/dc/dcmitype/StillImage" /><dc:title></dc:title></cc:Work></rdf:RDF></metadata><defs
     id="defs3787" /><g
     transform="matrix(1.25,0,0,-1.25,0,450.005)"
     id="g3791"><g
       id="g3793"><path
         id="path3795"
         style="fill:#ffffff;fill-opacity:1;fill-rule:nonzero;stroke:none"
         d="m 31.996,359.762 c -17.504,0 -31.754,-14.25 -31.754,-31.754 L 0.242,32 c 0,-17.516 14.25,-31.758 31.754,-31.758 l 416.008,0 c 17.516,0 31.766,14.242 31.766,31.758 l 0,296.008 c 0,17.504 -14.25,31.754 -31.766,31.754" /><path
         id="path3797"
         style="fill:#000000;fill-opacity:1;fill-rule:nonzero;stroke:none"
         d="M 31.996,0.473 C 14.613,0.473 0.473,14.613 0.473,32 l 0,295.996 c 0,17.383 14.14,31.535 31.523,31.535 l 416.008,0 c 17.383,0 31.523,-14.152 31.523,-31.535 l 0,-295.996 c 0,-17.387 -14.14,-31.527 -31.523,-31.527 l -416.008,0 z m 416.008,359.531 -416.008,0 C 14.328,360.004 0,345.676 0,327.996 L 0,32 C 0,14.316 14.328,0 31.996,0 L 448.004,0 C 465.672,0 480,14.316 480,32 l 0,295.996 c 0,17.68 -14.328,32.008 -31.996,32.008" /><path
         id="path3799"
         style="fill:#000000;fill-opacity:1;fill-rule:nonzero;stroke:none"
         d="M 31.996,352 C 18.746,352 8.004,341.254 8.004,328.004 L 8.004,32 C 8.004,18.75 18.746,7.996 31.996,7.996 l 416.008,0 c 13.25,0 24.004,10.754 24.004,24.004 l 0,296.004 c 0,13.25 -10.754,23.996 -24.004,23.996 l -416.008,0 z m 0,-11.996 416.008,0 c 6.629,0 12.004,-5.367 12.004,-12 l 0,-296.004 c 0,-6.633 -5.375,-11.996 -12.004,-11.996 l -416.008,0 C 25.379,20.004 20,25.367 20,32 l 0,296.004 c 0,6.633 5.379,12 11.996,12 z" /><path
         id="path3801"
         style="fill:#000000;fill-opacity:1;fill-rule:nonzero;stroke:none"
         d="m 80.199,285.449 -0.191,0 -10.051,-33.664 -8.535,0 -15.363,48.078 10.242,0 9.199,-33.664 0.188,0 10.906,33.664 7.019,0 10.907,-33.664 0.187,0 9.199,33.664 10.242,0 -15.363,-48.078 -8.535,0 -10.051,33.664 z" /><path
         id="path3803"
         style="fill:#000000;fill-opacity:1;fill-rule:nonzero;stroke:none"
         d="m 129.562,272.172 c 0,-3.981 1.075,-6.953 3.227,-8.914 2.149,-1.957 4.899,-2.938 8.25,-2.938 1.832,0 3.664,0.411 5.5,1.231 1.895,0.824 3.57,1.961 5.027,3.414 l 7.016,-5.973 c -2.402,-2.781 -5.09,-4.773 -8.062,-5.976 -2.969,-1.2 -6.067,-1.801 -9.293,-1.801 -2.465,0 -4.961,0.348 -7.493,1.043 -2.527,0.695 -4.836,1.961 -6.922,3.793 -2.023,1.836 -3.699,4.332 -5.027,7.492 -1.262,3.16 -1.894,7.207 -1.894,12.141 0,4.675 0.601,8.597 1.8,11.757 1.204,3.161 2.75,5.692 4.649,7.586 1.894,1.961 4.015,3.352 6.351,4.172 2.34,0.825 4.68,1.235 7.02,1.235 2.656,0 5.184,-0.473 7.586,-1.422 2.402,-0.949 4.488,-2.309 6.258,-4.078 1.836,-1.77 3.289,-3.922 4.363,-6.45 1.074,-2.464 1.613,-5.246 1.613,-8.343 l 0,-7.969 -29.969,0 z m 20.297,7.969 c -0.129,3.664 -1.14,6.445 -3.035,8.343 -1.898,1.899 -4.269,2.844 -7.113,2.844 -2.844,0 -5.215,-0.945 -7.113,-2.844 -1.895,-1.898 -2.907,-4.679 -3.036,-8.343 l 20.297,0 z" /><path
         id="path3805"
         style="fill:#000000;fill-opacity:1;fill-rule:nonzero;stroke:none"
         d="m 172.75,299.863 9.676,0 0,-5.121 0.187,0 c 1.52,1.899 3.321,3.321 5.407,4.27 2.148,0.949 4.519,1.422 7.113,1.422 1.961,0 3.762,-0.348 5.406,-1.043 1.641,-0.633 3.191,-1.52 4.645,-2.657 l -7.016,-8.343 c -1.141,0.883 -2.184,1.484 -3.129,1.8 -0.887,0.379 -1.961,0.571 -3.227,0.571 -1.199,0 -2.371,-0.192 -3.507,-0.571 -1.075,-0.378 -2.055,-0.98 -2.942,-1.8 -0.883,-0.825 -1.609,-1.867 -2.179,-3.129 -0.508,-1.266 -0.758,-2.785 -0.758,-4.555 l 0,-28.922 -9.676,0 0,48.078 z" /><path
         id="path3807"
         style="fill:#000000;fill-opacity:1;fill-rule:nonzero;stroke:none"
         d="m 215.203,319.305 9.672,0 0,-42.012 0.187,0 18.493,22.57 11.57,0 -16.594,-18.777 18.871,-29.301 -12.14,0 -12.801,22.473 -7.586,-8.629 0,-13.844 -9.672,0 0,67.52 z" /><path
         id="path3809"
         style="fill:#000000;fill-opacity:1;fill-rule:nonzero;stroke:none"
         d="m 265.848,314.469 9.672,0 0,-14.606 7.019,0 0,-7.394 -7.019,0 0,-27.977 c 0,-1.328 0.253,-2.277 0.757,-2.843 0.571,-0.508 1.453,-0.762 2.657,-0.762 l 3.605,0 0,-9.102 -5.027,0 c -3.414,0 -6.227,1.012 -8.442,3.035 -2.148,2.086 -3.222,5.024 -3.222,8.817 l 0,28.832 -4.836,0 0,7.394 4.836,0 0,14.606 z" /><path
         id="path3811"
         style="fill:#000000;fill-opacity:1;fill-rule:nonzero;stroke:none"
         d="m 321.574,256.051 -0.191,0 c -1.012,-1.645 -2.434,-2.875 -4.266,-3.699 -1.773,-0.758 -4.301,-1.137 -7.59,-1.137 -2.652,0 -5.054,0.379 -7.207,1.137 -2.086,0.761 -3.855,1.773 -5.308,3.035 -1.453,1.328 -2.563,2.879 -3.321,4.648 -0.757,1.832 -1.136,3.793 -1.136,5.879 0,1.899 0.316,3.699 0.949,5.406 0.695,1.77 1.676,3.286 2.937,4.551 1.329,1.328 2.973,2.371 4.934,3.129 1.957,0.762 4.234,1.141 6.828,1.141 l 13.371,0 0,5.023 c 0,2.277 -0.793,3.86 -2.371,4.742 -1.519,0.95 -4.015,1.422 -7.492,1.422 -2.531,0 -4.457,-0.285 -5.785,-0.851 -1.328,-0.508 -2.434,-1.453 -3.321,-2.844 l -7.585,5.781 c 1.832,2.594 4.078,4.395 6.734,5.406 2.719,1.075 5.879,1.614 9.48,1.614 2.973,0 5.692,-0.285 8.157,-0.856 2.464,-0.504 4.554,-1.39 6.261,-2.652 1.77,-1.203 3.129,-2.817 4.075,-4.836 1.011,-2.024 1.519,-4.524 1.519,-7.492 l 0,-32.813 -9.672,0 0,4.266 z m 0,16.121 -11.57,0 c -2.844,0 -4.965,-0.535 -6.356,-1.609 -1.328,-1.012 -1.992,-2.403 -1.992,-4.176 0,-1.641 0.696,-3.067 2.09,-4.266 1.391,-1.203 3.727,-1.801 7.016,-1.801 2.023,0 3.699,0.063 5.027,0.188 1.391,0.191 2.496,0.57 3.316,1.141 0.887,0.566 1.52,1.39 1.899,2.464 0.379,1.137 0.57,2.657 0.57,4.551 l 0,3.508 z" /><path
         id="path3813"
         style="fill:#000000;fill-opacity:1;fill-rule:nonzero;stroke:none"
         d="m 373.203,256.809 c -1.519,-1.641 -3.351,-3 -5.504,-4.075 -2.148,-1.011 -4.457,-1.519 -6.922,-1.519 -3.16,0 -5.816,0.633 -7.965,1.898 -2.085,1.262 -3.667,2.59 -4.742,3.981 -0.695,0.887 -1.265,1.738 -1.707,2.562 -0.441,0.821 -0.82,1.864 -1.136,3.129 -0.254,1.266 -0.446,2.906 -0.571,4.93 -0.125,2.023 -0.187,4.711 -0.187,8.062 0,3.352 0.062,6.039 0.187,8.059 0.125,2.023 0.317,3.668 0.571,4.934 0.316,1.328 0.695,2.402 1.136,3.222 0.442,0.824 1.012,1.676 1.707,2.563 1.075,1.39 2.657,2.719 4.742,3.98 2.149,1.266 4.805,1.899 7.965,1.899 2.465,0 4.68,-0.473 6.641,-1.422 2.023,-0.949 3.949,-2.371 5.785,-4.27 l 0,5.121 9.672,0 0,-46.941 c 0,-3.602 -0.57,-6.734 -1.707,-9.387 -1.141,-2.656 -2.688,-4.84 -4.648,-6.543 -1.895,-1.773 -4.11,-3.066 -6.637,-3.89 -2.531,-0.883 -5.153,-1.328 -7.871,-1.328 -3.098,0 -6.133,0.757 -9.106,2.277 -2.906,1.453 -5.437,3.383 -7.586,5.785 l 7.492,5.973 c 1.2,-1.2 2.59,-2.211 4.172,-3.035 1.645,-0.883 3.383,-1.325 5.215,-1.325 3.227,0 5.848,0.883 7.871,2.653 2.086,1.769 3.133,4.363 3.133,7.777 l 0,4.93 z m -19.062,18.968 0,-4.648 c 0.062,-1.199 0.156,-2.211 0.285,-3.035 0.125,-0.758 0.316,-1.391 0.566,-1.895 0.254,-0.508 0.602,-1.043 1.043,-1.613 0.695,-0.883 1.645,-1.738 2.848,-2.559 1.262,-0.761 2.875,-1.14 4.836,-1.14 1.894,0 3.445,0.379 4.644,1.14 1.266,0.821 2.246,1.676 2.942,2.559 0.441,0.57 0.789,1.105 1.043,1.613 0.254,0.504 0.441,1.137 0.57,1.895 0.125,0.824 0.187,1.836 0.187,3.035 0.063,1.203 0.098,2.75 0.098,4.648 0,1.961 -0.035,3.539 -0.098,4.743 0,1.199 -0.062,2.179 -0.187,2.937 -0.129,0.824 -0.316,1.488 -0.57,1.992 -0.254,0.508 -0.602,1.043 -1.043,1.614 -0.696,0.882 -1.676,1.707 -2.942,2.464 -1.199,0.821 -2.75,1.235 -4.644,1.235 -1.961,0 -3.574,-0.414 -4.836,-1.235 -1.203,-0.757 -2.153,-1.582 -2.848,-2.464 -0.441,-0.571 -0.789,-1.106 -1.043,-1.614 -0.25,-0.504 -0.441,-1.168 -0.566,-1.992 -0.129,-0.758 -0.223,-1.738 -0.285,-2.937 l 0,-4.743 z" /><path
         id="path3815"
         style="fill:#000000;fill-opacity:1;fill-rule:nonzero;stroke:none"
         d="m 399.625,266.484 c 2.086,-2.023 4.328,-3.574 6.73,-4.648 2.403,-1.012 5.219,-1.516 8.442,-1.516 2.781,0 5.058,0.504 6.828,1.516 1.77,1.074 2.656,2.625 2.656,4.648 0,1.707 -0.57,2.875 -1.707,3.508 -1.136,0.696 -2.531,1.106 -4.172,1.235 l -8.535,0.757 c -3.984,0.317 -7.305,1.61 -9.957,3.887 -2.594,2.34 -3.89,5.594 -3.89,9.77 0,2.465 0.445,4.613 1.328,6.449 0.949,1.832 2.214,3.348 3.793,4.551 1.644,1.265 3.543,2.211 5.691,2.843 2.211,0.633 4.582,0.95 7.113,0.95 4.235,0 7.84,-0.602 10.809,-1.801 2.973,-1.141 5.66,-2.719 8.062,-4.742 l -5.976,-7.02 c -1.895,1.328 -3.856,2.403 -5.879,3.227 -2.023,0.82 -4.363,1.23 -7.016,1.23 -3.097,0 -5.25,-0.566 -6.449,-1.707 -1.203,-1.074 -1.801,-2.433 -1.801,-4.078 0,-1.074 0.442,-2.055 1.325,-2.937 0.949,-0.887 2.625,-1.422 5.027,-1.614 l 7.965,-0.57 c 2.468,-0.188 4.586,-0.695 6.355,-1.516 1.77,-0.757 3.223,-1.8 4.363,-3.129 1.137,-1.265 1.958,-2.75 2.465,-4.457 0.504,-1.644 0.758,-3.414 0.758,-5.312 0,-2.34 -0.504,-4.426 -1.515,-6.258 -1.012,-1.832 -2.434,-3.383 -4.27,-4.648 -1.77,-1.262 -3.887,-2.243 -6.352,-2.938 -2.402,-0.633 -4.996,-0.949 -7.777,-0.949 -3.922,0 -7.648,0.695 -11.191,2.086 -3.539,1.453 -6.86,3.637 -9.957,6.543 l 6.734,6.64 z" /><path
         id="path3817"
         style="fill:#000000;fill-opacity:1;fill-rule:nonzero;stroke:none"
         d="m 116.77,223.348 38.253,0 0,-9.66 -22.761,-57.77 -10.77,0 22.766,57.77 -17.856,0 0,-9.754 -9.632,0 0,19.414 z" /><path
         id="path3819"
         style="fill:#000000;fill-opacity:1;fill-rule:nonzero;stroke:none"
         d="m 167.129,186.981 28.434,0 0,-9.66 -28.434,0 0,9.66 z" /><path
         id="path3821"
         style="fill:#000000;fill-opacity:1;fill-rule:nonzero;stroke:none"
         d="m 217.23,213.121 -9.542,-7.008 0,10.227 9.542,7.008 9.633,0 0,-67.43 -9.633,0 0,57.203 z" /><path
         id="path3823"
         style="fill:#000000;fill-opacity:1;fill-rule:nonzero;stroke:none"
         d="m 245.82,223.348 35.801,0 0,-9.66 -26.73,0 0,-15.247 c 3.086,2.461 6.675,3.692 10.765,3.692 2.582,0 4.914,-0.504 6.992,-1.516 2.079,-0.945 3.747,-2.082 5.008,-3.406 0.942,-1.012 1.731,-2.023 2.36,-3.031 0.695,-0.949 1.23,-2.117 1.605,-3.504 0.441,-1.391 0.758,-3.031 0.945,-4.926 0.254,-1.894 0.379,-4.23 0.379,-7.008 0,-2.273 -0.093,-4.23 -0.285,-5.871 -0.125,-1.578 -0.375,-3 -0.754,-4.262 -0.316,-1.199 -0.726,-2.273 -1.23,-3.222 -0.5,-0.946 -1.133,-1.895 -1.887,-2.84 -1.387,-1.77 -3.309,-3.41 -5.762,-4.926 -2.457,-1.515 -5.386,-2.273 -8.785,-2.273 -2.207,0 -4.41,0.316 -6.613,0.949 -2.141,0.629 -4.125,1.641 -5.953,3.031 -1.824,1.449 -3.367,3.281 -4.625,5.492 -1.262,2.211 -2.078,4.891 -2.457,8.051 l 9.633,0 c 0.503,-2.402 1.543,-4.328 3.117,-5.777 1.64,-1.391 3.812,-2.086 6.519,-2.086 2.332,0 4.125,0.441 5.383,1.328 1.324,0.945 2.27,2.113 2.836,3.504 0.629,1.453 0.977,3.031 1.039,4.734 0.125,1.703 0.188,3.348 0.188,4.926 0,1.895 -0.157,3.629 -0.473,5.207 -0.25,1.578 -0.723,2.938 -1.414,4.074 -0.695,1.137 -1.703,2.02 -3.024,2.653 -1.261,0.695 -2.867,1.039 -4.82,1.039 -1.824,0 -3.461,-0.442 -4.91,-1.324 -1.387,-0.821 -2.645,-2.243 -3.777,-4.262 l -9.071,0 0,36.461 z" /><path
         id="path3825"
         style="fill:#000000;fill-opacity:1;fill-rule:nonzero;stroke:none"
         d="m 324.988,223.348 9.633,0 0,-24.528 0.191,0 c 1.512,1.895 3.305,3.313 5.383,4.262 2.141,0.945 4.504,1.422 7.086,1.422 1.887,0 3.778,-0.379 5.668,-1.137 1.887,-0.695 3.59,-1.738 5.098,-3.125 1.512,-1.39 2.742,-3.129 3.687,-5.211 1.004,-2.082 1.508,-4.484 1.508,-7.199 l 0,-31.914 -9.633,0 0,28.602 c 0,3.281 -0.914,5.808 -2.738,7.574 -1.766,1.832 -4,2.75 -6.707,2.75 -2.773,0 -5.07,-0.918 -6.898,-2.75 -1.762,-1.766 -2.645,-4.293 -2.645,-7.574 l 0,-28.602 -9.633,0 0,67.43 z" /><path
         id="path3827"
         style="fill:#000000;fill-opacity:1;fill-rule:nonzero;stroke:none"
         d="m 47.656,76.461 c 2.59,-2.02 5.524,-3.66 8.809,-4.922 3.281,-1.203 6.723,-1.801 10.324,-1.801 4.164,0 7.418,0.852 9.754,2.559 2.398,1.703 3.598,3.977 3.598,6.816 0,2.399 -0.727,4.422 -2.176,6.063 -1.391,1.64 -3.602,2.652 -6.633,3.031 -1.512,0.188 -2.934,0.379 -4.262,0.567 l -4.64,0.664 c -5.871,0.82 -10.321,2.937 -13.352,6.343 -3.031,3.473 -4.547,7.672 -4.547,12.598 0,2.902 0.473,5.555 1.422,7.957 1.008,2.398 2.461,4.449 4.356,6.152 1.894,1.77 4.199,3.129 6.914,4.075 2.715,1.011 5.808,1.515 9.281,1.515 4.168,0 8.082,-0.664 11.742,-1.988 3.664,-1.328 7.043,-3 10.137,-5.02 l -5.684,-8.429 c -2.465,1.578 -5.113,2.84 -7.957,3.789 -2.777,0.945 -5.68,1.418 -8.711,1.418 -3.156,0 -5.84,-0.821 -8.051,-2.461 -2.148,-1.578 -3.218,-3.977 -3.218,-7.199 0,-1.891 0.722,-3.692 2.176,-5.399 1.515,-1.64 3.976,-2.715 7.386,-3.219 0.887,-0.125 1.957,-0.285 3.223,-0.472 1.262,-0.192 2.715,-0.379 4.355,-0.571 3.157,-0.378 5.871,-1.168 8.145,-2.367 2.336,-1.199 4.262,-2.683 5.777,-4.449 1.516,-1.77 2.653,-3.758 3.41,-5.969 0.758,-2.144 1.137,-4.355 1.137,-6.629 0,-6.25 -2.148,-11.078 -6.441,-14.488 -4.231,-3.41 -9.977,-5.117 -17.239,-5.117 -4.984,0 -9.625,0.758 -13.921,2.273 -4.293,1.516 -8.239,3.852 -11.836,7.008 l 6.722,7.672 z" /><path
         id="path3829"
         style="fill:#000000;fill-opacity:1;fill-rule:nonzero;stroke:none"
         d="m 139.453,67.844 c -2.082,-2.399 -4.574,-4.387 -7.48,-5.965 -2.84,-1.582 -6.094,-2.371 -9.754,-2.371 -2.778,0 -5.492,0.445 -8.145,1.328 -2.59,0.945 -4.894,2.398 -6.914,4.355 -2.019,1.958 -3.664,4.485 -4.926,7.579 -1.199,3.156 -1.8,6.914 -1.8,11.269 0,4.418 0.601,8.176 1.8,11.27 1.262,3.093 2.907,5.621 4.926,7.578 2.02,2.019 4.324,3.472 6.914,4.355 2.653,0.946 5.367,1.422 8.145,1.422 3.66,0 6.914,-0.789 9.754,-2.367 2.906,-1.582 5.398,-3.57 7.48,-5.969 l -7.101,-6.344 c -1.2,1.45 -2.622,2.653 -4.262,3.598 -1.641,0.945 -3.473,1.422 -5.492,1.422 -3.977,0 -7.071,-1.168 -9.282,-3.504 -2.148,-2.336 -3.222,-6.156 -3.222,-11.461 0,-5.242 1.074,-9.027 3.222,-11.363 2.211,-2.34 5.305,-3.508 9.282,-3.508 2.019,0 3.851,0.477 5.492,1.422 1.64,0.949 3.062,2.148 4.262,3.598 l 7.101,-6.344 z" /><path
         id="path3831"
         style="fill:#000000;fill-opacity:1;fill-rule:nonzero;stroke:none"
         d="m 149.52,127.508 9.66,0 0,-24.527 0.191,0 c 1.516,1.894 3.313,3.316 5.399,4.261 2.144,0.946 4.511,1.422 7.101,1.422 1.895,0 3.789,-0.379 5.684,-1.137 1.894,-0.695 3.597,-1.738 5.113,-3.125 1.516,-1.39 2.746,-3.125 3.695,-5.211 1.008,-2.082 1.516,-4.48 1.516,-7.195 l 0,-31.918 -9.66,0 0,28.602 c 0,3.281 -0.918,5.808 -2.75,7.578 -1.766,1.828 -4.008,2.746 -6.723,2.746 -2.777,0 -5.082,-0.918 -6.914,-2.746 -1.766,-1.77 -2.652,-4.297 -2.652,-7.578 l 0,-28.602 -9.66,0 0,67.43 z" /><path
         id="path3833"
         style="fill:#000000;fill-opacity:1;fill-rule:nonzero;stroke:none"
         d="m 201.141,108.094 9.66,0 0,-28.602 c 0,-3.281 0.887,-5.84 2.652,-7.672 1.832,-1.765 4.137,-2.652 6.914,-2.652 2.715,0 4.957,0.887 6.727,2.652 1.828,1.832 2.746,4.391 2.746,7.672 l 0,28.602 9.66,0 0,-48.016 -9.66,0 0,5.113 -0.192,0 c -1.515,-1.894 -3.343,-3.312 -5.492,-4.261 -2.082,-0.946 -4.386,-1.422 -6.914,-1.422 -1.894,0 -3.82,0.348 -5.777,1.043 -1.895,0.758 -3.598,1.832 -5.113,3.219 -1.516,1.39 -2.778,3.129 -3.79,5.211 -0.945,2.082 -1.421,4.484 -1.421,7.199 l 0,31.914 z" /><path
         id="path3835"
         style="fill:#000000;fill-opacity:1;fill-rule:nonzero;stroke:none"
         d="m 253.566,127.508 9.661,0 0,-55.024 c 0,-2.21 1.199,-3.316 3.597,-3.316 l 3.313,0 0,-9.09 -4.262,0 c -1.766,0 -3.406,0.188 -4.922,0.567 -1.453,0.445 -2.746,1.105 -3.883,1.992 -1.074,0.945 -1.925,2.144 -2.558,3.597 -0.633,1.516 -0.946,3.348 -0.946,5.493 l 0,55.781 z" /><path
         id="path3837"
         style="fill:#000000;fill-opacity:1;fill-rule:nonzero;stroke:none"
         d="m 308.699,93.699 -0.191,0 -10.039,-33.621 -8.524,0 -15.34,48.016 10.227,0 9.188,-33.621 0.187,0 10.895,33.621 7.007,0 10.891,-33.621 0.188,0 9.187,33.621 10.23,0 -15.343,-48.016 -8.524,0 -10.039,33.621 z" /><path
         id="path3839"
         style="fill:#000000;fill-opacity:1;fill-rule:nonzero;stroke:none"
         d="m 359.129,80.441 c 0,-3.98 1.074,-6.945 3.223,-8.902 2.144,-1.957 4.89,-2.937 8.238,-2.937 1.832,0 3.66,0.41 5.492,1.23 1.895,0.82 3.566,1.957 5.02,3.41 l 7.007,-5.965 c -2.398,-2.781 -5.082,-4.769 -8.05,-5.968 -2.965,-1.2 -6.059,-1.801 -9.282,-1.801 -2.461,0 -4.953,0.348 -7.48,1.043 -2.527,0.695 -4.832,1.957 -6.914,3.789 -2.02,1.832 -3.692,4.324 -5.02,7.48 -1.261,3.157 -1.894,7.2 -1.894,12.125 0,4.672 0.601,8.586 1.801,11.743 1.199,3.156 2.746,5.683 4.64,7.578 1.895,1.957 4.008,3.343 6.344,4.164 2.336,0.824 4.672,1.234 7.008,1.234 2.652,0 5.179,-0.476 7.578,-1.422 2.398,-0.945 4.484,-2.304 6.25,-4.074 1.832,-1.766 3.285,-3.914 4.355,-6.437 1.075,-2.465 1.614,-5.243 1.614,-8.336 l 0,-7.954 -29.93,0 z m 20.269,7.954 c -0.128,3.664 -1.136,6.441 -3.031,8.336 -1.894,1.894 -4.262,2.839 -7.105,2.839 -2.84,0 -5.207,-0.945 -7.102,-2.839 -1.894,-1.895 -2.902,-4.672 -3.031,-8.336 l 20.269,0 z" /><path
         id="path3841"
         style="fill:#000000;fill-opacity:1;fill-rule:nonzero;stroke:none"
         d="m 429.418,65.098 c -1.516,-1.641 -3.344,-3 -5.492,-4.074 -2.145,-1.008 -4.449,-1.516 -6.914,-1.516 -3.157,0 -5.809,0.633 -7.953,1.894 -2.086,1.266 -3.664,2.59 -4.739,3.981 -0.691,0.883 -1.261,1.734 -1.703,2.555 -0.441,0.82 -0.82,1.863 -1.137,3.125 -0.253,1.265 -0.441,2.906 -0.566,4.925 -0.129,2.02 -0.191,4.703 -0.191,8.051 0,3.348 0.062,6.031 0.191,8.051 0.125,2.019 0.313,3.66 0.566,4.926 0.317,1.324 0.696,2.398 1.137,3.218 0.442,0.821 1.012,1.672 1.703,2.555 1.075,1.391 2.653,2.715 4.739,3.981 2.144,1.261 4.796,1.894 7.953,1.894 2.465,0 4.672,-0.476 6.629,-1.422 2.023,-0.945 3.949,-2.367 5.777,-4.261 l 0,5.113 9.66,0 0,-46.879 c 0,-3.598 -0.566,-6.727 -1.703,-9.375 -1.137,-2.652 -2.684,-4.832 -4.641,-6.535 -1.894,-1.77 -4.105,-3.063 -6.629,-3.883 -2.527,-0.887 -5.148,-1.328 -7.863,-1.328 -3.094,0 -6.121,0.758 -9.09,2.273 -2.906,1.453 -5.429,3.379 -7.578,5.778 l 7.485,5.964 c 1.199,-1.199 2.586,-2.207 4.164,-3.027 1.644,-0.887 3.379,-1.328 5.211,-1.328 3.218,0 5.839,0.883 7.859,2.652 2.086,1.77 3.125,4.356 3.125,7.766 l 0,4.926 z m -19.035,18.941 0,-4.64 c 0.062,-1.2 0.156,-2.211 0.285,-3.032 0.125,-0.758 0.316,-1.39 0.566,-1.894 0.254,-0.504 0.602,-1.043 1.043,-1.61 0.696,-0.882 1.641,-1.734 2.84,-2.558 1.266,-0.758 2.875,-1.137 4.832,-1.137 1.895,0 3.442,0.379 4.641,1.137 1.262,0.824 2.242,1.676 2.933,2.558 0.446,0.567 0.789,1.106 1.043,1.61 0.254,0.504 0.442,1.136 0.571,1.894 0.125,0.821 0.187,1.832 0.187,3.032 0.063,1.199 0.094,2.746 0.094,4.64 0,1.957 -0.031,3.535 -0.094,4.735 0,1.199 -0.062,2.179 -0.187,2.937 -0.129,0.82 -0.317,1.484 -0.571,1.988 -0.254,0.504 -0.597,1.043 -1.043,1.61 -0.691,0.882 -1.671,1.707 -2.933,2.461 -1.199,0.824 -2.746,1.234 -4.641,1.234 -1.957,0 -3.566,-0.41 -4.832,-1.234 -1.199,-0.754 -2.144,-1.579 -2.84,-2.461 -0.441,-0.567 -0.789,-1.106 -1.043,-1.61 -0.25,-0.504 -0.441,-1.168 -0.566,-1.988 -0.129,-0.758 -0.223,-1.738 -0.285,-2.937 l 0,-4.735 z" /></g></g></svg>