<?xml version="1.0" encoding="UTF-8" standalone="no"?>
<svg
   xmlns:dc="http://purl.org/dc/elements/1.1/"
   xmlns:cc="http://creativecommons.org/ns#"
   xmlns:rdf="http://www.w3.org/1999/02/22-rdf-syntax-ns#"
   xmlns:svg="http://www.w3.org/2000/svg"
   xmlns="http://www.w3.org/2000/svg"
   viewBox="0 0 600.99805 331.00781"
   height="331.00781"
   width="600.99805"
   xml:space="preserve"
   version="1.1"
   id="svg22382"><metadata
     id="metadata22388"><rdf:RDF><cc:Work
         rdf:about=""><dc:format>image/svg+xml</dc:format><dc:type
           rdf:resource="http://purl.org/dc/dcmitype/StillImage" /><dc:title></dc:title></cc:Work></rdf:RDF></metadata><defs
     id="defs22386"><clipPath
       id="clipPath22406"
       clipPathUnits="userSpaceOnUse"><path
         id="path22408"
         d="m 0,264.806 481,0 0,-259.148 -481,0 0,259.148 z" /></clipPath><clipPath
       id="clipPath22416"
       clipPathUnits="userSpaceOnUse"><path
         id="path22418"
         d="m 34,37 413,0 0,191 -413,0 0,-191 z" /></clipPath></defs><g
     transform="matrix(1.25,0,0,-1.25,0,331.0078)"
     id="g22390"><g
       id="g22392"><path
         id="path22394"
         style="fill:#ffffff;fill-opacity:1;fill-rule:nonzero;stroke:none"
         d="m 32.402,0.404 c -17.672,0 -32,14.379 -32,32.109 l 0,199.77 c 0,17.73 14.328,32.121 32,32.121 l 416.004,0 c 17.672,0 31.996,-14.391 31.996,-32.121 l 0,-199.77 c 0,-17.73 -14.324,-32.109 -31.996,-32.109 l -416.004,0 z" /><path
         id="path22396"
         style="fill:#000000;fill-opacity:1;fill-rule:nonzero;stroke:none"
         d="m 32.402,8.435 c -13.261,0 -24,10.774 -24,24.082 l 0,199.766 c 0,13.308 10.739,24.082 24,24.082 l 416.004,0 c 13.246,0 24,-10.774 24,-24.082 l 0,-199.766 c 0,-13.308 -10.754,-24.082 -24,-24.082 l -416.004,0 z" /><path
         id="path22398"
         style="fill:#ffffff;fill-opacity:1;fill-rule:nonzero;stroke:none"
         d="m 32.402,20.474 c -6.632,0 -12.007,5.395 -12.007,12.051 l 0,199.766 c 0,6.64 5.375,12.035 12.007,12.035 l 416.004,0 c 6.633,0 11.992,-5.395 11.992,-12.035 l 0,-199.766 c 0,-6.656 -5.359,-12.051 -11.992,-12.051 l -416.004,0 z" /><path
         id="path22400"
         style="fill:#000000;fill-opacity:1;fill-rule:nonzero;stroke:none"
         d="M 32.398,264.806 C 14.516,264.806 0,250.24 0,232.291 L 0,32.513 C 0,14.564 14.516,0.002 32.398,0.002 l 416,0 c 17.887,0 32.399,14.562 32.399,32.511 l 0,199.778 c 0,17.949 -14.512,32.515 -32.399,32.515 l -416,0 z m 0,-0.402 416.008,0 c 17.672,0 32,-14.391 32,-32.121 l 0,-199.77 c 0,-17.73 -14.328,-32.105 -32,-32.105 l -416.008,0 C 14.73,0.408 0.406,14.783 0.406,32.513 l 0,199.77 c 0,17.73 14.324,32.121 31.992,32.121 z" /></g><g
       id="g22402"><g
         clip-path="url(#clipPath22406)"
         id="g22404"><g
           transform="translate(0,-0.193756)"
           id="g22410"><g
             id="g22412"><g
               clip-path="url(#clipPath22416)"
               id="g22414"><g
                 id="g22420"><path
                   id="path22422"
                   style="fill:#000000;fill-opacity:1;fill-rule:nonzero;stroke:none"
                   d="m 281.605,86.043 6.868,0 0,-6.863 -6.868,0 0,6.863 z m 0,-13.731 6.868,0 0,-34.335 -6.868,0 0,34.335 z m -30.906,-13.726 14.594,0 c 0,4.027 -3.262,7.289 -7.289,7.289 -4.027,0 -7.305,-3.262 -7.305,-7.289 m 21.461,-6.016 -21.461,0 0,-0.863 c 0,-2.98 1.817,-5.66 4.582,-6.766 1.149,-0.453 2.356,-0.679 3.574,-0.679 2.809,0 5.473,1.218 7.29,3.343 l 5.207,-4.464 c -3.122,-3.661 -7.688,-5.758 -12.497,-5.758 -2.101,0 -4.171,0.41 -6.113,1.176 -5.375,2.156 -8.91,7.359 -8.91,13.148 l 0,6.879 c 0,7.812 6.344,14.152 14.172,14.152 7.816,0 14.156,-6.34 14.156,-14.152 l 0,-6.016 z m -54.937,-14.593 0,34.335 6.867,0 0,-3.871 c 2.199,2.723 5.515,4.297 9.019,4.297 2.653,0 5.235,-0.906 7.293,-2.582 l -4.879,-6.011 c -1.25,1.105 -2.878,1.73 -4.57,1.73 -3.785,0 -6.863,-3.078 -6.863,-6.863 l 0,-21.035 -6.867,0 z m -21.457,0 0,28.761 -3.434,0 0,5.574 3.434,0 0,5.149 c 0,4.738 3.855,8.582 8.593,8.582 l 5.149,0 0,-6.438 -4.723,0 c -1.191,0 -2.14,-0.964 -2.14,-2.144 l 0,-5.149 6.863,0 0,-5.574 -6.863,0 0,-28.761 -6.879,0 z" /><path
                   id="path22424"
                   style="fill:#000000;fill-opacity:1;fill-rule:nonzero;stroke:none"
                   d="m 431.977,115.578 0,30.891 6.183,0 0,-3.473 c 1.973,2.438 4.949,3.871 8.098,3.871 l 0,-6.496 c -0.621,0.211 -1.278,0.313 -1.93,0.313 -3.402,0 -6.168,-2.766 -6.168,-6.184 l 0,-18.922 -6.183,0 z m -24.723,0 0,43.258 6.184,0 0,-15.445 c 1.132,2.129 3.359,3.476 5.785,3.476 3.632,0 6.57,-2.949 6.57,-6.566 l 0,-24.723 -6.172,0 0,22.012 c 0,1.719 -1.391,3.094 -3.094,3.094 -1.715,0 -3.089,-1.375 -3.089,-3.094 l 0,-22.012 -6.184,0 z m -17.762,18.156 6.188,0 0,3.856 c 0,1.719 -1.391,3.094 -3.11,3.094 -1.699,0 -3.078,-1.375 -3.078,-3.094 l 0,-3.856 z m 12.356,-9.277 c 0,-5.105 -4.157,-9.262 -9.278,-9.262 -5.105,0 -9.261,4.157 -9.261,9.262 l 0,13.133 c 0,5.121 4.156,9.277 9.261,9.277 5.121,0 9.278,-4.156 9.278,-9.277 l 0,-8.879 -12.356,0 0,-4.254 c 0,-1.703 1.379,-3.078 3.078,-3.078 1.719,0 3.11,1.375 3.11,3.078 l 6.168,0 z m -42.481,-8.879 0,43.258 6.168,0 0,-25.883 7.731,13.516 6.187,0 -7.348,-12.352 8.891,-18.539 -6.965,0 -5.402,13.133 -3.094,-4.637 0,-8.496 -6.168,0 z m -18.156,0 0,30.891 6.184,0 0,-3.473 c 1.972,2.438 4.949,3.871 8.101,3.871 l 0,-6.496 c -0.625,0.211 -1.277,0.313 -1.93,0.313 -3.406,0 -6.171,-2.766 -6.171,-6.184 l 0,-18.922 -6.184,0 z m -17.773,18.156 6.183,0 0,3.856 c 0,1.719 -1.387,3.094 -3.09,3.094 -1.703,0 -3.093,-1.375 -3.093,-3.094 l 0,-3.856 z m 12.371,-9.277 c 0,-5.105 -4.157,-9.262 -9.278,-9.262 -5.121,0 -9.261,4.157 -9.261,9.262 l 0,13.133 c 0,5.121 4.14,9.277 9.261,9.277 5.121,0 9.278,-4.156 9.278,-9.277 l 0,-8.879 -12.371,0 0,-4.254 c 0,-1.703 1.39,-3.078 3.093,-3.078 1.703,0 3.09,1.375 3.09,3.078 l 6.188,0 z m -35.149,-8.879 -8.113,30.891 6.566,0 4.239,-20.067 4.257,20.067 6.567,0 -8.114,-30.891 -5.402,0 z m -28.98,8.879 5.8,0 c 0,-1.914 1.563,-3.473 3.477,-3.473 1.914,0 3.477,1.559 3.477,3.473 0,1.375 -0.809,2.625 -2.075,3.176 l -5.004,1.844 c -3.207,1.421 -5.277,4.609 -5.277,8.113 0,4.91 3.973,8.879 8.879,8.879 4.906,0 8.879,-3.969 8.879,-8.879 l -5.785,0 c 0,1.719 -1.391,3.094 -3.094,3.094 -1.703,0 -3.094,-1.375 -3.094,-3.094 0,-1.219 0.727,-2.324 1.844,-2.82 l 5.008,-1.832 c 3.347,-1.489 5.504,-4.805 5.504,-8.481 0,-5.105 -4.141,-9.262 -9.262,-9.262 -5.121,0 -9.277,4.157 -9.277,9.262 m -3.86,-8.879 -3.09,0 c -3.832,0 -6.949,3.121 -6.949,6.949 l 0,18.934 -3.093,0 0,5.008 3.093,0 0,9.277 6.184,0 0,-9.277 3.855,0 0,-5.008 -3.855,0 0,-18.152 c 0,-1.063 0.863,-1.93 1.93,-1.93 l 1.925,0 0,-5.801 z m -24.722,43.258 6.187,0 0,-6.184 -6.187,0 0,6.184 z m 0,-12.367 6.187,0 0,-30.891 -6.187,0 0,30.891 z m -17.758,-12.735 6.183,0 0,3.856 c 0,1.719 -1.386,3.094 -3.089,3.094 -1.719,0 -3.094,-1.375 -3.094,-3.094 l 0,-3.856 z m 12.355,-9.277 c 0,-5.105 -4.14,-9.262 -9.261,-9.262 -5.122,0 -9.278,4.157 -9.278,9.262 l 0,13.133 c 0,5.121 4.156,9.277 9.278,9.277 5.121,0 9.261,-4.156 9.261,-9.277 l 0,-8.879 -12.355,0 0,-4.254 c 0,-1.703 1.375,-3.078 3.094,-3.078 1.703,0 3.089,1.375 3.089,3.078 l 6.172,0 z m -42.48,-8.879 0,43.258 6.183,0 0,-15.445 c 1.133,2.129 3.36,3.476 5.786,3.476 3.632,0 6.57,-2.949 6.57,-6.566 l 0,-24.723 -6.188,0 0,22.012 c 0,1.719 -1.375,3.094 -3.089,3.094 -1.704,0 -3.079,-1.375 -3.079,-3.094 l 0,-22.012 -6.183,0 z m -24.723,0 0,30.891 6.184,0 0,-3.078 c 1.133,2.129 3.359,3.476 5.801,3.476 3.617,0 6.55,-2.949 6.55,-6.566 l 0,-24.723 -6.168,0 0,22.012 c 0,1.719 -1.39,3.094 -3.093,3.094 -1.7,0 -3.09,-1.375 -3.09,-3.094 l 0,-22.012 -6.184,0 z m -17.762,18.156 6.172,0 0,3.856 c 0,1.719 -1.375,3.094 -3.078,3.094 -1.715,0 -3.094,-1.375 -3.094,-3.094 l 0,-3.856 z m 12.356,-9.277 c 0,-5.105 -4.156,-9.262 -9.262,-9.262 -5.121,0 -9.277,4.157 -9.277,9.262 l 0,13.133 c 0,5.121 4.156,9.277 9.277,9.277 5.106,0 9.262,-4.156 9.262,-9.277 l 0,-8.879 -12.356,0 0,-4.254 c 0,-1.703 1.379,-3.078 3.094,-3.078 1.703,0 3.078,1.375 3.078,3.078 l 6.184,0 z m -30.895,0 0,13.133 c 0,1.719 -1.386,3.094 -3.089,3.094 -1.715,0 -3.094,-1.375 -3.094,-3.094 l 0,-13.133 c 0,-1.703 1.379,-3.078 3.094,-3.078 1.703,0 3.089,1.375 3.089,3.078 m -6.183,-12.352 c 0,-1.703 1.379,-3.093 3.094,-3.093 1.703,0 3.089,1.39 3.089,3.093 l 0,6.567 c -1.148,-2.145 -3.375,-3.477 -5.8,-3.477 -3.618,0 -6.567,2.938 -6.567,6.567 l 0,18.539 c 0,3.617 2.949,6.566 6.567,6.566 2.425,0 4.652,-1.347 5.8,-3.476 l 0,3.078 6.172,0 0,-34.364 c 0,-5.121 -4.14,-9.261 -9.261,-9.261 -5.122,0 -9.278,4.14 -9.278,9.261 l 6.184,0 z m -23.942,21.629 6.184,0 0,3.856 c 0,1.719 -1.391,3.094 -3.094,3.094 -1.715,0 -3.09,-1.375 -3.09,-3.094 l 0,-3.856 z m 12.356,-9.277 c 0,-5.105 -4.145,-9.262 -9.266,-9.262 -5.117,0 -9.273,4.157 -9.273,9.262 l 0,13.133 c 0,5.121 4.156,9.277 9.273,9.277 5.121,0 9.266,-4.156 9.266,-9.277 l 0,-8.879 -12.356,0 0,-4.254 c 0,-1.703 1.375,-3.078 3.09,-3.078 1.703,0 3.094,1.375 3.094,3.078 l 6.172,0 z m -22.399,-8.879 -2.324,0 c -3.832,0 -6.953,3.121 -6.953,6.949 l 0,36.309 6.184,0 0,-35.527 c 0,-1.063 0.867,-1.93 1.929,-1.93 l 1.164,0 0,-5.801 z m -27.035,18.156 6.172,0 0,3.856 c 0,1.719 -1.379,3.094 -3.078,3.094 -1.719,0 -3.094,-1.375 -3.094,-3.094 l 0,-3.856 z m 12.356,-9.277 c 0,-5.105 -4.156,-9.262 -9.262,-9.262 -5.121,0 -9.277,4.157 -9.277,9.262 l 0,13.133 c 0,5.121 4.156,9.277 9.277,9.277 5.106,0 9.262,-4.156 9.262,-9.277 l 0,-8.879 -12.356,0 0,-4.254 c 0,-1.703 1.375,-3.078 3.094,-3.078 1.699,0 3.078,1.375 3.078,3.078 l 6.184,0 z m -23.946,15.063 0,-13.899 c 0,-5.758 -4.664,-10.426 -10.421,-10.426 -5.762,0 -10.442,4.668 -10.442,10.426 l 0,23.176 c 0,5.758 4.68,10.422 10.442,10.422 5.757,0 10.421,-4.664 10.421,-10.422 l 0,-2.328 -6.183,0 0,2.328 c 0,2.34 -1.899,4.254 -4.238,4.254 -2.356,0 -4.258,-1.914 -4.258,-4.254 l 0,-23.176 c 0,-2.34 1.902,-4.242 4.258,-4.242 2.339,0 4.238,1.902 4.238,4.242 l 0,8.496 -5.02,0 0,5.403 11.203,0 z" /><path
                   id="path22426"
                   style="fill:#000000;fill-opacity:1;fill-rule:nonzero;stroke:none"
                   d="m 397.793,184.547 0,30.891 6.187,0 0,-3.09 c 1.133,2.14 3.36,3.488 5.786,3.488 2.269,0 4.398,-1.191 5.589,-3.121 1.375,1.957 3.618,3.121 6,3.121 4.055,0 7.333,-3.289 7.333,-7.348 l 0,-23.941 -6.172,0 0,22.012 c 0,1.703 -1.387,3.093 -3.09,3.093 -1.703,0 -3.094,-1.39 -3.094,-3.093 l 0,-22.012 -6.184,0 0,22.012 c 0,1.703 -1.375,3.093 -3.089,3.093 -1.704,0 -3.079,-1.39 -3.079,-3.093 l 0,-22.012 -6.187,0 z m -12.352,43.258 6.184,0 0,-6.184 -6.184,0 0,6.184 z m 0,-12.367 6.184,0 0,-30.891 -6.184,0 0,30.891 z m -37.093,-12.735 6.183,0 0,3.856 c 0,1.703 -1.375,3.093 -3.09,3.093 -1.703,0 -3.093,-1.39 -3.093,-3.093 l 0,-3.856 z m 12.371,-9.277 c 0,-5.121 -4.157,-9.262 -9.278,-9.262 -5.121,0 -9.261,4.141 -9.261,9.262 l 0,13.133 c 0,5.121 4.14,9.277 9.261,9.277 5.121,0 9.278,-4.156 9.278,-9.277 l 0,-8.879 -12.371,0 0,-4.254 c 0,-1.703 1.39,-3.09 3.093,-3.09 1.715,0 3.09,1.387 3.09,3.09 l 6.188,0 z m -40.938,0 5.789,0 c 0,-1.914 1.559,-3.473 3.473,-3.473 1.914,0 3.477,1.559 3.477,3.473 0,1.375 -0.809,2.625 -2.071,3.176 l -5.008,1.832 c -3.207,1.433 -5.277,4.609 -5.277,8.125 0,4.91 3.973,8.879 8.879,8.879 4.91,0 8.879,-3.969 8.879,-8.879 l -5.785,0 c 0,1.703 -1.391,3.093 -3.094,3.093 -1.703,0 -3.09,-1.39 -3.09,-3.093 0,-1.219 0.723,-2.325 1.844,-2.821 l 5.004,-1.832 c 3.347,-1.488 5.519,-4.804 5.519,-8.48 0,-5.121 -4.156,-9.262 -9.277,-9.262 -5.121,0 -9.262,4.141 -9.262,9.262 m -21.629,0 5.786,0 c 0,-1.914 1.562,-3.473 3.476,-3.473 1.914,0 3.473,1.559 3.473,3.473 0,1.375 -0.809,2.625 -2.055,3.176 l -5.023,1.832 c -3.204,1.433 -5.274,4.609 -5.274,8.125 0,4.91 3.969,8.879 8.879,8.879 4.906,0 8.879,-3.969 8.879,-8.879 l -5.789,0 c 0,1.703 -1.375,3.093 -3.09,3.093 -1.703,0 -3.094,-1.39 -3.094,-3.093 0,-1.219 0.723,-2.325 1.844,-2.821 l 5.008,-1.832 c 3.348,-1.488 5.516,-4.804 5.516,-8.48 0,-5.121 -4.153,-9.262 -9.274,-9.262 -5.121,0 -9.262,4.141 -9.262,9.262 m -4.64,-8.879 -6.184,0 0,3.094 c -1.133,-2.141 -3.363,-3.477 -5.785,-3.477 -3.633,0 -6.57,2.938 -6.57,6.566 l 0,24.708 6.183,0 0,-22.012 c 0,-1.703 1.379,-3.09 3.078,-3.09 1.719,0 3.094,1.387 3.094,3.09 l 0,22.012 6.184,0 0,-30.891 z m -36.313,8.879 c 0,-1.703 1.391,-3.09 3.094,-3.09 1.703,0 3.094,1.387 3.094,3.09 l 0,13.133 c 0,1.703 -1.391,3.093 -3.094,3.093 -1.703,0 -3.094,-1.39 -3.094,-3.093 l 0,-13.133 z m -6.183,-8.879 0,43.258 6.183,0 0,-15.457 c 1.153,2.14 3.379,3.488 5.805,3.488 3.617,0 6.566,-2.949 6.566,-6.566 l 0,-18.54 c 0,-3.628 -2.949,-6.566 -6.566,-6.566 -2.426,0 -4.652,1.336 -5.805,3.477 l 0,-3.094 -6.183,0 z m -13.121,43.258 6.187,0 0,-6.184 -6.187,0 0,6.184 z m 0,-12.367 6.187,0 0,-30.891 -6.187,0 0,30.891 z m -24.723,-30.891 0,30.891 6.187,0 0,-3.09 c 1.133,2.14 3.36,3.488 5.786,3.488 3.632,0 6.566,-2.949 6.566,-6.566 l 0,-24.723 -6.168,0 0,22.012 c 0,1.703 -1.391,3.093 -3.094,3.093 -1.715,0 -3.09,-1.39 -3.09,-3.093 l 0,-22.012 -6.187,0 z m -37.074,0 0,30.891 6.183,0 0,-3.09 c 1.133,2.14 3.36,3.488 5.785,3.488 2.27,0 4.399,-1.191 5.59,-3.121 1.375,1.957 3.617,3.121 6,3.121 4.055,0 7.332,-3.289 7.332,-7.348 l 0,-23.941 -6.168,0 0,22.012 c 0,1.703 -1.39,3.093 -3.093,3.093 -1.704,0 -3.094,-1.39 -3.094,-3.093 l 0,-22.012 -6.184,0 0,22.012 c 0,1.703 -1.375,3.093 -3.09,3.093 -1.703,0 -3.078,-1.39 -3.078,-3.093 l 0,-22.012 -6.183,0 z m -18.539,8.879 c 0,-1.703 1.375,-3.09 3.089,-3.09 1.704,0 3.094,1.387 3.094,3.09 l 0,13.133 c 0,1.703 -1.39,3.093 -3.094,3.093 -1.714,0 -3.089,-1.39 -3.089,-3.093 l 0,-13.133 z m -6.184,0 0,13.133 c 0,5.121 4.152,9.277 9.273,9.277 5.122,0 9.262,-4.156 9.262,-9.277 l 0,-13.133 c 0,-5.121 -4.14,-9.262 -9.262,-9.262 -5.121,0 -9.273,4.141 -9.273,9.262 m -3.859,-8.879 -3.094,0 c -3.844,0 -6.949,3.105 -6.949,6.949 l 0,18.922 -3.094,0 0,5.02 3.094,0 0,9.277 6.183,0 0,-9.277 3.86,0 0,-5.02 -3.86,0 0,-18.156 c 0,-1.063 0.867,-1.926 1.93,-1.926 l 1.93,0 0,-5.789 z m -27.036,0 0,25.871 -3.093,0 0,5.02 3.093,0 0,4.64 c 0,4.266 3.461,7.727 7.715,7.727 l 3.094,0 0,-5.801 -2.695,0 c -1.063,0 -1.93,-0.863 -1.93,-1.926 l 0,-4.64 4.625,0 0,-5.02 -4.625,0 0,-25.871 -6.184,0 z m -13.136,13.515 -3.09,0 c -1.703,0 -3.094,-1.386 -3.094,-3.089 l 0,-1.547 c 0,-1.703 1.391,-3.09 3.094,-3.09 1.703,0 3.09,1.387 3.09,3.09 l 0,4.636 z m 6.187,-13.515 -6.187,0 0,3.094 c -1.133,-2.141 -3.36,-3.477 -5.785,-3.477 -3.633,0 -6.567,2.938 -6.567,6.566 l 0,4.625 c 0,4.27 3.461,7.731 7.715,7.731 l 4.637,0 0,3.473 c 0,1.703 -1.387,3.093 -3.09,3.093 -1.703,0 -3.094,-1.39 -3.094,-3.093 l -6.168,0 c 0,5.121 4.141,9.277 9.262,9.277 5.121,0 9.277,-4.156 9.277,-9.277 l 0,-22.012 z m -35.148,0 0,30.891 6.183,0 0,-3.489 c 1.973,2.453 4.95,3.887 8.098,3.887 l 0,-6.496 c -0.625,0.211 -1.277,0.312 -1.93,0.312 -3.402,0 -6.168,-2.765 -6.168,-6.183 l 0,-18.922 -6.183,0 z m -26.27,0 0,43.258 6.184,0 0,-20.082 9.262,20.082 6.183,0 -8.496,-17.387 10.043,-25.871 -6.566,0 -6.95,19.305 -3.476,-6.567 0,-12.738 -6.184,0 z" /></g></g></g></g></g></g></g></svg>