<?xml version="1.0" encoding="UTF-8" standalone="no"?>
<svg
   xmlns:dc="http://purl.org/dc/elements/1.1/"
   xmlns:cc="http://creativecommons.org/ns#"
   xmlns:rdf="http://www.w3.org/1999/02/22-rdf-syntax-ns#"
   xmlns:svg="http://www.w3.org/2000/svg"
   xmlns="http://www.w3.org/2000/svg"
   viewBox="0 0 601.63623 330.57626"
   height="330.57626"
   width="601.63623"
   xml:space="preserve"
   version="1.1"
   id="svg4339"><metadata
     id="metadata4345"><rdf:RDF><cc:Work
         rdf:about=""><dc:format>image/svg+xml</dc:format><dc:type
           rdf:resource="http://purl.org/dc/dcmitype/StillImage" /><dc:title></dc:title></cc:Work></rdf:RDF></metadata><defs
     id="defs4343" /><g
     transform="matrix(1.25,0,0,-1.25,0,330.57625)"
     id="g4347"><g
       id="g4349"><path
         id="path4351"
         style="fill:#ffffff;fill-opacity:1;fill-rule:nonzero;stroke:none"
         d="m 32.055,264.063 c -17.457,0 -31.657,-14.161 -31.657,-31.555 l 0,-200.809 c 0,-17.39 14.2,-31.535 31.657,-31.535 l 417.207,0 c 17.457,0 31.648,14.145 31.648,31.535 l 0,200.809 c 0,17.394 -14.191,31.555 -31.648,31.555 l -417.207,0 z" /><path
         id="path4353"
         style="fill:#000000;fill-opacity:1;fill-rule:nonzero;stroke:none"
         d="m 32.043,19.668 417.207,0 c 6.605,0 11.961,5.336 11.961,11.918 l 0,201.039 c 0,6.582 -5.356,11.918 -11.961,11.918 l -417.207,0 c -6.613,0 -11.965,-5.336 -11.965,-11.918 l 0,-201.039 c 0,-6.582 5.352,-11.918 11.965,-11.918 z M 32.609,8.316 c -13.214,0 -23.918,10.668 -23.918,23.84 l 0,199.895 c 0,13.168 10.704,23.836 23.918,23.836 l 416.184,0 c 13.215,0 23.922,-10.668 23.922,-23.836 l 0,-199.895 c 0,-13.172 -10.707,-23.84 -23.922,-23.84" /><path
         id="path4355"
         style="fill:#000000;fill-opacity:1;fill-rule:nonzero;stroke:none"
         d="M 32.055,264.461 C 14.379,264.461 0,250.121 0,232.508 L 0,31.938 C 0,14.328 14.379,0 32.055,0 l 417.207,0 c 17.672,0 32.047,14.328 32.047,31.938 l 0,200.57 c 0,17.613 -14.371,31.953 -32.047,31.953 l -417.207,0 z m 0,-0.398 417.207,0 c 17.457,0 31.648,-14.161 31.648,-31.555 l 0,-200.57 c 0,-17.391 -14.191,-31.536 -31.648,-31.536 l -417.207,0 C 14.598,0.402 0.398,14.547 0.398,31.938 l 0,200.57 c 0,17.394 14.2,31.555 31.657,31.555 z" /><path
         id="path4357"
         style="fill:#000000;fill-opacity:1;fill-rule:nonzero;stroke:none"
         d="m 423.152,175.59 2.27,2.269 c 1.867,-1.855 4.64,-2.457 7.121,-1.535 0.832,0.317 1.25,1.239 0.93,2.071 -0.219,0.593 -0.766,1 -1.391,1.031 l -3.414,0.219 c -2.652,0.168 -4.672,2.449 -4.496,5.101 0.133,2.106 1.625,3.883 3.676,4.379 2.984,0.723 6.132,0.02 8.543,-1.898 l -1.996,-2.512 c -1.633,1.305 -3.786,1.777 -5.801,1.293 -0.856,-0.207 -1.395,-1.074 -1.184,-1.93 0.164,-0.691 0.754,-1.183 1.457,-1.23 l 3.41,-0.219 c 2.657,-0.164 4.664,-2.445 4.5,-5.098 -0.121,-1.898 -1.328,-3.543 -3.105,-4.215 -3.652,-1.359 -7.754,-0.48 -10.52,2.274 z m -4.004,16.68 -3.214,0 0,3.203 3.214,0 0,-3.203 z m 0,-19.25 -3.214,0 0,16.039 3.214,0 0,-16.039 z m -17.66,9.621 6.824,0 c 0,1.886 -1.527,3.41 -3.402,3.41 -1.894,0 -3.422,-1.524 -3.422,-3.41 z m 10.039,-2.809 -10.039,0 0,-0.394 c 0,-1.403 0.856,-2.653 2.153,-3.168 1.785,-0.715 3.828,-0.211 5.078,1.238 l 2.422,-2.086 c -2.137,-2.5 -5.637,-3.356 -8.696,-2.137 -2.515,1.008 -4.16,3.446 -4.16,6.153 l 0,3.203 c 0,3.652 2.961,6.625 6.625,6.625 3.645,0 6.617,-2.973 6.617,-6.625 l 0,-2.809 z m -33.093,-6.812 -5.012,16.039 3.41,0 3.004,-11.235 3.609,11.235 2.414,0 3.598,-11.235 3.016,11.235 3.41,0 -5.024,-16.039 -2.797,0 -3.421,11.222 -3.399,-11.222 -2.808,0 z m -21.063,2.57 2.274,2.269 c 1.863,-1.855 4.648,-2.457 7.117,-1.535 0.836,0.317 1.25,1.239 0.933,2.071 -0.218,0.593 -0.769,1 -1.394,1.031 l -3.41,0.219 c -2.657,0.168 -4.672,2.449 -4.496,5.101 0.128,2.106 1.621,3.883 3.671,4.379 2.985,0.723 6.133,0.02 8.547,-1.898 l -2.008,-2.512 c -1.625,1.305 -3.761,1.777 -5.793,1.293 -0.855,-0.207 -1.39,-1.074 -1.183,-1.93 0.164,-0.691 0.758,-1.183 1.457,-1.23 l 3.414,-0.219 c 2.652,-0.164 4.66,-2.445 4.496,-5.098 -0.109,-1.898 -1.328,-3.543 -3.105,-4.215 -3.653,-1.359 -7.754,-0.48 -10.52,2.274 z m -4.012,-2.57 -3.203,0 0,1.812 c -1.886,-2.328 -5.289,-2.687 -7.625,-0.812 -1.261,1.031 -2.008,2.578 -2.008,4.211 l 0,10.828 3.215,0 0,-9.828 c 0,-1.766 1.438,-3.204 3.203,-3.204 1.778,0 3.215,1.438 3.215,3.204 l 0,9.828 3.203,0 0,-16.039 z m -20.445,7.023 -4.621,0 c -1.105,0 -2.004,-0.902 -2.004,-2.008 0,-1.109 0.899,-2.008 2.004,-2.008 l 2.613,0 c 1.098,0 2.008,0.899 2.008,2.008 l 0,2.008 z m 3.203,-7.023 -3.203,0 0,1.648 c -0.57,-1.02 -1.648,-1.648 -2.809,-1.648 l -2.007,0 c -2.657,0 -4.817,2.152 -4.817,4.804 0,2.668 2.16,4.817 4.817,4.817 l 4.816,0 0,1.601 c 0,0.879 -0.637,1.633 -1.504,1.789 -1.129,0.196 -2.293,0.196 -3.422,0 -0.57,-0.109 -1.054,-0.472 -1.316,-0.976 l -2.535,1.996 c 0.769,1.129 1.953,1.898 3.293,2.137 1.5,0.253 3.035,0.253 4.539,0 2.402,-0.426 4.148,-2.512 4.148,-4.946 l 0,-11.222 z m -28.883,0 0,22.453 3.215,0 0,-14.039 6.207,7.625 3.817,0 -5.418,-6.219 6.218,-9.82 -4.011,0 -4.215,7.418 -2.598,-2.809 0,-4.609 -3.215,0 z m -13.226,0 0,16.039 3.203,0 0,-1.813 c 1.887,2.328 5.285,2.688 7.621,0.813 l 0,-0.012 -2.281,-2.809 c -1.317,1.176 -3.356,1.067 -4.531,-0.261 -0.524,-0.594 -0.809,-1.348 -0.809,-2.141 l 0,-9.816 -3.203,0 z m -8.031,7.023 -4.606,0 c -1.109,0 -2.008,-0.902 -2.008,-2.008 0,-1.109 0.899,-2.008 2.008,-2.008 l 2.609,0 c 1.098,0 1.997,0.899 1.997,2.008 l 0,2.008 z m 3.203,-7.023 -3.203,0 0,1.648 c -0.559,-1.02 -1.633,-1.648 -2.809,-1.648 l -2.008,0 c -2.652,0 -4.812,2.152 -4.812,4.804 0,2.668 2.16,4.817 4.812,4.817 l 4.817,0 0,1.601 c 0,0.879 -0.637,1.633 -1.493,1.789 -1.14,0.196 -2.3,0.196 -3.422,0 -0.57,-0.109 -1.05,-0.472 -1.316,-0.976 l -2.531,1.996 c 0.754,1.129 1.949,1.898 3.289,2.137 1.504,0.253 3.039,0.253 4.531,0 2.403,-0.426 4.145,-2.512 4.145,-4.946 l 0,-11.222 z m -27.071,12.035 5.223,0 c 1.984,0 3.606,1.613 3.606,3.609 0,1.984 -1.622,3.606 -3.606,3.606 l -5.223,0 0,-7.215 z m -3.402,-12.035 0,22.453 8.82,0 c 3.762,0 6.825,-3.047 6.825,-6.809 0,-3.773 -3.063,-6.824 -6.825,-6.824 l -5.418,0 0,-8.82 -3.402,0 z m -16.047,0 -2.004,0 c -2,0 -3.609,1.613 -3.609,3.609 l 0,9.816 -1.602,0 0,2.614 1.602,0 0,4.812 3.211,0 0,-4.812 2.402,0 0,-2.614 -2.402,0 0,-9.422 c 0,-0.546 0.449,-0.996 1,-0.996 l 1.402,0 0,-3.007 z m -11.625,19.25 -3.215,0 0,3.203 3.215,0 0,-3.203 z m 0,-19.25 -3.215,0 0,16.039 3.215,0 0,-16.039 z m -30.484,0 0,16.039 3.203,0 0,-1.813 c 1.879,2.328 5.289,2.688 7.613,0.813 0.363,-0.297 0.692,-0.637 0.965,-1.008 2.098,2.578 5.891,2.949 8.469,0.855 1.394,-1.14 2.203,-2.851 2.203,-4.66 l 0,-10.226 -3.199,0 0,9.82 c 0,1.777 -1.438,3.211 -3.215,3.211 -1.766,0 -3.203,-1.434 -3.203,-3.211 l 0,-9.82 -3.215,0 0,9.82 c 0,1.777 -1.438,3.211 -3.215,3.211 -1.766,0 -3.203,-1.434 -3.203,-3.211 l 0,-9.82" /><path
         id="path4359"
         style="fill:#000000;fill-opacity:1;fill-rule:nonzero;stroke:none"
         d="m 393.875,137.723 -3.41,0 0,22.453 3.41,0 0,-22.453 z m -8.629,0 -3.402,0 0,22.453 3.402,0 0,-22.453 z m -8.625,0 -3.398,0 0,22.453 3.398,0 0,-22.453 z m -8.621,0 -3.398,0 0,22.453 3.398,0 0,-22.453 z m -8.621,0 -3.41,0 0,22.453 3.41,0 0,-22.453 z m -8.621,0 -3.41,0 0,22.453 3.41,0 0,-22.453 z m -8.633,0 -3.398,0 0,22.453 3.398,0 0,-22.453 z m -8.621,0 -3.399,0 0,22.453 3.399,0 0,-22.453 z m -8.621,0 -3.399,0 0,22.453 3.399,0 0,-22.453 z m -8.621,0 -3.41,0 0,22.453 3.41,0 0,-22.453 z m -8.621,0 -3.411,0 0,22.453 3.411,0 0,-22.453 z m -8.621,0 -3.411,0 0,22.453 3.411,0 0,-22.453 z m -19.461,0 -3.211,0 0,3.203 3.211,0 0,-3.203 z m -14.039,0 0,16.039 3.214,0 0,-1.813 c 1.875,2.328 5.286,2.688 7.614,0.813 l -2.274,-2.821 c -1.324,1.176 -3.355,1.067 -4.527,-0.261 -0.527,-0.594 -0.813,-1.348 -0.813,-2.129 l 0,-9.828 -3.214,0 z m -22.059,0 0,22.453 3.203,0 10.234,-16.035 0,16.035 3.411,0 0,-22.453 -3.211,0 -10.223,16.039 0,-16.039" /><path
         id="path4361"
         style="fill:#000000;fill-opacity:1;fill-rule:nonzero;stroke:none"
         d="m 374.824,116.859 -8.019,0 0,8.032 8.019,0 0,-8.032 z m 0,-48.128 -8.019,0 0,40.113 8.019,0 0,-40.113 z m -44.117,24.066 17.047,0 c 0,4.703 -3.828,8.523 -8.524,8.523 -4.714,0 -8.523,-3.82 -8.523,-8.523 z m 25.063,-7.02 -25.063,0 0,-1 c 0,-3.488 2.117,-6.625 5.355,-7.918 4.461,-1.777 9.563,-0.527 12.68,3.114 l 6.086,-5.219 c -5.363,-6.254 -14.094,-8.395 -21.75,-5.344 -6.273,2.512 -10.398,8.602 -10.398,15.367 l 0,8.02 c 0,9.137 7.402,16.551 16.55,16.551 9.137,0 16.54,-7.414 16.54,-16.551 l 0,-7.02 z m -64.176,-17.046 0,40.113 8.019,0 0,-4.531 c 4.703,5.812 13.227,6.722 19.039,2.019 0,0 0.008,0 0.008,-0.012 l -5.691,-7.031 c -3.313,2.953 -8.379,2.656 -11.332,-0.656 -1.305,-1.473 -2.028,-3.367 -2.028,-5.332 l 0,-24.57 -8.019,0 0.004,0 z m -25.063,0 0,33.597 -4.015,0 0,6.516 4.015,0 0,6.012 c 0,5.539 4.485,10.035 10.024,10.035 l 6.011,0 0,-7.524 -5.507,0 c -1.391,0 -2.512,-1.133 -2.512,-2.511 l 0,-6.012 8.019,0 0,-6.516 -8.019,0 0,-33.597" /><path
         id="path4363"
         style="fill:#000000;fill-opacity:1;fill-rule:nonzero;stroke:none"
         d="m 162.797,206.664 c 0,-8.348 -6.766,-15.105 -15.102,-15.105 -8.336,0 -15.093,6.757 -15.093,15.105 0,8.336 6.757,15.102 15.093,15.102 8.336,0 15.102,-6.766 15.102,-15.102 z m -26.422,-81.172 0,11.332 -37.754,0 c 0,7.293 5.922,13.207 13.215,13.207 l 24.539,0 0,22.649 c 0,7.308 5.91,13.218 13.207,13.218 7.305,0 13.215,-5.91 13.215,-13.218 l 0,-50.961 c 0,-7.293 -5.91,-13.203 -13.215,-13.203 l -42.879,0 c -1.73,0 -3.234,-1.188 -3.664,-2.852 L 90.02,53.867 C 88.035,45.969 80.148,41.066 72.195,42.789 l 15.246,70.793 c 1.493,6.953 7.649,11.91 14.766,11.91 l 34.168,0 z m -24.461,-24.535 7.973,0 c -7.305,-19.523 2.613,-41.277 22.148,-48.57 19.524,-7.293 41.274,2.621 48.57,22.144 7.02,18.793 -1.878,39.785 -20.261,47.813 l 0,8.109 C 193.926,122.117 206.289,96.238 197.953,72.645 189.617,49.063 163.73,36.703 140.148,45.039 117.289,53.121 104.84,77.77 111.914,100.957" /></g></g></svg>