<?xml version="1.0" encoding="UTF-8" standalone="no"?>
<svg
   xmlns:dc="http://purl.org/dc/elements/1.1/"
   xmlns:cc="http://creativecommons.org/ns#"
   xmlns:rdf="http://www.w3.org/1999/02/22-rdf-syntax-ns#"
   xmlns:svg="http://www.w3.org/2000/svg"
   xmlns="http://www.w3.org/2000/svg"
   viewBox="0 0 601.63623 330.57626"
   height="330.57626"
   width="601.63623"
   xml:space="preserve"
   version="1.1"
   id="svg4210"><metadata
     id="metadata4216"><rdf:RDF><cc:Work
         rdf:about=""><dc:format>image/svg+xml</dc:format><dc:type
           rdf:resource="http://purl.org/dc/dcmitype/StillImage" /><dc:title></dc:title></cc:Work></rdf:RDF></metadata><defs
     id="defs4214" /><g
     transform="matrix(1.25,0,0,-1.25,0,330.57625)"
     id="g4218"><g
       id="g4220"><path
         id="path4222"
         style="fill:#ffffff;fill-opacity:1;fill-rule:nonzero;stroke:none"
         d="m 32.055,264.063 c -17.457,0 -31.657,-14.161 -31.657,-31.555 l 0,-200.809 c 0,-17.39 14.2,-31.535 31.657,-31.535 l 417.207,0 c 17.457,0 31.648,14.145 31.648,31.535 l 0,200.809 c 0,17.394 -14.191,31.555 -31.648,31.555 l -417.207,0 z" /><path
         id="path4224"
         style="fill:#000000;fill-opacity:1;fill-rule:nonzero;stroke:none"
         d="m 32.043,19.668 417.207,0 c 6.605,0 11.961,5.336 11.961,11.918 l 0,201.039 c 0,6.582 -5.356,11.918 -11.961,11.918 l -417.207,0 c -6.613,0 -11.965,-5.336 -11.965,-11.918 l 0,-201.039 c 0,-6.582 5.352,-11.918 11.965,-11.918 z M 32.609,8.316 c -13.214,0 -23.918,10.668 -23.918,23.84 l 0,199.895 c 0,13.168 10.704,23.836 23.918,23.836 l 416.184,0 c 13.215,0 23.922,-10.668 23.922,-23.836 l 0,-199.895 c 0,-13.172 -10.707,-23.84 -23.922,-23.84" /><path
         id="path4226"
         style="fill:#000000;fill-opacity:1;fill-rule:nonzero;stroke:none"
         d="M 32.055,264.461 C 14.379,264.461 0,250.121 0,232.508 L 0,31.938 C 0,14.328 14.379,0 32.055,0 l 417.207,0 c 17.672,0 32.047,14.328 32.047,31.938 l 0,200.57 c 0,17.613 -14.371,31.953 -32.047,31.953 l -417.207,0 z m 0,-0.398 417.207,0 c 17.457,0 31.648,-14.161 31.648,-31.555 l 0,-200.57 c 0,-17.391 -14.191,-31.536 -31.648,-31.536 l -417.207,0 C 14.598,0.402 0.398,14.547 0.398,31.938 l 0,200.57 c 0,17.394 14.2,31.555 31.657,31.555 z" /><path
         id="path4228"
         style="fill:#000000;fill-opacity:1;fill-rule:nonzero;stroke:none"
         d="m 298.371,209.152 8.02,0 0,-20.371 0.16,0 c 1.258,1.571 2.75,2.75 4.48,3.539 1.785,0.786 3.75,1.18 5.899,1.18 1.574,0 3.148,-0.316 4.718,-0.945 1.575,-0.578 2.993,-1.442 4.25,-2.594 1.258,-1.156 2.282,-2.598 3.067,-4.328 0.84,-1.731 1.258,-3.723 1.258,-5.977 l 0,-26.504 -8.024,0 0,23.75 c 0,2.727 -0.758,4.825 -2.277,6.293 -1.469,1.52 -3.332,2.282 -5.586,2.282 -2.309,0 -4.223,-0.762 -5.742,-2.282 -1.469,-1.468 -2.203,-3.566 -2.203,-6.293 l 0,-23.75 -8.02,0 0,56 z" /><path
         id="path4230"
         style="fill:#000000;fill-opacity:1;fill-rule:nonzero;stroke:none"
         d="m 151.086,209.152 31.586,0 0,-7.957 -18.797,-47.578 -8.891,0 18.797,47.578 -14.742,0 0,-8.035 -7.953,0 0,15.992 z" /><path
         id="path4232"
         style="fill:#000000;fill-opacity:1;fill-rule:nonzero;stroke:none"
         d="m 190.316,179.199 23.473,0 0,-7.953 -23.473,0 0,7.953 z" /><path
         id="path4234"
         style="fill:#000000;fill-opacity:1;fill-rule:nonzero;stroke:none"
         d="m 234.598,200.727 -7.879,-5.77 0,8.422 7.879,5.773 7.953,0 0,-55.535 -7.953,0 0,47.11 z" /><path
         id="path4236"
         style="fill:#000000;fill-opacity:1;fill-rule:nonzero;stroke:none"
         d="m 256.68,209.152 29.558,0 0,-7.957 -22.07,0 0,-12.558 c 2.547,2.031 5.512,3.043 8.891,3.043 2.132,0 4.054,-0.414 5.773,-1.246 1.715,-0.782 3.094,-1.719 4.133,-2.809 0.781,-0.832 1.43,-1.664 1.949,-2.496 0.57,-0.781 1.016,-1.742 1.324,-2.887 0.367,-1.144 0.625,-2.496 0.782,-4.054 0.207,-1.559 0.312,-3.485 0.312,-5.774 0,-1.871 -0.078,-3.484 -0.234,-4.836 -0.106,-1.297 -0.313,-2.469 -0.625,-3.508 -0.258,-0.988 -0.598,-1.871 -1.012,-2.652 -0.418,-0.781 -0.938,-1.559 -1.563,-2.34 -1.14,-1.457 -2.726,-2.808 -4.757,-4.055 -2.028,-1.25 -4.446,-1.871 -7.25,-1.871 -1.821,0 -3.641,0.258 -5.461,0.778 -1.77,0.519 -3.407,1.351 -4.914,2.496 -1.508,1.195 -2.782,2.703 -3.821,4.523 -1.043,1.821 -1.718,4.032 -2.027,6.629 l 7.953,0 c 0.418,-1.972 1.274,-3.558 2.574,-4.758 1.352,-1.14 3.145,-1.714 5.383,-1.714 1.922,0 3.406,0.363 4.445,1.093 1.09,0.778 1.872,1.742 2.34,2.883 0.52,1.199 0.805,2.496 0.856,3.902 0.105,1.403 0.156,2.754 0.156,4.055 0,1.559 -0.129,2.988 -0.387,4.289 -0.211,1.301 -0.601,2.418 -1.172,3.356 -0.57,0.933 -1.402,1.664 -2.496,2.183 -1.039,0.571 -2.367,0.856 -3.976,0.856 -1.508,0 -2.86,-0.364 -4.055,-1.09 -1.144,-0.676 -2.187,-1.848 -3.121,-3.512 l -7.488,0 0,30.031 z" /><path
         id="path4238"
         style="fill:#000000;fill-opacity:1;fill-rule:nonzero;stroke:none"
         d="m 81.547,70.039 c 2.117,-1.648 4.515,-2.992 7.195,-4.023 2.68,-0.977 5.492,-1.469 8.43,-1.469 3.406,0 6.058,0.695 7.969,2.09 1.957,1.39 2.937,3.246 2.937,5.566 0,1.961 -0.594,3.613 -1.777,4.953 -1.137,1.34 -2.942,2.164 -5.414,2.473 -1.239,0.156 -2.399,0.312 -3.481,0.465 l -3.793,0.543 c -4.793,0.668 -8.429,2.398 -10.906,5.179 -2.473,2.836 -3.711,6.266 -3.711,10.29 0,2.371 0.387,4.539 1.16,6.496 0.824,1.961 2.012,3.636 3.559,5.027 1.547,1.445 3.43,2.555 5.644,3.328 2.219,0.824 4.746,1.238 7.582,1.238 3.403,0 6.602,-0.543 9.59,-1.625 2.992,-1.082 5.75,-2.449 8.278,-4.101 l -4.641,-6.883 c -2.012,1.289 -4.176,2.32 -6.496,3.094 -2.27,0.773 -4.645,1.16 -7.117,1.16 -2.578,0 -4.77,-0.668 -6.575,-2.012 -1.753,-1.289 -2.628,-3.246 -2.628,-5.879 0,-1.547 0.589,-3.015 1.777,-4.406 1.238,-1.34 3.25,-2.219 6.031,-2.629 0.723,-0.105 1.602,-0.234 2.633,-0.391 1.031,-0.152 2.215,-0.308 3.559,-0.46 2.578,-0.313 4.793,-0.957 6.648,-1.934 1.91,-0.981 3.48,-2.191 4.719,-3.637 1.238,-1.445 2.168,-3.066 2.785,-4.871 0.621,-1.754 0.93,-3.558 0.93,-5.418 0,-5.101 -1.754,-9.047 -5.262,-11.832 -3.453,-2.785 -8.145,-4.176 -14.078,-4.176 -4.071,0 -7.864,0.618 -11.367,1.856 -3.508,1.238 -6.731,3.144 -9.668,5.722 l 5.488,6.266 z" /><path
         id="path4240"
         style="fill:#000000;fill-opacity:1;fill-rule:nonzero;stroke:none"
         d="m 155.023,63 c -1.703,-1.957 -3.738,-3.582 -6.113,-4.871 -2.32,-1.289 -4.976,-1.934 -7.965,-1.934 -2.269,0 -4.488,0.36 -6.652,1.082 -2.113,0.774 -3.996,1.957 -5.648,3.559 -1.649,1.598 -2.989,3.66 -4.02,6.187 -0.98,2.579 -1.469,5.645 -1.469,9.204 0,3.609 0.489,6.679 1.469,9.203 1.031,2.527 2.371,4.59 4.02,6.191 1.652,1.649 3.535,2.836 5.648,3.555 2.164,0.773 4.383,1.16 6.652,1.16 2.989,0 5.645,-0.645 7.965,-1.934 2.375,-1.289 4.41,-2.91 6.113,-4.871 l -5.8,-5.183 c -0.981,1.187 -2.141,2.168 -3.485,2.941 -1.34,0.774 -2.836,1.16 -4.484,1.16 -3.25,0 -5.774,-0.957 -7.582,-2.863 -1.75,-1.906 -2.629,-5.027 -2.629,-9.359 0,-4.282 0.879,-7.375 2.629,-9.282 1.808,-1.906 4.332,-2.863 7.582,-2.863 1.648,0 3.144,0.387 4.484,1.16 1.344,0.774 2.504,1.754 3.485,2.942 l 5.8,-5.184 z" /><path
         id="path4242"
         style="fill:#000000;fill-opacity:1;fill-rule:nonzero;stroke:none"
         d="m 164.695,111.731 7.891,0 0,-20.036 0.152,0 c 1.239,1.547 2.707,2.707 4.41,3.481 1.754,0.773 3.688,1.16 5.801,1.16 1.547,0 3.094,-0.309 4.641,-0.926 1.547,-0.566 2.937,-1.418 4.176,-2.554 1.238,-1.133 2.242,-2.551 3.015,-4.254 0.828,-1.7 1.239,-3.661 1.239,-5.879 l 0,-26.067 -7.887,0 0,23.36 c 0,2.683 -0.75,4.746 -2.246,6.187 -1.442,1.496 -3.274,2.246 -5.492,2.246 -2.266,0 -4.149,-0.75 -5.645,-2.246 -1.445,-1.441 -2.164,-3.504 -2.164,-6.187 l 0,-23.36 -7.891,0 0,55.075 z" /><path
         id="path4244"
         style="fill:#000000;fill-opacity:1;fill-rule:nonzero;stroke:none"
         d="m 208.352,95.875 7.886,0 0,-23.359 c 0,-2.684 0.723,-4.77 2.168,-6.266 1.496,-1.445 3.375,-2.168 5.645,-2.168 2.219,0 4.051,0.723 5.492,2.168 1.496,1.496 2.242,3.582 2.242,6.266 l 0,23.359 7.891,0 0,-39.219 -7.891,0 0,4.18 -0.152,0 c -1.238,-1.547 -2.735,-2.707 -4.488,-3.48 -1.7,-0.774 -3.583,-1.161 -5.645,-1.161 -1.547,0 -3.121,0.282 -4.719,0.848 -1.547,0.621 -2.937,1.496 -4.176,2.633 -1.238,1.133 -2.269,2.551 -3.093,4.254 -0.774,1.699 -1.16,3.66 -1.16,5.879 l 0,26.066 z" /><path
         id="path4246"
         style="fill:#000000;fill-opacity:1;fill-rule:nonzero;stroke:none"
         d="m 252.008,111.731 7.887,0 0,-44.942 c 0,-1.805 0.98,-2.707 2.941,-2.707 l 2.707,0 0,-7.426 -3.481,0 c -1.445,0 -2.785,0.157 -4.023,0.465 -1.187,0.363 -2.242,0.902 -3.172,1.625 -0.875,0.774 -1.57,1.754 -2.086,2.942 -0.515,1.234 -0.773,2.73 -0.773,4.484 l 0,45.559 z" /><path
         id="path4248"
         style="fill:#000000;fill-opacity:1;fill-rule:nonzero;stroke:none"
         d="m 298.043,84.117 -0.156,0 -8.199,-27.461 -6.961,0 -12.532,39.219 8.356,0 7.504,-27.461 0.152,0 8.895,27.461 5.726,0 8.895,-27.461 0.152,0 7.504,27.461 8.355,0 -12.531,-39.219 -6.961,0 -8.199,27.461 z" /><path
         id="path4250"
         style="fill:#000000;fill-opacity:1;fill-rule:nonzero;stroke:none"
         d="m 340.199,73.289 c 0,-3.25 0.875,-5.672 2.629,-7.273 1.754,-1.598 3.996,-2.395 6.731,-2.395 1.496,0 2.992,0.332 4.484,1.004 1.547,0.672 2.914,1.598 4.102,2.785 l 5.722,-4.875 c -1.961,-2.269 -4.152,-3.89 -6.574,-4.871 -2.422,-0.98 -4.949,-1.469 -7.578,-1.469 -2.012,0 -4.051,0.282 -6.113,0.848 -2.063,0.57 -3.946,1.602 -5.645,3.094 -1.652,1.496 -3.016,3.535 -4.102,6.113 -1.031,2.578 -1.546,5.879 -1.546,9.898 0,3.817 0.492,7.016 1.468,9.594 0.981,2.578 2.246,4.641 3.793,6.188 1.547,1.597 3.274,2.73 5.18,3.402 1.91,0.672 3.816,1.004 5.727,1.004 2.164,0 4.226,-0.387 6.187,-1.16 1.957,-0.774 3.66,-1.879 5.106,-3.324 1.492,-1.446 2.679,-3.2 3.558,-5.262 0.875,-2.008 1.313,-4.277 1.313,-6.805 l 0,-6.496 -24.442,0 z m 16.551,6.496 c -0.102,2.992 -0.926,5.258 -2.473,6.805 -1.547,1.547 -3.48,2.324 -5.8,2.324 -2.321,0 -4.254,-0.777 -5.801,-2.324 -1.547,-1.547 -2.375,-3.813 -2.477,-6.805 l 16.551,0 z" /><path
         id="path4252"
         style="fill:#000000;fill-opacity:1;fill-rule:nonzero;stroke:none"
         d="m 397.363,60.758 c -1.238,-1.34 -2.734,-2.449 -4.488,-3.328 -1.754,-0.824 -3.637,-1.235 -5.645,-1.235 -2.578,0 -4.746,0.516 -6.5,1.547 -1.699,1.031 -2.988,2.114 -3.867,3.246 -0.566,0.723 -1.031,1.418 -1.39,2.09 -0.364,0.672 -0.672,1.52 -0.93,2.551 -0.207,1.031 -0.359,2.375 -0.465,4.023 -0.101,1.649 -0.152,3.84 -0.152,6.575 0,2.734 0.051,4.925 0.152,6.574 0.106,1.652 0.258,2.992 0.465,4.023 0.258,1.082 0.566,1.961 0.93,2.629 0.359,0.672 0.824,1.367 1.39,2.09 0.879,1.133 2.168,2.215 3.867,3.246 1.754,1.031 3.922,1.547 6.5,1.547 2.008,0 3.813,-0.387 5.415,-1.16 1.648,-0.774 3.222,-1.934 4.718,-3.481 l 0,4.18 7.887,0 0,-38.289 c 0,-2.938 -0.465,-5.492 -1.391,-7.656 -0.929,-2.168 -2.191,-3.946 -3.789,-5.34 -1.547,-1.442 -3.351,-2.5 -5.414,-3.168 -2.062,-0.723 -4.203,-1.086 -6.422,-1.086 -2.527,0 -5,0.621 -7.425,1.859 -2.371,1.184 -4.434,2.758 -6.188,4.719 l 6.109,4.871 c 0.981,-0.98 2.118,-1.804 3.407,-2.476 1.34,-0.719 2.758,-1.082 4.254,-1.082 2.629,0 4.769,0.722 6.418,2.168 1.703,1.441 2.554,3.554 2.554,6.339 l 0,4.024 z m -15.547,15.469 0,-3.789 c 0.051,-0.981 0.129,-1.805 0.231,-2.477 0.101,-0.617 0.258,-1.133 0.465,-1.547 0.207,-0.41 0.488,-0.851 0.851,-1.312 0.567,-0.723 1.34,-1.418 2.321,-2.09 1.031,-0.617 2.343,-0.93 3.941,-0.93 1.547,0 2.813,0.313 3.793,0.93 1.031,0.672 1.828,1.367 2.398,2.09 0.36,0.461 0.645,0.902 0.848,1.312 0.207,0.414 0.363,0.93 0.465,1.547 0.105,0.672 0.156,1.496 0.156,2.477 0.051,0.98 0.078,2.242 0.078,3.789 0,1.597 -0.027,2.886 -0.078,3.867 0,0.98 -0.051,1.781 -0.156,2.398 -0.102,0.672 -0.258,1.211 -0.465,1.625 -0.203,0.41 -0.488,0.852 -0.848,1.313 -0.57,0.722 -1.367,1.394 -2.398,2.011 -0.98,0.672 -2.246,1.008 -3.793,1.008 -1.598,0 -2.91,-0.336 -3.941,-1.008 -0.981,-0.617 -1.754,-1.289 -2.321,-2.011 -0.363,-0.461 -0.644,-0.903 -0.851,-1.313 -0.207,-0.414 -0.364,-0.953 -0.465,-1.625 -0.102,-0.617 -0.18,-1.418 -0.231,-2.398 l 0,-3.867 z" /></g></g></svg>