<?xml version="1.0" encoding="UTF-8" standalone="no"?>
<svg
   xmlns:dc="http://purl.org/dc/elements/1.1/"
   xmlns:cc="http://creativecommons.org/ns#"
   xmlns:rdf="http://www.w3.org/1999/02/22-rdf-syntax-ns#"
   xmlns:svg="http://www.w3.org/2000/svg"
   xmlns="http://www.w3.org/2000/svg"
   viewBox="0 0 601.63623 330.57626"
   height="330.57626"
   width="601.63623"
   xml:space="preserve"
   version="1.1"
   id="svg4212"><metadata
     id="metadata4218"><rdf:RDF><cc:Work
         rdf:about=""><dc:format>image/svg+xml</dc:format><dc:type
           rdf:resource="http://purl.org/dc/dcmitype/StillImage" /><dc:title></dc:title></cc:Work></rdf:RDF></metadata><defs
     id="defs4216" /><g
     transform="matrix(1.25,0,0,-1.25,0,330.57625)"
     id="g4220"><g
       id="g4222"><path
         id="path4224"
         style="fill:#ffffff;fill-opacity:1;fill-rule:nonzero;stroke:none"
         d="m 32.055,264.063 c -17.457,0 -31.657,-14.161 -31.657,-31.555 l 0,-200.809 c 0,-17.39 14.2,-31.535 31.657,-31.535 l 417.207,0 c 17.457,0 31.648,14.145 31.648,31.535 l 0,200.809 c 0,17.394 -14.191,31.555 -31.648,31.555 l -417.207,0 z" /><path
         id="path4226"
         style="fill:#000000;fill-opacity:1;fill-rule:nonzero;stroke:none"
         d="m 32.043,19.668 417.207,0 c 6.605,0 11.961,5.336 11.961,11.918 l 0,201.039 c 0,6.582 -5.356,11.918 -11.961,11.918 l -417.207,0 c -6.613,0 -11.965,-5.336 -11.965,-11.918 l 0,-201.039 c 0,-6.582 5.352,-11.918 11.965,-11.918 z M 32.609,8.316 c -13.214,0 -23.918,10.668 -23.918,23.84 l 0,199.895 c 0,13.168 10.704,23.836 23.918,23.836 l 416.184,0 c 13.215,0 23.922,-10.668 23.922,-23.836 l 0,-199.895 c 0,-13.172 -10.707,-23.84 -23.922,-23.84" /><path
         id="path4228"
         style="fill:#000000;fill-opacity:1;fill-rule:nonzero;stroke:none"
         d="M 32.055,264.461 C 14.379,264.461 0,250.121 0,232.508 L 0,31.938 C 0,14.328 14.379,0 32.055,0 l 417.207,0 c 17.672,0 32.047,14.328 32.047,31.938 l 0,200.57 c 0,17.613 -14.371,31.953 -32.047,31.953 l -417.207,0 z m 0,-0.398 417.207,0 c 17.457,0 31.648,-14.161 31.648,-31.555 l 0,-200.57 c 0,-17.391 -14.191,-31.536 -31.648,-31.536 l -417.207,0 C 14.598,0.402 0.398,14.547 0.398,31.938 l 0,200.57 c 0,17.394 14.2,31.555 31.657,31.555 z" /><path
         id="path4230"
         style="fill:#000000;fill-opacity:1;fill-rule:nonzero;stroke:none"
         d="m 433.375,121.129 -3.402,0 0,22.465 3.402,0 0,-22.465 z m -8.621,0 -3.402,0 0,22.465 3.402,0 0,-22.465 z m -8.621,0 -3.41,0 0,22.465 3.41,0 0,-22.465 z m -8.621,0 -3.414,0 0,22.465 3.414,0 0,-22.465 z m -8.621,0 -3.414,0 0,22.465 3.414,0 0,-22.465 z m -8.621,0 -3.426,0 0,22.465 3.426,0 0,-22.465 z m -8.625,0 -3.422,0 0,22.465 3.422,0 0,-22.465 z m -8.629,0 -3.414,0 0,22.465 3.414,0 0,-22.465 z m -8.625,0 -3.411,0 0,22.465 3.411,0 0,-22.465 z m -8.621,0 -3.411,0 0,22.465 3.411,0 0,-22.465 z m -19.458,0 -3.203,0 0,3.211 3.203,0 0,-3.211 z m -14.027,0 0,16.035 3.199,0 0,-1.808 c 1.879,2.335 5.289,2.687 7.614,0.808 l 0.007,0 -2.281,-2.816 c -1.324,1.183 -3.344,1.062 -4.527,-0.266 -0.516,-0.578 -0.813,-1.348 -0.813,-2.125 l 0,-9.828 -3.203,0 0.004,0 z m -22.07,0 0,22.465 3.215,0 10.23,-16.051 0,16.051 3.402,0 0,-22.465 -3.203,0 -10.234,16.035 0,-16.035 -3.41,0 z m -29.672,2.566 2.262,2.27 c 1.863,-1.856 4.648,-2.457 7.117,-1.524 0.832,0.305 1.25,1.227 0.933,2.063 -0.21,0.59 -0.769,0.996 -1.394,1.039 l -3.41,0.211 c -2.656,0.164 -4.672,2.445 -4.496,5.102 0.129,2.117 1.621,3.89 3.672,4.386 2.984,0.711 6.144,0.008 8.546,-1.91 l -1.996,-2.5 c -1.636,1.293 -3.765,1.766 -5.804,1.285 -0.856,-0.211 -1.391,-1.078 -1.184,-1.933 0.164,-0.692 0.766,-1.184 1.457,-1.227 l 3.414,-0.211 c 2.652,-0.176 4.672,-2.457 4.508,-5.109 -0.121,-1.887 -1.34,-3.543 -3.117,-4.203 -3.653,-1.371 -7.754,-0.481 -10.508,2.261 z m -4.016,16.684 -3.211,0 0,3.215 3.211,0 0,-3.215 z m 0,-19.25 -3.211,0 0,16.035 3.211,0 0,-16.035 z m -17.656,9.629 6.832,0 c 0,1.875 -1.535,3.402 -3.41,3.402 -1.887,0 -3.422,-1.527 -3.422,-3.402 z m 10.035,-2.82 -10.035,0 0,-0.395 c 0,-1.391 0.856,-2.641 2.149,-3.168 1.789,-0.715 3.828,-0.211 5.078,1.25 l 2.433,-2.094 c -2.148,-2.504 -5.648,-3.359 -8.707,-2.129 -2.512,0.996 -4.156,3.434 -4.156,6.141 l 0,3.215 c 0,3.652 2.961,6.613 6.625,6.613 3.652,0 6.613,-2.961 6.613,-6.613 l 0,-2.82 z m -33.094,-6.809 -5.011,16.035 3.41,0 3.008,-11.223 3.605,11.223 2.414,0 3.61,-11.223 3.004,11.223 3.414,0 -5.016,-16.035 -2.805,0 -3.414,11.23 -3.41,-11.23 -2.809,0 z m -21.058,2.566 2.269,2.27 c 1.864,-1.856 4.653,-2.457 7.118,-1.524 0.836,0.305 1.254,1.227 0.945,2.063 -0.219,0.59 -0.77,0.996 -1.402,1.039 l -3.414,0.211 c -2.653,0.164 -4.661,2.445 -4.497,5.102 0.133,2.117 1.625,3.89 3.676,4.386 2.992,0.711 6.141,0.008 8.543,-1.91 l -1.996,-2.5 c -1.633,1.293 -3.773,1.766 -5.801,1.285 -0.855,-0.211 -1.394,-1.078 -1.187,-1.933 0.164,-0.692 0.758,-1.184 1.461,-1.227 l 3.41,-0.211 c 2.656,-0.176 4.672,-2.457 4.508,-5.109 -0.121,-1.887 -1.336,-3.543 -3.114,-4.203 -3.644,-1.371 -7.757,-0.481 -10.519,2.261 z m -4.004,-2.566 -3.215,0 0,1.809 c -1.875,-2.325 -5.285,-2.688 -7.613,-0.813 -1.27,1.031 -2.004,2.578 -2.004,4.215 l 0,10.824 3.199,0 0,-9.816 c 0,-1.778 1.438,-3.215 3.215,-3.215 1.766,0 3.203,1.437 3.203,3.215 l 0,9.816 3.215,0 0,-16.035 z m -20.457,7.019 -4.617,0 c -1.11,0 -1.996,-0.898 -1.996,-2.007 0,-1.11 0.886,-2.008 1.996,-2.008 l 2.609,0 c 1.11,0 2.008,0.898 2.008,2.008 l 0,2.007 z m 3.203,-7.019 -3.203,0 0,1.656 c -0.57,-1.019 -1.645,-1.656 -2.809,-1.656 l -2.007,0 c -2.653,0 -4.813,2.148 -4.813,4.812 0,2.657 2.16,4.817 4.813,4.817 l 4.816,0 0,1.601 c 0,0.879 -0.637,1.625 -1.492,1.778 -1.141,0.199 -2.305,0.199 -3.434,0 -0.57,-0.098 -1.051,-0.461 -1.305,-0.977 l -2.535,2.008 c 0.758,1.129 1.942,1.898 3.282,2.129 1.503,0.262 3.039,0.262 4.543,0 2.398,-0.418 4.144,-2.504 4.144,-4.938 l 0,-11.23 z m -28.871,0 0,22.465 3.203,0 0,-14.043 6.219,7.613 3.808,0 -5.41,-6.207 6.211,-9.828 -4.004,0 -4.211,7.414 -2.613,-2.809 0,-4.605 -3.203,0 z m -13.238,0 0,16.035 3.203,0 0,-1.808 c 1.887,2.335 5.297,2.687 7.625,0.808 l -2.285,-2.816 c -1.317,1.183 -3.344,1.062 -4.528,-0.266 -0.515,-0.578 -0.812,-1.348 -0.812,-2.125 l 0,-9.828 -3.203,0 z m -8.02,7.019 -4.617,0 c -1.105,0 -2.008,-0.898 -2.008,-2.007 0,-1.11 0.903,-2.008 2.008,-2.008 l 2.613,0 c 1.106,0 2.004,0.898 2.004,2.008 l 0,2.007 z m 3.203,-7.019 -3.203,0 0,1.656 c -0.57,-1.019 -1.644,-1.656 -2.816,-1.656 l -1.996,0 c -2.668,0 -4.817,2.148 -4.817,4.812 0,2.657 2.149,4.817 4.817,4.817 l 4.812,0 0,1.601 c 0,0.879 -0.633,1.625 -1.5,1.778 -1.133,0.199 -2.293,0.199 -3.422,0 -0.57,-0.098 -1.054,-0.461 -1.316,-0.977 l -2.535,2.008 c 0.769,1.129 1.953,1.898 3.289,2.129 1.504,0.262 3.039,0.262 4.543,0 2.39,-0.418 4.144,-2.504 4.144,-4.938 l 0,-11.23 z m -27.07,12.031 5.211,0 c 1.996,0 3.609,1.613 3.609,3.61 0,1.996 -1.613,3.609 -3.609,3.609 l -5.211,0 0,-7.219 z m -3.41,-12.031 0,22.465 8.82,0 c 3.77,0 6.82,-3.063 6.82,-6.824 0,-3.762 -3.05,-6.825 -6.82,-6.825 l -5.41,0 0,-8.816 -3.41,0 z m -16.047,0 -1.996,0 c -1.996,0 -3.621,1.609 -3.621,3.609 l 0,9.828 -1.602,0 0,2.598 1.602,0 0,4.817 3.215,0 0,-4.817 2.402,0 0,-2.598 -2.402,0 0,-9.425 c 0,-0.559 0.449,-1.008 0.996,-1.008 l 1.406,0 0,-3.004 z m -11.629,19.25 -3.211,0 0,3.215 3.211,0 0,-3.215 z m 0,-19.25 -3.211,0 0,16.035 3.211,0 0,-16.035 z m -30.48,0 0,16.035 3.203,0 0,-1.808 c 1.875,2.335 5.285,2.687 7.621,0.808 0.351,-0.293 0.68,-0.625 0.957,-1.008 2.105,2.578 5.89,2.961 8.465,0.856 1.406,-1.141 2.207,-2.852 2.207,-4.66 l 0,-10.223 -3.203,0 0,9.828 c 0,1.766 -1.438,3.203 -3.215,3.203 -1.766,0 -3.203,-1.437 -3.203,-3.203 l 0,-9.828 -3.215,0 0,9.828 c 0,1.766 -1.434,3.203 -3.199,3.203 -1.778,0 -3.215,-1.437 -3.215,-3.203 l 0,-9.828" /><path
         id="path4232"
         style="fill:#000000;fill-opacity:1;fill-rule:nonzero;stroke:none"
         d="m 296.812,94.254 -8.027,0 0,8.019 8.027,0 0,-8.019 z m 0,-48.129 -8.027,0 0,40.109 8.027,0 0,-40.109 z m -44.124,24.063 17.042,0 c 0,4.707 -3.816,8.523 -8.519,8.523 -4.707,0 -8.523,-3.816 -8.523,-8.523 z m 25.074,-7.02 -25.074,0 0,-1.008 c 0,-3.476 2.128,-6.613 5.351,-7.91 4.465,-1.785 9.566,-0.523 12.691,3.117 l 6.086,-5.234 c -5.363,-6.238 -14.105,-8.391 -21.75,-5.328 -6.285,2.511 -10.398,8.597 -10.398,15.355 l 0,8.028 c 0,9.136 7.406,16.543 16.543,16.543 9.137,0 16.551,-7.407 16.551,-16.543 l 0,-7.02 z m -64.18,-17.043 0,40.109 8.02,0 0,-4.527 c 4.707,5.813 13.226,6.711 19.043,2.016 l 0.007,-0.008 -5.691,-7.031 c -3.316,2.941 -8.383,2.644 -11.332,-0.657 -1.305,-1.468 -2.031,-3.367 -2.031,-5.343 l 0,-24.559 -8.016,0 z m -25.062,0 0,33.586 -4.016,0 0,6.523 4.016,0 0,6.012 c 0,5.539 4.484,10.027 10.027,10.027 l 6.008,0 0,-7.515 -5.516,0 c -1.383,0 -2.5,-1.129 -2.5,-2.512 l 0,-6.012 8.016,0 0,-6.523 -8.016,0 0,-33.586" /><path
         id="path4234"
         style="fill:#000000;fill-opacity:1;fill-rule:evenodd;stroke:none"
         d="m 64.254,162.754 0,56.16 23.058,0 c 8.313,0 15.047,-6.734 15.047,-15.051 0,-4.902 -2.39,-9.496 -6.418,-12.316 4.61,-2.828 7.418,-7.844 7.418,-13.25 0,-8.578 -6.957,-15.543 -15.543,-15.543 l -23.562,0 z m 8.523,8.019 14.039,0 c 4.707,0 8.524,3.817 8.524,8.532 0,4.707 -3.817,8.523 -8.524,8.523 l -14.039,0 0,-17.055 z m 0,24.571 13.535,0 c 4.43,0 8.02,3.597 8.02,8.027 0,4.434 -3.59,8.02 -8.02,8.02 l -13.535,0 0,-16.047 z m 73.7,-15.543 -25.063,0 0,-1 c 0,-3.488 2.117,-6.613 5.352,-7.918 1.328,-0.527 2.742,-0.801 4.168,-0.801 3.281,0 6.382,1.438 8.523,3.914 l 6.086,-5.219 c -3.664,-4.257 -8.992,-6.714 -14.609,-6.714 -2.446,0 -4.872,0.472 -7.141,1.371 -6.285,2.511 -10.41,8.601 -10.41,15.367 l 0,8.019 c 0,9.137 7.414,16.551 16.551,16.551 9.14,0 16.543,-7.414 16.543,-16.551 l 0,-7.019 z m -25.063,7.019 17.043,0 c 0,4.703 -3.816,8.524 -8.523,8.524 -4.704,0 -8.52,-3.821 -8.52,-8.524 z m 43.609,-24.066 -12.523,40.113 8.52,0 7.515,-28.082 9.027,28.082 6.02,0 9.02,-28.082 7.523,28.082 8.523,0 -12.539,-40.113 -7.019,0 -8.524,28.082 -8.523,-28.082 -7.02,0 z m 49.633,16.047 0,8.019 c 0,9.137 7.418,16.551 16.555,16.551 9.137,0 16.539,-7.414 16.539,-16.551 l 0,-8.019 c 0,-9.137 -7.402,-16.539 -16.539,-16.539 -9.137,0 -16.555,7.402 -16.555,16.539 z m 8.032,0 c 0,-4.703 3.816,-8.524 8.523,-8.524 4.703,0 8.523,3.821 8.523,8.524 l 0,8.019 c 0,4.703 -3.82,8.524 -8.523,8.524 -4.707,0 -8.523,-3.821 -8.523,-8.524 l 0,-8.019 z m 36.097,-16.047 0,56.16 8.02,0 0,-20.578 c 2.578,3.184 6.437,5.035 10.527,5.035 7.48,0 13.547,-6.066 13.547,-13.535 l 0,-27.082 -8.027,0 0,24.57 c 0,4.43 -3.586,8.02 -8.02,8.02 -4.43,0 -8.027,-3.59 -8.027,-8.02 l 0,-24.57 -8.02,0 z m 44.117,0 0,40.113 8.028,0 0,-4.531 c 2.566,3.184 6.441,5.035 10.531,5.035 7.469,0 13.523,-6.066 13.523,-13.535 l 0,-27.082 -8.007,0 0,24.57 c 0,4.43 -3.598,8.02 -8.028,8.02 -4.433,0 -8.019,-3.59 -8.019,-8.02 l 0,-24.57 -8.028,0 z m 76.211,17.047 -25.074,0 0,-1 c 0,-3.488 2.125,-6.613 5.363,-7.918 1.328,-0.527 2.743,-0.801 4.168,-0.801 3.278,0 6.383,1.438 8.512,3.914 l 6.086,-5.219 c -3.652,-4.257 -8.98,-6.714 -14.598,-6.714 -2.445,0 -4.871,0.472 -7.152,1.371 -6.273,2.511 -10.398,8.601 -10.398,15.367 l 0,8.019 c 0,9.137 7.414,16.551 16.55,16.551 9.137,0 16.543,-7.414 16.543,-16.551 l 0,-7.019 z m -25.074,7.019 17.043,0 c 0,4.703 -3.805,8.524 -8.512,8.524 -4.703,0 -8.531,-3.821 -8.531,-8.524 z m 36.098,-24.066 0,40.113 8.027,0 0,-4.531 c 2.566,3.184 6.441,5.035 10.531,5.035 3.106,0 6.11,-1.074 8.524,-3.027 l -5.696,-7.031 c -1.48,1.304 -3.375,2.031 -5.339,2.031 -4.43,0 -8.02,-3.59 -8.02,-8.02 l 0,-24.57 -8.027,0" /></g></g></svg>