<?xml version="1.0" encoding="UTF-8" standalone="no"?>
<svg
   xmlns:dc="http://purl.org/dc/elements/1.1/"
   xmlns:cc="http://creativecommons.org/ns#"
   xmlns:rdf="http://www.w3.org/1999/02/22-rdf-syntax-ns#"
   xmlns:svg="http://www.w3.org/2000/svg"
   xmlns="http://www.w3.org/2000/svg"
   viewBox="0 0 847.15851 1758.1235"
   height="1758.1235"
   width="847.15851"
   xml:space="preserve"
   version="1.1"
   id="svg32794"><metadata
     id="metadata32800"><rdf:RDF><cc:Work
         rdf:about=""><dc:format>image/svg+xml</dc:format><dc:type
           rdf:resource="http://purl.org/dc/dcmitype/StillImage" /><dc:title></dc:title></cc:Work></rdf:RDF></metadata><defs
     id="defs32798" /><g
     transform="matrix(1.25,0,0,-1.25,0,1758.1235)"
     id="g32802"><g
       id="g32804"><path
         id="path32806"
         style="fill:#ffffff;fill-opacity:1;fill-rule:nonzero;stroke:none"
         d="m 338.859,1406.1 c 7.512,0 15.028,-2.867 20.758,-8.597 1.879,-1.879 3.445,-3.953 4.707,-6.153 l 15.246,-26.156 0.071,0 293.101,-508.039 c 0.055,-0.098 0.098,-0.195 0.153,-0.293 1.488,-2.394 2.656,-5.043 3.425,-7.91 4.196,-15.656 -5.097,-31.754 -20.758,-35.949 -2.585,-0.696 -5.183,-1.012 -7.738,-1 l -618.066,0 c -16.215,0 -29.356,13.14 -29.356,29.355 0,5.305 1.414,10.281 3.879,14.578 0.02,0.032 0.035,0.063 0.051,0.098 l 304.367,528.41 c 3.863,6.664 5.653,9.305 9.406,13.059 5.731,5.73 13.243,8.597 20.754,8.597 z" /><path
         id="path32808"
         style="fill:#c1121c;fill-opacity:1;fill-rule:nonzero;stroke:none"
         d="m 338.859,1398.745 c 7.125,0.051 14.95,-3.59 18.782,-10.406 L 666.934,852.448 c 1.785,-3.648 2.535,-6.82 2.558,-10.449 0,-6.496 -2.875,-12.66 -7.847,-16.84 -4.383,-3.395 -8.536,-5.16 -14.122,-5.16 l -617.906,0 c -3.769,-0.035 -7.547,0.871 -10.976,3.133 -6.453,3.898 -10.403,10.882 -10.411,18.425 0.184,3.895 1.145,8 2.879,10.891 l 309.114,535.98 c 0.027,0.047 0.058,0.094 0.089,0.141 0.032,0.047 0.063,0.094 0.094,0.145 1.098,1.754 2.473,3.304 4.039,4.632 3.59,3.11 8.086,4.977 12.825,5.317 0.531,0.047 1.062,0.078 1.589,0.082 z m 308.664,-578.746 1.524,0 -1.555,0 0.031,0 z M 339.18,1292.534 103.477,883.999 l 471.738,0 -236.035,408.535 z" /><path
         id="path32810"
         style="fill:#000000;fill-opacity:1;fill-rule:nonzero;stroke:none"
         d="m 338.859,1406.499 c 7.618,0 15.231,-2.906 21.039,-8.715 1.907,-1.902 3.493,-4.008 4.774,-6.234 l 15.129,-25.957 0.07,0 293.215,-508.239 c 0.066,-0.117 0.113,-0.219 0.16,-0.301 1.504,-2.421 2.684,-5.101 3.461,-7.996 4.25,-15.871 -5.172,-32.187 -21.039,-36.441 -2.621,-0.703 -5.258,-1.023 -7.844,-1.016 l -618.066,0 C 13.328,811.6 0,824.928 0,841.358 c 0,5.375 1.438,10.418 3.934,14.774 0.011,0.019 0.027,0.05 0.05,0.097 l 304.364,528.414 c 3.871,6.668 5.695,9.364 9.468,13.141 5.809,5.809 13.426,8.715 21.039,8.715 l 0.004,0 z m 0,-0.399 c -7.511,0 -15.023,-2.867 -20.754,-8.597 -3.753,-3.754 -5.543,-6.395 -9.406,-13.059 L 4.336,856.034 c -0.02,-0.035 -0.035,-0.066 -0.055,-0.098 -2.465,-4.297 -3.879,-9.273 -3.879,-14.578 0,-16.215 13.141,-29.355 29.356,-29.355 l 618.066,0 c 2.555,-0.012 5.153,0.304 7.738,1 15.661,4.195 24.954,20.293 20.758,35.949 -0.765,2.867 -1.937,5.516 -3.425,7.91 -0.055,0.098 -0.098,0.195 -0.153,0.293 l -293.101,508.039 -0.071,0 -15.246,26.156 c -1.262,2.2 -2.828,4.274 -4.707,6.153 -5.73,5.73 -13.242,8.597 -20.758,8.597 z" /><path
         id="path32812"
         style="fill:#000000;fill-opacity:1;fill-rule:nonzero;stroke:none"
         d="m 262.961,932.768 c -17.906,0 -32.434,14.547 -32.434,32.45 l 0,0.386 0.629,53.004 c 0.032,2.621 0.309,5.211 0.817,7.766 l 3.312,16.996 c 0.527,2.683 1.297,5.316 2.328,7.828 l 15.75,39.172 c 1.649,4.098 5.606,6.777 10.028,6.777 l 47.398,0 c -2.894,11.047 -11.894,19.461 -23.113,21.617 l -14.281,0 c -1.805,0 -3.254,1.465 -3.254,3.27 0,1.769 1.449,3.234 3.254,3.234 l 86.503,0 c 1.786,0 3.25,-1.465 3.25,-3.234 0,-1.805 -1.464,-3.27 -3.25,-3.27 l -14.3,0 c -11.219,-2.156 -20.2,-10.57 -23.114,-21.617 l 26.598,0 c 10.555,0 20.137,-6.133 24.543,-15.715 l 5.133,-11.097 c 23.652,-51.278 72.297,-86.578 128.387,-93.16 l 0.816,-0.09 c 1.91,-0.235 3.344,-1.852 3.344,-3.762 l 0,-35.148 c 0,-2.989 -2.438,-5.407 -5.41,-5.407 l -242.934,0 z m -32.836,-32.453 0,16.227 21.633,0 0,10.832 32.437,0 0,-10.832 48.66,0 0,10.832 178.45,0 0,-10.832 c -58.063,0 -110.59,-6.364 -133.813,-16.227" /><path
         id="path32814"
         style="fill:#ffffff;fill-opacity:1;fill-rule:nonzero;stroke:none"
         d="m 303.484,1118.764 c 6.258,-4.574 10.864,-11.062 13.161,-18.457 2.296,7.395 6.902,13.883 13.16,18.457 l -26.321,0 z m 193.75,-145.902 c 2.883,-0.449 5.75,-0.816 8.661,-1.125 l 0,-19.309 c -2.895,0.2 -5.778,0.45 -8.661,0.711 l 0,19.723 z m -16.222,3.234 c 3.574,-0.878 7.195,-1.648 10.832,-2.312 l 0,-20.063 c -3.621,0.418 -7.227,0.911 -10.832,1.465 l 0,20.91 z m -19.465,5.903 c 4.269,-1.559 8.601,-2.957 12.976,-4.207 l 0,-21.528 c -4.347,0.789 -8.675,1.664 -12.976,2.621 l 0,23.114 z m -22.711,10.047 c 4.93,-2.59 9.984,-4.961 15.148,-7.106 l 0,-24.238 c -5.117,1.312 -10.156,2.746 -15.148,4.332 l 0,27.012 z m -25.949,16.64 c 5.515,-4.238 11.297,-8.168 17.304,-11.773 l 0,-28.985 c -5.886,2.098 -11.664,4.364 -17.304,6.813 l 0,33.945 z m -29.215,28.535 c 5.902,-7.3 12.406,-14.16 19.476,-20.461 l 0,-37.535 c -5.824,2.852 -11.507,5.887 -17.011,9.106 l -2.465,48.89 z m -126.75,42.977 c 1.016,2.418 3.359,3.977 5.976,3.977 l 83.7,0 c 2.621,0 4.98,-1.559 5.98,-3.977 l 12.543,-30.277 c 1.387,-3.297 -0.168,-7.106 -3.469,-8.493 -0.785,-0.335 -1.648,-0.523 -2.511,-0.523 l -108.786,0 c -3.589,0 -6.484,2.914 -6.484,6.488 0,0.879 0.168,1.727 0.508,2.528 l 12.543,30.277 z m 97.582,-93.359 c 0,-5.965 -4.852,-10.805 -10.832,-10.805 -5.965,0 -10.801,4.84 -10.801,10.805 0,5.976 4.836,10.816 10.801,10.816 5.98,0 10.832,-4.84 10.832,-10.816 z m -86.52,0 c 0,-5.965 -4.855,-10.805 -10.816,-10.805 -5.98,0 -10.816,4.84 -10.816,10.805 0,5.976 4.836,10.816 10.816,10.816 5.961,0 10.816,-4.84 10.816,-10.816" /><path
         id="path32816"
         style="fill:#ffffff;fill-opacity:1;fill-rule:nonzero;stroke:none"
         d="m 250.867,0.389 c -17.668,0 -32.015,14.317 -32.015,32.004 l 0,735.992 c 0,17.692 14.347,32.004 32.015,32.004 l 176.004,0 c 17.668,0 32.004,-14.312 32.004,-32.004 l 0,-735.992 c 0,-17.687 -14.336,-32.004 -32.004,-32.004" /><path
         id="path32818"
         style="fill:#000000;fill-opacity:1;fill-rule:nonzero;stroke:none"
         d="m 250.867,800.803 c -17.863,0 -32.402,-14.535 -32.402,-32.418 l 0,-735.992 c 0,-17.863 14.539,-32.394 32.402,-32.394 l 176.004,0 c 17.863,0 32.391,14.531 32.391,32.394 l 0,735.992 c 0,17.883 -14.528,32.418 -32.391,32.418 l -176.004,0 z m 0,-0.414 176.004,0 c 17.668,0 32.004,-14.312 32.004,-32.004 l 0,-735.992 c 0,-17.687 -14.336,-32.004 -32.004,-32.004 l -176.004,0 c -17.668,0 -32.015,14.317 -32.015,32.004 l 0,735.992 c 0,17.692 14.347,32.004 32.015,32.004 z" /><path
         id="path32820"
         style="fill:#000000;fill-opacity:1;fill-rule:nonzero;stroke:none"
         d="m 438.879,32.393 c 0,-6.621 -5.375,-12 -12.008,-12 l -176.004,0 c -6.633,0 -11.992,5.379 -11.992,12 l 0,735.992 c 0,6.637 5.359,12.016 11.992,12.016 l 176.004,0 c 6.633,0 12.008,-5.379 12.008,-12.016 l 0,-735.992 z m -12.008,760.008 -176.004,0 c -13.246,0 -24.004,-10.75 -24.004,-24.016 l 0,-735.992 c 0,-13.254 10.758,-23.992 24.004,-23.992 l 176.004,0 c 13.254,0 23.992,10.738 23.992,23.992 l 0,735.992 c 0,13.266 -10.738,24.016 -23.992,24.016" /><path
         id="path32822"
         style="fill:#c1121c;fill-opacity:1;fill-rule:nonzero;stroke:none"
         d="m 238.875,400.917 0,84.008 200.004,115.472 0,-84.004 -200.004,-115.476 z m 0,-175.996 0,84.004 200.004,115.457 0,-83.989 -200.004,-115.472 z m 0,-176 0,84 200.004,115.48 0,-84.012" /></g></g></svg>