<?xml version="1.0" encoding="UTF-8" standalone="no"?>
<svg
   xmlns:dc="http://purl.org/dc/elements/1.1/"
   xmlns:cc="http://creativecommons.org/ns#"
   xmlns:rdf="http://www.w3.org/1999/02/22-rdf-syntax-ns#"
   xmlns:svg="http://www.w3.org/2000/svg"
   xmlns="http://www.w3.org/2000/svg"
   viewBox="0 0 847.15857 1758.125"
   height="1758.125"
   width="847.15857"
   xml:space="preserve"
   version="1.1"
   id="svg28407"><metadata
     id="metadata28413"><rdf:RDF><cc:Work
         rdf:about=""><dc:format>image/svg+xml</dc:format><dc:type
           rdf:resource="http://purl.org/dc/dcmitype/StillImage" /><dc:title></dc:title></cc:Work></rdf:RDF></metadata><defs
     id="defs28411" /><g
     transform="matrix(1.25,0,0,-1.25,0,1758.125)"
     id="g28415"><g
       id="g28417"><path
         id="path28419"
         style="fill:#ffffff;fill-opacity:1;fill-rule:nonzero;stroke:none"
         d="m 338.859,1406.102 c 7.512,0 15.028,-2.868 20.758,-8.598 1.879,-1.879 3.445,-3.953 4.707,-6.152 l 15.246,-26.157 0.071,0 293.101,-508.039 c 0.055,-0.097 0.098,-0.195 0.153,-0.293 1.488,-2.394 2.656,-5.043 3.425,-7.91 4.196,-15.656 -5.097,-31.754 -20.758,-35.949 -2.585,-0.695 -5.183,-1.012 -7.738,-1 l -618.066,0 c -16.215,0 -29.356,13.141 -29.356,29.355 0,5.305 1.414,10.282 3.879,14.579 0.02,0.031 0.035,0.062 0.051,0.097 l 304.367,528.41 c 3.863,6.664 5.653,9.305 9.406,13.059 5.731,5.73 13.243,8.598 20.754,8.598 z" /><path
         id="path28421"
         style="fill:#c1121c;fill-opacity:1;fill-rule:nonzero;stroke:none"
         d="m 338.859,1398.746 c 7.125,0.051 14.95,-3.59 18.782,-10.406 L 666.934,852.449 c 1.785,-3.648 2.535,-6.82 2.558,-10.449 0,-6.496 -2.875,-12.66 -7.847,-16.84 -4.383,-3.394 -8.536,-5.16 -14.122,-5.16 l -617.906,0 c -3.769,-0.035 -7.547,0.871 -10.976,3.133 -6.453,3.898 -10.403,10.883 -10.411,18.426 0.184,3.894 1.145,8 2.879,10.89 l 309.114,535.981 c 0.027,0.047 0.058,0.093 0.089,0.14 0.032,0.047 0.063,0.094 0.094,0.145 1.098,1.754 2.473,3.305 4.039,4.633 3.59,3.109 8.086,4.976 12.825,5.316 0.531,0.047 1.062,0.078 1.589,0.082 z M 647.523,820 l 1.524,0 -1.555,0 0.031,0 z M 339.18,1292.535 103.477,884 575.215,884 339.18,1292.535 Z" /><path
         id="path28423"
         style="fill:#000000;fill-opacity:1;fill-rule:nonzero;stroke:none"
         d="m 338.859,1406.5 c 7.618,0 15.231,-2.906 21.039,-8.715 1.907,-1.902 3.493,-4.008 4.774,-6.234 l 15.129,-25.957 0.07,0 293.215,-508.239 c 0.066,-0.117 0.113,-0.218 0.16,-0.3 1.504,-2.422 2.684,-5.102 3.461,-7.996 4.25,-15.871 -5.172,-32.188 -21.039,-36.442 -2.621,-0.703 -5.258,-1.023 -7.844,-1.015 l -618.066,0 C 13.328,811.602 0,824.93 0,841.359 c 0,5.375 1.438,10.418 3.934,14.774 0.011,0.019 0.027,0.051 0.05,0.097 l 304.364,528.415 c 3.871,6.667 5.695,9.363 9.468,13.14 5.809,5.809 13.426,8.715 21.039,8.715 l 0.008,0 -0.004,0 z m 0,-0.398 c -7.511,0 -15.023,-2.868 -20.754,-8.598 -3.753,-3.754 -5.543,-6.395 -9.406,-13.059 L 4.336,856.035 C 4.316,856 4.301,855.969 4.281,855.938 1.816,851.641 0.402,846.664 0.402,841.359 c 0,-16.214 13.141,-29.355 29.356,-29.355 l 618.066,0 c 2.555,-0.012 5.153,0.305 7.738,1 15.661,4.195 24.954,20.293 20.758,35.949 -0.765,2.867 -1.937,5.516 -3.425,7.91 -0.055,0.098 -0.098,0.196 -0.153,0.293 l -293.101,508.039 -0.071,0 -15.246,26.157 c -1.262,2.199 -2.828,4.273 -4.707,6.152 -5.73,5.73 -13.242,8.598 -20.758,8.598 z" /><path
         id="path28425"
         style="fill:#000000;fill-opacity:1;fill-rule:nonzero;stroke:none"
         d="m 262.961,932.77 c -17.906,0 -32.434,14.546 -32.434,32.449 l 0,0.386 0.629,53.004 c 0.032,2.621 0.309,5.211 0.817,7.766 l 3.312,16.996 c 0.527,2.684 1.297,5.317 2.328,7.828 l 15.75,39.172 c 1.649,4.098 5.606,6.777 10.028,6.777 l 47.398,0 c -2.894,11.047 -11.894,19.461 -23.113,21.618 l -14.281,0 c -1.805,0 -3.254,1.464 -3.254,3.269 0,1.77 1.449,3.235 3.254,3.235 l 86.503,0 c 1.786,0 3.25,-1.465 3.25,-3.235 0,-1.805 -1.464,-3.269 -3.25,-3.269 l -14.3,0 c -11.219,-2.157 -20.2,-10.571 -23.114,-21.618 l 26.598,0 c 10.555,0 20.137,-6.132 24.543,-15.714 l 5.133,-11.098 c 23.652,-51.277 72.297,-86.578 128.387,-93.16 l 0.816,-0.09 c 1.91,-0.234 3.344,-1.852 3.344,-3.762 l 0,-35.148 c 0,-2.988 -2.438,-5.406 -5.41,-5.406 l -242.934,0 z m -32.836,-32.454 0,16.227 21.633,0 0,10.832 32.437,0 0,-10.832 48.66,0 0,10.832 178.45,0 0,-10.832 c -58.063,0 -110.59,-6.363 -133.813,-16.227" /><path
         id="path28427"
         style="fill:#ffffff;fill-opacity:1;fill-rule:nonzero;stroke:none"
         d="m 303.484,1118.766 c 6.258,-4.575 10.864,-11.063 13.161,-18.457 2.296,7.394 6.902,13.882 13.16,18.457 l -26.321,0 z m 193.75,-145.903 c 2.883,-0.449 5.75,-0.816 8.661,-1.125 l 0,-19.308 c -2.895,0.199 -5.778,0.449 -8.661,0.711 l 0,19.722 z m -16.222,3.235 c 3.574,-0.879 7.195,-1.649 10.832,-2.313 l 0,-20.062 c -3.621,0.418 -7.227,0.91 -10.832,1.465 l 0,20.91 z M 461.547,982 c 4.269,-1.559 8.601,-2.957 12.976,-4.207 l 0,-21.527 c -4.347,0.789 -8.675,1.664 -12.976,2.621 l 0,23.113 z m -22.711,10.047 c 4.93,-2.59 9.984,-4.961 15.148,-7.106 l 0,-24.238 c -5.117,1.313 -10.156,2.746 -15.148,4.332 l 0,27.012 z m -25.949,16.641 c 5.515,-4.239 11.297,-8.168 17.304,-11.774 l 0,-28.984 c -5.886,2.097 -11.664,4.363 -17.304,6.812 l 0,33.946 z m -29.215,28.535 c 5.902,-7.301 12.406,-14.161 19.476,-20.461 l 0,-37.535 c -5.824,2.851 -11.507,5.886 -17.011,9.105 l -2.465,48.891 z m -126.75,42.976 c 1.016,2.418 3.359,3.977 5.976,3.977 l 83.7,0 c 2.621,0 4.98,-1.559 5.98,-3.977 l 12.543,-30.277 c 1.387,-3.297 -0.168,-7.106 -3.469,-8.492 -0.785,-0.336 -1.648,-0.524 -2.511,-0.524 l -108.786,0 c -3.589,0 -6.484,2.914 -6.484,6.489 0,0.878 0.168,1.726 0.508,2.527 l 12.543,30.277 z m 97.582,-93.359 c 0,-5.965 -4.852,-10.805 -10.832,-10.805 -5.965,0 -10.801,4.84 -10.801,10.805 0,5.976 4.836,10.816 10.801,10.816 5.98,0 10.832,-4.84 10.832,-10.816 z m -86.52,0 c 0,-5.965 -4.855,-10.805 -10.816,-10.805 -5.98,0 -10.816,4.84 -10.816,10.805 0,5.976 4.836,10.816 10.816,10.816 5.961,0 10.816,-4.84 10.816,-10.816" /><path
         id="path28429"
         style="fill:#ffffff;fill-opacity:1;fill-rule:nonzero;stroke:none"
         d="m 426.859,0.391 c 17.668,0 32.016,14.316 32.016,32.004 l 0,735.992 c 0,17.691 -14.348,32.004 -32.016,32.004 l -176.004,0 c -17.667,0 -32.003,-14.313 -32.003,-32.004 l 0,-735.992 c 0,-17.688 14.336,-32.004 32.003,-32.004" /><path
         id="path28431"
         style="fill:#000000;fill-opacity:1;fill-rule:nonzero;stroke:none"
         d="m 426.859,800.805 c 17.864,0 32.403,-14.535 32.403,-32.418 l 0,-735.992 C 459.262,14.531 444.723,0 426.859,0 L 250.855,0 c -17.863,0 -32.39,14.531 -32.39,32.395 l 0,735.992 c 0,17.883 14.527,32.418 32.39,32.418 l 176.004,0 z m 0,-0.414 -176.004,0 c -17.667,0 -32.003,-14.313 -32.003,-32.004 l 0,-735.992 c 0,-17.688 14.336,-32.004 32.003,-32.004 l 176.004,0 c 17.668,0 32.016,14.316 32.016,32.004 l 0,735.992 c 0,17.691 -14.348,32.004 -32.016,32.004 z" /><path
         id="path28433"
         style="fill:#000000;fill-opacity:1;fill-rule:nonzero;stroke:none"
         d="m 238.848,32.395 c 0,-6.622 5.375,-12 12.007,-12 l 176.004,0 c 6.633,0 11.993,5.378 11.993,12 l 0,735.992 c 0,6.636 -5.36,12.015 -11.993,12.015 l -176.004,0 c -6.632,0 -12.007,-5.379 -12.007,-12.015 l 0,-735.992 z m 12.007,760.007 176.004,0 c 13.246,0 24.004,-10.75 24.004,-24.015 l 0,-735.992 c 0,-13.254 -10.758,-23.993 -24.004,-23.993 l -176.004,0 c -13.253,0 -23.992,10.739 -23.992,23.993 l 0,735.992 c 0,13.265 10.739,24.015 23.992,24.015" /><path
         id="path28435"
         style="fill:#c1121c;fill-opacity:1;fill-rule:nonzero;stroke:none"
         d="m 438.852,400.918 0,84.008 -200.004,115.472 0,-84.003 200.004,-115.477 z m 0,-175.996 0,84.004 -200.004,115.457 0,-83.988 200.004,-115.473 z m 0,-176 0,84 -200.004,115.48 0,-84.011" /></g></g></svg>