<?xml version="1.0" encoding="UTF-8" standalone="no"?>
<svg
   viewBox="0 0 421.01363 232.01756"
   height="232.01756"
   width="421.01364"
   xml:space="preserve"
   id="svg10"
   version="1.1"
   sodipodi:docname="DE_1014-50.svg"
   inkscape:version="1.3.2 (091e20e, 2023-11-25, custom)"
   xmlns:inkscape="http://www.inkscape.org/namespaces/inkscape"
   xmlns:sodipodi="http://sodipodi.sourceforge.net/DTD/sodipodi-0.dtd"
   xmlns="http://www.w3.org/2000/svg"
   xmlns:svg="http://www.w3.org/2000/svg"
   xmlns:rdf="http://www.w3.org/1999/02/22-rdf-syntax-ns#"
   xmlns:cc="http://creativecommons.org/ns#"
   xmlns:dc="http://purl.org/dc/elements/1.1/"><sodipodi:namedview
     id="namedview1"
     pagecolor="#ffffff"
     bordercolor="#000000"
     borderopacity="0.25"
     inkscape:showpageshadow="2"
     inkscape:pageopacity="0.0"
     inkscape:pagecheckerboard="0"
     inkscape:deskcolor="#d1d1d1"
     inkscape:zoom="0.40704473"
     inkscape:cx="1056.395"
     inkscape:cy="-1.2283662"
     inkscape:window-width="1920"
     inkscape:window-height="1017"
     inkscape:window-x="-8"
     inkscape:window-y="-8"
     inkscape:window-maximized="1"
     inkscape:current-layer="g18" /><metadata
     id="metadata16"><rdf:RDF><cc:Work
         rdf:about=""><dc:format>image/svg+xml</dc:format><dc:type
           rdf:resource="http://purl.org/dc/dcmitype/StillImage" /><dc:title /></cc:Work></rdf:RDF></metadata><defs
     id="defs14"><clipPath
       id="clipPath26"
       clipPathUnits="userSpaceOnUse"><path
         id="path24"
         d="M 0,0 H 1190.551 V 841.89 H 0 Z" /></clipPath><clipPath
       id="clipPath1982"
       clipPathUnits="userSpaceOnUse"><path
         id="path1980"
         d="m 90.708,687.401 h 34.016 v 34.016 H 90.708 Z" /></clipPath><clipPath
       id="clipPath2006"
       clipPathUnits="userSpaceOnUse"><path
         id="path2004"
         d="m 90.708,644.881 h 34.016 v 34.016 H 90.708 Z" /></clipPath><clipPath
       id="clipPath2096"
       clipPathUnits="userSpaceOnUse"><path
         id="path2094"
         d="m 90.708,597.968 h 34.016 v 34.016 H 90.708 Z" /></clipPath><clipPath
       id="clipPath2124"
       clipPathUnits="userSpaceOnUse"><path
         id="path2122"
         d="m 90.708,554.881 h 34.016 v 34.016 H 90.708 Z" /></clipPath><clipPath
       id="clipPath2162"
       clipPathUnits="userSpaceOnUse"><path
         id="path2160"
         d="m 90.708,510.802 h 34.016 v 34.016 H 90.708 Z" /></clipPath><clipPath
       id="clipPath2196"
       clipPathUnits="userSpaceOnUse"><path
         id="path2194"
         d="m 90.708,420.235 h 34.016 v 34.016 H 90.708 Z" /></clipPath><clipPath
       id="clipPath2208"
       clipPathUnits="userSpaceOnUse"><path
         id="path2206"
         d="m 90.708,427.851 h 34.016 v 18.785 H 90.708 Z" /></clipPath><clipPath
       id="clipPath2220"
       clipPathUnits="userSpaceOnUse"><path
         id="path2218"
         d="m 90.708,420.235 h 34.016 v 34.016 H 90.708 Z" /></clipPath><clipPath
       id="clipPath2242"
       clipPathUnits="userSpaceOnUse"><path
         id="path2240"
         d="m 90.708,467.007 h 34.016 v 34.016 H 90.708 Z" /></clipPath><clipPath
       id="clipPath2254"
       clipPathUnits="userSpaceOnUse"><path
         id="path2252"
         d="m 90.708,474.622 h 34.016 v 18.786 H 90.708 Z" /></clipPath><clipPath
       id="clipPath2270"
       clipPathUnits="userSpaceOnUse"><path
         id="path2268"
         d="m 90.708,467.007 h 34.016 v 34.016 H 90.708 Z" /></clipPath><clipPath
       id="clipPath2290"
       clipPathUnits="userSpaceOnUse"><path
         id="path2288"
         d="m 90.708,374.172 h 34.016 v 34.016 H 90.708 Z" /></clipPath><clipPath
       id="clipPath2302"
       clipPathUnits="userSpaceOnUse"><path
         id="path2300"
         d="m 90.708,381.788 h 34.016 v 18.785 H 90.708 Z" /></clipPath><clipPath
       id="clipPath2314"
       clipPathUnits="userSpaceOnUse"><path
         id="path2312"
         d="m 90.708,374.172 h 34.016 v 34.016 H 90.708 Z" /></clipPath><clipPath
       id="clipPath2338"
       clipPathUnits="userSpaceOnUse"><path
         id="path2336"
         d="m 90.708,331.228 h 34.016 v 34.016 H 90.708 Z" /></clipPath><clipPath
       id="clipPath2402"
       clipPathUnits="userSpaceOnUse"><path
         id="path2400"
         d="m 90.708,194.739 h 34.016 v 34.015 H 90.708 Z" /></clipPath><clipPath
       id="clipPath2414"
       clipPathUnits="userSpaceOnUse"><path
         id="path2412"
         d="m 90.708,202.355 h 34.016 V 221.14 H 90.708 Z" /></clipPath><clipPath
       id="clipPath2426"
       clipPathUnits="userSpaceOnUse"><path
         id="path2424"
         d="m 90.708,194.739 h 34.016 v 34.015 H 90.708 Z" /></clipPath><clipPath
       id="clipPath2446"
       clipPathUnits="userSpaceOnUse"><path
         id="path2444"
         d="m 90.708,288.283 h 34.016 v 34.016 H 90.708 Z" /></clipPath><clipPath
       id="clipPath5008"
       clipPathUnits="userSpaceOnUse"><path
         id="path5006"
         d="m 688.819,687.401 h 34.016 v 34.016 h -34.016 z" /></clipPath><clipPath
       id="clipPath5040"
       clipPathUnits="userSpaceOnUse"><path
         id="path5038"
         d="m 688.819,603.779 h 34.016 v 34.016 h -34.016 z" /></clipPath><clipPath
       id="clipPath5052"
       clipPathUnits="userSpaceOnUse"><path
         id="path5050"
         d="m 688.819,611.395 h 34.016 v 18.785 h -34.016 z" /></clipPath><clipPath
       id="clipPath5064"
       clipPathUnits="userSpaceOnUse"><path
         id="path5062"
         d="m 688.819,603.779 h 34.016 v 34.016 h -34.016 z" /></clipPath><clipPath
       id="clipPath5102"
       clipPathUnits="userSpaceOnUse"><path
         id="path5100"
         d="m 688.819,561.26 h 34.016 v 34.016 h -34.016 z" /></clipPath><clipPath
       id="clipPath5114"
       clipPathUnits="userSpaceOnUse"><path
         id="path5112"
         d="m 688.819,568.876 h 34.016 v 18.785 h -34.016 z" /></clipPath><clipPath
       id="clipPath5126"
       clipPathUnits="userSpaceOnUse"><path
         id="path5124"
         d="m 688.819,561.26 h 34.016 v 34.016 h -34.016 z" /></clipPath><clipPath
       id="clipPath5148"
       clipPathUnits="userSpaceOnUse"><path
         id="path5146"
         d="m 688.819,476.221 h 34.016 v 34.015 h -34.016 z" /></clipPath><clipPath
       id="clipPath5256"
       clipPathUnits="userSpaceOnUse"><path
         id="path5254"
         d="m 688.819,433.701 h 34.016 v 34.016 h -34.016 z" /></clipPath><clipPath
       id="clipPath5284"
       clipPathUnits="userSpaceOnUse"><path
         id="path5282"
         d="m 688.819,391.181 h 34.016 v 34.016 h -34.016 z" /></clipPath><clipPath
       id="clipPath5334"
       clipPathUnits="userSpaceOnUse"><path
         id="path5332"
         d="m 688.819,348.662 h 34.016 v 34.016 h -34.016 z" /></clipPath><clipPath
       id="clipPath5376"
       clipPathUnits="userSpaceOnUse"><path
         id="path5374"
         d="m 688.819,306.141 h 34.016 v 34.016 h -34.016 z" /></clipPath><clipPath
       id="clipPath5426"
       clipPathUnits="userSpaceOnUse"><path
         id="path5424"
         d="m 688.819,265.039 h 34.016 v 34.016 h -34.016 z" /></clipPath><clipPath
       id="clipPath5464"
       clipPathUnits="userSpaceOnUse"><path
         id="path5462"
         d="m 688.819,221.102 h 34.016 v 34.016 h -34.016 z" /></clipPath><clipPath
       id="clipPath5506"
       clipPathUnits="userSpaceOnUse"><path
         id="path5504"
         d="m 688.819,137.48 h 34.016 v 34.016 h -34.016 z" /></clipPath><clipPath
       id="clipPath5560"
       clipPathUnits="userSpaceOnUse"><path
         id="path5558"
         d="m 688.819,180 h 34.016 v 34.016 h -34.016 z" /></clipPath><clipPath
       id="clipPath5596"
       clipPathUnits="userSpaceOnUse"><path
         id="path5594"
         d="m 688.819,94.961 h 34.016 v 34.016 h -34.016 z" /></clipPath><clipPath
       id="clipPath5630"
       clipPathUnits="userSpaceOnUse"><path
         id="path5628"
         d="m 688.819,52.441 h 34.016 v 34.016 h -34.016 z" /></clipPath><clipPath
       id="clipPath5704"
       clipPathUnits="userSpaceOnUse"><path
         id="path5702"
         d="m 688.819,644.881 h 34.016 v 34.016 h -34.016 z" /></clipPath><clipPath
       id="clipPath5788"
       clipPathUnits="userSpaceOnUse"><path
         id="path5786"
         d="m 688.819,518.74 h 34.016 v 34.016 h -34.016 z" /></clipPath><clipPath
       id="clipPath6032"
       clipPathUnits="userSpaceOnUse"><path
         id="path6030"
         d="m 90.708,147.401 h 34.016 v 34.016 H 90.708 Z" /></clipPath><clipPath
       id="clipPath6044"
       clipPathUnits="userSpaceOnUse"><path
         id="path6042"
         d="m 90.708,155.033 h 34.016 v 18.751 H 90.708 Z" /></clipPath><clipPath
       id="clipPath6056"
       clipPathUnits="userSpaceOnUse"><path
         id="path6054"
         d="m 90.708,147.401 h 34.016 v 34.016 H 90.708 Z" /></clipPath><clipPath
       id="clipPath6072"
       clipPathUnits="userSpaceOnUse"><path
         id="path6070"
         d="m 90.708,100.629 h 34.016 v 34.016 H 90.708 Z" /></clipPath><clipPath
       id="clipPath6084"
       clipPathUnits="userSpaceOnUse"><path
         id="path6082"
         d="m 90.708,108.262 h 34.016 v 18.751 H 90.708 Z" /></clipPath><clipPath
       id="clipPath6096"
       clipPathUnits="userSpaceOnUse"><path
         id="path6094"
         d="m 90.708,100.629 h 34.016 v 34.016 H 90.708 Z" /></clipPath><clipPath
       id="clipPath6112"
       clipPathUnits="userSpaceOnUse"><path
         id="path6110"
         d="m 90.708,55.133 h 34.016 V 89.149 H 90.708 Z" /></clipPath><clipPath
       id="clipPath6124"
       clipPathUnits="userSpaceOnUse"><path
         id="path6122"
         d="m 90.708,62.766 h 34.016 V 81.517 H 90.708 Z" /></clipPath><clipPath
       id="clipPath6136"
       clipPathUnits="userSpaceOnUse"><path
         id="path6134"
         d="m 90.708,55.133 h 34.016 V 89.149 H 90.708 Z" /></clipPath></defs><g
     transform="matrix(1.3333333,0,0,-1.3333333,525.38864,561.20167)"
     id="g18">




















































<g
   transform="matrix(9.3068607,0,0,9.3068607,-1238.6587,-1636.8075)"
   id="g6186"><g
     id="g2396"><g
       id="g2398"
       clip-path="url(#clipPath2402)"><g
         id="g2404"
         transform="translate(93.049,202.4396)"><path
           d="m 0,0 c -1.246,0 -2.256,1.01 -2.256,2.256 v 14.103 c 0,1.246 1.01,2.257 2.256,2.257 h 29.334 c 1.246,0 2.256,-1.011 2.256,-2.257 V 2.256 C 31.59,1.01 30.58,0 29.334,0 Z"
           style="fill:#ffffff;fill-opacity:1;fill-rule:evenodd;stroke:none"
           id="path2406" /><path
           id="path6192"
           transform="matrix(0.08058571,0,0,-0.08058571,40.041925,63.890541)"
           d="m -496.88672,561.31836 c -15.73226,0 -28.50195,12.76996 -28.50195,28.50195 v 175.01367 c 0,15.732 12.76996,28.50196 28.50195,28.50196 h 364.00977 c 15.73199,0 28.50195,-12.76996 28.50195,-28.50196 V 589.82031 c 0,-15.73199 -12.76969,-28.50195 -28.50195,-28.50195 z m 0,0.5 h 364.00977 c 15.46179,0 27.99609,12.54601 27.99609,28.00781 v 175.00586 c 0,15.4618 -12.5343,27.99414 -27.99609,27.99414 h -364.00977 c -15.4618,0 -27.99414,-12.53234 -27.99414,-27.99414 V 589.82617 c 0,-15.4618 12.53234,-28.00781 27.99414,-28.00781 z"
           style="color:#000000;font-style:normal;font-variant:normal;font-weight:normal;font-stretch:normal;font-size:medium;line-height:normal;font-family:sans-serif;font-variant-ligatures:normal;font-variant-position:normal;font-variant-caps:normal;font-variant-numeric:normal;font-variant-alternates:normal;font-feature-settings:normal;text-indent:0;text-align:start;text-decoration:none;text-decoration-line:none;text-decoration-style:solid;text-decoration-color:#000000;letter-spacing:normal;word-spacing:normal;text-transform:none;writing-mode:lr-tb;direction:ltr;text-orientation:mixed;dominant-baseline:auto;baseline-shift:baseline;text-anchor:start;white-space:normal;shape-padding:0;clip-rule:nonzero;display:inline;overflow:visible;visibility:visible;opacity:1;isolation:auto;mix-blend-mode:normal;color-interpolation:sRGB;color-interpolation-filters:linearRGB;solid-color:#000000;solid-opacity:1;vector-effect:none;fill:#000000;fill-opacity:1;fill-rule:evenodd;stroke:none;stroke-width:0.99999994;stroke-linecap:butt;stroke-linejoin:miter;stroke-miterlimit:4;stroke-dasharray:none;stroke-dashoffset:0;stroke-opacity:1;color-rendering:auto;image-rendering:auto;shape-rendering:auto;text-rendering:auto;enable-background:accumulate" /></g></g></g><g
     id="g2408"><g
       id="g2410"
       clip-path="url(#clipPath2414)"><g
         id="g2416"
         transform="translate(93.049,202.4396)" /></g></g><g
     id="g2420"><g
       id="g2422"
       clip-path="url(#clipPath2426)"><g
         id="g2428"
         transform="translate(93.049,203.0036)"><path
           d="m 0,0 c -0.935,0 -1.692,0.758 -1.692,1.692 v 14.103 c 0,0.935 0.757,1.693 1.692,1.693 h 29.334 c 0.934,0 1.692,-0.758 1.692,-1.693 V 1.692 C 31.026,0.758 30.268,0 29.334,0 Z"
           style="fill:#000000;fill-opacity:1;fill-rule:evenodd;stroke:none"
           id="path2430" /></g><g
         id="g2432"
         transform="translate(93.049,203.8498)"><path
           d="m 0,0 c -0.467,0 -0.846,0.379 -0.846,0.846 v 14.103 c 0,0.467 0.379,0.846 0.846,0.846 h 29.334 c 0.467,0 0.846,-0.379 0.846,-0.846 V 0.846 C 30.18,0.379 29.801,0 29.334,0 Z"
           style="fill:#ffffff;fill-opacity:1;fill-rule:evenodd;stroke:none"
           id="path2434" /></g><g
         id="g2436"
         transform="translate(105.7765,212.5406)"><path
           d="m 0,0 h 2.38 c 0.779,0 1.41,0.631 1.41,1.41 0,0.779 -0.631,1.41 -1.41,1.41 H 0 Z m 0,-4.319 h 2.468 c 0.827,0 1.499,0.671 1.499,1.498 0,0.828 -0.672,1.499 -1.499,1.499 H 0 Z M -1.498,-5.73 V 4.143 H 2.556 C 4.017,4.143 5.2,2.959 5.2,1.498 5.2,0.636 4.78,-0.173 4.073,-0.668 4.883,-1.164 5.377,-2.047 5.377,-2.997 5.377,-4.506 4.154,-5.73 2.644,-5.73 Z"
           style="fill:#000000;fill-opacity:1;fill-rule:evenodd;stroke:none"
           id="path2438" /></g></g></g></g>























































</g></svg>
