<?xml version="1.0" encoding="UTF-8" standalone="no"?>
<svg
   xmlns:dc="http://purl.org/dc/elements/1.1/"
   xmlns:cc="http://creativecommons.org/ns#"
   xmlns:rdf="http://www.w3.org/1999/02/22-rdf-syntax-ns#"
   xmlns:svg="http://www.w3.org/2000/svg"
   xmlns="http://www.w3.org/2000/svg"
   viewBox="0 0 969.63098 969.79431"
   height="969.79431"
   width="969.63098"
   xml:space="preserve"
   version="1.1"
   id="svg13297"><metadata
     id="metadata13303"><rdf:RDF><cc:Work
         rdf:about=""><dc:format>image/svg+xml</dc:format><dc:type
           rdf:resource="http://purl.org/dc/dcmitype/StillImage" /><dc:title></dc:title></cc:Work></rdf:RDF></metadata><defs
     id="defs13301"><clipPath
       id="clipPath13313"
       clipPathUnits="userSpaceOnUse"><path
         id="path13315"
         d="M 0,0 776,0 776,776 0,776 0,0 Z" /></clipPath></defs><g
     transform="matrix(1.25,0,0,-1.25,0,969.79431)"
     id="g13305"><g
       id="g13307"><g
         transform="translate(0,-0.164551)"
         id="g13309"><g
           id="g13311" /><g
           id="g13317"><g
             id="g13319"
             clip-path="url(#clipPath13313)"><g
               id="g13321"><path
                 id="path13323"
                 style="fill:#ffffff;fill-opacity:1;fill-rule:evenodd;stroke:none"
                 d="m 20.715,-0.203 -0.156,0 c -1.801,0 -3.579,0.234 -5.321,0.723 C 13.496,0.969 11.855,1.672 10.309,2.574 8.766,3.473 7.336,4.566 6.066,5.84 4.793,7.109 3.699,8.539 2.816,10.105 1.898,11.629 1.215,13.313 0.746,15.031 0.254,16.754 -0.02,18.555 0,20.332 l 0,735.125 c 0.02,1.801 0.254,3.602 0.746,5.32 0.449,1.723 1.152,3.387 2.07,4.93 0.883,1.547 1.977,2.973 3.25,4.246 1.27,1.27 2.7,2.367 4.243,3.246 1.546,0.918 3.207,1.625 4.929,2.074 1.742,0.489 3.52,0.762 5.321,0.723 l 735.125,0 c 1.781,0 3.578,-0.215 5.3,-0.723 1.743,-0.449 3.403,-1.156 4.95,-2.074 1.543,-0.879 2.972,-1.976 4.222,-3.246 1.293,-1.273 2.387,-2.699 3.27,-4.246 0.898,-1.543 1.601,-3.207 2.07,-4.93 0.492,-1.718 0.746,-3.519 0.727,-5.32 l 0,-735.125 c 0,-1.777 -0.235,-3.578 -0.727,-5.301 -0.449,-1.738 -1.152,-3.402 -2.07,-4.926 -0.883,-1.566 -1.977,-2.996 -3.27,-4.265 -1.25,-1.274 -2.679,-2.367 -4.222,-3.266 -1.547,-0.883 -3.207,-1.586 -4.95,-2.054 -1.722,-0.489 -3.519,-0.743 -5.3,-0.723 l -734.969,0" /><path
                 id="path13325"
                 style="fill:#0c0b09;fill-opacity:1;fill-rule:evenodd;stroke:none"
                 d="m 20.715,1.73 734.949,0 c 1.625,0 3.246,0.215 4.813,0.668 1.582,0.391 3.07,1.036 4.457,1.875 1.41,0.805 2.718,1.801 3.855,2.954 1.152,1.136 2.152,2.425 2.953,3.855 0.821,1.387 1.469,2.895 1.879,4.461 0.449,1.562 0.684,3.187 0.664,4.809 l 0,735.105 c 0,1.606 -0.215,3.25 -0.664,4.813 -0.391,1.566 -1.039,3.05 -1.879,4.46 -0.801,1.407 -1.801,2.7 -2.953,3.833 -1.137,1.175 -2.445,2.152 -3.855,2.972 -1.387,0.824 -2.875,1.449 -4.457,1.879 -1.586,0.43 -3.188,0.664 -4.813,0.645 l -735.105,0 c -1.606,0 -3.246,-0.215 -4.793,-0.645 -1.582,-0.41 -3.09,-1.055 -4.481,-1.879 -1.406,-0.82 -2.699,-1.797 -3.851,-2.972 -1.153,-1.133 -2.153,-2.426 -2.954,-3.833 -0.82,-1.41 -1.449,-2.894 -1.878,-4.46 -0.43,-1.582 -0.664,-3.207 -0.664,-4.813 l 0,-735.105 C 1.957,18.73 2.172,17.105 2.602,15.543 3.031,13.957 3.66,12.469 4.48,11.082 5.301,9.652 6.281,8.363 7.434,7.227 8.586,6.074 9.879,5.078 11.285,4.273 12.676,3.434 14.184,2.809 15.766,2.398 17.313,1.945 18.953,1.711 20.559,1.73 l 0.156,0 z m 0,-1.933 -0.156,0 c -1.801,0 -3.579,0.234 -5.321,0.723 C 13.496,0.969 11.855,1.672 10.309,2.574 8.766,3.473 7.336,4.566 6.066,5.84 4.793,7.109 3.699,8.539 2.816,10.105 1.898,11.629 1.215,13.313 0.746,15.031 0.254,16.754 -0.02,18.555 0,20.332 l 0,735.125 c 0.02,1.801 0.254,3.602 0.746,5.32 0.449,1.723 1.152,3.387 2.07,4.93 0.883,1.547 1.977,2.973 3.25,4.246 1.27,1.27 2.7,2.367 4.243,3.246 1.546,0.918 3.207,1.625 4.929,2.074 1.742,0.489 3.52,0.762 5.321,0.723 l 735.125,0 c 1.781,0 3.578,-0.215 5.3,-0.723 1.743,-0.449 3.403,-1.156 4.95,-2.074 1.543,-0.879 2.972,-1.976 4.222,-3.246 1.293,-1.273 2.387,-2.699 3.27,-4.246 0.898,-1.543 1.601,-3.207 2.07,-4.93 0.492,-1.718 0.746,-3.519 0.727,-5.32 l 0,-735.125 c 0,-1.777 -0.235,-3.578 -0.727,-5.301 -0.449,-1.738 -1.152,-3.402 -2.07,-4.926 -0.883,-1.566 -1.977,-2.996 -3.27,-4.265 -1.25,-1.274 -2.679,-2.367 -4.222,-3.266 -1.547,-0.883 -3.207,-1.586 -4.95,-2.054 -1.722,-0.489 -3.519,-0.743 -5.3,-0.723 l -734.969,0" /></g></g></g></g></g><g
       id="g13327"><path
         id="path13329"
         style="fill:#154889;fill-opacity:1;fill-rule:evenodd;stroke:none"
         d="m 20.695,13.421 -0.039,0 c -0.605,0 -1.195,0.079 -1.781,0.235 -0.566,0.156 -1.133,0.39 -1.641,0.703 -0.511,0.293 -0.98,0.644 -1.41,1.078 -0.41,0.43 -0.801,0.898 -1.094,1.426 -0.292,0.508 -0.527,1.054 -0.664,1.644 -0.179,0.567 -0.257,1.172 -0.257,1.758 l 0,734.93 c 0,0.609 0.078,1.195 0.257,1.781 0.137,0.566 0.372,1.113 0.664,1.625 0.313,0.527 0.684,0.996 1.094,1.426 0.43,0.41 0.899,0.801 1.41,1.098 0.508,0.292 1.075,0.527 1.641,0.683 0.586,0.156 1.176,0.254 1.781,0.234 l 734.93,0 c 0.586,0 1.191,-0.078 1.762,-0.234 0.586,-0.156 1.132,-0.391 1.621,-0.683 0.547,-0.297 1.019,-0.688 1.429,-1.098 0.43,-0.43 0.801,-0.899 1.094,-1.426 0.313,-0.512 0.528,-1.059 0.703,-1.625 0.16,-0.586 0.239,-1.172 0.239,-1.781 l 0,-734.93 c 0,-0.586 -0.079,-1.191 -0.239,-1.758 -0.175,-0.59 -0.39,-1.136 -0.703,-1.644 -0.293,-0.528 -0.664,-0.996 -1.094,-1.426 -0.41,-0.434 -0.882,-0.785 -1.429,-1.078 -0.489,-0.313 -1.055,-0.527 -1.621,-0.703 -0.571,-0.156 -1.176,-0.254 -1.762,-0.235 l -734.891,0" /><path
         id="path13331"
         style="fill:#ffffff;fill-opacity:1;fill-rule:evenodd;stroke:none"
         d="m 212.063,595.89 -24.899,-6.433 c -0.117,-0.02 -0.211,-0.04 -0.332,-0.059 -0.117,-0.02 -0.215,-0.059 -0.332,-0.059 -0.195,-0.039 -0.391,-0.058 -0.605,-0.058 -0.215,-0.02 -0.43,-0.02 -0.645,0 -0.215,0 -0.434,0.019 -0.648,0.058 -0.524,0.078 -1.036,0.215 -1.524,0.411 -0.625,0.253 -1.215,0.605 -1.762,1.058 -0.507,0.43 -0.957,0.938 -1.328,1.504 -0.316,0.469 -0.531,0.957 -0.703,1.488 -0.238,0.684 -0.355,1.387 -0.355,2.09 0,0.317 0.023,0.629 0.078,0.942 0.039,0.253 0.078,0.507 0.156,0.761 0.059,0.254 0.137,0.489 0.234,0.742 0.079,0.196 0.18,0.391 0.274,0.571 0.117,0.234 0.258,0.449 0.394,0.664 l 48.547,72.508 48.567,-72.508 c 0.023,-0.02 0.039,-0.059 0.058,-0.098 0.137,-0.215 0.293,-0.469 0.391,-0.703 0.137,-0.238 0.215,-0.492 0.312,-0.727 0.079,-0.253 0.157,-0.488 0.215,-0.742 0.039,-0.215 0.078,-0.41 0.098,-0.625 0.019,-0.254 0.059,-0.508 0.059,-0.785 0,-0.84 -0.176,-1.699 -0.508,-2.48 -0.235,-0.629 -0.586,-1.235 -1.039,-1.762 -0.43,-0.508 -0.938,-0.957 -1.504,-1.332 -0.469,-0.313 -0.961,-0.547 -1.508,-0.703 -0.547,-0.196 -1.152,-0.313 -1.758,-0.332 -0.137,-0.02 -0.316,-0.02 -0.473,0 -0.195,0 -0.39,0 -0.585,0.019 -0.196,0.039 -0.391,0.078 -0.586,0.117 -0.118,0.02 -0.235,0.04 -0.332,0.059 l -24.84,6.414 0,-493.055 -33.117,0 0,493.055" /><path
         id="path13333"
         style="fill:#ffffff;fill-opacity:1;fill-rule:evenodd;stroke:none"
         d="m 340.953,595.992 -24.883,-6.434 c -0.117,-0.019 -0.234,-0.039 -0.351,-0.058 -0.098,-0.02 -0.196,-0.059 -0.332,-0.059 -0.196,-0.039 -0.371,-0.059 -0.586,-0.059 -0.215,-0.019 -0.449,-0.019 -0.664,0 -0.215,0 -0.43,0.02 -0.649,0.059 -0.508,0.078 -1.015,0.215 -1.504,0.41 -0.644,0.254 -1.234,0.606 -1.761,1.059 -0.528,0.429 -0.957,0.937 -1.328,1.504 -0.313,0.468 -0.547,0.957 -0.723,1.488 -0.219,0.683 -0.356,1.387 -0.336,2.09 0,0.316 0.019,0.629 0.059,0.941 0.058,0.254 0.097,0.508 0.175,0.762 0.043,0.254 0.141,0.488 0.239,0.742 0.058,0.195 0.156,0.391 0.254,0.57 0.117,0.235 0.273,0.45 0.39,0.664 l 48.567,72.508 48.566,-72.508 c 0.019,-0.019 0.039,-0.058 0.059,-0.097 0.136,-0.215 0.273,-0.469 0.39,-0.707 0.137,-0.235 0.215,-0.489 0.293,-0.723 0.098,-0.254 0.176,-0.488 0.215,-0.742 0.039,-0.215 0.078,-0.41 0.098,-0.625 0.039,-0.254 0.058,-0.508 0.058,-0.785 0,-0.84 -0.156,-1.7 -0.488,-2.481 -0.254,-0.629 -0.606,-1.234 -1.055,-1.761 -0.433,-0.508 -0.941,-0.961 -1.508,-1.333 -0.449,-0.312 -0.957,-0.546 -1.484,-0.703 -0.551,-0.195 -1.156,-0.312 -1.762,-0.332 -0.156,-0.019 -0.312,-0.019 -0.488,0 -0.195,0 -0.371,0 -0.57,0.02 -0.215,0.039 -0.41,0.078 -0.606,0.117 -0.097,0.02 -0.215,0.039 -0.312,0.059 l -24.84,6.414 0,-493.055 -33.133,0 0,493.055" /><path
         id="path13335"
         style="fill:#ffffff;fill-opacity:1;fill-rule:evenodd;stroke:none"
         d="m 469.855,596.089 -24.882,-6.437 c -0.137,-0.02 -0.231,-0.039 -0.352,-0.059 -0.117,-0.019 -0.211,-0.058 -0.332,-0.058 -0.195,-0.039 -0.387,-0.059 -0.586,-0.059 -0.234,-0.019 -0.449,-0.019 -0.68,0 -0.222,0 -0.414,0.02 -0.632,0.059 -0.524,0.078 -1.032,0.215 -1.52,0.41 -0.629,0.254 -1.238,0.609 -1.746,1.058 -0.527,0.43 -0.996,0.938 -1.344,1.504 -0.297,0.469 -0.551,0.961 -0.707,1.489 -0.238,0.683 -0.355,1.386 -0.355,2.093 0,0.313 0.039,0.625 0.078,0.938 0.039,0.254 0.101,0.508 0.156,0.762 0.059,0.253 0.137,0.488 0.238,0.742 0.075,0.199 0.153,0.394 0.254,0.57 0.133,0.234 0.274,0.449 0.414,0.664 l 48.563,72.508 48.547,-72.508 c 0.019,-0.019 0.039,-0.058 0.062,-0.098 0.157,-0.214 0.293,-0.468 0.41,-0.703 0.114,-0.234 0.215,-0.492 0.293,-0.726 0.094,-0.254 0.153,-0.488 0.215,-0.742 0.039,-0.215 0.078,-0.411 0.094,-0.625 0.023,-0.254 0.039,-0.508 0.039,-0.782 0.023,-0.843 -0.133,-1.703 -0.465,-2.484 -0.254,-0.629 -0.609,-1.234 -1.058,-1.762 -0.434,-0.508 -0.938,-0.957 -1.524,-1.332 -0.453,-0.312 -0.945,-0.547 -1.469,-0.703 -0.57,-0.195 -1.171,-0.312 -1.777,-0.332 -0.137,-0.019 -0.312,-0.019 -0.473,0 -0.195,0 -0.394,0 -0.586,0.02 -0.195,0.039 -0.394,0.078 -0.585,0.117 -0.118,0.019 -0.219,0.039 -0.332,0.058 l -24.844,6.418 0,-493.058 -33.114,0 0,493.058" /><path
         id="path13337"
         style="fill:#ffffff;fill-opacity:1;fill-rule:nonzero;stroke:none"
         d="m 565.605,698.203 20.703,0 0,-620.941 -20.703,0 0,620.941 z" /><path
         id="path13339"
         style="fill:#ffffff;fill-opacity:1;fill-rule:evenodd;stroke:none"
         d="m 681.387,488.839 25.445,-25.406 c 0.375,-0.371 0.727,-0.742 1.098,-1.133 2.523,-2.64 4.847,-5.496 6.883,-8.527 1.957,-2.836 3.66,-5.867 5.125,-8.996 1.468,-3.11 2.699,-6.34 3.636,-9.664 0.785,-2.66 1.391,-5.36 1.821,-8.078 0.488,-2.934 0.761,-5.887 0.8,-8.86 0.02,-0.527 0.02,-1.054 0.02,-1.582 l 0,-313.343 -33.11,0 0,313.343 c 0,0.274 0,0.528 -0.019,0.801 -0.02,1.82 -0.219,3.637 -0.57,5.438 -0.313,1.703 -0.782,3.363 -1.368,5.007 -0.585,1.602 -1.293,3.188 -2.113,4.692 -0.664,1.215 -1.406,2.386 -2.23,3.504 -0.86,1.211 -1.817,2.363 -2.836,3.422 -0.196,0.175 -0.371,0.371 -0.567,0.566 l -25.425,25.406 -13.008,-22.082 c -0.039,-0.058 -0.098,-0.137 -0.137,-0.176 -0.254,-0.429 -0.547,-0.8 -0.879,-1.132 -0.332,-0.332 -0.683,-0.625 -1.055,-0.864 -0.39,-0.254 -0.804,-0.468 -1.214,-0.625 -0.352,-0.156 -0.684,-0.254 -1.055,-0.332 -0.391,-0.078 -0.781,-0.136 -1.152,-0.136 l -0.512,0 c -0.176,0 -0.371,0.019 -0.547,0.039 -0.469,0.078 -0.898,0.175 -1.348,0.332 -0.55,0.175 -1.097,0.468 -1.605,0.8 -0.488,0.356 -0.938,0.747 -1.309,1.215 -0.293,0.371 -0.57,0.762 -0.804,1.211 -0.235,0.449 -0.43,0.961 -0.528,1.469 -0.019,0.098 -0.039,0.176 -0.058,0.254 l -16.938,85.605 85.586,-16.918 c 0.102,-0.019 0.199,-0.039 0.297,-0.058 0.605,-0.156 1.23,-0.391 1.777,-0.723 0.508,-0.293 1,-0.683 1.41,-1.113 0.411,-0.434 0.782,-0.903 1.055,-1.449 0.235,-0.411 0.41,-0.86 0.547,-1.329 0.176,-0.589 0.273,-1.214 0.254,-1.82 0.019,-0.566 -0.059,-1.133 -0.195,-1.664 -0.118,-0.449 -0.274,-0.859 -0.489,-1.269 -0.195,-0.411 -0.429,-0.801 -0.722,-1.153 -0.215,-0.297 -0.45,-0.551 -0.723,-0.804 -0.293,-0.274 -0.609,-0.508 -0.941,-0.723 -0.059,-0.039 -0.118,-0.059 -0.196,-0.098 l -22.101,-13.047" /><path
         id="path13341"
         style="fill:#ffffff;fill-opacity:1;fill-rule:evenodd;stroke:none"
         d="m 83.16,595.89 -24.898,-6.433 c -0.117,-0.02 -0.215,-0.04 -0.332,-0.059 -0.117,-0.02 -0.215,-0.059 -0.332,-0.059 -0.196,-0.039 -0.391,-0.058 -0.606,-0.058 -0.215,-0.02 -0.429,-0.02 -0.644,0 -0.219,0 -0.434,0.019 -0.649,0.058 -0.527,0.078 -1.035,0.215 -1.523,0.411 -0.629,0.253 -1.215,0.605 -1.762,1.058 -0.508,0.43 -0.957,0.938 -1.328,1.504 -0.316,0.469 -0.531,0.957 -0.707,1.488 -0.234,0.684 -0.352,1.387 -0.352,2.09 0,0.317 0.02,0.629 0.078,0.942 0.04,0.253 0.079,0.507 0.157,0.761 0.058,0.254 0.136,0.489 0.234,0.742 0.078,0.196 0.176,0.391 0.274,0.571 0.117,0.234 0.257,0.449 0.394,0.664 l 48.547,72.508 48.566,-72.508 c 0.02,-0.02 0.039,-0.059 0.059,-0.098 0.137,-0.215 0.293,-0.469 0.391,-0.703 0.136,-0.238 0.214,-0.492 0.312,-0.727 0.078,-0.253 0.156,-0.488 0.215,-0.742 0.039,-0.215 0.078,-0.41 0.098,-0.625 0.019,-0.254 0.058,-0.508 0.058,-0.785 0,-0.84 -0.176,-1.699 -0.508,-2.48 -0.234,-0.629 -0.586,-1.235 -1.039,-1.762 -0.429,-0.508 -0.937,-0.957 -1.504,-1.332 -0.468,-0.313 -0.961,-0.547 -1.507,-0.703 -0.547,-0.196 -1.153,-0.313 -1.758,-0.332 -0.137,-0.02 -0.317,-0.02 -0.473,0 -0.195,0 -0.391,0 -0.586,0.019 -0.195,0.039 -0.39,0.078 -0.586,0.117 -0.117,0.02 -0.234,0.04 -0.332,0.059 l -24.84,6.414 0,-493.055 -33.117,0 0,493.055" /></g></g></svg>