<?xml version="1.0" encoding="UTF-8" standalone="no"?>
<svg
   xmlns:dc="http://purl.org/dc/elements/1.1/"
   xmlns:cc="http://creativecommons.org/ns#"
   xmlns:rdf="http://www.w3.org/1999/02/22-rdf-syntax-ns#"
   xmlns:svg="http://www.w3.org/2000/svg"
   xmlns="http://www.w3.org/2000/svg"
   viewBox="0 0 461.78763 461.89426"
   height="461.89426"
   width="461.78763"
   xml:space="preserve"
   version="1.1"
   id="svg9866"><metadata
     id="metadata9872"><rdf:RDF><cc:Work
         rdf:about=""><dc:format>image/svg+xml</dc:format><dc:type
           rdf:resource="http://purl.org/dc/dcmitype/StillImage" /><dc:title></dc:title></cc:Work></rdf:RDF></metadata><defs
     id="defs9870" /><g
     transform="matrix(1.25,0,0,-1.25,0,461.89426)"
     id="g9874"><g
       id="g9876"><path
         id="path9878"
         style="fill:#ffffff;fill-opacity:1;fill-rule:evenodd;stroke:none"
         d="M 360.621,0.304 C 270.754,0.304 101.207,0.332 9.672,0.32 4.711,0.316 0.383,4.953 0.32,8.41 L 0.301,359.797 c 0,4.285 3.637,9.367 9.269,9.367 l 349.864,0.051 c 5.496,0 9.668,-4.5 9.668,-9.883 L 369.129,8.488 c 0,-3.976 -4.789,-8.184 -8.508,-8.184 z" /><path
         id="path9880"
         style="fill:#000000;fill-opacity:1;fill-rule:evenodd;stroke:none"
         d="M 359.434,369.515 9.57,369.465 c -2.906,0 -5.308,-1.317 -6.972,-3.176 C 0.938,364.429 0,362.027 0,359.797 L 0.016,8.406 l 0,-0.004 C 0.051,6.551 1.195,4.48 2.953,2.847 4.707,1.215 7.098,0.015 9.672,0.015 101.207,0.027 270.754,0 360.621,0 c 1.973,0 4.149,1.094 5.856,2.683 1.703,1.59 2.953,3.696 2.953,5.805 l -0.024,350.844 c 0,5.539 -4.312,10.183 -9.972,10.183 z m 0,-0.605 c 5.328,0 9.367,-4.352 9.367,-9.578 L 368.824,8.488 c 0,-1.867 -1.144,-3.855 -2.761,-5.363 -1.618,-1.508 -3.696,-2.52 -5.442,-2.52 -89.867,0 -259.414,0.032 -350.949,0.016 -2.387,0 -4.645,1.121 -6.309,2.668 C 1.699,4.836 0.652,6.808 0.621,8.414 L 0.605,359.797 c 0,2.058 0.879,4.336 2.446,6.086 1.562,1.754 3.793,2.976 6.519,2.976 l 349.864,0.051 z" /><path
         id="path9882"
         style="fill:#154889;fill-opacity:1;fill-rule:evenodd;stroke:none"
         d="M 360.012,6.719 9.422,6.734 C 8.34,6.734 6.801,7.972 6.801,8.965 L 6.785,360.137 c 0,1.003 1.024,2.507 2.11,2.507 l 351.628,-0.011 c 1.133,0 2.129,-1.461 2.129,-2.551 L 362.676,9.316 c 0,-1.199 -1.774,-2.597 -2.664,-2.597 z" /><path
         id="path9884"
         style="fill:#ffffff;fill-opacity:1;fill-rule:evenodd;stroke:none"
         d="m 64.559,319.996 0,-0.027 -23.461,-34.957 c -1.137,-2.77 1.867,-4.922 3.617,-4.383 l 11.926,3.043 0.05,0 -0.043,-234.434 15.856,0 0,234.441 11.918,-3.039 c 1.75,-0.539 4.746,1.614 3.613,4.383 l -23.461,34.953 0,0.008 -0.008,-0.004 -0.007,0.016 z" /><path
         id="path9886"
         style="fill:#ffffff;fill-opacity:1;fill-rule:evenodd;stroke:none"
         d="m 150.527,320.043 0,-0.028 -23.464,-34.957 c -1.133,-2.769 1.867,-4.918 3.621,-4.379 l 11.925,3.04 0.051,0 -0.047,-234.43 15.856,0 0,234.441 11.922,-3.043 c 1.75,-0.539 4.746,1.614 3.613,4.387 l -23.465,34.949 0,0.012 -0.004,-0.004 -0.008,0.012 z" /><path
         id="path9888"
         style="fill:#ffffff;fill-opacity:1;fill-rule:evenodd;stroke:none"
         d="m 260.516,253.457 8.05,-41.324 c 1.153,-2.762 4.813,-2.168 5.672,-0.551 l 6.301,10.574 c 9.547,-9.922 16.676,-18.375 16.676,-21.922 l 0.351,-152.101 15.848,0 0,151.476 c -0.707,14.711 -11.516,24.188 -21.398,33.875 l 10.324,6.149 c 1.621,0.855 2.234,4.488 -0.524,5.648 l -41.3,8.176 z" /><path
         id="path9890"
         style="fill:#ffffff;fill-opacity:1;fill-rule:evenodd;stroke:none"
         d="m 211.313,332.437 10.011,0 0,-295.449 -10.039,-0.023 0.028,295.472 z" /></g></g></svg>