<?xml version="1.0" encoding="UTF-8" standalone="no"?>
<svg
   viewBox="0 0 600.995 600.995"
   height="600.995"
   width="600.995"
   xml:space="preserve"
   version="1.1"
   id="svg3508"
   sodipodi:docname="DE_274-120.svg"
   inkscape:version="1.3.2 (091e20e, 2023-11-25, custom)"
   xmlns:inkscape="http://www.inkscape.org/namespaces/inkscape"
   xmlns:sodipodi="http://sodipodi.sourceforge.net/DTD/sodipodi-0.dtd"
   xmlns="http://www.w3.org/2000/svg"
   xmlns:svg="http://www.w3.org/2000/svg"
   xmlns:rdf="http://www.w3.org/1999/02/22-rdf-syntax-ns#"
   xmlns:cc="http://creativecommons.org/ns#"
   xmlns:dc="http://purl.org/dc/elements/1.1/"><sodipodi:namedview
     id="namedview1"
     pagecolor="#ffffff"
     bordercolor="#000000"
     borderopacity="0.25"
     inkscape:showpageshadow="2"
     inkscape:pageopacity="0.0"
     inkscape:pagecheckerboard="0"
     inkscape:deskcolor="#d1d1d1"
     inkscape:zoom="1.4309603"
     inkscape:cx="300.4975"
     inkscape:cy="300.14808"
     inkscape:window-width="1920"
     inkscape:window-height="1017"
     inkscape:window-x="-8"
     inkscape:window-y="-8"
     inkscape:window-maximized="1"
     inkscape:current-layer="g3518" /><metadata
     id="metadata3514"><rdf:RDF><cc:Work
         rdf:about=""><dc:format>image/svg+xml</dc:format><dc:type
           rdf:resource="http://purl.org/dc/dcmitype/StillImage" /></cc:Work></rdf:RDF></metadata><defs
     id="defs3512" /><g
     transform="matrix(1.25,0,0,-1.25,0,600.99499)"
     id="g3516"><g
       id="g3518"><path
         id="path3520"
         style="fill:#ffffff;fill-opacity:1;fill-rule:nonzero;stroke:none"
         d="m 480.398,240.398 c 0,-132.551 -107.449,-240 -240,-240 -132.55,0 -240,107.449 -240,240 0,132.55 107.45,240 240,240 132.551,0 240,-107.45 240,-240 z" /><path
         id="path3522"
         style="fill:#000000;fill-opacity:1;fill-rule:nonzero;stroke:none"
         d="M 240.398,480.796 C 107.633,480.796 0,373.163 0,240.398 0,107.632 107.633,-0.001 240.398,-0.001 c 132.766,0 240.399,107.633 240.399,240.399 0,132.765 -107.633,240.398 -240.399,240.398 z m 0,-0.398 c 132.551,0 240,-107.45 240,-240 0,-132.551 -107.449,-240 -240,-240 -132.55,0 -240,107.449 -240,240 0,132.55 107.45,240 240,240 z" /><path
         id="path3524"
         style="fill:#c1121c;fill-opacity:1;fill-rule:nonzero;stroke:none"
         d="m 240.398,472.398 c -127.746,0 -232,-104.254 -232,-232 0,-127.747 104.254,-232 232,-232 127.747,0 232,104.253 232,232 0,127.746 -104.253,232 -232,232 z m 0,-64.321 c 92.989,0 167.68,-74.691 167.68,-167.679 0,-92.989 -74.691,-167.68 -167.68,-167.68 -92.988,0 -167.679,74.691 -167.679,167.68 0,92.988 74.691,167.679 167.679,167.679 z" /><path
         id="path3526"
         style="fill:#000000;fill-opacity:1;fill-rule:nonzero;stroke:none"
         d="m 23.832,456.511 0,-0.024 -0.023,0 0.023,0.024 z" /><path
         id="path3528"
         style="fill:#000000;fill-opacity:1;fill-rule:nonzero;stroke:none"
         d="m 23.809,456.511 0.023,0 0,-0.023 -0.023,0 0,0.023 z" /><path
         id="path3530"
         style="fill:#000000;fill-opacity:1;fill-rule:nonzero;stroke:none"
         d="m 23.809,456.487 0,0.024 0.023,-0.024 -0.023,0 z m 0.023,0 -0.023,0.024 0,-0.024 0.023,0 z" /><path
         id="path3532"
         style="fill:#000000;fill-opacity:1;fill-rule:nonzero;stroke:none"
         d="m 23.859,456.487 -0.05,0 0.023,0 0,0.024 0.027,-0.024 z" /><path
         id="path3534"
         style="fill:#000000;fill-opacity:1;fill-rule:nonzero;stroke:none"
         d="m 23.809,456.487 0,0.024 0,-0.024 0.023,0.024 -0.023,-0.024 z" /><path
         id="path3536"
         style="fill:#000000;fill-opacity:1;fill-rule:nonzero;stroke:none"
         d="m 23.809,456.511 0.023,0 0,-0.023 -0.023,0 0,0.023 z" /><path
         id="path3538"
         style="fill:#000000;fill-opacity:1;fill-rule:nonzero;stroke:none"
         d="m 23.859,456.511 0,-0.047 -0.05,0 0.05,0.047 z" /><path
         id="path3540"
         style="fill:#000000;fill-opacity:1;fill-rule:nonzero;stroke:none"
         d="m 23.809,456.511 0.051,0 0,-0.047 -0.051,0 0,0.047 z" /><path
         id="path3542"
         style="fill:#000000;fill-opacity:1;fill-rule:nonzero;stroke:none"
         d="m 23.809,456.464 0,0.047 0.05,-0.047 -0.05,0 z m 0.05,0 -0.05,0.047 0,-0.047 0.05,0 z" /><path
         id="path3544"
         style="fill:#000000;fill-opacity:1;fill-rule:nonzero;stroke:none"
         d="m 23.859,456.464 -0.05,0 0.023,0 0,0.047 0.027,-0.047 z" /><path
         id="path3546"
         style="fill:#000000;fill-opacity:1;fill-rule:nonzero;stroke:none"
         d="m 23.809,456.464 0,0.047 0,-0.047 0.05,0.047 -0.05,-0.047 z" /><path
         id="path3548"
         style="fill:#000000;fill-opacity:1;fill-rule:nonzero;stroke:none"
         d="m 23.809,456.511 0.051,0 0,-0.047 -0.051,0 0,0.047 z" /><path
         id="path3550"
         style="fill:#000000;fill-opacity:1;fill-rule:nonzero;stroke:none"
         d="m 23.859,456.511 0,-0.047 -0.05,0 0.05,0.047 z" /><path
         id="path3552"
         style="fill:#000000;fill-opacity:1;fill-rule:nonzero;stroke:none"
         d="m 23.809,456.511 0.051,0 0,-0.047 -0.051,0 0,0.047 z" /><path
         id="path3554"
         style="fill:#000000;fill-opacity:1;fill-rule:nonzero;stroke:none"
         d="m 23.809,456.464 0,0.047 0.05,-0.047 -0.05,0 z m 0.05,0 -0.05,0.047 0,-0.047 0.05,0 z" /><path
         id="path3556"
         style="fill:#000000;fill-opacity:1;fill-rule:nonzero;stroke:none"
         d="m 23.859,456.464 -0.05,0 0.023,0 0,0.047 0.027,-0.047 z" /><path
         id="path3558"
         style="fill:#000000;fill-opacity:1;fill-rule:nonzero;stroke:none"
         d="m 23.809,456.464 0,0.047 0,-0.047 0.05,0.047 -0.05,-0.047 z" /><path
         id="path3560"
         style="fill:#000000;fill-opacity:1;fill-rule:nonzero;stroke:none"
         d="m 23.809,456.511 0.051,0 0,-0.047 -0.051,0 0,0.047 z" /><path
         id="path3562"
         style="fill:#000000;fill-opacity:1;fill-rule:nonzero;stroke:none"
         d="m 23.859,456.511 0,-0.047 -0.05,0 0.05,0.047 z" /><path
         id="path3564"
         style="fill:#000000;fill-opacity:1;fill-rule:nonzero;stroke:none"
         d="m 23.809,456.511 0.051,0 0,-0.047 -0.051,0 0,0.047 z" /><path
         id="path3566"
         style="fill:#000000;fill-opacity:1;fill-rule:nonzero;stroke:none"
         d="m 23.809,456.464 0,0.047 0.05,-0.047 -0.05,0 z m 0.05,0 -0.05,0.047 0,-0.047 0.05,0 z" /><path
         id="path3568"
         style="fill:#000000;fill-opacity:1;fill-rule:nonzero;stroke:none"
         d="m 23.859,456.464 -0.05,0 0.023,0 0,0.047 0.027,-0.047 z" /><path
         id="path3570"
         style="fill:#000000;fill-opacity:1;fill-rule:nonzero;stroke:none"
         d="m 23.809,456.464 0,0.047 0,-0.047 0.05,0.047 -0.05,-0.047 z" /><path
         id="path3572"
         style="fill:#000000;fill-opacity:1;fill-rule:nonzero;stroke:none"
         d="m 23.809,456.511 0.051,0 0,-0.047 -0.051,0 0,0.047 z" /><path
         id="path3574"
         style="display:none;fill:#000000;fill-opacity:1;fill-rule:nonzero;stroke:none"
         d="m 119.688,232.253 h 26.964 c 3.371,5.805 7.118,10.02 11.235,12.641 4.121,2.621 8.992,3.929 14.609,3.929 11.047,0 18.633,-3.371 22.75,-10.109 4.121,-6.555 6.184,-16.012 6.184,-28.371 0,-6.555 -0.188,-12.078 -0.563,-16.574 -0.375,-4.309 -1.5,-8.52 -3.371,-12.641 -1.687,-4.121 -4.496,-7.488 -8.43,-10.113 -3.929,-2.434 -9.175,-3.649 -15.726,-3.649 -7.867,0 -14.235,2.059 -19.102,6.18 -4.871,4.117 -8.054,9.828 -9.55,17.133 h -28.653 c 0.938,-8.988 3.278,-16.856 7.024,-23.594 3.742,-6.555 8.332,-11.988 13.761,-16.293 5.43,-4.121 11.332,-7.211 17.7,-9.269 6.55,-1.875 13.199,-2.809 19.941,-2.809 9.176,0 17.512,2.059 25,6.18 7.492,4.117 13.578,9.175 18.258,15.168 4.496,5.804 7.679,12.078 9.551,18.82 1.875,6.742 2.808,16.48 2.808,29.211 0,15.73 -1.121,27.156 -3.371,34.269 -2.246,7.305 -6.367,14.141 -12.359,20.508 -3.93,4.309 -9.082,7.77 -15.45,10.395 -6.367,2.808 -13.105,4.211 -20.222,4.211 -12.172,0 -22.848,-3.653 -32.024,-10.953 v 45.222 h 79.496 v 28.653 h -106.46 z" /><path
         id="path3576"
         style="fill:#000000;fill-opacity:1;fill-rule:nonzero;stroke:none;stroke-width:0.827005"
         d="m 353.6095,196.11572 c 0,-7.8979 -2.08984,-14.09382 -6.27034,-18.58445 -4.18299,-4.49064 -9.8364,-6.73595 -16.95939,-6.73595 -7.12382,0 -12.77722,2.24531 -16.9569,6.73595 -4.18382,4.49063 -6.27366,10.68655 -6.27366,18.58445 V 266.273 c 0,7.89458 2.08984,14.09133 6.27366,18.58114 4.17968,4.49394 9.83308,6.73926 16.9569,6.73926 7.12299,0 12.7764,-2.24532 16.95939,-6.73926 4.1805,-4.48981 6.27034,-10.68656 6.27034,-18.58114 z m -70.15645,-1.39516 c 0,-7.43312 1.24051,-14.09133 3.71821,-19.97712 2.63319,-5.8858 6.1157,-10.91895 10.45417,-15.09945 4.49063,-4.18382 9.52378,-7.35621 15.09945,-9.52379 5.57566,-2.01541 11.45815,-3.02022 17.65489,-3.02022 6.19592,0 12.0784,1.00481 17.65407,3.02022 5.73114,2.16758 10.76429,5.26306 15.09945,9.2914 4.33847,4.17968 7.74324,9.21283 10.22095,15.09862 2.63318,6.04127 3.95143,12.77722 3.95143,20.21034 v 72.94428 c 0,7.43312 -1.24051,14.09464 -3.71822,19.97713 -2.4777,5.88662 -5.96022,10.91894 -10.45416,15.09945 -4.49064,4.18381 -9.52379,7.28177 -15.09945,9.29388 -5.57567,2.1684 -11.45815,3.25343 -17.65407,3.25343 -6.19674,0 -12.15697,-1.08503 -17.88728,-3.25343 -5.57649,-2.01211 -10.5319,-5.11007 -14.86706,-9.29388 -4.33847,-4.02503 -7.82098,-9.05818 -10.45417,-15.09945 -2.4777,-5.88249 -3.71821,-12.54401 -3.71821,-19.97713 z" /><text
         xml:space="preserve"
         style="font-weight:bold;font-size:230.15px;font-family:Arial;-inkscape-font-specification:'Arial Bold';fill:#000000;fill-opacity:1;stroke:#ffffff;stroke-width:0"
         x="85.256088"
         y="-153.0636"
         id="text1"
         transform="scale(1,-1)"><tspan
           sodipodi:role="line"
           id="tspan1"
           style="font-style:normal;font-variant:normal;font-weight:normal;font-stretch:normal;font-size:230.15px;font-family:'DIN 1451 Mittelschrift';-inkscape-font-specification:'DIN 1451 Mittelschrift, Normal';font-variant-ligatures:normal;font-variant-caps:normal;font-variant-numeric:normal;font-variant-east-asian:normal;fill:#000000;fill-opacity:1;stroke-width:0"
           x="85.256088"
           y="-153.0636">12</tspan></text></g></g></svg>
