<?xml version="1.0" encoding="UTF-8" standalone="no"?>
<svg
   xmlns:dc="http://purl.org/dc/elements/1.1/"
   xmlns:cc="http://creativecommons.org/ns#"
   xmlns:rdf="http://www.w3.org/1999/02/22-rdf-syntax-ns#"
   xmlns:svg="http://www.w3.org/2000/svg"
   xmlns="http://www.w3.org/2000/svg"
   viewBox="0 0 461.78763 461.89426"
   height="461.89426"
   width="461.78763"
   xml:space="preserve"
   version="1.1"
   id="svg8937"><metadata
     id="metadata8943"><rdf:RDF><cc:Work
         rdf:about=""><dc:format>image/svg+xml</dc:format><dc:type
           rdf:resource="http://purl.org/dc/dcmitype/StillImage" /><dc:title></dc:title></cc:Work></rdf:RDF></metadata><defs
     id="defs8941" /><g
     transform="matrix(1.25,0,0,-1.25,0,461.89426)"
     id="g8945"><g
       id="g8947"><path
         id="path8949"
         style="fill:#ffffff;fill-opacity:1;fill-rule:evenodd;stroke:#000000;stroke-width:0.60535198;stroke-linecap:butt;stroke-linejoin:miter;stroke-miterlimit:4;stroke-dasharray:none;stroke-opacity:1"
         d="M 360.621,0.304 C 270.754,0.304 101.207,0.332 9.672,0.32 4.711,0.316 0.383,4.953 0.32,8.41 L 0.301,359.797 c 0,4.285 3.637,9.367 9.269,9.367 l 349.864,0.051 c 5.496,0 9.668,-4.5 9.668,-9.883 L 369.129,8.488 c 0,-3.976 -4.789,-8.184 -8.508,-8.184 z" /><path
         id="path8951"
         style="fill:#154889;fill-opacity:1;fill-rule:evenodd;stroke:none"
         d="M 360.012,6.719 9.422,6.734 C 8.34,6.734 6.801,7.972 6.801,8.965 L 6.785,360.137 c 0,1.003 1.024,2.507 2.11,2.507 l 351.628,-0.011 c 1.133,0 2.129,-1.461 2.129,-2.551 L 362.676,9.316 c 0,-1.199 -1.774,-2.597 -2.664,-2.597 z" /><path
         id="path8953"
         style="fill:#ffffff;fill-opacity:1;fill-rule:evenodd;stroke:none"
         d="m 76.957,319.996 0,-0.027 -23.461,-34.957 c -1.133,-2.77 1.867,-4.922 3.617,-4.383 l 11.93,3.043 0.051,0 -0.047,-234.434 15.855,0 0,234.441 11.918,-3.039 c 1.754,-0.539 4.75,1.614 3.618,4.383 l -23.465,34.953 0,0.008 -0.004,-0.004 -0.012,0.016 z" /><path
         id="path8955"
         style="fill:#ffffff;fill-opacity:1;fill-rule:evenodd;stroke:none"
         d="m 162.926,320.043 0,-0.028 -23.461,-34.957 c -1.137,-2.769 1.867,-4.918 3.617,-4.379 l 11.93,3.04 0.051,0 -0.047,-234.43 15.855,0 0,234.441 11.918,-3.043 c 1.75,-0.539 4.746,1.614 3.613,4.387 l -23.461,34.949 0,0.012 -0.003,-0.004 -0.012,0.012 z" /><path
         id="path8957"
         style="fill:#ffffff;fill-opacity:1;fill-rule:evenodd;stroke:none"
         d="m 292.391,320.043 0,-0.028 -23.465,-34.957 c -1.133,-2.769 1.871,-4.918 3.621,-4.379 l 11.926,3.04 0.05,0 -0.043,-234.43 15.856,0 0,234.441 11.918,-3.043 c 1.75,-0.539 4.746,1.614 3.613,4.387 l -23.461,34.949 0,0.012 -0.008,-0.004 -0.007,0.012 z" /><path
         id="path8959"
         style="fill:#ffffff;fill-opacity:1;fill-rule:evenodd;stroke:none"
         d="m 223.313,332.437 10.011,0 0,-295.449 -10.039,-0.023 0.028,295.472 z" /></g></g></svg>