<?xml version="1.0" encoding="UTF-8" standalone="no"?>
<svg
   xmlns:dc="http://purl.org/dc/elements/1.1/"
   xmlns:cc="http://creativecommons.org/ns#"
   xmlns:rdf="http://www.w3.org/1999/02/22-rdf-syntax-ns#"
   xmlns:svg="http://www.w3.org/2000/svg"
   xmlns="http://www.w3.org/2000/svg"
   xmlns:sodipodi="http://sodipodi.sourceforge.net/DTD/sodipodi-0.dtd"
   xmlns:inkscape="http://www.inkscape.org/namespaces/inkscape"
   viewBox="0 0 1259.1364 830.88373"
   height="830.88373"
   width="1259.1364"
   xml:space="preserve"
   version="1.1"
   id="svg3969"
   sodipodi:docname="DE_201-52.svg"
   inkscape:version="1.0.1 (3bc2e813f5, 2020-09-07)"><sodipodi:namedview
     pagecolor="#ffffff"
     bordercolor="#666666"
     borderopacity="1"
     objecttolerance="10"
     gridtolerance="10"
     guidetolerance="10"
     inkscape:pageopacity="0"
     inkscape:pageshadow="2"
     inkscape:window-width="1920"
     inkscape:window-height="1027"
     id="namedview3351"
     showgrid="false"
     inkscape:zoom="0.85931917"
     inkscape:cx="629.56818"
     inkscape:cy="415.44186"
     inkscape:window-x="-8"
     inkscape:window-y="-8"
     inkscape:window-maximized="1"
     inkscape:current-layer="svg3969" /><metadata
     id="metadata3975"><rdf:RDF><cc:Work
         rdf:about=""><dc:format>image/svg+xml</dc:format><dc:type
           rdf:resource="http://purl.org/dc/dcmitype/StillImage" /><dc:title /></cc:Work></rdf:RDF></metadata><defs
     id="defs3973" /><path
     id="path3981"
     style="fill:#000000;fill-opacity:1;fill-rule:evenodd;stroke:none;stroke-width:1.25"
     d="M 1001.5337,304.51121 911.53375,148.62246 629.43375,311.49371 347.5,148.72496 l -90,155.885 191.93375,110.81 -190.5425,110.01 90,155.88375 280.5425,-161.9675 280.7075,162.065 90.00005,-155.88375 -190.70755,-110.1075 z" /><path
     id="path3983"
     style="fill:#ffffff;fill-opacity:1;fill-rule:evenodd;stroke:none;stroke-width:1.25"
     d="M 1006.255,300.22996 917.7,146.84121 629.51125,313.22246 l -293.315,-169.34125 -88.56,153.385 204.76625,118.2175 -203.39375,117.42625 88.555,153.38875 291.9475,-168.555 290.3575,167.6325 88.55375,-153.38875 -201.79125,-116.50375 z" /><path
     id="path3985"
     style="fill:#c1121c;fill-opacity:1;fill-rule:evenodd;stroke:none;stroke-width:1.25"
     d="m 0,674.89746 90,155.88875 259.81,-150 -90.3475,-155.68875 z" /><path
     id="path3987"
     style="fill:#c1121c;fill-opacity:1;fill-rule:evenodd;stroke:none;stroke-width:1.25"
     d="m 259.7075,305.88371 90,-155.88375 -259.805,-150 -89.65875,156.08375 z" /><path
     id="path3989"
     style="fill:#c1121c;fill-opacity:1;fill-rule:evenodd;stroke:none;stroke-width:1.25"
     d="m 909.32625,149.89746 90,155.88875 259.81005,-150 -90.3476,-155.68875 z" /><path
     id="path3991"
     style="fill:#c1121c;fill-opacity:1;fill-rule:evenodd;stroke:none;stroke-width:1.25"
     d="m 1169.0338,830.88371 90,-155.88375 -259.80505,-150 L 909.57,681.08371 Z" /></svg>
