<?xml version="1.0" encoding="UTF-8" standalone="no"?>
<svg
   xmlns:dc="http://purl.org/dc/elements/1.1/"
   xmlns:cc="http://creativecommons.org/ns#"
   xmlns:rdf="http://www.w3.org/1999/02/22-rdf-syntax-ns#"
   xmlns:svg="http://www.w3.org/2000/svg"
   xmlns="http://www.w3.org/2000/svg"
   xmlns:sodipodi="http://sodipodi.sourceforge.net/DTD/sodipodi-0.dtd"
   xmlns:inkscape="http://www.inkscape.org/namespaces/inkscape"
   viewBox="0 0 969.62891 969.60516"
   height="969.60516"
   width="969.62891"
   xml:space="preserve"
   version="1.1"
   id="svg3724"
   inkscape:version="0.91 r13725"
   sodipodi:docname="Zeichen_223.1-51_-_Seitenstreifen_befahrbar,  3 Fahrstreifen u. Seitenstreifen,_StVO_2017.svg"><sodipodi:namedview
     pagecolor="#ffffff"
     bordercolor="#666666"
     borderopacity="1"
     objecttolerance="10"
     gridtolerance="10"
     guidetolerance="10"
     inkscape:pageopacity="0"
     inkscape:pageshadow="2"
     inkscape:window-width="649"
     inkscape:window-height="660"
     id="namedview9905"
     showgrid="false"
     inkscape:zoom="0.24339804"
     inkscape:cx="484.81445"
     inkscape:cy="484.80258"
     inkscape:window-x="6"
     inkscape:window-y="14"
     inkscape:window-maximized="0"
     inkscape:current-layer="svg3724" /><metadata
     id="metadata3730"><rdf:RDF><cc:Work
         rdf:about=""><dc:format>image/svg+xml</dc:format><dc:type
           rdf:resource="http://purl.org/dc/dcmitype/StillImage" /><dc:title></dc:title></cc:Work></rdf:RDF></metadata><defs
     id="defs3728" /><g
     transform="matrix(1.25,0,0,-1.25,0,969.60518)"
     id="g3732"><g
       id="g3734"><path
         id="path3736"
         style="fill:#ffffff;fill-opacity:1;fill-rule:evenodd;stroke:none"
         d="m 20.699,0.001 -0.156,0 c -1.797,0 -3.574,0.234 -5.316,0.722 C 13.488,1.172 11.848,1.879 10.301,2.774 8.758,3.676 7.332,4.77 6.059,6.04 4.789,7.313 3.695,8.739 2.816,10.301 1.898,11.825 1.211,13.508 0.742,15.227 0.254,16.946 -0.02,18.747 0,20.524 l 0,734.633 c 0.016,1.801 0.254,3.597 0.742,5.316 0.453,1.723 1.156,3.383 2.074,4.926 0.879,1.543 1.973,2.973 3.243,4.242 1.273,1.27 2.699,2.367 4.242,3.246 1.543,0.918 3.207,1.621 4.926,2.071 1.742,0.488 3.519,0.761 5.316,0.722 l 734.633,0 c 1.781,0 3.578,-0.215 5.301,-0.722 1.738,-0.45 3.398,-1.153 4.945,-2.071 1.543,-0.879 2.969,-1.976 4.219,-3.246 1.293,-1.269 2.386,-2.695 3.265,-4.242 0.899,-1.543 1.602,-3.203 2.071,-4.926 0.488,-1.719 0.746,-3.515 0.726,-5.316 l 0,-734.633 c 0,-1.777 -0.234,-3.578 -0.726,-5.297 -0.45,-1.738 -1.153,-3.402 -2.071,-4.926 -0.879,-1.562 -1.972,-2.992 -3.265,-4.261 -1.25,-1.27 -2.676,-2.364 -4.219,-3.266 -1.547,-0.875 -3.207,-1.582 -4.945,-2.051 -1.723,-0.488 -3.52,-0.742 -5.301,-0.722 l -734.477,0" /><path
         id="path3738"
         style="fill:#0c0b09;fill-opacity:1;fill-rule:evenodd;stroke:none"
         d="m 20.699,1.938 734.461,0 c 1.625,0 3.246,0.211 4.809,0.664 1.586,0.391 3.07,1.035 4.457,1.875 1.41,0.801 2.719,1.797 3.851,2.953 1.157,1.133 2.153,2.422 2.953,3.848 0.821,1.391 1.465,2.894 1.875,4.457 0.45,1.566 0.684,3.187 0.665,4.809 l 0,734.617 c 0,1.605 -0.215,3.246 -0.665,4.808 -0.39,1.567 -1.035,3.051 -1.875,4.457 -0.8,1.407 -1.8,2.7 -2.953,3.832 -1.132,1.172 -2.441,2.149 -3.851,2.973 -1.387,0.82 -2.871,1.445 -4.457,1.875 -1.582,0.43 -3.184,0.664 -4.809,0.645 l -734.617,0 c -1.602,0 -3.242,-0.215 -4.789,-0.645 -1.582,-0.41 -3.086,-1.055 -4.477,-1.875 -1.406,-0.824 -2.695,-1.801 -3.847,-2.973 -1.153,-1.132 -2.153,-2.425 -2.953,-3.832 -0.821,-1.406 -1.446,-2.89 -1.875,-4.457 -0.43,-1.582 -0.664,-3.203 -0.664,-4.808 l 0,-734.617 C 1.953,18.922 2.172,17.301 2.602,15.735 3.031,14.153 3.656,12.669 4.477,11.278 5.297,9.852 6.273,8.563 7.43,7.43 8.582,6.274 9.871,5.278 11.277,4.477 12.668,3.637 14.172,3.012 15.754,2.602 17.297,2.153 18.941,1.919 20.543,1.938 l 0.156,0 z m 0,-1.937 -0.156,0 c -1.797,0 -3.574,0.234 -5.316,0.722 C 13.488,1.172 11.848,1.879 10.301,2.774 8.758,3.676 7.332,4.77 6.059,6.04 4.789,7.313 3.695,8.739 2.816,10.301 1.898,11.825 1.211,13.508 0.742,15.227 0.254,16.946 -0.02,18.747 0,20.524 l 0,734.633 c 0.016,1.801 0.254,3.597 0.742,5.316 0.453,1.723 1.156,3.383 2.074,4.926 0.879,1.543 1.973,2.973 3.243,4.242 1.273,1.27 2.699,2.367 4.242,3.246 1.543,0.918 3.207,1.621 4.926,2.071 1.742,0.488 3.519,0.761 5.316,0.722 l 734.633,0 c 1.781,0 3.578,-0.215 5.301,-0.722 1.738,-0.45 3.398,-1.153 4.945,-2.071 1.543,-0.879 2.969,-1.976 4.219,-3.246 1.293,-1.269 2.386,-2.695 3.265,-4.242 0.899,-1.543 1.602,-3.203 2.071,-4.926 0.488,-1.719 0.746,-3.515 0.726,-5.316 l 0,-734.633 c 0,-1.777 -0.234,-3.578 -0.726,-5.297 -0.45,-1.738 -1.153,-3.402 -2.071,-4.926 -0.879,-1.562 -1.972,-2.992 -3.265,-4.261 -1.25,-1.27 -2.676,-2.364 -4.219,-3.266 -1.547,-0.875 -3.207,-1.582 -4.945,-2.051 -1.723,-0.488 -3.52,-0.742 -5.301,-0.722 l -734.477,0" /><path
         id="path3740"
         style="fill:#154889;fill-opacity:1;fill-rule:evenodd;stroke:none"
         d="m 20.68,13.782 -0.032,0 c -0.605,0 -1.191,0.078 -1.777,0.234 -0.566,0.156 -1.133,0.391 -1.641,0.703 -0.507,0.293 -0.98,0.645 -1.41,1.075 -0.41,0.429 -0.8,0.898 -1.093,1.429 -0.293,0.508 -0.528,1.055 -0.665,1.641 -0.175,0.566 -0.253,1.172 -0.253,1.758 l 0,734.433 c 0,0.606 0.078,1.192 0.253,1.781 0.141,0.567 0.372,1.114 0.665,1.622 0.312,0.527 0.683,0.996 1.093,1.429 0.43,0.41 0.903,0.797 1.41,1.094 0.508,0.293 1.075,0.527 1.641,0.684 0.586,0.156 1.172,0.254 1.777,0.234 l 734.442,0 c 0.59,0 1.195,-0.078 1.762,-0.234 0.586,-0.157 1.132,-0.391 1.621,-0.684 0.547,-0.297 1.015,-0.684 1.429,-1.094 0.43,-0.433 0.801,-0.902 1.094,-1.429 0.313,-0.508 0.527,-1.055 0.703,-1.622 0.156,-0.585 0.235,-1.175 0.235,-1.781 l 0,-734.433 c 0,-0.586 -0.079,-1.192 -0.235,-1.758 -0.176,-0.586 -0.39,-1.133 -0.703,-1.641 -0.293,-0.531 -0.664,-1 -1.094,-1.429 -0.414,-0.43 -0.882,-0.782 -1.429,-1.075 -0.489,-0.312 -1.055,-0.527 -1.621,-0.703 -0.567,-0.156 -1.172,-0.254 -1.762,-0.234 l -734.402,0" /><path
         id="path3742"
         style="fill:#ffffff;fill-opacity:1;fill-rule:evenodd;stroke:none"
         d="m 110.602,595.942 -24.883,-6.434 c -0.11,-0.015 -0.211,-0.031 -0.332,-0.062 -0.11,-0.016 -0.215,-0.063 -0.332,-0.063 -0.196,-0.047 -0.391,-0.062 -0.606,-0.062 -0.215,-0.016 -0.429,-0.016 -0.644,0 -0.215,0 -0.43,0.015 -0.645,0.062 -0.527,0.078 -1.035,0.215 -1.523,0.411 -0.625,0.257 -1.211,0.609 -1.758,1.054 -0.512,0.434 -0.961,0.942 -1.332,1.508 -0.313,0.469 -0.527,0.957 -0.703,1.484 -0.235,0.684 -0.352,1.387 -0.352,2.09 0,0.313 0.016,0.625 0.078,0.938 0.032,0.254 0.078,0.511 0.157,0.761 0.062,0.258 0.14,0.489 0.234,0.747 0.078,0.195 0.176,0.39 0.273,0.562 0.11,0.238 0.254,0.453 0.391,0.668 l 48.516,72.457 48.535,-72.457 c 0.015,-0.016 0.031,-0.062 0.062,-0.094 0.141,-0.215 0.289,-0.468 0.391,-0.707 0.141,-0.234 0.215,-0.484 0.312,-0.719 0.079,-0.257 0.157,-0.488 0.215,-0.746 0.047,-0.211 0.078,-0.41 0.094,-0.625 0.016,-0.254 0.062,-0.507 0.062,-0.781 0,-0.84 -0.179,-1.699 -0.507,-2.48 -0.239,-0.629 -0.59,-1.235 -1.035,-1.762 -0.434,-0.508 -0.942,-0.957 -1.508,-1.328 -0.469,-0.313 -0.957,-0.547 -1.504,-0.703 -0.547,-0.196 -1.153,-0.313 -1.758,-0.332 -0.141,-0.016 -0.316,-0.016 -0.473,0 -0.195,0 -0.39,0 -0.586,0.015 -0.195,0.047 -0.39,0.078 -0.586,0.125 -0.125,0.016 -0.234,0.032 -0.332,0.063 l -24.824,6.41 0,-492.727 -33.094,0 0,492.727" /><path
         id="path3744"
         style="fill:#ffffff;fill-opacity:1;fill-rule:evenodd;stroke:none"
         d="m 246.973,596.044 -24.864,-6.434 c -0.125,-0.016 -0.234,-0.031 -0.351,-0.063 -0.094,-0.015 -0.196,-0.062 -0.332,-0.062 -0.196,-0.047 -0.371,-0.063 -0.586,-0.063 -0.215,-0.015 -0.449,-0.015 -0.664,0 -0.215,0 -0.43,0.016 -0.649,0.063 -0.507,0.078 -1.015,0.215 -1.504,0.414 -0.644,0.25 -1.23,0.605 -1.757,1.055 -0.528,0.429 -0.957,0.937 -1.328,1.504 -0.313,0.468 -0.547,0.957 -0.727,1.484 -0.211,0.687 -0.352,1.391 -0.328,2.094 0,0.312 0.012,0.625 0.062,0.937 0.063,0.254 0.094,0.508 0.176,0.762 0.031,0.254 0.141,0.488 0.234,0.742 0.063,0.195 0.157,0.391 0.254,0.567 0.11,0.234 0.274,0.449 0.391,0.664 l 48.535,72.457 48.531,-72.457 c 0.016,-0.016 0.032,-0.063 0.063,-0.094 0.141,-0.215 0.277,-0.469 0.394,-0.703 0.141,-0.235 0.211,-0.489 0.289,-0.723 0.094,-0.254 0.176,-0.488 0.219,-0.742 0.031,-0.215 0.078,-0.414 0.094,-0.625 0.031,-0.258 0.063,-0.508 0.063,-0.785 0,-0.84 -0.157,-1.7 -0.489,-2.481 -0.254,-0.625 -0.605,-1.23 -1.054,-1.758 -0.434,-0.507 -0.942,-0.957 -1.508,-1.332 -0.449,-0.312 -0.957,-0.546 -1.485,-0.703 -0.547,-0.195 -1.152,-0.312 -1.757,-0.332 -0.157,-0.015 -0.313,-0.015 -0.489,0 -0.195,0 -0.371,0 -0.566,0.016 -0.215,0.047 -0.41,0.078 -0.606,0.125 -0.093,0.015 -0.214,0.031 -0.312,0.062 l -24.824,6.411 0,-492.727 -33.114,0 0,492.727" /><path
         id="path3746"
         style="fill:#ffffff;fill-opacity:1;fill-rule:evenodd;stroke:none"
         d="m 383.375,596.137 -24.863,-6.433 c -0.141,-0.012 -0.235,-0.032 -0.352,-0.063 -0.125,-0.015 -0.219,-0.062 -0.336,-0.062 -0.195,-0.032 -0.39,-0.063 -0.586,-0.063 -0.234,-0.015 -0.449,-0.015 -0.683,0 -0.215,0 -0.41,0.016 -0.625,0.063 -0.528,0.078 -1.035,0.218 -1.528,0.414 -0.625,0.254 -1.23,0.605 -1.738,1.054 -0.527,0.43 -0.996,0.938 -1.348,1.504 -0.293,0.473 -0.546,0.957 -0.703,1.489 -0.234,0.683 -0.351,1.386 -0.351,2.089 0,0.313 0.047,0.625 0.078,0.938 0.031,0.258 0.094,0.508 0.156,0.766 0.063,0.253 0.141,0.488 0.234,0.742 0.079,0.195 0.157,0.39 0.254,0.566 0.141,0.235 0.274,0.449 0.411,0.664 l 48.535,72.457 48.515,-72.457 c 0.016,-0.015 0.032,-0.062 0.063,-0.094 0.156,-0.214 0.293,-0.468 0.41,-0.703 0.109,-0.234 0.215,-0.488 0.293,-0.722 0.094,-0.254 0.156,-0.489 0.215,-0.742 0.031,-0.219 0.078,-0.415 0.094,-0.625 0.015,-0.254 0.031,-0.512 0.031,-0.786 0.015,-0.839 -0.141,-1.699 -0.469,-2.48 -0.254,-0.625 -0.605,-1.234 -1.055,-1.758 -0.429,-0.512 -0.937,-0.957 -1.523,-1.332 -0.453,-0.312 -0.942,-0.547 -1.465,-0.703 -0.566,-0.195 -1.176,-0.313 -1.781,-0.332 -0.141,-0.016 -0.313,-0.016 -0.469,0 -0.195,0 -0.391,0 -0.586,0.016 -0.195,0.046 -0.391,0.078 -0.586,0.125 -0.109,0.015 -0.215,0.031 -0.332,0.062 l -24.824,6.41 0,-492.726 -33.094,0 0,492.726" /><path
         id="path3748"
         style="fill:#ffffff;fill-opacity:1;fill-rule:evenodd;stroke:none"
         d="m 627.594,596.286 -24.883,-6.434 c -0.094,-0.016 -0.215,-0.047 -0.332,-0.062 -0.109,-0.016 -0.215,-0.063 -0.332,-0.063 -0.195,-0.047 -0.391,-0.062 -0.586,-0.062 -0.234,-0.016 -0.449,-0.016 -0.664,0 -0.235,0 -0.43,0.015 -0.645,0.062 -0.507,0.078 -1.035,0.215 -1.527,0.41 -0.625,0.258 -1.211,0.606 -1.738,1.059 -0.528,0.43 -0.977,0.937 -1.348,1.504 -0.293,0.469 -0.527,0.957 -0.703,1.484 -0.238,0.684 -0.356,1.391 -0.336,2.094 0,0.312 0.016,0.625 0.062,0.937 0.032,0.254 0.094,0.508 0.157,0.762 0.062,0.254 0.14,0.488 0.254,0.742 0.062,0.196 0.156,0.391 0.254,0.567 0.125,0.234 0.253,0.449 0.39,0.664 l 48.535,72.457 48.512,-72.457 c 0.016,-0.016 0.031,-0.063 0.063,-0.094 0.156,-0.215 0.293,-0.469 0.414,-0.703 0.109,-0.234 0.214,-0.488 0.293,-0.723 0.078,-0.258 0.156,-0.488 0.214,-0.742 0.032,-0.215 0.079,-0.414 0.094,-0.629 0.016,-0.254 0.063,-0.508 0.031,-0.781 0.016,-0.84 -0.14,-1.699 -0.488,-2.481 -0.234,-0.625 -0.586,-1.234 -1.035,-1.761 -0.43,-0.508 -0.938,-0.957 -1.523,-1.328 -0.454,-0.313 -0.942,-0.547 -1.465,-0.704 -0.567,-0.195 -1.176,-0.312 -1.782,-0.332 -0.14,-0.015 -0.312,-0.015 -0.468,0 -0.196,0 -0.391,0 -0.586,0.016 -0.196,0.047 -0.391,0.078 -0.606,0.125 -0.093,0.016 -0.195,0.047 -0.312,0.063 l -24.824,6.41 0,-492.727 -33.094,0 0,492.727" /><path
         id="path3750"
         style="fill:#ffffff;fill-opacity:1;fill-rule:nonzero;stroke:none"
         d="m 509.438,698.188 20.707,0 0,-620.539 -20.707,0 0,620.539 z" /></g></g></svg>