<?xml version="1.0" encoding="UTF-8" standalone="no"?>
<svg
   xmlns:dc="http://purl.org/dc/elements/1.1/"
   xmlns:cc="http://creativecommons.org/ns#"
   xmlns:rdf="http://www.w3.org/1999/02/22-rdf-syntax-ns#"
   xmlns:svg="http://www.w3.org/2000/svg"
   xmlns="http://www.w3.org/2000/svg"
   viewBox="0 0 870.65424 850.15424"
   height="850.15424"
   width="870.65424"
   xml:space="preserve"
   id="svg4844"
   version="1.1"><metadata
     id="metadata4850"><rdf:RDF><cc:Work
         rdf:about=""><dc:format>image/svg+xml</dc:format><dc:type
           rdf:resource="http://purl.org/dc/dcmitype/StillImage" /><dc:title></dc:title></cc:Work></rdf:RDF></metadata><defs
     id="defs4848" /><g
     transform="matrix(1.3333333,0,0,-1.3333333,0,850.15422)"
     id="g4852"><g
       id="g4854"><path
         id="path4856"
         style="fill:#ffffff;fill-opacity:1;fill-rule:nonzero;stroke:none"
         d="M 29.805,0.627 C 13.688,0.627 0.641,13.706 0.641,29.819 v 577.976 c 0,16.114 13.047,29.176 29.164,29.176 h 593.383 c 16.113,0 29.175,-13.062 29.175,-29.176 V 29.819 c 0,-16.113 -13.062,-29.192 -29.175,-29.192" /><path
         id="path4858"
         style="fill:#000000;fill-opacity:1;fill-rule:nonzero;stroke:none"
         d="M 29.805,637.616 C 13.367,637.616 0,624.233 0,607.795 V 29.823 C 0,13.37 13.367,-0.002 29.805,-0.002 h 593.383 c 16.437,0 29.804,13.372 29.804,29.825 v 577.972 c 0,16.438 -13.367,29.821 -29.804,29.821 z m 0,-0.645 h 593.383 c 16.113,0 29.175,-13.058 29.175,-29.176 V 29.823 c 0,-16.117 -13.062,-29.196 -29.175,-29.196 H 29.805 c -16.117,0 -29.16,13.079 -29.16,29.196 v 577.972 c 0,16.118 13.043,29.176 29.16,29.176 z" /><path
         id="path4860"
         style="fill:#000000;fill-opacity:1;fill-rule:nonzero;stroke:none"
         d="m 29.805,629.678 c -12.082,0 -21.883,-9.785 -21.883,-21.883 V 29.823 C 7.922,17.741 17.723,7.92 29.805,7.92 h 593.383 c 12.082,0 21.882,9.821 21.882,21.903 v 577.972 c 0,12.098 -9.8,21.883 -21.882,21.883 z m 0,-10.941 h 593.383 c 6.039,0 10.941,-4.899 10.941,-10.942 V 29.823 c 0,-6.043 -4.902,-10.946 -10.941,-10.946 H 29.805 c -6.028,0 -10.942,4.903 -10.942,10.946 v 577.972 c 0,6.043 4.914,10.942 10.942,10.942 z" /><path
         id="path4862"
         style="fill:#000000;fill-opacity:1;fill-rule:nonzero;stroke:none"
         d="m 227.168,106.315 127.172,122.012 -34.77,21.207 c -2.297,1.398 -3.019,4.386 -1.621,6.687 0.707,1.156 1.864,1.957 3.196,2.231 l 98.859,19.777 c 2.637,0.531 5.207,-1.188 5.723,-3.82 0.144,-0.629 0.144,-1.27 0,-1.899 l -19.766,-98.875 c -0.527,-2.633 -3.098,-4.355 -5.719,-3.824 -1.332,0.273 -2.488,1.094 -3.195,2.25 L 375.836,206.846 253.824,79.659" /><path
         id="path4864"
         style="fill:#000000;fill-opacity:1;fill-rule:nonzero;stroke:none"
         d="m 91.805,339.108 v 85.105 h 54.711 v -12.16 h -41.778 v -24.308 h 35.719 V 376.35 h -35.719 v -25.078 h 41.778 v -12.164" /><path
         id="path4866"
         style="fill:#000000;fill-opacity:1;fill-rule:nonzero;stroke:none"
         d="m 160.203,339.108 v 60.797 h 12.164 v -6.86 c 7.117,8.805 20.035,10.172 28.84,3.051 4.836,-3.887 7.629,-9.75 7.629,-15.953 v -41.035 h -12.16 v 37.242 c 0,6.719 -5.449,12.148 -12.164,12.148 -6.715,0 -12.145,-5.429 -12.145,-12.148 v -37.242" /><path
         id="path4868"
         style="fill:#000000;fill-opacity:1;fill-rule:nonzero;stroke:none"
         d="m 262.035,362.678 v 13.672 c 0,6.719 -5.445,12.148 -12.164,12.148 -6.715,0 -12.16,-5.429 -12.16,-12.148 v -13.672 c 0,-6.715 5.445,-12.164 12.16,-12.164 6.719,0 12.164,5.449 12.164,12.164 z m 12.145,-23.57 h -12.145 v 6.859 c -7.133,-8.804 -20.051,-10.168 -28.855,-3.051 -4.821,3.903 -7.633,9.754 -7.633,15.954 v 21.273 c 0,11.328 9.191,20.52 20.535,20.52 6.184,0 12.047,-2.797 15.953,-7.618 v 31.168 h 12.145" /><path
         id="path4870"
         style="fill:#000000;fill-opacity:1;fill-rule:nonzero;stroke:none"
         d="m 303.055,375.581 h 25.836 c 0,7.148 -5.786,12.917 -12.918,12.917 -7.133,0 -12.918,-5.769 -12.918,-12.917 z m 38.011,-10.637 h -38.011 v -1.512 c 0,-5.285 3.211,-10.039 8.129,-12 6.75,-2.699 14.492,-0.805 19.214,4.723 l 9.223,-7.922 c -8.129,-9.477 -21.367,-12.723 -32.953,-8.098 -9.527,3.824 -15.762,13.047 -15.762,23.297 v 12.149 c 0,13.867 11.215,25.082 25.067,25.082 13.847,0 25.093,-11.215 25.093,-25.082" /><path
         id="path4872"
         style="fill:#000000;fill-opacity:1;fill-rule:nonzero;stroke:none"
         d="m 357.777,339.108 v 60.797 h 12.149 v -6.86 c 7.133,8.805 20.051,10.172 28.855,3.051 4.821,-3.887 7.614,-9.75 7.614,-15.953 V 339.108 H 394.25 v 37.242 c 0,6.719 -5.445,12.148 -12.164,12.148 -6.715,0 -12.16,-5.429 -12.16,-12.148 v -37.242" /><path
         id="path4874"
         style="fill:#000000;fill-opacity:1;fill-rule:nonzero;stroke:none"
         d="m 436.793,412.053 h -12.16 v 12.16 h 12.16 z m -12.16,-72.945 v 60.797 h 12.16 v -60.797" /><path
         id="path4876"
         style="fill:#000000;fill-opacity:1;fill-rule:nonzero;stroke:none"
         d="m 500.402,348.233 c -9.656,-11.633 -26.91,-13.223 -38.527,-3.567 -6.266,5.192 -9.883,12.903 -9.883,21.047 v 7.586 c 0,15.117 12.246,27.364 27.348,27.364 8.144,0 15.859,-3.618 21.062,-9.868 l -9.367,-7.777 c -5.347,6.461 -14.941,7.344 -21.398,1.977 -3.473,-2.891 -5.481,-7.164 -5.481,-11.696 v -7.586 c 0,-8.402 6.797,-15.199 15.184,-15.199 4.531,0 8.805,2.012 11.695,5.481" /><path
         id="path4878"
         style="fill:#000000;fill-opacity:1;fill-rule:nonzero;stroke:none"
         d="m 512.551,339.108 v 85.105 h 12.16 v -31.168 c 7.121,8.805 20.039,10.172 28.844,3.051 4.816,-3.887 7.629,-9.75 7.629,-15.953 v -41.035 h -12.161 v 37.242 c 0,6.719 -5.449,12.148 -12.164,12.148 -6.699,0 -12.148,-5.429 -12.148,-12.148 v -37.242" /><path
         id="path4880"
         style="fill:#000000;fill-opacity:1;fill-rule:nonzero;stroke:none"
         d="m 118.633,473.545 v 84.411 h 29.547 c 11.547,0 20.121,-4.731 25.722,-14.192 2.086,-3.594 3.36,-6.953 3.825,-10.082 0.461,-3.129 0.695,-9.117 0.695,-17.961 0,-9.5 -0.328,-15.855 -0.984,-19.058 -0.622,-3.168 -1.875,-6.219 -3.766,-9.157 -2.512,-3.937 -5.969,-7.261 -10.371,-9.965 -4.367,-2.664 -9.676,-3.996 -15.934,-3.996 z m 12.801,72.301 v -60.25 h 15.355 c 7.027,0 12.242,2.453 15.641,7.356 1.39,2.125 2.261,4.406 2.609,6.839 0.387,2.469 0.578,7.625 0.578,15.469 0,7.567 -0.211,12.801 -0.637,15.699 -0.386,2.895 -1.429,5.504 -3.128,7.821 -3.516,4.711 -8.536,7.066 -15.063,7.066 z" /><path
         id="path4882"
         style="fill:#000000;fill-opacity:1;fill-rule:nonzero;stroke:none"
         d="m 192.441,493.706 v 39.976 h 12.11 v -35.863 c 0,-4.094 1.117,-7.281 3.359,-9.559 2.278,-2.238 5.156,-3.359 8.633,-3.359 3.359,0 6.16,1.121 8.398,3.359 2.282,2.278 3.418,5.465 3.418,9.559 v 35.863 h 12.11 v -60.137 h -12.11 v 6.371 h -0.23 c -3.746,-4.71 -8.922,-7.066 -15.527,-7.066 -4.75,0 -9.309,1.758 -13.672,5.273 -4.325,3.551 -6.489,8.747 -6.489,15.583 z" /><path
         id="path4884"
         style="fill:#000000;fill-opacity:1;fill-rule:nonzero;stroke:none"
         d="m 256.285,473.545 v 60.137 h 12.11 v -60.137 z m 0,72.301 v 12.11 h 12.11 v -12.11 z" /><path
         id="path4886"
         style="fill:#000000;fill-opacity:1;fill-rule:nonzero;stroke:none"
         d="m 277.777,483.569 8.461,8.34 c 5.25,-5.137 11.567,-7.703 18.946,-7.703 3.437,0 6.273,0.636 8.515,1.91 2.239,1.316 3.36,3.246 3.36,5.793 0,3.515 -2.454,5.488 -7.36,5.91 l -10.66,0.984 c -4.98,0.387 -9.113,2.031 -12.394,4.926 -3.286,2.898 -4.926,6.934 -4.926,12.109 0,6.102 2.144,10.719 6.429,13.848 4.29,3.125 9.618,4.691 15.993,4.691 5.25,0 9.75,-0.754 13.496,-2.261 3.746,-1.465 7.109,-3.438 10.082,-5.907 l -7.473,-8.808 c -2.394,1.625 -4.867,2.957 -7.418,4 -2.547,1.043 -5.445,1.562 -8.687,1.562 -3.864,0 -6.547,-0.695 -8.055,-2.086 -1.508,-1.351 -2.258,-3.07 -2.258,-5.156 0,-1.312 0.559,-2.527 1.68,-3.648 1.117,-1.121 3.203,-1.797 6.258,-2.028 l 9.964,-0.695 c 6.215,-0.426 10.676,-2.355 13.383,-5.793 2.703,-3.402 4.055,-7.476 4.055,-12.226 0,-5.911 -2.414,-10.465 -7.242,-13.672 -4.828,-3.207 -10.719,-4.809 -17.672,-4.809 -10.004,0 -18.828,3.574 -26.477,10.719 z" /><path
         id="path4888"
         style="fill:#000000;fill-opacity:1;fill-rule:nonzero;stroke:none"
         d="m 377.367,473.545 v 6.258 c -4.207,-4.637 -9.383,-6.953 -15.523,-6.953 -3.711,0 -6.895,0.715 -9.563,2.145 -2.664,1.464 -4.843,3.339 -6.543,5.617 -1.703,2.125 -2.84,4.636 -3.422,7.531 -0.578,2.938 -0.867,8.113 -0.867,15.527 0,7.34 0.289,12.438 0.867,15.297 0.582,2.895 1.719,5.426 3.422,7.59 1.7,2.238 3.879,4.094 6.543,5.559 2.668,1.507 5.852,2.261 9.563,2.261 3.09,0 5.886,-0.656 8.398,-1.968 2.512,-1.317 4.887,-3.036 7.125,-5.157 v 30.704 h 12.11 v -84.411 z m -11.816,48.723 c -5.719,0 -9.156,-1.949 -10.313,-5.852 -1.121,-3.902 -1.679,-8.148 -1.679,-12.746 0,-4.711 0.558,-9.015 1.679,-12.918 1.157,-3.902 4.594,-5.851 10.313,-5.851 5.601,0 8.961,2.027 10.078,6.082 1.16,4.055 1.738,8.285 1.738,12.687 0,4.289 -0.578,8.461 -1.738,12.516 -1.117,4.055 -4.477,6.082 -10.078,6.082 z" /><path
         id="path4890"
         style="fill:#000000;fill-opacity:1;fill-rule:nonzero;stroke:none"
         d="m 399.906,503.67 c 0,6.45 0.5,11.258 1.504,14.426 1.004,3.168 2.668,6.027 4.985,8.574 1.66,1.817 3.937,3.555 6.835,5.215 2.934,1.66 6.758,2.492 11.473,2.492 4.633,0 8.418,-0.832 11.356,-2.492 2.933,-1.66 5.23,-3.398 6.89,-5.215 2.321,-2.547 3.981,-5.406 4.985,-8.574 1.004,-3.168 1.507,-7.976 1.507,-14.426 0,-6.566 -0.503,-11.429 -1.507,-14.597 -1.004,-3.168 -2.664,-6.028 -4.985,-8.575 -1.66,-1.855 -3.957,-3.593 -6.89,-5.214 -2.938,-1.621 -6.723,-2.434 -11.356,-2.434 -4.715,0 -8.539,0.813 -11.473,2.434 -2.898,1.621 -5.175,3.359 -6.835,5.214 -2.317,2.547 -3.981,5.407 -4.985,8.575 -1.004,3.168 -1.504,8.031 -1.504,14.597 z m 37.485,-0.113 c 0,4.363 -0.235,7.434 -0.696,9.211 -0.425,1.777 -1.179,3.477 -2.261,5.098 -2.125,2.933 -5.368,4.402 -9.731,4.402 -4.441,0 -7.687,-1.469 -9.734,-4.402 -1.16,-1.621 -1.949,-3.321 -2.375,-5.098 -0.387,-1.777 -0.578,-4.809 -0.578,-9.098 0,-4.402 0.191,-7.511 0.578,-9.328 0.426,-1.773 1.215,-3.457 2.375,-5.039 2.047,-2.933 5.293,-4.402 9.734,-4.402 4.363,0 7.606,1.469 9.731,4.402 1.082,1.582 1.836,3.266 2.261,5.039 0.461,1.778 0.696,4.848 0.696,9.215 z" /><path
         id="path4892"
         style="fill:#000000;fill-opacity:1;fill-rule:nonzero;stroke:none"
         d="m 462.184,473.545 v 60.137 h 12.109 v -6.43 h 0.234 c 3.746,4.75 8.957,7.125 15.641,7.125 4.402,0 8.594,-1.546 12.57,-4.636 l -8.746,-10.426 c -2.629,1.969 -5.293,2.953 -7.996,2.953 -2.973,0 -5.676,-1.004 -8.109,-3.012 -2.395,-1.968 -3.594,-5.156 -3.594,-9.558 v -36.153 z" /><path
         id="path4894"
         style="fill:#000000;fill-opacity:1;fill-rule:nonzero;stroke:none"
         d="m 510.215,473.545 v 50.868 h -6.086 v 9.269 h 6.086 v 7.938 c 0,5.597 1.543,9.711 4.633,12.339 3.09,2.664 6.992,3.997 11.703,3.997 h 7.82 V 546.6 h -6.836 c -3.515,0 -5.269,-1.66 -5.269,-4.98 v -7.938 h 12.105 v -9.269 h -12.105 v -50.868 z" /></g></g></svg>