<?xml version="1.0" encoding="UTF-8" standalone="no"?>
<svg
   xmlns:dc="http://purl.org/dc/elements/1.1/"
   xmlns:cc="http://creativecommons.org/ns#"
   xmlns:rdf="http://www.w3.org/1999/02/22-rdf-syntax-ns#"
   xmlns:svg="http://www.w3.org/2000/svg"
   xmlns="http://www.w3.org/2000/svg"
   viewBox="0 0 421.02548 630.72314"
   height="630.72314"
   width="421.02548"
   xml:space="preserve"
   version="1.1"
   id="svg4897"><metadata
     id="metadata4903"><rdf:RDF><cc:Work
         rdf:about=""><dc:format>image/svg+xml</dc:format><dc:type
           rdf:resource="http://purl.org/dc/dcmitype/StillImage" /><dc:title></dc:title></cc:Work></rdf:RDF></metadata><defs
     id="defs4901"><clipPath
       id="clipPath4929"
       clipPathUnits="userSpaceOnUse"><path
         id="path4931"
         d="m 170,395.579 127,0 0,-144 -127,0 0,144 z" /></clipPath><clipPath
       id="clipPath4939"
       clipPathUnits="userSpaceOnUse"><path
         id="path4941"
         d="m 170,252 127,0 0,144 -127,0 0,-144 z" /></clipPath><clipPath
       id="clipPath4949"
       clipPathUnits="userSpaceOnUse"><path
         id="path4951"
         d="m 170,396 127,0 0,-144 -127,0 0,144 z" /></clipPath><clipPath
       id="clipPath4959"
       clipPathUnits="userSpaceOnUse"><path
         id="path4961"
         d="m 170,252 127,0 0,144 -127,0 0,-144 z" /></clipPath><clipPath
       id="clipPath4969"
       clipPathUnits="userSpaceOnUse"><path
         id="path4971"
         d="m 170,396 127,0 0,-144 -127,0 0,144 z" /></clipPath><clipPath
       id="clipPath4979"
       clipPathUnits="userSpaceOnUse"><path
         id="path4981"
         d="m 170,252 127,0 0,144 -127,0 0,-144 z" /></clipPath><clipPath
       id="clipPath4989"
       clipPathUnits="userSpaceOnUse"><path
         id="path4991"
         d="m 170,396 127,0 0,-144 -127,0 0,144 z" /></clipPath><clipPath
       id="clipPath4999"
       clipPathUnits="userSpaceOnUse"><path
         id="path5001"
         d="m 170,252 127,0 0,144 -127,0 0,-144 z" /></clipPath><clipPath
       id="clipPath5009"
       clipPathUnits="userSpaceOnUse"><path
         id="path5011"
         d="m 170,396 127,0 0,-144 -127,0 0,144 z" /></clipPath><clipPath
       id="clipPath5019"
       clipPathUnits="userSpaceOnUse"><path
         id="path5021"
         d="m 170,252 127,0 0,144 -127,0 0,-144 z" /></clipPath><clipPath
       id="clipPath5029"
       clipPathUnits="userSpaceOnUse"><path
         id="path5031"
         d="m 170,396 127,0 0,-144 -127,0 0,144 z" /></clipPath><clipPath
       id="clipPath5039"
       clipPathUnits="userSpaceOnUse"><path
         id="path5041"
         d="m 170,252 127,0 0,144 -127,0 0,-144 z" /></clipPath><clipPath
       id="clipPath5049"
       clipPathUnits="userSpaceOnUse"><path
         id="path5051"
         d="m 170,396 127,0 0,-144 -127,0 0,144 z" /></clipPath><clipPath
       id="clipPath5059"
       clipPathUnits="userSpaceOnUse"><path
         id="path5061"
         d="m 170,252 127,0 0,144 -127,0 0,-144 z" /></clipPath><clipPath
       id="clipPath5069"
       clipPathUnits="userSpaceOnUse"><path
         id="path5071"
         d="m 170,396 127,0 0,-144 -127,0 0,144 z" /></clipPath><clipPath
       id="clipPath5079"
       clipPathUnits="userSpaceOnUse"><path
         id="path5081"
         d="m 170,252 127,0 0,144 -127,0 0,-144 z" /></clipPath><clipPath
       id="clipPath5089"
       clipPathUnits="userSpaceOnUse"><path
         id="path5091"
         d="m 170,396 127,0 0,-144 -127,0 0,144 z" /></clipPath><clipPath
       id="clipPath5099"
       clipPathUnits="userSpaceOnUse"><path
         id="path5101"
         d="m 170,252 127,0 0,144 -127,0 0,-144 z" /></clipPath><clipPath
       id="clipPath5109"
       clipPathUnits="userSpaceOnUse"><path
         id="path5111"
         d="m 170,396 127,0 0,-144 -127,0 0,144 z" /></clipPath><clipPath
       id="clipPath5119"
       clipPathUnits="userSpaceOnUse"><path
         id="path5121"
         d="m 170,252 127,0 0,144 -127,0 0,-144 z" /></clipPath><clipPath
       id="clipPath5129"
       clipPathUnits="userSpaceOnUse"><path
         id="path5131"
         d="m 170,396 127,0 0,-144 -127,0 0,144 z" /></clipPath><clipPath
       id="clipPath5139"
       clipPathUnits="userSpaceOnUse"><path
         id="path5141"
         d="m 170,252 127,0 0,144 -127,0 0,-144 z" /></clipPath><clipPath
       id="clipPath5149"
       clipPathUnits="userSpaceOnUse"><path
         id="path5151"
         d="m 170,396 127,0 0,-144 -127,0 0,144 z" /></clipPath><clipPath
       id="clipPath5159"
       clipPathUnits="userSpaceOnUse"><path
         id="path5161"
         d="m 170,252 127,0 0,144 -127,0 0,-144 z" /></clipPath><clipPath
       id="clipPath5169"
       clipPathUnits="userSpaceOnUse"><path
         id="path5171"
         d="m 170,396 127,0 0,-144 -127,0 0,144 z" /></clipPath><clipPath
       id="clipPath5179"
       clipPathUnits="userSpaceOnUse"><path
         id="path5181"
         d="m 170,252 127,0 0,144 -127,0 0,-144 z" /></clipPath><clipPath
       id="clipPath5189"
       clipPathUnits="userSpaceOnUse"><path
         id="path5191"
         d="m 170,396 127,0 0,-144 -127,0 0,144 z" /></clipPath><clipPath
       id="clipPath5199"
       clipPathUnits="userSpaceOnUse"><path
         id="path5201"
         d="m 170,252 127,0 0,144 -127,0 0,-144 z" /></clipPath><clipPath
       id="clipPath5209"
       clipPathUnits="userSpaceOnUse"><path
         id="path5211"
         d="m 170,396 127,0 0,-144 -127,0 0,144 z" /></clipPath><clipPath
       id="clipPath5219"
       clipPathUnits="userSpaceOnUse"><path
         id="path5221"
         d="m 170,252 127,0 0,144 -127,0 0,-144 z" /></clipPath><clipPath
       id="clipPath5229"
       clipPathUnits="userSpaceOnUse"><path
         id="path5231"
         d="m 170,396 127,0 0,-144 -127,0 0,144 z" /></clipPath><clipPath
       id="clipPath5239"
       clipPathUnits="userSpaceOnUse"><path
         id="path5241"
         d="m 170,252 127,0 0,144 -127,0 0,-144 z" /></clipPath><clipPath
       id="clipPath5249"
       clipPathUnits="userSpaceOnUse"><path
         id="path5251"
         d="m 170,396 127,0 0,-144 -127,0 0,144 z" /></clipPath><clipPath
       id="clipPath5259"
       clipPathUnits="userSpaceOnUse"><path
         id="path5261"
         d="m 170,252 127,0 0,144 -127,0 0,-144 z" /></clipPath><clipPath
       id="clipPath5269"
       clipPathUnits="userSpaceOnUse"><path
         id="path5271"
         d="m 170,396 127,0 0,-144 -127,0 0,144 z" /></clipPath><clipPath
       id="clipPath5279"
       clipPathUnits="userSpaceOnUse"><path
         id="path5281"
         d="m 170,252 127,0 0,144 -127,0 0,-144 z" /></clipPath><clipPath
       id="clipPath5289"
       clipPathUnits="userSpaceOnUse"><path
         id="path5291"
         d="m 170,396 127,0 0,-144 -127,0 0,144 z" /></clipPath><clipPath
       id="clipPath5299"
       clipPathUnits="userSpaceOnUse"><path
         id="path5301"
         d="m 170,252 127,0 0,144 -127,0 0,-144 z" /></clipPath><clipPath
       id="clipPath5309"
       clipPathUnits="userSpaceOnUse"><path
         id="path5311"
         d="m 170,396 127,0 0,-144 -127,0 0,144 z" /></clipPath><clipPath
       id="clipPath5319"
       clipPathUnits="userSpaceOnUse"><path
         id="path5321"
         d="m 170,252 127,0 0,144 -127,0 0,-144 z" /></clipPath><clipPath
       id="clipPath5329"
       clipPathUnits="userSpaceOnUse"><path
         id="path5331"
         d="m 170,396 127,0 0,-144 -127,0 0,144 z" /></clipPath><clipPath
       id="clipPath5339"
       clipPathUnits="userSpaceOnUse"><path
         id="path5341"
         d="m 170,252 127,0 0,144 -127,0 0,-144 z" /></clipPath><clipPath
       id="clipPath5349"
       clipPathUnits="userSpaceOnUse"><path
         id="path5351"
         d="m 170,396 127,0 0,-144 -127,0 0,144 z" /></clipPath><clipPath
       clipPathUnits="userSpaceOnUse"
       id="clipPath5455"><path
         d="m 170,395.579 127,0 0,-144 -127,0 0,144 z"
         id="path5457" /></clipPath><clipPath
       clipPathUnits="userSpaceOnUse"
       id="clipPath5465"><path
         d="m 170,252 127,0 0,144 -127,0 0,-144 z"
         id="path5467" /></clipPath><clipPath
       clipPathUnits="userSpaceOnUse"
       id="clipPath5475"><path
         d="m 170,396 127,0 0,-144 -127,0 0,144 z"
         id="path5477" /></clipPath><clipPath
       clipPathUnits="userSpaceOnUse"
       id="clipPath5485"><path
         d="m 170,252 127,0 0,144 -127,0 0,-144 z"
         id="path5487" /></clipPath><clipPath
       clipPathUnits="userSpaceOnUse"
       id="clipPath5495"><path
         d="m 170,396 127,0 0,-144 -127,0 0,144 z"
         id="path5497" /></clipPath><clipPath
       clipPathUnits="userSpaceOnUse"
       id="clipPath5505"><path
         d="m 170,252 127,0 0,144 -127,0 0,-144 z"
         id="path5507" /></clipPath><clipPath
       clipPathUnits="userSpaceOnUse"
       id="clipPath5515"><path
         d="m 170,396 127,0 0,-144 -127,0 0,144 z"
         id="path5517" /></clipPath><clipPath
       clipPathUnits="userSpaceOnUse"
       id="clipPath5525"><path
         d="m 170,252 127,0 0,144 -127,0 0,-144 z"
         id="path5527" /></clipPath><clipPath
       clipPathUnits="userSpaceOnUse"
       id="clipPath5535"><path
         d="m 170,396 127,0 0,-144 -127,0 0,144 z"
         id="path5537" /></clipPath><clipPath
       clipPathUnits="userSpaceOnUse"
       id="clipPath5545"><path
         d="m 170,252 127,0 0,144 -127,0 0,-144 z"
         id="path5547" /></clipPath><clipPath
       clipPathUnits="userSpaceOnUse"
       id="clipPath5555"><path
         d="m 170,396 127,0 0,-144 -127,0 0,144 z"
         id="path5557" /></clipPath><clipPath
       clipPathUnits="userSpaceOnUse"
       id="clipPath5565"><path
         d="m 170,252 127,0 0,144 -127,0 0,-144 z"
         id="path5567" /></clipPath><clipPath
       clipPathUnits="userSpaceOnUse"
       id="clipPath5575"><path
         d="m 170,396 127,0 0,-144 -127,0 0,144 z"
         id="path5577" /></clipPath><clipPath
       clipPathUnits="userSpaceOnUse"
       id="clipPath5585"><path
         d="m 170,252 127,0 0,144 -127,0 0,-144 z"
         id="path5587" /></clipPath><clipPath
       clipPathUnits="userSpaceOnUse"
       id="clipPath5595"><path
         d="m 170,396 127,0 0,-144 -127,0 0,144 z"
         id="path5597" /></clipPath><clipPath
       clipPathUnits="userSpaceOnUse"
       id="clipPath5605"><path
         d="m 170,252 127,0 0,144 -127,0 0,-144 z"
         id="path5607" /></clipPath><clipPath
       clipPathUnits="userSpaceOnUse"
       id="clipPath5615"><path
         d="m 170,396 127,0 0,-144 -127,0 0,144 z"
         id="path5617" /></clipPath><clipPath
       clipPathUnits="userSpaceOnUse"
       id="clipPath5625"><path
         d="m 170,252 127,0 0,144 -127,0 0,-144 z"
         id="path5627" /></clipPath><clipPath
       clipPathUnits="userSpaceOnUse"
       id="clipPath5635"><path
         d="m 170,396 127,0 0,-144 -127,0 0,144 z"
         id="path5637" /></clipPath><clipPath
       clipPathUnits="userSpaceOnUse"
       id="clipPath5645"><path
         d="m 170,252 127,0 0,144 -127,0 0,-144 z"
         id="path5647" /></clipPath><clipPath
       clipPathUnits="userSpaceOnUse"
       id="clipPath5655"><path
         d="m 170,396 127,0 0,-144 -127,0 0,144 z"
         id="path5657" /></clipPath><clipPath
       clipPathUnits="userSpaceOnUse"
       id="clipPath5665"><path
         d="m 170,252 127,0 0,144 -127,0 0,-144 z"
         id="path5667" /></clipPath><clipPath
       clipPathUnits="userSpaceOnUse"
       id="clipPath5675"><path
         d="m 170,396 127,0 0,-144 -127,0 0,144 z"
         id="path5677" /></clipPath><clipPath
       clipPathUnits="userSpaceOnUse"
       id="clipPath5685"><path
         d="m 170,252 127,0 0,144 -127,0 0,-144 z"
         id="path5687" /></clipPath><clipPath
       clipPathUnits="userSpaceOnUse"
       id="clipPath5695"><path
         d="m 170,396 127,0 0,-144 -127,0 0,144 z"
         id="path5697" /></clipPath><clipPath
       clipPathUnits="userSpaceOnUse"
       id="clipPath5705"><path
         d="m 170,252 127,0 0,144 -127,0 0,-144 z"
         id="path5707" /></clipPath><clipPath
       clipPathUnits="userSpaceOnUse"
       id="clipPath5715"><path
         d="m 170,396 127,0 0,-144 -127,0 0,144 z"
         id="path5717" /></clipPath><clipPath
       clipPathUnits="userSpaceOnUse"
       id="clipPath5725"><path
         d="m 170,252 127,0 0,144 -127,0 0,-144 z"
         id="path5727" /></clipPath><clipPath
       clipPathUnits="userSpaceOnUse"
       id="clipPath5735"><path
         d="m 170,396 127,0 0,-144 -127,0 0,144 z"
         id="path5737" /></clipPath><clipPath
       clipPathUnits="userSpaceOnUse"
       id="clipPath5745"><path
         d="m 170,252 127,0 0,144 -127,0 0,-144 z"
         id="path5747" /></clipPath><clipPath
       clipPathUnits="userSpaceOnUse"
       id="clipPath5755"><path
         d="m 170,396 127,0 0,-144 -127,0 0,144 z"
         id="path5757" /></clipPath><clipPath
       clipPathUnits="userSpaceOnUse"
       id="clipPath5765"><path
         d="m 170,252 127,0 0,144 -127,0 0,-144 z"
         id="path5767" /></clipPath></defs><g
     transform="matrix(1.25,0,0,-1.25,0,630.72315)"
     id="g4905"><g
       id="g4907"><path
         id="path4909"
         style="fill:#ffffff;fill-opacity:1;fill-rule:evenodd;stroke:none"
         d="m 23.035,0.399 291.195,0 c 22.301,0 22.192,18.187 22.192,18.187 l 0,467.641 c 0,0 0.144,17.949 -19.176,17.949 l -297.039,0 c 0,0 -19.766,0.328 -19.809,-19.742 l 0,-464.051 C 0.398,0.352 23.035,0.399 23.035,0.399 Z" /><path
         id="path4911"
         style="fill:#154889;fill-opacity:1;fill-rule:evenodd;stroke:none"
         d="m 19.648,9.305 297.622,0 c 0,0 10.828,0.027 10.828,10.953 l 0,464.926 c 0,0 -0.008,10.73 -11.981,10.73 l -295.312,0 c 0,0 -11.895,0 -11.895,-10.726 l 0,-465.613 C 8.949,9.196 19.648,9.305 19.648,9.305 Z" /><path
         id="path4913"
         style="fill:#000000;fill-opacity:1;fill-rule:evenodd;stroke:none"
         d="m 20.207,504.579 c -0.008,0 -5.023,0.085 -10.062,-2.387 C 5.098,499.715 0.02,494.602 0,484.438 L 0,20.383 C 0,10.219 5.805,5.047 11.555,2.512 17.305,-0.019 23.035,0 23.035,0 L 314.23,0 c 11.258,0 16.977,4.637 19.801,9.286 2.821,4.648 2.789,9.296 2.789,9.296 l 0,467.645 c 0,0.004 0.039,4.578 -2.39,9.164 -2.43,4.586 -7.399,9.188 -17.184,9.188 l -297.039,0 z m 0,-0.403 297.039,0 c 19.32,0 19.176,-17.949 19.176,-17.949 l 0,-467.645 c 0,0 0.109,-18.183 -22.192,-18.183 l -291.195,0 c 0,0 -22.637,-0.047 -22.637,19.98 l 0,464.055 c 0.043,20.07 19.809,19.742 19.809,19.742 z" /><path
         id="path4915"
         style="fill:#ffffff;fill-opacity:1;fill-rule:nonzero;stroke:none"
         d="m 311.617,42.254 0,26.731 -236.769,0 0,-12.981 -49.645,0 0,-13.75 286.414,0 z" /><path
         id="path4917"
         style="fill:#ffffff;fill-opacity:1;fill-rule:nonzero;stroke:none"
         d="m 251.277,88.844 c 0,-10.691 8.403,-19.859 19.094,-19.859 10.695,0 19.098,9.168 19.098,19.859 0,9.93 -8.403,19.094 -19.098,19.094 -10.691,0 -19.094,-9.164 -19.094,-19.094 z" /><path
         id="path4919"
         style="fill:#ffffff;fill-opacity:1;fill-rule:nonzero;stroke:none"
         d="m 80.195,88.844 c 0,-10.691 8.403,-19.859 19.094,-19.859 10.695,0 19.094,9.168 19.094,19.859 0,9.93 -8.399,19.094 -19.094,19.094 -10.691,0 -19.094,-9.164 -19.094,-19.094 z" /><path
         id="path4921"
         style="fill:#ffffff;fill-opacity:1;fill-rule:nonzero;stroke:none"
         d="m 203.16,165.223 c 1.528,0 2.293,0 3.82,-0.766 l 32.079,-32.839 67.972,-11.461 c 2.293,0 4.586,-2.289 4.586,-4.582 l 0,-22.149 c 0,-3.055 -2.289,-4.582 -5.347,-4.582 l -12.223,0 c 0,12.985 -10.692,23.676 -23.676,23.676 -13.746,0 -24.441,-10.691 -24.441,-23.676 l -122.965,0 c 0,12.985 -10.692,23.676 -23.676,23.676 -12.984,0 -24.441,-10.691 -24.441,-23.676 l -9.164,0 c -3.055,0 -5.348,1.527 -5.348,4.582 l 0,31.317 c 0,1.527 0.766,3.054 2.293,3.82 l 45.062,35.894 c 0.762,0.766 1.528,0.766 3.055,0.766 l 92.414,0 z m -48.879,-9.168 -33.605,0 c -1.528,0 -3.055,-0.762 -3.821,-1.523 L 97.762,135.434 c -1.528,-2.289 -1.528,-5.344 0,-6.871 0.765,-0.766 2.293,-1.527 3.82,-1.527 l 52.699,-0.004 0,29.023 z m 48.879,-0.004 -41.242,0 0,-29.019 66.449,0 c 1.528,0 2.289,0.765 2.289,2.293 0,0.765 0,1.527 -0.761,1.527 l -22.915,23.676 c -1.527,0.761 -2.292,1.523 -3.82,1.523 z" /><path
         id="path4923"
         style="fill:#ffffff;fill-opacity:1;fill-rule:nonzero;stroke:none"
         d="m 68.422,377.547 42.773,0 c 16.035,0 29.785,12.985 29.785,29.785 0,16.039 -13.75,29.024 -29.785,29.024 l -42.773,0 0,-58.809 z m -27.496,-98.523 0,183.301 71.793,0 c 30.551,0 55.754,-24.442 55.754,-54.993 0,-31.312 -25.203,-55.753 -55.754,-55.753 l -44.297,0 0,-72.555" /></g><g
       id="g4925"><g
         clip-path="url(#clipPath4929)"
         id="g4927"><g
           transform="translate(0,-0.421478)"
           id="g4933"><g
             id="g4935"><g
               clip-path="url(#clipPath4939)"
               id="g4937"><g
                 id="g4943" /><g
                 id="g4945"><g
                   clip-path="url(#clipPath4949)"
                   id="g4947"><g
                     id="g4953"><g
                       id="g4955"><g
                         clip-path="url(#clipPath4959)"
                         id="g4957"><g
                           id="g4963" /><g
                           id="g4965"><g
                             clip-path="url(#clipPath4969)"
                             id="g4967"><g
                               id="g4973"><g
                                 id="g4975"><g
                                   clip-path="url(#clipPath4979)"
                                   id="g4977"><g
                                   id="g4983" /><g
                                   id="g4985"><g
                                   clip-path="url(#clipPath4989)"
                                   id="g4987"><g
                                   id="g4993"><g
                                   id="g4995"><g
                                   clip-path="url(#clipPath4999)"
                                   id="g4997"><g
                                   id="g5003" /><g
                                   id="g5005"><g
                                   clip-path="url(#clipPath5009)"
                                   id="g5007"><g
                                   id="g5013"><g
                                   id="g5015"><g
                                   clip-path="url(#clipPath5019)"
                                   id="g5017"><g
                                   id="g5023" /><g
                                   id="g5025"><g
                                   clip-path="url(#clipPath5029)"
                                   id="g5027"><g
                                   id="g5033"><g
                                   id="g5035"><g
                                   clip-path="url(#clipPath5039)"
                                   id="g5037"><g
                                   id="g5043" /><g
                                   id="g5045"><g
                                   clip-path="url(#clipPath5049)"
                                   id="g5047"><g
                                   id="g5053"><g
                                   id="g5055"><g
                                   clip-path="url(#clipPath5059)"
                                   id="g5057"><g
                                   id="g5063" /><g
                                   id="g5065"><g
                                   clip-path="url(#clipPath5069)"
                                   id="g5067"><g
                                   id="g5073"><g
                                   id="g5075"><g
                                   clip-path="url(#clipPath5079)"
                                   id="g5077"><g
                                   id="g5083" /><g
                                   id="g5085"><g
                                   clip-path="url(#clipPath5089)"
                                   id="g5087"><g
                                   id="g5093"><g
                                   id="g5095"><g
                                   clip-path="url(#clipPath5099)"
                                   id="g5097"><g
                                   id="g5103" /><g
                                   id="g5105"><g
                                   clip-path="url(#clipPath5109)"
                                   id="g5107"><g
                                   id="g5113"><g
                                   id="g5115"><g
                                   clip-path="url(#clipPath5119)"
                                   id="g5117"><g
                                   id="g5123" /><g
                                   id="g5125"><g
                                   clip-path="url(#clipPath5129)"
                                   id="g5127"><g
                                   id="g5133"><g
                                   id="g5135"><g
                                   clip-path="url(#clipPath5139)"
                                   id="g5137"><g
                                   id="g5143" /><g
                                   id="g5145"><g
                                   clip-path="url(#clipPath5149)"
                                   id="g5147"><g
                                   id="g5153"><g
                                   id="g5155"><g
                                   clip-path="url(#clipPath5159)"
                                   id="g5157"><g
                                   id="g5163" /><g
                                   id="g5165"><g
                                   clip-path="url(#clipPath5169)"
                                   id="g5167"><g
                                   id="g5173"><g
                                   id="g5175"><g
                                   clip-path="url(#clipPath5179)"
                                   id="g5177"><g
                                   id="g5183" /><g
                                   id="g5185"><g
                                   clip-path="url(#clipPath5189)"
                                   id="g5187"><g
                                   id="g5193"><g
                                   id="g5195"><g
                                   clip-path="url(#clipPath5199)"
                                   id="g5197"><g
                                   id="g5203" /><g
                                   id="g5205"><g
                                   clip-path="url(#clipPath5209)"
                                   id="g5207"><g
                                   id="g5213"><g
                                   id="g5215"><g
                                   clip-path="url(#clipPath5219)"
                                   id="g5217"><g
                                   id="g5223" /><g
                                   id="g5225"><g
                                   clip-path="url(#clipPath5229)"
                                   id="g5227"><g
                                   id="g5233"><g
                                   id="g5235"><g
                                   clip-path="url(#clipPath5239)"
                                   id="g5237"><g
                                   id="g5243" /><g
                                   id="g5245"><g
                                   clip-path="url(#clipPath5249)"
                                   id="g5247"><g
                                   id="g5253"><g
                                   id="g5255"><g
                                   clip-path="url(#clipPath5259)"
                                   id="g5257"><g
                                   id="g5263" /><g
                                   id="g5265"><g
                                   clip-path="url(#clipPath5269)"
                                   id="g5267"><g
                                   id="g5273"><g
                                   id="g5275"><g
                                   clip-path="url(#clipPath5279)"
                                   id="g5277"><g
                                   id="g5283" /><g
                                   id="g5285"><g
                                   clip-path="url(#clipPath5289)"
                                   id="g5287"><g
                                   id="g5293"><g
                                   id="g5295"><g
                                   clip-path="url(#clipPath5299)"
                                   id="g5297"><g
                                   id="g5303" /><g
                                   id="g5305"><g
                                   clip-path="url(#clipPath5309)"
                                   id="g5307"><g
                                   id="g5313"><g
                                   id="g5315"><g
                                   clip-path="url(#clipPath5319)"
                                   id="g5317"><g
                                   id="g5323" /><g
                                   id="g5325"><g
                                   clip-path="url(#clipPath5329)"
                                   id="g5327"><g
                                   id="g5333"><g
                                   id="g5335"><g
                                   clip-path="url(#clipPath5339)"
                                   id="g5337"><g
                                   id="g5343" /><g
                                   id="g5345"><g
                                   clip-path="url(#clipPath5349)"
                                   id="g5347"><g
                                   id="g5353" /></g></g></g></g></g></g></g></g></g></g></g></g></g></g></g></g></g></g></g></g></g></g></g></g></g></g></g></g></g></g></g></g></g></g></g></g></g></g></g></g></g></g></g></g></g></g></g></g></g></g></g></g></g></g></g></g></g></g></g></g></g></g></g></g></g></g></g></g></g></g></g></g></g></g></g></g></g></g></g></g></g></g></g></g></g></g></g></g></g></g></g></g></g></g></g></g></g></g></g></g></g></g></g></g></g></g></g><g
       transform="translate(0,2.375e-6)"
       id="g5451"><g
         clip-path="url(#clipPath5455)"
         id="g5453"><g
           transform="translate(0,-0.421478)"
           id="g5459"><g
             id="g5461"><g
               clip-path="url(#clipPath5465)"
               id="g5463"><g
                 id="g5469" /><g
                 id="g5471"><g
                   clip-path="url(#clipPath5475)"
                   id="g5473"><g
                     id="g5479"><g
                       id="g5481"><g
                         clip-path="url(#clipPath5485)"
                         id="g5483"><g
                           id="g5489" /><g
                           id="g5491"><g
                             clip-path="url(#clipPath5495)"
                             id="g5493"><g
                               id="g5499"><g
                                 id="g5501"><g
                                   clip-path="url(#clipPath5505)"
                                   id="g5503"><g
                                   id="g5509" /><g
                                   id="g5511"><g
                                   clip-path="url(#clipPath5515)"
                                   id="g5513"><g
                                   id="g5519"><g
                                   id="g5521"><g
                                   clip-path="url(#clipPath5525)"
                                   id="g5523"><g
                                   id="g5529" /><g
                                   id="g5531"><g
                                   clip-path="url(#clipPath5535)"
                                   id="g5533"><g
                                   id="g5539"><g
                                   id="g5541"><g
                                   clip-path="url(#clipPath5545)"
                                   id="g5543"><g
                                   id="g5549" /><g
                                   id="g5551"><g
                                   clip-path="url(#clipPath5555)"
                                   id="g5553"><g
                                   id="g5559"><g
                                   id="g5561"><g
                                   clip-path="url(#clipPath5565)"
                                   id="g5563"><g
                                   id="g5569" /><g
                                   id="g5571"><g
                                   clip-path="url(#clipPath5575)"
                                   id="g5573"><g
                                   id="g5579"><g
                                   id="g5581"><g
                                   clip-path="url(#clipPath5585)"
                                   id="g5583"><g
                                   id="g5589" /><g
                                   id="g5591"><g
                                   clip-path="url(#clipPath5595)"
                                   id="g5593"><g
                                   id="g5599"><g
                                   id="g5601"><g
                                   clip-path="url(#clipPath5605)"
                                   id="g5603"><g
                                   id="g5609" /><g
                                   id="g5611"><g
                                   clip-path="url(#clipPath5615)"
                                   id="g5613"><g
                                   id="g5619"><g
                                   id="g5621"><g
                                   clip-path="url(#clipPath5625)"
                                   id="g5623"><g
                                   id="g5629" /><g
                                   id="g5631"><g
                                   clip-path="url(#clipPath5635)"
                                   id="g5633"><g
                                   id="g5639"><g
                                   id="g5641"><g
                                   clip-path="url(#clipPath5645)"
                                   id="g5643"><g
                                   id="g5649" /><g
                                   id="g5651"><g
                                   clip-path="url(#clipPath5655)"
                                   id="g5653"><g
                                   id="g5659"><g
                                   id="g5661"><g
                                   clip-path="url(#clipPath5665)"
                                   id="g5663"><g
                                   id="g5669" /><g
                                   id="g5671"><g
                                   clip-path="url(#clipPath5675)"
                                   id="g5673"><g
                                   id="g5679"><g
                                   id="g5681"><g
                                   clip-path="url(#clipPath5685)"
                                   id="g5683"><g
                                   id="g5689" /><g
                                   id="g5691"><g
                                   clip-path="url(#clipPath5695)"
                                   id="g5693"><g
                                   id="g5699"><g
                                   id="g5701"><g
                                   clip-path="url(#clipPath5705)"
                                   id="g5703"><g
                                   id="g5709" /><g
                                   id="g5711"><g
                                   clip-path="url(#clipPath5715)"
                                   id="g5713"><g
                                   id="g5719"><g
                                   id="g5721"><g
                                   clip-path="url(#clipPath5725)"
                                   id="g5723"><g
                                   id="g5729" /><g
                                   id="g5731"><g
                                   clip-path="url(#clipPath5735)"
                                   id="g5733"><g
                                   id="g5739"><g
                                   id="g5741"><g
                                   clip-path="url(#clipPath5745)"
                                   id="g5743"><g
                                   id="g5749" /><g
                                   id="g5751"><g
                                   clip-path="url(#clipPath5755)"
                                   id="g5753"><g
                                   id="g5759"><g
                                   id="g5761"><g
                                   clip-path="url(#clipPath5765)"
                                   id="g5763"><g
                                   id="g5769"><path
                                   id="path5771"
                                   style="fill:#ffffff;fill-opacity:1;fill-rule:nonzero;stroke:none"
                                   d="m 170.141,359.938 35.968,35.835 19.965,0 -27.957,-27.875 97.965,0 0,-15.921 -97.965,0 27.957,-27.875 -19.965,0 -35.968,35.836 z m 125.941,-71.672 -35.969,-35.836 -19.988,0 27.98,27.875 -97.964,0 0,15.922 97.964,0 -27.98,27.875 19.988,0 35.969,-35.836" /></g></g></g></g></g></g></g></g></g></g></g></g></g></g></g></g></g></g></g></g></g></g></g></g></g></g></g></g></g></g></g></g></g></g></g></g></g></g></g></g></g></g></g></g></g></g></g></g></g></g></g></g></g></g></g></g></g></g></g></g></g></g></g></g></g></g></g></g></g></g></g></g></g></g></g></g></g></g></g></g></g></g></svg>