<?xml version="1.0" encoding="UTF-8" standalone="no"?>
<svg
   xmlns:dc="http://purl.org/dc/elements/1.1/"
   xmlns:cc="http://creativecommons.org/ns#"
   xmlns:rdf="http://www.w3.org/1999/02/22-rdf-syntax-ns#"
   xmlns:svg="http://www.w3.org/2000/svg"
   xmlns="http://www.w3.org/2000/svg"
   viewBox="0 0 1751.0001 450.99997"
   height="450.99997"
   width="1751.0001"
   xml:space="preserve"
   version="1.1"
   id="svg11301"><metadata
     id="metadata11307"><rdf:RDF><cc:Work
         rdf:about=""><dc:format>image/svg+xml</dc:format><dc:type
           rdf:resource="http://purl.org/dc/dcmitype/StillImage" /><dc:title></dc:title></cc:Work></rdf:RDF></metadata><defs
     id="defs11305" /><g
     transform="matrix(1.25,0,0,-1.25,0,450.99998)"
     id="g11309"><g
       id="g11311"><path
         id="path11313"
         style="fill:#ffffff;fill-opacity:1;fill-rule:nonzero;stroke:none"
         d="m 1360.398,360.402 c 22.09,0 40,-17.911 40,-40 l 0,-280 c 0,-22.094 -17.91,-40 -40,-40 l -1058.699,0 c -28.386,0 -56.351,7.511 -80.89,21.687 L 27.133,134.03 c -16.504,9.547 -26.735,27.297 -26.735,46.36 0,19.066 10.231,36.824 26.735,46.332 l 193.676,111.957 c 24.566,14.199 52.531,21.723 80.89,21.723 l 1058.699,0 z" /><path
         id="path11315"
         style="fill:#633a34;fill-opacity:1;fill-rule:evenodd;stroke:none"
         d="m 1356.398,340.402 c 13.254,0 24,-10.747 24,-24 l 0,-272 c 0,-13.258 -10.746,-24 -24,-24 l -1057.257,0 c -23.758,0 -46.282,6.265 -66.821,18.168 L 31.34,154.605 c -8.371,4.851 -10.922,16.105 -10.922,25.785 0,9.687 2.551,20.949 10.922,25.797 l 200.98,116.047 c 20.539,11.925 45.621,18.168 69.379,18.168 l 1054.699,0 z" /><path
         id="path11317"
         style="fill:#ffffff;fill-opacity:1;fill-rule:nonzero;stroke:none"
         d="m 625.98,201.101 28.313,0 c 5.852,0 10.957,1.25 15.328,3.746 4.445,2.574 7.992,5.926 10.645,10.058 1.093,1.641 1.91,3.122 2.457,4.45 0.547,1.324 0.976,2.882 1.285,4.675 0.312,1.875 0.547,4.293 0.703,7.254 0.156,3.043 0.234,6.864 0.234,11.465 0,4.758 -0.039,8.426 -0.117,11 -0.078,2.653 -0.273,4.875 -0.586,6.668 -0.234,1.871 -0.66,3.547 -1.285,5.031 -0.547,1.481 -1.367,3.118 -2.457,4.914 -2.652,4.524 -6.16,7.993 -10.531,10.411 -4.367,2.418 -9.321,3.629 -14.856,3.629 l -29.133,0 0,-83.301 z m 12.637,71.367 15.09,0 c 3.512,0 6.398,-0.547 8.66,-1.641 2.262,-1.011 4.328,-2.804 6.199,-5.379 0.86,-1.171 1.52,-2.339 1.989,-3.511 0.547,-1.168 0.937,-2.575 1.172,-4.211 0.234,-1.559 0.39,-3.508 0.468,-5.848 0.075,-2.34 0.114,-5.539 0.114,-9.594 0,-4.136 -0.039,-7.371 -0.114,-9.711 -0.078,-2.339 -0.234,-4.211 -0.468,-5.617 -0.157,-1.324 -0.43,-2.496 -0.821,-3.508 -0.39,-0.937 -0.976,-1.988 -1.754,-3.16 -3.277,-4.836 -8.425,-7.254 -15.445,-7.254 l -15.09,0 0,59.434 z" /><path
         id="path11319"
         style="fill:#ffffff;fill-opacity:1;fill-rule:nonzero;stroke:none"
         d="m 744.711,226.257 0,9.824 c 0,3.746 -0.664,7.137 -1.988,10.18 -1.246,3.121 -3.004,5.769 -5.266,7.957 -2.262,2.262 -4.875,3.977 -7.836,5.144 -2.965,1.172 -6.086,1.758 -9.359,1.758 -3.043,0 -6.008,-0.547 -8.895,-1.64 -2.883,-1.09 -5.496,-2.844 -7.836,-5.262 -2.34,-2.34 -4.211,-5.5 -5.617,-9.477 -1.402,-3.98 -2.105,-8.699 -2.105,-14.156 0,-5.851 0.742,-10.765 2.222,-14.742 1.563,-3.898 3.59,-6.981 6.086,-9.242 2.574,-2.262 5.379,-3.86 8.422,-4.797 3.121,-0.938 6.316,-1.402 9.594,-1.402 4.133,0 8.031,0.777 11.699,2.339 3.664,1.559 6.902,3.977 9.711,7.254 l -8.66,7.367 c -1.715,-1.792 -3.742,-3.195 -6.082,-4.21 -2.262,-1.012 -4.563,-1.52 -6.903,-1.52 -4.21,0 -7.644,1.246 -10.296,3.742 -2.571,2.574 -3.86,6.203 -3.86,10.883 l 36.969,0 z m -36.969,9.824 c 0.156,4.367 1.363,7.762 3.625,10.18 2.34,2.418 5.305,3.625 8.895,3.625 3.586,0 6.511,-1.207 8.773,-3.625 2.34,-2.418 3.586,-5.813 3.742,-10.18 l -25.035,0 z" /><path
         id="path11321"
         style="fill:#ffffff;fill-opacity:1;fill-rule:nonzero;stroke:none"
         d="m 757.23,220.991 c 0,-3.199 0.547,-6.125 1.637,-8.773 1.172,-2.574 2.731,-4.758 4.68,-6.555 1.949,-1.715 4.094,-3.039 6.433,-3.976 2.418,-0.86 4.797,-1.285 7.137,-1.285 6.477,0 11.582,2.339 15.328,7.019 l 0.235,0 0,-6.32 11.933,0 0,59.316 -11.933,0 0,-35.332 c 0,-3.976 -1.094,-7.098 -3.278,-9.359 -2.183,-2.262 -4.992,-3.391 -8.422,-3.391 -3.433,0 -6.281,1.129 -8.542,3.391 -2.184,2.261 -3.274,5.383 -3.274,9.359 l 0,35.332 -11.934,0 0,-39.426 z" /><path
         id="path11323"
         style="fill:#ffffff;fill-opacity:1;fill-rule:nonzero;stroke:none"
         d="m 820.77,260.417 -5.969,0 0,-9.125 5.969,0 0,-35.566 c 0,-4.602 1.324,-8.188 3.976,-10.762 2.652,-2.574 6.125,-3.863 10.414,-3.863 l 6.199,0 0,11.234 -4.445,0 c -2.809,0 -4.211,1.481 -4.211,4.445 l 0,34.512 8.656,0 0,9.125 -8.656,0 0,18.016 -11.933,0 0,-18.016 z" /><path
         id="path11325"
         style="fill:#ffffff;fill-opacity:1;fill-rule:nonzero;stroke:none"
         d="m 845.961,211.046 c 7.566,-7.098 16.262,-10.644 26.09,-10.644 7.097,0 12.949,1.636 17.551,4.914 4.679,3.273 7.019,7.718 7.019,13.336 0,5.07 -1.406,9.203 -4.211,12.398 -2.808,3.199 -7.137,4.992 -12.988,5.383 l -9.828,0.703 c -2.809,0.234 -4.836,0.859 -6.082,1.871 -1.172,1.016 -1.754,2.262 -1.754,3.742 0,2.188 0.777,3.903 2.34,5.149 1.636,1.328 4.25,1.988 7.836,1.988 3.043,0 5.812,-0.465 8.308,-1.402 2.496,-0.938 5.031,-2.301 7.602,-4.094 l 7.371,8.656 c -3.117,2.652 -6.551,4.641 -10.293,5.969 -3.746,1.402 -8.074,2.105 -12.988,2.105 -6.473,0 -11.778,-1.601 -15.911,-4.797 -4.132,-3.121 -6.199,-7.605 -6.199,-13.457 0,-4.91 1.559,-8.851 4.68,-11.816 3.195,-2.961 7.332,-4.641 12.398,-5.027 l 10.532,-0.938 c 2.261,-0.156 4.015,-0.703 5.265,-1.637 1.324,-0.859 1.989,-2.261 1.989,-4.211 0,-2.417 -1.094,-4.292 -3.278,-5.617 -2.105,-1.324 -4.914,-1.988 -8.422,-1.988 -3.902,0 -7.332,0.625 -10.297,1.871 -2.961,1.246 -5.769,3.16 -8.421,5.734 l -8.309,-8.191 z" /><path
         id="path11327"
         style="fill:#ffffff;fill-opacity:1;fill-rule:nonzero;stroke:none"
         d="m 943.59,218.534 c -1.563,-1.871 -3.395,-3.394 -5.5,-4.562 -2.027,-1.094 -4.211,-1.637 -6.551,-1.637 -4.992,0 -8.812,1.481 -11.465,4.445 -2.652,3.04 -3.98,7.68 -3.98,13.922 0,6.317 1.328,10.957 3.98,13.922 2.653,3.039 6.473,4.563 11.465,4.563 2.34,0 4.524,-0.586 6.551,-1.758 2.105,-1.09 3.937,-2.57 5.5,-4.445 l 8.773,7.839 c -2.73,3.2 -5.89,5.696 -9.476,7.489 -3.59,1.871 -7.528,2.808 -11.817,2.808 -3.507,0 -6.863,-0.586 -10.062,-1.758 -3.195,-1.167 -6.082,-3 -8.656,-5.496 -2.575,-2.418 -4.602,-5.578 -6.082,-9.476 -1.407,-3.903 -2.106,-8.465 -2.106,-13.688 0,-5.226 0.738,-9.789 2.223,-13.687 1.48,-3.824 3.468,-6.985 5.965,-9.477 2.496,-2.418 5.343,-4.215 8.539,-5.383 3.277,-1.171 6.672,-1.753 10.179,-1.753 4.289,0 8.227,0.894 11.817,2.687 3.586,1.875 6.746,4.41 9.476,7.606 l -8.773,7.839 z" /><path
         id="path11329"
         style="fill:#ffffff;fill-opacity:1;fill-rule:nonzero;stroke:none"
         d="m 960.594,201.101 11.933,0 0,35.332 c 0,3.976 1.094,7.097 3.278,9.359 2.261,2.262 5.105,3.395 8.539,3.395 3.429,0 6.238,-1.133 8.422,-3.395 2.183,-2.262 3.277,-5.383 3.277,-9.359 l 0,-35.332 11.934,0 0,39.426 c 0,3.277 -0.586,6.203 -1.754,8.777 -1.094,2.574 -2.614,4.719 -4.563,6.433 -1.953,1.793 -4.097,3.122 -6.437,3.977 -2.34,0.938 -4.68,1.406 -7.02,1.406 -6.551,0 -11.699,-2.34 -15.441,-7.019 l -0.235,0 0,30.301 -11.933,0 0,-83.301 z" /><path
         id="path11331"
         style="fill:#ffffff;fill-opacity:1;fill-rule:nonzero;stroke:none"
         d="m 1069.41,226.257 0,9.824 c 0,3.746 -0.664,7.137 -1.988,10.18 -1.25,3.121 -3.004,5.769 -5.266,7.957 -2.261,2.262 -4.875,3.977 -7.84,5.144 -2.961,1.172 -6.082,1.758 -9.359,1.758 -3.039,0 -6.004,-0.547 -8.891,-1.64 -2.886,-1.09 -5.5,-2.844 -7.839,-5.262 -2.34,-2.34 -4.211,-5.5 -5.614,-9.477 -1.406,-3.98 -2.105,-8.699 -2.105,-14.156 0,-5.851 0.738,-10.765 2.222,-14.742 1.559,-3.898 3.586,-6.981 6.083,-9.242 2.574,-2.262 5.382,-3.86 8.425,-4.797 3.117,-0.938 6.317,-1.402 9.59,-1.402 4.137,0 8.035,0.777 11.699,2.339 3.668,1.559 6.903,3.977 9.711,7.254 l -8.656,7.367 c -1.715,-1.792 -3.742,-3.195 -6.082,-4.21 -2.262,-1.012 -4.562,-1.52 -6.902,-1.52 -4.215,0 -7.645,1.246 -10.297,3.742 -2.574,2.574 -3.86,6.203 -3.86,10.883 l 36.969,0 z m -36.969,9.824 c 0.157,4.367 1.364,7.762 3.625,10.18 2.34,2.418 5.305,3.625 8.891,3.625 3.59,0 6.512,-1.207 8.773,-3.625 2.34,-2.418 3.59,-5.813 3.747,-10.18 l -25.036,0 z" /><path
         id="path11333"
         style="fill:#ffffff;fill-opacity:1;fill-rule:nonzero;stroke:none"
         d="m 625.98,77.097 52.793,0 0,11.832 -40.261,0 0,70.773 -12.532,0 0,-82.605 z" /><path
         id="path11335"
         style="fill:#ffffff;fill-opacity:1;fill-rule:nonzero;stroke:none"
         d="m 689.867,77.097 11.836,0 0,58.824 -11.836,0 0,-58.824 z m 0,70.773 11.836,0 0,11.832 -11.836,0 0,-11.832 z" /><path
         id="path11337"
         style="fill:#ffffff;fill-opacity:1;fill-rule:nonzero;stroke:none"
         d="m 718.09,77.097 11.832,0 0,35.039 c 0,3.945 1.082,7.039 3.25,9.281 2.242,2.242 5.066,3.363 8.469,3.363 3.402,0 6.187,-1.121 8.355,-3.363 2.164,-2.242 3.246,-5.336 3.246,-9.281 l 0,-35.039 11.836,0 0,35.039 c 0,3.945 1.082,7.039 3.25,9.281 2.242,2.242 5.067,3.363 8.469,3.363 3.402,0 6.187,-1.121 8.351,-3.363 2.168,-2.242 3.25,-5.336 3.25,-9.281 l 0,-35.039 11.832,0 0,39.098 c 0,3.25 -0.578,6.148 -1.738,8.703 -1.082,2.55 -2.59,4.679 -4.523,6.382 -1.934,1.778 -4.063,3.094 -6.383,3.942 -2.32,0.93 -4.641,1.394 -6.961,1.394 -4.023,0 -7.543,-0.621 -10.559,-1.855 -2.937,-1.238 -5.609,-3.172 -8.003,-5.805 -2.477,2.555 -4.915,4.449 -7.313,5.688 -2.395,1.312 -5.488,1.972 -9.281,1.972 -6.496,0 -11.602,-2.32 -15.313,-6.961 l -0.234,0 0,6.266 -11.832,0 0,-58.824 z" /><path
         id="path11339"
         style="fill:#ffffff;fill-opacity:1;fill-rule:nonzero;stroke:none"
         d="m 861.789,102.042 0,9.746 c 0,3.711 -0.656,7.074 -1.973,10.094 -1.238,3.094 -2.976,5.723 -5.218,7.887 -2.246,2.246 -4.836,3.945 -7.774,5.105 -2.941,1.16 -6.035,1.742 -9.285,1.742 -3.016,0 -5.953,-0.543 -8.816,-1.625 -2.864,-1.082 -5.453,-2.824 -7.774,-5.222 -2.32,-2.321 -4.176,-5.453 -5.57,-9.395 -1.391,-3.945 -2.086,-8.625 -2.086,-14.039 0,-5.801 0.734,-10.676 2.203,-14.621 1.547,-3.867 3.559,-6.922 6.035,-9.164 2.551,-2.242 5.336,-3.828 8.352,-4.758 3.094,-0.93 6.265,-1.39 9.515,-1.39 4.098,0 7.965,0.773 11.602,2.32 3.633,1.547 6.844,3.945 9.629,7.191 l -8.586,7.309 c -1.699,-1.777 -3.711,-3.168 -6.031,-4.176 -2.246,-1.004 -4.528,-1.508 -6.848,-1.508 -4.176,0 -7.578,1.239 -10.207,3.711 -2.555,2.555 -3.832,6.153 -3.832,10.793 l 36.664,0 z m -36.664,9.746 c 0.156,4.328 1.355,7.696 3.598,10.094 2.32,2.398 5.261,3.594 8.816,3.594 3.559,0 6.461,-1.196 8.703,-3.594 2.321,-2.398 3.559,-5.766 3.715,-10.094 l -24.832,0 z" /><path
         id="path11341"
         style="fill:#ffffff;fill-opacity:1;fill-rule:nonzero;stroke:none"
         d="m 867.707,86.956 c 7.504,-7.035 16.125,-10.554 25.871,-10.554 7.039,0 12.84,1.621 17.406,4.871 4.641,3.25 6.961,7.656 6.961,13.226 0,5.028 -1.394,9.129 -4.179,12.297 -2.782,3.172 -7.075,4.953 -12.875,5.34 l -9.746,0.695 c -2.786,0.231 -4.797,0.852 -6.036,1.856 -1.16,1.008 -1.738,2.242 -1.738,3.715 0,2.164 0.774,3.867 2.32,5.101 1.622,1.317 4.215,1.973 7.774,1.973 3.015,0 5.762,-0.461 8.234,-1.391 2.477,-0.93 4.992,-2.281 7.543,-4.062 l 7.309,8.586 c -3.094,2.632 -6.496,4.605 -10.207,5.918 -3.715,1.394 -8.008,2.089 -12.879,2.089 -6.422,0 -11.68,-1.586 -15.781,-4.757 -4.098,-3.094 -6.149,-7.543 -6.149,-13.344 0,-4.871 1.547,-8.778 4.641,-11.719 3.172,-2.937 7.269,-4.601 12.297,-4.988 l 10.445,-0.926 c 2.242,-0.156 3.98,-0.699 5.219,-1.625 1.316,-0.852 1.972,-2.242 1.972,-4.176 0,-2.398 -1.082,-4.254 -3.25,-5.57 -2.086,-1.316 -4.871,-1.973 -8.351,-1.973 -3.867,0 -7.27,0.617 -10.211,1.856 -2.938,1.238 -5.723,3.133 -8.352,5.687 l -8.238,-8.125 z" /><path
         id="path11343"
         style="fill:#ffffff;fill-opacity:1;fill-rule:nonzero;stroke:none"
         d="m 928.441,115.152 34.922,0 0,-11.836 -34.922,0 0,11.836 z" /><path
         id="path11345"
         style="fill:#ffffff;fill-opacity:1;fill-rule:nonzero;stroke:none"
         d="m 970.934,87.769 c 8.586,-7.578 19.105,-11.367 31.558,-11.367 8.973,0 16.051,2.125 21.231,6.378 5.183,4.254 7.773,10.133 7.773,17.637 0,6.031 -1.933,11.293 -5.801,15.778 -3.867,4.488 -9.472,7.156 -16.824,8.007 -3.094,0.387 -6.187,0.813 -9.281,1.274 -3.945,0.621 -6.883,1.898 -8.817,3.832 -1.933,1.933 -2.902,4.176 -2.902,6.726 0,3.793 1.277,6.692 3.832,8.703 2.629,2.09 5.953,3.133 9.977,3.133 3.558,0 7.039,-0.582 10.441,-1.742 3.481,-1.082 6.809,-2.629 9.977,-4.641 l 6.965,10.329 c -4.024,2.707 -8.278,4.793 -12.766,6.265 -4.484,1.547 -9.164,2.321 -14.039,2.321 -8.352,0 -14.926,-2.247 -19.723,-6.731 -4.797,-4.41 -7.191,-10.211 -7.191,-17.402 0,-6.114 1.894,-11.254 5.683,-15.434 3.868,-4.176 9.282,-6.765 16.243,-7.773 1.316,-0.153 2.941,-0.387 4.875,-0.696 2.937,-0.386 4.949,-0.656 6.031,-0.812 3.637,-0.465 6.344,-1.699 8.121,-3.711 1.781,-1.934 2.668,-4.41 2.668,-7.426 0,-3.48 -1.469,-6.265 -4.406,-8.355 -2.942,-2.086 -6.922,-3.133 -11.95,-3.133 -4.332,0 -8.546,0.738 -12.648,2.207 -4.023,1.469 -7.617,3.48 -10.789,6.031 l -8.238,-9.398 z" /><path
         id="path11347"
         style="fill:#ffffff;fill-opacity:1;fill-rule:nonzero;stroke:none"
         d="m 1044.402,135.921 -5.918,0 0,-9.051 5.918,0 0,-35.269 c 0,-4.567 1.313,-8.125 3.942,-10.676 2.633,-2.551 6.074,-3.828 10.328,-3.828 l 6.148,0 0,11.137 -4.41,0 c -2.781,0 -4.176,1.468 -4.176,4.41 l 0,34.226 8.586,0 0,9.051 -8.586,0 0,17.867 -11.832,0 0,-17.867 z" /><path
         id="path11349"
         style="fill:#ffffff;fill-opacity:1;fill-rule:nonzero;stroke:none"
         d="m 1075.883,77.097 11.836,0 0,35.387 c 0,4.019 1.121,7.078 3.363,9.164 2.242,2.089 4.949,3.132 8.121,3.132 1.469,0 2.785,-0.23 3.945,-0.695 1.161,-0.387 2.438,-1.121 3.829,-2.203 l 8.586,10.207 c -3.868,3.02 -7.969,4.527 -12.297,4.527 -6.5,0 -11.606,-2.32 -15.317,-6.961 l -0.23,0 0,6.266 -11.836,0 0,-58.824 z" /><path
         id="path11351"
         style="fill:#ffffff;fill-opacity:1;fill-rule:nonzero;stroke:none"
         d="m 1149.801,77.097 11.832,0 0,40.144 c 0,6.883 -2.164,11.832 -6.496,14.848 -4.254,3.02 -10.25,4.527 -17.985,4.527 -4.562,0 -8.468,-0.695 -11.718,-2.089 -3.246,-1.313 -5.954,-3.481 -8.121,-6.497 l 9.281,-7.078 c 1.086,1.703 2.437,2.864 4.062,3.481 1.625,0.695 3.985,1.043 7.078,1.043 4.332,0 7.426,-0.578 9.282,-1.739 1.855,-1.082 2.785,-3.015 2.785,-5.8 l 0,-6.149 -16.36,0 c -6.035,0 -10.753,-1.664 -14.156,-4.992 -3.324,-3.324 -4.988,-7.461 -4.988,-12.414 0,-5.258 1.855,-9.59 5.57,-12.992 3.711,-3.328 8.778,-4.988 15.199,-4.988 3.942,0 7.039,0.46 9.282,1.39 2.242,0.93 3.984,2.438 5.218,4.524 l 0.235,0 0,-5.219 z m 0,20.652 c 0,-4.41 -0.891,-7.234 -2.668,-8.469 -1.781,-1.164 -5.301,-1.742 -10.559,-1.742 -3.793,0 -6.613,0.696 -8.469,2.09 -1.781,1.391 -2.671,3.168 -2.671,5.336 0,2.242 0.851,3.984 2.554,5.219 1.7,1.238 4.254,1.859 7.657,1.859 l 14.156,0 0,-4.293 z" /><path
         id="path11353"
         style="fill:#ffffff;fill-opacity:1;fill-rule:nonzero;stroke:none"
         d="m 1198.992,121.882 6.848,0 c 4.328,0 6.496,-2.281 6.496,-6.848 l 0,-20.652 c 0,-2.32 -0.582,-3.941 -1.742,-4.871 -1.082,-0.852 -3.055,-1.277 -5.914,-1.277 l -4.18,0 0,-11.137 7.313,0 c 4.792,0 8.699,1.586 11.714,4.758 3.094,3.246 4.641,7.23 4.641,11.949 l 0,21 c 0,6.344 -2.82,10.637 -8.469,12.879 5.649,2.398 8.469,6.765 8.469,13.109 0,5.957 -2.086,10.711 -6.262,14.27 -4.179,3.558 -9.672,5.34 -16.476,5.34 -7.426,0 -13.422,-1.665 -17.985,-4.993 -4.484,-3.246 -6.73,-8.004 -6.73,-14.269 l 0,-64.043 11.836,0 0,64.043 c 0.156,2.476 1.082,4.293 2.785,5.453 1.777,1.238 4.758,1.894 8.934,1.973 2.164,0 4.214,-0.231 6.148,-0.696 1.934,-0.465 3.289,-1.043 4.062,-1.742 0.696,-0.695 1.161,-1.508 1.391,-2.433 0.309,-0.93 0.465,-2.208 0.465,-3.833 0,-2.472 -0.543,-4.253 -1.625,-5.335 -1.082,-1.004 -2.629,-1.508 -4.641,-1.508 l -7.078,0 0,-11.137 z" /><path
         id="path11355"
         style="fill:#ffffff;fill-opacity:1;fill-rule:nonzero;stroke:none"
         d="m 1284.863,102.042 0,9.746 c 0,3.711 -0.66,7.074 -1.972,10.094 -1.239,3.094 -2.981,5.723 -5.223,7.887 -2.242,2.246 -4.832,3.945 -7.773,5.105 -2.938,1.16 -6.032,1.742 -9.282,1.742 -3.015,0 -5.957,-0.543 -8.816,-1.625 -2.863,-1.082 -5.453,-2.824 -7.774,-5.222 -2.32,-2.321 -4.179,-5.453 -5.57,-9.395 -1.39,-3.945 -2.09,-8.625 -2.09,-14.039 0,-5.801 0.739,-10.676 2.207,-14.621 1.547,-3.867 3.559,-6.922 6.032,-9.164 2.554,-2.242 5.339,-3.828 8.355,-4.758 3.094,-0.93 6.266,-1.39 9.512,-1.39 4.101,0 7.969,0.773 11.601,2.32 3.637,1.547 6.848,3.945 9.633,7.191 l -8.586,7.309 c -1.703,-1.777 -3.715,-3.168 -6.035,-4.176 -2.242,-1.004 -4.523,-1.508 -6.844,-1.508 -4.175,0 -7.582,1.239 -10.211,3.711 -2.55,2.555 -3.828,6.153 -3.828,10.793 l 36.664,0 z m -36.664,9.746 c 0.156,4.328 1.356,7.696 3.598,10.094 2.32,2.398 5.258,3.594 8.816,3.594 3.559,0 6.457,-1.196 8.703,-3.594 2.321,-2.398 3.559,-5.766 3.711,-10.094 l -24.828,0 z" /><path
         id="path11357"
         style="fill:#ffffff;fill-opacity:1;fill-rule:nonzero;stroke:none"
         d="m 428.664,60.402 -120,120.011 120,119.989 120,-119.989 -120,-120.011 z" /><path
         id="path11359"
         style="fill:#633a34;fill-opacity:1;fill-rule:evenodd;stroke:none"
         d="m 400.91,250.351 c 0,0 -37.027,-11.254 -37.109,-54.473 -0.071,-43.219 33.176,-53.117 33.176,-53.117 1.109,-0.402 1.125,-0.418 1.125,-1.594 0,-2.008 -0.875,-4.347 -2.192,-5.805 -2.156,-2.394 -5.383,-3.445 -11.562,-3.761 l -3.336,-0.168 0,-2.731 106.859,0 0,55.102 c -0.129,-0.492 -0.641,-2.727 -1.148,-4.981 -2.09,-9.195 -4.922,-15.218 -10.739,-22.89 -2.531,-3.328 -8.902,-9.707 -12.199,-12.215 -9.109,-6.91 -17.847,-10.648 -27.672,-11.832 -2.25,-0.274 -7.308,-0.359 -21.722,-0.367 l -18.789,-0.008 1.761,1.766 c 1.223,1.214 2.02,2.293 2.59,3.5 l 0.824,1.75 0.075,55.918 0.058,55.906 z" /><path
         id="path11361"
         style="fill:#633a34;fill-opacity:1;fill-rule:evenodd;stroke:none"
         d="m 421.316,254.484 0,-118.864 0.832,-0.101 c 2.043,-0.25 4.567,-0.235 7.282,0.023 19.117,0.617 36.554,12.106 45.945,30.281 0.27,0.5 0.543,1.008 0.793,1.516 0.156,0.301 0.293,0.602 0.449,0.898 2.426,5.02 4.176,10.442 5.125,16.133 0.539,3.215 0.817,6.907 0.848,10.582 0,0 0.035,3.809 -0.914,9.516 -0.801,5.406 -2.278,10.672 -4.41,15.641 -0.43,1.046 -0.891,2.097 -1.399,3.148 -0.066,0.141 -0.133,0.273 -0.191,0.406 -3.602,7.399 -9.055,14.867 -17.34,20.621 -9,6.629 -19.613,10.184 -30.473,10.2 l -6.547,0 z m 6.098,-4.047 c 28.164,0 50.996,-24.891 50.996,-55.602 0,-30.707 -22.832,-55.601 -50.996,-55.601 -0.441,0.015 -0.891,0.043 -1.332,0.074 l 0,0.051 -0.191,-0.016 0.14,5.816 0.051,0 2.957,0.075 3.016,0.074 0,3.168 -6.149,0 0,7.523 6.117,0 0,3.317 -6.117,0 0.067,45.468 0.058,45.461 0.051,0 c 0.016,0 0.023,0 0.031,0.008 l 0,0.106 c 0.43,0.027 0.867,0.058 1.301,0.078 z" /><path
         id="path11363"
         style="fill:#633a34;fill-opacity:1;fill-rule:evenodd;stroke:none"
         d="m 432.023,186.987 0,20.028 -4.332,0 0,12.758 4.332,0 0,2.777 -2.617,0.082 -2.633,0.066 10.809,9.149 c 5.949,5.035 10.973,9.172 11.164,9.191 0.199,0.016 5.25,-4.101 11.231,-9.156 l 10.867,-9.184 -2.578,-0.074 -2.571,-0.074 0,-2.777 4.59,0 0,-12.758 -4.59,0 0,-34.961 -4.468,0.141 -0.059,17.414 -0.066,17.406 -24.481,0 0,-37.242 5.352,0 0,-2.801 -9.95,0 0,20.015 z m 33.622,26.469 0.074,1.719 -33.696,0 0,-3.57 16.774,0.062 16.769,0.067 0.079,1.722 z m -19.332,7.715 0,1.152 -9.442,0 0,-2.3 9.442,0 0,1.148 z m 14.539,0 0,1.152 -9.446,0 0,-2.3 9.446,0 0,1.148 z m -6.122,9.375 c -2.554,2.133 -4.968,4.152 -5.351,4.469 l -0.707,0.582 -1.633,-1.473 c -0.894,-0.812 -3.059,-2.668 -4.809,-4.129 -1.757,-1.457 -3.359,-2.808 -3.566,-2.996 -0.309,-0.285 1.332,-0.344 10.172,-0.344 l 10.543,0 -4.649,3.891 z" /><path
         id="path11365"
         style="fill:#633a34;fill-opacity:1;fill-rule:evenodd;stroke:none"
         d="m 444.781,168.37 0,1.403 6.379,0 0,-2.801 -6.379,0 0,1.398 z" /><path
         id="path11367"
         style="fill:#633a34;fill-opacity:1;fill-rule:evenodd;stroke:none"
         d="m 453.961,168.37 0,1.403 6.633,0 0,-2.801 -6.633,0 0,1.398 z" /><path
         id="path11369"
         style="fill:#633a34;fill-opacity:1;fill-rule:evenodd;stroke:none"
         d="m 463.402,168.37 0,1.403 6.633,0 0,-2.801 -6.633,0 0,1.398 z" /><path
         id="path11371"
         style="fill:#633a34;fill-opacity:1;fill-rule:evenodd;stroke:none"
         d="m 458.813,162.89 0,1.547 3.117,-0.075 3.133,-0.066 0.074,-1.473 0.074,-1.461 -6.398,0 0,1.528 z" /><path
         id="path11373"
         style="fill:#633a34;fill-opacity:1;fill-rule:evenodd;stroke:none"
         d="m 449.621,162.757 0,1.406 2.684,0.035 c 1.472,0.024 2.816,0.051 2.996,0.067 0.219,0.015 0.344,-0.461 0.394,-1.442 l 0.075,-1.461 -6.149,0 0,1.395 z" /><path
         id="path11375"
         style="fill:#633a34;fill-opacity:1;fill-rule:evenodd;stroke:none"
         d="m 453.961,157.655 0,1.661 6.633,0 0,-3.309 -6.633,0 0,1.648 z" /><path
         id="path11377"
         style="fill:#633a34;fill-opacity:1;fill-rule:evenodd;stroke:none"
         d="m 444.781,157.655 0,1.661 6.379,0 0,-3.309 -6.379,0 0,1.648 z" /><path
         id="path11379"
         style="fill:#633a34;fill-opacity:1;fill-rule:evenodd;stroke:none"
         d="m 435.34,157.655 0,1.661 6.633,0 0,-3.309 -6.633,0 0,1.648 z" /><path
         id="path11381"
         style="fill:#633a34;fill-opacity:1;fill-rule:evenodd;stroke:none"
         d="m 440.188,162.882 0,1.539 6.375,0 0,-3.059 -6.375,0 0,1.52 z" /><path
         id="path11383"
         style="fill:#633a34;fill-opacity:1;fill-rule:evenodd;stroke:none"
         d="m 431.012,162.757 0,1.406 6.117,0 0,-2.801 -6.117,0 0,1.395 z" /><path
         id="path11385"
         style="fill:#633a34;fill-opacity:1;fill-rule:evenodd;stroke:none"
         d="m 431.012,152.175 0,1.531 6.117,0 0,-3.066 -6.117,0 0,1.535 z" /><path
         id="path11387"
         style="fill:#633a34;fill-opacity:1;fill-rule:evenodd;stroke:none"
         d="m 440.188,152.175 0,1.531 6.375,0 0,-3.066 -6.375,0 0,1.535 z" /><path
         id="path11389"
         style="fill:#633a34;fill-opacity:1;fill-rule:evenodd;stroke:none"
         d="m 449.621,152.175 0,1.531 6.125,0 0,-3.066 -6.125,0 0,1.535 z" /><path
         id="path11391"
         style="fill:#633a34;fill-opacity:1;fill-rule:evenodd;stroke:none"
         d="m 435.34,148.476 c 2.172,0.105 6.508,0 6.508,0 l 0,-3.192 -6.508,0 0,3.192 z" /><path
         id="path11393"
         style="fill:#633a34;fill-opacity:1;fill-rule:evenodd;stroke:none"
         d="m 444.297,146.948 0,1.528 6.375,0 0,-3.059 -6.375,0 0,1.531 z" /><path
         id="path11395"
         style="fill:#000000;fill-opacity:1;fill-rule:nonzero;stroke:none"
         d="m 1360.398,360.8 c 22.309,0 40.403,-18.094 40.403,-40.398 l 0,-280 c 0,-22.313 -18.094,-40.403 -40.403,-40.403 l -1058.699,0 c -28.457,0 -56.488,7.535 -81.09,21.746 L 26.934,133.683 C 10.305,143.304 0,161.187 0,180.386 c 0,19.215 10.305,37.105 26.934,46.68 l 193.675,111.957 c 24.625,14.238 52.661,21.777 81.09,21.777 l 1058.699,0 z m 0,-0.398 -1058.699,0 c -28.359,0 -56.324,-7.524 -80.89,-21.727 L 27.133,226.722 C 10.629,217.218 0.398,199.456 0.398,180.386 c 0,-19.059 10.231,-36.805 26.735,-46.356 L 220.809,22.089 C 245.348,7.913 273.313,0.402 301.699,0.402 l 1058.699,0 c 22.09,0 40,17.906 40,40 l 0,280 c 0,22.089 -17.91,40 -40,40 z" /></g></g></svg>