<?xml version="1.0" encoding="UTF-8" standalone="no"?>
<svg
   xmlns:dc="http://purl.org/dc/elements/1.1/"
   xmlns:cc="http://creativecommons.org/ns#"
   xmlns:rdf="http://www.w3.org/1999/02/22-rdf-syntax-ns#"
   xmlns:svg="http://www.w3.org/2000/svg"
   xmlns="http://www.w3.org/2000/svg"
   viewBox="0 0 421.02548 630.72314"
   height="630.72314"
   width="421.02548"
   xml:space="preserve"
   version="1.1"
   id="svg5423"><metadata
     id="metadata5429"><rdf:RDF><cc:Work
         rdf:about=""><dc:format>image/svg+xml</dc:format><dc:type
           rdf:resource="http://purl.org/dc/dcmitype/StillImage" /><dc:title></dc:title></cc:Work></rdf:RDF></metadata><defs
     id="defs5427"><clipPath
       id="clipPath5455"
       clipPathUnits="userSpaceOnUse"><path
         id="path5457"
         d="m 170,395.579 127,0 0,-144 -127,0 0,144 z" /></clipPath><clipPath
       id="clipPath5465"
       clipPathUnits="userSpaceOnUse"><path
         id="path5467"
         d="m 170,252 127,0 0,144 -127,0 0,-144 z" /></clipPath><clipPath
       id="clipPath5475"
       clipPathUnits="userSpaceOnUse"><path
         id="path5477"
         d="m 170,396 127,0 0,-144 -127,0 0,144 z" /></clipPath><clipPath
       id="clipPath5485"
       clipPathUnits="userSpaceOnUse"><path
         id="path5487"
         d="m 170,252 127,0 0,144 -127,0 0,-144 z" /></clipPath><clipPath
       id="clipPath5495"
       clipPathUnits="userSpaceOnUse"><path
         id="path5497"
         d="m 170,396 127,0 0,-144 -127,0 0,144 z" /></clipPath><clipPath
       id="clipPath5505"
       clipPathUnits="userSpaceOnUse"><path
         id="path5507"
         d="m 170,252 127,0 0,144 -127,0 0,-144 z" /></clipPath><clipPath
       id="clipPath5515"
       clipPathUnits="userSpaceOnUse"><path
         id="path5517"
         d="m 170,396 127,0 0,-144 -127,0 0,144 z" /></clipPath><clipPath
       id="clipPath5525"
       clipPathUnits="userSpaceOnUse"><path
         id="path5527"
         d="m 170,252 127,0 0,144 -127,0 0,-144 z" /></clipPath><clipPath
       id="clipPath5535"
       clipPathUnits="userSpaceOnUse"><path
         id="path5537"
         d="m 170,396 127,0 0,-144 -127,0 0,144 z" /></clipPath><clipPath
       id="clipPath5545"
       clipPathUnits="userSpaceOnUse"><path
         id="path5547"
         d="m 170,252 127,0 0,144 -127,0 0,-144 z" /></clipPath><clipPath
       id="clipPath5555"
       clipPathUnits="userSpaceOnUse"><path
         id="path5557"
         d="m 170,396 127,0 0,-144 -127,0 0,144 z" /></clipPath><clipPath
       id="clipPath5565"
       clipPathUnits="userSpaceOnUse"><path
         id="path5567"
         d="m 170,252 127,0 0,144 -127,0 0,-144 z" /></clipPath><clipPath
       id="clipPath5575"
       clipPathUnits="userSpaceOnUse"><path
         id="path5577"
         d="m 170,396 127,0 0,-144 -127,0 0,144 z" /></clipPath><clipPath
       id="clipPath5585"
       clipPathUnits="userSpaceOnUse"><path
         id="path5587"
         d="m 170,252 127,0 0,144 -127,0 0,-144 z" /></clipPath><clipPath
       id="clipPath5595"
       clipPathUnits="userSpaceOnUse"><path
         id="path5597"
         d="m 170,396 127,0 0,-144 -127,0 0,144 z" /></clipPath><clipPath
       id="clipPath5605"
       clipPathUnits="userSpaceOnUse"><path
         id="path5607"
         d="m 170,252 127,0 0,144 -127,0 0,-144 z" /></clipPath><clipPath
       id="clipPath5615"
       clipPathUnits="userSpaceOnUse"><path
         id="path5617"
         d="m 170,396 127,0 0,-144 -127,0 0,144 z" /></clipPath><clipPath
       id="clipPath5625"
       clipPathUnits="userSpaceOnUse"><path
         id="path5627"
         d="m 170,252 127,0 0,144 -127,0 0,-144 z" /></clipPath><clipPath
       id="clipPath5635"
       clipPathUnits="userSpaceOnUse"><path
         id="path5637"
         d="m 170,396 127,0 0,-144 -127,0 0,144 z" /></clipPath><clipPath
       id="clipPath5645"
       clipPathUnits="userSpaceOnUse"><path
         id="path5647"
         d="m 170,252 127,0 0,144 -127,0 0,-144 z" /></clipPath><clipPath
       id="clipPath5655"
       clipPathUnits="userSpaceOnUse"><path
         id="path5657"
         d="m 170,396 127,0 0,-144 -127,0 0,144 z" /></clipPath><clipPath
       id="clipPath5665"
       clipPathUnits="userSpaceOnUse"><path
         id="path5667"
         d="m 170,252 127,0 0,144 -127,0 0,-144 z" /></clipPath><clipPath
       id="clipPath5675"
       clipPathUnits="userSpaceOnUse"><path
         id="path5677"
         d="m 170,396 127,0 0,-144 -127,0 0,144 z" /></clipPath><clipPath
       id="clipPath5685"
       clipPathUnits="userSpaceOnUse"><path
         id="path5687"
         d="m 170,252 127,0 0,144 -127,0 0,-144 z" /></clipPath><clipPath
       id="clipPath5695"
       clipPathUnits="userSpaceOnUse"><path
         id="path5697"
         d="m 170,396 127,0 0,-144 -127,0 0,144 z" /></clipPath><clipPath
       id="clipPath5705"
       clipPathUnits="userSpaceOnUse"><path
         id="path5707"
         d="m 170,252 127,0 0,144 -127,0 0,-144 z" /></clipPath><clipPath
       id="clipPath5715"
       clipPathUnits="userSpaceOnUse"><path
         id="path5717"
         d="m 170,396 127,0 0,-144 -127,0 0,144 z" /></clipPath><clipPath
       id="clipPath5725"
       clipPathUnits="userSpaceOnUse"><path
         id="path5727"
         d="m 170,252 127,0 0,144 -127,0 0,-144 z" /></clipPath><clipPath
       id="clipPath5735"
       clipPathUnits="userSpaceOnUse"><path
         id="path5737"
         d="m 170,396 127,0 0,-144 -127,0 0,144 z" /></clipPath><clipPath
       id="clipPath5745"
       clipPathUnits="userSpaceOnUse"><path
         id="path5747"
         d="m 170,252 127,0 0,144 -127,0 0,-144 z" /></clipPath><clipPath
       id="clipPath5755"
       clipPathUnits="userSpaceOnUse"><path
         id="path5757"
         d="m 170,396 127,0 0,-144 -127,0 0,144 z" /></clipPath><clipPath
       id="clipPath5765"
       clipPathUnits="userSpaceOnUse"><path
         id="path5767"
         d="m 170,252 127,0 0,144 -127,0 0,-144 z" /></clipPath></defs><g
     transform="matrix(1.25,0,0,-1.25,0,630.72315)"
     id="g5431"><g
       id="g5433"><path
         id="path5435"
         style="fill:#ffffff;fill-opacity:1;fill-rule:evenodd;stroke:none"
         d="m 23.035,0.399 291.195,0 c 22.301,0 22.192,18.187 22.192,18.187 l 0,467.641 c 0,0 0.144,17.949 -19.176,17.949 l -297.039,0 c 0,0 -19.766,0.328 -19.809,-19.742 l 0,-464.051 C 0.398,0.352 23.035,0.399 23.035,0.399 Z" /><path
         id="path5437"
         style="fill:#154889;fill-opacity:1;fill-rule:evenodd;stroke:none"
         d="m 19.648,9.305 297.622,0 c 0,0 10.828,0.027 10.828,10.953 l 0,464.926 c 0,0 -0.008,10.73 -11.981,10.73 l -295.312,0 c 0,0 -11.895,0 -11.895,-10.726 l 0,-465.613 C 8.949,9.196 19.648,9.305 19.648,9.305 Z" /><path
         id="path5439"
         style="fill:#000000;fill-opacity:1;fill-rule:evenodd;stroke:none"
         d="m 20.207,504.579 c -0.008,0 -5.023,0.085 -10.062,-2.387 C 5.098,499.715 0.02,494.602 0,484.438 L 0,20.383 C 0,10.219 5.805,5.047 11.555,2.512 17.305,-0.019 23.035,0 23.035,0 L 314.23,0 c 11.258,0 16.977,4.637 19.801,9.286 2.821,4.648 2.789,9.296 2.789,9.296 l 0,467.645 c 0,0.004 0.039,4.578 -2.39,9.164 -2.43,4.586 -7.399,9.188 -17.184,9.188 l -297.039,0 z m 0,-0.403 297.039,0 c 19.32,0 19.176,-17.949 19.176,-17.949 l 0,-467.645 c 0,0 0.109,-18.183 -22.192,-18.183 l -291.195,0 c 0,0 -22.637,-0.047 -22.637,19.98 l 0,464.055 c 0.043,20.07 19.809,19.742 19.809,19.742 z" /><path
         id="path5441"
         style="fill:#ffffff;fill-opacity:1;fill-rule:nonzero;stroke:none"
         d="m 25.203,42.254 0,26.731 236.77,0 0,-12.981 49.644,0 0,-13.75 -286.414,0 z" /><path
         id="path5443"
         style="fill:#ffffff;fill-opacity:1;fill-rule:nonzero;stroke:none"
         d="m 85.543,88.844 c 0,-10.691 -8.402,-19.859 -19.094,-19.859 -10.695,0 -19.097,9.168 -19.097,19.859 0,9.93 8.402,19.094 19.097,19.094 10.692,0 19.094,-9.164 19.094,-19.094 z" /><path
         id="path5445"
         style="fill:#ffffff;fill-opacity:1;fill-rule:nonzero;stroke:none"
         d="m 256.625,88.844 c 0,-10.691 -8.402,-19.859 -19.094,-19.859 -10.695,0 -19.093,9.168 -19.093,19.859 0,9.93 8.398,19.094 19.093,19.094 10.692,0 19.094,-9.164 19.094,-19.094 z" /><path
         id="path5447"
         style="fill:#ffffff;fill-opacity:1;fill-rule:nonzero;stroke:none"
         d="m 133.66,165.223 c -1.527,0 -2.293,0 -3.82,-0.766 L 97.762,131.618 29.789,120.157 c -2.293,0 -4.586,-2.289 -4.586,-4.582 l 0,-22.149 c 0,-3.055 2.289,-4.582 5.348,-4.582 l 12.222,0 c 0,12.985 10.692,23.676 23.676,23.676 13.746,0 24.442,-10.691 24.442,-23.676 l 122.964,0 c 0,12.985 10.692,23.676 23.676,23.676 12.985,0 24.442,-10.691 24.442,-23.676 l 9.164,0 c 3.054,0 5.347,1.527 5.347,4.582 l 0,31.317 c 0,1.527 -0.765,3.054 -2.293,3.82 l -45.062,35.894 c -0.762,0.766 -1.527,0.766 -3.055,0.766 l -92.414,0 z m 48.879,-9.168 33.606,0 c 1.527,0 3.054,-0.762 3.82,-1.523 l 19.094,-19.098 c 1.527,-2.289 1.527,-5.344 0,-6.871 -0.766,-0.766 -2.293,-1.527 -3.821,-1.527 l -52.699,-0.004 0,29.023 z m -48.879,-0.004 41.242,0 0,-29.019 -66.449,0 c -1.527,0 -2.289,0.765 -2.289,2.293 0,0.765 0,1.527 0.762,1.527 l 22.914,23.676 c 1.527,0.761 2.293,1.523 3.82,1.523 z" /><path
         id="path5449"
         style="fill:#ffffff;fill-opacity:1;fill-rule:nonzero;stroke:none"
         d="m 68.422,377.547 42.773,0 c 16.035,0 29.785,12.985 29.785,29.785 0,16.039 -13.75,29.024 -29.785,29.024 l -42.773,0 0,-58.809 z m -27.496,-98.523 0,183.301 71.793,0 c 30.551,0 55.754,-24.442 55.754,-54.993 0,-31.312 -25.203,-55.753 -55.754,-55.753 l -44.297,0 0,-72.555" /></g><g
       id="g5451"><g
         clip-path="url(#clipPath5455)"
         id="g5453"><g
           transform="translate(0,-0.421478)"
           id="g5459"><g
             id="g5461"><g
               clip-path="url(#clipPath5465)"
               id="g5463"><g
                 id="g5469" /><g
                 id="g5471"><g
                   clip-path="url(#clipPath5475)"
                   id="g5473"><g
                     id="g5479"><g
                       id="g5481"><g
                         clip-path="url(#clipPath5485)"
                         id="g5483"><g
                           id="g5489" /><g
                           id="g5491"><g
                             clip-path="url(#clipPath5495)"
                             id="g5493"><g
                               id="g5499"><g
                                 id="g5501"><g
                                   clip-path="url(#clipPath5505)"
                                   id="g5503"><g
                                   id="g5509" /><g
                                   id="g5511"><g
                                   clip-path="url(#clipPath5515)"
                                   id="g5513"><g
                                   id="g5519"><g
                                   id="g5521"><g
                                   clip-path="url(#clipPath5525)"
                                   id="g5523"><g
                                   id="g5529" /><g
                                   id="g5531"><g
                                   clip-path="url(#clipPath5535)"
                                   id="g5533"><g
                                   id="g5539"><g
                                   id="g5541"><g
                                   clip-path="url(#clipPath5545)"
                                   id="g5543"><g
                                   id="g5549" /><g
                                   id="g5551"><g
                                   clip-path="url(#clipPath5555)"
                                   id="g5553"><g
                                   id="g5559"><g
                                   id="g5561"><g
                                   clip-path="url(#clipPath5565)"
                                   id="g5563"><g
                                   id="g5569" /><g
                                   id="g5571"><g
                                   clip-path="url(#clipPath5575)"
                                   id="g5573"><g
                                   id="g5579"><g
                                   id="g5581"><g
                                   clip-path="url(#clipPath5585)"
                                   id="g5583"><g
                                   id="g5589" /><g
                                   id="g5591"><g
                                   clip-path="url(#clipPath5595)"
                                   id="g5593"><g
                                   id="g5599"><g
                                   id="g5601"><g
                                   clip-path="url(#clipPath5605)"
                                   id="g5603"><g
                                   id="g5609" /><g
                                   id="g5611"><g
                                   clip-path="url(#clipPath5615)"
                                   id="g5613"><g
                                   id="g5619"><g
                                   id="g5621"><g
                                   clip-path="url(#clipPath5625)"
                                   id="g5623"><g
                                   id="g5629" /><g
                                   id="g5631"><g
                                   clip-path="url(#clipPath5635)"
                                   id="g5633"><g
                                   id="g5639"><g
                                   id="g5641"><g
                                   clip-path="url(#clipPath5645)"
                                   id="g5643"><g
                                   id="g5649" /><g
                                   id="g5651"><g
                                   clip-path="url(#clipPath5655)"
                                   id="g5653"><g
                                   id="g5659"><g
                                   id="g5661"><g
                                   clip-path="url(#clipPath5665)"
                                   id="g5663"><g
                                   id="g5669" /><g
                                   id="g5671"><g
                                   clip-path="url(#clipPath5675)"
                                   id="g5673"><g
                                   id="g5679"><g
                                   id="g5681"><g
                                   clip-path="url(#clipPath5685)"
                                   id="g5683"><g
                                   id="g5689" /><g
                                   id="g5691"><g
                                   clip-path="url(#clipPath5695)"
                                   id="g5693"><g
                                   id="g5699"><g
                                   id="g5701"><g
                                   clip-path="url(#clipPath5705)"
                                   id="g5703"><g
                                   id="g5709" /><g
                                   id="g5711"><g
                                   clip-path="url(#clipPath5715)"
                                   id="g5713"><g
                                   id="g5719"><g
                                   id="g5721"><g
                                   clip-path="url(#clipPath5725)"
                                   id="g5723"><g
                                   id="g5729" /><g
                                   id="g5731"><g
                                   clip-path="url(#clipPath5735)"
                                   id="g5733"><g
                                   id="g5739"><g
                                   id="g5741"><g
                                   clip-path="url(#clipPath5745)"
                                   id="g5743"><g
                                   id="g5749" /><g
                                   id="g5751"><g
                                   clip-path="url(#clipPath5755)"
                                   id="g5753"><g
                                   id="g5759"><g
                                   id="g5761"><g
                                   clip-path="url(#clipPath5765)"
                                   id="g5763"><g
                                   id="g5769"><path
                                   id="path5771"
                                   style="fill:#ffffff;fill-opacity:1;fill-rule:nonzero;stroke:none"
                                   d="m 170.141,359.938 35.968,35.835 19.965,0 -27.957,-27.875 97.965,0 0,-15.921 -97.965,0 27.957,-27.875 -19.965,0 -35.968,35.836 z m 125.941,-71.672 -35.969,-35.836 -19.988,0 27.98,27.875 -97.964,0 0,15.922 97.964,0 -27.98,27.875 19.988,0 35.969,-35.836" /></g></g></g></g></g></g></g></g></g></g></g></g></g></g></g></g></g></g></g></g></g></g></g></g></g></g></g></g></g></g></g></g></g></g></g></g></g></g></g></g></g></g></g></g></g></g></g></g></g></g></g></g></g></g></g></g></g></g></g></g></g></g></g></g></g></g></g></g></g></g></g></g></g></g></g></g></g></g></g></g></g></g></svg>