<?xml version="1.0" encoding="UTF-8" standalone="no"?>
<svg
   xmlns:dc="http://purl.org/dc/elements/1.1/"
   xmlns:cc="http://creativecommons.org/ns#"
   xmlns:rdf="http://www.w3.org/1999/02/22-rdf-syntax-ns#"
   xmlns:svg="http://www.w3.org/2000/svg"
   xmlns="http://www.w3.org/2000/svg"
   viewBox="0 0 1751.0001 450.99997"
   height="450.99997"
   width="1751.0001"
   xml:space="preserve"
   version="1.1"
   id="svg11061"><metadata
     id="metadata11067"><rdf:RDF><cc:Work
         rdf:about=""><dc:format>image/svg+xml</dc:format><dc:type
           rdf:resource="http://purl.org/dc/dcmitype/StillImage" /><dc:title></dc:title></cc:Work></rdf:RDF></metadata><defs
     id="defs11065" /><g
     transform="matrix(1.25,0,0,-1.25,0,450.99998)"
     id="g11069"><g
       id="g11071"><path
         id="path11073"
         style="fill:#ffffff;fill-opacity:1;fill-rule:nonzero;stroke:none"
         d="m 40.398,360.402 c -22.085,0 -40,-17.911 -40,-40 l 0,-280 c 0,-22.094 17.915,-40 40,-40 l 1058.704,0 c 28.382,0 56.347,7.511 80.886,21.687 l 193.676,111.941 c 16.508,9.547 26.734,27.297 26.734,46.36 0,19.066 -10.226,36.824 -26.734,46.332 l -193.676,111.957 c -24.562,14.199 -52.531,21.723 -80.886,21.723 l -1058.704,0 z" /><path
         id="path11075"
         style="fill:#633a34;fill-opacity:1;fill-rule:evenodd;stroke:none"
         d="m 44.398,340.402 c -13.25,0 -24,-10.747 -24,-24 l 0,-272 c 0,-13.258 10.75,-24 24,-24 l 1057.258,0 c 23.758,0 46.285,6.265 66.824,18.168 l 200.981,116.035 c 8.371,4.851 10.922,16.105 10.922,25.785 0,9.687 -2.551,20.949 -10.922,25.797 L 1168.48,322.234 c -20.539,11.925 -45.625,18.168 -69.378,18.168 l -1054.704,0 z" /><path
         id="path11077"
         style="fill:#ffffff;fill-opacity:1;fill-rule:nonzero;stroke:none"
         d="m 433.258,201.101 28.308,0 c 5.852,0 10.961,1.25 15.329,3.746 4.445,2.574 7.992,5.926 10.644,10.058 1.094,1.641 1.914,3.122 2.457,4.45 0.547,1.324 0.977,2.882 1.289,4.675 0.313,1.875 0.543,4.293 0.699,7.254 0.157,3.043 0.235,6.864 0.235,11.465 0,4.758 -0.039,8.426 -0.117,11 -0.079,2.653 -0.274,4.875 -0.582,6.668 -0.235,1.871 -0.665,3.547 -1.29,5.031 -0.546,1.481 -1.363,3.118 -2.457,4.914 -2.652,4.524 -6.16,7.993 -10.527,10.411 -4.367,2.418 -9.32,3.629 -14.859,3.629 l -29.129,0 0,-83.301 z m 12.633,71.367 15.093,0 c 3.508,0 6.395,-0.547 8.657,-1.641 2.261,-1.011 4.328,-2.804 6.199,-5.379 0.859,-1.171 1.523,-2.339 1.988,-3.511 0.547,-1.168 0.938,-2.575 1.172,-4.211 0.234,-1.559 0.391,-3.508 0.469,-5.848 0.078,-2.34 0.117,-5.539 0.117,-9.594 0,-4.136 -0.039,-7.371 -0.117,-9.711 -0.078,-2.339 -0.235,-4.211 -0.469,-5.617 -0.156,-1.324 -0.43,-2.496 -0.82,-3.508 -0.387,-0.937 -0.973,-1.988 -1.754,-3.16 -3.274,-4.836 -8.422,-7.254 -15.442,-7.254 l -15.093,0 0,59.434 z" /><path
         id="path11079"
         style="fill:#ffffff;fill-opacity:1;fill-rule:nonzero;stroke:none"
         d="m 551.984,226.257 0,9.824 c 0,3.746 -0.66,7.137 -1.988,10.18 -1.246,3.121 -3,5.769 -5.262,7.957 -2.261,2.262 -4.875,3.977 -7.839,5.144 -2.965,1.172 -6.082,1.758 -9.36,1.758 -3.043,0 -6.004,-0.547 -8.89,-1.64 -2.887,-1.09 -5.5,-2.844 -7.84,-5.262 -2.34,-2.34 -4.211,-5.5 -5.614,-9.477 -1.406,-3.98 -2.109,-8.699 -2.109,-14.156 0,-5.851 0.742,-10.765 2.227,-14.742 1.558,-3.898 3.586,-6.981 6.082,-9.242 2.574,-2.262 5.382,-3.86 8.422,-4.797 3.121,-0.938 6.32,-1.402 9.593,-1.402 4.133,0 8.035,0.777 11.699,2.339 3.668,1.559 6.903,3.977 9.711,7.254 l -8.656,7.367 c -1.719,-1.792 -3.746,-3.195 -6.086,-4.21 -2.261,-1.012 -4.562,-1.52 -6.902,-1.52 -4.211,0 -7.641,1.246 -10.293,3.742 -2.574,2.574 -3.863,6.203 -3.863,10.883 l 36.968,0 z m -36.968,9.824 c 0.156,4.367 1.367,7.762 3.629,10.18 2.339,2.418 5.304,3.625 8.89,3.625 3.586,0 6.512,-1.207 8.774,-3.625 2.339,-2.418 3.589,-5.813 3.746,-10.18 l -25.039,0 z" /><path
         id="path11081"
         style="fill:#ffffff;fill-opacity:1;fill-rule:nonzero;stroke:none"
         d="m 564.504,220.991 c 0,-3.199 0.547,-6.125 1.637,-8.773 1.172,-2.574 2.73,-4.758 4.679,-6.555 1.953,-1.715 4.098,-3.039 6.438,-3.976 2.418,-0.86 4.797,-1.285 7.137,-1.285 6.472,0 11.582,2.339 15.324,7.019 l 0.234,0 0,-6.32 11.934,0 0,59.316 -11.934,0 0,-35.332 c 0,-3.976 -1.094,-7.098 -3.277,-9.359 -2.184,-2.262 -4.992,-3.391 -8.422,-3.391 -3.434,0 -6.277,1.129 -8.539,3.391 -2.184,2.261 -3.277,5.383 -3.277,9.359 l 0,35.332 -11.934,0 0,-39.426 z" /><path
         id="path11083"
         style="fill:#ffffff;fill-opacity:1;fill-rule:nonzero;stroke:none"
         d="m 628.043,260.417 -5.965,0 0,-9.125 5.965,0 0,-35.566 c 0,-4.602 1.328,-8.188 3.977,-10.762 2.652,-2.574 6.125,-3.863 10.414,-3.863 l 6.199,0 0,11.234 -4.445,0 c -2.809,0 -4.211,1.481 -4.211,4.445 l 0,34.512 8.656,0 0,9.125 -8.656,0 0,18.016 -11.934,0 0,-18.016 z" /><path
         id="path11085"
         style="fill:#ffffff;fill-opacity:1;fill-rule:nonzero;stroke:none"
         d="m 653.238,211.046 c 7.563,-7.098 16.262,-10.644 26.09,-10.644 7.094,0 12.945,1.636 17.547,4.914 4.68,3.273 7.02,7.718 7.02,13.336 0,5.07 -1.403,9.203 -4.211,12.398 -2.809,3.199 -7.137,4.992 -12.989,5.383 l -9.824,0.703 c -2.808,0.234 -4.836,0.859 -6.086,1.871 -1.168,1.016 -1.754,2.262 -1.754,3.742 0,2.188 0.782,3.903 2.34,5.149 1.637,1.328 4.25,1.988 7.84,1.988 3.039,0 5.809,-0.465 8.305,-1.402 2.496,-0.938 5.031,-2.301 7.605,-4.094 l 7.371,8.656 c -3.121,2.652 -6.554,4.641 -10.297,5.969 -3.742,1.402 -8.074,2.105 -12.984,2.105 -6.477,0 -11.777,-1.601 -15.914,-4.797 -4.133,-3.121 -6.199,-7.605 -6.199,-13.457 0,-4.91 1.558,-8.851 4.679,-11.816 3.2,-2.961 7.332,-4.641 12.403,-5.027 l 10.527,-0.938 c 2.262,-0.156 4.016,-0.703 5.266,-1.637 1.324,-0.859 1.988,-2.261 1.988,-4.211 0,-2.417 -1.09,-4.292 -3.273,-5.617 -2.11,-1.324 -4.915,-1.988 -8.426,-1.988 -3.899,0 -7.332,0.625 -10.293,1.871 -2.965,1.246 -5.774,3.16 -8.426,5.734 l -8.305,-8.191 z" /><path
         id="path11087"
         style="fill:#ffffff;fill-opacity:1;fill-rule:nonzero;stroke:none"
         d="m 750.863,218.534 c -1.558,-1.871 -3.394,-3.394 -5.5,-4.562 -2.027,-1.094 -4.211,-1.637 -6.55,-1.637 -4.993,0 -8.813,1.481 -11.465,4.445 -2.653,3.04 -3.977,7.68 -3.977,13.922 0,6.317 1.324,10.957 3.977,13.922 2.652,3.039 6.472,4.563 11.465,4.563 2.339,0 4.523,-0.586 6.55,-1.758 2.106,-1.09 3.942,-2.57 5.5,-4.445 l 8.774,7.839 c -2.731,3.2 -5.887,5.696 -9.477,7.489 -3.586,1.871 -7.527,2.808 -11.816,2.808 -3.508,0 -6.864,-0.586 -10.059,-1.758 -3.199,-1.167 -6.086,-3 -8.66,-5.496 -2.574,-2.418 -4.602,-5.578 -6.082,-9.476 -1.402,-3.903 -2.105,-8.465 -2.105,-13.688 0,-5.226 0.742,-9.789 2.222,-13.687 1.481,-3.824 3.469,-6.985 5.965,-9.477 2.496,-2.418 5.344,-4.215 8.543,-5.383 3.273,-1.171 6.668,-1.753 10.176,-1.753 4.289,0 8.23,0.894 11.816,2.687 3.59,1.875 6.746,4.41 9.477,7.606 l -8.774,7.839 z" /><path
         id="path11089"
         style="fill:#ffffff;fill-opacity:1;fill-rule:nonzero;stroke:none"
         d="m 767.867,201.101 11.934,0 0,35.332 c 0,3.976 1.094,7.097 3.277,9.359 2.262,2.262 5.11,3.395 8.539,3.395 3.434,0 6.242,-1.133 8.426,-3.395 2.184,-2.262 3.273,-5.383 3.273,-9.359 l 0,-35.332 11.934,0 0,39.426 c 0,3.277 -0.586,6.203 -1.754,8.777 -1.094,2.574 -2.613,4.719 -4.562,6.433 -1.95,1.793 -4.094,3.122 -6.434,3.977 -2.34,0.938 -4.68,1.406 -7.02,1.406 -6.554,0 -11.699,-2.34 -15.445,-7.019 l -0.234,0 0,30.301 -11.934,0 0,-83.301 z" /><path
         id="path11091"
         style="fill:#ffffff;fill-opacity:1;fill-rule:nonzero;stroke:none"
         d="m 876.684,226.257 0,9.824 c 0,3.746 -0.664,7.137 -1.989,10.18 -1.25,3.121 -3.004,5.769 -5.265,7.957 -2.262,2.262 -4.875,3.977 -7.836,5.144 -2.965,1.172 -6.086,1.758 -9.36,1.758 -3.043,0 -6.007,-0.547 -8.894,-1.64 -2.883,-1.09 -5.496,-2.844 -7.836,-5.262 -2.34,-2.34 -4.211,-5.5 -5.617,-9.477 -1.403,-3.98 -2.106,-8.699 -2.106,-14.156 0,-5.851 0.742,-10.765 2.223,-14.742 1.559,-3.898 3.59,-6.981 6.082,-9.242 2.574,-2.262 5.383,-3.86 8.426,-4.797 3.121,-0.938 6.316,-1.402 9.593,-1.402 4.133,0 8.032,0.777 11.7,2.339 3.664,1.559 6.902,3.977 9.711,7.254 l -8.661,7.367 c -1.714,-1.792 -3.742,-3.195 -6.082,-4.21 -2.261,-1.012 -4.562,-1.52 -6.902,-1.52 -4.211,0 -7.644,1.246 -10.297,3.742 -2.574,2.574 -3.859,6.203 -3.859,10.883 l 36.969,0 z m -36.969,9.824 c 0.156,4.367 1.363,7.762 3.625,10.18 2.34,2.418 5.305,3.625 8.894,3.625 3.586,0 6.512,-1.207 8.774,-3.625 2.34,-2.418 3.586,-5.813 3.742,-10.18 l -25.035,0 z" /><path
         id="path11093"
         style="fill:#ffffff;fill-opacity:1;fill-rule:nonzero;stroke:none"
         d="m 433.258,77.097 52.789,0 0,11.832 -40.262,0 0,70.773 -12.527,0 0,-82.605 z" /><path
         id="path11095"
         style="fill:#ffffff;fill-opacity:1;fill-rule:nonzero;stroke:none"
         d="m 497.145,77.097 11.832,0 0,58.824 -11.832,0 0,-58.824 z m 0,70.773 11.832,0 0,11.832 -11.832,0 0,-11.832 z" /><path
         id="path11097"
         style="fill:#ffffff;fill-opacity:1;fill-rule:nonzero;stroke:none"
         d="m 525.363,77.097 11.836,0 0,35.039 c 0,3.945 1.082,7.039 3.246,9.281 2.243,2.242 5.067,3.363 8.469,3.363 3.406,0 6.191,-1.121 8.356,-3.363 2.164,-2.242 3.25,-5.336 3.25,-9.281 l 0,-35.039 11.832,0 0,35.039 c 0,3.945 1.082,7.039 3.25,9.281 2.242,2.242 5.066,3.363 8.468,3.363 3.403,0 6.188,-1.121 8.356,-3.363 2.164,-2.242 3.246,-5.336 3.246,-9.281 l 0,-35.039 11.836,0 0,39.098 c 0,3.25 -0.582,6.148 -1.742,8.703 -1.082,2.55 -2.59,4.679 -4.524,6.382 -1.933,1.778 -4.062,3.094 -6.383,3.942 -2.32,0.93 -4.64,1.394 -6.961,1.394 -4.019,0 -7.539,-0.621 -10.558,-1.855 -2.938,-1.238 -5.606,-3.172 -8.004,-5.805 -2.477,2.555 -4.91,4.449 -7.309,5.688 -2.398,1.312 -5.492,1.972 -9.281,1.972 -6.5,0 -11.605,-2.32 -15.316,-6.961 l -0.231,0 0,6.266 -11.836,0 0,-58.824 z" /><path
         id="path11099"
         style="fill:#ffffff;fill-opacity:1;fill-rule:nonzero;stroke:none"
         d="m 669.063,102.042 0,9.746 c 0,3.711 -0.657,7.074 -1.973,10.094 -1.235,3.094 -2.977,5.723 -5.219,7.887 -2.242,2.246 -4.836,3.945 -7.773,5.105 -2.942,1.16 -6.035,1.742 -9.282,1.742 -3.019,0 -5.957,-0.543 -8.82,-1.625 -2.859,-1.082 -5.453,-2.824 -7.773,-5.222 -2.321,-2.321 -4.176,-5.453 -5.567,-9.395 -1.394,-3.945 -2.09,-8.625 -2.09,-14.039 0,-5.801 0.735,-10.676 2.204,-14.621 1.546,-3.867 3.558,-6.922 6.035,-9.164 2.55,-2.242 5.336,-3.828 8.351,-4.758 3.094,-0.93 6.266,-1.39 9.516,-1.39 4.098,0 7.965,0.773 11.601,2.32 3.637,1.547 6.848,3.945 9.629,7.191 l -8.586,7.309 c -1.699,-1.777 -3.711,-3.168 -6.031,-4.176 -2.242,-1.004 -4.523,-1.508 -6.844,-1.508 -4.179,0 -7.582,1.239 -10.211,3.711 -2.554,2.555 -3.828,6.153 -3.828,10.793 l 36.661,0 z m -36.661,9.746 c 0.153,4.328 1.352,7.696 3.594,10.094 2.32,2.398 5.262,3.594 8.82,3.594 3.559,0 6.457,-1.196 8.7,-3.594 2.32,-2.398 3.558,-5.766 3.714,-10.094 l -24.828,0 z" /><path
         id="path11101"
         style="fill:#ffffff;fill-opacity:1;fill-rule:nonzero;stroke:none"
         d="m 674.98,86.956 c 7.504,-7.035 16.129,-10.554 25.875,-10.554 7.04,0 12.84,1.621 17.403,4.871 4.64,3.25 6.961,7.656 6.961,13.226 0,5.028 -1.391,9.129 -4.176,12.297 -2.785,3.172 -7.078,4.953 -12.879,5.34 l -9.746,0.695 c -2.785,0.231 -4.797,0.852 -6.035,1.856 -1.16,1.008 -1.738,2.242 -1.738,3.715 0,2.164 0.773,3.867 2.32,5.101 1.625,1.317 4.215,1.973 7.773,1.973 3.016,0 5.762,-0.461 8.239,-1.391 2.472,-0.93 4.988,-2.281 7.539,-4.062 l 7.312,8.586 c -3.098,2.632 -6.5,4.605 -10.211,5.918 -3.715,1.394 -8.008,2.089 -12.879,2.089 -6.422,0 -11.679,-1.586 -15.781,-4.757 -4.098,-3.094 -6.148,-7.543 -6.148,-13.344 0,-4.871 1.546,-8.778 4.64,-11.719 3.172,-2.937 7.274,-4.601 12.301,-4.988 l 10.441,-0.926 c 2.243,-0.156 3.985,-0.699 5.219,-1.625 1.317,-0.852 1.973,-2.242 1.973,-4.176 0,-2.398 -1.082,-4.254 -3.246,-5.57 -2.09,-1.316 -4.875,-1.973 -8.356,-1.973 -3.867,0 -7.269,0.617 -10.211,1.856 -2.937,1.238 -5.722,3.133 -8.351,5.687 l -8.239,-8.125 z" /><path
         id="path11103"
         style="fill:#ffffff;fill-opacity:1;fill-rule:nonzero;stroke:none"
         d="m 735.715,115.152 34.922,0 0,-11.836 -34.922,0 0,11.836 z" /><path
         id="path11105"
         style="fill:#ffffff;fill-opacity:1;fill-rule:nonzero;stroke:none"
         d="m 778.207,87.769 c 8.586,-7.578 19.106,-11.367 31.559,-11.367 8.972,0 16.05,2.125 21.234,6.378 5.18,4.254 7.773,10.133 7.773,17.637 0,6.031 -1.933,11.293 -5.804,15.778 -3.867,4.488 -9.473,7.156 -16.821,8.007 -3.093,0.387 -6.187,0.813 -9.281,1.274 -3.945,0.621 -6.887,1.898 -8.82,3.832 -1.934,1.933 -2.899,4.176 -2.899,6.726 0,3.793 1.274,6.692 3.829,8.703 2.628,2.09 5.957,3.133 9.976,3.133 3.559,0 7.039,-0.582 10.442,-1.742 3.48,-1.082 6.808,-2.629 9.98,-4.641 l 6.961,10.329 c -4.023,2.707 -8.277,4.793 -12.762,6.265 -4.488,1.547 -9.168,2.321 -14.039,2.321 -8.355,0 -14.93,-2.247 -19.726,-6.731 -4.793,-4.41 -7.192,-10.211 -7.192,-17.402 0,-6.114 1.895,-11.254 5.684,-15.434 3.867,-4.176 9.281,-6.765 16.246,-7.773 1.312,-0.153 2.937,-0.387 4.871,-0.696 2.937,-0.386 4.949,-0.656 6.031,-0.812 3.637,-0.465 6.344,-1.699 8.125,-3.711 1.778,-1.934 2.668,-4.41 2.668,-7.426 0,-3.48 -1.469,-6.265 -4.41,-8.355 -2.937,-2.086 -6.922,-3.133 -11.949,-3.133 -4.332,0 -8.547,0.738 -12.649,2.207 -4.019,1.469 -7.617,3.48 -10.789,6.031 l -8.238,-9.398 z" /><path
         id="path11107"
         style="fill:#ffffff;fill-opacity:1;fill-rule:nonzero;stroke:none"
         d="m 851.676,135.921 -5.918,0 0,-9.051 5.918,0 0,-35.269 c 0,-4.567 1.316,-8.125 3.945,-10.676 2.629,-2.551 6.07,-3.828 10.324,-3.828 l 6.149,0 0,11.137 -4.406,0 c -2.786,0 -4.18,1.468 -4.18,4.41 l 0,34.226 8.586,0 0,9.051 -8.586,0 0,17.867 -11.832,0 0,-17.867 z" /><path
         id="path11109"
         style="fill:#ffffff;fill-opacity:1;fill-rule:nonzero;stroke:none"
         d="m 883.156,77.097 11.836,0 0,35.387 c 0,4.019 1.121,7.078 3.363,9.164 2.243,2.089 4.95,3.132 8.122,3.132 1.472,0 2.785,-0.23 3.945,-0.695 1.16,-0.387 2.437,-1.121 3.828,-2.203 l 8.586,10.207 c -3.867,3.02 -7.965,4.527 -12.297,4.527 -6.496,0 -11.601,-2.32 -15.316,-6.961 l -0.231,0 0,6.266 -11.836,0 0,-58.824 z" /><path
         id="path11111"
         style="fill:#ffffff;fill-opacity:1;fill-rule:nonzero;stroke:none"
         d="m 957.074,77.097 11.836,0 0,40.144 c 0,6.883 -2.168,11.832 -6.5,14.848 -4.254,3.02 -10.246,4.527 -17.98,4.527 -4.567,0 -8.473,-0.695 -11.719,-2.089 -3.25,-1.313 -5.957,-3.481 -8.121,-6.497 l 9.281,-7.078 c 1.082,1.703 2.434,2.864 4.059,3.481 1.625,0.695 3.984,1.043 7.078,1.043 4.332,0 7.426,-0.578 9.281,-1.739 1.856,-1.082 2.785,-3.015 2.785,-5.8 l 0,-6.149 -16.359,0 c -6.031,0 -10.75,-1.664 -14.156,-4.992 -3.325,-3.324 -4.989,-7.461 -4.989,-12.414 0,-5.258 1.86,-9.59 5.571,-12.992 3.711,-3.328 8.777,-4.988 15.199,-4.988 3.945,0 7.039,0.46 9.281,1.39 2.242,0.93 3.984,2.438 5.223,4.524 l 0.23,0 0,-5.219 z m 0,20.652 c 0,-4.41 -0.89,-7.234 -2.668,-8.469 -1.781,-1.164 -5.301,-1.742 -10.558,-1.742 -3.789,0 -6.614,0.696 -8.469,2.09 -1.781,1.391 -2.668,3.168 -2.668,5.336 0,2.242 0.848,3.984 2.551,5.219 1.703,1.238 4.254,1.859 7.656,1.859 l 14.156,0 0,-4.293 z" /><path
         id="path11113"
         style="fill:#ffffff;fill-opacity:1;fill-rule:nonzero;stroke:none"
         d="m 1006.266,121.882 6.847,0 c 4.332,0 6.496,-2.281 6.496,-6.848 l 0,-20.652 c 0,-2.32 -0.578,-3.941 -1.738,-4.871 -1.086,-0.852 -3.055,-1.277 -5.918,-1.277 l -4.176,0 0,-11.137 7.309,0 c 4.793,0 8.699,1.586 11.719,4.758 3.093,3.246 4.64,7.23 4.64,11.949 l 0,21 c 0,6.344 -2.824,10.637 -8.468,12.879 5.644,2.398 8.468,6.765 8.468,13.109 0,5.957 -2.09,10.711 -6.265,14.27 -4.176,3.558 -9.668,5.34 -16.477,5.34 -7.426,0 -13.418,-1.665 -17.984,-4.993 -4.485,-3.246 -6.727,-8.004 -6.727,-14.269 l 0,-64.043 11.832,0 0,64.043 c 0.156,2.476 1.086,4.293 2.785,5.453 1.782,1.238 4.758,1.894 8.934,1.973 2.168,0 4.215,-0.231 6.148,-0.696 1.934,-0.465 3.289,-1.043 4.063,-1.742 0.695,-0.695 1.16,-1.508 1.391,-2.433 0.312,-0.93 0.464,-2.208 0.464,-3.833 0,-2.472 -0.539,-4.253 -1.625,-5.335 -1.082,-1.004 -2.629,-1.508 -4.64,-1.508 l -7.078,0 0,-11.137 z" /><path
         id="path11115"
         style="fill:#ffffff;fill-opacity:1;fill-rule:nonzero;stroke:none"
         d="m 1092.137,102.042 0,9.746 c 0,3.711 -0.657,7.074 -1.973,10.094 -1.238,3.094 -2.976,5.723 -5.223,7.887 -2.242,2.246 -4.832,3.945 -7.773,5.105 -2.938,1.16 -6.031,1.742 -9.281,1.742 -3.016,0 -5.953,-0.543 -8.817,-1.625 -2.863,-1.082 -5.453,-2.824 -7.773,-5.222 -2.32,-2.321 -4.176,-5.453 -5.57,-9.395 -1.391,-3.945 -2.086,-8.625 -2.086,-14.039 0,-5.801 0.734,-10.676 2.203,-14.621 1.547,-3.867 3.558,-6.922 6.035,-9.164 2.551,-2.242 5.336,-3.828 8.351,-4.758 3.094,-0.93 6.266,-1.39 9.516,-1.39 4.098,0 7.965,0.773 11.602,2.32 3.632,1.547 6.843,3.945 9.629,7.191 l -8.586,7.309 c -1.703,-1.777 -3.711,-3.168 -6.032,-4.176 -2.246,-1.004 -4.527,-1.508 -6.847,-1.508 -4.176,0 -7.578,1.239 -10.211,3.711 -2.551,2.555 -3.828,6.153 -3.828,10.793 l 36.664,0 z m -36.664,9.746 c 0.156,4.328 1.355,7.696 3.597,10.094 2.321,2.398 5.262,3.594 8.817,3.594 3.558,0 6.461,-1.196 8.703,-3.594 2.32,-2.398 3.558,-5.766 3.711,-10.094 l -24.828,0 z" /><path
         id="path11117"
         style="fill:#ffffff;fill-opacity:1;fill-rule:nonzero;stroke:none"
         d="m 235.938,60.402 -120,120.011 120,119.989 120,-119.989 -120,-120.011 z" /><path
         id="path11119"
         style="fill:#633a34;fill-opacity:1;fill-rule:evenodd;stroke:none"
         d="m 208.184,250.351 c 0,0 -37.028,-11.254 -37.106,-54.473 -0.074,-43.219 33.172,-53.117 33.172,-53.117 1.109,-0.402 1.125,-0.418 1.125,-1.594 0,-2.008 -0.875,-4.347 -2.191,-5.805 -2.157,-2.394 -5.383,-3.445 -11.559,-3.761 l -3.34,-0.168 0,-2.731 106.86,0 0,55.102 c -0.125,-0.492 -0.641,-2.727 -1.149,-4.981 -2.09,-9.195 -4.918,-15.218 -10.738,-22.89 -2.528,-3.328 -8.903,-9.707 -12.199,-12.215 -9.11,-6.91 -17.848,-10.648 -27.672,-11.832 -2.25,-0.274 -7.309,-0.359 -21.723,-0.367 l -18.789,-0.008 1.766,1.766 c 1.218,1.214 2.015,2.293 2.586,3.5 l 0.824,1.75 0.074,55.918 0.059,55.906 z" /><path
         id="path11121"
         style="fill:#633a34;fill-opacity:1;fill-rule:evenodd;stroke:none"
         d="m 228.59,254.484 0,-118.864 0.832,-0.101 c 2.043,-0.25 4.566,-0.235 7.281,0.023 19.121,0.617 36.555,12.106 45.945,30.281 0.274,0.5 0.547,1.008 0.797,1.516 0.153,0.301 0.293,0.602 0.446,0.898 2.429,5.02 4.179,10.442 5.129,16.133 0.535,3.215 0.812,6.907 0.843,10.582 0,0 0.035,3.809 -0.91,9.516 -0.805,5.406 -2.281,10.672 -4.414,15.641 -0.426,1.046 -0.891,2.097 -1.398,3.148 -0.067,0.141 -0.133,0.273 -0.192,0.406 -3.601,7.399 -9.051,14.867 -17.34,20.621 -9,6.629 -19.613,10.184 -30.472,10.2 l -6.547,0 z m 6.098,-4.047 c 28.164,0 51,-24.891 51,-55.602 0,-30.707 -22.836,-55.601 -51,-55.601 -0.442,0.015 -0.891,0.043 -1.333,0.074 l 0,0.051 -0.191,-0.016 0.141,5.816 0.05,0 2.958,0.075 3.015,0.074 0,3.168 -6.148,0 0,7.523 6.121,0 0,3.317 -6.121,0 0.066,45.468 0.059,45.461 0.05,0 c 0.016,0 0.024,0 0.032,0.008 l 0,0.106 c 0.433,0.027 0.867,0.058 1.301,0.078 z" /><path
         id="path11123"
         style="fill:#633a34;fill-opacity:1;fill-rule:evenodd;stroke:none"
         d="m 239.301,186.987 0,20.028 -4.332,0 0,12.758 4.332,0 0,2.777 -2.621,0.082 -2.633,0.066 10.812,9.149 c 5.95,5.035 10.973,9.172 11.161,9.191 0.199,0.016 5.25,-4.101 11.23,-9.156 l 10.871,-9.184 -2.582,-0.074 -2.566,-0.074 0,-2.777 4.59,0 0,-12.758 -4.59,0 0,-34.961 -4.473,0.141 -0.059,17.414 -0.066,17.406 -24.48,0 0,-37.242 5.355,0 0,-2.801 -9.949,0 0,20.015 z m 33.621,26.469 0.07,1.719 -33.691,0 0,-3.57 16.773,0.062 16.766,0.067 0.082,1.722 z m -19.336,7.715 0,1.152 -9.441,0 0,-2.3 9.441,0 0,1.148 z m 14.539,0 0,1.152 -9.441,0 0,-2.3 9.441,0 0,1.148 z m -6.117,9.375 c -2.559,2.133 -4.973,4.152 -5.356,4.469 l -0.707,0.582 -1.629,-1.473 c -0.898,-0.812 -3.062,-2.668 -4.812,-4.129 -1.754,-1.457 -3.359,-2.808 -3.566,-2.996 -0.309,-0.285 1.332,-0.344 10.171,-0.344 l 10.547,0 -4.648,3.891 z" /><path
         id="path11125"
         style="fill:#633a34;fill-opacity:1;fill-rule:evenodd;stroke:none"
         d="m 252.059,168.37 0,1.403 6.375,0 0,-2.801 -6.375,0 0,1.398 z" /><path
         id="path11127"
         style="fill:#633a34;fill-opacity:1;fill-rule:evenodd;stroke:none"
         d="m 261.234,168.37 0,1.403 6.633,0 0,-2.801 -6.633,0 0,1.398 z" /><path
         id="path11129"
         style="fill:#633a34;fill-opacity:1;fill-rule:evenodd;stroke:none"
         d="m 270.68,168.37 0,1.403 6.629,0 0,-2.801 -6.629,0 0,1.398 z" /><path
         id="path11131"
         style="fill:#633a34;fill-opacity:1;fill-rule:evenodd;stroke:none"
         d="m 266.09,162.89 0,1.547 3.117,-0.075 3.133,-0.066 0.07,-1.473 0.074,-1.461 -6.394,0 0,1.528 z" /><path
         id="path11133"
         style="fill:#633a34;fill-opacity:1;fill-rule:evenodd;stroke:none"
         d="m 256.895,162.757 0,1.406 2.687,0.035 c 1.469,0.024 2.816,0.051 2.992,0.067 0.219,0.015 0.344,-0.461 0.399,-1.442 l 0.07,-1.461 -6.148,0 0,1.395 z" /><path
         id="path11135"
         style="fill:#633a34;fill-opacity:1;fill-rule:evenodd;stroke:none"
         d="m 261.234,157.655 0,1.661 6.633,0 0,-3.309 -6.633,0 0,1.648 z" /><path
         id="path11137"
         style="fill:#633a34;fill-opacity:1;fill-rule:evenodd;stroke:none"
         d="m 252.059,157.655 0,1.661 6.375,0 0,-3.309 -6.375,0 0,1.648 z" /><path
         id="path11139"
         style="fill:#633a34;fill-opacity:1;fill-rule:evenodd;stroke:none"
         d="m 242.613,157.655 0,1.661 6.637,0 0,-3.309 -6.637,0 0,1.648 z" /><path
         id="path11141"
         style="fill:#633a34;fill-opacity:1;fill-rule:evenodd;stroke:none"
         d="m 247.461,162.882 0,1.539 6.375,0 0,-3.059 -6.375,0 0,1.52 z" /><path
         id="path11143"
         style="fill:#633a34;fill-opacity:1;fill-rule:evenodd;stroke:none"
         d="m 238.285,162.757 0,1.406 6.117,0 0,-2.801 -6.117,0 0,1.395 z" /><path
         id="path11145"
         style="fill:#633a34;fill-opacity:1;fill-rule:evenodd;stroke:none"
         d="m 238.285,152.175 0,1.531 6.117,0 0,-3.066 -6.117,0 0,1.535 z" /><path
         id="path11147"
         style="fill:#633a34;fill-opacity:1;fill-rule:evenodd;stroke:none"
         d="m 247.461,152.175 0,1.531 6.375,0 0,-3.066 -6.375,0 0,1.535 z" /><path
         id="path11149"
         style="fill:#633a34;fill-opacity:1;fill-rule:evenodd;stroke:none"
         d="m 256.895,152.175 0,1.531 6.128,0 0,-3.066 -6.128,0 0,1.535 z" /><path
         id="path11151"
         style="fill:#633a34;fill-opacity:1;fill-rule:evenodd;stroke:none"
         d="m 242.613,148.476 c 2.172,0.105 6.508,0 6.508,0 l 0,-3.192 -6.508,0 0,3.192 z" /><path
         id="path11153"
         style="fill:#633a34;fill-opacity:1;fill-rule:evenodd;stroke:none"
         d="m 251.57,146.948 0,1.528 6.379,0 0,-3.059 -6.379,0 0,1.531 z" /><path
         id="path11155"
         style="fill:#000000;fill-opacity:1;fill-rule:nonzero;stroke:none"
         d="M 40.398,360.8 C 18.094,360.8 0,342.706 0,320.402 l 0,-280 C 0,18.089 18.094,-0.001 40.398,-0.001 l 1058.704,0 c 28.453,0 56.488,7.535 81.089,21.746 l 193.676,111.938 c 16.625,9.621 26.934,27.504 26.934,46.703 0,19.215 -10.305,37.105 -26.934,46.68 l -193.676,111.957 c -24.628,14.238 -52.66,21.777 -81.089,21.777 l -1058.704,0 z m 0,-0.398 1058.704,0 c 28.355,0 56.324,-7.524 80.89,-21.727 l 193.672,-111.953 c 16.504,-9.504 26.734,-27.266 26.734,-46.336 0,-19.059 -10.23,-36.805 -26.734,-46.356 L 1179.992,22.089 C 1155.453,7.913 1127.484,0.402 1099.102,0.402 l -1058.704,0 c -22.085,0 -40,17.906 -40,40 l 0,280 c 0,22.089 17.915,40 40,40 z" /></g></g></svg>