<?xml version="1.0" encoding="UTF-8" standalone="no"?>
<svg
   xmlns:dc="http://purl.org/dc/elements/1.1/"
   xmlns:cc="http://creativecommons.org/ns#"
   xmlns:rdf="http://www.w3.org/1999/02/22-rdf-syntax-ns#"
   xmlns:svg="http://www.w3.org/2000/svg"
   xmlns="http://www.w3.org/2000/svg"
   viewBox="0 0 1754.5447 454.54456"
   height="454.54456"
   width="1754.5447"
   xml:space="preserve"
   version="1.1"
   id="svg12065"><metadata
     id="metadata12071"><rdf:RDF><cc:Work
         rdf:about=""><dc:format>image/svg+xml</dc:format><dc:type
           rdf:resource="http://purl.org/dc/dcmitype/StillImage" /><dc:title></dc:title></cc:Work></rdf:RDF></metadata><defs
     id="defs12069" /><g
     transform="matrix(1.25,0,0,-1.25,0,454.54456)"
     id="g12073"><g
       id="g12075"><path
         id="path12077"
         style="fill:#ffffff;fill-opacity:1;fill-rule:nonzero;stroke:none"
         d="m 1361.523,361.843 c 22.09,0 40,-17.91 40,-40 l 0,-280 c 0,-22.094 -17.91,-40 -40,-40 l -1058.699,0 c -28.386,0 -56.351,7.515 -80.89,21.691 L 28.258,135.472 c -16.504,9.55 -26.735,27.3 -26.735,46.359 0,19.07 10.231,36.828 26.735,46.332 L 221.934,340.12 c 24.566,14.203 52.531,21.723 80.89,21.723 l 1058.699,0 z" /><path
         id="path12079"
         style="fill:#633a34;fill-opacity:1;fill-rule:evenodd;stroke:none"
         d="m 1353.523,337.843 c 13.254,0 24,-10.746 24,-24 l 0,-264 c 0,-13.254 -10.746,-24 -24,-24 l -1053.257,0 c -23.758,0 -45.164,6.269 -65.703,18.168 L 36.441,158.366 c -8.371,4.852 -10.921,13.789 -10.921,23.465 0,9.691 2.55,18.633 10.921,23.477 l 198.122,114.367 c 20.539,11.925 44.503,18.168 68.261,18.168 l 1050.699,0 z" /><path
         id="path12081"
         style="fill:#000000;fill-opacity:1;fill-rule:nonzero;stroke:none"
         d="m 1361.523,362.241 c 22.305,0 40.399,-18.09 40.399,-40.398 l 0,-280 c 0,-22.309 -18.094,-40.403 -40.399,-40.403 l -1058.699,0 c -28.457,0 -56.492,7.539 -81.09,21.75 L 28.055,135.128 c -16.625,9.621 -26.934,27.504 -26.934,46.703 0,19.215 10.309,37.105 26.934,46.68 l 193.679,111.957 c 24.625,14.238 52.661,21.773 81.09,21.773 l 1058.699,0 z m 0,-0.398 -1058.699,0 c -28.359,0 -56.324,-7.52 -80.89,-21.723 L 28.258,228.163 C 11.754,218.659 1.523,200.901 1.523,181.831 c 0,-19.059 10.231,-36.809 26.735,-46.359 L 221.934,23.534 C 246.473,9.358 274.438,1.843 302.824,1.843 l 1058.699,0 c 22.09,0 40,17.906 40,40 l 0,280 c 0,22.09 -17.91,40 -40,40 z" /><path
         id="path12083"
         style="fill:#ffffff;fill-opacity:1;fill-rule:evenodd;stroke:none"
         d="m 407.59,261.843 160,0 0,-160 -160,0 0,160 z" /><path
         id="path12085"
         style="fill:#633a34;fill-opacity:1;fill-rule:evenodd;stroke:none"
         d="m 498.121,119.479 -21.168,0 0,19.688 0.11,1.117 0.105,0.934 0.301,1.054 0.316,0.821 0.41,0.84 0.618,0.714 0.515,0.735 0.707,0.515 0.727,0.61 0.812,0.426 0.942,0.414 0.918,0.304 0.918,0.211 1.027,0.199 1.027,0.122 1.133,0.085 1.133,-0.085 1.023,-0.122 1.032,-0.199 0.918,-0.211 0.937,-0.304 0.922,-0.414 0.812,-0.426 0.723,-0.61 0.731,-0.515 0.617,-0.735 0.5,-0.714 0.422,-0.84 0.296,-0.821 0.321,-1.054 0.09,-0.934 0.105,-1.117 0,-19.688 z m -42.844,128.977 -7.418,0 0,-8.586 -3.164,0 0,8.586 -7.418,0 0,-8.586 -3.082,0 0,8.586 -7.398,0 0,-133.227 121.586,0 0,117.172 -8.531,0 0,-8.5 -4.211,0 0,8.5 -8.422,0 0,-37.297 -12.762,0 0,14.918 -8.426,8.61 -8.426,-8.61 0,-14.918 -12.738,0 0,14.918 -8.426,8.61 -8.425,-8.61 0,-14.918 -12.739,0 0,53.352 z" /><path
         id="path12087"
         style="fill:#ffffff;fill-opacity:1;fill-rule:evenodd;stroke:none"
         d="m 652.645,224.237 54.937,0 0,-12.379 -41.965,0 0,-25.363 35.879,0 0,-11.5 -35.879,0 0,-36.953 -12.972,0 0,86.195 z m 89.335,-36.152 -1.394,-0.09 -1.219,-0.273 -1.32,-0.258 -1.121,-0.438 -1.137,-0.531 -1.125,-0.695 -0.961,-0.789 -0.961,-0.801 -0.777,-0.953 -0.781,-0.969 -0.618,-1.148 -0.613,-1.137 -0.433,-1.133 -0.258,-1.242 -0.27,-1.317 0,-1.316 25.957,0 -0.09,1.316 -0.164,1.317 -0.359,1.242 -0.438,1.133 -0.523,1.137 -0.687,1.148 -0.711,0.969 -0.852,0.953 -0.957,0.801 -0.961,0.789 -1.051,0.695 -1.14,0.531 -1.211,0.438 -1.219,0.258 -1.301,0.273 -1.305,0.09 z m -4.886,-37.574 0.793,-0.278 1.558,-0.511 0.793,-0.18 0.782,-0.094 0.781,-0.074 0.867,-0.106 1.738,0 0.871,0.106 0.961,0.074 0.883,0.184 1.817,0.511 1.664,0.711 0.781,0.348 0.867,0.441 0.777,0.528 0.707,0.531 0.688,0.606 0.707,0.621 0.691,0.621 0.614,0.695 9.312,-7.992 -1.125,-1.223 -1.141,-1.137 -1.121,-1.058 -1.308,-0.969 -1.227,-0.879 -1.398,-0.875 -1.305,-0.789 -1.391,-0.711 -1.472,-0.605 -1.485,-0.528 -1.48,-0.441 -1.563,-0.438 -1.484,-0.257 -1.574,-0.274 -1.649,-0.09 -2.968,0 -1.383,0.09 -1.395,0.184 -1.3,0.258 -1.395,0.269 -1.398,0.348 -1.301,0.441 -1.301,0.528 -1.758,0.789 -1.648,0.875 -1.563,0.953 -1.574,1.152 -1.394,1.227 -1.305,1.406 -1.125,1.406 -1.137,1.5 -0.961,1.574 -0.867,1.664 -0.781,1.665 -0.617,1.847 -0.43,1.754 -0.348,1.848 -0.254,1.933 -0.093,1.926 0,12.379 0.093,1.223 0.09,1.32 0.164,1.238 0.18,1.317 0.254,1.226 0.344,1.137 0.441,1.223 0.43,1.152 0.527,1.133 0.523,1.062 0.614,1.059 0.691,1.043 0.703,1.058 0.688,0.879 0.785,0.953 1.734,1.758 0.961,0.801 0.871,0.695 1.051,0.696 1.047,0.711 1.035,0.605 1.051,0.531 1.137,0.532 1.129,0.437 1.21,0.438 1.141,0.347 1.215,0.274 1.305,0.164 1.226,0.183 1.305,0.09 1.308,0.078 1.211,-0.078 1.305,-0.09 1.309,-0.183 1.211,-0.164 1.23,-0.274 1.215,-0.347 1.141,-0.438 1.125,-0.437 1.14,-0.532 1.125,-0.531 1.047,-0.605 0.961,-0.711 1.031,-0.696 0.961,-0.695 0.871,-0.801 1.739,-1.758 0.796,-0.953 0.688,-0.879 0.781,-1.058 0.613,-1.043 0.618,-1.059 0.523,-1.062 0.524,-1.133 0.421,-1.152 0.45,-1.223 0.343,-1.137 0.258,-1.226 0.27,-1.317 0.074,-1.238 0.176,-1.32 0,-12.028 -38.145,0 0,-2.531 0.094,-0.969 0.176,-0.98 0.258,-0.953 0.343,-0.879 0.36,-0.879 0.433,-0.879 0.528,-0.785 0.597,-0.785 0.617,-0.805 0.614,-0.605 0.781,-0.696 0.781,-0.543 0.778,-0.515 0.871,-0.532 0.871,-0.343 z m 60.605,-12.473 -1.398,0 -1.395,0.258 -1.304,0.363 -1.301,0.438 -1.219,0.605 -1.137,0.711 -1.031,0.789 -0.965,0.879 -0.867,0.969 -0.777,1.043 -0.711,1.148 -0.61,1.227 -0.437,1.316 -0.344,1.316 -0.168,1.317 -0.09,1.406 0,72.414 12.192,0 0,-70.836 0.09,-0.789 0.257,-0.711 0.344,-0.699 0.434,-0.527 0.527,-0.442 0.688,-0.343 0.687,-0.258 0.797,-0.09 5.324,0 0,-11.504 -7.586,0 z m 38.473,37.652 -0.508,0.09 -0.617,0.18 -0.512,0.168 -0.519,0.183 -0.543,0.27 -0.512,0.348 -0.43,0.351 -0.347,0.348 -0.434,0.437 -0.27,0.532 -0.347,0.437 -0.164,0.531 -0.196,0.528 -0.16,0.605 -0.093,0.531 0,0.621 0.093,1.043 0.266,1.059 0.344,0.879 0.617,0.879 0.691,0.695 0.778,0.621 0.882,0.528 0.946,0.347 0.781,0.094 0.687,0.164 0.797,0.18 0.782,0.094 0.687,0.074 0.809,0 0.781,0.09 0.691,0 2.168,-0.09 2.192,-0.258 2.07,-0.527 2.098,-0.606 2.011,-0.789 1.903,-0.969 1.922,-1.148 1.734,-1.317 7.574,9.657 -1.215,0.968 -1.379,0.969 -1.316,0.875 -1.383,0.785 -1.41,0.711 -1.48,0.7 -1.473,0.605 -1.465,0.621 -1.504,0.438 -1.574,0.437 -1.465,0.348 -1.578,0.351 -1.559,0.27 -1.664,0.078 -1.543,0.18 -2.714,0 -1.141,-0.075 -1.125,-0.105 -1.125,-0.078 -1.137,-0.18 -1.039,-0.168 -1.121,-0.18 -1.062,-0.257 -1.579,-0.438 -1.378,-0.531 -1.411,-0.711 -1.289,-0.785 -1.304,-0.879 -1.137,-0.953 -1.035,-1.059 -0.973,-1.137 -0.945,-1.242 -0.785,-1.316 -0.614,-1.391 -0.593,-1.406 -0.454,-1.5 -0.347,-1.484 -0.18,-1.586 -0.09,-1.575 0.09,-1.757 0.274,-1.754 0.445,-1.758 0.605,-1.586 0.684,-1.59 0.871,-1.484 0.945,-1.406 1.067,-1.317 1.211,-1.137 1.394,-1.058 1.383,-0.953 1.5,-0.891 1.555,-0.621 1.652,-0.516 1.754,-0.347 1.816,-0.274 12.981,-0.785 0.605,-0.094 0.52,-0.089 0.527,-0.165 0.598,-0.257 0.453,-0.274 0.523,-0.258 0.438,-0.363 0.344,-0.426 0.433,-0.437 0.254,-0.453 0.344,-0.516 0.199,-0.527 0.25,-0.532 0.094,-0.527 0.074,-0.621 0,-1.574 -0.258,-0.879 -0.359,-0.875 -0.434,-0.789 -0.597,-0.695 -0.618,-0.622 -0.796,-0.515 -0.868,-0.453 -1.121,-0.348 -1.039,-0.348 -1.136,-0.257 -1.125,-0.274 -1.141,-0.18 -1.125,-0.078 -1.121,-0.09 -2.449,0 -1.317,0.09 -1.215,0.184 -1.23,0.168 -1.199,0.254 -1.215,0.347 -1.227,0.438 -1.125,0.457 -1.144,0.516 -1.137,0.527 -1.141,0.621 -1.035,0.699 -1.031,0.711 -0.977,0.785 -0.945,0.786 -0.871,0.878 -8.621,-8.699 1.309,-1.304 1.39,-1.227 1.469,-1.148 1.574,-1.059 1.559,-0.953 1.578,-0.969 1.664,-0.789 1.648,-0.801 1.739,-0.605 1.742,-0.621 1.828,-0.512 1.754,-0.363 1.816,-0.348 1.918,-0.262 1.817,-0.09 1.843,-0.089 1.735,0.089 1.656,0.09 1.75,0.168 1.637,0.274 1.66,0.347 1.668,0.438 1.648,0.531 1.574,0.531 1.29,0.512 1.32,0.711 1.125,0.699 1.121,0.801 1.055,0.953 0.957,0.969 0.945,1.058 0.793,1.047 0.777,1.149 0.617,1.222 0.602,1.321 0.449,1.301 0.344,1.332 0.27,1.39 0.164,1.406 0.093,1.411 -0.093,1.847 -0.254,1.754 -0.434,1.664 -0.539,1.664 -0.777,1.59 -0.785,1.406 -1.032,1.411 -1.05,1.312 -1.215,1.211 -1.321,1.059 -1.468,0.968 -1.485,0.789 -1.558,0.711 -1.664,0.516 -1.758,0.363 -1.809,0.164 -12.988,0.789 z m 69.137,12.395 -1.305,-0.09 -1.305,-0.273 -1.215,-0.258 -1.214,-0.438 -1.137,-0.531 -1.035,-0.695 -1.067,-0.789 -0.851,-0.801 -0.871,-0.953 -0.778,-0.969 -0.633,-1.148 -0.507,-1.137 -0.434,-1.133 -0.348,-1.242 -0.175,-1.317 -0.094,-1.316 25.953,0 -0.09,1.316 -0.16,1.317 -0.363,1.242 -0.45,1.133 -0.511,1.137 -0.614,1.148 -0.781,0.969 -0.851,0.953 -0.891,0.801 -1.027,0.789 -1.071,0.695 -1.121,0.531 -1.215,0.438 -1.23,0.258 -1.289,0.273 -1.32,0.09 z m -4.786,-37.574 0.707,-0.278 0.782,-0.254 0.793,-0.257 0.781,-0.18 0.777,-0.094 0.856,-0.074 0.797,-0.106 1.738,0 0.945,0.106 0.883,0.074 0.961,0.184 1.742,0.511 1.649,0.711 0.879,0.348 0.785,0.441 0.781,0.528 0.687,0.531 0.793,0.606 0.692,0.621 0.613,0.621 0.602,0.695 9.324,-7.992 -1.141,-1.223 -1.031,-1.137 -1.23,-1.058 -1.215,-0.969 -1.317,-0.879 -1.289,-0.875 -1.398,-0.789 -1.399,-0.711 -1.465,-0.605 -1.41,-0.528 -1.558,-0.441 -1.485,-0.438 -1.562,-0.257 -1.57,-0.274 -1.575,-0.09 -3.043,0 -1.398,0.09 -1.305,0.184 -1.39,0.258 -1.383,0.269 -1.321,0.348 -1.378,0.441 -1.321,0.528 -1.718,0.789 -1.668,0.875 -1.575,0.953 -1.468,1.152 -1.411,1.227 -1.289,1.406 -1.214,1.406 -1.137,1.5 -0.961,1.574 -0.887,1.664 -0.687,1.665 -0.602,1.847 -0.527,1.754 -0.344,1.848 -0.25,1.933 0,15.528 0.07,1.32 0.18,1.238 0.168,1.317 0.359,1.226 0.344,1.137 0.344,1.223 0.433,1.152 0.512,1.133 0.543,1.062 0.602,1.059 0.703,1.043 0.687,1.058 0.793,0.879 0.778,0.953 0.785,0.879 0.879,0.879 0.949,0.801 0.957,0.695 0.949,0.696 1.063,0.711 1.035,0.605 1.047,0.531 1.129,0.532 1.125,0.437 1.226,0.438 1.215,0.347 1.227,0.274 1.214,0.164 1.215,0.183 1.305,0.09 1.305,0.078 1.32,-0.078 1.215,-0.09 1.304,-0.183 1.215,-0.164 1.227,-0.274 1.215,-0.347 1.129,-0.438 1.226,-0.437 1.035,-0.532 1.125,-0.531 1.067,-0.605 1.035,-0.711 0.937,-0.696 0.981,-0.695 0.867,-0.801 0.949,-0.879 0.793,-0.879 0.778,-0.953 0.781,-0.879 0.691,-1.058 0.629,-1.043 0.598,-1.059 0.613,-1.062 0.512,-1.133 0.437,-1.152 0.356,-1.223 0.359,-1.137 0.258,-1.226 0.254,-1.317 0.183,-1.238 0.086,-1.32 0,-12.028 -38.144,0 0,-2.531 0.18,-0.969 0.164,-0.98 0.269,-0.953 0.258,-0.879 0.867,-1.758 0.453,-0.785 0.594,-0.785 0.617,-0.805 0.692,-0.605 0.707,-0.696 0.781,-0.543 0.777,-0.515 0.867,-0.532 0.957,-0.343 z m 58.946,49.058 0,-6.929 0.781,0.878 0.793,0.875 0.871,0.786 0.871,0.714 0.957,0.696 0.961,0.621 0.945,0.605 1.059,0.532 0.949,0.437 1.121,0.438 1.071,0.347 1.121,0.274 1.14,0.164 1.125,0.183 1.121,0.09 1.231,0.078 1.039,-0.078 1.059,0 1.039,-0.18 0.941,-0.167 2.012,-0.528 1.902,-0.711 1.754,-0.879 1.742,-1.047 1.559,-1.148 1.5,-1.391 1.289,-1.41 1.23,-1.679 1.032,-1.665 0.871,-1.847 0.687,-1.918 0.449,-1.942 0.274,-1.039 0.078,-1.062 0.086,-1.059 0,-42.57 -12.191,0 0,37.652 -0.071,1.332 -0.199,1.227 -0.242,1.133 -0.446,1.152 -0.523,1.043 -0.602,1.059 -0.691,0.879 -0.793,0.875 -0.871,0.789 -0.957,0.785 -0.961,0.621 -1.125,0.531 -1.125,0.348 -1.156,0.347 -1.199,0.184 -1.231,0.09 -1.305,-0.09 -1.23,-0.184 -1.121,-0.347 -1.125,-0.348 -1.051,-0.531 -1.047,-0.621 -0.945,-0.785 -0.793,-0.789 -0.871,-0.875 -0.688,-0.879 -0.617,-1.059 -0.512,-1.043 -0.359,-1.152 -0.344,-1.133 -0.179,-1.227 -0.09,-1.332 0,-37.652 -12.192,0 0,61.531 12.192,0 z m 67.234,-23.879 0,-13.863 0.09,-1.227 0.164,-1.238 0.27,-1.137 0.418,-1.148 0.527,-1.047 0.601,-1.058 0.704,-0.954 0.793,-0.878 0.855,-0.786 0.961,-0.711 0.977,-0.605 1.121,-0.527 1.125,-0.442 1.14,-0.273 1.215,-0.164 1.227,-0.09 1.289,0.09 1.23,0.164 1.125,0.273 1.125,0.442 1.067,0.527 1.035,0.605 0.867,0.711 0.867,0.786 0.781,0.878 0.782,0.954 0.613,1.058 0.523,1.047 0.364,1.148 0.343,1.137 0.164,1.238 0.09,1.227 0,13.863 -0.09,1.332 -0.164,1.227 -0.343,1.133 -0.364,1.152 -0.523,1.043 -0.613,1.059 -1.563,1.754 -0.867,0.789 -0.867,0.785 -1.035,0.621 -1.067,0.531 -2.25,0.695 -1.23,0.184 -1.289,0.09 -1.227,-0.09 -1.215,-0.184 -1.14,-0.347 -1.125,-0.348 -1.121,-0.531 -0.977,-0.621 -0.961,-0.785 -0.855,-0.789 -0.793,-0.875 -0.704,-0.879 -0.601,-1.059 -0.527,-1.043 -0.418,-1.152 -0.27,-1.133 -0.164,-1.227 -0.09,-1.332 z m 0,16.95 1.559,1.753 0.871,0.786 0.871,0.714 0.867,0.696 0.961,0.621 0.957,0.605 1.051,0.532 1.031,0.437 1.055,0.438 1.121,0.347 1.066,0.274 1.125,0.164 1.2,0.183 1.152,0.09 1.125,0.078 1.035,-0.078 1.051,0 1.047,-0.18 1.039,-0.167 1.914,-0.528 1.922,-0.711 1.812,-0.879 1.664,-1.047 1.668,-1.148 1.469,-1.391 1.32,-1.41 1.121,-1.679 1.039,-1.665 0.883,-1.847 0.692,-1.918 0.523,-1.942 0.16,-1.039 0.184,-1.062 0.09,-1.059 0,-23.699 -0.09,-1.043 -0.184,-0.969 -0.16,-1.058 -0.523,-2.016 -0.692,-1.933 -0.883,-1.758 -1.039,-1.754 -1.121,-1.574 -1.32,-1.5 -1.469,-1.317 -1.668,-1.226 -1.664,-1.059 -1.812,-0.879 -0.946,-0.344 -0.976,-0.257 -0.942,-0.348 -0.972,-0.184 -1.039,-0.179 -1.047,-0.168 -1.051,-0.09 -2.16,0 -1.152,0.09 -1.2,0.168 -1.125,0.269 -1.066,0.258 -1.121,0.348 -1.055,0.437 -1.031,0.442 -1.051,0.527 -0.957,0.621 -0.961,0.609 -0.867,0.692 -0.871,0.715 -0.871,0.8 -0.782,0.864 -0.777,0.89 0,-6.945 -12.203,0 0,86.199 12.203,0 0,-31.597 z m 90.117,-47.657 -0.785,-0.89 -0.793,-0.864 -0.867,-0.8 -0.871,-0.715 -0.961,-0.692 -0.961,-0.609 -0.969,-0.621 -1.039,-0.527 -1.035,-0.442 -1.031,-0.437 -1.07,-0.348 -1.122,-0.258 -1.136,-0.269 -1.129,-0.168 -1.121,-0.09 -2.27,0 -1.058,0.09 -1.036,0.168 -0.945,0.179 -1.066,0.184 -0.946,0.348 -0.957,0.257 -0.961,0.344 -1.738,0.879 -1.758,1.059 -1.543,1.226 -1.496,1.317 -1.293,1.5 -1.23,1.574 -1.047,1.754 -0.856,1.758 -0.343,0.964 -0.375,0.969 -0.258,0.969 -0.164,1.047 -0.27,1.058 -0.09,0.969 -0.074,1.043 0,42.66 12.176,0 0,-37.742 0.09,-1.227 0.18,-1.238 0.253,-1.137 0.454,-1.148 0.519,-1.047 0.602,-1.058 0.691,-0.954 0.777,-0.878 0.887,-0.786 0.957,-0.711 0.949,-0.605 1.137,-0.527 1.125,-0.442 1.141,-0.273 1.215,-0.164 1.214,-0.09 1.321,0.09 1.211,0.164 1.136,0.273 1.129,0.442 1.032,0.527 1.07,0.605 0.851,0.711 0.868,0.786 0.8,0.878 0.778,0.954 0.613,1.058 0.508,1.047 0.348,1.148 0.355,1.137 0.184,1.238 0.093,1.227 0,37.742 12.172,0 0,-61.531 -12.172,0 0,6.945 z m 42.731,54.586 0,-6.929 0.687,0.878 0.797,0.875 0.871,0.786 0.887,0.714 0.937,0.696 0.961,0.621 0.961,0.605 1.051,0.532 1.035,0.437 1.047,0.438 1.051,0.347 1.141,0.274 1.121,0.164 1.129,0.183 1.136,0.09 1.215,0.078 1.738,-0.078 1.743,-0.273 1.754,-0.348 1.632,-0.527 1.575,-0.606 1.558,-0.789 1.488,-0.969 1.497,-1.058 -8.711,-10.789 -0.883,0.695 -0.871,0.621 -1.047,0.516 -0.934,0.453 -1.062,0.348 -1.141,0.257 -1.039,0.184 -1.121,0.09 -1.32,-0.09 -1.125,-0.184 -1.227,-0.347 -1.125,-0.348 -1.035,-0.531 -1.051,-0.621 -1.734,-1.574 -0.797,-0.875 -0.692,-0.879 -0.703,-1.059 -0.422,-1.043 -0.433,-1.152 -0.344,-1.133 -0.195,-1.227 0,-38.984 -12.285,0 0,61.531 12.285,0 z m 47.289,-23.879 0.078,1.332 0.176,1.227 0.258,1.133 0.437,1.152 0.535,1.043 0.586,1.059 0.719,0.879 0.777,0.875 0.86,0.789 0.972,0.785 1.035,0.621 1.051,0.531 2.278,0.695 1.214,0.184 1.2,0.09 1.32,-0.09 1.215,-0.184 1.125,-0.347 1.14,-0.348 1.032,-0.531 1.066,-0.621 0.945,-0.785 0.868,-0.789 0.777,-0.875 0.707,-0.879 0.613,-1.059 0.512,-1.043 0.359,-1.152 0.344,-1.133 0.168,-1.227 0.106,-1.332 0,-13.863 -0.106,-1.227 -0.168,-1.238 -0.344,-1.137 -0.359,-1.148 -0.512,-1.047 -0.613,-1.058 -0.707,-0.954 -0.777,-0.878 -0.868,-0.786 -0.945,-0.711 -1.066,-0.605 -1.032,-0.527 -1.14,-0.442 -1.125,-0.273 -1.215,-0.164 -1.32,-0.09 -1.2,0.09 -1.214,0.164 -1.141,0.273 -1.137,0.442 -1.051,0.527 -1.035,0.605 -0.972,0.711 -0.86,0.786 -0.777,0.878 -0.719,0.954 -0.586,1.058 -0.535,1.047 -0.437,1.148 -0.258,1.137 -0.176,1.238 -0.078,1.227 0,13.863 z m 10.707,-63.453 1.558,0.09 1.665,0.078 1.562,0.27 1.57,0.347 1.575,0.352 1.562,0.527 1.465,0.606 1.488,0.711 1.485,0.8 1.484,0.954 1.391,1.062 1.218,1.059 1.231,1.211 1.125,1.238 0.961,1.32 0.945,1.391 0.879,1.5 0.695,1.496 0.61,1.574 0.511,1.664 0.45,1.586 0.242,1.758 0.195,1.664 0.074,1.758 0,62.316 -12.175,0 0,-6.929 -0.793,0.878 -0.786,0.875 -0.871,0.786 -0.879,0.714 -0.945,0.696 -0.871,0.621 -1.035,0.605 -0.973,0.532 -1.035,0.437 -1.141,0.438 -1.035,0.347 -1.152,0.274 -1.125,0.164 -1.125,0.183 -1.141,0.09 -1.125,0.078 -1.125,-0.078 -1.035,0 -0.973,-0.18 -1.031,-0.167 -2.012,-0.528 -1.917,-0.711 -1.758,-0.879 -1.723,-1.047 -1.559,-1.148 -1.484,-1.391 -1.32,-1.41 -1.211,-1.679 -1.039,-1.665 -0.793,-1.847 -0.434,-0.949 -0.254,-0.969 -0.367,-0.973 -0.16,-0.969 -0.18,-1.039 -0.164,-1.062 -0.09,-1.059 0,-23.699 0.09,-1.043 0.164,-0.969 0.18,-1.058 0.16,-1.047 0.367,-0.969 0.254,-0.969 0.434,-0.964 0.793,-1.758 1.039,-1.754 1.211,-1.574 1.32,-1.5 1.484,-1.317 1.559,-1.226 1.723,-1.059 1.758,-0.879 0.941,-0.344 0.976,-0.257 0.942,-0.348 1.07,-0.184 1.031,-0.179 0.973,-0.168 1.035,-0.09 2.25,0 1.141,0.09 1.125,0.168 1.125,0.269 1.152,0.258 1.035,0.348 1.141,0.437 1.035,0.442 0.973,0.527 1.035,0.621 0.871,0.609 0.945,0.692 0.879,0.715 0.871,0.8 0.786,0.864 0.793,0.89 0,-7.73 -0.106,-0.879 -0.09,-0.879 -0.078,-0.785 -0.266,-0.879 -0.253,-0.789 -0.258,-0.801 -0.344,-0.785 -0.434,-0.695 -0.527,-0.711 -0.453,-0.606 -0.594,-0.711 -0.617,-0.515 -0.598,-0.621 -0.707,-0.532 -0.703,-0.437 -0.781,-0.438 -0.777,-0.347 -0.872,-0.348 -0.871,-0.262 -0.867,-0.269 -0.887,-0.18 -0.855,-0.094 -0.957,-0.074 -0.871,-0.094 -0.883,0.094 -0.855,0.074 -0.871,0.094 -0.883,0.18 -1.649,0.437 -1.578,0.699 -1.543,0.801 -1.41,1.043 -0.687,0.531 -0.618,0.606 -0.597,0.621 -0.543,0.711 -9.473,-7.824 0.941,-1.137 1.145,-1.148 1.121,-1.047 1.231,-1.059 1.21,-0.875 1.321,-0.879 1.293,-0.789 1.301,-0.695 1.488,-0.621 1.406,-0.528 1.473,-0.515 1.468,-0.348 1.485,-0.273 1.558,-0.27 1.575,-0.078 1.574,-0.09 z" /></g></g></svg>