<?xml version="1.0" encoding="UTF-8" standalone="no"?>
<svg
   xmlns:dc="http://purl.org/dc/elements/1.1/"
   xmlns:cc="http://creativecommons.org/ns#"
   xmlns:rdf="http://www.w3.org/1999/02/22-rdf-syntax-ns#"
   xmlns:svg="http://www.w3.org/2000/svg"
   xmlns="http://www.w3.org/2000/svg"
   viewBox="0 0 931.02545 201.30859"
   height="201.30859"
   width="931.02545"
   xml:space="preserve"
   id="svg20427"
   version="1.1"><metadata
     id="metadata20433"><rdf:RDF><cc:Work
         rdf:about=""><dc:format>image/svg+xml</dc:format><dc:type
           rdf:resource="http://purl.org/dc/dcmitype/StillImage" /><dc:title></dc:title></cc:Work></rdf:RDF></metadata><defs
     id="defs20431" /><g
     transform="matrix(1.3333333,0,0,-1.3333333,0,201.30859)"
     id="g20435"><g
       id="g20437"><path
         id="path20439"
         style="fill:#ffffff;fill-opacity:1;fill-rule:nonzero;stroke:none"
         d="M 684.992,150.595 H 13.266 c -7.125,0 -12.887,-5.758 -12.887,-12.867 V 13.239 C 0.379,6.13 6.141,0.368 13.266,0.368 h 671.726 c 7.11,0 12.887,5.762 12.887,12.871 v 124.489 c 0,7.109 -5.777,12.867 -12.887,12.867" /><path
         id="path20441"
         style="fill:#000000;fill-opacity:1;fill-rule:nonzero;stroke:none"
         d="m 684.992,150.981 c 7.313,0 13.278,-5.929 13.278,-13.242 V 13.243 c 0,-7.312 -5.965,-13.242 -13.278,-13.242 H 13.277 C 5.949,0.001 0,5.931 0,13.243 v 124.496 c 0,7.313 5.949,13.242 13.277,13.242 z m 0,-0.386 H 13.266 c -7.125,0 -12.887,-5.758 -12.887,-12.867 V 13.239 C 0.379,6.13 6.141,0.368 13.266,0.368 h 671.726 c 7.11,0 12.887,5.762 12.887,12.871 v 124.489 c 0,7.109 -5.777,12.867 -12.887,12.867 z" /><path
         id="path20443"
         style="fill:#633a34;fill-opacity:1;fill-rule:nonzero;stroke:none"
         d="M 684.992,142.009 H 13.266 c -2.387,0 -4.293,-1.926 -4.293,-4.293 V 13.243 c 0,-2.371 1.906,-4.297 4.293,-4.297 h 671.726 c 2.371,0 4.297,1.926 4.297,4.297 v 124.473 c 0,2.367 -1.926,4.293 -4.297,4.293" /><path
         id="path20445"
         style="fill:#ffffff;fill-opacity:1;fill-rule:nonzero;stroke:none"
         d="m 214.355,11.743 -63.742,63.75 63.742,63.735 63.743,-63.735 z" /><path
         id="path20447"
         style="fill:#633a34;fill-opacity:1;fill-rule:evenodd;stroke:none"
         d="m 199.613,112.642 c 0,0 -19.668,-5.977 -19.711,-28.934 -0.039,-22.957 17.621,-28.215 17.621,-28.215 0.59,-0.215 0.598,-0.222 0.598,-0.847 0,-1.067 -0.465,-2.309 -1.164,-3.083 -1.144,-1.273 -2.859,-1.832 -6.141,-2 l -1.773,-0.089 v -1.45 h 56.762 v 29.27 c -0.067,-0.262 -0.34,-1.449 -0.61,-2.645 -1.109,-4.886 -2.613,-8.086 -5.703,-12.16 -1.344,-1.769 -4.73,-5.156 -6.48,-6.488 -4.84,-3.672 -9.481,-5.656 -14.699,-6.285 -1.196,-0.145 -3.883,-0.192 -11.54,-0.195 l -9.98,-0.004 0.937,0.937 c 0.649,0.645 1.071,1.219 1.375,1.859 l 0.438,0.93 0.039,29.703 z" /><path
         id="path20449"
         style="fill:#633a34;fill-opacity:1;fill-rule:evenodd;stroke:none"
         d="M 210.453,114.837 V 51.7 l 0.442,-0.054 c 1.085,-0.133 2.425,-0.125 3.867,0.011 10.156,0.328 19.418,6.43 24.406,16.086 0.145,0.266 0.289,0.535 0.422,0.805 0.082,0.16 0.156,0.32 0.238,0.476 1.289,2.668 2.219,5.547 2.723,8.571 0.285,1.707 0.433,3.668 0.449,5.621 0,0 0.02,2.023 -0.484,5.055 -0.426,2.871 -1.211,5.667 -2.344,8.308 -0.227,0.555 -0.473,1.113 -0.742,1.672 -0.035,0.074 -0.071,0.145 -0.102,0.215 -1.914,3.93 -4.808,7.898 -9.211,10.953 -4.781,3.523 -10.418,5.41 -16.187,5.418 z m 3.238,-2.149 c 14.961,0 27.09,-13.222 27.09,-29.535 0,-16.312 -12.129,-29.535 -27.09,-29.535 -0.234,0.008 -0.472,0.024 -0.707,0.039 v 0.028 l -0.101,-0.008 0.074,3.09 h 0.027 l 1.571,0.039 1.601,0.039 v 1.683 h -3.265 v 3.996 h 3.25 v 1.762 h -3.25 l 0.035,24.152 0.031,24.149 c 0.012,0 0.02,0 0.027,0 0.008,0 0.012,0 0.016,0.004 v 0.055 c 0.23,0.015 0.461,0.031 0.691,0.042 z" /><path
         id="path20451"
         style="fill:#633a34;fill-opacity:1;fill-rule:evenodd;stroke:none"
         d="m 216.141,78.985 v 10.637 h -2.301 v 6.777 h 2.301 v 1.477 l -1.391,0.043 -1.398,0.035 5.742,4.859 c 3.16,2.676 5.828,4.872 5.929,4.883 0.106,0.008 2.79,-2.179 5.965,-4.863 l 5.774,-4.879 -1.371,-0.039 -1.364,-0.039 v -1.477 h 2.438 v -6.777 h -2.438 v -18.57 l -2.375,0.074 -0.031,9.25 -0.035,9.246 H 218.582 V 69.841 h 2.844 v -1.488 h -5.285 z M 234,93.044 l 0.039,0.914 H 216.141 V 92.06 l 8.91,0.035 8.906,0.035 z m -10.27,4.098 v 0.613 h -5.015 v -1.223 h 5.015 z m 7.723,0 v 0.613 h -5.015 v -1.223 h 5.015 z m -3.25,4.98 c -1.359,1.133 -2.64,2.207 -2.844,2.375 l -0.375,0.309 -0.867,-0.782 c -0.476,-0.433 -1.625,-1.418 -2.554,-2.195 -0.934,-0.773 -1.786,-1.492 -1.895,-1.59 -0.164,-0.152 0.707,-0.183 5.402,-0.183 h 5.602 z" /><path
         id="path20453"
         style="fill:#633a34;fill-opacity:1;fill-rule:evenodd;stroke:none"
         d="m 222.918,69.095 v 0.746 h 3.387 v -1.488 h -3.387 z" /><path
         id="path20455"
         style="fill:#633a34;fill-opacity:1;fill-rule:evenodd;stroke:none"
         d="m 227.793,69.095 v 0.746 h 3.523 v -1.488 h -3.523 z" /><path
         id="path20457"
         style="fill:#633a34;fill-opacity:1;fill-rule:evenodd;stroke:none"
         d="m 232.809,69.095 v 0.746 h 3.523 v -1.488 h -3.523 z" /><path
         id="path20459"
         style="fill:#633a34;fill-opacity:1;fill-rule:evenodd;stroke:none"
         d="m 230.371,66.185 v 0.82 l 1.656,-0.039 1.664,-0.035 0.039,-0.782 0.04,-0.777 h -3.399 z" /><path
         id="path20461"
         style="fill:#633a34;fill-opacity:1;fill-rule:evenodd;stroke:none"
         d="m 225.488,66.114 v 0.746 l 1.426,0.02 c 0.781,0.012 1.496,0.027 1.59,0.035 0.117,0.008 0.184,-0.246 0.211,-0.766 l 0.039,-0.777 h -3.266 z" /><path
         id="path20463"
         style="fill:#633a34;fill-opacity:1;fill-rule:evenodd;stroke:none"
         d="m 227.793,63.403 v 0.883 h 3.523 v -1.758 h -3.523 z" /><path
         id="path20465"
         style="fill:#633a34;fill-opacity:1;fill-rule:evenodd;stroke:none"
         d="m 222.918,63.403 v 0.883 h 3.387 v -1.758 h -3.387 z" /><path
         id="path20467"
         style="fill:#633a34;fill-opacity:1;fill-rule:evenodd;stroke:none"
         d="m 217.902,63.403 v 0.883 h 3.524 v -1.758 h -3.524 z" /><path
         id="path20469"
         style="fill:#633a34;fill-opacity:1;fill-rule:evenodd;stroke:none"
         d="m 220.477,66.181 v 0.816 h 3.386 v -1.625 h -3.386 z" /><path
         id="path20471"
         style="fill:#633a34;fill-opacity:1;fill-rule:evenodd;stroke:none"
         d="m 215.602,66.114 v 0.746 h 3.25 v -1.488 h -3.25 z" /><path
         id="path20473"
         style="fill:#633a34;fill-opacity:1;fill-rule:evenodd;stroke:none"
         d="m 215.602,60.493 v 0.813 h 3.25 v -1.629 h -3.25 z" /><path
         id="path20475"
         style="fill:#633a34;fill-opacity:1;fill-rule:evenodd;stroke:none"
         d="m 220.477,60.493 v 0.813 h 3.386 v -1.629 h -3.386 z" /><path
         id="path20477"
         style="fill:#633a34;fill-opacity:1;fill-rule:evenodd;stroke:none"
         d="m 225.488,60.493 v 0.813 h 3.254 v -1.629 h -3.254 z" /><path
         id="path20479"
         style="fill:#633a34;fill-opacity:1;fill-rule:evenodd;stroke:none"
         d="m 217.902,58.528 c 1.153,0.055 3.457,0 3.457,0 v -1.695 h -3.457 z" /><path
         id="path20481"
         style="fill:#633a34;fill-opacity:1;fill-rule:evenodd;stroke:none"
         d="m 222.66,57.716 v 0.812 h 3.387 v -1.625 h -3.387 z" /><path
         id="path20483"
         style="fill:#ffffff;fill-opacity:1;fill-rule:evenodd;stroke:none"
         d="m 310.23,123.493 h 7.629 c 3.43,0 5.563,-0.894 7.52,-3.555 1.711,-2.3 1.891,-4.14 1.891,-11.726 0,-7.813 -0.18,-9 -1.602,-11.129 -1.652,-2.441 -4.199,-3.672 -7.809,-3.672 h -7.629 z m -6.39,-36.125 h 14.316 c 6.27,0 10.649,3.074 13.137,6.985 1.883,2.964 2.367,4.628 2.367,14.097 0,8.832 -0.18,10.422 -2.242,13.977 -2.727,4.621 -7.285,7.105 -12.848,7.105 h -14.73" /><path
         id="path20485"
         style="fill:#ffffff;fill-opacity:1;fill-rule:evenodd;stroke:none"
         d="m 345.137,105.075 c 0.125,4.559 2.789,6.981 6.324,6.981 3.555,0 6.156,-2.422 6.336,-6.981 z m 18.699,-4.976 v 4.976 c 0,7.766 -5.734,12.68 -12.375,12.68 -5.789,0 -12.367,-3.785 -12.367,-15.461 0,-12.32 7.172,-15.281 13.32,-15.281 4.024,0 7.867,1.422 10.828,4.851 l -4.379,3.739 c -1.777,-1.836 -4.265,-2.907 -6.574,-2.907 -4.133,0 -7.152,2.481 -7.152,7.403" /><path
         id="path20487"
         style="fill:#ffffff;fill-opacity:1;fill-rule:nonzero;stroke:none"
         d="m 370.164,97.446 c 0,-6.828 5.332,-10.433 10.066,-10.433 3.137,0 5.844,1.179 7.747,3.554 h 0.117 v -3.199 h 6.039 v 30.031 h -6.039 V 99.513 c 0,-4.086 -2.543,-6.461 -5.91,-6.461 -3.438,0 -5.981,2.375 -5.981,6.461 v 17.886 h -6.039" /><path
         id="path20489"
         style="fill:#ffffff;fill-opacity:1;fill-rule:nonzero;stroke:none"
         d="m 402.289,117.399 h -3.019 v -4.621 h 3.019 V 94.771 c 0,-4.739 3.074,-7.403 7.277,-7.403 h 3.137 v 5.684 h -2.258 c -1.476,0 -2.121,0.59 -2.121,2.261 v 17.465 h 4.379 v 4.621 h -4.379 v 9.114 h -6.035" /><path
         id="path20491"
         style="fill:#ffffff;fill-opacity:1;fill-rule:nonzero;stroke:none"
         d="m 415.059,92.396 c 3.847,-3.61 8.339,-5.383 13.191,-5.383 6.984,0 12.43,3.375 12.43,9.238 0,4.801 -2.481,8.586 -8.696,9 l -4.976,0.355 c -3.012,0.243 -3.961,1.54 -3.961,2.844 0,2.071 1.305,3.606 5.152,3.606 3.25,0 5.676,-1.118 8.051,-2.778 l 3.719,4.387 c -2.957,2.488 -6.504,4.09 -11.77,4.09 -6.336,0 -11.187,-3.141 -11.187,-9.242 0,-5.153 3.668,-8.114 8.636,-8.528 l 5.329,-0.472 c 2.07,-0.176 3.671,-0.825 3.671,-2.957 0,-2.559 -2.488,-3.856 -5.918,-3.856 -4.031,0 -6.867,1.297 -9.46,3.856" /><path
         id="path20493"
         style="fill:#ffffff;fill-opacity:1;fill-rule:nonzero;stroke:none"
         d="m 464.41,96.2 c -1.484,-1.847 -3.613,-3.148 -6.101,-3.148 -4.907,0 -7.801,2.793 -7.801,9.304 0,6.563 2.894,9.344 7.801,9.344 2.488,0 4.617,-1.297 6.101,-3.133 l 4.434,3.981 c -2.602,3.019 -6.207,5.207 -10.766,5.207 -6.922,0 -13.613,-4.379 -13.613,-15.399 0,-10.964 6.691,-15.343 13.613,-15.343 4.559,0 8.164,2.187 10.766,5.207" /><path
         id="path20495"
         style="fill:#ffffff;fill-opacity:1;fill-rule:nonzero;stroke:none"
         d="m 473.047,87.368 h 6.023 v 17.883 c 0,4.09 2.551,6.449 5.981,6.449 3.375,0 5.914,-2.359 5.914,-6.449 V 87.368 H 497 v 19.957 c 0,6.813 -5.324,10.43 -9.996,10.43 -3.188,0 -5.918,-1.184 -7.809,-3.559 h -0.125 v 15.336 h -6.023" /><path
         id="path20497"
         style="fill:#ffffff;fill-opacity:1;fill-rule:evenodd;stroke:none"
         d="m 509.367,105.075 c 0.113,4.559 2.77,6.981 6.328,6.981 3.551,0 6.145,-2.422 6.332,-6.981 z m 18.684,-4.976 v 4.976 c 0,7.766 -5.731,12.68 -12.356,12.68 -5.804,0 -12.371,-3.785 -12.371,-15.461 0,-12.32 7.153,-15.281 13.321,-15.281 4.015,0 7.863,1.422 10.82,4.851 l -4.371,3.739 c -1.778,-1.836 -4.266,-2.907 -6.578,-2.907 -4.137,0 -7.149,2.481 -7.149,7.403" /><path
         id="path20499"
         style="fill:#ffffff;fill-opacity:1;fill-rule:nonzero;stroke:none"
         d="m 478.305,27.169 c 4.398,-3.867 9.8,-5.746 15.965,-5.746 8.968,0 14.66,4.469 14.66,12.152 0,5.699 -3.637,11.102 -11.442,12.043 -1.984,0.238 -3.57,0.469 -4.687,0.649 -4.231,0.644 -5.93,2.992 -5.93,5.332 0,4.011 3.109,6.007 6.988,6.007 3.688,0 7.266,-1.293 10.325,-3.23 l 3.515,5.215 c -3.816,2.527 -8.39,4.351 -13.551,4.351 -8.625,0 -13.613,-5.058 -13.613,-12.218 0,-6.043 3.867,-10.75 11.094,-11.746 2.168,-0.29 3.641,-0.528 5.516,-0.766 3.75,-0.465 5.453,-2.688 5.453,-5.637 0,-3.461 -3.11,-5.816 -8.274,-5.816 -4.461,0 -8.687,1.648 -11.859,4.168" /><path
         id="path20501"
         style="fill:#ffffff;fill-opacity:1;fill-rule:nonzero;stroke:none"
         d="m 515.441,51.548 h -2.988 v -4.586 h 2.988 V 29.106 c 0,-4.687 3.051,-7.328 7.227,-7.328 h 3.098 v 5.629 h -2.227 c -1.461,0 -2.117,0.59 -2.117,2.231 v 17.324 h 4.344 v 4.586 h -4.344 v 9.047 h -5.981" /><path
         id="path20503"
         style="fill:#ffffff;fill-opacity:1;fill-rule:nonzero;stroke:none"
         d="m 531.398,21.778 h 5.985 v 17.91 c 0,4.344 2.867,6.219 5.805,6.219 1.535,0 2.527,-0.402 3.937,-1.461 l 4.332,5.164 c -1.805,1.411 -3.805,2.289 -6.211,2.289 -3.168,0 -5.867,-1.179 -7.754,-3.523 h -0.109 v 3.172 h -5.985" /><path
         id="path20505"
         style="fill:#ffffff;fill-opacity:1;fill-rule:evenodd;stroke:none"
         d="m 568.766,32.228 c 0,-4.633 -1.696,-5.165 -6.692,-5.165 -4.054,0 -5.629,1.754 -5.629,3.754 0,2.168 1.637,3.575 5.164,3.575 h 7.157 z m 0,-10.45 h 5.976 v 20.317 c 0,7.34 -5.047,9.804 -12.367,9.804 -4.465,0 -7.754,-1.179 -10.043,-4.343 l 4.691,-3.586 c 1.059,1.711 2.532,2.297 5.641,2.297 4.285,0 6.102,-1.004 6.102,-3.821 v -3.113 h -8.278 c -6.394,0 -9.679,-4.039 -9.679,-8.816 0,-5.164 3.875,-9.094 10.507,-9.094 4.043,0 6.11,0.933 7.332,2.996 h 0.118" /><path
         id="path20507"
         style="fill:#ffffff;fill-opacity:1;fill-rule:nonzero;stroke:none"
         d="m 593.645,44.446 h 3.468 c 2.344,0 3.285,-1.234 3.285,-3.472 V 30.517 c 0,-2.332 -1,-3.11 -3.875,-3.11 h -2.113 v -5.629 h 3.699 c 4.977,0 8.266,3.817 8.266,8.446 V 40.86 c 0,3.172 -1.352,5.348 -4.277,6.512 2.75,1.18 4.277,3.406 4.277,6.652 0,6.043 -4.691,9.918 -11.496,9.918 -7.219,0 -12.496,-3.171 -12.496,-9.742 V 21.778 h 5.98 V 54.2 c 0.117,2.406 1.586,3.629 5.93,3.75 1.992,0.063 4.344,-0.527 5.164,-1.222 0.766,-0.704 0.941,-1.649 0.941,-3.18 0,-2.59 -1.234,-3.473 -3.168,-3.473 h -3.585" /><path
         id="path20509"
         style="fill:#ffffff;fill-opacity:1;fill-rule:evenodd;stroke:none"
         d="m 618.523,39.333 c 0.114,4.52 2.75,6.934 6.262,6.934 3.535,0 6.106,-2.414 6.285,-6.934 z m 18.54,-4.941 v 4.941 c 0,7.695 -5.696,12.566 -12.278,12.566 -5.742,0 -12.254,-3.761 -12.254,-15.32 0,-12.219 7.102,-15.156 13.199,-15.156 3.993,0 7.813,1.41 10.739,4.82 l -4.344,3.695 c -1.762,-1.82 -4.219,-2.875 -6.512,-2.875 -4.113,0 -7.09,2.458 -7.09,7.329" /><path
         id="path20511"
         style="fill:#ffffff;fill-opacity:1;fill-rule:nonzero;stroke:none"
         d="m 303.844,22.235 v 41.692 h 6.32 V 28.185 h 20.344 v -5.95 z" /><path
         id="path20513"
         style="fill:#ffffff;fill-opacity:1;fill-rule:nonzero;stroke:none"
         d="m 336.121,22.235 v 29.703 h 5.977 V 22.235 Z m 0,35.707 v 5.985 h 5.977 v -5.985 z" /><path
         id="path20515"
         style="fill:#ffffff;fill-opacity:1;fill-rule:nonzero;stroke:none"
         d="m 350.367,22.235 v 29.703 h 5.985 v -3.179 h 0.109 c 1.891,2.347 4.465,3.519 7.73,3.519 2.079,0 3.727,-0.371 4.95,-1.117 1.218,-0.742 2.363,-1.66 3.433,-2.746 2.344,2.574 5.473,3.863 9.383,3.863 2.309,0 4.531,-0.875 6.668,-2.632 2.156,-1.754 3.23,-4.313 3.23,-7.668 V 22.235 h -5.976 v 17.684 c 0,2 -0.563,3.566 -1.691,4.691 -1.122,1.125 -2.516,1.688 -4.176,1.688 -1.719,0 -3.137,-0.563 -4.266,-1.688 -1.105,-1.125 -1.656,-2.691 -1.656,-4.691 V 22.235 h -5.949 v 17.684 c 0,2 -0.567,3.566 -1.692,4.691 -1.125,1.125 -2.519,1.688 -4.176,1.688 -1.718,0 -3.14,-0.563 -4.265,-1.688 -1.11,-1.125 -1.656,-2.691 -1.656,-4.691 V 22.235 Z" /><path
         id="path20517"
         style="fill:#ffffff;fill-opacity:1;fill-rule:nonzero;stroke:none"
         d="m 422.82,34.821 h -18.484 c 0,-2.437 0.656,-4.269 1.969,-5.492 1.34,-1.219 3.035,-1.828 5.097,-1.828 2.461,0 4.633,0.953 6.524,2.859 l 4.32,-3.691 c -1.469,-1.715 -3.129,-2.945 -4.98,-3.688 -1.828,-0.73 -3.746,-1.089 -5.75,-1.089 -3.055,0 -6.008,0.98 -8.871,2.945 -2.864,1.984 -4.293,6.027 -4.293,12.133 0,5.781 1.32,9.777 3.949,11.988 2.652,2.215 5.418,3.32 8.297,3.32 3.265,0 6.113,-1.136 8.558,-3.406 2.442,-2.25 3.664,-5.293 3.664,-9.125 z m -18.484,4.926 h 12.527 c -0.093,2.231 -0.722,3.938 -1.886,5.121 -1.164,1.184 -2.622,1.774 -4.379,1.774 -1.774,0 -3.25,-0.59 -4.434,-1.774 -1.16,-1.183 -1.773,-2.89 -1.828,-5.121 z" /><path
         id="path20519"
         style="fill:#ffffff;fill-opacity:1;fill-rule:nonzero;stroke:none"
         d="m 425.82,27.185 4.18,4.121 c 2.594,-2.535 5.711,-3.805 9.355,-3.805 1.7,0 3.102,0.312 4.208,0.941 1.105,0.649 1.66,1.602 1.66,2.864 0,1.734 -1.211,2.707 -3.633,2.918 l -5.266,0.484 c -2.461,0.191 -4.504,1 -6.125,2.434 -1.621,1.433 -2.429,3.425 -2.429,5.98 0,3.012 1.058,5.293 3.175,6.84 2.118,1.543 4.75,2.316 7.895,2.316 2.594,0 4.816,-0.371 6.668,-1.117 1.851,-0.723 3.512,-1.695 4.976,-2.918 l -3.687,-4.347 c -1.184,0.8 -2.406,1.457 -3.664,1.972 -1.258,0.516 -2.688,0.774 -4.293,0.774 -1.906,0 -3.231,-0.344 -3.977,-1.032 -0.742,-0.668 -1.113,-1.515 -1.113,-2.547 0,-0.648 0.273,-1.246 0.828,-1.8 0.555,-0.555 1.582,-0.887 3.09,-1 l 4.922,-0.344 c 3.07,-0.211 5.273,-1.168 6.609,-2.863 1.336,-1.68 2.004,-3.692 2.004,-6.035 0,-2.918 -1.195,-5.172 -3.578,-6.754 -2.383,-1.582 -5.293,-2.375 -8.727,-2.375 -4.937,0 -9.3,1.765 -13.078,5.293 z" /><path
         id="path20521"
         style="fill:#ffffff;fill-opacity:1;fill-rule:nonzero;stroke:none"
         d="m 456.496,41.435 h 17.652 v -5.98 h -17.652 z" /><path
         id="path20523"
         style="fill:#ffffff;fill-opacity:1;fill-rule:nonzero;stroke:none"
         d="m 106.836,66.462 c 0,9.953 -8.066,18.019 -18.023,18.019 H 66.266 L 93.324,57.442 H 70.777 L 34.734,93.501 70.777,129.56 H 93.324 L 66.266,102.517 h 22.547 c 19.914,0 36.042,-16.145 36.042,-36.055 V 21.399 h -18.019 z" /></g></g></svg>