<?xml version="1.0" encoding="UTF-8" standalone="no"?>
<svg
   xmlns:dc="http://purl.org/dc/elements/1.1/"
   xmlns:cc="http://creativecommons.org/ns#"
   xmlns:rdf="http://www.w3.org/1999/02/22-rdf-syntax-ns#"
   xmlns:svg="http://www.w3.org/2000/svg"
   xmlns="http://www.w3.org/2000/svg"
   viewBox="0 0 930.052 200"
   height="200"
   width="930.052"
   xml:space="preserve"
   id="svg9510"
   version="1.1"><metadata
     id="metadata9516"><rdf:RDF><cc:Work
         rdf:about=""><dc:format>image/svg+xml</dc:format><dc:type
           rdf:resource="http://purl.org/dc/dcmitype/StillImage" /><dc:title></dc:title></cc:Work></rdf:RDF></metadata><defs
     id="defs9514"><clipPath
       id="clipPath9532"
       clipPathUnits="userSpaceOnUse"><path
         id="path9530"
         d="M 0,0 H 698 V 150 H 0 Z" /></clipPath><clipPath
       id="clipPath9544"
       clipPathUnits="userSpaceOnUse"><path
         id="path9542"
         d="M 10,140 H 688 V 10 H 10 Z" /></clipPath><clipPath
       id="clipPath9554"
       clipPathUnits="userSpaceOnUse"><path
         id="path9552"
         d="M 10,10 H 688 V 140 H 10 Z" /></clipPath><clipPath
       id="clipPath9564"
       clipPathUnits="userSpaceOnUse"><path
         id="path9562"
         d="M 10,140 H 688 V 10 H 10 Z" /></clipPath><clipPath
       id="clipPath9574"
       clipPathUnits="userSpaceOnUse"><path
         id="path9572"
         d="M 10,10 H 688 V 140 H 10 Z" /></clipPath></defs><g
     transform="matrix(1.3333333,0,0,-1.3333333,0,200)"
     id="g9518"><g
       id="g9520"><path
         id="path9522"
         style="fill:#ffffff;fill-opacity:1;fill-rule:evenodd;stroke:none"
         d="m 19.973,149.621 h 658.586 l 1.011,-0.09 0.961,-0.133 0.953,-0.164 0.957,-0.222 0.911,-0.262 0.914,-0.301 0.918,-0.351 0.871,-0.399 0.828,-0.429 0.828,-0.485 0.793,-0.519 0.773,-0.567 0.743,-0.562 0.695,-0.617 0.703,-0.653 0.652,-0.695 0.61,-0.695 0.605,-0.739 0.531,-0.785 0.52,-0.785 0.473,-0.828 0.441,-0.871 0.387,-0.828 0.355,-0.914 0.297,-0.918 0.266,-0.914 0.218,-0.961 0.168,-0.961 0.141,-0.996 0.078,-0.961 V 19.027 l -0.078,-0.992 -0.141,-1.004 -0.168,-0.961 -0.218,-0.961 -0.266,-0.914 -0.297,-0.91 -0.355,-0.879 -0.387,-0.871 -0.441,-0.875 -0.473,-0.773 -0.52,-0.836 L 693.285,8.316 692.68,7.57 692.07,6.828 691.418,6.18 690.715,5.527 690.02,4.875 689.277,4.301 688.504,3.738 687.711,3.254 686.883,2.777 686.055,2.348 685.184,1.949 684.266,1.598 683.352,1.254 682.441,1 681.484,0.777 680.531,0.602 679.57,0.469 678.559,0.426 677.563,0.383 H 19.973 L 17.965,0.469 17.016,0.602 16.055,0.777 15.094,1 14.133,1.254 13.262,1.598 12.348,1.949 11.484,2.348 10.645,2.777 9.828,3.254 9.035,3.738 8.25,4.301 7.512,4.875 6.777,5.527 6.117,6.18 5.465,6.828 4.859,7.57 4.25,8.316 3.723,9.051 3.203,9.887 2.719,10.66 2.285,11.535 1.898,12.406 1.547,13.285 1.246,14.195 0.984,15.109 0.762,16.07 0.586,17.031 0.453,18.035 0.375,19.027 v 111.989 l 0.078,0.961 0.133,0.996 0.176,0.961 0.222,0.961 0.262,0.914 0.301,0.918 0.351,0.914 0.387,0.828 0.434,0.871 0.484,0.828 0.52,0.785 0.527,0.785 0.609,0.739 0.606,0.695 0.652,0.695 0.66,0.653 0.735,0.617 0.738,0.562 0.785,0.567 0.793,0.519 0.817,0.485 0.839,0.429 0.864,0.399 0.914,0.351 0.871,0.301 0.961,0.262 0.961,0.222 0.961,0.164 0.949,0.133 1.004,0.09 z" /><g
         id="g9524"><g
           id="g9526"><g
             clip-path="url(#clipPath9532)"
             id="g9528"><g
               id="g9534"><path
                 id="path9536"
                 style="fill:#000000;fill-opacity:1;fill-rule:nonzero;stroke:none"
                 d="m 18.961,150 -1.035,-0.086 -0.961,-0.137 -0.981,-0.175 -0.984,-0.223 -0.977,-0.274 -0.898,-0.292 -0.926,-0.364 -0.879,-0.41 -0.859,-0.43 -0.824,-0.5 L 8.824,146.574 8.016,146.008 7.277,145.441 6.52,144.805 5.852,144.133 5.18,143.426 4.578,142.723 3.941,141.965 3.406,141.156 2.875,140.363 2.391,139.523 1.945,138.629 1.551,137.785 1.188,136.855 0.879,135.926 0.621,134.98 0.398,134.016 0.207,133.035 0.086,132.023 0,131.039 V 19.012 L 0.07,17.996 0.207,16.965 0.398,16 0.621,15.02 0.879,14.074 1.188,13.16 1.551,12.25 1.945,11.371 2.391,10.48 2.875,9.688 3.406,8.844 3.957,8.086 4.559,7.328 5.18,6.574 5.848,5.902 6.52,5.25 7.262,4.578 8.016,3.992 8.824,3.426 9.637,2.926 10.461,2.445 11.32,2.016 12.199,1.602 13.125,1.242 14.023,0.895 15,0.637 15.984,0.414 16.945,0.227 17.926,0.086 18.961,0.055 19.973,0 h 657.593 l 1.016,0.051 1.031,0.035 0.981,0.141 0.961,0.187 0.984,0.223 0.926,0.258 0.93,0.343 0.929,0.364 0.895,0.41 0.844,0.433 0.843,0.481 0.809,0.5 0.789,0.566 0.758,0.602 0.703,0.656 0.726,0.652 0.653,0.672 0.636,0.754 0.602,0.758 0.551,0.758 0.515,0.844 0.5,0.789 0.446,0.894 0.398,0.879 0.36,0.91 0.293,0.914 0.273,0.946 0.227,0.98 0.171,0.965 0.137,1.031 0.086,1.016 v 112.027 l -0.086,0.981 -0.137,1.015 -0.171,0.965 -0.227,0.98 -0.273,0.946 -0.293,0.929 -0.36,0.93 -0.398,0.844 -0.446,0.891 -0.5,0.843 -0.515,0.793 -0.551,0.809 -0.617,0.758 -0.621,0.703 -0.653,0.707 -0.726,0.672 -0.703,0.617 -0.758,0.586 -0.789,0.566 -0.809,0.535 -0.843,0.5 -0.844,0.43 -0.895,0.41 -0.929,0.364 -0.93,0.292 -0.926,0.274 -0.984,0.223 -0.961,0.171 -0.981,0.141 -1.031,0.086 z m 0.008,-0.379 h 659.59 l 1.011,-0.09 0.961,-0.129 0.953,-0.168 0.957,-0.222 0.911,-0.266 0.914,-0.297 0.918,-0.351 0.871,-0.399 0.828,-0.429 0.828,-0.485 0.793,-0.519 0.773,-0.567 0.743,-0.562 0.695,-0.617 0.703,-0.653 0.652,-0.695 0.61,-0.695 0.605,-0.739 0.528,-0.785 0.523,-0.785 0.473,-0.828 0.441,-0.871 0.387,-0.828 0.351,-0.914 0.301,-0.918 0.266,-0.914 0.218,-0.961 0.168,-0.961 0.141,-0.996 0.078,-0.961 V 19.031 l -0.078,-0.996 -0.141,-1.004 -0.168,-0.961 -0.218,-0.961 -0.266,-0.914 -0.301,-0.91 -0.351,-0.879 L 695.25,11.535 694.809,10.66 694.336,9.887 693.813,9.051 693.285,8.32 692.68,7.57 692.07,6.832 691.418,6.176 690.715,5.527 690.02,4.875 689.277,4.301 688.504,3.738 687.711,3.254 686.883,2.777 686.055,2.348 685.184,1.949 684.266,1.598 683.352,1.254 682.441,1 681.484,0.777 680.531,0.602 679.57,0.469 678.559,0.426 677.563,0.383 H 19.973 L 17.965,0.469 17.016,0.602 16.055,0.777 15.094,1 14.133,1.254 13.262,1.598 12.348,1.949 11.484,2.348 10.645,2.777 9.828,3.254 9.035,3.738 8.25,4.301 7.508,4.875 6.777,5.527 6.117,6.176 5.469,6.832 4.859,7.57 4.25,8.32 3.723,9.051 3.203,9.887 2.719,10.66 2.285,11.535 1.898,12.406 1.547,13.285 1.246,14.195 0.984,15.109 0.766,16.07 0.586,17.031 0.453,18.035 0.375,19.031 v 111.985 l 0.078,0.961 0.133,0.996 0.18,0.961 0.218,0.961 0.262,0.914 0.301,0.918 0.351,0.914 0.387,0.828 0.434,0.871 0.484,0.828 0.52,0.785 0.527,0.785 0.609,0.739 0.61,0.695 0.648,0.695 0.66,0.653 0.731,0.617 0.742,0.562 0.785,0.567 0.793,0.519 0.817,0.485 0.839,0.429 0.864,0.399 0.914,0.351 0.871,0.297 0.961,0.266 0.961,0.222 0.961,0.168 0.949,0.129 z" /></g></g></g></g></g><g
       id="g9538"><g
         clip-path="url(#clipPath9544)"
         id="g9540"><g
           id="g9546"><g
             id="g9548"><g
               clip-path="url(#clipPath9554)"
               id="g9550"><g
                 id="g9556" /><g
                 id="g9558"><g
                   clip-path="url(#clipPath9564)"
                   id="g9560"><g
                     id="g9566"><g
                       id="g9568"><g
                         clip-path="url(#clipPath9574)"
                         id="g9570"><g
                           id="g9576"><path
                             id="path9578"
                             style="fill:#633a34;fill-opacity:1;fill-rule:evenodd;stroke:none"
                             d="m 19.973,139.82 h 658.074 l 0.512,-0.047 0.484,-0.085 0.477,-0.09 0.96,-0.211 0.872,-0.352 0.871,-0.398 0.828,-0.52 0.738,-0.562 0.699,-0.606 0.649,-0.707 0.574,-0.785 0.477,-0.781 0.394,-0.871 0.352,-0.918 0.257,-0.907 0.086,-0.484 0.047,-0.519 0.043,-0.485 V 19.508 l -0.043,-0.477 -0.047,-0.476 -0.086,-0.52 -0.257,-0.914 -0.352,-0.918 -0.394,-0.828 -0.477,-0.836 -0.574,-0.73 -0.649,-0.696 -0.699,-0.66 -0.738,-0.566 -0.828,-0.485 -0.871,-0.429 -0.872,-0.309 -0.96,-0.258 -0.477,-0.086 -0.484,-0.043 -0.512,-0.047 -0.484,-0.042 H 19.973 l -0.473,0.042 -0.531,0.047 -0.473,0.043 -0.488,0.086 -0.949,0.258 -0.871,0.309 -0.875,0.429 -0.825,0.485 -0.742,0.566 -0.703,0.66 -0.645,0.696 -0.57,0.73 -0.476,0.836 -0.399,0.828 -0.344,0.918 -0.261,0.914 -0.09,0.52 -0.086,0.953 v 110.984 l 0.043,0.485 0.043,0.519 0.09,0.484 0.261,0.907 0.344,0.918 0.399,0.871 0.476,0.781 0.57,0.785 0.645,0.707 0.703,0.606 0.742,0.562 0.825,0.52 0.875,0.398 0.871,0.352 0.949,0.211 0.488,0.09 0.473,0.085 0.531,0.047 z" /></g></g></g></g></g></g></g></g></g><path
           id="path9580"
           style="fill:#ffffff;fill-opacity:1;fill-rule:nonzero;stroke:none"
           d="m 141.809,108.188 h 65.805 v -65.82 h -65.805 z" /><path
           id="path9582"
           style="fill:#ffffff;fill-opacity:1;fill-rule:nonzero;stroke:none"
           d="m 101.082,66.691 c 0,9.27 -7.512,16.786 -16.785,16.786 L 63.418,83.379 88.547,58.25 H 67.609 l -33.507,33.508 33.507,33.504 h 20.938 l -25.129,-25.129 20.879,0.125 c 18.543,0 33.57,-15.028 33.57,-33.567 V 24.746 h -16.754 c 0,0 0,41.883 -0.031,41.945" /><path
           id="path9584"
           style="fill:#633a34;fill-opacity:1;fill-rule:evenodd;stroke:none"
           d="m 170.664,47.859 v 36.043 h -10.633 v 8.161 h 10.633 v 10.632 h 8.098 V 92.063 h 10.636 V 83.902 H 178.762 V 47.859 Z" /><path
           id="path9586"
           style="fill:#633a34;fill-opacity:1;fill-rule:evenodd;stroke:none"
           d="m 156.816,47.859 v 18.547 h -4.949 v 5.688 h 4.949 v 5.379 h 5.934 v -5.379 h 4.945 V 66.406 H 162.75 V 47.859 Z" /><path
           id="path9588"
           style="fill:#633a34;fill-opacity:1;fill-rule:evenodd;stroke:none"
           d="m 186.676,47.859 v 18.547 h -4.946 v 5.688 h 4.946 v 5.379 h 5.937 v -5.379 h 4.946 v -5.688 h -4.946 V 47.859 Z" /><path
           id="path9590"
           style="fill:#ffffff;fill-opacity:1;fill-rule:nonzero;stroke:none"
           d="m 230,52.879 h 6.391 V 66.23 l 3.449,6.454 7.269,-19.805 h 6.77 l -10.344,26.762 8.715,17.863 h -6.395 l -9.339,-20.367 h -0.125 V 97.504 H 230 Z" /><path
           id="path9592"
           style="fill:#ffffff;fill-opacity:1;fill-rule:nonzero;stroke:none"
           d="m 257.809,52.879 h 6.394 v 18.867 c 0,5.199 3.82,6.895 6.516,6.895 0.691,0 1.316,-0.125 1.945,-0.379 v 6.769 c -3.699,0 -5.832,-1.441 -8.461,-3.758 v 3.383 h -6.394 z" /><path
           id="path9594"
           style="fill:#ffffff;fill-opacity:1;fill-rule:nonzero;stroke:none"
           d="m 276.691,52.879 h 6.391 v 31.777 h -6.391 z m 0,38.234 h 6.391 v 6.391 h -6.391 z" /><path
           id="path9596"
           style="fill:#ffffff;fill-opacity:1;fill-rule:nonzero;stroke:none"
           d="m 309.809,66.355 v 8.774 c 0,5.578 -3.637,9.902 -9.528,9.902 -3.883,0 -6.832,-1.816 -8.336,-4.574 C 291.07,78.828 290.758,76.57 290.758,74 V 63.535 c 0,-2.57 0.312,-4.828 1.187,-6.457 1.504,-2.758 4.453,-4.574 8.336,-4.574 2.946,0 5.266,1.066 6.957,2.82 1.629,1.692 2.571,4.137 2.571,6.77 h -6.391 c -0.129,-1.379 -0.691,-3.196 -3.137,-3.196 -1.941,0 -3.133,1.125 -3.133,3.133 v 4.324 z m -12.661,8.649 c 0,2.383 1.192,3.637 3.133,3.637 1.946,0 3.137,-1.254 3.137,-3.637 v -3.637 h -6.27 z" /><path
           id="path9598"
           style="fill:#ffffff;fill-opacity:1;fill-rule:nonzero;stroke:none"
           d="m 316.707,49.184 c 0.813,-7.27 5.641,-9.528 9.523,-9.528 6.77,0 9.59,5.012 9.59,9.34 v 35.66 h -6.39 v -2.883 c -1.629,1.817 -2.883,3.258 -6.02,3.258 -3.07,0 -4.637,-1.191 -5.703,-2.883 -0.812,-1.316 -1,-3.132 -1,-7.707 V 62.344 c 0,-3.508 0.313,-5.453 1.063,-6.832 1.128,-2.067 3.011,-3.008 5.578,-3.008 2.57,0 4.578,1.191 5.957,3.258 h 0.125 v -6.266 c 0,-2.008 -0.879,-3.449 -2.946,-3.449 -2.195,0 -3.324,1.633 -3.386,3.137 z m 6.391,25.132 c 0,2.567 0.941,4.325 3.132,4.325 1.946,0 3.2,-1.633 3.2,-3.95 V 62.344 c 0,-2.004 -1.379,-3.446 -3.2,-3.446 -2.441,0 -3.132,1.754 -3.132,3.758 z" /><path
           id="path9600"
           style="fill:#ffffff;fill-opacity:1;fill-rule:nonzero;stroke:none"
           d="m 360.926,75.758 c -0.063,5.262 -3.821,9.273 -9.024,9.273 -5.14,0 -9.402,-3.886 -9.402,-9.273 0,-4.262 2.445,-7.274 6.457,-8.778 l 3.07,-1.125 c 2.446,-0.941 3.196,-2.132 3.196,-3.886 0,-2.133 -1.754,-3.449 -3.571,-3.449 -2.382,0 -3.199,1.82 -3.449,3.574 h -6.015 c 0.25,-6.27 4.511,-9.59 9.527,-9.59 5.515,0 9.523,4.324 9.523,9.59 0,3.761 -1.504,7.144 -6.265,8.961 l -3.762,1.504 c -2.379,0.941 -2.695,2.07 -2.695,3.261 0,1.629 1.129,3.196 3.136,3.196 1.692,0 3.196,-1.129 3.258,-3.258 z" /><path
           id="path9602"
           style="fill:#ffffff;fill-opacity:1;fill-rule:nonzero;stroke:none"
           d="m 367.598,49.184 c 0.816,-7.27 5.64,-9.528 9.527,-9.528 6.77,0 9.59,5.012 9.59,9.34 v 35.66 h -6.391 v -2.883 c -1.633,1.817 -2.886,3.258 -6.019,3.258 -3.071,0 -4.637,-1.191 -5.703,-2.883 -0.813,-1.316 -1.004,-3.132 -1.004,-7.707 V 62.344 c 0,-3.508 0.316,-5.453 1.066,-6.832 1.129,-2.067 3.008,-3.008 5.578,-3.008 2.571,0 4.574,1.191 5.953,3.258 h 0.129 v -6.266 c 0,-2.008 -0.879,-3.449 -2.949,-3.449 -2.191,0 -3.32,1.633 -3.383,3.137 z m 6.394,25.132 c 0,2.567 0.942,4.325 3.133,4.325 1.945,0 3.199,-1.633 3.199,-3.95 V 62.344 c 0,-2.004 -1.379,-3.446 -3.199,-3.446 -2.445,0 -3.133,1.754 -3.133,3.758 z" /><path
           id="path9604"
           style="fill:#ffffff;fill-opacity:1;fill-rule:nonzero;stroke:none"
           d="m 394.961,52.879 h 6.391 v 18.867 c 0,5.199 3.824,6.895 6.519,6.895 0.688,0 1.317,-0.125 1.942,-0.379 v 6.769 c -3.7,0 -5.829,-1.441 -8.461,-3.758 v 3.383 h -6.391 z" /><path
           id="path9606"
           style="fill:#ffffff;fill-opacity:1;fill-rule:nonzero;stroke:none"
           d="m 425.57,52.879 h 6.395 v 22.125 c 0,6.644 -4.266,10.027 -9.59,10.027 -2.883,0 -5.266,-1.004 -6.957,-2.695 -1.691,-1.691 -2.695,-4.074 -2.883,-6.895 h 6.203 c 0.375,2.071 2.008,3.2 3.637,3.2 2.379,0 3.195,-1.633 3.195,-3.762 v -3.32 c -1.316,0.062 -2.195,0.187 -3.07,0.187 -8.023,0 -10.09,-3.512 -10.09,-10.781 0,-7.02 3.945,-8.461 6.895,-8.461 3.07,0 4.449,1.316 6.14,3.637 h 0.125 z m 0,9.34 c 0,-2.571 -1.316,-4.074 -3.445,-4.074 -2.07,0 -3.324,1.628 -3.324,4.074 0,3.383 2.258,4.511 5.015,4.511 0.563,0 1.063,-0.062 1.754,-0.187 z m -11.031,27.386 h 5.641 V 96 h -5.641 z m 10.152,0 h 5.641 V 96 h -5.641 z" /><path
           id="path9608"
           style="fill:#ffffff;fill-opacity:1;fill-rule:nonzero;stroke:none"
           d="m 439.609,52.879 h 6.395 v 2.883 c 1.629,-1.817 2.883,-3.258 6.078,-3.258 2.57,0 4.449,0.941 5.578,3.008 0.75,1.379 1.067,3.324 1.067,6.832 v 12.097 c 0,4.575 -0.188,6.391 -1.004,7.707 -1.067,1.692 -2.633,2.883 -5.703,2.883 -2.508,0 -4.512,-1.191 -5.891,-3.258 h -0.125 v 15.731 h -6.395 z m 12.723,10.344 c 0,-2.571 -0.941,-4.325 -3.133,-4.325 -1.941,0 -3.195,1.629 -3.195,3.946 v 12.347 c 0,2.008 1.379,3.45 3.195,3.45 2.446,0 3.133,-1.758 3.133,-3.762 z" /><path
           id="path9610"
           style="fill:#ffffff;fill-opacity:1;fill-rule:nonzero;stroke:none"
           d="m 483.957,66.355 v 8.774 c 0,5.578 -3.633,9.902 -9.523,9.902 -3.887,0 -6.832,-1.816 -8.336,-4.574 C 465.219,78.828 464.906,76.57 464.906,74 V 63.535 c 0,-2.57 0.313,-4.828 1.192,-6.457 1.504,-2.758 4.449,-4.574 8.336,-4.574 2.945,0 5.261,1.066 6.953,2.82 1.633,1.692 2.57,4.137 2.57,6.77 h -6.391 c -0.125,-1.379 -0.691,-3.196 -3.132,-3.196 -1.946,0 -3.137,1.125 -3.137,3.133 v 4.324 z m -12.66,8.649 c 0,2.383 1.191,3.637 3.137,3.637 1.941,0 3.132,-1.254 3.132,-3.637 v -3.637 h -6.269 z" /><path
           id="path9612"
           style="fill:#ffffff;fill-opacity:1;fill-rule:nonzero;stroke:none"
           d="m 491.605,52.879 h 6.391 v 18.867 c 0,5.199 3.824,6.895 6.52,6.895 0.691,0 1.316,-0.125 1.941,-0.379 v 6.769 c -3.695,0 -5.828,-1.441 -8.461,-3.758 v 3.383 h -6.391 z" /><path
           id="path9614"
           style="fill:#ffffff;fill-opacity:1;fill-rule:nonzero;stroke:none"
           d="m 528.098,75.758 c -0.063,5.262 -3.821,9.273 -9.024,9.273 -5.14,0 -9.402,-3.886 -9.402,-9.273 0,-4.262 2.445,-7.274 6.457,-8.778 l 3.07,-1.125 c 2.446,-0.941 3.196,-2.132 3.196,-3.886 0,-2.133 -1.754,-3.449 -3.571,-3.449 -2.383,0 -3.199,1.82 -3.449,3.574 h -6.016 c 0.25,-6.27 4.512,-9.59 9.528,-9.59 5.515,0 9.523,4.324 9.523,9.59 0,3.761 -1.504,7.144 -6.265,8.961 l -3.762,1.504 c -2.379,0.941 -2.695,2.07 -2.695,3.261 0,1.629 1.128,3.196 3.136,3.196 1.692,0 3.196,-1.129 3.258,-3.258 z" /><path
           id="path9616"
           style="fill:#ffffff;fill-opacity:1;fill-rule:nonzero;stroke:none"
           d="m 535.52,84.656 h -3.196 v -5.015 h 3.196 V 60.34 c 0,-3.387 1.945,-7.461 7.71,-7.461 h 2.633 v 6.019 c -2.82,0 -3.949,0.188 -3.949,3.133 v 17.61 h 3.949 v 5.015 h -3.949 v 9.653 h -6.394 z" /><path
           id="path9618"
           style="fill:#ffffff;fill-opacity:1;fill-rule:nonzero;stroke:none"
           d="m 564.848,52.879 h 6.394 v 22.125 c 0,6.644 -4.262,10.027 -9.59,10.027 -2.882,0 -5.265,-1.004 -6.957,-2.695 -1.691,-1.691 -2.695,-4.074 -2.882,-6.895 h 6.203 c 0.375,2.071 2.007,3.2 3.636,3.2 2.379,0 3.196,-1.633 3.196,-3.762 v -3.32 c -1.317,0.062 -2.196,0.187 -3.071,0.187 -8.023,0 -10.089,-3.512 -10.089,-10.781 0,-7.02 3.945,-8.461 6.894,-8.461 3.07,0 4.449,1.316 6.141,3.637 h 0.125 z m 0,9.34 c 0,-2.571 -1.317,-4.074 -3.446,-4.074 -2.07,0 -3.324,1.628 -3.324,4.074 0,3.383 2.258,4.511 5.016,4.511 0.562,0 1.066,-0.062 1.754,-0.187 z m -11.032,27.386 h 5.641 V 96 h -5.641 z m 10.153,0 h 5.64 V 96 h -5.64 z" /><path
           id="path9620"
           style="fill:#ffffff;fill-opacity:1;fill-rule:nonzero;stroke:none"
           d="m 578.887,84.656 h -3.196 v -5.015 h 3.196 V 60.34 c 0,-3.387 1.945,-7.461 7.711,-7.461 h 2.629 v 6.019 c -2.821,0 -3.946,0.188 -3.946,3.133 v 17.61 h 3.946 v 5.015 h -3.946 v 9.653 h -6.394 z" /><path
           id="path9622"
           style="fill:#ffffff;fill-opacity:1;fill-rule:nonzero;stroke:none"
           d="m 596.117,84.656 h -3.195 v -5.015 h 3.195 V 60.34 c 0,-3.387 1.946,-7.461 7.711,-7.461 h 2.633 v 6.019 c -2.82,0 -3.949,0.188 -3.949,3.133 v 17.61 h 3.949 v 5.015 h -3.949 v 9.653 h -6.395 z" /><path
           id="path9624"
           style="fill:#ffffff;fill-opacity:1;fill-rule:nonzero;stroke:none"
           d="m 630.336,66.355 v 8.774 c 0,5.578 -3.633,9.902 -9.523,9.902 -3.887,0 -6.833,-1.816 -8.336,-4.574 C 611.598,78.828 611.285,76.57 611.285,74 V 63.535 c 0,-2.57 0.313,-4.828 1.192,-6.457 1.503,-2.758 4.449,-4.574 8.336,-4.574 2.945,0 5.261,1.066 6.957,2.82 1.628,1.692 2.566,4.137 2.566,6.77 h -6.391 c -0.125,-1.379 -0.691,-3.196 -3.132,-3.196 -1.946,0 -3.137,1.125 -3.137,3.133 v 4.324 z m -12.66,8.649 c 0,2.383 1.191,3.637 3.137,3.637 1.941,0 3.132,-1.254 3.132,-3.637 v -3.637 h -6.269 z" /></g></g></g></svg>