<?xml version="1.0" encoding="UTF-8" standalone="no"?>
<svg
   xmlns:dc="http://purl.org/dc/elements/1.1/"
   xmlns:cc="http://creativecommons.org/ns#"
   xmlns:rdf="http://www.w3.org/1999/02/22-rdf-syntax-ns#"
   xmlns:svg="http://www.w3.org/2000/svg"
   xmlns="http://www.w3.org/2000/svg"
   viewBox="0 0 930.052 200"
   height="200"
   width="930.052"
   xml:space="preserve"
   id="svg19334"
   version="1.1"><metadata
     id="metadata19340"><rdf:RDF><cc:Work
         rdf:about=""><dc:format>image/svg+xml</dc:format><dc:type
           rdf:resource="http://purl.org/dc/dcmitype/StillImage" /><dc:title></dc:title></cc:Work></rdf:RDF></metadata><defs
     id="defs19338"><clipPath
       id="clipPath19356"
       clipPathUnits="userSpaceOnUse"><path
         id="path19354"
         d="M 0,0 H 698 V 150 H 0 Z" /></clipPath><clipPath
       id="clipPath19368"
       clipPathUnits="userSpaceOnUse"><path
         id="path19366"
         d="M 9,140 H 688 V 10 H 9 Z" /></clipPath><clipPath
       id="clipPath19378"
       clipPathUnits="userSpaceOnUse"><path
         id="path19376"
         d="M 9,10 H 688 V 140 H 9 Z" /></clipPath><clipPath
       id="clipPath19388"
       clipPathUnits="userSpaceOnUse"><path
         id="path19386"
         d="m 9.539,140 h 678 V 10 h -678 z" /></clipPath><clipPath
       id="clipPath19398"
       clipPathUnits="userSpaceOnUse"><path
         id="path19396"
         d="M 9,10 H 688 V 140 H 9 Z" /></clipPath><clipPath
       id="clipPath19408"
       clipPathUnits="userSpaceOnUse"><path
         id="path19406"
         d="M 9,140 H 688 V 10 H 9 Z" /></clipPath><clipPath
       id="clipPath19418"
       clipPathUnits="userSpaceOnUse"><path
         id="path19416"
         d="M 9,10 H 688 V 140 H 9 Z" /></clipPath><clipPath
       id="clipPath19428"
       clipPathUnits="userSpaceOnUse"><path
         id="path19426"
         d="m 9.539,140 h 678 V 10 h -678 z" /></clipPath><clipPath
       id="clipPath19438"
       clipPathUnits="userSpaceOnUse"><path
         id="path19436"
         d="M 10,10 H 688 V 140 H 10 Z" /></clipPath><clipPath
       id="clipPath19448"
       clipPathUnits="userSpaceOnUse"><path
         id="path19446"
         d="M 10,140 H 688 V 10 H 10 Z" /></clipPath><clipPath
       id="clipPath19458"
       clipPathUnits="userSpaceOnUse"><path
         id="path19456"
         d="M 10,10 H 688 V 140 H 10 Z" /></clipPath></defs><g
     transform="matrix(1.3333333,0,0,-1.3333333,0,200)"
     id="g19342"><g
       id="g19344"><path
         id="path19346"
         style="fill:#ffffff;fill-opacity:1;fill-rule:evenodd;stroke:none"
         d="m 19.973,149.621 h 658.586 l 1.011,-0.09 0.961,-0.133 0.953,-0.164 0.957,-0.222 0.911,-0.262 0.914,-0.301 0.918,-0.351 0.871,-0.399 0.828,-0.429 0.828,-0.485 0.793,-0.519 0.773,-0.567 0.743,-0.562 0.695,-0.617 0.703,-0.653 0.652,-0.695 0.61,-0.695 0.605,-0.739 0.531,-0.785 0.52,-0.785 0.473,-0.828 0.441,-0.871 0.387,-0.828 0.355,-0.914 0.297,-0.918 0.266,-0.914 0.218,-0.961 0.168,-0.961 0.141,-0.996 0.078,-0.961 V 19.027 l -0.078,-0.992 -0.141,-1.004 -0.168,-0.961 -0.218,-0.961 -0.266,-0.914 -0.297,-0.91 -0.355,-0.879 -0.387,-0.871 -0.441,-0.875 -0.473,-0.773 -0.52,-0.836 L 693.285,8.316 692.68,7.57 692.07,6.828 691.418,6.18 690.715,5.527 690.02,4.875 689.277,4.301 688.504,3.738 687.711,3.254 686.883,2.777 686.055,2.348 685.184,1.949 684.266,1.598 683.352,1.254 682.441,1 681.484,0.777 680.531,0.602 679.57,0.469 678.559,0.426 677.563,0.383 H 19.973 L 17.965,0.469 17.016,0.602 16.055,0.777 15.094,1 14.133,1.254 13.262,1.598 12.348,1.949 11.484,2.348 10.645,2.777 9.828,3.254 9.035,3.738 8.25,4.301 7.512,4.875 6.777,5.527 6.117,6.18 5.465,6.828 4.859,7.57 4.25,8.316 3.723,9.051 3.203,9.887 2.719,10.66 2.285,11.535 1.898,12.406 1.547,13.285 1.246,14.195 0.984,15.109 0.762,16.07 0.586,17.031 0.453,18.035 0.375,19.027 v 111.989 l 0.078,0.961 0.133,0.996 0.176,0.961 0.222,0.961 0.262,0.914 0.301,0.918 0.351,0.914 0.387,0.828 0.434,0.871 0.484,0.828 0.52,0.785 0.527,0.785 0.609,0.739 0.606,0.695 0.652,0.695 0.66,0.653 0.735,0.617 0.738,0.562 0.785,0.567 0.793,0.519 0.817,0.485 0.839,0.429 0.864,0.399 0.914,0.351 0.871,0.301 0.961,0.262 0.961,0.222 0.961,0.164 0.949,0.133 1.004,0.09 z" /><g
         id="g19348"><g
           id="g19350"><g
             clip-path="url(#clipPath19356)"
             id="g19352"><g
               id="g19358"><path
                 id="path19360"
                 style="fill:#000000;fill-opacity:1;fill-rule:nonzero;stroke:none"
                 d="m 18.961,150 -1.035,-0.086 -0.961,-0.137 -0.981,-0.175 -0.984,-0.223 -0.977,-0.274 -0.898,-0.292 -0.926,-0.364 -0.879,-0.41 -0.859,-0.43 -0.824,-0.5 L 8.824,146.574 8.016,146.008 7.277,145.441 6.52,144.805 5.852,144.133 5.18,143.426 4.578,142.723 3.941,141.965 3.406,141.156 2.875,140.363 2.391,139.523 1.945,138.629 1.551,137.785 1.188,136.855 0.879,135.926 0.621,134.98 0.398,134.016 0.207,133.035 0.086,132.023 0,131.039 V 19.012 L 0.07,17.996 0.207,16.965 0.398,16 0.621,15.02 0.879,14.074 1.188,13.16 1.551,12.25 1.945,11.371 2.391,10.48 2.875,9.688 3.406,8.844 3.957,8.086 4.559,7.328 5.18,6.574 5.848,5.902 6.52,5.25 7.262,4.578 8.016,3.992 8.824,3.426 9.637,2.926 10.461,2.445 11.32,2.016 12.199,1.602 13.125,1.242 14.023,0.895 15,0.637 15.984,0.414 16.945,0.227 17.926,0.086 18.961,0.055 19.973,0 h 657.593 l 1.016,0.051 1.031,0.035 0.981,0.141 0.961,0.187 0.984,0.223 0.926,0.258 0.93,0.343 0.929,0.364 0.895,0.41 0.844,0.433 0.843,0.481 0.809,0.5 0.789,0.566 0.758,0.602 0.703,0.656 0.726,0.652 0.653,0.672 0.636,0.754 0.602,0.758 0.551,0.758 0.515,0.844 0.5,0.789 0.446,0.894 0.398,0.879 0.36,0.91 0.293,0.914 0.273,0.946 0.227,0.98 0.171,0.965 0.137,1.031 0.086,1.016 v 112.027 l -0.086,0.981 -0.137,1.015 -0.171,0.965 -0.227,0.98 -0.273,0.946 -0.293,0.929 -0.36,0.93 -0.398,0.844 -0.446,0.891 -0.5,0.843 -0.515,0.793 -0.551,0.809 -0.617,0.758 -0.621,0.703 -0.653,0.707 -0.726,0.672 -0.703,0.617 -0.758,0.586 -0.789,0.566 -0.809,0.535 -0.843,0.5 -0.844,0.43 -0.895,0.41 -0.929,0.364 -0.93,0.292 -0.926,0.274 -0.984,0.223 -0.961,0.171 -0.981,0.141 -1.031,0.086 z m 0.008,-0.379 h 659.59 l 1.011,-0.09 0.961,-0.129 0.953,-0.168 0.957,-0.222 0.911,-0.266 0.914,-0.297 0.918,-0.351 0.871,-0.399 0.828,-0.429 0.828,-0.485 0.793,-0.519 0.773,-0.567 0.743,-0.562 0.695,-0.617 0.703,-0.653 0.652,-0.695 0.61,-0.695 0.605,-0.739 0.528,-0.785 0.523,-0.785 0.473,-0.828 0.441,-0.871 0.387,-0.828 0.351,-0.914 0.301,-0.918 0.266,-0.914 0.218,-0.961 0.168,-0.961 0.141,-0.996 0.078,-0.961 V 19.031 l -0.078,-0.996 -0.141,-1.004 -0.168,-0.961 -0.218,-0.961 -0.266,-0.914 -0.301,-0.91 -0.351,-0.879 L 695.25,11.535 694.809,10.66 694.336,9.887 693.813,9.051 693.285,8.32 692.68,7.57 692.07,6.832 691.418,6.176 690.715,5.527 690.02,4.875 689.277,4.301 688.504,3.738 687.711,3.254 686.883,2.777 686.055,2.348 685.184,1.949 684.266,1.598 683.352,1.254 682.441,1 681.484,0.777 680.531,0.602 679.57,0.469 678.559,0.426 677.563,0.383 H 19.973 L 17.965,0.469 17.016,0.602 16.055,0.777 15.094,1 14.133,1.254 13.262,1.598 12.348,1.949 11.484,2.348 10.645,2.777 9.828,3.254 9.035,3.738 8.25,4.301 7.508,4.875 6.777,5.527 6.117,6.176 5.469,6.832 4.859,7.57 4.25,8.32 3.723,9.051 3.203,9.887 2.719,10.66 2.285,11.535 1.898,12.406 1.547,13.285 1.246,14.195 0.984,15.109 0.766,16.07 0.586,17.031 0.453,18.035 0.375,19.031 v 111.985 l 0.078,0.961 0.133,0.996 0.18,0.961 0.218,0.961 0.262,0.914 0.301,0.918 0.351,0.914 0.387,0.828 0.434,0.871 0.484,0.828 0.52,0.785 0.527,0.785 0.609,0.739 0.61,0.695 0.648,0.695 0.66,0.653 0.731,0.617 0.742,0.562 0.785,0.567 0.793,0.519 0.817,0.485 0.839,0.429 0.864,0.399 0.914,0.351 0.871,0.297 0.961,0.266 0.961,0.222 0.961,0.168 0.949,0.129 z" /></g></g></g></g></g><g
       id="g19362"><g
         clip-path="url(#clipPath19368)"
         id="g19364"><g
           id="g19370"><g
             id="g19372"><g
               clip-path="url(#clipPath19378)"
               id="g19374"><g
                 id="g19380" /><g
                 id="g19382"><g
                   clip-path="url(#clipPath19388)"
                   id="g19384"><g
                     id="g19390"><g
                       id="g19392"><g
                         clip-path="url(#clipPath19398)"
                         id="g19394"><g
                           id="g19400" /><g
                           id="g19402"><g
                             clip-path="url(#clipPath19408)"
                             id="g19404"><g
                               id="g19410"><g
                                 id="g19412"><g
                                   clip-path="url(#clipPath19418)"
                                   id="g19414"><g
                                   id="g19420" /><g
                                   id="g19422"><g
                                   clip-path="url(#clipPath19428)"
                                   id="g19424"><g
                                   id="g19430"><g
                                   id="g19432"><g
                                   clip-path="url(#clipPath19438)"
                                   id="g19434"><g
                                   id="g19440" /><g
                                   id="g19442"><g
                                   clip-path="url(#clipPath19448)"
                                   id="g19444"><g
                                   id="g19450"><g
                                   id="g19452"><g
                                   clip-path="url(#clipPath19458)"
                                   id="g19454"><g
                                   id="g19460"><path
                                   id="path19462"
                                   style="fill:#633a34;fill-opacity:1;fill-rule:evenodd;stroke:none"
                                   d="M 677.566,139.82 H 19.492 l -0.512,-0.047 -0.484,-0.085 -0.476,-0.09 -0.961,-0.211 -0.871,-0.352 -0.872,-0.398 -0.828,-0.52 -0.738,-0.562 -0.699,-0.606 -0.649,-0.707 -0.574,-0.785 -0.476,-0.781 -0.395,-0.871 -0.352,-0.918 -0.257,-0.907 -0.086,-0.484 -0.047,-0.519 -0.043,-0.485 V 19.508 l 0.043,-0.477 0.047,-0.476 0.086,-0.52 0.257,-0.914 0.352,-0.918 0.395,-0.828 0.476,-0.836 0.574,-0.73 0.649,-0.696 0.699,-0.66 0.738,-0.566 0.828,-0.485 0.872,-0.429 0.871,-0.309 0.961,-0.258 0.476,-0.086 0.484,-0.043 0.512,-0.047 0.485,-0.042 h 657.589 l 0.473,0.042 0.531,0.047 0.473,0.043 0.488,0.086 0.949,0.258 0.872,0.309 0.875,0.429 0.824,0.485 0.742,0.566 0.703,0.66 0.645,0.696 0.57,0.73 0.477,0.836 0.398,0.828 0.344,0.918 0.261,0.914 0.09,0.52 0.086,0.953 v 110.984 l -0.043,0.485 -0.043,0.519 -0.09,0.484 -0.261,0.907 -0.344,0.918 -0.398,0.871 -0.477,0.781 -0.57,0.785 -0.645,0.707 -0.703,0.606 -0.742,0.562 -0.824,0.52 -0.875,0.398 -0.872,0.352 -0.949,0.211 -0.488,0.09 -0.473,0.085 -0.531,0.047 z" /></g></g></g></g></g></g></g></g></g></g></g></g></g></g></g></g></g></g></g></g></g></g></g></g><path
           id="path19464"
           style="fill:#ffffff;fill-opacity:1;fill-rule:nonzero;stroke:none"
           d="m 596.457,66.691 c 0,9.27 7.512,16.786 16.785,16.786 L 634.121,83.379 608.992,58.25 h 20.938 l 33.508,33.508 -33.508,33.504 h -20.938 l 25.129,-25.129 -20.879,0.125 c -18.543,0 -33.57,-15.028 -33.57,-33.567 V 24.746 h 16.754 c 0,0 0,41.883 0.031,41.945" /><path
           id="path19466"
           style="fill:#ffffff;fill-opacity:1;fill-rule:nonzero;stroke:none"
           d="m 67.203,108.188 h 65.805 V 42.368 H 67.203 Z" /><path
           id="path19468"
           style="fill:#633a34;fill-opacity:1;fill-rule:evenodd;stroke:none"
           d="M 96.059,47.859 V 83.902 H 85.426 v 8.161 h 10.633 v 10.632 h 8.097 V 92.063 h 10.637 V 83.902 H 104.156 V 47.859 Z" /><path
           id="path19470"
           style="fill:#633a34;fill-opacity:1;fill-rule:evenodd;stroke:none"
           d="m 82.211,47.859 v 18.547 h -4.949 v 5.688 h 4.949 v 5.379 h 5.934 V 72.094 H 93.09 V 66.406 H 88.145 V 47.859 Z" /><path
           id="path19472"
           style="fill:#633a34;fill-opacity:1;fill-rule:evenodd;stroke:none"
           d="m 112.07,47.859 v 18.547 h -4.945 v 5.688 h 4.945 v 5.379 h 5.938 v -5.379 h 4.945 v -5.688 h -4.945 V 47.859 Z" /><path
           id="path19474"
           style="fill:#ffffff;fill-opacity:1;fill-rule:nonzero;stroke:none"
           d="m 155.395,52.879 h 6.39 V 66.23 l 3.449,6.454 7.27,-19.805 h 6.769 l -10.343,26.762 8.715,17.863 h -6.395 l -9.34,-20.367 h -0.125 v 20.367 h -6.39 z" /><path
           id="path19476"
           style="fill:#ffffff;fill-opacity:1;fill-rule:nonzero;stroke:none"
           d="m 183.203,52.879 h 6.395 v 18.867 c 0,5.199 3.82,6.895 6.515,6.895 0.692,0 1.317,-0.125 1.946,-0.379 v 6.769 c -3.7,0 -5.832,-1.441 -8.461,-3.758 v 3.383 h -6.395 z" /><path
           id="path19478"
           style="fill:#ffffff;fill-opacity:1;fill-rule:nonzero;stroke:none"
           d="m 202.086,52.879 h 6.391 v 31.777 h -6.391 z m 0,38.234 h 6.391 v 6.391 h -6.391 z" /><path
           id="path19480"
           style="fill:#ffffff;fill-opacity:1;fill-rule:nonzero;stroke:none"
           d="m 235.203,66.355 v 8.774 c 0,5.578 -3.637,9.902 -9.527,9.902 -3.883,0 -6.832,-1.816 -8.336,-4.574 C 216.465,78.828 216.152,76.57 216.152,74 V 63.535 c 0,-2.57 0.313,-4.828 1.188,-6.457 1.504,-2.758 4.453,-4.574 8.336,-4.574 2.945,0 5.265,1.066 6.957,2.82 1.629,1.692 2.57,4.137 2.57,6.77 h -6.39 c -0.129,-1.379 -0.692,-3.196 -3.137,-3.196 -1.942,0 -3.133,1.125 -3.133,3.133 v 4.324 z m -12.66,8.649 c 0,2.383 1.191,3.637 3.133,3.637 1.945,0 3.137,-1.254 3.137,-3.637 v -3.637 h -6.27 z" /><path
           id="path19482"
           style="fill:#ffffff;fill-opacity:1;fill-rule:nonzero;stroke:none"
           d="m 242.102,49.184 c 0.812,-7.27 5.64,-9.528 9.523,-9.528 6.77,0 9.59,5.012 9.59,9.34 v 35.66 h -6.391 v -2.883 c -1.629,1.817 -2.883,3.258 -6.019,3.258 -3.071,0 -4.637,-1.191 -5.703,-2.883 -0.813,-1.316 -1,-3.132 -1,-7.707 V 62.344 c 0,-3.508 0.312,-5.453 1.062,-6.832 1.129,-2.067 3.012,-3.008 5.578,-3.008 2.571,0 4.578,1.191 5.957,3.258 h 0.125 v -6.266 c 0,-2.008 -0.879,-3.449 -2.945,-3.449 -2.195,0 -3.324,1.633 -3.387,3.137 z m 6.39,25.132 c 0,2.567 0.942,4.325 3.133,4.325 1.945,0 3.199,-1.633 3.199,-3.95 V 62.344 c 0,-2.004 -1.379,-3.446 -3.199,-3.446 -2.441,0 -3.133,1.754 -3.133,3.758 z" /><path
           id="path19484"
           style="fill:#ffffff;fill-opacity:1;fill-rule:nonzero;stroke:none"
           d="m 286.32,75.758 c -0.062,5.262 -3.82,9.273 -9.023,9.273 -5.141,0 -9.402,-3.886 -9.402,-9.273 0,-4.262 2.445,-7.274 6.457,-8.778 l 3.07,-1.125 c 2.445,-0.941 3.195,-2.132 3.195,-3.886 0,-2.133 -1.754,-3.449 -3.57,-3.449 -2.383,0 -3.199,1.82 -3.449,3.574 h -6.016 c 0.25,-6.27 4.512,-9.59 9.527,-9.59 5.516,0 9.524,4.324 9.524,9.59 0,3.761 -1.504,7.144 -6.266,8.961 l -3.762,1.504 c -2.378,0.941 -2.695,2.07 -2.695,3.261 0,1.629 1.129,3.196 3.137,3.196 1.691,0 3.195,-1.129 3.258,-3.258 z" /><path
           id="path19486"
           style="fill:#ffffff;fill-opacity:1;fill-rule:nonzero;stroke:none"
           d="m 292.992,49.184 c 0.817,-7.27 5.641,-9.528 9.528,-9.528 6.769,0 9.589,5.012 9.589,9.34 v 35.66 h -6.39 v -2.883 c -1.633,1.817 -2.887,3.258 -6.02,3.258 -3.07,0 -4.636,-1.191 -5.703,-2.883 -0.812,-1.316 -1.004,-3.132 -1.004,-7.707 V 62.344 c 0,-3.508 0.317,-5.453 1.067,-6.832 1.129,-2.067 3.007,-3.008 5.578,-3.008 2.57,0 4.574,1.191 5.953,3.258 h 0.129 v -6.266 c 0,-2.008 -0.879,-3.449 -2.949,-3.449 -2.192,0 -3.321,1.633 -3.383,3.137 z m 6.395,25.132 c 0,2.567 0.941,4.325 3.133,4.325 1.945,0 3.199,-1.633 3.199,-3.95 V 62.344 c 0,-2.004 -1.379,-3.446 -3.199,-3.446 -2.446,0 -3.133,1.754 -3.133,3.758 z" /><path
           id="path19488"
           style="fill:#ffffff;fill-opacity:1;fill-rule:nonzero;stroke:none"
           d="m 320.355,52.879 h 6.391 v 18.867 c 0,5.199 3.824,6.895 6.52,6.895 0.687,0 1.316,-0.125 1.941,-0.379 v 6.769 c -3.699,0 -5.828,-1.441 -8.461,-3.758 v 3.383 h -6.391 z" /><path
           id="path19490"
           style="fill:#ffffff;fill-opacity:1;fill-rule:nonzero;stroke:none"
           d="m 350.965,52.879 h 6.394 v 22.125 c 0,6.644 -4.265,10.027 -9.589,10.027 -2.883,0 -5.266,-1.004 -6.957,-2.695 -1.692,-1.691 -2.696,-4.074 -2.883,-6.895 h 6.203 c 0.375,2.071 2.008,3.2 3.637,3.2 2.378,0 3.195,-1.633 3.195,-3.762 v -3.32 c -1.317,0.062 -2.195,0.187 -3.07,0.187 -8.024,0 -10.09,-3.512 -10.09,-10.781 0,-7.02 3.945,-8.461 6.894,-8.461 3.071,0 4.449,1.316 6.141,3.637 h 0.125 z m 0,9.34 c 0,-2.571 -1.317,-4.074 -3.445,-4.074 -2.071,0 -3.325,1.628 -3.325,4.074 0,3.383 2.258,4.511 5.016,4.511 0.562,0 1.062,-0.062 1.754,-0.187 z m -11.031,27.386 h 5.64 V 96 h -5.64 z m 10.152,0 h 5.641 V 96 h -5.641 z" /><path
           id="path19492"
           style="fill:#ffffff;fill-opacity:1;fill-rule:nonzero;stroke:none"
           d="m 365.004,52.879 h 6.394 v 2.883 c 1.629,-1.817 2.883,-3.258 6.079,-3.258 2.57,0 4.449,0.941 5.578,3.008 0.75,1.379 1.066,3.324 1.066,6.832 v 12.097 c 0,4.575 -0.187,6.391 -1.004,7.707 -1.066,1.692 -2.633,2.883 -5.703,2.883 -2.508,0 -4.512,-1.191 -5.891,-3.258 h -0.125 v 15.731 h -6.394 z m 12.723,10.344 c 0,-2.571 -0.942,-4.325 -3.133,-4.325 -1.942,0 -3.196,1.629 -3.196,3.946 v 12.347 c 0,2.008 1.379,3.45 3.196,3.45 2.445,0 3.133,-1.758 3.133,-3.762 z" /><path
           id="path19494"
           style="fill:#ffffff;fill-opacity:1;fill-rule:nonzero;stroke:none"
           d="m 409.352,66.355 v 8.774 c 0,5.578 -3.633,9.902 -9.524,9.902 -3.887,0 -6.832,-1.816 -8.336,-4.574 C 390.613,78.828 390.301,76.57 390.301,74 V 63.535 c 0,-2.57 0.312,-4.828 1.191,-6.457 1.504,-2.758 4.449,-4.574 8.336,-4.574 2.945,0 5.262,1.066 6.953,2.82 1.633,1.692 2.571,4.137 2.571,6.77 h -6.391 c -0.125,-1.379 -0.691,-3.196 -3.133,-3.196 -1.945,0 -3.137,1.125 -3.137,3.133 v 4.324 z m -12.661,8.649 c 0,2.383 1.192,3.637 3.137,3.637 1.942,0 3.133,-1.254 3.133,-3.637 v -3.637 h -6.27 z" /><path
           id="path19496"
           style="fill:#ffffff;fill-opacity:1;fill-rule:nonzero;stroke:none"
           d="m 417,52.879 h 6.391 v 18.867 c 0,5.199 3.824,6.895 6.519,6.895 0.692,0 1.317,-0.125 1.942,-0.379 v 6.769 c -3.696,0 -5.829,-1.441 -8.461,-3.758 v 3.383 H 417 Z" /><path
           id="path19498"
           style="fill:#ffffff;fill-opacity:1;fill-rule:nonzero;stroke:none"
           d="m 453.492,75.758 c -0.062,5.262 -3.82,9.273 -9.023,9.273 -5.141,0 -9.403,-3.886 -9.403,-9.273 0,-4.262 2.446,-7.274 6.457,-8.778 l 3.071,-1.125 c 2.445,-0.941 3.195,-2.132 3.195,-3.886 0,-2.133 -1.754,-3.449 -3.57,-3.449 -2.383,0 -3.199,1.82 -3.449,3.574 h -6.016 c 0.25,-6.27 4.512,-9.59 9.527,-9.59 5.516,0 9.524,4.324 9.524,9.59 0,3.761 -1.504,7.144 -6.266,8.961 l -3.762,1.504 c -2.379,0.941 -2.695,2.07 -2.695,3.261 0,1.629 1.129,3.196 3.137,3.196 1.691,0 3.195,-1.129 3.258,-3.258 z" /><path
           id="path19500"
           style="fill:#ffffff;fill-opacity:1;fill-rule:nonzero;stroke:none"
           d="m 460.914,84.656 h -3.195 v -5.015 h 3.195 V 60.34 c 0,-3.387 1.945,-7.461 7.711,-7.461 h 2.633 v 6.019 c -2.82,0 -3.949,0.188 -3.949,3.133 v 17.61 h 3.949 v 5.015 h -3.949 v 9.653 h -6.395 z" /><path
           id="path19502"
           style="fill:#ffffff;fill-opacity:1;fill-rule:nonzero;stroke:none"
           d="m 490.242,52.879 h 6.395 v 22.125 c 0,6.644 -4.262,10.027 -9.59,10.027 -2.883,0 -5.266,-1.004 -6.957,-2.695 -1.692,-1.691 -2.695,-4.074 -2.883,-6.895 h 6.203 c 0.375,2.071 2.008,3.2 3.637,3.2 2.379,0 3.195,-1.633 3.195,-3.762 v -3.32 c -1.316,0.062 -2.195,0.187 -3.07,0.187 -8.024,0 -10.09,-3.512 -10.09,-10.781 0,-7.02 3.945,-8.461 6.895,-8.461 3.07,0 4.449,1.316 6.14,3.637 h 0.125 z m 0,9.34 c 0,-2.571 -1.316,-4.074 -3.445,-4.074 -2.07,0 -3.324,1.628 -3.324,4.074 0,3.383 2.257,4.511 5.015,4.511 0.563,0 1.067,-0.062 1.754,-0.187 z m -11.031,27.386 h 5.641 V 96 h -5.641 z m 10.152,0 h 5.641 V 96 h -5.641 z" /><path
           id="path19504"
           style="fill:#ffffff;fill-opacity:1;fill-rule:nonzero;stroke:none"
           d="m 504.281,84.656 h -3.195 v -5.015 h 3.195 V 60.34 c 0,-3.387 1.946,-7.461 7.711,-7.461 h 2.629 v 6.019 c -2.82,0 -3.945,0.188 -3.945,3.133 v 17.61 h 3.945 v 5.015 h -3.945 v 9.653 h -6.395 z" /><path
           id="path19506"
           style="fill:#ffffff;fill-opacity:1;fill-rule:nonzero;stroke:none"
           d="m 521.512,84.656 h -3.196 v -5.015 h 3.196 V 60.34 c 0,-3.387 1.945,-7.461 7.711,-7.461 h 2.632 v 6.019 c -2.82,0 -3.949,0.188 -3.949,3.133 v 17.61 h 3.949 v 5.015 h -3.949 v 9.653 h -6.394 z" /><path
           id="path19508"
           style="fill:#ffffff;fill-opacity:1;fill-rule:nonzero;stroke:none"
           d="m 555.73,66.355 v 8.774 c 0,5.578 -3.632,9.902 -9.523,9.902 -3.887,0 -6.832,-1.816 -8.336,-4.574 C 536.992,78.828 536.68,76.57 536.68,74 V 63.535 c 0,-2.57 0.312,-4.828 1.191,-6.457 1.504,-2.758 4.449,-4.574 8.336,-4.574 2.945,0 5.262,1.066 6.957,2.82 1.629,1.692 2.566,4.137 2.566,6.77 h -6.39 c -0.125,-1.379 -0.692,-3.196 -3.133,-3.196 -1.945,0 -3.137,1.125 -3.137,3.133 v 4.324 z m -12.66,8.649 c 0,2.383 1.192,3.637 3.137,3.637 1.941,0 3.133,-1.254 3.133,-3.637 v -3.637 h -6.27 z" /></g></g></g></svg>