<?xml version="1.0" encoding="UTF-8" standalone="no"?>
<svg
   xmlns:dc="http://purl.org/dc/elements/1.1/"
   xmlns:cc="http://creativecommons.org/ns#"
   xmlns:rdf="http://www.w3.org/1999/02/22-rdf-syntax-ns#"
   xmlns:svg="http://www.w3.org/2000/svg"
   xmlns="http://www.w3.org/2000/svg"
   viewBox="0 0 931.02545 201.30859"
   height="201.30859"
   width="931.02545"
   xml:space="preserve"
   id="svg18923"
   version="1.1"><metadata
     id="metadata18929"><rdf:RDF><cc:Work
         rdf:about=""><dc:format>image/svg+xml</dc:format><dc:type
           rdf:resource="http://purl.org/dc/dcmitype/StillImage" /><dc:title></dc:title></cc:Work></rdf:RDF></metadata><defs
     id="defs18927" /><g
     transform="matrix(1.3333333,0,0,-1.3333333,0,201.30859)"
     id="g18931"><g
       id="g18933"><path
         id="path18935"
         style="fill:#ffffff;fill-opacity:1;fill-rule:nonzero;stroke:none"
         d="M 684.992,150.595 H 13.266 c -7.125,0 -12.887,-5.758 -12.887,-12.867 V 13.239 C 0.379,6.13 6.141,0.368 13.266,0.368 h 671.726 c 7.11,0 12.887,5.762 12.887,12.871 v 124.489 c 0,7.109 -5.777,12.867 -12.887,12.867" /><path
         id="path18937"
         style="fill:#000000;fill-opacity:1;fill-rule:nonzero;stroke:none"
         d="m 684.992,150.981 c 7.313,0 13.278,-5.929 13.278,-13.242 V 13.243 c 0,-7.312 -5.965,-13.242 -13.278,-13.242 H 13.277 C 5.949,0.001 0,5.931 0,13.243 v 124.496 c 0,7.313 5.949,13.242 13.277,13.242 z m 0,-0.386 H 13.266 c -7.125,0 -12.887,-5.758 -12.887,-12.867 V 13.239 C 0.379,6.13 6.141,0.368 13.266,0.368 h 671.726 c 7.11,0 12.887,5.762 12.887,12.871 v 124.489 c 0,7.109 -5.777,12.867 -12.887,12.867 z" /><path
         id="path18939"
         style="fill:#633a34;fill-opacity:1;fill-rule:nonzero;stroke:none"
         d="M 684.992,142.009 H 13.266 c -2.387,0 -4.293,-1.926 -4.293,-4.293 V 13.243 c 0,-2.371 1.906,-4.297 4.293,-4.297 h 671.726 c 2.371,0 4.297,1.926 4.297,4.297 v 124.473 c 0,2.367 -1.926,4.293 -4.297,4.293" /><path
         id="path18941"
         style="fill:#ffffff;fill-opacity:1;fill-rule:nonzero;stroke:none"
         d="M 99.348,11.743 35.605,75.485 99.348,139.212 163.09,75.485 Z" /><path
         id="path18943"
         style="fill:#633a34;fill-opacity:1;fill-rule:nonzero;stroke:none"
         d="M 99.352,126.247 128.895,96.606 H 69.813 Z M 69.645,92.688 h 59.398 V 49.044 H 114 v 21.312 c 0,7.981 -8.656,10.895 -14.648,10.961 C 93.379,81.251 84.703,78.337 84.703,70.356 V 49.044 H 69.645 Z" /><path
         id="path18945"
         style="fill:#ffffff;fill-opacity:1;fill-rule:nonzero;stroke:none"
         d="m 527.535,105.099 h 13.676 c 0,3.785 -3.059,6.847 -6.828,6.847 -3.785,0 -6.848,-3.062 -6.848,-6.847 m 20.113,-5.629 h -20.113 v -0.809 c 0,-2.797 1.711,-5.312 4.297,-6.351 1.07,-0.426 2.207,-0.641 3.356,-0.641 2.617,0 5.121,1.137 6.832,3.144 l 4.886,-4.199 c -2.945,-3.422 -7.222,-5.398 -11.718,-5.398 -1.973,0 -3.915,0.379 -5.743,1.121 -5.035,2.008 -8.343,6.894 -8.343,12.324 v 6.438 c 0,7.339 5.941,13.281 13.281,13.281 7.324,0 13.265,-5.942 13.265,-13.281 z M 486.492,85.778 v 45.075 h 6.434 v -16.504 c 2.074,2.55 5.168,4.031 8.441,4.031 6.008,0 10.879,-4.871 10.879,-10.863 V 85.778 h -6.449 v 19.715 c 0,3.555 -2.883,6.453 -6.438,6.453 -3.554,0 -6.433,-2.898 -6.433,-6.453 V 85.778 Z m -6.437,4.836 c -2.746,-3.324 -6.848,-5.234 -11.141,-5.234 -8.016,0 -14.5,6.484 -14.5,14.484 v 4.032 c 0,8 6.484,14.484 14.5,14.484 4.293,0 8.395,-1.926 11.141,-5.234 l -4.953,-4.114 c -1.532,1.844 -3.801,2.914 -6.188,2.914 -4.445,0 -8.047,-3.605 -8.047,-8.05 v -4.032 c 0,-4.445 3.602,-8.047 8.047,-8.047 2.387,0 4.656,1.071 6.188,2.914 z m -59.43,0.328 4.527,4.563 c 2.536,-2.52 5.973,-3.934 9.547,-3.934 1.629,0 3.242,0.278 4.754,0.856 1.27,0.476 2.09,1.676 2.09,3.011 0,1.696 -1.316,3.11 -3.012,3.208 l -6.843,0.429 c -5.086,0.328 -9.055,4.543 -9.055,9.645 0,4.461 3.062,8.343 7.406,9.394 1.531,0.364 3.094,0.547 4.66,0.547 4.539,0 8.934,-1.531 12.473,-4.363 l -4.016,-5.035 c -2.386,1.925 -5.383,2.961 -8.457,2.961 -1.07,0 -2.125,-0.133 -3.16,-0.379 -1.449,-0.344 -2.469,-1.645 -2.469,-3.125 0,-1.696 1.317,-3.114 3.012,-3.211 l 6.844,-0.426 c 5.086,-0.332 9.054,-4.543 9.054,-9.645 0,-4.015 -2.488,-7.621 -6.253,-9.035 -2.258,-0.84 -4.625,-1.269 -7.028,-1.269 -5.269,0 -10.336,2.074 -14.074,5.808 m -14.5,39.911 h 6.438 v -6.434 h -6.438 z m 0,-12.883 h 6.438 V 85.778 h -6.438 z m -8.836,-32.192 h -4.031 c -4,0 -7.242,3.243 -7.242,7.239 v 19.734 h -3.227 v 5.219 h 3.227 v 9.66 h 6.433 v -9.66 h 4.84 v -5.219 h -4.84 V 93.825 c 0,-1.105 0.906,-2.008 2.008,-2.008 h 2.832 z m -47.496,0 v 32.192 h 6.449 v -3.621 c 2.059,2.55 5.168,4.031 8.446,4.031 6.003,0 10.859,-4.871 10.859,-10.863 V 85.778 h -6.434 v 19.715 c 0,3.555 -2.879,6.453 -6.433,6.453 -3.555,0 -6.438,-2.898 -6.438,-6.453 V 85.778 Z m -16.098,14.086 h -9.25 c -2.218,0 -4.015,-1.793 -4.015,-4.015 0,-2.223 1.797,-4.032 4.015,-4.032 h 5.235 c 2.222,0 4.015,1.809 4.015,4.032 z m 6.453,-14.086 h -6.453 v 3.325 c -1.136,-2.043 -3.293,-3.325 -5.629,-3.325 h -4.015 c -5.348,0 -9.66,4.328 -9.66,9.66 0,5.333 4.312,9.661 9.66,9.661 h 9.644 v 3.226 c 0,1.742 -1.25,3.258 -2.996,3.555 -1.133,0.195 -2.285,0.297 -3.437,0.297 -1.153,0 -2.305,-0.102 -3.442,-0.297 -1.136,-0.199 -2.105,-0.922 -2.617,-1.961 l -5.086,4.035 c 1.516,2.254 3.903,3.801 6.602,4.277 1.496,0.262 3.027,0.395 4.543,0.395 1.531,0 3.043,-0.133 4.558,-0.395 4.805,-0.855 8.328,-5.019 8.328,-9.906 z m -78.078,0 v 32.192 h 6.438 v -3.621 c 2.07,2.55 5.168,4.031 8.457,4.031 3.457,0 6.715,-1.645 8.758,-4.445 2.285,2.816 5.726,4.445 9.347,4.445 6.664,0 12.078,-5.414 12.078,-12.082 v -20.52 h -6.449 v 19.715 c 0,3.555 -2.883,6.453 -6.437,6.453 -3.555,0 -6.434,-2.898 -6.434,-6.453 V 85.778 h -6.433 v 19.715 c 0,3.555 -2.883,6.453 -6.438,6.453 -3.555,0 -6.449,-2.898 -6.449,-6.453 V 85.778 Z m -28.965,12.883 c 0,-3.785 3.063,-6.844 6.829,-6.844 3.785,0 6.847,3.059 6.847,6.844 v 6.438 c 0,3.785 -3.062,6.847 -6.847,6.847 -3.766,0 -6.829,-3.062 -6.829,-6.847 z m -6.433,0 v 6.438 c 0,7.339 5.941,13.281 13.262,13.281 7.343,0 13.285,-5.942 13.285,-13.281 v -6.438 c 0,-7.34 -5.942,-13.281 -13.285,-13.281 -7.321,0 -13.262,5.941 -13.262,13.281 m -30.992,12.477 h 11.273 c 3.77,0 6.832,3.062 6.832,6.832 0,3.785 -3.062,6.843 -6.832,6.843 H 195.68 Z m -6.848,-25.36 v 45.075 h 18.516 c 7.109,0 12.871,-5.774 12.871,-12.883 0,-5.516 -3.504,-10.418 -8.739,-12.196 l 10.352,-19.996 h -8.047 l -9.25,19.321 H 195.68 V 85.778 Z" /><path
         id="path18947"
         style="fill:#ffffff;fill-opacity:1;fill-rule:nonzero;stroke:none"
         d="m 352.211,39.427 h 13.68 c 0,3.785 -3.063,6.847 -6.832,6.847 -3.786,0 -6.848,-3.062 -6.848,-6.847 m 20.113,-5.629 h -20.113 v -0.809 c 0,-2.797 1.695,-5.312 4.297,-6.351 1.07,-0.426 2.207,-0.641 3.359,-0.641 2.613,0 5.117,1.137 6.828,3.145 l 4.887,-4.2 c -2.945,-3.421 -7.223,-5.398 -11.715,-5.398 -1.976,0 -3.918,0.379 -5.746,1.121 -5.035,2.008 -8.344,6.895 -8.344,12.324 v 6.438 c 0,7.34 5.942,13.281 13.282,13.281 7.324,0 13.265,-5.941 13.265,-13.281 z M 311.168,20.106 v 35.415 c 0,4.148 2.664,7.851 6.598,9.167 2.023,0.676 4.148,1.02 6.269,1.02 2.141,0 4.266,-0.344 6.289,-1.02 3.934,-1.316 6.598,-5.019 6.598,-9.167 v -1.2 c 0,-2.898 -1.809,-5.465 -4.524,-6.453 2.715,-0.969 4.524,-3.539 4.524,-6.433 V 28.958 c 0,-4.887 -3.965,-8.852 -8.852,-8.852 h -4.035 v 6.04 h 3.227 c 1.777,0 3.226,1.449 3.226,3.226 v 12.063 c 0,1.777 -1.449,3.226 -3.226,3.226 h -4.016 V 50.7 h 4.016 c 1.777,0 3.226,1.43 3.226,3.207 v 1.614 c 0,1.382 -0.89,2.617 -2.207,3.062 -1.363,0.445 -2.797,0.676 -4.246,0.676 -1.43,0 -2.863,-0.231 -4.226,-0.676 -1.317,-0.445 -2.207,-1.68 -2.207,-3.062 V 20.106 Z M 295.07,34.192 h -9.25 c -2.218,0 -4.031,-1.793 -4.031,-4.015 0,-2.223 1.813,-4.031 4.031,-4.031 h 5.235 c 2.207,0 4.015,1.808 4.015,4.031 z m 6.434,-14.086 h -6.434 v 3.325 c -1.136,-2.043 -3.293,-3.325 -5.629,-3.325 h -4.031 c -5.332,0 -9.66,4.329 -9.66,9.661 0,5.332 4.328,9.66 9.66,9.66 h 9.66 v 3.207 c 0,1.777 -1.265,3.277 -2.996,3.574 -1.133,0.195 -2.285,0.297 -3.437,0.297 -1.153,0 -2.305,-0.102 -3.442,-0.297 -1.136,-0.199 -2.105,-0.922 -2.632,-1.961 l -5.086,4.035 c 1.531,2.254 3.918,3.801 6.601,4.278 1.512,0.261 3.027,0.394 4.559,0.394 1.531,0 3.043,-0.133 4.543,-0.394 4.82,-0.84 8.324,-5.02 8.324,-9.926 z m -50.688,0 v 32.192 h 6.434 v -3.641 c 2.059,2.571 5.168,4.051 8.445,4.051 2.485,0 4.903,-0.855 6.844,-2.418 l -4.574,-5.648 c -1.184,1.039 -2.699,1.632 -4.277,1.632 -3.559,0 -6.438,-2.898 -6.438,-6.437 V 20.106 Z m -8.855,0 h -4.031 c -4,0 -7.242,3.243 -7.242,7.239 v 19.734 h -3.227 v 5.219 h 3.227 v 9.66 h 6.433 v -9.66 h 4.84 v -5.219 h -4.84 V 28.153 c 0,-1.101 0.906,-2.007 2.008,-2.007 h 2.832 z m -53.125,5.809 4.426,5.215 c 3.488,-2.961 7.902,-4.574 12.476,-4.574 1.578,0 3.16,0.199 4.692,0.578 2.679,0.672 4.558,3.074 4.558,5.855 0,3.032 -2.238,5.582 -5.234,5.977 l -7.309,0.969 c -6.402,0.859 -11.191,6.304 -11.191,12.773 0,6.5 4.855,11.996 11.324,12.789 1.055,0.113 2.106,0.18 3.16,0.18 5.317,0 10.516,-1.614 14.895,-4.625 l -3.887,-5.645 c -3.242,2.239 -7.074,3.422 -11.008,3.422 -0.773,0 -1.562,-0.031 -2.336,-0.129 -3.031,-0.363 -5.316,-2.949 -5.316,-5.992 0,-3.027 2.254,-5.598 5.25,-5.992 l 7.305,-0.969 c 6.402,-0.84 11.191,-6.305 11.191,-12.758 0,-5.906 -4.016,-11.058 -9.742,-12.488 -2.09,-0.527 -4.211,-0.793 -6.352,-0.793 -6.187,0 -12.179,2.207 -16.902,6.207" /><path
         id="path18949"
         style="fill:#ffffff;fill-opacity:1;fill-rule:nonzero;stroke:none"
         d="m 663.531,75.481 -45.058,45.063 H 595.922 L 631.984,84.501 H 573.395 V 66.462 h 58.589 L 595.922,30.419 h 22.551 z" /></g></g></svg>