<?xml version="1.0" encoding="UTF-8" standalone="no"?>
<svg
   xmlns:dc="http://purl.org/dc/elements/1.1/"
   xmlns:cc="http://creativecommons.org/ns#"
   xmlns:rdf="http://www.w3.org/1999/02/22-rdf-syntax-ns#"
   xmlns:svg="http://www.w3.org/2000/svg"
   xmlns="http://www.w3.org/2000/svg"
   viewBox="0 0 1001.037 444.67349"
   height="444.67349"
   width="1001.037"
   xml:space="preserve"
   version="1.1"
   id="svg23807"><metadata
     id="metadata23813"><rdf:RDF><cc:Work
         rdf:about=""><dc:format>image/svg+xml</dc:format><dc:type
           rdf:resource="http://purl.org/dc/dcmitype/StillImage" /><dc:title></dc:title></cc:Work></rdf:RDF></metadata><defs
     id="defs23811" /><g
     transform="matrix(1.25,0,0,-1.25,0,444.6735)"
     id="g23815"><g
       id="g23817"><path
         id="path23819"
         style="fill:#ffffff;fill-opacity:1;fill-rule:nonzero;stroke:none"
         d="m 28.43,355.317 -1.438,-0.047 -1.414,-0.094 -1.387,-0.168 -1.414,-0.242 -1.339,-0.359 -1.293,-0.332 -1.317,-0.457 -1.293,-0.504 -1.269,-0.524 -1.196,-0.648 -1.148,-0.645 -1.125,-0.765 -1.102,-0.793 -1.054,-0.789 -1.028,-0.91 -0.984,-0.911 -0.91,-0.98 -0.91,-1.004 L 5.973,344.09 5.23,342.989 4.465,341.864 3.816,340.692 3.172,339.446 2.621,338.251 2.117,336.958 1.664,335.641 1.281,334.348 0.969,333.004 0.73,331.618 0.563,330.204 0.418,328.817 0.418,26.907 0.563,25.516 0.73,24.106 0.969,22.715 1.281,21.376 1.664,20.083 2.117,18.79 2.621,17.473 3.172,16.227 3.816,15.032 4.465,13.883 5.23,12.735 5.973,11.633 6.809,10.602 7.719,9.598 8.629,8.59 9.613,7.68 10.641,6.797 11.695,5.934 12.797,5.192 13.922,4.45 15.07,3.805 l 1.196,-0.672 1.269,-0.527 1.293,-0.504 1.317,-0.453 1.293,-0.406 1.339,-0.289 1.414,-0.239 1.387,-0.144 1.414,-0.168 746.863,0 1.415,0.168 1.386,0.144 1.414,0.239 1.364,0.289 1.293,0.406 1.293,0.453 1.293,0.504 1.218,0.527 1.176,0.672 1.219,0.645 1.152,0.742 1.098,0.742 1.031,0.863 1.027,0.883 0.985,0.91 0.91,1.008 0.91,1.004 0.789,1.031 0.789,1.102 0.766,1.148 0.648,1.149 0.645,1.195 0.551,1.246 0.503,1.317 0.454,1.293 0.336,1.293 0.359,1.339 0.238,1.391 0.168,1.41 0.098,1.391 0.047,1.437 0,299.035 -0.047,1.438 -0.098,1.387 -0.168,1.414 -0.238,1.386 -0.359,1.344 -0.336,1.293 -0.454,1.317 -0.503,1.293 -0.551,1.195 -0.645,1.246 -0.648,1.172 -0.766,1.125 -0.789,1.101 -0.789,1.055 -0.91,1.004 -0.91,0.98 -0.985,0.911 -1.027,0.91 -1.031,0.789 -1.098,0.793 -1.152,0.765 -1.219,0.645 -1.176,0.648 -1.218,0.524 -1.293,0.504 -1.293,0.457 -1.293,0.332 -1.364,0.359 -1.414,0.242 -1.386,0.168 -1.415,0.094 -1.437,0.047 -743.988,0 z" /><path
         id="path23821"
         style="fill:#000000;fill-opacity:1;fill-rule:nonzero;stroke:none"
         d="m 28.43,355.739 -1.453,-0.047 -1.446,-0.137 -1.406,-0.14 -1.445,-0.235 -1.36,-0.375 -1.308,-0.328 -1.309,-0.469 -1.308,-0.511 -1.309,-0.563 -1.219,-0.652 -1.168,-0.656 -1.121,-0.747 -1.121,-0.796 -1.078,-0.84 L 9.352,348.352 8.367,347.418 7.434,346.434 6.5,345.407 5.656,344.333 4.91,343.208 4.113,342.086 3.461,340.872 2.805,339.61 2.246,338.395 1.73,337.083 1.262,335.774 0.887,334.465 0.563,333.11 0.328,331.661 0.188,330.258 0,328.856 0,26.887 0.188,25.489 0.328,24.036 0.563,22.633 0.887,21.278 1.262,19.969 1.73,18.661 2.246,17.301 2.805,16.04 3.461,14.825 4.113,13.657 4.91,12.536 5.656,11.415 6.5,10.336 7.434,9.309 8.32,8.325 9.352,7.391 l 1.027,-0.89 1.078,-0.887 1.121,-0.75 1.121,-0.746 1.168,-0.653 1.219,-0.703 1.309,-0.515 1.308,-0.512 1.309,-0.469 1.308,-0.422 1.403,-0.277 1.402,-0.238 1.406,-0.141 1.446,-0.187 746.918,0 1.402,0.187 1.406,0.141 1.445,0.234 1.407,0.281 1.308,0.418 1.309,0.469 1.308,0.516 1.215,0.515 1.219,0.699 1.215,0.657 1.168,0.746 1.121,0.75 1.031,0.887 1.074,0.89 0.985,0.934 0.933,0.98 0.887,1.031 0.844,1.075 0.793,1.074 0.75,1.172 0.652,1.168 0.656,1.215 0.559,1.261 0.516,1.356 0.468,1.308 0.329,1.313 0.371,1.355 0.238,1.403 0.184,1.449 0.093,1.402 0.047,1.449 0,299.067 -0.047,1.449 -0.093,1.402 -0.184,1.403 -0.238,1.449 -0.371,1.359 -0.329,1.309 -0.468,1.309 -0.516,1.308 -0.559,1.215 -0.656,1.262 -0.652,1.218 -0.75,1.122 -0.793,1.121 -0.844,1.078 -0.887,1.027 -0.933,0.984 -0.985,0.934 -1.074,0.887 -1.031,0.844 -1.121,0.793 -1.168,0.75 -1.215,0.652 -1.219,0.656 -1.215,0.559 -1.308,0.515 -1.309,0.469 -1.308,0.328 -1.407,0.371 -1.445,0.235 -1.406,0.14 -1.402,0.141 -1.45,0.047 -744.015,0 z m 0,-0.422 743.992,0 1.433,-0.047 1.415,-0.094 1.386,-0.168 1.414,-0.242 1.364,-0.355 1.293,-0.336 1.293,-0.457 1.293,-0.504 1.222,-0.524 1.172,-0.648 1.223,-0.645 1.144,-0.765 1.106,-0.789 1.027,-0.793 1.027,-0.91 0.985,-0.911 0.91,-0.98 0.91,-1.008 0.789,-1.051 0.789,-1.101 0.766,-1.125 0.648,-1.172 0.645,-1.246 0.551,-1.195 0.503,-1.293 0.454,-1.321 0.336,-1.289 0.359,-1.344 0.238,-1.386 0.168,-1.414 0.098,-1.387 0.047,-1.438 0,-299.039 -0.047,-1.433 -0.098,-1.391 -0.168,-1.41 -0.238,-1.391 -0.359,-1.339 -0.336,-1.293 -0.454,-1.293 -0.503,-1.317 -0.551,-1.246 -0.645,-1.195 -0.648,-1.149 -0.766,-1.148 -0.789,-1.102 -0.789,-1.031 -0.91,-1.004 L 792.219,8.59 791.234,7.68 790.207,6.797 789.18,5.934 788.074,5.192 786.93,4.45 785.707,3.805 784.535,3.133 783.313,2.606 782.02,2.102 780.727,1.649 779.434,1.243 778.07,0.954 776.656,0.715 775.27,0.571 773.855,0.403 26.992,0.403 25.578,0.571 24.191,0.715 22.777,0.954 21.438,1.243 20.145,1.649 18.828,2.102 17.535,2.606 16.266,3.133 15.07,3.805 13.922,4.45 12.797,5.192 11.695,5.934 10.641,6.797 9.609,7.68 8.629,8.59 7.719,9.598 6.813,10.602 5.973,11.633 5.23,12.735 4.465,13.883 3.816,15.032 3.172,16.227 2.621,17.473 2.117,18.79 1.664,20.083 1.281,21.376 0.969,22.715 0.73,24.106 l -0.167,1.41 -0.145,1.391 0,301.91 0.145,1.387 0.167,1.414 0.239,1.386 0.312,1.344 0.383,1.289 0.453,1.321 0.504,1.293 0.551,1.195 0.644,1.246 0.649,1.172 0.765,1.125 0.743,1.101 0.84,1.051 0.906,1.008 0.91,0.98 0.98,0.911 1.032,0.91 1.054,0.793 1.102,0.789 1.125,0.765 1.148,0.645 1.196,0.648 1.269,0.524 1.293,0.504 1.317,0.457 1.293,0.336 1.339,0.355 1.414,0.242 1.387,0.168 1.414,0.094 1.438,0.047 z" /><path
         id="path23823"
         style="fill:#633a34;fill-opacity:1;fill-rule:nonzero;stroke:none"
         d="m 772.418,341.356 -744.754,0 -0.672,-0.07 -0.719,-0.075 -0.695,-0.168 -0.644,-0.14 -0.649,-0.145 -0.668,-0.265 -0.648,-0.239 -0.598,-0.312 -0.574,-0.285 -0.598,-0.36 -0.625,-0.359 -0.551,-0.383 -0.5,-0.406 -0.48,-0.457 -0.5,-0.43 -0.457,-0.527 -0.453,-0.477 -0.41,-0.55 -0.383,-0.551 -0.406,-0.551 -0.309,-0.598 -0.336,-0.601 -0.266,-0.598 -0.238,-0.644 -0.262,-0.649 -0.191,-0.644 -0.144,-0.696 -0.122,-0.648 -0.07,-0.715 -0.074,-0.695 0,-300.524 0.074,-0.691 0.07,-0.672 0.122,-0.719 0.144,-0.644 0.191,-0.649 0.262,-0.644 0.238,-0.649 0.266,-0.597 0.336,-0.645 0.309,-0.578 0.406,-0.598 0.383,-0.527 0.41,-0.5 0.453,-0.504 0.457,-0.504 0.5,-0.43 0.48,-0.453 0.5,-0.457 0.551,-0.359 0.625,-0.406 0.598,-0.289 0.574,-0.36 0.598,-0.238 0.648,-0.238 0.668,-0.266 0.649,-0.191 0.644,-0.164 0.695,-0.075 0.719,-0.117 0.672,-0.051 745.496,0 0.695,0.051 0.719,0.117 0.645,0.075 0.695,0.164 0.672,0.191 0.644,0.266 0.649,0.238 0.598,0.238 0.597,0.36 0.598,0.289 0.551,0.406 0.55,0.359 0.551,0.457 0.481,0.453 0.527,0.43 0.43,0.504 0.453,0.504 0.41,0.5 0.383,0.527 0.359,0.598 0.356,0.578 0.289,0.645 0.312,0.597 0.239,0.649 0.261,0.644 0.145,0.649 0.144,0.644 0.168,0.719 0.094,0.672 0.051,0.691 0,300.524 -0.051,0.695 -0.094,0.715 -0.168,0.648 -0.144,0.696 -0.145,0.644 -0.261,0.649 -0.239,0.644 -0.312,0.598 -0.289,0.601 -0.356,0.598 -0.359,0.551 -0.383,0.551 -0.41,0.55 -0.453,0.477 -0.43,0.527 -0.527,0.43 -0.481,0.457 -0.551,0.406 -0.55,0.383 -0.551,0.359 -0.598,0.36 -0.597,0.285 -0.598,0.312 -0.649,0.239 -0.644,0.265 -0.672,0.145 -0.695,0.14 -0.645,0.168 -0.719,0.075 -0.695,0.07 -0.742,0 z" /><path
         id="path23825"
         style="fill:#ffffff;fill-opacity:1;fill-rule:evenodd;stroke:none"
         d="m 159.133,281.954 19.055,0 0.91,-0.098 0.886,-0.094 0.911,-0.168 0.886,-0.191 0.86,-0.238 0.863,-0.313 0.789,-0.289 0.789,-0.406 0.816,-0.36 0.743,-0.453 0.742,-0.48 0.719,-0.5 0.691,-0.504 0.648,-0.598 0.598,-0.601 0.598,-0.598 0.601,-0.691 0.547,-0.649 0.504,-0.719 0.457,-0.742 0.453,-0.742 0.406,-0.789 0.336,-0.813 0.36,-0.792 0.238,-0.86 0.266,-0.84 0.191,-0.91 0.141,-0.883 0.168,-0.91 0.05,-0.887 0.047,-0.957 0,-26.695 -0.047,-0.957 -0.05,-0.887 -0.168,-0.957 -0.141,-0.836 -0.191,-0.91 -0.266,-0.84 -0.238,-0.859 -0.36,-0.793 -0.336,-0.859 -0.406,-0.743 -0.453,-0.742 -0.457,-0.742 -0.504,-0.719 -0.547,-0.695 -0.601,-0.644 -0.598,-0.649 -0.598,-0.598 -0.648,-0.55 -0.691,-0.551 -0.719,-0.504 -0.742,-0.43 -0.743,-0.453 -0.816,-0.41 -0.789,-0.332 -0.789,-0.359 -0.863,-0.243 -0.86,-0.261 -0.886,-0.192 -0.911,-0.144 -0.886,-0.168 -0.91,-0.047 -0.958,-0.047 -18.097,0 0,62.891 z m -13.406,12.566 31.503,0 1.653,-0.047 1.605,-0.094 1.555,-0.191 1.555,-0.312 1.558,-0.336 1.485,-0.407 1.461,-0.504 1.386,-0.55 1.414,-0.645 1.34,-0.695 1.363,-0.742 1.247,-0.813 1.246,-0.887 1.195,-0.957 1.148,-0.933 1.102,-1.055 1.055,-1.101 0.957,-1.149 0.933,-1.195 0.91,-1.246 0.813,-1.246 0.742,-1.364 0.695,-1.34 0.645,-1.339 0.551,-1.461 0.504,-1.438 0.406,-1.508 0.336,-1.531 0.312,-1.558 0.192,-1.555 0.117,-1.582 0.051,-1.653 0,-25.16 -0.051,-1.601 -0.117,-1.582 -0.192,-1.606 -0.312,-1.554 -0.336,-1.485 -0.406,-1.508 -0.504,-1.437 -0.551,-1.461 -0.645,-1.387 -0.695,-1.34 -0.742,-1.316 -0.813,-1.293 -0.91,-1.246 -0.933,-1.149 -0.957,-1.148 -1.055,-1.078 -1.102,-1.055 -1.148,-1.004 -1.195,-0.957 -1.246,-0.84 -1.247,-0.859 -1.363,-0.742 -1.34,-0.695 -1.414,-0.598 -1.386,-0.551 -1.461,-0.504 -1.485,-0.453 -1.558,-0.336 -1.555,-0.265 -1.555,-0.192 -1.605,-0.144 -1.653,-0.047 -31.503,0 0,88.027 z m 104.785,-36.914 -0.696,0 -0.644,-0.047 -0.695,-0.121 -0.668,-0.094 -0.649,-0.144 -0.644,-0.192 -0.602,-0.215 -0.598,-0.242 -0.597,-0.261 -0.598,-0.289 -0.551,-0.36 -0.55,-0.332 -0.504,-0.359 -0.504,-0.407 -0.5,-0.433 -0.457,-0.406 -0.43,-0.504 -0.453,-0.453 -0.41,-0.528 -0.36,-0.504 -0.332,-0.55 -0.359,-0.551 -0.242,-0.598 -0.309,-0.551 -0.242,-0.644 -0.215,-0.598 -0.14,-0.648 -0.145,-0.672 -0.145,-0.645 -0.07,-0.644 -0.051,-0.696 -0.047,-0.695 26.813,0 -0.094,1.391 -0.051,0.644 -0.14,0.645 -0.168,0.672 -0.145,0.648 -0.238,0.598 -0.215,0.644 -0.289,0.551 -0.312,0.598 -0.286,0.551 -0.359,0.55 -0.406,0.504 -0.336,0.528 -0.457,0.453 -0.453,0.504 -0.453,0.406 -0.504,0.433 -0.481,0.407 -0.5,0.359 -0.551,0.332 -0.55,0.36 -0.602,0.289 -0.621,0.261 -0.574,0.242 -0.621,0.215 -0.649,0.192 -0.644,0.144 -0.649,0.094 -0.691,0.121 -0.672,0.047 -0.695,0 z m -4.953,-38.352 0.765,-0.289 0.789,-0.261 0.813,-0.239 0.84,-0.144 0.812,-0.145 0.84,-0.121 0.859,-0.047 1.797,0 0.957,0.098 0.934,0.117 0.91,0.192 0.957,0.191 0.887,0.312 0.863,0.29 0.883,0.406 0.816,0.406 0.836,0.453 0.817,0.481 0.742,0.55 0.742,0.598 0.715,0.649 0.695,0.667 0.649,0.743 9.55,-8.235 -1.101,-1.195 -1.149,-1.152 -1.246,-1.102 -1.246,-1.004 -1.363,-0.933 -1.34,-0.864 -1.414,-0.789 -1.434,-0.695 -1.507,-0.645 -1.512,-0.55 -1.555,-0.504 -1.578,-0.36 -1.605,-0.285 -1.606,-0.265 -1.652,-0.141 -3.063,0 -1.437,0.094 -1.461,0.215 -1.387,0.191 -1.414,0.336 -1.387,0.359 -1.34,0.453 -1.367,0.504 -0.91,0.383 -0.883,0.406 -0.91,0.457 -0.84,0.504 -0.812,0.477 -0.84,0.504 -0.766,0.597 -1.484,1.196 -0.719,0.648 -0.691,0.672 -0.649,0.691 -0.644,0.696 -0.598,0.742 -0.551,0.742 -0.55,0.813 -0.551,0.793 -0.504,0.789 -0.453,0.863 -0.41,0.836 -0.43,0.863 -0.359,0.883 -0.36,0.91 -0.238,0.887 -0.313,0.957 -0.238,0.957 -0.191,0.933 -0.168,0.961 -0.098,0.934 -0.094,1.004 -0.046,0.957 -0.051,0.98 0,12.594 0.051,1.34 0.093,1.293 0.145,1.316 0.262,1.293 0.289,1.246 0.359,1.247 0.406,1.195 0.43,1.199 0.504,1.149 1.195,2.203 0.719,1.05 0.695,0.981 0.789,1.008 0.817,0.957 0.836,0.886 0.91,0.86 0.957,0.793 0.984,0.789 1.004,0.695 1.055,0.719 1.101,0.598 1.149,0.597 1.148,0.481 1.149,0.453 1.195,0.453 1.269,0.359 1.247,0.243 1.293,0.238 1.316,0.168 1.293,0.094 1.34,0.05 1.367,-0.05 1.289,-0.094 1.293,-0.168 1.316,-0.238 1.246,-0.243 1.2,-0.359 1.242,-0.453 1.148,-0.453 1.153,-0.481 1.148,-0.597 1.055,-0.598 1.097,-0.719 1.008,-0.695 1.004,-0.789 0.887,-0.793 0.957,-0.86 0.863,-0.886 0.789,-0.957 0.742,-1.008 0.766,-0.981 0.648,-1.05 0.645,-1.102 0.551,-1.101 0.551,-1.149 0.453,-1.199 0.41,-1.195 0.332,-1.247 0.312,-1.246 0.239,-1.293 0.144,-1.316 0.121,-1.293 0.047,-1.34 0,-10.988 -39.43,0 0,-1.606 0.047,-0.98 0.121,-1.004 0.192,-1.008 0.238,-0.933 0.36,-0.957 0.406,-0.887 0.457,-0.859 0.476,-0.84 0.602,-0.813 0.668,-0.742 0.648,-0.695 0.743,-0.645 0.812,-0.601 0.84,-0.5 0.91,-0.504 0.934,-0.407 z m 86.086,-5.625 -0.743,-0.961 -0.859,-0.835 -0.84,-0.813 -0.957,-0.742 -0.91,-0.695 -0.981,-0.649 -1.003,-0.598 -1.055,-0.55 -1.102,-0.453 -1.101,-0.457 -1.102,-0.336 -1.148,-0.309 -1.149,-0.191 -1.199,-0.192 -1.195,-0.097 -2.297,0 -1.055,0.097 -1.054,0.145 -1.051,0.14 -1.055,0.266 -1.008,0.285 -0.98,0.313 -0.957,0.382 -0.957,0.454 -0.887,0.457 -0.91,0.503 -0.86,0.551 -0.839,0.598 -0.789,0.644 -0.817,0.649 -0.691,0.691 -0.696,0.742 -0.718,0.77 -0.598,0.789 -0.598,0.836 -0.55,0.863 -0.551,0.887 -0.457,0.91 -0.383,0.934 -0.406,1.004 -0.36,0.957 -0.238,1.031 -0.266,1.004 -0.191,1.055 -0.141,1.05 -0.05,1.102 -0.047,1.101 0,42.422 12.594,0 0,-39.14 0.046,-0.649 0.098,-0.644 0.117,-0.598 0.145,-0.598 0.144,-0.601 0.215,-0.598 0.238,-0.551 0.243,-0.597 0.308,-0.551 0.289,-0.504 0.309,-0.5 0.359,-0.504 0.383,-0.48 0.41,-0.453 0.406,-0.457 0.454,-0.407 0.433,-0.383 0.453,-0.359 0.504,-0.336 0.5,-0.359 0.551,-0.309 0.551,-0.289 0.551,-0.262 0.55,-0.191 0.598,-0.191 0.602,-0.215 0.597,-0.098 0.645,-0.144 0.601,-0.047 0.645,-0.047 1.316,0 0.649,0.047 0.597,0.047 0.645,0.144 0.601,0.098 0.598,0.215 0.598,0.191 0.551,0.191 1.101,0.551 1.051,0.668 0.961,0.695 0.91,0.79 0.836,0.91 0.695,0.984 0.645,1.004 0.504,1.148 0.261,0.551 0.192,0.598 0.144,0.601 0.168,0.598 0.098,0.598 0.094,0.644 0.047,0.649 0,39.14 12.617,0 0,-62.89 -12.617,0 0,7.136 z m 48.863,-7.136 -0.742,0.047 -0.696,0.05 -0.765,0.094 -0.645,0.098 -0.695,0.144 -0.695,0.215 -0.645,0.238 -0.648,0.262 -0.622,0.242 -0.648,0.36 -0.547,0.285 -0.601,0.406 -0.551,0.41 -0.551,0.383 -0.5,0.453 -0.504,0.457 -0.43,0.5 -0.457,0.551 -0.453,0.48 -0.406,0.551 -0.336,0.598 -0.359,0.598 -0.289,0.597 -0.309,0.649 -0.242,0.621 -0.215,0.695 -0.191,0.645 -0.145,0.695 -0.168,0.695 -0.047,0.696 -0.047,0.714 -0.046,0.743 0,38.523 -6.297,0 0,10.195 6.297,0 0,18.868 12.617,0 0,-18.868 9.453,0 0,-10.195 -9.453,0 0,-37.371 0.093,-0.41 0.098,-0.36 0.094,-0.332 0.191,-0.359 0.168,-0.336 0.239,-0.312 0.265,-0.239 0.285,-0.261 0.313,-0.243 0.285,-0.191 0.359,-0.168 0.336,-0.141 0.407,-0.097 0.41,-0.047 5.91,0 0,-11.828 -7.875,0 z m 41.367,38.519 -0.645,0.098 -0.597,0.117 -0.551,0.195 -0.551,0.192 -0.504,0.308 -0.504,0.289 -0.429,0.407 -0.406,0.406 -0.407,0.43 -0.359,0.457 -0.289,0.504 -0.238,0.55 -0.215,0.551 -0.098,0.598 -0.094,0.597 -0.047,0.598 0.047,0.551 0.047,0.504 0.098,0.527 0.14,0.5 0.215,0.457 0.242,0.504 0.239,0.453 0.312,0.406 0.36,0.383 0.332,0.36 0.41,0.336 0.453,0.312 0.457,0.238 0.43,0.262 0.55,0.191 0.504,0.145 0.766,0.168 0.789,0.145 0.742,0.093 0.766,0.145 0.789,0.047 0.816,0.05 0.743,0.047 1.89,0 1.149,-0.097 1.101,-0.094 1.102,-0.145 1.101,-0.238 1.102,-0.266 1.051,-0.285 2.109,-0.718 1.051,-0.43 1.008,-0.504 0.933,-0.504 1.004,-0.551 0.957,-0.597 0.887,-0.645 0.91,-0.695 7.852,9.816 -1.293,1.004 -1.364,0.957 -1.39,0.887 -1.457,0.863 -1.461,0.742 -1.485,0.692 -1.507,0.648 -1.536,0.551 -1.554,0.5 -1.555,0.457 -1.605,0.383 -1.653,0.312 -1.605,0.239 -1.649,0.168 -1.652,0.093 -1.652,0.051 -1.149,0 -1.152,-0.051 -1.149,-0.093 -1.148,-0.098 -1.149,-0.168 -1.148,-0.191 -1.102,-0.215 -1.148,-0.239 -0.793,-0.238 -0.766,-0.219 -0.742,-0.285 -0.742,-0.312 -0.766,-0.285 -0.695,-0.411 -0.691,-0.355 -0.649,-0.434 -0.644,-0.406 -0.625,-0.504 -0.645,-0.43 -0.551,-0.55 -0.597,-0.504 -0.504,-0.551 -0.551,-0.598 -0.453,-0.597 -0.48,-0.598 -0.454,-0.648 -0.41,-0.668 -0.406,-0.696 -0.332,-0.648 -0.359,-0.742 -0.289,-0.692 -0.262,-0.742 -0.242,-0.766 -0.215,-0.742 -0.192,-0.742 -0.144,-0.816 -0.168,-0.789 -0.047,-0.743 -0.047,-0.863 -0.047,-0.789 0.047,-0.957 0.047,-0.887 0.121,-0.91 0.145,-0.883 0.191,-0.91 0.238,-0.84 0.262,-0.859 0.359,-0.793 0.336,-0.859 0.36,-0.743 0.453,-0.792 0.457,-0.743 0.476,-0.715 0.504,-0.695 0.551,-0.695 0.598,-0.645 0.601,-0.601 0.668,-0.598 0.649,-0.551 0.691,-0.55 0.695,-0.5 0.766,-0.457 0.789,-0.43 0.742,-0.406 0.817,-0.36 0.836,-0.336 0.863,-0.312 0.836,-0.239 0.91,-0.191 0.91,-0.168 0.887,-0.144 0.957,-0.047 13.359,-0.864 0.645,-0.046 0.601,-0.145 0.551,-0.141 0.551,-0.265 0.5,-0.285 0.504,-0.289 0.453,-0.36 0.387,-0.406 0.406,-0.453 0.336,-0.481 0.309,-0.504 0.214,-0.5 0.192,-0.601 0.144,-0.551 0.098,-0.598 0.047,-0.644 -0.047,-0.457 -0.051,-0.5 -0.094,-0.504 -0.097,-0.434 -0.141,-0.453 -0.219,-0.406 -0.238,-0.406 -0.262,-0.383 -0.289,-0.41 -0.308,-0.36 -0.289,-0.332 -0.407,-0.312 -0.359,-0.238 -0.43,-0.243 -0.41,-0.261 -0.453,-0.192 -1.148,-0.359 -1.102,-0.336 -1.148,-0.309 -1.2,-0.242 -1.148,-0.215 -1.195,-0.093 -1.176,-0.098 -2.488,0 -1.293,0.098 -1.317,0.14 -1.293,0.266 -1.246,0.238 -1.242,0.359 -1.199,0.407 -1.219,0.48 -1.199,0.5 -1.149,0.602 -1.101,0.597 -1.102,0.696 -1.054,0.765 -1.051,0.789 -0.985,0.864 -0.957,0.883 -8.855,-8.93 1.41,-1.293 1.438,-1.242 1.507,-1.223 1.559,-1.078 1.648,-1.004 1.653,-0.957 1.699,-0.84 1.75,-0.742 1.746,-0.715 1.797,-0.601 1.867,-0.477 1.844,-0.406 1.89,-0.36 1.915,-0.191 1.89,-0.145 1.942,-0.046 1.769,0 1.75,0.14 1.746,0.192 1.699,0.265 1.75,0.336 1.7,0.453 1.652,0.504 1.652,0.598 1.34,0.551 1.317,0.644 1.246,0.742 1.148,0.864 1.051,0.886 1.055,1.004 0.886,1.055 0.86,1.148 0.742,1.196 0.695,1.246 0.551,1.293 0.504,1.293 0.406,1.386 0.238,1.414 0.121,0.743 0.047,0.695 0.047,0.766 0.051,0.695 -0.051,0.933 -0.047,0.911 -0.093,0.882 -0.168,0.911 -0.192,0.91 -0.265,0.84 -0.286,0.836 -0.312,0.863 -0.336,0.789 -0.406,0.812 -0.406,0.743 -0.43,0.742 -0.504,0.742 -0.504,0.719 -0.551,0.648 -0.597,0.645 -0.598,0.648 -0.672,0.551 -0.644,0.598 -0.696,0.503 -0.765,0.5 -0.696,0.481 -0.789,0.406 -0.742,0.406 -0.863,0.383 -0.789,0.313 -0.864,0.285 -0.836,0.266 -0.91,0.191 -0.886,0.215 -0.911,0.097 -0.957,0.094 -13.359,0.789 z m 43.715,-3.136 0,1.437 0.121,1.461 0.191,1.387 0.239,1.414 0.312,1.39 0.383,1.34 0.457,1.293 0.5,1.293 0.551,1.266 0.672,1.199 0.695,1.195 0.691,1.153 0.793,1.097 0.86,1.078 0.886,1.008 0.957,1.004 0.957,0.934 1.055,0.91 1.055,0.789 1.074,0.816 1.176,0.743 1.195,0.691 1.246,0.602 1.242,0.546 1.321,0.551 1.293,0.41 1.34,0.383 1.363,0.309 1.39,0.242 1.458,0.215 1.39,0.094 1.508,0.05 1.555,-0.05 1.558,-0.094 1.531,-0.266 1.555,-0.285 1.508,-0.359 1.437,-0.504 1.461,-0.5 1.414,-0.649 1.387,-0.695 1.34,-0.742 1.316,-0.86 1.247,-0.886 1.195,-1.004 1.152,-1.055 1.102,-1.078 1.051,-1.195 -9.696,-8.047 -0.621,0.648 -0.598,0.645 -0.648,0.551 -0.644,0.55 -0.696,0.551 -0.695,0.457 -0.766,0.383 -0.789,0.406 -0.742,0.36 -0.816,0.285 -0.836,0.265 -0.864,0.192 -0.789,0.191 -0.91,0.094 -0.836,0.121 -1.703,0 -0.812,-0.121 -0.789,-0.094 -0.766,-0.098 -0.742,-0.191 -0.742,-0.215 -0.766,-0.238 -0.695,-0.313 -0.696,-0.285 -0.695,-0.359 -0.668,-0.383 -0.648,-0.41 -1.196,-0.906 -0.551,-0.481 -0.55,-0.504 -0.551,-0.55 -0.504,-0.598 -0.453,-0.598 -0.43,-0.597 -0.41,-0.649 -0.359,-0.668 -0.332,-0.625 -0.36,-0.719 -0.242,-0.742 -0.262,-0.691 -0.238,-0.742 -0.144,-0.766 -0.168,-0.793 -0.094,-0.789 -0.051,-0.813 0,-9.48 0.051,-0.793 0.094,-0.766 0.168,-0.789 0.144,-0.742 0.238,-0.742 0.262,-0.766 0.242,-0.695 0.36,-0.691 0.332,-0.696 0.359,-0.648 0.41,-0.598 0.43,-0.644 0.453,-0.625 0.504,-0.528 0.551,-0.547 0.55,-0.55 0.551,-0.457 0.598,-0.504 0.598,-0.453 0.648,-0.383 0.668,-0.36 0.695,-0.359 0.696,-0.336 0.695,-0.262 0.766,-0.238 0.742,-0.242 0.742,-0.168 0.766,-0.141 0.789,-0.097 0.812,-0.047 1.703,0 0.836,0.094 0.91,0.097 0.789,0.145 0.864,0.215 0.836,0.285 0.816,0.312 0.742,0.289 0.789,0.407 0.766,0.453 0.695,0.429 0.696,0.504 0.644,0.551 0.648,0.598 0.598,0.601 0.621,0.645 9.696,-8.02 -1.051,-1.148 -1.102,-1.149 -1.152,-1.054 -1.195,-0.934 -1.247,-0.957 -1.316,-0.789 -1.34,-0.816 -1.387,-0.696 -1.414,-0.597 -1.461,-0.551 -1.437,-0.453 -1.508,-0.383 -1.555,-0.313 -1.531,-0.191 -1.558,-0.094 -1.555,-0.05 -1.508,0 -1.39,0.144 -1.458,0.145 -1.39,0.238 -1.363,0.312 -1.34,0.407 -1.293,0.429 -1.321,0.504 -1.242,0.598 -1.246,0.598 -1.195,0.695 -1.176,0.719 -1.074,0.789 -1.055,0.839 -1.055,0.911 -0.957,0.957 -0.957,0.933 -0.886,1.051 -0.86,1.055 -0.793,1.148 -0.691,1.149 -0.695,1.152 -0.672,1.242 -0.551,1.246 -0.5,1.293 -0.457,1.293 -0.383,1.363 -0.312,1.34 -0.239,1.391 -0.191,1.461 -0.121,1.387 0,9.336 z m 75.39,52.644 0,-32.223 0.743,0.887 0.859,0.91 0.84,0.789 0.91,0.743 0.957,0.695 0.981,0.644 1.007,0.602 1.051,0.551 1.102,0.453 1.101,0.406 1.102,0.359 1.148,0.29 1.149,0.238 1.199,0.168 1.148,0.094 1.223,0.05 1.074,-0.05 1.102,-0.047 1.054,-0.168 1.055,-0.192 1.051,-0.191 1.008,-0.313 0.98,-0.332 0.957,-0.359 0.957,-0.457 0.91,-0.43 0.887,-0.551 0.86,-0.55 0.839,-0.598 0.813,-0.598 0.742,-0.718 0.742,-0.696 0.719,-0.695 0.648,-0.789 0.645,-0.813 0.598,-0.793 0.55,-0.882 1.008,-1.821 0.383,-0.933 0.406,-0.957 0.313,-0.985 0.285,-1.004 0.266,-1.003 0.191,-1.032 0.094,-1.101 0.097,-1.055 0.047,-1.098 0,-42.472 -12.593,0 0,38.519 -0.047,0.649 -0.047,0.644 -0.051,0.598 -0.094,0.672 -0.168,0.597 -0.191,0.602 -0.192,0.574 -0.214,0.551 -0.551,1.098 -0.598,1.054 -0.742,0.957 -0.816,0.887 -0.883,0.813 -0.961,0.742 -1.051,0.648 -1.102,0.504 -0.597,0.238 -0.551,0.215 -0.602,0.145 -0.644,0.144 -0.598,0.094 -0.648,0.121 -0.598,0.047 -1.316,0 -0.649,-0.047 -0.644,-0.121 -0.598,-0.094 -0.597,-0.144 -0.602,-0.145 -0.598,-0.215 -0.55,-0.238 -1.102,-0.504 -1.051,-0.648 -0.504,-0.356 -0.504,-0.386 -0.453,-0.356 -0.433,-0.457 -0.813,-0.887 -0.695,-0.957 -0.645,-1.054 -0.55,-1.098 -0.215,-0.551 -0.192,-0.574 -0.144,-0.602 -0.145,-0.597 -0.168,-0.672 -0.047,-0.598 -0.047,-0.644 0,-39.168 -12.593,0 0,88.027 12.593,0 z m 81.133,-36.914 -0.695,0 -0.719,-0.047 -0.644,-0.121 -0.649,-0.094 -0.644,-0.144 -0.649,-0.192 -0.597,-0.215 -0.598,-0.242 -0.621,-0.261 -0.602,-0.289 -0.523,-0.36 -0.578,-0.332 -0.477,-0.359 -0.551,-0.407 -0.453,-0.433 -0.457,-0.406 -0.453,-0.504 -0.457,-0.453 -0.383,-0.528 -0.359,-0.504 -0.359,-0.55 -0.336,-0.551 -0.309,-0.598 -0.242,-0.551 -0.262,-0.644 -0.191,-0.598 -0.192,-0.648 -0.097,-0.672 -0.164,-0.645 -0.051,-0.644 -0.094,-0.696 0,-0.695 26.813,0 -0.047,0.695 -0.051,0.696 -0.07,0.644 -0.145,0.645 -0.141,0.672 -0.144,0.648 -0.266,0.598 -0.191,0.644 -0.309,0.551 -0.289,0.598 -0.312,0.551 -0.332,0.55 -0.817,1.032 -0.836,0.957 -0.457,0.406 -0.5,0.433 -0.504,0.407 -0.504,0.359 -0.55,0.332 -0.598,0.36 -0.551,0.289 -0.597,0.261 -0.598,0.242 -0.648,0.215 -0.598,0.192 -0.649,0.144 -0.668,0.094 -0.695,0.121 -0.644,0.047 -0.696,0 z m -5.004,-38.352 0.789,-0.289 0.817,-0.261 0.789,-0.239 0.863,-0.144 0.789,-0.145 0.86,-0.121 0.839,-0.047 1.797,0 0.957,0.098 0.911,0.117 0.933,0.192 0.906,0.191 0.961,0.312 0.836,0.29 0.91,0.406 0.789,0.406 0.864,0.453 0.789,0.481 0.742,0.55 0.766,0.598 0.695,0.649 0.695,0.667 0.645,0.743 9.578,-8.235 -1.102,-1.195 -1.148,-1.152 -1.27,-1.102 -1.246,-1.004 -1.34,-0.933 -1.363,-0.864 -1.39,-0.789 -1.461,-0.695 -1.485,-0.645 -1.508,-0.55 -1.554,-0.504 -1.606,-0.36 -1.601,-0.285 -1.582,-0.265 -1.653,-0.141 -3.062,0 -1.438,0.094 -1.461,0.215 -1.41,0.191 -1.39,0.336 -1.387,0.359 -1.367,0.453 -1.34,0.504 -0.91,0.383 -0.91,0.406 -0.887,0.457 -0.86,0.504 -0.789,0.477 -0.863,0.504 -1.484,1.195 -0.766,0.598 -0.695,0.648 -0.696,0.672 -0.644,0.691 -0.648,0.696 -0.622,0.742 -0.597,0.742 -0.551,0.813 -0.504,0.793 -0.476,0.789 -0.458,0.863 -0.453,0.836 -0.406,0.863 -0.336,0.883 -0.359,0.91 -0.313,0.887 -0.476,1.914 -0.219,0.933 -0.141,0.961 -0.144,0.934 -0.047,1.004 -0.051,0.957 -0.047,0.98 0,12.594 0.047,1.34 0.098,1.293 0.144,1.316 0.239,1.293 0.261,1.246 0.336,1.247 0.457,1.195 0.453,1.199 0.504,1.149 1.196,2.203 0.695,1.05 0.719,0.981 0.789,1.008 0.789,0.957 0.863,0.886 0.91,0.86 0.934,0.793 1.004,0.789 1.008,0.695 1.05,0.719 2.204,1.195 1.199,0.481 1.148,0.453 1.195,0.453 1.247,0.359 1.269,0.243 1.293,0.238 1.293,0.168 1.293,0.094 1.363,0.05 1.34,-0.05 1.317,-0.094 1.293,-0.168 1.292,-0.238 1.27,-0.243 1.195,-0.359 1.2,-0.453 1.195,-0.453 1.148,-0.481 1.153,-0.597 1.05,-0.598 1.055,-0.719 1.055,-0.695 0.933,-0.789 0.957,-0.793 0.911,-0.86 0.882,-0.886 0.817,-0.957 0.742,-1.008 0.766,-0.981 0.621,-1.05 0.672,-1.102 0.55,-1.101 0.551,-1.149 0.43,-1.199 0.406,-1.195 0.359,-1.247 0.29,-1.246 0.261,-1.293 0.145,-1.316 0.094,-1.293 0.05,-1.34 0,-10.988 -39.406,0 0,-1.606 0.047,-0.98 0.098,-1.004 0.214,-1.008 0.239,-0.933 0.359,-0.957 0.383,-0.887 0.453,-0.859 0.504,-0.84 0.598,-0.813 0.601,-0.742 0.692,-0.695 0.765,-0.645 0.793,-0.601 0.86,-0.5 0.886,-0.504 0.91,-0.407 z" /><path
         id="path23827"
         style="fill:#ffffff;fill-opacity:1;fill-rule:evenodd;stroke:none"
         d="m 86.559,156.231 14.148,0 14.219,-62.891 17.308,62.891 9.434,0 17.383,-62.891 14.148,62.891 14.196,0 -22.051,-88.051 -11.848,0 -16.519,63.656 -16.567,-63.656 -11.805,0 -22.046,88.051 z m 133.105,-36.988 -0.644,0 -0.719,-0.047 -0.696,-0.098 -0.644,-0.094 -0.648,-0.168 -0.598,-0.191 -0.668,-0.191 -0.602,-0.262 -0.597,-0.242 -0.551,-0.309 -0.598,-0.289 -0.504,-0.359 -0.55,-0.383 -0.5,-0.406 -0.481,-0.407 -0.453,-0.457 -0.457,-0.476 -0.406,-0.457 -0.383,-0.5 -0.406,-0.551 -0.36,-0.551 -0.289,-0.551 -0.308,-0.55 -0.243,-0.602 -0.261,-0.598 -0.192,-0.644 -0.191,-0.649 -0.168,-0.597 -0.098,-0.696 -0.094,-0.644 -0.046,-0.695 0,-0.668 26.761,0 0,0.668 -0.07,0.695 -0.094,0.644 -0.097,0.696 -0.145,0.597 -0.191,0.649 -0.215,0.644 -0.238,0.598 -0.266,0.602 -0.285,0.55 -0.36,0.551 -0.336,0.551 -0.765,1.051 -0.84,0.933 -0.5,0.457 -0.457,0.407 -0.551,0.406 -0.5,0.383 -0.551,0.359 -0.55,0.289 -0.598,0.309 -0.551,0.242 -0.648,0.262 -0.598,0.191 -0.648,0.191 -0.668,0.168 -0.649,0.094 -0.644,0.098 -0.696,0.047 -0.695,0 z m -4.953,-38.328 0.789,-0.313 0.813,-0.238 0.792,-0.192 0.813,-0.214 0.836,-0.145 0.816,-0.094 0.836,-0.051 1.797,0 0.957,0.098 0.957,0.094 0.934,0.219 1.82,0.476 0.887,0.36 0.863,0.359 0.836,0.383 0.813,0.457 0.793,0.551 0.789,0.55 0.765,0.547 0.696,0.649 0.691,0.644 0.601,0.742 9.622,-8.187 -1.172,-1.242 -1.149,-1.149 -1.195,-1.101 -1.293,-0.985 -1.293,-0.957 -1.414,-0.836 -1.387,-0.816 -1.461,-0.691 -1.461,-0.649 -1.531,-0.551 -1.558,-0.453 -1.555,-0.383 -1.606,-0.312 -1.652,-0.238 -1.602,-0.098 -1.628,-0.047 -1.461,0.047 -1.461,0.098 -1.387,0.14 -1.414,0.242 -1.434,0.309 -1.367,0.359 -1.387,0.434 -1.367,0.5 -0.883,0.41 -0.91,0.406 -0.84,0.43 -0.859,0.504 -0.84,0.5 -0.812,0.551 -0.793,0.551 -0.766,0.601 -0.742,0.598 -0.692,0.644 -0.695,0.649 -0.672,0.691 -0.644,0.742 -0.598,0.719 -0.551,0.793 -0.55,0.742 -0.551,0.813 -0.457,0.836 -0.477,0.793 -0.406,0.859 -0.41,0.887 -0.332,0.863 -0.36,0.883 -0.312,0.961 -0.238,0.91 -0.243,0.934 -0.214,0.957 -0.145,0.933 -0.141,0.957 -0.121,1.004 -0.047,0.984 0,14.864 0.118,1.367 0.144,1.293 0.238,1.242 0.313,1.246 0.336,1.27 0.406,1.195 0.457,1.199 0.551,1.125 0.547,1.102 0.648,1.101 0.645,1.051 0.769,1.008 0.742,0.98 0.836,0.957 0.864,0.887 0.91,0.863 0.933,0.836 0.957,0.766 1.051,0.695 1.055,0.696 2.203,1.195 1.149,0.504 1.199,0.504 1.195,0.406 1.195,0.336 1.293,0.285 1.27,0.215 1.293,0.191 1.34,0.121 2.66,0 1.293,-0.121 1.316,-0.191 1.293,-0.215 1.242,-0.285 1.27,-0.336 1.199,-0.406 1.195,-0.504 1.149,-0.504 2.203,-1.195 1.055,-0.696 0.98,-0.695 1.004,-0.766 0.957,-0.836 0.91,-0.863 0.84,-0.887 0.813,-0.957 0.789,-0.98 0.695,-1.008 0.695,-1.051 0.621,-1.101 0.602,-1.102 0.476,-1.125 0.458,-1.199 0.453,-1.195 0.359,-1.27 0.285,-1.246 0.219,-1.242 0.141,-1.293 0.097,-1.367 0.047,-1.289 0,-11.016 -39.355,0 0,-2.609 0.14,-0.981 0.145,-1.004 0.312,-0.961 0.285,-0.882 0.411,-0.911 0.453,-0.886 0.55,-0.813 0.551,-0.793 0.645,-0.742 0.695,-0.715 0.766,-0.648 0.789,-0.598 0.816,-0.551 0.887,-0.48 0.957,-0.406 z m 48.309,75.316 12.617,0 0,-12.594 -12.617,0 0,12.594 z m 0,-25.16 12.617,0 0,-62.891 -12.617,0 0,62.891 z m 44.125,0 0,-7.137 0.742,0.91 0.859,0.887 0.84,0.789 0.91,0.766 0.957,0.695 0.981,0.648 1.007,0.598 1.051,0.551 1.055,0.453 1.101,0.457 1.149,0.336 1.148,0.285 1.149,0.215 1.199,0.191 1.148,0.121 2.297,0 1.102,-0.121 1.055,-0.144 1.05,-0.141 1.008,-0.265 1.055,-0.286 0.933,-0.359 1.004,-0.336 0.957,-0.453 0.911,-0.457 0.886,-0.504 0.86,-0.551 0.839,-0.597 0.813,-0.645 0.742,-0.648 0.742,-0.692 0.719,-0.742 0.649,-0.816 0.644,-0.789 0.598,-0.789 0.55,-0.911 0.504,-0.839 0.504,-0.958 0.383,-0.91 0.406,-0.98 0.313,-1.004 0.285,-1.008 0.266,-0.98 0.191,-1.055 0.094,-1.102 0.097,-1.05 0.071,-1.102 0,-42.422 -12.617,0 0,38.496 -0.047,0.645 -0.047,0.648 -0.051,0.645 -0.164,0.597 -0.098,0.598 -0.191,0.602 -0.191,0.597 -0.215,0.551 -0.551,1.102 -0.649,1.05 -0.691,0.985 -0.816,0.91 -0.887,0.789 -1.004,0.695 -1.004,0.668 -1.101,0.528 -0.598,0.215 -0.602,0.191 -0.597,0.144 -0.598,0.168 -0.598,0.094 -0.648,0.098 -0.645,0.047 -1.316,0 -0.602,-0.047 -0.644,-0.098 -0.598,-0.094 -0.648,-0.168 -0.551,-0.144 -0.598,-0.191 -0.597,-0.215 -1.102,-0.528 -1.004,-0.668 -0.504,-0.336 -0.504,-0.359 -0.453,-0.383 -0.457,-0.406 -0.789,-0.91 -0.742,-0.985 -0.598,-1.05 -0.55,-1.102 -0.215,-0.551 -0.192,-0.597 -0.191,-0.602 -0.121,-0.598 -0.145,-0.597 -0.047,-0.645 -0.046,-0.648 0,-39.141 -12.618,0 0,62.891 12.618,0 z m 74.429,-24.348 -0.597,0.047 -0.602,0.098 -0.598,0.191 -0.55,0.262 -0.504,0.238 -0.5,0.359 -0.457,0.336 -0.407,0.407 -0.382,0.457 -0.313,0.453 -0.285,0.48 -0.266,0.551 -0.191,0.551 -0.164,0.598 -0.098,0.597 0,1.149 0.098,0.55 0.117,0.504 0.145,0.504 0.191,0.5 0.215,0.457 0.289,0.43 0.308,0.406 0.29,0.41 0.406,0.332 0.406,0.36 0.383,0.289 0.457,0.262 0.5,0.242 0.504,0.215 0.504,0.14 0.789,0.145 0.765,0.144 0.743,0.168 0.789,0.094 0.769,0.051 0.789,0.093 0.813,0 0.742,0.047 1.148,-0.047 1.102,-0.046 1.101,-0.145 1.102,-0.168 1.102,-0.191 1.101,-0.239 1.055,-0.312 1.101,-0.336 0.981,-0.406 1.055,-0.453 1.003,-0.457 1.004,-0.551 0.957,-0.551 0.934,-0.598 0.91,-0.644 0.887,-0.649 7.851,9.84 -1.293,1.008 -1.339,0.934 -1.411,0.859 -1.39,0.84 -1.508,0.742 -1.461,0.719 -1.484,0.644 -1.555,0.598 -1.559,0.504 -1.601,0.43 -1.582,0.359 -1.602,0.312 -1.652,0.239 -1.652,0.191 -1.653,0.098 -1.652,0.047 -1.149,-0.047 -1.148,-0.051 -1.148,-0.094 -1.153,-0.097 -1.148,-0.141 -1.102,-0.215 -1.148,-0.195 -1.102,-0.262 -0.812,-0.191 -0.789,-0.239 -0.766,-0.312 -0.742,-0.285 -0.695,-0.313 -0.696,-0.336 -0.719,-0.406 -0.644,-0.406 -0.695,-0.457 -0.598,-0.43 -0.598,-0.504 -0.601,-0.5 -1.102,-1.101 -0.5,-0.602 -1.008,-1.195 -0.406,-0.649 -0.43,-0.644 -0.359,-0.645 -0.406,-0.695 -0.289,-0.695 -0.309,-0.766 -0.289,-0.695 -0.262,-0.742 -0.191,-0.743 -0.195,-0.812 -0.164,-0.742 -0.098,-0.817 -0.094,-0.789 -0.051,-0.789 0,-1.746 0.098,-0.961 0.094,-0.883 0.144,-0.91 0.215,-0.84 0.192,-0.91 0.312,-0.836 0.289,-0.812 0.356,-0.793 0.41,-0.789 0.383,-0.813 0.453,-0.742 1.008,-1.391 0.546,-0.695 0.602,-0.621 0.598,-0.645 0.644,-0.601 0.695,-0.551 0.672,-0.523 0.743,-0.504 0.742,-0.457 0.765,-0.453 0.789,-0.407 0.789,-0.336 0.817,-0.359 0.836,-0.238 0.91,-0.266 0.863,-0.238 0.887,-0.145 0.957,-0.093 0.883,-0.122 13.406,-0.836 0.602,-0.05 0.621,-0.141 0.527,-0.168 0.551,-0.242 0.574,-0.238 0.43,-0.36 0.457,-0.359 0.453,-0.383 0.336,-0.453 0.359,-0.504 0.313,-0.504 0.238,-0.5 0.191,-0.551 0.168,-0.574 0.047,-0.625 0.047,-0.598 0,-0.476 -0.094,-0.504 -0.046,-0.457 -0.168,-0.453 -0.145,-0.457 -0.191,-0.43 -0.215,-0.406 -0.242,-0.406 -0.309,-0.383 -0.289,-0.36 -0.359,-0.289 -0.336,-0.359 -0.407,-0.262 -0.406,-0.238 -0.453,-0.242 -0.434,-0.168 -1.101,-0.383 -1.149,-0.359 -1.171,-0.285 -1.149,-0.266 -1.199,-0.141 -1.149,-0.144 -1.195,-0.098 -1.199,0 -1.293,0.051 -1.316,0.047 -1.293,0.191 -1.243,0.192 -1.32,0.312 -1.195,0.332 -1.246,0.41 -1.196,0.453 -1.148,0.504 -1.149,0.598 -1.152,0.648 -1.101,0.645 -1.051,0.742 -1.055,0.813 -0.957,0.839 -0.934,0.911 -8.906,-8.954 1.391,-1.293 1.457,-1.246 1.558,-1.195 1.532,-1.101 1.605,-1.008 1.649,-0.934 1.703,-0.859 1.746,-0.742 1.746,-0.696 1.867,-0.597 1.797,-0.504 1.891,-0.407 1.867,-0.336 1.89,-0.191 1.965,-0.168 1.891,-0.047 1.75,0.047 1.746,0.098 1.746,0.215 1.75,0.238 1.723,0.359 1.699,0.453 1.699,0.481 1.653,0.598 1.339,0.55 1.293,0.649 1.2,0.765 1.171,0.836 1.079,0.957 1.003,0.934 0.957,1.101 0.84,1.102 0.766,1.199 0.648,1.242 0.598,1.293 0.453,1.368 0.406,1.339 0.243,1.387 0.093,0.742 0.098,0.719 0.047,0.742 0,0.742 -0.047,0.911 -0.051,0.933 -0.094,0.91 -0.144,0.911 -0.215,0.835 -0.238,0.864 -0.242,0.836 -0.309,0.84 -0.406,0.812 -0.336,0.793 -0.457,0.742 -0.453,0.766 -0.504,0.742 -0.504,0.691 -0.547,0.649 -0.602,0.644 -0.597,0.649 -0.645,0.597 -0.648,0.551 -0.695,0.551 -0.715,0.504 -0.743,0.453 -0.742,0.457 -0.816,0.383 -0.789,0.359 -0.863,0.285 -0.836,0.313 -0.864,0.238 -0.886,0.215 -0.907,0.191 -0.91,0.098 -0.887,0.094 -13.406,0.863 z m 62.625,-38.543 -0.765,0 -0.692,0.071 -0.695,0.097 -0.695,0.094 -0.719,0.144 -0.645,0.192 -0.695,0.262 -0.598,0.242 -0.648,0.308 -0.598,0.289 -0.621,0.36 -0.598,0.336 -0.527,0.406 -0.504,0.406 -0.551,0.43 -0.957,0.957 -0.453,0.551 -0.41,0.504 -0.383,0.597 -0.406,0.551 -0.312,0.598 -0.332,0.601 -0.266,0.645 -0.238,0.648 -0.266,0.645 -0.191,0.648 -0.141,0.715 -0.098,0.695 -0.117,0.696 -0.051,0.695 0,39.285 -6.297,0 0,10.223 6.297,0 0,18.863 12.571,0 0,-18.863 9.457,0 0,-10.223 -9.457,0 0,-36.941 0.047,-0.453 0.046,-0.336 0.098,-0.407 0.145,-0.359 0.168,-0.336 0.191,-0.312 0.191,-0.332 0.309,-0.266 0.242,-0.238 0.309,-0.266 0.359,-0.191 0.289,-0.141 0.406,-0.144 0.36,-0.122 0.383,-0.046 5.914,0 0,-11.778 -7.856,0 z m 37.805,62.891 0,-7.137 0.766,0.91 0.835,0.887 0.864,0.789 0.933,0.766 0.911,0.695 1.003,0.648 0.985,0.598 1.051,0.551 1.101,0.453 1.102,0.457 1.101,0.336 1.149,0.285 1.148,0.215 1.199,0.191 1.219,0.121 2.086,0 0.906,-0.07 0.91,-0.098 0.887,-0.144 0.91,-0.145 0.836,-0.261 0.864,-0.239 0.886,-0.265 0.813,-0.332 0.84,-0.36 0.812,-0.336 0.789,-0.457 0.817,-0.453 0.742,-0.504 0.742,-0.5 0.719,-0.601 -8.957,-10.965 -0.907,0.695 -0.961,0.649 -0.98,0.551 -1.004,0.453 -1.101,0.336 -1.102,0.261 -1.148,0.145 -1.149,0.047 -0.648,0 -0.672,-0.047 -0.645,-0.098 -0.597,-0.094 -0.598,-0.168 -0.602,-0.144 -0.597,-0.191 -0.551,-0.215 -1.102,-0.528 -1.05,-0.668 -0.504,-0.336 -0.504,-0.359 -0.43,-0.383 -0.406,-0.406 -0.863,-0.91 -0.696,-0.985 -0.644,-1.05 -0.504,-1.102 -0.238,-0.551 -0.215,-0.597 -0.145,-0.602 -0.144,-0.598 -0.121,-0.597 -0.094,-0.645 -0.047,-0.648 0,-39.141 -12.594,0 0,62.891 12.594,0 z m 66.195,-51.113 -10.273,0 -0.789,0.046 -0.813,0.122 -0.742,0.191 -0.695,0.238 -0.719,0.36 -0.645,0.406 -0.601,0.433 -0.551,0.5 -0.547,0.551 -0.457,0.602 -0.336,0.644 -0.359,0.696 -0.238,0.718 -0.215,0.789 -0.145,0.743 0,1.601 0.145,0.793 0.215,0.766 0.238,0.742 0.359,0.644 0.336,0.649 0.457,0.644 0.547,0.551 0.551,0.504 0.601,0.453 0.645,0.383 0.719,0.313 0.695,0.289 0.742,0.214 0.813,0.094 0.789,0.051 18.101,0 0,-8.691 -0.144,-0.743 -0.192,-0.789 -0.265,-0.718 -0.332,-0.696 -0.41,-0.644 -0.454,-0.602 -0.503,-0.551 -0.551,-0.5 -0.598,-0.433 -0.644,-0.406 -0.696,-0.36 -0.695,-0.238 -0.766,-0.191 -0.789,-0.122 -0.789,-0.046 z m -3.16,-11.778 -8.859,0 -0.957,0.117 -0.934,0.098 -0.957,0.145 -0.91,0.191 -0.887,0.309 -0.91,0.242 -0.863,0.359 -0.836,0.406 -0.789,0.383 -0.817,0.453 -0.742,0.504 -0.742,0.551 -0.719,0.551 -0.691,0.597 -0.649,0.598 -0.644,0.649 -0.551,0.691 -0.625,0.695 -0.477,0.742 -0.503,0.817 -0.454,0.742 -0.406,0.836 -0.383,0.812 -0.359,0.887 -0.312,0.863 -0.239,0.887 -0.191,0.91 -0.168,0.957 -0.145,0.934 -0.047,0.957 -0.05,0.98 0.05,0.958 0.047,0.933 0.145,0.957 0.168,0.961 0.191,0.883 0.239,0.91 0.312,0.84 0.359,0.91 0.383,0.789 0.406,0.859 0.454,0.743 0.503,0.793 0.477,0.765 0.625,0.696 0.551,0.691 0.644,0.648 0.649,0.598 0.691,0.598 0.719,0.551 0.742,0.55 0.742,0.504 0.817,0.453 0.789,0.383 0.836,0.41 0.863,0.356 0.91,0.289 0.887,0.238 0.91,0.215 0.957,0.144 0.934,0.145 0.957,0.047 0.957,0.051 18.89,0 0,6.894 -0.097,0.645 -0.145,0.597 -0.191,0.598 -0.215,0.551 -0.285,0.551 -0.36,0.504 -0.336,0.503 -0.406,0.43 -0.457,0.406 -0.5,0.36 -0.504,0.336 -0.551,0.312 -0.55,0.238 -0.598,0.168 -0.648,0.145 -0.86,0.141 -0.793,0.097 -0.859,0.094 -0.84,0.121 -0.859,0.047 -0.84,0.051 -0.863,0.047 -1.7,0 -0.836,-0.047 -0.816,-0.051 -0.836,-0.047 -0.863,-0.121 -0.836,-0.094 -0.863,-0.097 -0.79,-0.141 -0.863,-0.191 -0.742,-0.266 -0.742,-0.406 -0.692,-0.43 -0.625,-0.551 -0.597,-0.597 -0.481,-0.649 -0.406,-0.719 -9.957,7.852 0.551,0.793 0.644,0.812 0.649,0.743 0.715,0.695 0.695,0.644 0.742,0.649 0.817,0.598 0.789,0.55 0.836,0.504 0.863,0.5 0.91,0.383 0.887,0.41 0.906,0.36 0.961,0.238 0.98,0.238 0.957,0.215 1.102,0.191 1.101,0.168 1.149,0.145 1.101,0.094 1.102,0.097 1.148,0.047 1.102,0.047 2.25,0 2.203,-0.094 1.149,-0.097 1.101,-0.094 1.102,-0.145 1.101,-0.168 1.102,-0.191 0.91,-0.145 0.836,-0.214 0.84,-0.239 0.859,-0.312 0.793,-0.285 0.766,-0.36 0.789,-0.383 0.742,-0.406 0.719,-0.457 0.695,-0.504 0.691,-0.476 0.649,-0.504 0.668,-0.598 0.601,-0.551 0.598,-0.672 0.551,-0.574 0.551,-0.668 0.5,-0.695 0.433,-0.695 0.453,-0.692 0.407,-0.742 0.41,-0.769 0.285,-0.79 0.359,-0.789 0.239,-0.812 0.265,-0.793 0.192,-0.859 0.191,-0.84 0.168,-0.887 0.094,-0.859 0.047,-0.911 0,-44.863 -12.614,0 0,6.488 -0.433,-0.742 -0.453,-0.695 -0.551,-0.648 -0.551,-0.645 -0.598,-0.551 -0.648,-0.551 -0.668,-0.503 -0.695,-0.407 -0.742,-0.383 -0.743,-0.359 -0.765,-0.312 -0.789,-0.239 -0.864,-0.191 -0.789,-0.145 -0.863,-0.117 -0.836,0 z m 55.469,87.047 1.484,0.453 1.508,0.406 1.508,0.336 1.555,0.313 1.535,0.191 1.554,0.145 1.555,0.117 1.559,0.047 1.554,-0.047 1.582,-0.117 1.555,-0.145 1.555,-0.191 1.508,-0.313 1.535,-0.336 1.508,-0.406 1.507,-0.453 1.387,-0.551 1.34,-0.601 1.32,-0.742 1.196,-0.86 1.148,-0.887 1.055,-1.003 1.004,-1.102 0.886,-1.102 0.813,-1.246 0.695,-1.246 0.598,-1.34 0.551,-1.339 0.406,-1.415 0.242,-1.484 0.094,-0.691 0.121,-0.766 0.047,-0.742 0,-3.137 -0.047,-1.055 -0.121,-1.003 -0.192,-1.032 -0.285,-0.957 -0.359,-1.004 -0.406,-0.886 -0.504,-0.91 -0.504,-0.84 -0.645,-0.813 -0.648,-0.742 -0.742,-0.695 -0.766,-0.645 -0.836,-0.598 -0.91,-0.55 -0.957,-0.457 -0.934,-0.407 0.934,-0.382 0.957,-0.454 0.91,-0.503 0.836,-0.598 0.766,-0.649 0.742,-0.695 0.648,-0.812 0.645,-0.789 0.504,-0.84 0.504,-0.86 0.406,-0.933 0.359,-0.957 0.285,-1.008 0.192,-0.981 0.121,-1.054 0.047,-1.055 0,-25.254 -0.118,-0.84 -0.074,-0.91 -0.168,-0.836 -0.191,-0.863 -0.215,-0.789 -0.285,-0.789 -0.313,-0.817 -0.336,-0.742 -0.406,-0.742 -0.406,-0.766 -0.457,-0.695 -0.5,-0.644 -0.481,-0.645 -0.55,-0.648 -0.551,-0.598 -0.598,-0.551 -0.672,-0.551 -0.644,-0.55 -0.695,-0.453 -0.696,-0.458 -0.691,-0.429 -0.77,-0.36 -0.742,-0.336 -0.789,-0.312 -0.812,-0.285 -0.84,-0.266 -0.813,-0.14 -0.887,-0.145 -0.859,-0.144 -0.863,-0.071 -8.785,0 0,11.778 6.941,0 0.645,0.121 0.601,0.14 0.551,0.242 0.551,0.262 0.55,0.289 0.454,0.406 0.453,0.383 0.41,0.453 0.383,0.457 0.308,0.551 0.242,0.551 0.262,0.551 0.145,0.597 0.093,0.645 0,24.852 -0.093,0.644 -0.145,0.602 -0.262,0.55 -0.242,0.551 -0.308,0.551 -0.383,0.453 -0.41,0.453 -0.453,0.434 -0.454,0.359 -0.55,0.285 -0.551,0.266 -0.551,0.238 -0.601,0.168 -0.645,0.094 -8.5,0 0,11.828 8.5,0 0.645,0.094 0.601,0.144 0.551,0.192 1.101,0.625 0.454,0.332 0.453,0.41 0.41,0.453 0.383,0.504 0.308,0.477 0.242,0.55 0.262,0.598 0.145,0.602 0.093,0.644 0,4.309 -0.046,0.48 -0.094,0.453 -0.145,0.504 -0.168,0.457 -0.191,0.453 -0.238,0.383 -0.625,0.813 -0.285,0.336 -0.336,0.359 -0.407,0.289 -0.406,0.262 -0.41,0.238 -0.453,0.219 -0.481,0.191 -1.004,0.285 -1.003,0.313 -1.055,0.191 -1.055,0.215 -1.051,0.145 -1.054,0.093 -1.055,0.051 -1.027,0.047 -1.055,-0.047 -1.055,-0.051 -1.051,-0.093 -1.054,-0.145 -0.981,-0.215 -1.054,-0.191 -1.004,-0.313 -1.055,-0.285 -0.453,-0.191 -0.457,-0.219 -0.43,-0.238 -0.406,-0.262 -0.359,-0.289 -0.411,-0.359 -0.285,-0.336 -0.312,-0.407 -0.239,-0.406 -0.261,-0.383 -0.192,-0.453 -0.191,-0.457 -0.098,-0.504 -0.121,-0.453 -0.047,-0.48 -0.047,-0.5 0,-69.188 -12.593,0 0,69.188 0.047,0.742 0,0.742 0.097,0.766 0.094,0.691 0.145,0.742 0.167,0.742 0.192,0.696 0.191,0.719 0.504,1.339 0.598,1.34 0.719,1.246 0.836,1.246 0.863,1.102 0.98,1.102 1.055,1.003 1.148,0.887 1.27,0.86 1.246,0.742 1.34,0.601 1.461,0.551 z m 80.82,-35.984 -0.691,0 -0.696,-0.047 -0.671,-0.098 -0.696,-0.094 -0.644,-0.168 -0.598,-0.191 -0.648,-0.191 -0.598,-0.262 -0.598,-0.242 -0.55,-0.309 -0.551,-0.289 -0.551,-0.359 -0.551,-0.383 -0.504,-0.406 -0.5,-0.407 -0.457,-0.457 -0.453,-0.476 -0.383,-0.457 -0.41,-0.5 -0.406,-0.551 -0.336,-0.551 -0.309,-0.551 -0.289,-0.55 -0.261,-0.602 -0.239,-0.598 -0.218,-0.644 -0.192,-0.649 -0.14,-0.597 -0.098,-0.696 -0.121,-0.644 -0.047,-0.695 0,-0.668 26.766,0 0,0.668 -0.047,0.695 -0.098,0.644 -0.094,0.696 -0.168,0.597 -0.191,0.649 -0.192,0.644 -0.265,0.598 -0.238,0.602 -0.313,0.55 -0.355,0.551 -0.336,0.551 -0.36,0.551 -0.383,0.5 -0.406,0.457 -0.457,0.476 -0.504,0.457 -0.453,0.407 -0.527,0.406 -0.504,0.383 -0.551,0.359 -0.574,0.289 -0.598,0.309 -0.551,0.242 -0.644,0.262 -0.602,0.191 -0.644,0.191 -0.645,0.168 -0.648,0.094 -0.645,0.098 -0.718,0.047 -0.649,0 z m -5.004,-38.328 0.817,-0.313 0.789,-0.238 0.789,-0.192 0.816,-0.214 0.86,-0.145 0.789,-0.094 0.863,-0.051 1.797,0 0.933,0.098 0.957,0.094 0.957,0.219 0.887,0.238 0.91,0.238 0.887,0.36 0.859,0.359 0.864,0.383 0.836,0.457 0.765,0.551 0.793,0.55 0.742,0.547 0.715,0.649 0.696,0.644 0.648,0.742 9.551,-8.187 -1.102,-1.242 -1.195,-1.149 -1.199,-1.101 -1.317,-0.985 -1.293,-0.957 -1.34,-0.836 -1.46,-0.816 -1.461,-0.691 -1.434,-0.649 -1.559,-0.551 -1.554,-0.453 -1.555,-0.383 -1.582,-0.312 -1.605,-0.238 -1.649,-0.098 -1.652,-0.047 -1.461,0.047 -1.438,0.098 -1.414,0.14 -1.386,0.242 -1.415,0.309 -1.386,0.359 -1.414,0.434 -1.34,0.5 -0.91,0.41 -0.887,0.406 -0.859,0.43 -0.84,0.504 -0.86,0.5 -0.793,0.551 -0.812,0.551 -0.742,0.601 -0.742,0.598 -0.719,0.644 -0.692,0.649 -0.648,0.691 -0.598,0.742 -0.597,0.719 -0.602,0.793 -0.551,0.742 -0.5,0.813 -0.504,0.836 -0.453,0.793 -0.457,0.859 -0.383,0.887 -0.359,0.863 -0.359,0.883 -0.286,0.961 -0.265,0.91 -0.238,0.934 -0.215,0.957 -0.145,0.933 -0.144,0.957 -0.094,1.004 -0.051,0.984 0,14.864 0.098,1.367 0.191,1.293 0.215,1.242 0.289,1.246 0.359,1.27 0.407,1.195 0.504,1.199 0.476,1.125 0.551,1.102 0.648,1.101 0.668,1.051 0.743,1.008 0.742,0.98 0.863,0.957 0.836,0.887 0.91,0.863 0.957,0.836 0.934,0.766 2.109,1.391 2.203,1.195 1.149,0.504 1.195,0.504 1.199,0.406 1.219,0.336 1.293,0.285 1.246,0.215 1.293,0.191 1.363,0.121 2.633,0 1.367,-0.121 1.289,-0.191 1.246,-0.215 1.27,-0.285 1.246,-0.336 1.195,-0.406 1.2,-0.504 1.148,-0.504 2.203,-1.195 1.051,-0.696 1.008,-0.695 1.004,-0.766 0.933,-0.836 0.91,-0.863 0.836,-0.887 0.817,-0.957 0.789,-0.98 0.695,-1.008 0.719,-1.051 1.195,-2.203 0.504,-1.125 0.504,-1.199 0.406,-1.195 0.336,-1.27 0.309,-1.246 0.191,-1.242 0.145,-1.293 0.097,-1.367 0.047,-1.289 0,-11.016 -39.359,0 0,-1.555 0.047,-1.054 0.121,-0.981 0.191,-1.004 0.239,-0.961 0.312,-0.882 0.406,-0.911 0.434,-0.886 0.551,-0.813 0.55,-0.793 0.668,-0.742 0.696,-0.715 0.742,-0.648 0.812,-0.598 0.84,-0.551 0.836,-0.48 0.957,-0.406 z" /></g></g></svg>