<?xml version="1.0" encoding="UTF-8" standalone="no"?>
<svg
   id="svg3368"
   version="1.1"
   xml:space="preserve"
   width="1251.4902"
   height="1601.4922"
   viewBox="0 0 1251.4902 1601.4922"
   sodipodi:docname="DE_466.svg"
   inkscape:version="1.3.2 (091e20e, 2023-11-25, custom)"
   xmlns:inkscape="http://www.inkscape.org/namespaces/inkscape"
   xmlns:sodipodi="http://sodipodi.sourceforge.net/DTD/sodipodi-0.dtd"
   xmlns="http://www.w3.org/2000/svg"
   xmlns:svg="http://www.w3.org/2000/svg"
   xmlns:rdf="http://www.w3.org/1999/02/22-rdf-syntax-ns#"
   xmlns:cc="http://creativecommons.org/ns#"
   xmlns:dc="http://purl.org/dc/elements/1.1/"><sodipodi:namedview
   id="namedview1"
   pagecolor="#ffffff"
   bordercolor="#000000"
   borderopacity="0.25"
   inkscape:showpageshadow="2"
   inkscape:pageopacity="0.0"
   inkscape:pagecheckerboard="0"
   inkscape:deskcolor="#d1d1d1"
   inkscape:zoom="0.16621073"
   inkscape:cx="1010.7651"
   inkscape:cy="779.1314"
   inkscape:window-width="1920"
   inkscape:window-height="1017"
   inkscape:window-x="-8"
   inkscape:window-y="-8"
   inkscape:window-maximized="1"
   inkscape:current-layer="svg3368" /><metadata
   id="metadata3374"><rdf:RDF><cc:Work
       rdf:about=""><dc:format>image/svg+xml</dc:format><dc:type
         rdf:resource="http://purl.org/dc/dcmitype/StillImage" /><dc:title /></cc:Work></rdf:RDF></metadata><defs
   id="defs3372"><clipPath
     clipPathUnits="userSpaceOnUse"
     id="clipPath3357"><path
       d="m 0,0 1190.551,0 0,841.89 L 0,841.89 0,0 Z"
       id="path3359" /></clipPath><clipPath
     clipPathUnits="userSpaceOnUse"
     id="clipPath5515"><path
       d="m 90.708,688.819 34.016,0 0,34.016 -34.016,0 0,-34.016 z"
       id="path5517" /></clipPath><clipPath
     clipPathUnits="userSpaceOnUse"
     id="clipPath5535"><path
       d="m 90.708,646.299 34.016,0 0,34.016 -34.016,0 0,-34.016 z"
       id="path5537" /></clipPath><clipPath
     clipPathUnits="userSpaceOnUse"
     id="clipPath5555"><path
       d="m 90.708,603.779 34.016,0 0,34.016 -34.016,0 0,-34.016 z"
       id="path5557" /></clipPath><clipPath
     clipPathUnits="userSpaceOnUse"
     id="clipPath5567"><path
       d="m 100.299,603.779 14.836,0 0,34.016 -14.836,0 0,-34.016 z"
       id="path5569" /></clipPath><clipPath
     clipPathUnits="userSpaceOnUse"
     id="clipPath5579"><path
       d="m 90.708,603.779 34.016,0 0,34.016 -34.016,0 0,-34.016 z"
       id="path5581" /></clipPath><clipPath
     clipPathUnits="userSpaceOnUse"
     id="clipPath5607"><path
       d="m 90.708,561.26 34.016,0 0,34.016 -34.016,0 0,-34.016 z"
       id="path5609" /></clipPath><clipPath
     clipPathUnits="userSpaceOnUse"
     id="clipPath5619"><path
       d="m 100.295,561.26 14.843,0 0,34.016 -14.843,0 0,-34.016 z"
       id="path5621" /></clipPath><clipPath
     clipPathUnits="userSpaceOnUse"
     id="clipPath5631"><path
       d="m 90.708,561.26 34.016,0 0,34.016 -34.016,0 0,-34.016 z"
       id="path5633" /></clipPath><clipPath
     clipPathUnits="userSpaceOnUse"
     id="clipPath5659"><path
       d="m 90.708,476.221 34.016,0 0,34.015 -34.016,0 0,-34.015 z"
       id="path5661" /></clipPath><clipPath
     clipPathUnits="userSpaceOnUse"
     id="clipPath5757"><path
       d="m 90.708,446.457 34.016,0 0,8.504 -34.016,0 0,-8.504 z"
       id="path5759" /></clipPath><clipPath
     clipPathUnits="userSpaceOnUse"
     id="clipPath5773"><path
       d="m 90.708,433.701 34.016,0 0,34.016 -34.016,0 0,-34.016 z"
       id="path5775" /></clipPath><clipPath
     clipPathUnits="userSpaceOnUse"
     id="clipPath5823"><path
       d="m 90.708,403.937 34.016,0 0,8.504 -34.016,0 0,-8.504 z"
       id="path5825" /></clipPath><clipPath
     clipPathUnits="userSpaceOnUse"
     id="clipPath5839"><path
       d="m 90.708,391.181 34.016,0 0,34.016 -34.016,0 0,-34.016 z"
       id="path5841" /></clipPath><clipPath
     clipPathUnits="userSpaceOnUse"
     id="clipPath5889"><path
       d="m 90.708,363.984 34.016,0 0,8.504 -34.016,0 0,-8.504 z"
       id="path5891" /></clipPath><clipPath
     clipPathUnits="userSpaceOnUse"
     id="clipPath5947"><path
       d="m 90.708,307.559 34.016,0 0,34.016 -34.016,0 0,-34.016 z"
       id="path5949" /></clipPath><clipPath
     clipPathUnits="userSpaceOnUse"
     id="clipPath5979"><path
       d="m 90.708,265.039 34.016,0 0,34.016 -34.016,0 0,-34.016 z"
       id="path5981" /></clipPath><clipPath
     clipPathUnits="userSpaceOnUse"
     id="clipPath6011"><path
       d="m 90.708,222.52 34.016,0 0,34.016 -34.016,0 0,-34.016 z"
       id="path6013" /></clipPath><clipPath
     clipPathUnits="userSpaceOnUse"
     id="clipPath6043"><path
       d="m 90.708,137.48 34.016,0 0,34.016 -34.016,0 0,-34.016 z"
       id="path6045" /></clipPath><clipPath
     clipPathUnits="userSpaceOnUse"
     id="clipPath6075"><path
       d="m 90.708,518.74 34.016,0 0,34.016 -34.016,0 0,-34.016 z"
       id="path6077" /></clipPath><clipPath
     clipPathUnits="userSpaceOnUse"
     id="clipPath6087"><path
       d="m 100.299,518.74 14.836,0 0,34.016 -14.836,0 0,-34.016 z"
       id="path6089" /></clipPath><clipPath
     clipPathUnits="userSpaceOnUse"
     id="clipPath6099"><path
       d="m 90.708,518.74 34.016,0 0,34.016 -34.016,0 0,-34.016 z"
       id="path6101" /></clipPath><clipPath
     clipPathUnits="userSpaceOnUse"
     id="clipPath6127"><path
       d="m 90.708,52.441 34.016,0 0,34.016 -34.016,0 0,-34.016 z"
       id="path6129" /></clipPath><clipPath
     clipPathUnits="userSpaceOnUse"
     id="clipPath6159"><path
       d="m 96.378,358.299 34.016,0 0,8.504 -34.016,0 0,-8.504 z"
       id="path6161" /></clipPath><clipPath
     clipPathUnits="userSpaceOnUse"
     id="clipPath6217"><path
       d="m 90.708,180 34.016,0 0,34.016 -34.016,0 0,-34.016 z"
       id="path6219" /></clipPath><clipPath
     clipPathUnits="userSpaceOnUse"
     id="clipPath6249"><path
       d="m 90.708,94.961 34.016,0 0,34.016 -34.016,0 0,-34.016 z"
       id="path6251" /></clipPath><clipPath
     clipPathUnits="userSpaceOnUse"
     id="clipPath8639"><path
       d="m 685.984,688.819 34.016,0 0,34.016 -34.016,0 0,-34.016 z"
       id="path8641" /></clipPath><clipPath
     clipPathUnits="userSpaceOnUse"
     id="clipPath8651"><path
       d="m 691.6,688.819 22.785,0 0,34.016 -22.785,0 0,-34.016 z"
       id="path8653" /></clipPath><clipPath
     clipPathUnits="userSpaceOnUse"
     id="clipPath8663"><path
       d="m 685.984,688.819 34.016,0 0,34.016 -34.016,0 0,-34.016 z"
       id="path8665" /></clipPath><clipPath
     clipPathUnits="userSpaceOnUse"
     id="clipPath8689"><path
       d="m 685.984,646.299 34.016,0 0,34.016 -34.016,0 0,-34.016 z"
       id="path8691" /></clipPath><clipPath
     clipPathUnits="userSpaceOnUse"
     id="clipPath8747"><path
       d="m 685.984,561.26 34.016,0 0,34.016 -34.016,0 0,-34.016 z"
       id="path8749" /></clipPath><clipPath
     clipPathUnits="userSpaceOnUse"
     id="clipPath8799"><path
       d="m 685.984,518.74 33.835,0 0,34.016 -33.835,0 0,-34.016 z"
       id="path8801" /></clipPath><clipPath
     clipPathUnits="userSpaceOnUse"
     id="clipPath8827"><path
       d="m 685.984,476.221 34.016,0 0,34.015 -34.016,0 0,-34.015 z"
       id="path8829" /></clipPath><clipPath
     clipPathUnits="userSpaceOnUse"
     id="clipPath8855"><path
       d="m 685.984,433.701 34.016,0 0,34.016 -34.016,0 0,-34.016 z"
       id="path8857" /></clipPath><clipPath
     clipPathUnits="userSpaceOnUse"
     id="clipPath8883"><path
       d="m 685.984,391.181 34.016,0 0,34.016 -34.016,0 0,-34.016 z"
       id="path8885" /></clipPath><clipPath
     clipPathUnits="userSpaceOnUse"
     id="clipPath8911"><path
       d="m 685.984,307.559 34.016,0 0,34.016 -34.016,0 0,-34.016 z"
       id="path8913" /></clipPath><clipPath
     clipPathUnits="userSpaceOnUse"
     id="clipPath8939"><path
       d="m 685.984,348.662 34.016,0 0,34.299 -34.016,0 0,-34.299 z"
       id="path8941" /></clipPath><clipPath
     clipPathUnits="userSpaceOnUse"
     id="clipPath8967"><path
       d="m 685.984,603.779 34.016,0 0,34.016 -34.016,0 0,-34.016 z"
       id="path8969" /></clipPath><clipPath
     clipPathUnits="userSpaceOnUse"
     id="clipPath9033"><path
       d="m 685.984,265.039 34.016,0 0,34.016 -34.016,0 0,-34.016 z"
       id="path9035" /></clipPath><clipPath
     clipPathUnits="userSpaceOnUse"
     id="clipPath9061"><path
       d="m 685.984,222.52 34.016,0 0,34.016 -34.016,0 0,-34.016 z"
       id="path9063" /></clipPath><clipPath
     clipPathUnits="userSpaceOnUse"
     id="clipPath9105"><path
       d="m 685.984,180 34.016,0 0,34.016 -34.016,0 0,-34.016 z"
       id="path9107" /></clipPath><clipPath
     clipPathUnits="userSpaceOnUse"
     id="clipPath9137"><path
       d="m 685.984,137.48 34.016,0 0,34.016 -34.016,0 0,-34.016 z"
       id="path9139" /></clipPath><clipPath
     clipPathUnits="userSpaceOnUse"
     id="clipPath9169"><path
       d="m 685.984,94.961 34.016,0 0,34.016 -34.016,0 0,-34.016 z"
       id="path9171" /></clipPath><clipPath
     clipPathUnits="userSpaceOnUse"
     id="clipPath9201"><path
       d="m 685.984,52.441 34.016,0 0,34.016 -34.016,0 0,-34.016 z"
       id="path9203" /></clipPath><clipPath
     clipPathUnits="userSpaceOnUse"
     id="clipPath9213"><path
       d="m 692.517,52.441 20.95,0 0,34.016 -20.95,0 0,-34.016 z"
       id="path9215" /></clipPath><clipPath
     clipPathUnits="userSpaceOnUse"
     id="clipPath9225"><path
       d="m 685.984,52.441 34.016,0 0,34.016 -34.016,0 0,-34.016 z"
       id="path9227" /></clipPath></defs>





































































































































<g
   transform="matrix(47.08375,0,0,-47.08375,60.051052,0.73577181)"
   id="g9065"><path
     id="path9067"
     style="fill:#ffffff;fill-opacity:1;fill-rule:nonzero;stroke:none"
     d="m 0,0 c -0.694,0 -1.259,-0.565 -1.259,-1.259 l 0,-31.465 c 0,-0.693 0.565,-1.258 1.259,-1.258 l 24.03037,0 c 0.694,0 1.258,0.565 1.258,1.258 l 0,31.465 c 0,0.694 -0.564,1.259 -1.258,1.259 z" /><path
     id="path16698"
     transform="matrix(0.02123875,0,0,-0.02123875,-2.7795027,14.373727)"
     d="m 130.86914,676.0332 c -33.084995,0 -60.050781,26.96579 -60.050781,60.05078 l 0,1481.48242 c 0,33.0385 26.965786,59.959 60.050781,59.959 l 1131.48246,0 c 33.085,0 59.957,-26.9212 59.957,-59.959 l 0,-1481.48242 c 0,-33.08427 -26.872,-60.05078 -59.957,-60.05078 l -1131.48246,0 z m 0,0.73633 1131.43946,0 c 32.6761,0 59.2324,26.60122 59.2324,59.27735 l 0,1481.49022 c 0,32.629 -26.5563,59.2324 -59.2324,59.2324 l -1131.43946,0 c -32.676122,0 -59.277343,-26.6034 -59.277343,-59.2324 l 0,-1481.49022 c 0,-32.67613 26.601221,-59.27735 59.277343,-59.27735 z"
     style="color:#000000;font-style:normal;font-variant:normal;font-weight:normal;font-stretch:normal;font-size:medium;line-height:normal;font-family:sans-serif;text-indent:0;text-align:start;text-decoration:none;text-decoration-line:none;text-decoration-style:solid;text-decoration-color:#000000;letter-spacing:normal;word-spacing:normal;text-transform:none;direction:ltr;block-progression:tb;writing-mode:lr-tb;baseline-shift:baseline;text-anchor:start;white-space:normal;clip-rule:nonzero;display:inline;overflow:visible;visibility:visible;opacity:1;isolation:auto;mix-blend-mode:normal;color-interpolation:sRGB;color-interpolation-filters:linearRGB;solid-color:#000000;solid-opacity:1;fill:#000000;fill-opacity:1;fill-rule:nonzero;stroke:none;stroke-width:0.02123875;stroke-linecap:butt;stroke-linejoin:miter;stroke-miterlimit:4;stroke-dasharray:none;stroke-dashoffset:0;stroke-opacity:1;color-rendering:auto;image-rendering:auto;shape-rendering:auto;text-rendering:auto;enable-background:accumulate" /></g><g
   transform="matrix(47.08375,0,0,-47.08375,60.041632,1599.9307)"
   id="g9069" /><g
   transform="translate(-70.818358,-676.01429)"
   id="g16689"><g
     id="g9073"
     transform="matrix(47.08375,0,0,-47.08375,130.86941,2262.5308)"><path
       id="path9075"
       transform="matrix(0.02123875,0,0,-0.02123875,-2.7795027,48.053727)"
       d="m 131.57031,691.6875 c -24.86022,0 -45.060544,20.20033 -45.060544,45.06055 l 0,1479.99025 c 0,24.8602 20.200324,45.0117 45.060544,45.0117 l 1129.83789,0 c 24.8602,0 45.0137,-20.1515 45.0137,-45.0117 l 0,-1479.99025 c 0,-24.86022 -20.1535,-45.06055 -45.0137,-45.06055 l -1129.83789,0 z m 0,20.02148 1129.83789,0 c 13.7955,0 25.002,11.20426 25.002,25.04688 l 0,1479.99024 c 0,13.7955 -11.2065,25.0019 -25.002,25.0019 l -1129.83789,0 c -13.79554,0 -25.00195,-11.2064 -25.00195,-25.0019 l 0,-1479.99024 c 0,-13.84262 11.20641,-25.04688 25.00195,-25.04688 z"
       style="fill:#000000;fill-opacity:1;fill-rule:nonzero;stroke:none" /></g><g
     id="g9077"
     transform="matrix(47.08375,0,0,-47.08375,130.86941,2242.5296)" /></g><path
   d="m 299.38246,710.64107 -89.41204,-100.05297 -43.59955,33.52363 9.74633,-108.62221 117.14437,10.97051 -39.6916,30.51027 137.81414,133.67077 -14.40763,0 -138.66164,-134.51827 28.674,-22.08228 -81.78447,-7.67465 -6.82715,75.85192 32.86446,-25.28398 101.55965,113.70726 -13.41887,0 z m 556.67118,-335.33047 66.341,0 32.34654,-85.08033 -73.45065,-130.987 27.59107,-22.31769 -69.07186,-11.86511 -18.78641,83.00865 27.59107,-22.36478 38.42034,114.50768 -30.9811,75.09858 z m -270.49615,803.2959 0,-147.6547 -98.35795,-110.08179 13.41887,0 89.17662,99.81759 30.55735,-74.01569 -53.86381,-52.1688 c 1.55377,-3.43711 2.68378,-7.06256 3.34295,-10.73509 l 54.61715,52.96922 144.8767,-351.24478 73.21523,0 -176.89365,465.51704 0,127.597 -80.08946,0 z m 0,210.1818 80.08946,0 0,177.6941 -80.08946,0 0,-177.6941 z M 35.007204,485.39241 890.89561,34.989257 l 65.02266,0 -920.911066,550.503203 0,-20.01059 477.570476,-277.27621 -75.56942,-4.00211 -402.001056,221.24654 0,-20.05768 z m 0,-145.11212 765.770106,-305.291033 65.06975,0 -830.839856,405.391083 0,-100.10005 z"
   style="fill:#000000;fill-opacity:1;fill-rule:nonzero;stroke:none"
   id="path9083" /><g
   transform="matrix(47.08375,0,0,-47.08375,960.94684,529.20857)"
   id="g9085"><path
     id="path9087"
     style="fill:#154889;fill-opacity:1;fill-rule:nonzero;stroke:none"
     d="m 0,0 1.249,0 0,-0.452 0.425,0 0,0.452 0.239,0 0,0.399 -0.239,0 0,0.85 -0.425,0 0,-0.85 -0.771,0 1.01,2.125 -0.478,0 L 0,0.372 0,0 Z m -2.232,-0.452 1.701,0 0,0.425 -1.143,0 0.956,1.197 C -0.424,1.536 -0.484,2.072 -0.851,2.365 -1.218,2.658 -1.753,2.599 -2.046,2.232 -2.167,2.081 -2.232,1.894 -2.232,1.701 l 0.425,0 c 0,0.235 0.19,0.425 0.425,0.425 0.235,0 0.425,-0.19 0.425,-0.425 0,-0.096 -0.032,-0.19 -0.092,-0.265 l -1.183,-1.489 0,-0.399 z m -2.658,2.976 0,-1.939 c 0,-0.588 0.476,-1.063 1.063,-1.063 0.587,0 1.063,0.475 1.063,1.063 l 0,1.939 -0.452,0 0,-1.939 c 0,-0.338 -0.273,-0.612 -0.611,-0.612 -0.337,0 -0.611,0.274 -0.611,0.612 l 0,1.939 -0.452,0 z m -0.042,-3.401 c -0.329,0 -0.596,0.266 -0.596,0.595 l 0,2.636 c 0,0.329 0.267,0.596 0.596,0.596 l 6.888,0 c 0.329,0 0.595,-0.267 0.595,-0.596 l 0,-2.636 c 0,-0.329 -0.266,-0.595 -0.595,-0.595 l -6.888,0 z m -0.596,-16.636 1.701,0 0,0.425 -1.142,0 0.956,1.197 c 0.293,0.366 0.234,0.901 -0.133,1.195 -0.367,0.293 -0.902,0.234 -1.195,-0.133 -0.121,-0.151 -0.187,-0.338 -0.187,-0.532 l 0.426,0 c 0,0.235 0.19,0.426 0.425,0.426 0.235,0 0.425,-0.191 0.425,-0.426 0,-0.096 -0.032,-0.189 -0.092,-0.264 l -1.184,-1.489 0,-0.399 z m -2.232,0 1.701,0 0,0.425 -1.143,0 0.957,1.197 c 0.293,0.366 0.233,0.901 -0.134,1.195 -0.366,0.293 -0.901,0.234 -1.195,-0.133 -0.12,-0.151 -0.186,-0.338 -0.186,-0.532 l 0.425,0 c 0,0.235 0.191,0.426 0.426,0.426 0.234,0 0.425,-0.191 0.425,-0.426 0,-0.096 -0.033,-0.189 -0.093,-0.264 l -1.183,-1.489 0,-0.399 z m -2.657,2.976 0,-1.94 c 0,-0.587 0.476,-1.063 1.063,-1.063 0.587,0 1.063,0.476 1.063,1.063 l 0,1.94 -0.452,0 0,-1.94 c 0,-0.337 -0.274,-0.611 -0.611,-0.611 -0.338,0 -0.612,0.274 -0.612,0.611 l 0,1.94 -0.451,0 z m -0.149,-3.401 c -0.329,0 -0.596,0.267 -0.596,0.595 l 0,2.636 c 0,0.329 0.267,0.596 0.596,0.596 l 6.888,0 c 0.329,0 0.595,-0.267 0.595,-0.596 l 0,-2.636 c 0,-0.328 -0.266,-0.595 -0.595,-0.595 l -6.888,0 z" /></g><g
   transform="matrix(47.08375,0,0,-47.08375,443.60469,725.65607)"
   id="g9089"><path
     id="path9091"
     style="fill:#154889;fill-opacity:1;fill-rule:nonzero;stroke:none"
     d="m 0,0 -0.822,-0.675 c -0.317,0.347 -0.856,0.37 -1.202,0.053 C -2.2,-0.783 -2.3,-1.011 -2.3,-1.249 l 0.425,0 c 0,0.235 0.191,0.425 0.426,0.425 0.111,0 0.218,-0.043 0.297,-0.121 l -1.679,-1.378 0,1.898 -0.452,0 0,-1.94 c 0,-0.338 -0.274,-0.611 -0.611,-0.611 -0.338,0 -0.611,0.273 -0.611,0.611 l 0,1.94 -0.452,0 0,-1.94 c 0,-0.492 0.336,-0.919 0.814,-1.034 l -0.522,-0.428 -0.441,0 c -0.329,0 -0.595,0.267 -0.595,0.595 l 0,2.637 C -5.701,-0.266 -5.435,0 -5.106,0 L 0,0 Z" /></g><g
   transform="matrix(47.08375,0,0,-47.08375,506.73929,725.65607)"
   id="g9093"><path
     id="path9095"
     style="fill:#154889;fill-opacity:1;fill-rule:nonzero;stroke:none"
     d="M 0,0 0.441,0 C 0.77,0 1.036,-0.266 1.036,-0.595 l 0,-2.637 c 0,-0.328 -0.266,-0.595 -0.595,-0.595 l -5.106,0 1.062,0.871 -0.038,-0.047 0,-0.399 1.701,0 0,0.426 -1.142,0 0.956,1.196 c 0.022,0.027 0.042,0.055 0.06,0.085 l 0.663,0.544 c -0.003,-0.032 -0.005,-0.065 -0.005,-0.098 l 0.425,0 c 0,0.235 0.19,0.425 0.425,0.425 0.235,0 0.425,-0.19 0.425,-0.425 0,-0.096 -0.032,-0.189 -0.092,-0.264 l -1.183,-1.49 0,-0.399 1.701,0 0,0.426 -1.143,0 0.956,1.196 c 0.294,0.367 0.234,0.902 -0.133,1.195 -0.132,0.106 -0.293,0.17 -0.462,0.184 L 0,0 Z" /></g><g
   transform="matrix(47.08375,0,0,-47.08375,175.17082,945.88087)"
   id="g9097"><path
     id="path9099"
     style="fill:#af151b;fill-opacity:1;fill-rule:nonzero;stroke:none"
     d="M 0,0 7.539,6.185 8.079,5.528 0.539,-0.657 0,0 Z" /></g><g
   transform="matrix(73.694514,0,0,-73.694514,1435.8456,1711.3041)"
   id="g9233" /><g
   transform="matrix(73.694514,0,0,-73.694514,49.312892,1723.2426)"
   id="g9245" /><g
   transform="matrix(73.694514,0,0,-73.694514,49.312892,1723.2426)"
   id="g9249" /><g
   transform="matrix(73.694514,0,0,-73.694514,-2.1774128,1523.7884)"
   id="g9253" /><g
   transform="matrix(73.694514,0,0,-73.694514,-2.1774128,1523.7884)"
   id="g9257" /><g
   transform="matrix(73.694514,0,0,-73.694514,206.90129,1738.5637)"
   id="g9265" />

</svg>
