<?xml version="1.0" encoding="UTF-8" standalone="no"?>
<svg
   xmlns:dc="http://purl.org/dc/elements/1.1/"
   xmlns:cc="http://creativecommons.org/ns#"
   xmlns:rdf="http://www.w3.org/1999/02/22-rdf-syntax-ns#"
   xmlns:svg="http://www.w3.org/2000/svg"
   xmlns="http://www.w3.org/2000/svg"
   viewBox="0 0 968.83197 242.43588"
   height="242.43588"
   width="968.83197"
   xml:space="preserve"
   version="1.1"
   id="svg3828"><metadata
     id="metadata3834"><rdf:RDF><cc:Work
         rdf:about=""><dc:format>image/svg+xml</dc:format><dc:type
           rdf:resource="http://purl.org/dc/dcmitype/StillImage" /><dc:title></dc:title></cc:Work></rdf:RDF></metadata><defs
     id="defs3832"><clipPath
       id="clipPath3846"
       clipPathUnits="userSpaceOnUse"><path
         id="path3848"
         d="M 0,0 775,0 775,194 0,194 0,0 Z" /></clipPath></defs><g
     transform="matrix(1.25,0,0,-1.25,0,242.43587)"
     id="g3836"><g
       id="g3838"><g
         transform="translate(0,-0.0513)"
         id="g3840"><g
           id="g3842"><g
             clip-path="url(#clipPath3846)"
             id="g3844"><g
               id="g3850"><path
                 id="path3852"
                 style="fill:#f0c900;fill-opacity:1;fill-rule:nonzero;stroke:none"
                 d="m 163.254,193.621 c -12.156,0 -24.16,-3.211 -34.688,-9.297 L 11.82,116.852 C 8.355,114.848 5.469,111.957 3.465,108.48 0.406,103.18 -0.406,97.012 1.18,91.109 2.75,85.191 6.535,80.254 11.82,77.199 L 128.566,9.742 C 139.094,3.641 151.098,0.43 163.254,0.43 l 588.551,0 c 12.617,0 22.867,10.277 22.867,22.898 l 0,147.41 c 0,12.621 -10.25,22.883 -22.867,22.883" /></g></g></g></g><path
         id="path3854"
         style="fill:#000000;fill-opacity:1;fill-rule:nonzero;stroke:none"
         d="m 163.258,188.144 c -11.235,0 -22.254,-2.957 -31.985,-8.582 L 14.539,112.089 C 11.891,110.562 9.688,108.359 8.16,105.71 3.336,97.351 6.199,86.683 14.539,81.859 L 131.273,14.386 c 9.731,-5.609 20.75,-8.566 31.985,-8.566 l 588.547,0 c 9.633,0 17.441,7.808 17.441,17.457 l 0,147.41 c 0,9.633 -7.808,17.457 -17.441,17.457 l -588.547,0 z m 0,-9.703 588.547,0 c 4.289,0 7.754,-3.477 7.754,-7.754 l 0,-147.41 c 0,-4.289 -3.465,-7.77 -7.754,-7.77 l -588.547,0 c -9.535,0 -18.891,2.512 -27.133,7.293 L 19.379,90.257 c -3.703,2.145 -4.977,6.887 -2.832,10.602 0.687,1.176 1.652,2.16 2.832,2.832 l 116.746,67.473 c 8.242,4.769 17.598,7.277 27.133,7.277 z m 279.969,-12.606 c -29.219,0 -52.903,-15.41 -52.903,-34.425 0,-19.012 23.684,-34.434 52.903,-34.434 29.238,0 52.918,15.422 52.918,34.434 0,19.015 -23.68,34.425 -52.918,34.425 z m 0,-6.617 c 24.835,0 44.984,-12.453 44.984,-27.808 0,-15.368 -20.149,-27.817 -44.984,-27.817 -24.844,0 -44.965,12.449 -44.965,27.817 0,15.355 20.121,27.808 44.965,27.808 z m -52.903,-54.293 0,-15.886 105.821,0 0,15.886 -14.036,0 c -21.593,-14.121 -56.171,-14.121 -77.765,0 l -14.02,0 z m 7.938,-18.551 c -1.461,0 -2.653,-1.179 -2.653,-2.636 l 0,-26.489 c 0,-1.457 1.192,-2.648 2.653,-2.648 l 7.922,0 c 1.472,0 2.664,1.191 2.664,2.648 l 0,26.489 c 0,1.457 -1.192,2.636 -2.664,2.636 l -7.922,0 z m 15.871,0 c -1.457,0 -2.649,-1.179 -2.649,-2.636 l 0,-26.489 c 0,-1.457 1.192,-2.648 2.649,-2.648 l 7.922,0 c 1.472,0 2.664,1.191 2.664,2.648 l 0,7.293 c 0,1.457 1.176,2.637 2.636,2.637 l 5.02,0 c 1.359,0 2.68,-0.519 3.66,-1.457 l 1.723,-1.64 c 3.058,-2.918 7.883,-2.918 10.953,0 l 1.723,1.64 c 0.98,0.938 2.273,1.457 3.648,1.457 l 5.02,0 c 1.457,0 2.648,-1.18 2.648,-2.637 l 0,-7.293 c 0,-1.457 1.191,-2.648 2.648,-2.648 l 7.938,0 c 1.461,0 2.652,1.191 2.652,2.648 l 0,26.489 c 0,1.457 -1.191,2.636 -2.652,2.636 l -7.938,0 c -1.457,0 -2.648,-1.179 -2.648,-2.636 l 0,-7.289 c 0,-1.446 -1.191,-2.637 -2.648,-2.637 l -5.02,0 c -1.375,0 -2.668,0.516 -3.648,1.441 l -1.723,1.657 c -3.07,2.929 -7.895,2.929 -10.953,0 l -1.723,-1.657 c -0.98,-0.925 -2.301,-1.441 -3.66,-1.441 l -5.02,0 c -1.46,0 -2.636,1.191 -2.636,2.637 l 0,7.289 c 0,1.457 -1.192,2.636 -2.664,2.636 l -7.922,0 z m 66.14,0 c -1.457,0 -2.648,-1.179 -2.648,-2.636 l 0,-26.489 c 0,-1.457 1.191,-2.648 2.648,-2.648 l 7.938,0 c 1.457,0 2.648,1.191 2.648,2.648 l 0,26.489 c 0,1.457 -1.191,2.636 -2.648,2.636 l -7.938,0 z" /><path
         id="path3856"
         style="fill:#154889;fill-opacity:1;fill-rule:nonzero;stroke:none"
         d="m 390.324,41.363 0,5.301 2.438,1.011 c 5.218,2.172 11.078,2.172 16.281,0 l 4.879,-2.035 c 5.215,-2.172 11.078,-2.172 16.277,0 l 4.895,2.035 c 5.203,2.172 11.062,2.172 16.265,0 l 4.895,-2.035 c 5.215,-2.172 11.078,-2.172 16.277,0 l 4.895,2.035 c 5.203,2.172 11.062,2.172 16.265,0 l 2.454,-1.011 0,-5.301 -2.454,1.023 c -5.203,2.16 -11.062,2.16 -16.265,0 l -4.895,-2.047 c -5.199,-2.172 -11.062,-2.172 -16.277,0 l -4.895,2.047 c -5.203,2.16 -11.062,2.16 -16.265,0 l -4.895,-2.047 c -5.199,-2.172 -11.062,-2.172 -16.277,0 l -4.879,2.047 c -5.203,2.16 -11.063,2.16 -16.281,0 l -2.438,-1.023 z m 0,-10.586 0,5.289 2.438,1.023 c 5.218,2.172 11.078,2.172 16.281,0 l 4.879,-2.035 c 5.215,-2.187 11.078,-2.187 16.277,0 l 4.895,2.035 c 5.203,2.172 11.062,2.172 16.265,0 l 4.895,-2.035 c 5.215,-2.187 11.078,-2.187 16.277,0 l 4.895,2.035 c 5.203,2.172 11.062,2.172 16.265,0 l 2.454,-1.023 0,-5.289 -2.454,1.012 c -5.203,2.171 -11.062,2.171 -16.265,0 l -4.895,-2.036 c -5.199,-2.171 -11.062,-2.171 -16.277,0 l -4.895,2.036 c -5.203,2.171 -11.062,2.171 -16.265,0 l -4.895,-2.036 c -5.199,-2.171 -11.062,-2.171 -16.277,0 l -4.879,2.036 c -5.203,2.171 -11.063,2.171 -16.281,0" /><path
         id="path3858"
         style="fill:#ec7c25;fill-opacity:1;fill-rule:nonzero;stroke:none"
         d="m 488.211,131.414 c 0,-15.372 -20.152,-27.821 -44.984,-27.821 -24.848,0 -44.969,12.449 -44.969,27.821 0,15.351 20.121,27.804 44.969,27.804 24.832,0 44.984,-12.453 44.984,-27.804" /></g></g></svg>