<?xml version="1.0" encoding="UTF-8" standalone="no"?>
<svg
   xmlns:dc="http://purl.org/dc/elements/1.1/"
   xmlns:cc="http://creativecommons.org/ns#"
   xmlns:rdf="http://www.w3.org/1999/02/22-rdf-syntax-ns#"
   xmlns:svg="http://www.w3.org/2000/svg"
   xmlns="http://www.w3.org/2000/svg"
   viewBox="0 0 968.83203 242.99748"
   height="242.99748"
   width="968.83203"
   xml:space="preserve"
   version="1.1"
   id="svg3619"><metadata
     id="metadata3625"><rdf:RDF><cc:Work
         rdf:about=""><dc:format>image/svg+xml</dc:format><dc:type
           rdf:resource="http://purl.org/dc/dcmitype/StillImage" /><dc:title></dc:title></cc:Work></rdf:RDF></metadata><defs
     id="defs3623"><clipPath
       id="clipPath3637"
       clipPathUnits="userSpaceOnUse"><path
         id="path3639"
         d="M 0,1 776,1 776,195 0,195 0,1 Z" /></clipPath></defs><g
     transform="matrix(1.25,0,0,-1.25,0,242.99747)"
     id="g3627"><g
       id="g3629"><g
         transform="translate(0,-0.60202)"
         id="g3631"><g
           id="g3633"><g
             clip-path="url(#clipPath3637)"
             id="g3635"><g
               id="g3641"><path
                 id="path3643"
                 style="fill:#f0c900;fill-opacity:1;fill-rule:nonzero;stroke:none"
                 d="M 23.562,195 C 10.941,195 0,184.059 0,171.438 L 0,24.164 C 0,11.543 10.941,1.445 23.562,1.445 l 588.243,0 c 12.625,0 24.406,3.364 34.504,9.254 l 116.976,67.324 c 3.363,2.528 6.731,5.051 8.414,8.418 3.367,5.047 4.207,11.782 2.524,17.672 -1.684,5.891 -5.891,10.942 -10.938,13.465 L 646.309,184.902 C 636.211,191.633 624.43,195 611.805,195 l -588.243,0 z" /></g></g></g></g><path
         id="path3645"
         style="fill:#000000;fill-opacity:1;fill-rule:nonzero;stroke:none"
         d="m 23.562,188.507 c -10.097,0 -17.671,-7.574 -17.671,-17.672 l 0,-147.269 C 5.891,14.308 13.465,5.89 23.562,5.89 l 588.243,0 c 11.781,0 22.722,3.367 31.98,9.258 l 116.977,67.324 c 2.523,1.68 5.047,3.367 6.73,5.891 4.207,8.414 1.684,19.355 -6.73,24.406 l -116.977,67.324 c -9.258,5.891 -20.199,8.414 -31.98,8.414 l -588.243,0 z m 0,-9.257 588.243,0 c 10.097,0 19.355,-2.524 26.929,-7.575 l 116.977,-67.32 c 4.207,-2.527 5.051,-6.734 3.367,-10.941 -0.844,-0.84 -1.683,-1.688 -3.367,-2.528 L 638.734,23.566 c -7.574,-5.051 -16.832,-7.578 -26.929,-7.578 l -588.243,0 c -4.207,0 -8.414,3.367 -8.414,7.578 l 0,147.269 c 0,4.208 4.207,8.415 8.414,8.415 z" /><path
         id="path3647"
         style="fill:#000000;fill-opacity:1;fill-rule:nonzero;stroke:none"
         d="m 303.801,166.628 c -5.051,0 -10.102,-5.05 -10.102,-10.101 l 0,-83.313 101.828,0 0,83.313 c 0,5.051 -5.05,10.101 -10.097,10.101 l -81.629,0 z m 4.207,-11.781 73.215,0 0,-69.851 -73.215,0 0,69.851 z m -19.356,-84.156 0,-5.891 111.926,0 0,5.891 -111.926,0 z m 8.414,-8.414 c -1.683,0 -3.367,-1.688 -3.367,-2.527 l 0,-28.614 c 0,-1.683 1.684,-2.523 3.367,-2.523 l 8.414,0 c 1.684,0 2.528,0.84 2.528,2.523 l 0,28.614 c 0,0.839 -0.844,2.527 -2.528,2.527 l -8.414,0 z m 16.832,0 c -1.683,0 -3.367,-1.688 -3.367,-2.527 l 0,-28.614 c 0,-1.683 1.684,-2.523 3.367,-2.523 l 8.414,0 c 1.684,0 2.528,0.84 2.528,2.523 l 0,7.574 c 0,1.68 1.683,3.368 2.523,3.368 l 5.891,0 c 0.84,0 2.523,-0.844 3.367,-1.684 l 2.524,-1.687 c 2.523,-3.364 7.574,-3.364 10.941,0 l 2.523,1.687 c 0.844,0.844 1.684,1.684 3.368,1.684 l 5.046,0 c 1.684,0 3.368,-1.684 3.368,-3.368 l 0,-7.574 c 0,-1.683 0.839,-2.523 2.523,-2.523 l 8.418,0 c 1.68,0 2.523,0.84 2.523,2.523 l 0,28.614 c 0,0.839 -0.843,2.527 -2.523,2.527 l -8.418,0 c -1.684,0 -2.523,-1.688 -2.523,-2.527 l 0,-8.415 c 0,-0.839 -1.684,-2.523 -3.368,-2.523 l -5.046,0 c -1.684,0 -2.524,0.844 -3.368,1.684 l -2.523,1.683 c -3.367,3.364 -8.418,3.364 -10.941,0 l -2.524,-1.683 c -0.844,-0.844 -2.527,-1.684 -3.367,-1.684 l -5.891,0 c -0.84,0 -2.523,1.684 -2.523,2.523 l 0,8.415 c 0,0.839 -0.844,2.527 -2.528,2.527 l -8.414,0 z m 69.848,0 c -1.684,0 -2.523,-1.688 -2.523,-2.527 l 0,-28.614 c 0,-1.683 0.839,-2.523 2.523,-2.523 l 8.414,0 c 1.684,0 3.367,0.84 3.367,2.523 l 0,28.614 c 0,0.839 -1.683,2.527 -3.367,2.527 l -8.414,0 z" /><path
         id="path3649"
         style="fill:#ec7c25;fill-opacity:1;fill-rule:nonzero;stroke:none"
         d="m 308.008,154.847 73.211,0 0,-69.852 -73.211,0 0,69.852 z" /></g></g></svg>