<?xml version="1.0" encoding="UTF-8" standalone="no"?>
<svg
   xmlns:dc="http://purl.org/dc/elements/1.1/"
   xmlns:cc="http://creativecommons.org/ns#"
   xmlns:rdf="http://www.w3.org/1999/02/22-rdf-syntax-ns#"
   xmlns:svg="http://www.w3.org/2000/svg"
   xmlns="http://www.w3.org/2000/svg"
   viewBox="0 0 1000 250.00591"
   height="250.00591"
   width="1000"
   xml:space="preserve"
   version="1.1"
   id="svg6821"><metadata
     id="metadata6827"><rdf:RDF><cc:Work
         rdf:about=""><dc:format>image/svg+xml</dc:format><dc:type
           rdf:resource="http://purl.org/dc/dcmitype/StillImage" /><dc:title></dc:title></cc:Work></rdf:RDF></metadata><defs
     id="defs6825" /><g
     transform="matrix(1.25,0,0,-1.25,0,250.00591)"
     id="g6829"><g
       id="g6831"><path
         id="path6833"
         style="fill:#f0c900;fill-opacity:1;fill-rule:nonzero;stroke:none"
         d="m 26,200.005 c -14.359,0 -26,-11.641 -26,-26 l 0,-148 c 0,-14.36 11.641,-26 26,-26 l 593.598,0 c 27.59,-0.047 36.148,0.011 54.714,12.418 L 787,77.481 l 0,0.008 c 7.77,4.496 13,12.895 13,22.516 0,9.621 -5.23,18.015 -13,22.511 l 0,0.012 -112.707,65.074 c -18.648,12.442 -27.141,12.403 -54.695,12.403 l -593.598,0 z" /><path
         id="path6835"
         style="fill:#000000;fill-opacity:1;fill-rule:nonzero;stroke:none"
         d="m 49.719,60.653 0,79.348 50.754,0 0,-11.379 -38.719,0 0,-22.602 33.004,0 0,-10.73 -33.004,0 0,-23.309 38.719,0 0,-11.328 -50.754,0 z m 63.722,0 0,56.531 11.387,0 0,-56.531 -11.387,0 z m 0,67.969 0,11.379 11.387,0 0,-11.379 -11.387,0 z m 61.989,-51.356 8.386,-7.519 c -2.468,-2.828 -5.398,-5.16 -8.796,-6.996 -3.395,-1.832 -7.235,-2.75 -11.52,-2.75 -6.531,0 -12.441,2.226 -17.723,6.668 -5.285,4.449 -7.922,11.847 -7.922,22.195 0,10.348 2.637,17.766 7.922,22.246 5.282,4.485 11.192,6.727 17.723,6.727 4.285,0 8.125,-0.926 11.52,-2.778 3.398,-1.851 6.328,-4.191 8.796,-7.027 l -8.386,-7.461 c -3.196,3.922 -7.028,5.887 -11.492,5.887 -9.805,0 -14.704,-5.867 -14.704,-17.594 0,-11.687 4.899,-17.535 14.704,-17.535 4.503,0 8.332,1.977 11.492,5.937 z m 18.527,-16.613 0,79.348 11.379,0 0,-28.863 0.219,0 c 3.523,4.464 8.422,6.699 14.703,6.699 4.394,0 8.633,-1.668 12.719,-5.012 4.082,-3.336 6.125,-8.203 6.125,-14.594 l 0,-37.578 -11.383,0 0,33.656 c 0,3.817 -1.063,6.789 -3.184,8.934 -2.125,2.141 -4.765,3.215 -7.926,3.215 -3.265,0 -5.961,-1.074 -8.086,-3.215 -2.125,-2.145 -3.187,-5.117 -3.187,-8.934 l 0,-33.656 -11.379,0 z m 105.984,23.965 -35.179,0 c 0,-4.648 1.261,-8.133 3.785,-10.461 2.523,-2.32 5.746,-3.484 9.664,-3.484 4.684,0 8.824,1.816 12.418,5.449 l 8.226,-7.024 c -2.796,-3.269 -5.945,-5.605 -9.453,-7 -3.504,-1.398 -7.156,-2.097 -10.968,-2.097 -5.813,0 -11.442,1.879 -16.883,5.637 -5.446,3.757 -8.172,11.445 -8.172,23.062 0,11 2.516,18.609 7.543,22.816 5.027,4.215 10.285,6.321 15.766,6.321 6.207,0 11.636,-2.153 16.285,-6.453 4.648,-4.305 6.968,-10.102 6.968,-17.403 l 0,-9.363 z m -35.179,9.363 23.851,0 c -0.183,4.25 -1.379,7.5 -3.59,9.75 -2.218,2.25 -4.996,3.375 -8.335,3.375 -3.379,0 -6.18,-1.125 -8.415,-3.375 -2.234,-2.25 -3.402,-5.5 -3.511,-9.75 z m 49.461,-33.328 0,56.531 11.382,0 0,-6.046 0.215,0 c 3.524,4.464 8.422,6.699 14.703,6.699 4.395,0 8.629,-1.668 12.719,-5.012 4.082,-3.336 6.125,-8.203 6.125,-14.594 l 0,-37.578 -11.383,0 0,33.656 c 0,3.817 -1.062,6.789 -3.183,8.934 -2.125,2.141 -4.766,3.215 -7.926,3.215 -3.27,0 -5.961,-1.074 -8.086,-3.215 -2.125,-2.145 -3.184,-5.117 -3.184,-8.934 l 0,-33.656 -11.382,0 z m 62.199,0 0,79.348 11.383,0 0,-28.863 c 2.105,2 4.328,3.613 6.672,4.847 2.339,1.235 4.98,1.852 7.925,1.852 3.446,0 6.426,-0.699 8.93,-2.094 2.504,-1.398 4.574,-3.152 6.207,-5.258 1.559,-2.031 2.621,-4.402 3.188,-7.109 0.558,-2.703 0.843,-7.508 0.843,-14.403 0,-6.972 -0.285,-11.828 -0.843,-14.57 -0.567,-2.738 -1.629,-5.109 -3.188,-7.105 -1.633,-2.141 -3.703,-3.895 -6.207,-5.254 -2.504,-1.36 -5.484,-2.043 -8.93,-2.043 -5.812,0 -10.679,2.176 -14.597,6.535 l 0,-5.883 -11.383,0 z m 22.547,45.805 c -5.336,0 -8.535,-1.91 -9.586,-5.723 -1.051,-3.812 -1.578,-7.734 -1.578,-11.762 0,-4.136 0.527,-8.117 1.578,-11.925 1.051,-3.813 4.25,-5.719 9.586,-5.719 5.34,0 8.543,1.832 9.613,5.5 1.07,3.664 1.606,7.715 1.606,12.144 0,4.321 -0.536,8.313 -1.606,11.981 -1.07,3.668 -4.273,5.504 -9.613,5.504 z m 67.379,-45.805 0,5.012 -0.274,0 c -2.289,-3.774 -6.933,-5.664 -13.945,-5.664 -6.317,0 -11.219,1.64 -14.703,4.93 -3.485,3.285 -5.227,7.398 -5.227,12.335 0,4.461 1.543,8.368 4.625,11.707 3.09,3.34 7.684,5.008 13.781,5.008 l 15.743,0 0,5.883 c 0,4.832 -3.871,7.242 -11.606,7.242 -5.371,0 -8.949,-1.429 -10.726,-4.3 l -8.934,6.753 c 3.961,5.516 10.316,8.278 19.063,8.278 6.972,0 12.636,-1.364 16.992,-4.082 4.355,-2.727 6.535,-7.571 6.535,-14.543 l 0,-38.559 -11.324,0 z m 0,19.824 0,4.141 -13.621,0 c -6.567,0 -9.852,-2.27 -9.852,-6.809 0,-1.925 0.82,-3.593 2.473,-5.011 1.652,-1.418 4.406,-2.125 8.254,-2.125 4.718,0 8.023,0.527 9.91,1.582 1.89,1.051 2.836,3.797 2.836,8.222 z m 61.597,-3.211 8.391,-7.519 c -2.473,-2.828 -5.402,-5.16 -8.797,-6.996 -3.394,-1.832 -7.23,-2.75 -11.516,-2.75 -6.539,0 -12.445,2.226 -17.73,6.668 -5.281,4.449 -7.922,11.847 -7.922,22.195 0,10.348 2.641,17.766 7.922,22.246 5.285,4.485 11.191,6.727 17.73,6.727 4.286,0 8.122,-0.926 11.516,-2.778 3.395,-1.851 6.324,-4.191 8.797,-7.027 l -8.391,-7.461 c -3.195,3.922 -7.023,5.887 -11.488,5.887 -9.801,0 -14.703,-5.867 -14.703,-17.594 0,-11.687 4.902,-17.535 14.703,-17.535 4.5,0 8.332,1.977 11.488,5.937 z m 18.528,-16.613 0,79.348 11.382,0 0,-28.863 0.219,0 c 3.52,4.464 8.422,6.699 14.703,6.699 4.395,0 8.629,-1.668 12.715,-5.012 4.086,-3.336 6.129,-8.203 6.129,-14.594 l 0,-37.578 -11.383,0 0,33.656 c 0,3.817 -1.062,6.789 -3.187,8.934 -2.121,2.141 -4.766,3.215 -7.926,3.215 -3.266,0 -5.961,-1.074 -8.082,-3.215 -2.125,-2.145 -3.188,-5.117 -3.188,-8.934 l 0,-33.656 -11.382,0 z" /></g></g></svg>