<?xml version="1.0" encoding="UTF-8" standalone="no"?>
<svg
   xmlns:dc="http://purl.org/dc/elements/1.1/"
   xmlns:cc="http://creativecommons.org/ns#"
   xmlns:rdf="http://www.w3.org/1999/02/22-rdf-syntax-ns#"
   xmlns:svg="http://www.w3.org/2000/svg"
   xmlns="http://www.w3.org/2000/svg"
   viewBox="0 0 2251.998 601"
   height="601"
   width="2251.998"
   xml:space="preserve"
   version="1.1"
   id="svg13003"><metadata
     id="metadata13009"><rdf:RDF><cc:Work
         rdf:about=""><dc:format>image/svg+xml</dc:format><dc:type
           rdf:resource="http://purl.org/dc/dcmitype/StillImage" /><dc:title></dc:title></cc:Work></rdf:RDF></metadata><defs
     id="defs13007" /><g
     transform="matrix(1.25,0,0,-1.25,0,600.99998)"
     id="g13011"><g
       id="g13013"><path
         id="path13015"
         style="fill:#ffffff;fill-opacity:1;fill-rule:evenodd;stroke:none"
         d="m 1740.398,480.402 c 33.137,0 60,-26.864 60,-60 l 0,-360.004 c 0,-33.137 -26.863,-59.996 -60,-59.996 l -1334.96,0 c -30.321,0 -59.973,7.906 -86.223,23.082 L 28.832,191.159 c -17.527,10.188 -28.434,28.977 -28.434,49.106 0,20.351 10.907,39.207 28.434,49.34 L 319.215,457.23 c 26.25,15.16 56.125,23.172 86.223,23.172 l 1334.96,0 z" /><path
         id="path13017"
         style="fill:#000000;fill-opacity:1;fill-rule:evenodd;stroke:none"
         d="m 1732.426,460.8 c 26.508,0 47.969,-21.488 47.972,-47.996 l 0,-344.406 c 0,-26.508 -21.464,-47.996 -47.972,-47.996 0,0 0,0 0,0 l -1327.071,0 c -26.968,0 -46.867,4.144 -70.324,17.515 L 42.711,206.218 c -29.816,17.242 -29.816,50.961 0,68.285 l 292.316,168.762 c 23.461,13.508 43.36,17.535 70.325,17.535 l 1327.074,0 z" /><path
         id="path13019"
         style="fill:#ffffff;fill-opacity:1;fill-rule:evenodd;stroke:none"
         d="m 1728.398,432.804 c 13.239,0 23.977,-10.723 24,-23.953 l 0,-336.449 c 0,-13.258 -10.746,-24 -24,-24 l -1321.144,0 c -23.024,0 -39.606,2.472 -59.563,14.097 L 69.258,223.195 c -19.031,11.031 -20.914,11.207 -20.914,17.054 0,5.848 1.922,6.25 20.914,17.289 l 278.433,160.727 c 19.957,11.449 36.539,14.539 59.563,14.539 l 1321.144,0 z" /><path
         id="path13021"
         style="fill:#000000;fill-opacity:1;fill-rule:nonzero;stroke:none"
         d="m 603.367,171.546 58.496,0 c 5.2,0 10.137,0.91 14.817,2.731 4.679,1.816 8.777,4.484 12.285,7.992 3.64,3.511 6.433,7.668 8.383,12.48 2.082,4.938 3.121,10.332 3.121,16.184 0,7.539 -1.949,14.297 -5.848,20.277 -3.902,6.11 -9.492,10.012 -16.769,11.699 l 0,0.391 c 7.539,3.379 12.804,7.605 15.793,12.676 3.121,5.066 4.679,10.789 4.679,17.156 0,11.309 -3.574,20.344 -10.722,27.105 -7.153,6.758 -17.289,10.137 -30.418,10.137 l -53.817,0 0,-138.828 z m 53.426,61.613 c 7.41,0 13,-2.015 16.77,-6.043 3.898,-3.898 5.847,-8.839 5.847,-14.82 0,-5.848 -1.949,-10.789 -5.847,-14.816 -3.77,-4.032 -9.36,-6.047 -16.77,-6.047 l -32.367,0 0,41.726 32.367,0 z m -1.949,58.496 c 7.277,0 12.804,-1.882 16.574,-5.652 3.898,-3.769 5.848,-8.516 5.848,-14.234 0,-5.719 -1.95,-10.465 -5.848,-14.235 -3.77,-3.769 -9.297,-5.656 -16.574,-5.656 l -30.418,0 0,39.777 30.418,0 z" /><path
         id="path13023"
         style="fill:#000000;fill-opacity:1;fill-rule:nonzero;stroke:none"
         d="m 781.898,171.546 19.887,0 0,67.465 c 0,11.566 -3.64,19.887 -10.918,24.957 -7.148,5.07 -17.222,7.605 -30.222,7.605 -7.672,0 -14.235,-1.171 -19.696,-3.511 -5.457,-2.207 -10.008,-5.848 -13.648,-10.918 l 15.597,-11.895 c 1.821,2.86 4.098,4.809 6.825,5.852 2.73,1.168 6.695,1.754 11.894,1.754 7.281,0 12.481,-0.977 15.602,-2.926 3.117,-1.82 4.679,-5.07 4.679,-9.75 l 0,-10.332 -27.496,0 c -10.136,0 -18.066,-2.797 -23.785,-8.387 -5.59,-5.59 -8.387,-12.543 -8.387,-20.863 0,-8.84 3.122,-16.117 9.36,-21.836 6.242,-5.59 14.754,-8.387 25.543,-8.387 6.629,0 11.832,0.781 15.601,2.34 3.77,1.563 6.692,4.094 8.774,7.606 l 0.39,0 0,-8.774 z m 0,34.707 c 0,-7.41 -1.496,-12.156 -4.484,-14.234 -2.992,-1.949 -8.906,-2.926 -17.746,-2.926 -6.367,0 -11.113,1.172 -14.234,3.512 -2.989,2.34 -4.485,5.328 -4.485,8.968 0,3.77 1.43,6.696 4.289,8.774 2.864,2.082 7.153,3.121 12.871,3.121 l 23.789,0 0,-7.215 z" /><path
         id="path13025"
         style="fill:#000000;fill-opacity:1;fill-rule:nonzero;stroke:none"
         d="m 831.121,171.546 19.891,0 0,58.883 c 0,6.633 1.816,11.832 5.457,15.601 3.769,3.77 8.515,5.653 14.234,5.653 5.719,0 10.399,-1.883 14.039,-5.653 3.641,-3.769 5.461,-8.968 5.461,-15.601 l 0,-58.883 19.887,0 0,65.711 c 0,5.457 -0.973,10.332 -2.926,14.621 -1.816,4.289 -4.351,7.867 -7.601,10.727 -3.25,2.988 -6.825,5.199 -10.727,6.629 -3.898,1.558 -7.797,2.339 -11.699,2.339 -10.918,0 -19.496,-3.898 -25.739,-11.699 l -0.386,0 0,50.5 -19.891,0 0,-138.828 z" /><path
         id="path13027"
         style="fill:#000000;fill-opacity:1;fill-rule:nonzero;stroke:none"
         d="m 939.426,171.546 19.89,0 0,58.883 c 0,6.633 1.817,11.832 5.457,15.601 3.77,3.77 8.516,5.653 14.235,5.653 5.719,0 10.398,-1.883 14.039,-5.653 3.641,-3.769 5.461,-8.968 5.461,-15.601 l 0,-58.883 19.887,0 0,65.711 c 0,5.457 -0.973,10.332 -2.926,14.621 -1.817,4.289 -4.352,7.867 -7.602,10.727 -3.25,2.988 -6.824,5.199 -10.726,6.629 -3.899,1.558 -7.797,2.339 -11.7,2.339 -10.918,0 -19.496,-3.898 -25.738,-11.699 l -0.387,0 0,10.528 -19.89,0 0,-98.856 z" /><path
         id="path13029"
         style="fill:#000000;fill-opacity:1;fill-rule:nonzero;stroke:none"
         d="m 1047.73,171.546 19.891,0 0,58.883 c 0,6.633 1.817,11.832 5.457,15.601 3.77,3.77 8.516,5.653 14.235,5.653 5.718,0 10.398,-1.883 14.039,-5.653 3.64,-3.769 5.461,-8.968 5.461,-15.601 l 0,-58.883 19.886,0 0,65.711 c 0,5.457 -0.972,10.332 -2.922,14.621 -1.82,4.289 -4.355,7.867 -7.605,10.727 -3.25,2.988 -6.824,5.199 -10.727,6.629 -3.898,1.558 -7.797,2.339 -11.699,2.339 -10.918,0 -19.496,-3.898 -25.738,-11.699 l -0.387,0 0,50.5 -19.891,0 0,-138.828 z" /><path
         id="path13031"
         style="fill:#000000;fill-opacity:1;fill-rule:nonzero;stroke:none"
         d="m 1156.035,221.07 c 0,-10.399 0.781,-18.262 2.34,-23.59 1.691,-5.203 4.484,-10.012 8.387,-14.43 3.246,-3.641 7.277,-6.695 12.086,-9.164 4.941,-2.34 10.922,-3.512 17.941,-3.512 7.02,0 12.934,1.172 17.742,3.512 4.942,2.469 9.035,5.523 12.285,9.164 3.899,4.418 6.629,9.227 8.188,14.43 1.691,5.328 2.535,13.191 2.535,23.59 0,10.269 -0.844,18.003 -2.535,23.207 -1.559,5.328 -4.289,10.203 -8.188,14.621 -3.25,3.64 -7.343,6.629 -12.285,8.968 -4.808,2.473 -10.722,3.707 -17.742,3.707 -7.019,0 -13,-1.234 -17.941,-3.707 -4.809,-2.339 -8.84,-5.328 -12.086,-8.968 -3.903,-4.418 -6.696,-9.293 -8.387,-14.621 -1.559,-5.204 -2.34,-12.938 -2.34,-23.207 z m 61.617,-0.192 c 0,-6.891 -0.324,-11.832 -0.976,-14.82 -0.649,-2.988 -1.949,-5.852 -3.899,-8.578 -1.562,-2.082 -3.769,-3.836 -6.629,-5.266 -2.859,-1.301 -5.98,-1.949 -9.359,-1.949 -3.25,0 -6.371,0.648 -9.359,1.949 -2.86,1.43 -5.071,3.184 -6.629,5.266 -1.953,2.726 -3.25,5.59 -3.903,8.578 -0.648,2.988 -0.972,7.992 -0.972,15.012 0,6.89 0.324,11.832 0.972,14.82 0.653,2.992 1.95,5.851 3.903,8.578 1.558,2.082 3.769,3.769 6.629,5.07 2.988,1.43 6.109,2.145 9.359,2.145 3.379,0 6.5,-0.715 9.359,-2.145 2.86,-1.301 5.067,-2.988 6.629,-5.07 1.95,-2.727 3.25,-5.586 3.899,-8.578 0.652,-2.988 0.976,-7.992 0.976,-15.012 z" /><path
         id="path13033"
         style="fill:#000000;fill-opacity:1;fill-rule:nonzero;stroke:none"
         d="m 1267.922,171.546 19.891,0 0,83.649 19.886,0 0,15.207 -19.886,0 0,13.066 c 0,2.988 0.585,5.07 1.753,6.238 1.301,1.301 3.575,1.949 6.825,1.949 l 11.308,0 0,18.719 -12.867,0 c -8.059,0 -14.559,-2.273 -19.5,-6.824 -4.937,-4.551 -7.41,-11.242 -7.41,-20.082 l 0,-13.066 -9.942,0 0,-15.207 9.942,0 0,-83.649 z" /><path
         id="path13035"
         style="fill:#000000;fill-opacity:1;fill-rule:evenodd;stroke:none"
         d="m 1740.398,480.8 c 33.356,0 60.399,-27.047 60.399,-60.398 l 0,-360.004 c 0,-33.352 -27.047,-60.399 -60.399,-60.399 l -1334.96,0 c -30.391,0 -60.114,7.926 -86.422,23.137 L 28.633,190.816 C 10.984,201.073 0,219.991 0,240.265 c 0,20.496 10.984,39.484 28.633,49.687 l 290.383,167.625 c 26.312,15.196 56.254,23.223 86.422,23.223 l 1334.96,0 z m 0,-0.398 -1334.96,0 c -30.098,0 -59.973,-8.012 -86.219,-23.172 L 28.832,289.605 C 11.305,279.472 0.398,260.616 0.398,240.265 c 0,-20.129 10.907,-38.918 28.434,-49.106 L 319.215,23.484 C 345.465,8.308 375.117,0.402 405.438,0.402 l 1334.96,0 c 33.137,0 60,26.859 60,59.996 l 0,360.004 c 0,33.136 -26.863,60 -60,60 z" /></g></g></svg>