<?xml version="1.0" encoding="UTF-8" standalone="no"?>
<svg
   xmlns:dc="http://purl.org/dc/elements/1.1/"
   xmlns:cc="http://creativecommons.org/ns#"
   xmlns:rdf="http://www.w3.org/1999/02/22-rdf-syntax-ns#"
   xmlns:svg="http://www.w3.org/2000/svg"
   xmlns="http://www.w3.org/2000/svg"
   xmlns:sodipodi="http://sodipodi.sourceforge.net/DTD/sodipodi-0.dtd"
   xmlns:inkscape="http://www.inkscape.org/namespaces/inkscape"
   viewBox="0 0 656.04016 1510.55"
   height="1510.55"
   width="656.04016"
   xml:space="preserve"
   version="1.1"
   id="svg15244"
   sodipodi:docname="DE_450-52.svg"
   inkscape:version="1.0.1 (3bc2e813f5, 2020-09-07)"><sodipodi:namedview
     pagecolor="#ffffff"
     bordercolor="#666666"
     borderopacity="1"
     objecttolerance="10"
     gridtolerance="10"
     guidetolerance="10"
     inkscape:pageopacity="0"
     inkscape:pageshadow="2"
     inkscape:window-width="1920"
     inkscape:window-height="1027"
     id="namedview7635"
     showgrid="false"
     inkscape:zoom="0.44584634"
     inkscape:cx="446.02008"
     inkscape:cy="743.13261"
     inkscape:window-x="-8"
     inkscape:window-y="-8"
     inkscape:window-maximized="1"
     inkscape:current-layer="svg15244" /><metadata
     id="metadata15250"><rdf:RDF><cc:Work
         rdf:about=""><dc:format>image/svg+xml</dc:format><dc:type
           rdf:resource="http://purl.org/dc/dcmitype/StillImage" /><dc:title></dc:title></cc:Work></rdf:RDF></metadata><defs
     id="defs15248"><clipPath
       id="clipPath15296"
       clipPathUnits="userSpaceOnUse"><path
         id="path15298"
         d="m 136,1318.84 h 521 v -1201 H 136 Z" /></clipPath><clipPath
       id="clipPath15306"
       clipPathUnits="userSpaceOnUse"><path
         id="path15308"
         d="M 136,118 H 657 V 1319 H 136 Z" /></clipPath><clipPath
       id="clipPath15324"
       clipPathUnits="userSpaceOnUse"><path
         id="path15326"
         d="m 135,1318.84 h 523 v -1202 H 135 Z" /></clipPath><clipPath
       id="clipPath15334"
       clipPathUnits="userSpaceOnUse"><path
         id="path15336"
         d="M 135,117 H 658 V 1319 H 135 Z" /></clipPath></defs><g
     clip-path="url(#clipPath15296)"
     id="g15294"
     transform="matrix(1.25,0,0,-1.25,-163.73354,1650.7931)"><g
       transform="translate(0,-0.159912)"
       id="g15300"><g
         id="g15302"><g
           clip-path="url(#clipPath15306)"
           id="g15304"><g
             id="g15310"><path
               id="path15312"
               style="fill:#ffffff;fill-opacity:1;fill-rule:nonzero;stroke:none"
               d="m 186.484,1318.449 c -27.613,0 -50,-22.387 -50,-50 v -1100 c 0,-27.613 22.387,-50 50,-50 h 422.5 c 27.614,0 47.5,22.387 47.5,50 v 1100 c 0,27.613 -19.886,50 -47.5,50 z" /></g></g></g></g><path
       id="path15314"
       style="fill:#154889;fill-opacity:1;fill-rule:nonzero;stroke:none"
       d="m 186.484,1298.289 c -15.496,0 -30,-14.519 -30,-30 V 755.43 l 480,277.129 v 235.73 c 0,15.481 -12,30 -27.5,30 z m 450,-820 c -160.011,-92.343 -320,-184.734 -480,-277.105 v -32.895 c 0,-15.484 14.504,-30 30,-30 h 422.5 c 15.5,0 27.5,14.516 27.5,30 z" /><path
       id="path15316"
       style="fill:#154889;fill-opacity:1;fill-rule:nonzero;stroke:none"
       d="M 636.23,699.879 156.484,422.895 V 312.047 L 636.23,589.028 Z" /><path
       id="path15318"
       style="fill:#154889;fill-opacity:1;fill-rule:nonzero;stroke:none"
       d="M 636.23,921.563 156.484,644.582 V 533.731 L 636.23,810.715 Z" /></g><g
     id="g15320"
     transform="matrix(1.25,0,0,-1.25,-163.73354,1650.7931)"><g
       clip-path="url(#clipPath15324)"
       id="g15322"><g
         transform="translate(0,-0.159912)"
         id="g15328"><g
           id="g15330"><g
             clip-path="url(#clipPath15334)"
             id="g15332"><g
               id="g15338"><path
                 id="path15340"
                 style="fill:#000000;fill-opacity:1;fill-rule:nonzero;stroke:none"
                 d="m 186.484,1319.047 c -27.937,0 -50.597,-22.66 -50.597,-50.598 V 168.445 c 0,-27.937 22.66,-50.597 50.597,-50.597 h 422.5 c 27.938,0 48.102,22.699 48.102,50.597 v 1100.004 c 0,27.903 -20.164,50.598 -48.102,50.598 z m 0,-0.598 h 422.5 c 27.614,0 47.5,-22.387 47.5,-50 v -1100 c 0,-27.613 -19.886,-50 -47.5,-50 h -422.5 c -27.613,0 -50,22.387 -50,50 v 1100 c 0,27.613 22.387,50 50,50 z" /></g></g></g></g></g></g><path
     id="path15348"
     style="fill:#656565;fill-opacity:1;fill-rule:nonzero;stroke:none;stroke-width:1.25"
     d="m -163.73354,2.2530253 v 1.8399999 h 5.3125 V 2.2530253 Z m 7.35875,0 v 1.8399999 h 5.3175 V 2.2530253 Z m 7.3675,0 v 1.8399999 h 5.3125 V 2.2530253 Z m 7.35875,0 v 1.8399999 h 5.3175 V 2.2530253 Z m 7.35875,0 v 1.8399999 h 5.3125 V 2.2530253 Z m 7.3575,0 v 1.8399999 h 5.3125 V 2.2530253 Z m 7.35875,0 v 1.8399999 h 5.3275 V 2.2530253 Z m 7.37375,0 v 1.8399999 h 5.3125 V 2.2530253 Z m 7.3575,0 v 1.8399999 h 5.317495 V 2.2530253 Z m 7.358747,0 v 1.8399999 h 5.3125 V 2.2530253 Z m 7.36375,0 v 1.8399999 h 5.3125 V 2.2530253 Z m 7.3575,0 v 1.8399999 h 5.3175 V 2.2530253 Z m 7.36375,0 v 1.8399999 h 5.3125 V 2.2530253 Z m 7.35875,0 v 1.8399999 h 4.41375 V 2.2530253 Z m 7.3625,0 v 1.8399999 h 4.41 V 2.2530253 Z m 7.35875,0 v 1.8399999 h 4.41875 V 2.2530253 Z m 7.35875,0 v 1.8399999 h 4.41875 V 2.2530253 Z m 7.3725,0 v 1.8399999 h 4.41875 V 2.2530253 Z m 7.35875,0 v 1.8399999 h 4.40875 V 2.2530253 Z m 7.35875,0 v 1.8399999 h 4.40875 V 2.2530253 Z m 7.3625,0 v 1.8399999 h 4.41375 V 2.2530253 Z m 7.3587502,0 v 1.8399999 h 4.4187505 V 2.2530253 Z m 7.3637505,0 v 1.8399999 h 4.41875 V 2.2530253 Z m 7.3575,0 v 1.8399999 h 4.415 V 2.2530253 Z m 7.3637493,0 v 1.8399999 h 4.40875 V 2.2530253 Z m 8.095,0 v 1.8399999 h 3.6825 V 2.2530253 Z m 7.35875,0 v 1.8399999 h 3.6825 V 2.2530253 Z m 7.35875,0 v 1.8399999 h 3.69625 V 2.2530253 Z m 7.35875,0 v 1.8399999 h 3.68625 V 2.2530253 Z m 7.3675,0 v 1.8399999 h 3.6775 V 2.2530253 Z m 7.35875,0 v 1.8399999 h 3.68625 V 2.2530253 Z m 7.36375,0 v 1.8399999 h 3.68625 V 2.2530253 Z" /><path
     id="path15474"
     style="fill:#ffffff;fill-opacity:1;fill-rule:nonzero;stroke:none;stroke-width:1.25"
     d="m 400.26021,454.72802 v -63.15875 c 0,-11.10875 -2.925,-20.46875 -10.5275,-27.87625 -5.84875,-5.64875 -14.81375,-8.965 -24.95125,-8.965 -13.06125,0 -23.0025,4.6775 -30.99,14.42375 -6.24125,-9.55 -15.79125,-14.42375 -28.0725,-14.42375 -9.94125,0 -19.6875,3.89625 -26.3175,11.10875 v -9.94125 h -19.4925 v 98.8325 h 19.8825 v -60.23375 c 0,-15.205 9.35625,-22.02625 20.46875,-22.02625 11.10875,0 19.88375,6.625 19.88375,22.02625 v 60.23375 h 19.8825 v -61.21125 c 0,-14.2275 9.74625,-21.04875 20.46875,-21.04875 11.10875,0 19.8825,6.625 19.8825,22.02625 v 60.23375 z" /><path
     id="path15476"
     style="fill:#ffffff;fill-opacity:1;fill-rule:nonzero;stroke:none;stroke-width:1.25"
     d="m 386.74521,236.58427 c 0,7.11375 -1.39125,13.88125 -4.165,20.3025 -2.77875,6.245 -6.50875,11.70875 -11.19125,16.39625 -4.6875,4.6825 -10.24,8.4125 -16.66,11.19125 -6.24625,2.77375 -12.925,4.165 -20.04,4.165 -7.29,0 -14.14,-1.39125 -20.56125,-4.165 -6.245,-2.77875 -11.71375,-6.50875 -16.39625,-11.19125 -4.6875,-4.6875 -8.4175,-10.15125 -11.19125,-16.39625 -2.6025,-6.42125 -3.90625,-13.18875 -3.90625,-20.3025 v -85.89375 c 0,-7.115 1.30375,-13.79375 3.90625,-20.04 2.77375,-6.42 6.50375,-11.9725 11.19125,-16.655 4.6825,-4.6875 10.15125,-8.4175 16.39625,-11.19624 6.42125,-2.77375 13.27125,-4.160005 20.56125,-4.160005 7.115,0 13.79375,1.386255 20.04,4.160005 6.42,2.77874 11.9725,6.50874 16.66,11.19624 4.6825,4.6825 8.4125,10.235 11.19125,16.655 2.77375,6.24625 4.165,12.925 4.165,20.04 z m -52.05625,-111.92 c -7.29,0 -13.4475,2.515 -18.48125,7.54875 -5.02875,5.03 -7.54875,11.1925 -7.54875,18.4775 v 85.89375 c 0,7.285 2.52,13.44625 7.54875,18.47625 5.03375,5.03375 11.19125,7.54875 18.48125,7.54875 7.285,0 13.4475,-2.515 18.4775,-7.54875 5.03375,-5.03 7.54875,-11.19125 7.54875,-18.47625 v -85.89375 c 0,-7.285 -2.515,-13.4475 -7.54875,-18.4775 -5.03,-5.03375 -11.1925,-7.54875 -18.4775,-7.54875 z" /><path
     id="path15478"
     style="fill:#ffffff;fill-opacity:1;fill-rule:nonzero;stroke:none;stroke-width:1.25"
     d="m 517.38896,236.58427 c 0,7.11375 -1.38625,13.88125 -4.165,20.3025 -2.7775,6.245 -6.50875,11.70875 -11.19125,16.39625 -4.6875,4.6825 -10.23875,8.4125 -16.66,11.19125 -6.245,2.77375 -12.925,4.165 -20.03875,4.165 -7.285,0 -14.14125,-1.39125 -20.56125,-4.165 -6.245,-2.77875 -11.70875,-6.50875 -16.39625,-11.19125 -4.6875,-4.6875 -8.41875,-10.15125 -11.1925,-16.39625 -2.6025,-6.42125 -3.90625,-13.18875 -3.90625,-20.3025 v -85.89375 c 0,-7.115 1.30375,-13.79375 3.90625,-20.04 2.77375,-6.42 6.505,-11.9725 11.1925,-16.655 4.6875,-4.6875 10.15125,-8.4175 16.39625,-11.19624 6.42,-2.77375 13.27625,-4.160005 20.56125,-4.160005 7.11375,0 13.79375,1.386255 20.03875,4.160005 6.42125,2.77874 11.9725,6.50874 16.66,11.19624 4.6825,4.6825 8.41375,10.235 11.19125,16.655 2.77875,6.24625 4.165,12.925 4.165,20.04 z m -52.055,-111.92 c -7.285,0 -13.4475,2.515 -18.48125,7.54875 -5.03,5.03 -7.53875,11.1925 -7.53875,18.4775 v 85.89375 c 0,7.285 2.50875,13.44625 7.53875,18.47625 5.03375,5.03375 11.19625,7.54875 18.48125,7.54875 7.29,0 13.4475,-2.515 18.48125,-7.54875 5.02875,-5.03 7.54375,-11.19125 7.54375,-18.47625 v -85.89375 c 0,-7.285 -2.515,-13.4475 -7.54375,-18.4775 -5.03375,-5.03375 -11.19125,-7.54875 -18.48125,-7.54875 z" /><path
     id="path15480"
     style="fill:#ffffff;fill-opacity:1;fill-rule:nonzero;stroke:none;stroke-width:1.25"
     d="m 189.01021,179.24427 h 9.16 c 8.8975,0 15.875,-2.44125 20.9375,-7.32875 5.235,-5.05875 7.8525,-11.425 7.8525,-19.10125 0,-3.8375 -0.69875,-7.32875 -2.095,-10.46875 -1.39625,-3.315 -3.40375,-6.19625 -6.02125,-8.6375 -2.44125,-2.44125 -5.32125,-4.36 -8.6375,-5.7575 -3.315,-1.39625 -6.80125,-2.09375 -10.46875,-2.09375 -5.58125,0 -10.9025,1.83 -15.96125,5.4975 -5.05875,3.6625 -8.28625,9.33125 -9.6825,17.01125 h -26.695 c 0.5225,-6.63 2.26625,-12.915 5.235,-18.8475 2.96375,-5.9275 6.71875,-11.16125 11.255,-15.6975 4.70625,-4.53625 10.02875,-8.11625 15.96125,-10.73249 5.9325,-2.6175 12.2125,-3.926255 18.8425,-3.926255 8.375,0 15.88,1.485005 22.505,4.448755 6.8075,2.96874 12.56375,6.98249 17.27625,12.03999 4.8825,4.88375 8.6375,10.5575 11.255,17.0125 2.61625,6.27875 3.925,12.8225 3.925,19.62375 0,7.15875 -1.39625,14.13625 -4.18875,20.9375 -2.6175,6.63125 -7.8525,12.47625 -15.70375,17.53375 7.85125,5.06375 13.4375,11.255 16.74875,18.585 3.49125,7.1525 5.23375,14.565 5.23375,22.245 0,8.72125 -1.48,16.5725 -4.44875,23.55 -2.7875,6.9825 -6.80125,12.99875 -12.035,18.0625 -5.05875,4.8825 -11.08,8.72 -18.0625,11.5125 -6.80125,2.6175 -14.13,3.92625 -21.9825,3.92625 -6.27875,0 -12.3875,-1.045 -18.32,-3.14 -5.75625,-2.09375 -10.99125,-5.14625 -15.6975,-9.16 -4.7125,-4.01375 -8.72625,-8.98375 -12.04125,-14.91625 -3.31625,-5.9325 -5.58125,-12.8275 -6.8025,-20.67375 h 26.69 c 2.44625,6.455 5.76125,11.60125 9.94625,15.43875 4.18875,3.8375 10.1225,5.7575 17.7975,5.7575 3.6625,0 7.15375,-0.69875 10.46875,-2.095 3.48625,-1.39625 6.54375,-3.315 9.16,-5.7575 2.6175,-2.61625 4.7075,-5.75625 6.28,-9.41875 1.5725,-3.66625 2.35375,-7.76875 2.35375,-12.305 0,-9.41875 -2.87625,-16.66 -8.63375,-21.71875 -5.585,-5.23375 -12.3,-7.85125 -20.15125,-7.85125 h -11.255 z" /></svg>
