<?xml version="1.0" encoding="UTF-8" standalone="no"?>
<svg
   xmlns:dc="http://purl.org/dc/elements/1.1/"
   xmlns:cc="http://creativecommons.org/ns#"
   xmlns:rdf="http://www.w3.org/1999/02/22-rdf-syntax-ns#"
   xmlns:svg="http://www.w3.org/2000/svg"
   xmlns="http://www.w3.org/2000/svg"
   viewBox="0 0 1173.5349 1055.9858"
   height="1055.9858"
   width="1173.5349"
   xml:space="preserve"
   id="svg4784"
   version="1.1"><metadata
     id="metadata4790"><rdf:RDF><cc:Work
         rdf:about=""><dc:format>image/svg+xml</dc:format><dc:type
           rdf:resource="http://purl.org/dc/dcmitype/StillImage" /><dc:title></dc:title></cc:Work></rdf:RDF></metadata><defs
     id="defs4788"><clipPath
       id="clipPath4804"
       clipPathUnits="userSpaceOnUse"><path
         id="path4802"
         d="M 0,0 H 881 V 792 H 0 Z" /></clipPath></defs><g
     transform="matrix(1.3333333,0,0,1.3333333,0,6.7732977e-5)"
     id="g4792"><g
       id="g4794"><g
         id="g4796"><g
           id="g4798"><g
             clip-path="url(#clipPath4804)"
             id="g4800"><g
               id="g4806"><path
                 id="path4808"
                 style="fill:#f0c900;fill-opacity:1;fill-rule:evenodd;stroke:none"
                 d="M 22.469,791.988 C 10.051,791.988 0,781.918 0,769.52 V 615.25 c 0,-12.398 10.051,-22.469 22.469,-22.469 h 835.004 c 12.398,0 22.468,10.071 22.468,22.469 v 154.27 c 0,12.398 -10.07,22.468 -22.468,22.468 z" /></g></g></g></g><path
         id="path4810"
         style="fill:#231f20;fill-opacity:1;fill-rule:evenodd;stroke:none"
         d="m 22.07,785.047 c -8.273,0 -14.988,-6.715 -14.988,-14.988 V 614.555 c 0,-8.274 6.715,-14.985 14.988,-14.985 h 836.25 c 8.274,0 14.969,6.711 14.969,14.985 v 155.504 c 0,8.273 -6.695,14.988 -14.969,14.988 z" /><path
         id="path4812"
         style="fill:#f0c900;fill-opacity:1;fill-rule:evenodd;stroke:none"
         d="m 21.797,774.184 c -2.074,0 -3.762,-1.68 -3.754,-3.75 V 610.59 h 844.301 v 159.844 c 0,2.07 -1.676,3.75 -3.75,3.75 z" /><path
         id="path4814"
         style="fill:#231f20;fill-opacity:1;fill-rule:evenodd;stroke:none"
         d="m 726.383,692.387 v -9.438 h 61.347 l -37.75,-37.754 h 23.594 l 47.192,47.192 -47.192,47.191 H 749.98 l 37.75,-37.754 h -61.347 z" /><path
         id="path4816"
         style="fill:#231f20;fill-opacity:1;fill-rule:evenodd;stroke:none"
         d="m 358.441,714.59 4.7,-4.719 c 2.625,2.606 6.179,4.067 9.89,4.067 1.68,0 3.34,-0.297 4.918,-0.891 1.305,-0.492 2.172,-1.734 2.172,-3.117 0,-1.758 -1.383,-3.219 -3.141,-3.34 l -7.066,-0.434 c -5.273,-0.316 -9.398,-4.699 -9.398,-9.968 0,-4.641 3.179,-8.649 7.679,-9.735 1.578,-0.394 3.2,-0.574 4.836,-0.574 4.68,0 9.242,1.578 12.914,4.523 l -4.164,5.211 c -2.488,-1.996 -5.57,-3.058 -8.75,-3.058 -1.105,0 -2.211,0.117 -3.277,0.375 -1.5,0.375 -2.566,1.695 -2.566,3.258 0,1.734 1.382,3.218 3.121,3.316 l 7.089,0.453 c 5.27,0.316 9.379,4.699 9.379,9.973 0,4.164 -2.589,7.898 -6.476,9.359 -2.332,0.867 -4.801,1.32 -7.27,1.32 -5.468,0 -10.718,-2.152 -14.59,-6.019 l 49.184,5.348 h -4.164 c -4.148,0 -7.504,-3.356 -7.504,-7.5 V 692 h -3.336 v -5.41 h 3.336 v -10.012 h 6.652 v 10.012 h 5.016 V 692 h -5.016 v 19.586 c 0,1.168 0.95,2.094 2.094,2.094 h 2.922 v 6.258 z m -8.332,5.348 h -6.675 v -3.77 c -2.133,2.645 -5.348,4.187 -8.746,4.187 -6.219,0 -11.254,-5.035 -11.254,-11.257 V 686.59 h 6.652 v 20.418 c 0,3.691 3.004,6.672 6.676,6.672 3.691,0 6.672,-2.981 6.672,-6.672 V 686.59 h 6.675 z m -33.351,0 h -4.164 c -4.149,0 -7.504,-3.356 -7.504,-7.5 v -39.176 h 6.676 v 38.324 c 0,1.168 0.925,2.094 2.07,2.094 h 2.922 z m -47.504,-5.348 4.699,-4.719 c 2.625,2.606 6.18,4.067 9.871,4.067 1.68,0 3.356,-0.297 4.938,-0.891 1.301,-0.492 2.152,-1.734 2.152,-3.117 0,-1.758 -1.363,-3.219 -3.121,-3.34 l -7.09,-0.434 c -5.269,-0.316 -9.379,-4.699 -9.379,-9.968 0,-4.641 3.18,-8.649 7.684,-9.735 1.578,-0.394 3.199,-0.574 4.816,-0.574 4.699,0 9.262,1.578 12.934,4.523 l -4.168,5.211 c -2.488,-1.996 -5.586,-3.058 -8.766,-3.058 -1.105,0 -2.191,0.117 -3.277,0.375 -1.481,0.375 -2.547,1.695 -2.547,3.258 0,1.734 1.363,3.218 3.121,3.316 l 7.086,0.453 c 5.273,0.316 9.379,4.699 9.379,9.973 0,4.164 -2.586,7.898 -6.496,9.359 -2.309,0.867 -4.777,1.32 -7.266,1.32 -5.449,0 -10.703,-2.152 -14.57,-6.019 m -15.008,-7.582 v -7.504 c 0,-3.672 -2.98,-6.656 -6.672,-6.656 -3.695,0 -6.676,2.984 -6.676,6.656 v 7.504 c 0,3.691 2.981,6.672 6.676,6.672 3.692,0 6.672,-2.981 6.672,-6.672 m 6.656,-20.418 v 33.765 c 0,5.055 -2.843,9.672 -7.367,11.926 -2.113,1.067 -4.441,1.598 -6.793,1.598 -4.578,0 -8.926,-2.055 -11.808,-5.606 l 5.175,-4.207 c 1.618,1.993 4.067,3.141 6.633,3.141 1.324,0 2.629,-0.297 3.813,-0.891 2.25,-1.144 3.691,-3.433 3.691,-5.961 v -4.187 c -2.152,2.645 -5.371,4.187 -8.766,4.187 -6.199,0 -11.253,-5.035 -11.253,-11.257 V 697.43 c 0,-6.219 5.054,-11.254 11.253,-11.254 3.395,0 6.614,1.539 8.766,4.183 v -3.769 z m -42.511,-13.328 h 6.672 v 6.676 h -6.672 z m 0,13.328 h 6.672 v 33.328 h -6.672 z m -43.758,33.348 -10.426,-33.348 h 7.09 l 6.258,23.34 7.484,-23.34 h 5.016 l 7.504,23.34 6.257,-23.34 h 7.071 l -10.407,33.348 h -5.843 l -7.09,-23.356 -7.09,23.356 z m -24.602,-12.93 v -7.504 c 0,-3.672 -2.98,-6.656 -6.652,-6.656 -3.695,0 -6.676,2.984 -6.676,6.656 v 7.504 c 0,3.691 2.981,6.672 6.676,6.672 3.672,0 6.652,-2.981 6.652,-6.672 m 6.676,12.93 h -6.676 v -3.77 c -2.133,2.645 -5.351,4.187 -8.746,4.187 -6.219,0 -11.254,-5.035 -11.254,-11.257 V 697.43 c 0,-6.219 5.035,-11.254 11.254,-11.254 3.395,0 6.613,1.539 8.746,4.183 v -17.097 h 6.676 z m -35.84,0 h -6.672 v -3.77 c -2.132,2.645 -5.351,4.187 -8.75,4.187 -6.218,0 -11.254,-5.035 -11.254,-11.257 V 686.59 h 6.657 v 20.418 c 0,3.691 3,6.672 6.672,6.672 3.691,0 6.675,-2.981 6.675,-6.672 V 686.59 h 6.672 z m -61.683,0 v -46.676 h 7.07 v 40.004 h 22.922 v 6.672 z" /><path
         id="path4818"
         style="fill:#231f20;fill-opacity:1;fill-rule:evenodd;stroke:none"
         d="m 605.418,716.738 h 80.344 c 2.687,0 4.859,-2.191 4.859,-4.875 v -38.937 c 0,-2.707 -2.172,-4.879 -4.859,-4.879 h -80.344 c -2.684,0 -4.875,2.172 -4.875,4.879 v 38.937 c 0,2.684 2.191,4.875 4.875,4.875 m 0,3.653 c -4.699,0 -8.527,-3.828 -8.527,-8.528 v -38.937 c 0,-4.723 3.828,-8.531 8.527,-8.531 h 80.344 c 4.699,0 8.511,3.808 8.511,8.531 v 38.937 c 0,4.7 -3.812,8.528 -8.511,8.528 z" /><path
         id="path4820"
         style="fill:#231f20;fill-opacity:1;fill-rule:evenodd;stroke:none"
         d="m 667.492,675.348 h 5.488 l -7.285,14.593 c 0.969,-0.394 1.977,-0.593 3.02,-0.593 4.367,0 7.898,3.535 7.898,7.898 v 2.746 c 0,5.391 -4.343,9.735 -9.734,9.735 -5.371,0 -9.734,-4.344 -9.734,-9.735 v -1.523 c 0,-1.5 0.355,-2.981 1.027,-4.324 l 9.32,-18.797 -5.469,23.121 v 1.523 c 0,2.684 2.172,4.875 4.856,4.875 2.707,0 4.879,-2.191 4.879,-4.875 v -1.523 c 0,-2.684 -2.172,-4.875 -4.879,-4.875 -2.684,0 -4.856,2.191 -4.856,4.875 z m -30.426,24.644 c 0,2.684 2.172,4.875 4.856,4.875 2.707,0 4.879,-2.191 4.879,-4.875 v -15.207 c 0,-2.703 -2.172,-4.875 -4.879,-4.875 -2.684,0 -4.856,2.172 -4.856,4.875 z m -4.878,0 v -15.207 c 0,-5.387 4.363,-9.734 9.734,-9.734 5.391,0 9.734,4.347 9.734,9.734 v 15.207 c 0,5.391 -4.343,9.735 -9.734,9.735 -5.371,0 -9.734,-4.344 -9.734,-9.735 M 614.555,684.176 V 679 l 4.859,-3.652 h 4.875 v 34.082 h -4.875 v -28.907 z" /><path
         id="path4822"
         style="fill:#231f20;fill-opacity:1;fill-rule:evenodd;stroke:none"
         d="m 507.797,720.383 v -34.078 h 4.875 v 21.285 l 9.418,-11.551 h 5.785 l -8.211,9.438 9.438,14.906 h -6.082 l -6.399,-11.254 -3.949,4.266 v 6.988 z" /><path
         id="path4824"
         style="fill:#231f20;fill-opacity:1;fill-rule:evenodd;stroke:none"
         d="m 533.359,720.383 v -24.344 h 4.875 v 2.742 c 1.559,-1.933 3.911,-3.039 6.379,-3.039 2.625,0 5.075,1.242 6.633,3.356 1.719,-2.133 4.324,-3.356 7.07,-3.356 5.036,0 9.122,4.086 9.122,9.121 v 15.52 h -4.856 v -14.906 c 0,-2.688 -2.191,-4.879 -4.879,-4.879 -2.683,0 -4.855,2.191 -4.855,4.879 v 14.906 h -4.879 v -14.906 c 0,-2.688 -2.192,-4.879 -4.875,-4.879 -2.688,0 -4.86,2.191 -4.86,4.879 v 14.906 z" /><path
         id="path4826"
         style="fill:#231f20;fill-opacity:1;fill-rule:evenodd;stroke:none"
         d="m 469.945,707.133 v -20.692 c 0,-7.304 5.926,-13.25 13.25,-13.25 7.305,0 13.25,5.946 13.25,13.25 v 20.692 c 0,7.328 -5.945,13.25 -13.25,13.25 -7.324,0 -13.25,-5.922 -13.25,-13.25 h 6.618 c 0,3.676 2.96,6.637 6.632,6.637 3.653,0 6.614,-2.961 6.614,-6.637 v -20.692 c 0,-3.652 -2.961,-6.613 -6.614,-6.613 -3.672,0 -6.632,2.961 -6.632,6.613 v 20.692 z m -34.769,12.836 v -6.199 l 18.441,-23.2 c 0.926,-1.187 1.422,-2.629 1.422,-4.129 0,-3.652 -2.961,-6.613 -6.613,-6.613 -3.656,0 -6.637,2.961 -6.637,6.613 h -6.613 c 0,-7.304 5.922,-13.25 13.25,-13.25 7.304,0 13.226,5.946 13.226,13.25 0,3.02 -1.007,5.922 -2.882,8.274 l -14.907,18.64 h 17.789 v 6.614 z" /><path
         id="path4828"
         style="fill:#f0c900;fill-opacity:1;fill-rule:evenodd;stroke:none"
         d="M 22.469,585.457 C 10.051,585.457 0,575.406 0,562.988 V 402.32 c 0,-12.418 10.051,-22.488 22.469,-22.488 h 835.004 c 12.398,0 22.468,10.07 22.468,22.488 v 160.668 c 0,12.418 -10.07,22.469 -22.468,22.469 z" /><path
         id="path4830"
         style="fill:#231f20;fill-opacity:1;fill-rule:evenodd;stroke:none"
         d="m 22.07,578.535 c -8.273,0 -14.988,-6.715 -14.988,-14.984 V 401.465 c 0,-8.274 6.715,-14.988 14.988,-14.988 h 836.25 c 8.274,0 14.969,6.714 14.969,14.988 v 162.086 c 0,8.269 -6.695,14.984 -14.969,14.984 z" /><path
         id="path4832"
         style="fill:#f0c900;fill-opacity:1;fill-rule:evenodd;stroke:none"
         d="M 18.043,397.473 H 862.344 V 567.688 H 18.043 Z" /><path
         id="path4834"
         style="fill:#231f20;fill-opacity:1;fill-rule:evenodd;stroke:none"
         d="m 153.77,481.316 v 9.438 H 92.422 l 37.75,37.754 h -23.594 l -47.191,-47.192 47.191,-47.191 h 23.594 l -37.75,37.754 h 61.348 z" /><path
         id="path4836"
         style="fill:#fcd205;fill-opacity:1;fill-rule:evenodd;stroke:none"
         d="m 197.121,511.746 c -6.043,0 -10.961,-4.898 -10.961,-10.961 v -38.957 c 0,-6.043 4.918,-10.937 10.961,-10.937 h 80.34 c 6.043,0 10.961,4.894 10.961,10.937 v 38.957 c 0,6.063 -4.918,10.961 -10.961,10.961 z" /><path
         id="path4838"
         style="fill:#231f20;fill-opacity:1;fill-rule:evenodd;stroke:none"
         d="m 197.121,505.656 h 80.34 c 2.687,0 4.859,-2.172 4.859,-4.879 V 461.84 c 0,-2.684 -2.172,-4.875 -4.859,-4.875 h -80.34 c -2.687,0 -4.879,2.191 -4.879,4.875 v 38.937 c 0,2.707 2.192,4.879 4.879,4.879 m 0,3.653 c -4.699,0 -8.531,-3.813 -8.531,-8.532 V 461.84 c 0,-4.699 3.832,-8.527 8.531,-8.527 h 80.34 c 4.699,0 8.512,3.828 8.512,8.527 v 38.937 c 0,4.719 -3.813,8.532 -8.512,8.532 z" /><path
         id="path4840"
         style="fill:#231f20;fill-opacity:1;fill-rule:evenodd;stroke:none"
         d="m 227.551,488.922 c 0,2.683 2.172,4.875 4.875,4.875 2.687,0 4.859,-2.192 4.859,-4.875 v -15.223 c 0,-2.687 -2.172,-4.859 -4.859,-4.859 -2.703,0 -4.875,2.172 -4.875,4.859 v 15.223 l 20.082,4.266 v -4.266 l 11.57,-24.664 h 5.469 l -11.551,24.367 h 8.824 v -9.734 h 4.86 v 9.734 h 2.742 v 4.563 h -2.742 v 5.171 h -4.86 v -5.171 h -14.312 z m -4.879,0 v -15.223 c 0,-5.371 4.367,-9.734 9.754,-9.734 5.371,0 9.734,4.363 9.734,9.734 v 15.223 c 0,5.371 -4.363,9.734 -9.734,9.734 -5.387,0 -9.754,-4.363 -9.754,-9.734 m -17.629,-15.836 v -5.152 l 4.855,-3.676 h 4.879 v 34.101 h -4.879 v -28.925 z" /><path
         id="path4842"
         style="fill:#231f20;fill-opacity:1;fill-rule:evenodd;stroke:none"
         d="m 485.668,463.68 c -2.844,3.433 -7.066,5.41 -11.512,5.41 -8.273,0 -14.984,-6.695 -14.984,-14.988 v -4.145 c 0,-8.273 6.711,-14.988 14.984,-14.988 4.446,0 8.668,1.976 11.512,5.41 l -5.113,4.246 c -1.598,-1.895 -3.93,-3 -6.399,-3 -4.597,0 -8.332,3.73 -8.332,8.332 v 4.145 c 0,4.601 3.735,8.332 8.332,8.332 2.469,0 4.801,-1.106 6.399,-3 l 5.113,4.246 6.656,4.996 v -46.602 h 6.672 v 29.125 l 12.895,-15.816 h 7.918 l -11.254,12.894 12.914,20.399 h -8.336 l -8.746,-15.403 -5.391,5.825 v 9.578 h -6.672 z m -54.813,-14.989 h 14.161 c 0,-3.89 -3.161,-7.066 -7.071,-7.066 -3.91,0 -7.09,3.176 -7.09,7.066 m 20.813,5.825 h -20.813 v 0.851 c 0,2.883 1.778,5.488 4.465,6.555 1.086,0.453 2.27,0.672 3.453,0.672 2.707,0 5.293,-1.184 7.071,-3.239 l 5.054,4.325 c -3.043,3.535 -7.464,5.566 -12.125,5.566 -2.031,0 -4.046,-0.394 -5.941,-1.144 -5.215,-2.075 -8.629,-7.129 -8.629,-12.735 v -6.676 c 0,-7.582 6.16,-13.722 13.742,-13.722 7.582,0 13.723,6.14 13.723,13.722 z m -55.762,1.265 c 0,3.672 2.985,6.653 6.657,6.653 3.671,0 6.652,-2.981 6.652,-6.653 v -7.504 c 0,-3.672 -2.981,-6.652 -6.652,-6.652 -3.672,0 -6.657,2.98 -6.657,6.652 z m -6.652,12.895 v -46.602 h 6.652 v 17.063 c 2.133,-2.629 5.352,-4.168 8.731,-4.168 6.218,0 11.254,5.035 11.254,11.234 v 11.652 c 0,6.2 -5.036,11.235 -11.254,11.235 -3.379,0 -6.598,-1.539 -8.731,-4.168 v 3.754 z M 369.27,422.074 h 6.656 v 6.656 h -6.656 z m -13.325,0 h 6.653 v 6.656 h -6.653 z m 23.317,46.602 h -6.653 v -3.754 c -2.132,2.629 -5.351,4.168 -8.75,4.168 -6.199,0 -11.234,-5.035 -11.234,-11.235 v -22.472 h 6.656 v 20.398 c 0,3.672 2.981,6.653 6.653,6.653 3.691,0 6.675,-2.981 6.675,-6.653 v -20.398 h 6.653 z m -61.606,0 v -46.602 h 7.09 v 39.946 h 22.883 v 6.656 z" /><path
         id="path4844"
         style="fill:#231f20;fill-opacity:1;fill-rule:evenodd;stroke:none"
         d="m 599.43,534.098 c -2.844,3.437 -7.067,5.41 -11.532,5.41 -8.273,0 -14.984,-6.692 -14.984,-14.985 v -4.148 c 0,-8.273 6.711,-14.988 14.984,-14.988 4.465,0 8.688,1.976 11.532,5.41 l -5.133,4.246 c -1.578,-1.895 -3.91,-3 -6.399,-3 -4.578,0 -8.312,3.73 -8.312,8.332 v 4.148 c 0,4.598 3.734,8.332 8.312,8.332 2.489,0 4.821,-1.105 6.399,-3.003 l 5.133,4.246 6.656,4.996 v -46.598 h 6.672 v 17.059 c 2.133,-2.625 5.332,-4.168 8.726,-4.168 6.204,0 11.239,5.035 11.239,11.238 v 22.469 h -6.657 v -20.399 c 0,-3.672 -2.98,-6.652 -6.652,-6.652 -3.695,0 -6.656,2.98 -6.656,6.652 v 20.399 h -6.672 z m -61.465,-0.336 4.699,-4.719 c 2.625,2.605 6.16,4.066 9.871,4.066 1.68,0 3.336,-0.293 4.918,-0.886 1.281,-0.493 2.152,-1.719 2.152,-3.121 0,-1.758 -1.363,-3.2 -3.121,-3.317 l -7.066,-0.433 c -5.273,-0.336 -9.359,-4.7 -9.359,-9.973 0,-4.621 3.156,-8.629 7.64,-9.715 1.578,-0.375 3.199,-0.57 4.836,-0.57 4.68,0 9.242,1.578 12.895,4.519 l -4.149,5.196 c -2.484,-1.977 -5.566,-3.063 -8.746,-3.063 -1.105,0 -2.211,0.141 -3.277,0.395 -1.5,0.355 -2.567,1.699 -2.567,3.238 0,1.758 1.383,3.199 3.141,3.316 l 7.066,0.438 c 5.254,0.336 9.36,4.699 9.36,9.969 0,4.168 -2.586,7.898 -6.477,9.359 -2.328,0.871 -4.777,1.305 -7.246,1.305 -5.469,0 -10.699,-2.153 -14.57,-6.004 m -8.313,5.332 h -6.675 v -3.75 c -2.133,2.625 -5.352,4.164 -8.727,4.164 -6.219,0 -11.254,-5.035 -11.254,-11.235 v -22.468 h 6.672 v 20.375 c 0,3.691 2.984,6.675 6.656,6.675 3.672,0 6.653,-2.984 6.653,-6.675 v -20.375 h 6.675 z M 473.871,526.18 c 0,3.691 2.981,6.675 6.652,6.675 3.676,0 6.676,-2.984 6.676,-6.675 v -7.485 c 0,-3.672 -3,-6.652 -6.676,-6.652 -3.671,0 -6.652,2.98 -6.652,6.652 z m -6.652,12.914 v -46.598 h 6.652 v 17.059 c 2.133,-2.625 5.352,-4.168 8.746,-4.168 6.199,0 11.235,5.035 11.235,11.238 v 11.648 c 0,6.2 -5.036,11.235 -11.235,11.235 -3.394,0 -6.613,-1.539 -8.746,-4.164 v 3.75 z m -29.953,-19.981 h 14.136 c 0,-3.89 -3.179,-7.07 -7.07,-7.07 -3.91,0 -7.066,3.18 -7.066,7.07 m 20.789,5.844 h -20.789 v 0.828 c 0,2.883 1.734,5.488 4.441,6.555 1.086,0.453 2.27,0.672 3.453,0.672 2.707,0 5.293,-1.184 7.07,-3.239 l 5.055,4.325 c -3.039,3.535 -7.465,5.57 -12.125,5.57 -2.031,0 -4.047,-0.375 -5.941,-1.148 -5.215,-2.071 -8.629,-7.125 -8.629,-12.735 v -6.672 c 0,-7.582 6.16,-13.726 13.742,-13.726 7.582,0 13.723,6.144 13.723,13.726 z m -43.282,1.223 v -7.485 c 0,-3.672 -2.98,-6.652 -6.652,-6.652 -3.672,0 -6.656,2.98 -6.656,6.652 v 7.485 c 0,3.691 2.984,6.675 6.656,6.675 3.672,0 6.652,-2.984 6.652,-6.675 m 6.657,12.914 h -6.657 v -3.75 c -2.132,2.625 -5.332,4.164 -8.726,4.164 -6.219,0 -11.234,-5.035 -11.234,-11.235 v -11.648 c 0,-6.203 5.015,-11.238 11.234,-11.238 3.394,0 6.594,1.543 8.726,4.168 v -17.059 h 6.657 z m -42.434,-14.571 h -9.578 c -2.309,0 -4.164,1.875 -4.164,4.165 0,2.289 1.855,4.167 4.164,4.167 h 5.41 c 2.293,0 4.168,-1.878 4.168,-4.167 z m 6.652,14.571 h -6.652 v -3.438 c -1.183,2.114 -3.418,3.438 -5.824,3.438 h -4.168 c -5.527,0 -9.988,-4.461 -9.988,-9.992 0,-5.508 4.461,-9.989 9.988,-9.989 h 9.992 v -3.32 c 0,-1.836 -1.324,-3.375 -3.101,-3.691 -1.184,-0.196 -2.368,-0.317 -3.575,-0.317 -1.183,0 -2.367,0.121 -3.55,0.317 -1.168,0.199 -2.172,0.949 -2.707,2.015 l -5.274,-4.148 c 1.602,-2.348 4.051,-3.949 6.832,-4.422 1.563,-0.277 3.141,-0.414 4.699,-0.414 1.582,0 3.16,0.137 4.723,0.414 4.973,0.867 8.605,5.191 8.605,10.246 z m -34.136,-25.809 v 9.578 c 0,9.2 -7.446,16.645 -16.645,16.645 -9.183,0 -16.648,-7.445 -16.648,-16.645 v -14.156 c 0,-9.184 7.465,-16.644 16.648,-16.644 8.074,0 14.985,5.785 16.406,13.742 h -7.285 c -1.265,-3.969 -4.957,-6.657 -9.121,-6.657 -5.273,0 -9.558,4.286 -9.558,9.559 v 14.156 c 0,5.293 4.285,9.578 9.558,9.578 5.289,0 9.574,-4.285 9.574,-9.578 v -2.922 h -9.574 v -6.656 z" /><path
         id="path4846"
         style="fill:#231f20;fill-opacity:1;fill-rule:evenodd;stroke:none"
         d="m 691.34,517.836 v -24.84 h 24.836 v 6.637 h -18.637 v 10.441 c 2.133,-1.676 4.758,-2.586 7.461,-2.586 6.617,0 12.008,5.371 12.008,12.008 v 7.027 c 0,7.325 -5.945,13.25 -13.25,13.25 -6.832,0 -12.559,-5.195 -13.192,-12.003 h 6.676 c 0.613,3.136 3.336,5.386 6.516,5.386 3.652,0 6.613,-2.98 6.613,-6.633 v -5.785 c 0,-3.652 -2.961,-6.633 -6.613,-6.633 -2.547,0 -4.856,1.461 -5.965,3.731 z M 666.559,505 v -7.027 l 6.632,-4.977 h 6.618 v 46.363 h -6.618 v -39.312 z" /><path
         id="path4848"
         style="fill:#231f20;fill-opacity:1;fill-rule:evenodd;stroke:none"
         d="m 690.508,462.895 v -20.696 c 0,-7.324 5.926,-13.246 13.25,-13.246 7.305,0 13.25,5.922 13.25,13.246 v 20.696 c 0,7.304 -5.945,13.246 -13.25,13.246 -7.324,0 -13.25,-5.942 -13.25,-13.246 h 6.637 c 0,3.652 2.941,6.613 6.613,6.613 3.652,0 6.613,-2.961 6.613,-6.613 v -20.696 c 0,-3.672 -2.961,-6.633 -6.613,-6.633 -3.672,0 -6.613,2.961 -6.613,6.633 v 20.696 z m -37.258,5.804 v -5.804 l 15.738,-33.528 h 7.442 l -15.715,33.11 h 12.004 V 449.23 h 6.613 v 13.247 h 3.734 v 6.222 h -3.734 v 7.028 h -6.613 v -7.028 z" /><path
         id="path4850"
         style="fill:#231f20;fill-opacity:1;fill-rule:evenodd;stroke:none"
         d="m 729.555,539.77 v -34.082 h 4.875 v 21.304 l 9.418,-11.57 h 5.785 l -8.215,9.437 9.441,14.911 h -6.101 l -6.379,-11.254 -3.949,4.261 v 6.993 z" /><path
         id="path4852"
         style="fill:#231f20;fill-opacity:1;fill-rule:evenodd;stroke:none"
         d="m 755.113,539.77 v -24.348 h 4.879 v 2.746 c 1.559,-1.914 3.891,-3.043 6.379,-3.043 2.625,0 5.074,1.246 6.613,3.359 1.739,-2.132 4.344,-3.359 7.071,-3.359 5.054,0 9.14,4.09 9.14,9.125 v 15.52 h -4.879 v -14.911 c 0,-2.683 -2.171,-4.875 -4.855,-4.875 -2.707,0 -4.879,2.192 -4.879,4.875 v 14.911 h -4.855 v -14.911 c 0,-2.683 -2.192,-4.875 -4.879,-4.875 -2.684,0 -4.856,2.192 -4.856,4.875 v 14.911 z" /><path
         id="path4854"
         style="fill:#231f20;fill-opacity:1;fill-rule:evenodd;stroke:none"
         d="m 729.555,476.133 v -34.078 h 4.875 v 21.304 l 9.418,-11.57 h 5.785 l -8.215,9.438 9.441,14.906 h -6.101 l -6.379,-11.254 -3.949,4.266 v 6.988 z" /><path
         id="path4856"
         style="fill:#231f20;fill-opacity:1;fill-rule:evenodd;stroke:none"
         d="m 755.113,476.133 v -24.344 h 4.879 v 2.742 c 1.559,-1.914 3.891,-3.039 6.379,-3.039 2.625,0 5.074,1.242 6.613,3.356 1.739,-2.133 4.344,-3.356 7.071,-3.356 5.054,0 9.14,4.086 9.14,9.121 v 15.52 h -4.879 v -14.906 c 0,-2.684 -2.171,-4.875 -4.855,-4.875 -2.707,0 -4.879,2.191 -4.879,4.875 v 14.906 h -4.855 v -14.906 c 0,-2.684 -2.192,-4.875 -4.879,-4.875 -2.684,0 -4.856,2.191 -4.856,4.875 v 14.906 z" /><path
         id="path4858"
         style="fill:#f0c900;fill-opacity:1;fill-rule:evenodd;stroke:none"
         d="m 22.68,372.512 c -12.422,0 -22.469,-10.071 -22.469,-22.469 V 22.488 C 0.211,10.07 10.258,0 22.68,0 h 835 c 12.402,0 22.472,10.07 22.472,22.488 v 327.555 c 0,12.398 -10.07,22.469 -22.472,22.469 z" /><path
         id="path4860"
         style="fill:#231f20;fill-opacity:1;fill-rule:evenodd;stroke:none"
         d="m 22.07,365.59 c -8.273,0 -14.988,-6.715 -14.988,-14.988 V 21.633 c 0,-8.274 6.715,-14.988 14.988,-14.988 h 836.25 c 8.274,0 14.969,7.566 14.969,15.839 v 328.118 c 0,8.273 -6.695,14.988 -14.969,14.988 z" /><path
         id="path4862"
         style="fill:#f0c900;fill-opacity:1;fill-rule:evenodd;stroke:none"
         d="M 18.043,354.563 V 21.633 c 0,-2.074 1.68,-3.75 3.754,-3.75 h 836.797 c 2.074,0 3.75,1.676 3.75,3.75 v 332.93 z" /><path
         id="path4864"
         style="fill:#231f20;fill-opacity:1;fill-rule:evenodd;stroke:none"
         d="m 105.969,231.281 h -9.442 v -61.347 l -37.75,37.75 V 184.09 l 47.192,-47.192 47.187,47.192 v 23.594 l -37.75,-37.75 v 61.347 z" /><path
         id="path4866"
         style="fill:#231f20;fill-opacity:1;fill-rule:evenodd;stroke:none"
         d="m 406.082,163.18 h 6.578 v 6.578 h -6.578 z m 0,6.597 16.469,39.508 v -32.933 h 6.574 v 3.73 c 2.113,-2.625 5.293,-4.125 8.648,-4.125 6.141,0 11.118,4.953 11.118,11.094 v 22.234 h -6.594 v -20.16 c 0,-3.652 -2.942,-6.594 -6.574,-6.594 -3.637,0 -6.598,2.942 -6.598,6.594 v 20.16 h -6.574 z m 0,6.575 h 6.578 v 32.933 h -6.578 z m -27.168,32.933 v -32.933 h 6.574 v 3.73 c 2.114,-2.625 5.293,-4.125 8.649,-4.125 2.547,0 5.015,0.867 6.992,2.469 l -4.66,5.765 c -1.227,-1.066 -2.766,-1.66 -4.387,-1.66 -3.633,0 -6.594,2.942 -6.594,6.594 v 20.16 z M 349.277,189.52 h 13.981 c 0,-3.848 -3.121,-6.989 -6.992,-6.989 -3.871,0 -6.989,3.141 -6.989,6.989 m 20.575,5.765 h -20.575 v 0.832 c 0,2.863 1.739,5.43 4.383,6.496 1.086,0.434 2.25,0.668 3.434,0.668 2.687,0 5.234,-1.183 6.992,-3.215 l 4.996,4.282 c -3.004,3.496 -7.387,5.511 -11.988,5.511 -2.012,0 -4.008,-0.375 -5.883,-1.125 -5.152,-2.074 -8.527,-7.07 -8.527,-12.617 v -6.597 c 0,-7.5 6.078,-13.563 13.582,-13.563 7.504,0 13.586,6.063 13.586,13.563 z m -67.926,14 -10.285,-32.933 h 6.988 l 6.18,23.062 7.406,-23.062 h 4.937 l 7.422,23.062 6.16,-23.062 h 7.012 l -10.289,32.933 h -5.766 l -7.007,-23.043 -6.993,23.043 z m -43.219,0 V 163.18 h 6.574 v 16.902 c 2.114,-2.625 5.293,-4.125 8.649,-4.125 6.14,0 11.117,4.953 11.117,11.094 v 22.234 h -6.578 v -20.16 c 0,-3.652 -2.961,-6.594 -6.594,-6.594 -3.633,0 -6.594,2.942 -6.594,6.594 v 20.16 z m -6.598,-4.937 c -2.8,3.398 -6.988,5.351 -11.39,5.351 -8.196,0 -14.828,-6.633 -14.828,-14.828 v -4.105 c 0,-8.196 6.632,-14.809 14.828,-14.809 4.402,0 8.59,1.953 11.39,5.328 l -5.054,4.227 c -1.559,-1.895 -3.887,-2.981 -6.336,-2.981 -4.543,0 -8.235,3.692 -8.235,8.235 v 4.105 c 0,4.563 3.692,8.234 8.235,8.234 2.449,0 4.777,-1.085 6.336,-2.96 z m -66.558,-0.985 4.519,-5.351 c 3.575,3.019 8.098,4.679 12.778,4.679 1.617,0 3.218,-0.199 4.797,-0.593 2.746,-0.692 4.679,-3.137 4.679,-5.981 0,-3.101 -2.308,-5.726 -5.371,-6.121 l -7.484,-0.988 c -6.555,-0.871 -11.449,-6.457 -11.449,-13.051 0,-6.676 4.972,-12.281 11.589,-13.094 1.086,-0.117 2.153,-0.195 3.239,-0.195 5.429,0 10.742,1.656 15.222,4.738 l -3.968,5.766 c -3.297,-2.289 -7.227,-3.496 -11.254,-3.496 -0.789,0 -1.602,0.039 -2.391,0.14 -3.098,0.375 -5.43,3 -5.43,6.141 0,3.078 2.289,5.707 5.371,6.121 l 7.465,0.985 c 6.555,0.871 11.45,6.437 11.45,13.054 0,6.039 -4.106,11.313 -9.969,12.774 -2.133,0.535 -4.305,0.808 -6.496,0.808 -6.34,0 -12.461,-2.25 -17.297,-6.336" /><path
         id="path4868"
         style="fill:#231f20;fill-opacity:1;fill-rule:evenodd;stroke:none"
         d="m 525.727,209.859 v -34.082 h 4.878 v 21.305 l 9.438,-11.57 h 5.766 l -8.215,9.437 9.437,14.91 h -6.082 l -6.394,-11.254 -3.95,4.262 v 6.992 z" /><path
         id="path4870"
         style="fill:#231f20;fill-opacity:1;fill-rule:evenodd;stroke:none"
         d="m 551.289,209.859 v -24.347 h 4.879 v 2.746 c 1.559,-1.938 3.906,-3.043 6.375,-3.043 2.625,0 5.074,1.246 6.637,3.34 1.715,-2.114 4.324,-3.34 7.066,-3.34 5.035,0 9.121,4.09 9.121,9.125 v 15.519 h -4.855 v -14.91 c 0,-2.683 -2.192,-4.875 -4.879,-4.875 -2.684,0 -4.856,2.192 -4.856,4.875 v 14.91 h -4.875 v -14.91 c 0,-2.683 -2.195,-4.875 -4.859,-4.875 -2.703,0 -4.875,2.192 -4.875,4.875 v 14.91 z" /><path
         id="path4872"
         style="fill:#231f20;fill-opacity:1;fill-rule:evenodd;stroke:none"
         d="m 485.793,187.723 v -25.055 h 25.055 v 6.691 h -18.797 v 10.547 c 2.152,-1.699 4.801,-2.629 7.523,-2.629 6.696,0 12.106,5.43 12.106,12.125 v 7.09 c 0,7.383 -5.985,13.367 -13.367,13.367 -6.895,0 -12.637,-5.254 -13.29,-12.105 h 6.731 c 0.613,3.141 3.359,5.43 6.559,5.43 3.691,0 6.691,-3 6.691,-6.692 v -5.847 c 0,-3.692 -3,-6.672 -6.691,-6.672 -2.547,0 -4.879,1.461 -6.004,3.75 z" /><path
         id="path4874"
         style="fill:#ffffff;fill-opacity:1;fill-rule:evenodd;stroke:none"
         d="m 185.551,237.027 h 220.676 v 87.629 H 185.551 Z" /><path
         id="path4876"
         style="fill:#231f20;fill-opacity:1;fill-rule:evenodd;stroke:none"
         d="M 386.004,289.637 H 365.25 v 0.828 c 0,2.883 1.738,5.488 4.422,6.555 1.105,0.437 2.273,0.671 3.457,0.671 2.703,0 5.293,-1.183 7.047,-3.238 l 5.035,4.324 c -3.02,3.516 -7.441,5.551 -12.082,5.551 -2.035,0 -4.027,-0.375 -5.922,-1.144 -5.195,-2.075 -8.609,-7.11 -8.609,-12.719 v -6.633 c 0,-7.582 6.14,-13.703 13.703,-13.703 7.562,0 13.703,6.121 13.703,13.703 v 5.805 l -20.754,-5.805 h 14.098 c 0,-3.91 -3.16,-7.07 -7.047,-7.07 -3.91,0 -7.051,3.16 -7.051,7.07 z m -63.125,8.804 4.699,-4.718 c 2.606,2.609 6.141,4.07 9.832,4.07 1.68,0 3.336,-0.297 4.918,-0.891 1.301,-0.492 2.149,-1.738 2.149,-3.121 0,-1.754 -1.36,-3.195 -3.118,-3.316 l -7.05,-0.434 c -5.25,-0.336 -9.34,-4.679 -9.34,-9.953 0,-4.598 3.14,-8.605 7.625,-9.672 1.597,-0.394 3.195,-0.574 4.816,-0.574 4.68,0 9.219,1.578 12.875,4.504 l -4.148,5.191 c -2.469,-1.976 -5.547,-3.062 -8.727,-3.062 -1.086,0 -2.191,0.14 -3.258,0.398 -1.5,0.356 -2.547,1.696 -2.547,3.215 0,1.758 1.364,3.219 3.118,3.32 l 7.05,0.454 c 5.254,0.316 9.34,4.679 9.34,9.929 0,4.168 -2.566,7.879 -6.457,9.34 -2.308,0.871 -4.758,1.305 -7.246,1.305 -5.43,0 -10.664,-2.153 -14.531,-5.985 m -34.043,0 4.68,-4.718 c 2.625,2.609 6.16,4.07 9.851,4.07 1.68,0 3.34,-0.297 4.899,-0.891 1.304,-0.492 2.152,-1.738 2.152,-3.121 0,-1.754 -1.363,-3.195 -3.102,-3.316 l -7.066,-0.434 c -5.254,-0.336 -9.34,-4.679 -9.34,-9.953 0,-4.598 3.16,-8.605 7.641,-9.672 1.578,-0.394 3.199,-0.574 4.816,-0.574 4.68,0 9.223,1.578 12.875,4.504 l -4.144,5.191 c -2.489,-1.976 -5.551,-3.062 -8.731,-3.062 -1.105,0 -2.191,0.14 -3.277,0.398 -1.481,0.356 -2.547,1.696 -2.547,3.215 0,1.758 1.383,3.219 3.121,3.32 l 7.07,0.454 c 5.25,0.316 9.336,4.679 9.336,9.929 0,4.168 -2.586,7.879 -6.453,9.34 -2.332,0.871 -4.781,1.305 -7.25,1.305 -5.449,0 -10.679,-2.153 -14.531,-5.985 M 261.43,283.832 h 14.117 c 0,-3.91 -3.156,-7.07 -7.067,-7.07 -3.89,0 -7.05,3.16 -7.05,7.07 m 20.754,5.805 H 261.43 v 0.828 c 0,2.883 1.758,5.488 4.441,6.555 1.09,0.437 2.274,0.671 3.438,0.671 2.726,0 5.293,-1.183 7.07,-3.238 l 5.035,4.324 c -3.023,3.516 -7.445,5.551 -12.105,5.551 -2.016,0 -4.028,-0.375 -5.903,-1.144 -5.215,-2.075 -8.629,-7.11 -8.629,-12.719 v -6.633 c 0,-7.582 6.141,-13.703 13.703,-13.703 7.583,0 13.704,6.121 13.704,13.703 z m -76.395,14.117 v -46.5 h 6.633 L 225.711,287.563 239,257.254 h 6.652 v 46.5 h -7.066 v -29.481 l -9.973,22.848 h -5.804 l -9.973,-22.848 v 29.481 z" /><path
         id="path4878"
         style="fill:#154889;fill-opacity:1;fill-rule:evenodd;stroke:none"
         d="m 185.551,47.789 h 413.445 v 87.629 H 185.551 Z" /><path
         id="path4880"
         style="fill:#ffffff;fill-opacity:1;fill-rule:evenodd;stroke:none"
         d="M 227.965,117.883 V 65.348 c 0,-2.774 2.238,-5.012 5.012,-5.012 h 95.066 c 2.77,0 5.012,2.238 5.012,5.012 v 52.535 c 0,2.769 -2.242,5.008 -5.012,5.008 h -95.066 c -2.774,0 -5.012,-2.239 -5.012,-5.008" /><path
         id="path4882"
         style="fill:#154889;fill-opacity:1;fill-rule:evenodd;stroke:none"
         d="M 231.719,110.734 V 72.496 c 0,-1.234 0.906,-2.301 2.117,-2.484 l 45.117,-7.047 c 0.516,-0.082 1.027,-0.121 1.563,-0.121 0.511,0 1.027,0.039 1.539,0.121 l 45.121,7.047 c 1.23,0.183 2.113,1.25 2.113,2.484 v 38.238 c 0,1.235 -0.883,2.282 -2.113,2.465 l -45.121,7.067 c -0.512,0.082 -1.028,0.121 -1.539,0.121 -0.536,0 -1.047,-0.039 -1.563,-0.121 l -45.117,-7.067 c -1.211,-0.183 -2.117,-1.23 -2.117,-2.465" /><path
         id="path4884"
         style="fill:#ffffff;fill-opacity:1;fill-rule:evenodd;stroke:none"
         d="m 274.199,104.074 v -4.418 l 11.992,-25.547 h 5.668 l -11.992,25.239 h 9.16 V 89.246 h 5.051 v 10.102 h 2.836 v 4.726 h -2.836 v 5.36 h -5.051 v -5.36 h -14.828 l 29.02,-20.824 v -5.363 l 5.051,-3.778 h 5.05 v 35.325 h -5.05 V 79.469 l -5.051,3.781 z m -26.511,5.36 v -4.723 l 14.066,-17.684 c 0.699,-0.902 1.09,-2.011 1.09,-3.14 0,-2.793 -2.262,-5.055 -5.055,-5.055 -2.793,0 -5.051,2.262 -5.051,5.055 h -5.05 c 0,-5.567 4.535,-10.106 10.101,-10.106 5.586,0 10.106,4.539 10.106,10.106 0,2.277 -0.782,4.515 -2.219,6.304 l -11.356,14.211 h 13.575 v 5.032 z" /><path
         id="path4886"
         style="fill:#ffffff;fill-opacity:1;fill-rule:evenodd;stroke:none"
         d="m 425.563,78.266 21.421,-25.219 h 10.922 l -2.379,25.219 h -29.964 42.019 L 465.18,53.047 h 10.922 l 21.421,25.219 z m -38.649,10.39 v -4.457 h -20.023 v -2.976 h 189.304 v 2.976 h -20.023 v 4.457 H 517.977 V 84.199 H 405.129 v 4.457 z m 85.555,41.524 -3.922,-41.524 h 37.808 l 35.282,41.524 z m -91.02,0 35.305,-41.524 h 37.785 l -3.902,41.524 z" /></g></g></svg>