<?xml version="1.0" encoding="UTF-8" standalone="no"?>
<svg
   xmlns:dc="http://purl.org/dc/elements/1.1/"
   xmlns:cc="http://creativecommons.org/ns#"
   xmlns:rdf="http://www.w3.org/1999/02/22-rdf-syntax-ns#"
   xmlns:svg="http://www.w3.org/2000/svg"
   xmlns="http://www.w3.org/2000/svg"
   viewBox="0 0 1750.9999 1576.0007"
   height="1576.0007"
   width="1750.9999"
   xml:space="preserve"
   version="1.1"
   id="svg7768"><metadata
     id="metadata7774"><rdf:RDF><cc:Work
         rdf:about=""><dc:format>image/svg+xml</dc:format><dc:type
           rdf:resource="http://purl.org/dc/dcmitype/StillImage" /><dc:title></dc:title></cc:Work></rdf:RDF></metadata><defs
     id="defs7772" /><g
     transform="matrix(1.25,0,0,-1.25,0,1576.0007)"
     id="g7776"><g
       id="g7778"><path
         id="path7780"
         style="fill:#ffffff;fill-opacity:1;fill-rule:nonzero;stroke:none"
         d="m 48.398,1260.402 c -26.507,0 -48,-21.492 -48,-48 l 0,-303.203 c 0,-26.508 21.493,-48 48,-48 l 1300,0 c 26.512,0 48,21.492 48,48 l 0,303.203 c 0,26.508 -21.488,48 -48,48 l -1300,0 z" /><path
         id="path7782"
         style="fill:#154889;fill-opacity:1;fill-rule:nonzero;stroke:none"
         d="m 48.398,1236.402 c -13.253,0 -24,-10.746 -24,-24 l 0,-303.203 c 0,-13.254 10.747,-24 24,-24 l 1300,0 c 13.258,0 24,10.746 24,24 l 0,303.203 c 0,13.254 -10.742,24 -24,24 l -1300,0 z" /><path
         id="path7784"
         style="fill:#ffffff;fill-opacity:1;fill-rule:nonzero;stroke:none"
         d="m 56.398,829.801 c -30.925,0 -56,-25.071 -56,-56 l 0,-288 c 0,-30.93 25.075,-56 56,-56 l 1288,0 c 30.93,0 56,25.07 56,56 l 0,288 c 0,30.929 -25.07,56 -56,56 l -1288,0 z" /><path
         id="path7786"
         style="fill:#000000;fill-opacity:1;fill-rule:nonzero;stroke:none"
         d="m 56.398,817.601 c -24.3,0 -44,-19.699 -44,-44 l 0,-288 c 0,-24.3 19.7,-44 44,-44 l 1288,0 c 24.301,0 44,19.7 44,44 l 0,288 c 0,24.301 -19.699,44 -44,44 l -1288,0 z" /><path
         id="path7788"
         style="fill:#ffffff;fill-opacity:1;fill-rule:nonzero;stroke:none"
         d="m 56.398,797.601 c -13.253,0 -24,-10.746 -24,-24 l 0,-288 c 0,-13.254 10.747,-24 24.004,-24 l 1287.996,0 c 13.254,0 24,10.746 24,24 l 0,288 c 0,13.254 -10.746,24 -24,24 l -1288,0 z" /><path
         id="path7790"
         style="fill:#000000;fill-opacity:1;fill-rule:nonzero;stroke:none"
         d="M 56.398,830.199 C 25.258,830.199 0,804.945 0,773.801 l 0,-288 c 0,-31.145 25.258,-56.403 56.398,-56.403 l 1288,0 c 31.145,0 56.403,25.258 56.403,56.403 l 0,288 c 0,31.144 -25.258,56.398 -56.403,56.398 l -1288,0 z m 0,-0.398 1288,0 c 30.93,0 56,-25.075 56,-56 l 0,-288 c 0,-30.93 -25.07,-56 -56,-56 l -1288,0 c -30.925,0 -56,25.07 -56,56 l 0,288 c 0,30.925 25.075,56 56,56 z" /><path
         id="path7792"
         style="fill:#f0c900;fill-opacity:1;fill-rule:nonzero;stroke:none"
         d="m 56.398,400 c -30.925,0 -56,-25.071 -56,-56 l 0,-288 c 0,-30.926 25.075,-56 56,-56 l 1288,0 c 30.93,0 56,25.074 56,56 l 0,288 c 0,30.929 -25.07,56 -56,56 l -1288,0 z" /><path
         id="path7794"
         style="fill:#000000;fill-opacity:1;fill-rule:nonzero;stroke:none"
         d="m 56.398,388 c -24.3,0 -44,-19.699 -44,-44 l 0,-288 c 0,-24.301 19.7,-44 44,-44 l 1288,0 c 24.301,0 44,19.699 44,44 l 0,288 c 0,24.301 -19.699,44 -44,44 l -1288,0 z" /><path
         id="path7796"
         style="fill:#f0c900;fill-opacity:1;fill-rule:nonzero;stroke:none"
         d="m 56.398,368 c -13.253,0 -24,-10.86 -24,-24.114 l 0,-287.773 C 32.398,42.859 43.148,32 56.402,32 l 1287.996,0 c 13.254,0 24,10.859 24,24.113 l 0,287.773 c 0,13.254 -10.746,24.114 -24,24.114 l -1288,0 z" /><path
         id="path7798"
         style="fill:#000000;fill-opacity:1;fill-rule:nonzero;stroke:none"
         d="m 370.438,574.734 16.847,0 0,69.262 0.309,0 23.242,-53.348 14.039,0 23.246,53.348 0.309,0 0,-69.262 16.847,0 0,111.067 -15.91,0 -31.199,-72.379 -31.82,72.379 -15.91,0 0,-111.067 z" /><path
         id="path7800"
         style="fill:#000000;fill-opacity:1;fill-rule:nonzero;stroke:none"
         d="m 543.746,608.273 0,13.102 c 0,4.992 -0.883,9.515 -2.652,13.574 -1.664,4.16 -4.004,7.695 -7.02,10.605 -3.015,3.016 -6.5,5.305 -10.449,6.864 -3.953,1.562 -8.113,2.34 -12.48,2.34 -4.055,0 -8.008,-0.727 -11.856,-2.184 -3.848,-1.457 -7.332,-3.797 -10.449,-7.02 -3.121,-3.121 -5.617,-7.332 -7.488,-12.632 -1.872,-5.305 -2.809,-11.598 -2.809,-18.875 0,-7.801 0.988,-14.352 2.965,-19.657 2.078,-5.199 4.781,-9.308 8.109,-12.324 3.434,-3.015 7.176,-5.144 11.235,-6.394 4.156,-1.246 8.421,-1.871 12.789,-1.871 5.511,0 10.711,1.039 15.597,3.121 4.891,2.078 9.203,5.3 12.95,9.668 l -11.543,9.828 c -2.29,-2.391 -4.993,-4.262 -8.114,-5.614 -3.015,-1.355 -6.082,-2.031 -9.203,-2.031 -5.613,0 -10.191,1.664 -13.726,4.992 -3.43,3.434 -5.149,8.27 -5.149,14.508 l 49.293,0 z m -49.293,13.102 c 0.211,5.824 1.82,10.347 4.836,13.574 3.121,3.223 7.074,4.836 11.856,4.836 4.785,0 8.683,-1.613 11.699,-4.836 3.121,-3.227 4.785,-7.75 4.992,-13.574 l -33.383,0 z" /><path
         id="path7802"
         style="fill:#000000;fill-opacity:1;fill-rule:nonzero;stroke:none"
         d="m 550.102,587.996 c 10.089,-9.465 21.683,-14.195 34.785,-14.195 9.465,0 17.265,2.183 23.398,6.55 6.242,4.368 9.36,10.297 9.36,17.782 0,6.761 -1.872,12.273 -5.614,16.535 -3.746,4.265 -9.515,6.656 -17.316,7.176 l -13.102,0.937 c -3.746,0.313 -6.449,1.145 -8.113,2.496 -1.559,1.352 -2.34,3.016 -2.34,4.992 0,2.91 1.039,5.2 3.121,6.864 2.184,1.765 5.668,2.652 10.449,2.652 4.059,0 7.75,-0.625 11.079,-1.875 3.324,-1.246 6.707,-3.066 10.136,-5.457 l 9.828,11.543 c -4.16,3.535 -8.734,6.187 -13.726,7.953 -4.992,1.875 -10.762,2.809 -17.317,2.809 -8.628,0 -15.703,-2.133 -21.214,-6.395 -5.512,-4.16 -8.266,-10.141 -8.266,-17.937 0,-6.555 2.078,-11.805 6.238,-15.758 4.266,-3.949 9.778,-6.188 16.535,-6.707 l 14.04,-1.246 c 3.015,-0.207 5.355,-0.938 7.019,-2.184 1.77,-1.145 2.652,-3.016 2.652,-5.617 0,-3.223 -1.457,-5.719 -4.367,-7.488 -2.808,-1.766 -6.551,-2.653 -11.23,-2.653 -5.199,0 -9.778,0.832 -13.727,2.496 -3.953,1.664 -7.695,4.215 -11.234,7.645 l -11.074,-10.918 z" /><path
         id="path7804"
         style="fill:#000000;fill-opacity:1;fill-rule:nonzero;stroke:none"
         d="m 623.449,587.996 c 10.09,-9.465 21.684,-14.195 34.785,-14.195 9.465,0 17.266,2.183 23.399,6.55 6.242,4.368 9.359,10.297 9.359,17.782 0,6.761 -1.871,12.273 -5.613,16.535 -3.746,4.265 -9.516,6.656 -17.316,7.176 l -13.102,0.937 c -3.746,0.313 -6.449,1.145 -8.113,2.496 -1.559,1.352 -2.34,3.016 -2.34,4.992 0,2.91 1.039,5.2 3.121,6.864 2.184,1.765 5.668,2.652 10.449,2.652 4.059,0 7.75,-0.625 11.078,-1.875 3.328,-1.246 6.707,-3.066 10.137,-5.457 l 9.828,11.543 c -4.16,3.535 -8.734,6.187 -13.726,7.953 -4.993,1.875 -10.762,2.809 -17.317,2.809 -8.629,0 -15.703,-2.133 -21.215,-6.395 -5.511,-4.16 -8.265,-10.141 -8.265,-17.937 0,-6.555 2.078,-11.805 6.238,-15.758 4.266,-3.949 9.777,-6.188 16.535,-6.707 l 14.039,-1.246 c 3.016,-0.207 5.356,-0.938 7.02,-2.184 1.769,-1.145 2.652,-3.016 2.652,-5.617 0,-3.223 -1.457,-5.719 -4.367,-7.488 -2.809,-1.766 -6.551,-2.653 -11.231,-2.653 -5.199,0 -9.777,0.832 -13.726,2.496 -3.953,1.664 -7.695,4.215 -11.235,7.645 l -11.074,-10.918 z" /><path
         id="path7806"
         style="fill:#000000;fill-opacity:1;fill-rule:nonzero;stroke:none"
         d="m 765.238,608.273 0,13.102 c 0,4.992 -0.886,9.515 -2.652,13.574 -1.664,4.16 -4.004,7.695 -7.02,10.605 -3.015,3.016 -6.5,5.305 -10.453,6.864 -3.949,1.562 -8.109,2.34 -12.476,2.34 -4.059,0 -8.008,-0.727 -11.856,-2.184 -3.847,-1.457 -7.332,-3.797 -10.453,-7.02 -3.121,-3.121 -5.613,-7.332 -7.488,-12.632 -1.871,-5.305 -2.805,-11.598 -2.805,-18.875 0,-7.801 0.985,-14.352 2.961,-19.657 2.082,-5.199 4.785,-9.308 8.113,-12.324 3.43,-3.015 7.176,-5.144 11.231,-6.394 4.16,-1.246 8.422,-1.871 12.793,-1.871 5.508,0 10.711,1.039 15.597,3.121 4.887,2.078 9.204,5.3 12.946,9.668 l -11.543,9.828 c -2.285,-2.391 -4.992,-4.262 -8.11,-5.614 -3.015,-1.355 -6.085,-2.031 -9.203,-2.031 -5.617,0 -10.191,1.664 -13.726,4.992 -3.434,3.434 -5.149,8.27 -5.149,14.508 l 49.293,0 z m -49.293,13.102 c 0.207,5.824 1.821,10.347 4.836,13.574 3.117,3.223 7.071,4.836 11.856,4.836 4.781,0 8.683,-1.613 11.699,-4.836 3.117,-3.227 4.781,-7.75 4.988,-13.574 l -33.379,0 z" /><path
         id="path7808"
         style="fill:#000000;fill-opacity:1;fill-rule:nonzero;stroke:none"
         d="m 194.707,521.801 -23.16,0 0,134.804 -92.707,-92.804 0,58 115.867,116 115.898,-116 0,-58 -92.707,92.804 0,-134.804" /><path
         id="path7810"
         style="fill:#ffffff;fill-opacity:1;fill-rule:nonzero;stroke:none"
         d="m 194.707,952.801 -23.16,0 0,134.804 -92.707,-92.804 0,58 115.867,116 115.898,-116 0,-58 -92.707,92.804 0,-134.804" /><path
         id="path7812"
         style="fill:#ffffff;fill-opacity:1;fill-rule:evenodd;stroke:none"
         d="m 753.746,1148.801 -10.121,0 2.215,-57.54 27.801,0 -19.895,57.54 z m -16.894,0 -10.145,0 -19.883,-57.54 27.832,0 2.196,57.54 z m 91.296,-64.309 -175.824,0 0,-6.777 18.571,0 0,-10.145 16.945,0 0,10.145 104.793,0 0,-10.145 16.918,0 0,10.145 18.597,0 0,6.777 z m -46.289,-16.922 -35.125,0 3.633,-94.769 64.266,0 -32.774,94.769 z m -48.144,0 -35.078,0 -32.774,-94.769 64.242,0 3.61,94.769 z" /><path
         id="path7814"
         style="fill:#ffffff;fill-opacity:1;fill-rule:nonzero;stroke:none"
         d="m 381.926,1129.738 c -6.344,0 -11.488,-5.144 -11.488,-11.488 l 0,-114.899 c 0,-6.347 5.144,-11.488 11.488,-11.488 l 206.812,0 c 6.348,0 11.492,5.141 11.492,11.488 l 0,114.899 c 0,6.344 -5.144,11.488 -11.492,11.488 l -206.812,0 z m 103.406,-5.422 c 13.313,-0.023 100.688,-15.551 100.688,-15.551 3.722,-0.546 6.496,-3.718 6.546,-7.48 l 0.004,0 0,-80.641 -0.004,0 c -0.05,-3.761 -2.824,-6.929 -6.546,-7.476 0,0 -87.375,-15.528 -100.688,-15.551 -13.793,-0.07 -100.687,15.551 -100.687,15.551 -3.719,0.547 -6.497,3.715 -6.543,7.476 l -0.004,0 0,80.641 0.004,0 c 0.046,3.762 2.824,6.934 6.543,7.48 0,0 86.894,15.625 100.687,15.551 z" /><path
         id="path7816"
         style="fill:#ffffff;fill-opacity:1;fill-rule:nonzero;stroke:none"
         d="m 420.504,1022.801 42.973,0 0,10.796 -28.789,0 24.238,30.379 c 3.035,3.739 4.551,8.149 4.551,13.231 0,2.965 -0.563,5.75 -1.692,8.363 -1.058,2.609 -2.613,4.902 -4.656,6.879 -1.977,2.047 -4.305,3.598 -6.988,4.656 -2.68,1.129 -5.575,1.696 -8.68,1.696 -2.75,0 -5.398,-0.567 -7.938,-1.696 -2.543,-1.058 -4.8,-2.574 -6.773,-4.551 -1.906,-1.976 -3.426,-4.304 -4.555,-6.984 -1.129,-2.613 -1.691,-5.434 -1.691,-8.469 l 10.797,0 c 0.281,3.317 1.445,5.961 3.492,7.938 2.047,1.976 4.551,2.965 7.516,2.965 3.105,0 5.609,-1.094 7.515,-3.282 1.906,-2.117 2.856,-4.586 2.856,-7.41 0,-1.269 -0.211,-2.504 -0.633,-3.703 -0.352,-1.199 -1.059,-2.473 -2.117,-3.812 l -29.426,-36.836 0,-10.16 z" /><path
         id="path7818"
         style="fill:#ffffff;fill-opacity:1;fill-rule:nonzero;stroke:none"
         d="m 469.242,1034.019 31.438,0 0,-11.218 10.797,0 0,11.218 6.035,0 0,10.164 -6.035,0 0,21.7 -10.797,0 0,-21.7 -19.688,0 25.512,53.981 -12.066,0 -25.196,-53.981 0,-10.164 z" /><path
         id="path7820"
         style="fill:#ffffff;fill-opacity:1;fill-rule:nonzero;stroke:none"
         d="m 539.367,1022.801 10.797,0 0,75.363 -10.797,0 -10.691,-7.832 0,-11.43 10.691,7.832 0,-63.933 z" /><path
         id="path7822"
         style="fill:#000000;fill-opacity:1;fill-rule:nonzero;stroke:none"
         d="m 1075.523,199.613 0,23.164 134.805,0 -92.805,92.707 58,0 116,-115.871 -116,-115.894 -58,0 92.805,92.707 -134.805,0" /><path
         id="path7824"
         style="fill:#000000;fill-opacity:1;fill-rule:nonzero;stroke:none"
         d="m 118.957,149.484 70.977,0 0,15.91 -54.129,0 0,95.153 -16.848,0 0,-111.063 z" /><path
         id="path7826"
         style="fill:#000000;fill-opacity:1;fill-rule:nonzero;stroke:none"
         d="m 212.383,176 c 0,-4.262 0.726,-8.164 2.183,-11.699 1.563,-3.43 3.641,-6.344 6.243,-8.735 2.597,-2.289 5.457,-4.055 8.578,-5.305 3.222,-1.144 6.394,-1.714 9.515,-1.714 8.629,0 15.442,3.121 20.434,9.359 l 0.312,0 0,-8.422 15.911,0 0,79.086 -15.911,0 0,-47.109 c 0,-5.305 -1.457,-9.465 -4.367,-12.481 -2.914,-3.015 -6.656,-4.523 -11.23,-4.523 -4.578,0 -8.375,1.508 -11.391,4.523 -2.91,3.016 -4.367,7.176 -4.367,12.481 l 0,47.109 -15.91,0 0,-52.57 z" /><path
         id="path7828"
         style="fill:#000000;fill-opacity:1;fill-rule:nonzero;stroke:none"
         d="m 351.43,149.484 15.914,0 0,111.063 -15.914,0 0,-40.403 c -3.223,3.016 -6.5,5.305 -9.825,6.864 -3.226,1.664 -6.761,2.496 -10.609,2.496 -4.574,0 -8.683,-0.934 -12.324,-2.809 -3.535,-1.871 -6.5,-4.367 -8.891,-7.484 -1.144,-1.457 -2.078,-2.965 -2.808,-4.524 -0.621,-1.457 -1.141,-3.277 -1.559,-5.461 -0.414,-2.183 -0.726,-4.836 -0.937,-7.957 -0.207,-3.117 -0.309,-7.175 -0.309,-12.164 0,-4.992 0.102,-9.101 0.309,-12.324 0.211,-3.223 0.468,-5.875 0.781,-7.957 0.418,-2.078 0.988,-3.898 1.715,-5.457 0.73,-1.563 1.664,-3.07 2.808,-4.523 2.391,-3.122 5.356,-5.618 8.891,-7.489 3.641,-1.871 7.75,-2.808 12.324,-2.808 3.953,0 7.695,0.832 11.231,2.496 3.535,1.664 6.605,3.898 9.203,6.707 l 0,-8.266 z m -15.598,64.11 c 3.535,0 6.344,-0.727 8.422,-2.184 2.184,-1.352 3.746,-3.172 4.68,-5.461 1.043,-2.285 1.718,-4.781 2.031,-7.484 0.308,-2.602 0.465,-5.723 0.465,-9.36 0,-3.64 -0.157,-6.812 -0.465,-9.515 -0.313,-2.707 -0.988,-5.2 -2.031,-7.489 -0.934,-2.289 -2.496,-4.16 -4.68,-5.617 -2.078,-1.351 -4.887,-2.027 -8.422,-2.027 -3.535,0 -6.394,0.676 -8.578,2.027 -2.184,1.352 -3.797,3.121 -4.836,5.305 -0.938,2.289 -1.563,4.785 -1.871,7.488 -0.313,2.703 -0.469,5.981 -0.469,9.828 0,3.742 0.156,6.965 0.469,9.668 0.308,2.707 0.933,5.199 1.871,7.488 1.039,2.29 2.652,4.055 4.836,5.305 2.184,1.352 5.043,2.028 8.578,2.028 z" /><path
         id="path7830"
         style="fill:#000000;fill-opacity:1;fill-rule:nonzero;stroke:none"
         d="m 459.961,149.484 14.039,0 25.273,79.086 -16.847,0 -15.133,-55.379 -0.313,0 -17.937,55.379 -11.543,0 -17.937,-55.379 -0.313,0 -15.133,55.379 -16.844,0 25.27,-79.086 14.039,0 16.535,55.375 0.313,0 16.531,-55.375 z" /><path
         id="path7832"
         style="fill:#000000;fill-opacity:1;fill-rule:nonzero;stroke:none"
         d="m 519.203,149.484 15.91,0 0,79.086 -15.91,0 0,-79.086 z m 0,95.152 15.91,0 0,15.911 -15.91,0 0,-15.911 z" /><path
         id="path7834"
         style="fill:#000000;fill-opacity:1;fill-rule:nonzero;stroke:none"
         d="m 612.691,149.636 c 0,-5.406 -1.664,-9.617 -4.992,-12.632 -3.328,-3.016 -7.695,-4.524 -13.105,-4.524 -2.91,0 -5.668,0.676 -8.266,2.028 -2.601,1.246 -4.992,2.964 -7.176,5.148 l -12.324,-9.828 c 3.535,-4.055 7.75,-7.281 12.637,-9.672 4.887,-2.391 9.828,-3.586 14.816,-3.586 4.578,0 8.895,0.727 12.949,2.184 4.161,1.351 7.852,3.484 11.075,6.394 3.222,2.91 5.718,6.551 7.488,10.918 1.871,4.367 2.809,9.465 2.809,15.289 l 0,77.215 -15.911,0 0,-8.426 c -5.929,6.242 -12.742,9.36 -20.437,9.36 -4.68,0 -8.84,-0.934 -12.477,-2.809 -3.535,-1.871 -6.343,-4.156 -8.425,-6.863 -1.352,-1.766 -2.391,-3.274 -3.118,-4.524 -0.625,-1.246 -1.144,-2.91 -1.562,-4.992 -0.414,-2.078 -0.727,-4.781 -0.934,-8.109 -0.211,-3.223 -0.312,-7.645 -0.312,-13.258 0,-5.617 0.101,-10.09 0.312,-13.418 0.207,-3.223 0.52,-5.82 0.934,-7.797 0.418,-1.976 0.988,-3.64 1.719,-4.992 0.726,-1.352 1.714,-2.859 2.961,-4.523 2.082,-2.704 4.89,-4.993 8.425,-6.864 3.637,-1.871 7.797,-2.808 12.477,-2.808 3.953,0 7.695,0.832 11.234,2.496 3.535,1.664 6.602,3.898 9.203,6.707 l 0,-8.114 z m -31.355,39.313 c 0,6.551 0.156,10.812 0.469,12.789 0.414,2.082 1.3,4.004 2.652,5.773 1.352,1.665 3.066,3.067 5.145,4.211 2.082,1.247 4.578,1.872 7.488,1.872 2.808,0 5.254,-0.625 7.332,-1.872 2.082,-1.144 3.797,-2.546 5.148,-4.211 1.352,-1.769 2.184,-3.691 2.496,-5.773 0.414,-1.977 0.625,-6.238 0.625,-12.789 0,-6.449 -0.211,-10.711 -0.625,-12.793 -0.312,-1.977 -1.144,-3.848 -2.496,-5.617 -1.351,-1.66 -3.066,-3.117 -5.148,-4.367 -2.078,-1.141 -4.524,-1.715 -7.332,-1.715 -2.91,0 -5.406,0.574 -7.488,1.715 -2.079,1.25 -3.793,2.707 -5.145,4.367 -1.352,1.769 -2.238,3.64 -2.652,5.617 -0.313,2.082 -0.469,6.344 -0.469,12.793 z" /><path
         id="path7836"
         style="fill:#000000;fill-opacity:1;fill-rule:nonzero;stroke:none"
         d="m 649.313,162.742 c 10.089,-9.465 21.683,-14.195 34.785,-14.195 9.465,0 17.265,2.183 23.398,6.55 6.242,4.368 9.359,10.297 9.359,17.782 0,6.761 -1.871,12.273 -5.613,16.535 -3.746,4.265 -9.515,6.656 -17.316,7.176 l -13.102,0.937 c -3.746,0.313 -6.449,1.145 -8.113,2.496 -1.559,1.352 -2.34,3.016 -2.34,4.992 0,2.911 1.039,5.2 3.121,6.864 2.184,1.765 5.668,2.652 10.449,2.652 4.059,0 7.75,-0.625 11.079,-1.875 3.328,-1.246 6.707,-3.066 10.136,-5.457 l 9.828,11.543 c -4.16,3.535 -8.734,6.187 -13.726,7.953 -4.992,1.875 -10.762,2.809 -17.317,2.809 -8.628,0 -15.703,-2.133 -21.214,-6.395 -5.512,-4.16 -8.266,-10.14 -8.266,-17.937 0,-6.555 2.078,-11.805 6.238,-15.758 4.266,-3.949 9.778,-6.188 16.535,-6.707 l 14.039,-1.246 c 3.016,-0.207 5.356,-0.938 7.02,-2.184 1.77,-1.144 2.652,-3.016 2.652,-5.617 0,-3.223 -1.457,-5.719 -4.367,-7.488 -2.808,-1.766 -6.551,-2.653 -11.23,-2.653 -5.2,0 -9.778,0.832 -13.727,2.496 -3.953,1.664 -7.695,4.215 -11.234,7.645 l -11.074,-10.918 z" /><path
         id="path7838"
         style="fill:#000000;fill-opacity:1;fill-rule:nonzero;stroke:none"
         d="m 740.996,168.668 c 0,-6.657 1.82,-11.543 5.461,-14.66 3.641,-3.016 8.578,-4.524 14.816,-4.524 l 7.02,0 0,14.973 -5.457,0 c -3.953,0 -5.93,1.82 -5.93,5.461 l 0,90.629 -15.91,0 0,-91.879 z" /><path
         id="path7840"
         style="fill:#000000;fill-opacity:1;fill-rule:nonzero;stroke:none"
         d="m 789.211,176 c 0,-4.262 0.73,-8.164 2.184,-11.699 1.562,-3.43 3.64,-6.344 6.242,-8.735 2.597,-2.289 5.457,-4.055 8.578,-5.305 3.223,-1.144 6.394,-1.714 9.515,-1.714 8.633,0 15.442,3.121 20.434,9.359 l 0.313,0 0,-8.422 15.91,0 0,79.086 -15.91,0 0,-47.109 c 0,-5.305 -1.457,-9.465 -4.368,-12.481 -2.91,-3.015 -6.656,-4.523 -11.23,-4.523 -4.578,0 -8.371,1.508 -11.387,4.523 -2.914,3.016 -4.367,7.176 -4.367,12.481 l 0,47.109 -15.914,0 0,-52.57 z" /><path
         id="path7842"
         style="fill:#000000;fill-opacity:1;fill-rule:nonzero;stroke:none"
         d="m 873.285,162.742 c 10.086,-9.465 21.68,-14.195 34.785,-14.195 9.461,0 17.262,2.183 23.399,6.55 6.238,4.368 9.359,10.297 9.359,17.782 0,6.761 -1.871,12.273 -5.617,16.535 -3.742,4.265 -9.516,6.656 -17.313,7.176 l -13.105,0.937 c -3.742,0.313 -6.445,1.145 -8.109,2.496 -1.563,1.352 -2.34,3.016 -2.34,4.992 0,2.911 1.039,5.2 3.117,6.864 2.184,1.765 5.668,2.652 10.453,2.652 4.055,0 7.746,-0.625 11.074,-1.875 3.328,-1.246 6.707,-3.066 10.141,-5.457 l 9.828,11.543 c -4.16,3.535 -8.738,6.187 -13.73,7.953 -4.989,1.875 -10.762,2.809 -17.313,2.809 -8.633,0 -15.703,-2.133 -21.215,-6.395 -5.511,-4.16 -8.265,-10.14 -8.265,-17.937 0,-6.555 2.078,-11.805 6.238,-15.758 4.262,-3.949 9.773,-6.188 16.535,-6.707 l 14.039,-1.246 c 3.016,-0.207 5.356,-0.938 7.02,-2.184 1.765,-1.144 2.652,-3.016 2.652,-5.617 0,-3.223 -1.457,-5.719 -4.371,-7.488 -2.805,-1.766 -6.551,-2.653 -11.231,-2.653 -5.199,0 -9.773,0.832 -13.726,2.496 -3.949,1.664 -7.695,4.215 -11.231,7.645 l -11.074,-10.918 z" /><path
         id="path7844"
         style="fill:#000000;fill-opacity:1;fill-rule:nonzero;stroke:none"
         d="m 969.68,228.57 -7.957,0 0,-12.168 7.957,0 0,-47.422 c 0,-6.136 1.765,-10.918 5.304,-14.351 3.536,-3.43 8.161,-5.145 13.883,-5.145 l 8.266,0 0,14.973 -5.926,0 c -3.746,0 -5.617,1.976 -5.617,5.929 l 0,46.016 11.543,0 0,12.168 -11.543,0 0,24.02 -15.91,0 0,-24.02 z" /><path
         id="path7846"
         style="fill:#000000;fill-opacity:1;fill-rule:nonzero;stroke:none"
         d="M 48.398,1260.801 C 21.676,1260.801 0,1239.129 0,1212.402 L 0,909.199 c 0,-26.723 21.676,-48.398 48.398,-48.398 l 1300,0 c 26.727,0 48.403,21.675 48.403,48.398 l 0,303.203 c 0,26.727 -21.676,48.399 -48.403,48.399 l -1300,0 z m 0,-0.399 1300,0 c 26.512,0 48,-21.492 48,-48 l 0,-303.203 c 0,-26.508 -21.488,-48 -48,-48 l -1300,0 c -26.507,0 -48,21.492 -48,48 l 0,303.203 c 0,26.508 21.493,48 48,48 z" /></g></g></svg>