<?xml version="1.0" encoding="UTF-8" standalone="no"?>
<svg
   xmlns:dc="http://purl.org/dc/elements/1.1/"
   xmlns:cc="http://creativecommons.org/ns#"
   xmlns:rdf="http://www.w3.org/1999/02/22-rdf-syntax-ns#"
   xmlns:svg="http://www.w3.org/2000/svg"
   xmlns="http://www.w3.org/2000/svg"
   viewBox="0 0 968.83301 242.4361"
   height="242.4361"
   width="968.83301"
   xml:space="preserve"
   version="1.1"
   id="svg3452"><metadata
     id="metadata3458"><rdf:RDF><cc:Work
         rdf:about=""><dc:format>image/svg+xml</dc:format><dc:type
           rdf:resource="http://purl.org/dc/dcmitype/StillImage" /><dc:title></dc:title></cc:Work></rdf:RDF></metadata><defs
     id="defs3456"><clipPath
       id="clipPath3470"
       clipPathUnits="userSpaceOnUse"><path
         id="path3472"
         d="M 0,0 775,0 775,194 0,194 0,0 Z" /></clipPath></defs><g
     transform="matrix(1.25,0,0,-1.25,0,242.4361)"
     id="g3460"><g
       id="g3462"><g
         transform="translate(0,-0.0511169)"
         id="g3464"><g
           id="g3466"><g
             clip-path="url(#clipPath3470)"
             id="g3468"><g
               id="g3474"><path
                 id="path3476"
                 style="fill:#f0c900;fill-opacity:1;fill-rule:nonzero;stroke:none"
                 d="m 163.254,193.621 c -12.168,0 -24.156,-3.211 -34.688,-9.297 L 11.82,116.852 C 8.355,114.848 5.469,111.957 3.465,108.48 0.406,103.18 -0.406,97.012 1.164,91.109 2.75,85.191 6.535,80.254 11.82,77.199 L 128.566,9.738 C 139.098,3.656 151.086,0.43 163.254,0.43 l 588.551,0 c 12.621,0 22.867,10.277 22.867,22.898 l 0,147.41 c 0,12.621 -10.246,22.883 -22.867,22.883" /></g></g></g></g><path
         id="path3478"
         style="fill:#000000;fill-opacity:1;fill-rule:nonzero;stroke:none"
         d="m 752.414,5.82 -589.152,0 c -10.942,0 -21.883,3.367 -31.981,8.418 L 14.293,82.41 c -8.418,4.207 -10.941,15.148 -5.891,23.566 1.68,2.524 3.368,5.051 5.891,6.735 l 116.988,67.328 c 10.098,5.051 21.039,8.418 31.981,8.418 l 589.152,0 c 9.258,0 16.832,-7.575 16.832,-17.676 l 0,-147.285 c 0,-9.258 -7.574,-17.676 -16.832,-17.676 z" /><path
         id="path3480"
         style="fill:#f0c900;fill-opacity:1;fill-rule:nonzero;stroke:none"
         d="m 163.266,178.355 c -9.258,0 -18.52,-2.523 -26.934,-6.73 L 19.344,104.293 C 18.5,103.449 17.66,102.609 16.82,100.925 14.293,97.558 15.973,92.507 19.344,90.824 L 136.332,22.652 c 8.414,-4.207 17.676,-6.734 26.934,-6.734 l 589.148,0 c 4.207,0 7.574,3.367 7.574,7.578 l 0,147.285 c 0,4.207 -3.367,7.574 -7.574,7.574 l -589.148,0 z m 227.242,-12.621 80.797,0 c 5.89,0 10.101,-4.211 10.101,-9.262 l 0,-83.32 -101,0 0,83.32 c 0,5.051 4.211,9.262 10.102,9.262 z m -15.992,-95.105 112.781,0 0,-5.895 -112.781,0 0,5.895 z m 8.414,-8.418 8.418,0 c 1.679,0 3.367,-1.684 3.367,-2.524 l 0,-28.617 c 0,-1.684 -1.684,-2.527 -3.367,-2.527 l -8.418,0 c -1.68,0 -2.524,0.843 -2.524,2.527 l 0,28.617 c 0,0.84 0.844,2.524 2.524,2.524 z m 16.836,0 8.414,0 c 1.683,0 3.367,-1.684 3.367,-2.524 l 0,-8.418 c 0,-0.84 0.848,-2.523 2.527,-2.523 l 5.051,0 c 1.68,0 3.367,0.84 4.207,1.679 l 1.684,1.684 c 3.367,3.367 8.414,3.367 11.781,0 l 1.683,-1.684 c 0.844,-0.839 2.524,-1.679 4.208,-1.679 l 5.046,0 c 1.684,0 2.528,1.683 2.528,2.523 l 0,8.418 c 0,0.84 1.683,2.524 3.367,2.524 l 8.418,0 c 0.844,0 2.523,-1.684 2.523,-2.524 l 0,-28.617 c 0,-1.684 -1.679,-2.527 -2.523,-2.527 l -8.418,0 c -1.68,0 -3.367,0.843 -3.367,2.527 l 0,7.574 c 0,1.684 -0.844,3.367 -2.528,3.367 l -5.046,0 c -1.684,0 -3.368,-0.843 -4.208,-1.683 l -1.683,-1.684 c -3.367,-3.363 -8.418,-3.363 -11.781,0 l -1.684,1.684 c -0.844,0.84 -2.527,1.683 -4.207,1.683 l -5.051,0 c -1.679,0 -2.527,-1.683 -2.527,-3.367 l 0,-7.574 c 0,-1.684 -1.68,-2.527 -3.367,-2.527 l -8.414,0 c -1.684,0 -2.524,0.843 -2.524,2.527 l 0,28.617 c 0,0.84 0.84,2.524 2.524,2.524 z m 70.695,0 8.418,0 c 0.844,0 2.527,-1.684 2.527,-2.524 l 0,-28.617 c 0,-1.684 -1.683,-2.527 -2.527,-2.527 l -8.418,0 c -1.68,0 -3.367,0.843 -3.367,2.527 l 0,28.617 c 0,0.84 1.683,2.524 3.367,2.524 z" /><path
         id="path3482"
         style="fill:#ec7c25;fill-opacity:1;fill-rule:nonzero;stroke:none"
         d="m 394.715,154.793 72.383,0 0,-69.859 -72.383,0 0,69.859 z" /></g></g></svg>