<?xml version="1.0" encoding="UTF-8" standalone="no"?>
<svg
   xmlns:dc="http://purl.org/dc/elements/1.1/"
   xmlns:cc="http://creativecommons.org/ns#"
   xmlns:rdf="http://www.w3.org/1999/02/22-rdf-syntax-ns#"
   xmlns:svg="http://www.w3.org/2000/svg"
   xmlns="http://www.w3.org/2000/svg"
   id="svg5461"
   version="1.1"
   xml:space="preserve"
   width="1749.9996"
   height="450"
   viewBox="0 0 1749.9997 450"><metadata
     id="metadata5467"><rdf:RDF><cc:Work
         rdf:about=""><dc:format>image/svg+xml</dc:format><dc:type
           rdf:resource="http://purl.org/dc/dcmitype/StillImage" /><dc:title></dc:title></cc:Work></rdf:RDF></metadata><defs
     id="defs5465"><clipPath
       clipPathUnits="userSpaceOnUse"
       id="clipPath9531"><path
         d="M 0,0 775,0 775,194 0,194 0,0 Z"
         id="path9533" /></clipPath></defs><g
     id="g5469"
     transform="matrix(1.25,0,0,-1.25,257.67181,228.32645)"><path
       id="path5473"
       style="fill:#f0c900;fill-opacity:1;fill-rule:evenodd;stroke:none"
       d="m 97.642117,182.66116 c -22.57457,0 -44.97943,-6.00686 -64.66628,-17.37771 L -184.8126,39.565022 c -13.14385,-7.59857 -21.32485,-21.74143 -21.32485,-37.0041503 0,-15.0968497 8.181,-29.1895697 21.32485,-36.8292797 L 32.975837,-160.0267 c 19.68685,-11.38114 41.92585,-17.31214 64.66628,-17.31214 l 1047.363083,0 c 26.9845,0 48.8571,21.87257 48.8571,48.85714 l 0,262.28572 c 0,26.98457 -21.8726,48.85714 -48.8571,48.85714 z" /><path
       style="fill:#000000;fill-opacity:1;fill-rule:evenodd;stroke:none"
       d="m 121.97266,136.67773 c -25.281979,0 -45.66051,3.77648 -67.65266,16.43917 l -276.0002,159.3336 c -27.9519,16.24453 -27.9519,52.35433 3.9e-4,68.5195 L 54.32,540.249 c 21.992151,12.53571 42.370681,16.42092 67.65266,16.42092 l 1303.92344,0 c 28.4015,0 51.4277,-23.0263 51.4277,-51.42773 l 0,-317.13672 c 0,-28.40786 -23.0262,-51.42774 -51.4277,-51.42774 z"
       id="path5475"
       transform="matrix(0.8,0,0,-0.8,0,280)" /><path
       id="path5477"
       style="fill:#f0c900;fill-opacity:1;fill-rule:evenodd;stroke:none"
       d="m 617.28012,154.66116 c -182.74808,0 -358.72024,-0.0103 -519.715932,-0.0103 -17.267684,0 -31.083125,-2.35091 -46.050588,-10.93974 L -162.4719,20.1348 c -4.35999,-2.480216 -15.68627,-8.096409 -15.68627,-17.5858418 0,-9.489433 11.32628,-14.9399132 15.68627,-17.4111302 L 51.5136,-138.3544 c 14.967463,-8.71871 28.782904,-10.98444 46.050588,-10.98444 l 1047.746712,0 c 11.361,0 20.5721,9.20598 20.5721,20.56691 l 0,262.85073 c -0.014,11.06393 -8.8898,20.48207 -19.8289,20.53736 -188.1057,0.0347 -346.02717,0.045 -528.77398,0.045 z" /><g
       id="g6357"
       transform="matrix(0.95942168,0,0,0.95942168,-59.74066,-412.54104)"
       style="fill:#000000"><path
         id="path4204"
         style="fill:#000000;fill-opacity:1;fill-rule:evenodd;stroke:none"
         d="m 714.3368,545.64642 12.94008,0 0,-12.96052 -12.94008,0 0,12.96052 z m 0,-25.9229 12.94008,0 0,-64.80074 -12.94008,0 0,64.80074 z m -44.50163,-12.15606 c -7.62099,0 -13.76684,-6.16071 -13.76684,-13.76684 l 27.51138,0 c 0,7.60613 -6.14584,13.76684 -13.74454,13.76684 z m -5.12401,-39.50209 c 2.16256,-0.85648 4.4496,-1.29865 6.74222,-1.29865 5.28379,0 10.30562,2.31491 13.73711,6.29261 l 9.84115,-8.40502 c -5.90618,-6.8927 -14.52113,-10.84811 -23.57826,-10.84811 -3.95541,0 -7.88853,0.75429 -11.56154,2.21272 -10.14585,4.08546 -16.75616,13.89132 -16.75616,24.82676 l 0,12.95494 c 0,14.78309 11.94427,26.72922 26.69949,26.72922 14.73293,0 26.70692,-11.94613 26.70692,-26.72922 l 0,-11.34417 -40.47376,0 0,-1.61077 c 0,-5.62379 3.43893,-10.69764 8.64283,-12.78031 z m -78.23316,77.58105 0,-33.23735 c 4.14305,5.12959 10.38365,8.12077 16.99582,8.12077 12.07617,0 21.83743,-9.78356 21.83743,-21.88946 l 0,-43.7176 -12.94008,0 0,39.68973 c 0,7.15653 -5.79842,12.95495 -12.93265,12.95495 -7.1844,0 -12.96052,-5.79842 -12.96052,-12.95495 l 0,-39.68973 -12.96238,0 0,90.72364 12.96238,0 z m -61.10729,-51.03391 c -3.40363,0.23224 -6.06039,3.07107 -6.06039,6.48212 0,2.98932 2.05481,5.59405 4.97167,6.29076 2.08268,0.52392 4.21737,0.75615 6.37251,0.75615 6.16813,0 12.18392,-2.07524 16.99581,-5.9582 l 8.0929,10.12355 c -7.1268,5.70367 -15.98142,8.79517 -25.08871,8.79517 -3.17139,0 -6.32235,-0.36228 -9.39155,-1.08871 -8.74501,-2.11055 -14.88528,-9.94148 -14.88528,-18.91872 0,-10.25546 7.96285,-18.76823 18.21644,-19.39248 l 13.73897,-0.88434 c 3.41106,-0.2118 6.06596,-3.04134 6.06596,-6.45239 0,-2.70693 -1.66837,-5.13145 -4.19508,-6.06782 -3.03948,-1.13887 -6.29076,-1.74082 -9.54946,-1.74082 -7.20669,0 -14.10126,2.86669 -19.18068,7.93869 l -9.13145,-9.18718 c 7.51881,-7.49652 17.69438,-11.71389 28.31213,-11.71389 4.81932,0 9.57919,0.86391 14.07895,2.55457 7.5987,2.85927 12.62797,10.09568 12.62797,18.21645 0,10.25545 -7.99072,18.76079 -18.22388,19.39247 l -13.76683,0.85462 z m -62.68835,12.95495 c -7.59869,0 -13.7464,-6.16071 -13.7464,-13.76684 l 27.48352,0 c 0,7.60613 -6.16814,13.76684 -13.73712,13.76684 z m -5.10171,-39.50209 c 2.13283,-0.85648 4.39758,-1.29865 6.71249,-1.29865 5.28379,0 10.30562,2.31491 13.73897,6.29261 l 9.81142,-8.40502 c -5.8783,-6.8927 -14.49326,-10.84811 -23.55039,-10.84811 -3.95541,0 -7.8588,0.75429 -11.53182,2.21272 -10.14584,4.08546 -16.78588,13.89132 -16.78588,24.82676 l 0,12.95494 c 0,14.78309 11.94613,26.72922 26.70692,26.72922 14.75337,0 26.69949,-11.94613 26.69949,-26.72922 l 0,-11.34417 -40.44589,0 0,-1.61077 c 0,-5.62379 3.41106,-10.69764 8.64469,-12.78031 z m -78.25546,26.54714 c 0,7.15653 5.79842,12.95495 12.93265,12.95495 7.1844,0 12.96052,-5.79842 12.96052,-12.95495 l 0,-14.60102 c 0,-7.13423 -5.77612,-12.93265 -12.96052,-12.93265 -7.13423,0 -12.93265,5.79842 -12.93265,12.93265 l 0,14.60102 z m 25.89317,-32.37343 0,-7.3163 12.96238,0 0,90.72364 -12.96238,0 0,-33.23735 c -4.13562,5.12959 -10.38551,8.12077 -16.96795,8.12077 -12.10404,0 -21.8653,-9.78356 -21.8653,-21.88946 l 0,-22.66419 c 0,-12.07617 9.76126,-21.85787 21.8653,-21.85787 6.58244,0 12.83233,2.96702 16.96795,8.12076 z m -59.88667,-7.3163 c -8.04087,0 -14.54342,6.53228 -14.54342,14.57315 l 0,76.15049 12.93265,0 0,-74.53971 c 0,-2.23502 1.82071,-4.02787 4.03344,-4.02787 l 5.6758,0 0,-12.15606 -8.09847,0 z m -46.91871,90.72364 12.93265,0 0,-12.96052 -12.93265,0 0,12.96052 z m 0,-25.9229 12.93265,0 0,-64.80074 -12.93265,0 0,64.80074 z m -85.7817,25.9229 13.74454,0 0,-38.88342 37.23734,0 0,38.88342 13.7687,0 0,-90.72364 -13.7687,0 0,39.68973 -37.23734,0 0,-39.68973 -13.74454,0 0,90.72364 z m 546.99116,-33.23735 c 4.16535,5.12959 10.38551,8.12077 16.99582,8.12077 6.94659,0 13.50674,-3.3033 17.61449,-8.92708 4.60753,5.64607 11.50209,8.92708 18.8184,8.92708 13.40455,0 24.25267,-10.87971 24.25267,-24.30469 l 0,-41.30237 -12.9308,0 0,39.68973 c 0,7.15653 -5.80585,12.95495 -12.96238,12.95495 -7.1268,0 -12.96237,-5.79842 -12.96237,-12.95495 l 0,-39.68973 -12.93266,0 0,39.68973 c 0,7.15653 -5.77612,12.95495 -12.93079,12.95495 -7.15653,0 -12.96238,-5.79842 -12.96238,-12.95495 l 0,-39.68973 -12.93265,0 0,64.80074 12.93265,0" /><path
         id="path4206"
         style="fill:#000000;fill-opacity:1;fill-rule:evenodd;stroke:none"
         d="m 322.68794,331.51173 32.37529,42.94286 -30.75708,0 0,11.34232 46.94844,0 0,-9.73154 -32.37529,-42.91314 32.37529,0 0,-12.15606 -48.56665,0 0,10.51556 z m -19.43521,-10.51556 c -8.04087,0 -14.55085,6.50998 -14.55085,14.57315 l 0,76.15049 12.96237,0 0,-74.53228 c 0,-2.24246 1.79285,-4.0353 4.0353,-4.0353 l 5.64608,0 0,-12.15606 -8.0929,0 z m -90.62145,90.72364 58.24802,0 0,-12.96052 -44.50348,0 0,-25.91733 38.04366,0 0,-12.1542 -38.04366,0 0,-26.72922 44.50348,0 0,-12.96237 -58.24802,0 0,90.72364 z m 198.25545,-38.07153 c -7.5987,0 -13.76683,-6.16814 -13.76683,-13.76684 l 27.51137,0 c 0,7.5987 -6.13841,13.76684 -13.74454,13.76684 z m -5.12401,-39.50952 c 2.13469,-0.85462 4.42731,-1.29866 6.74222,-1.29866 5.28379,0 10.30562,2.31491 13.73897,6.32235 l 9.83929,-8.45518 c -5.90618,-6.87227 -14.52113,-10.82769 -23.57826,-10.82769 -3.95541,0 -7.8588,0.73201 -11.53182,2.24246 -10.14584,4.05573 -16.78588,13.86902 -16.78588,24.79702 l 0,12.96238 c 0,14.75337 11.97399,26.72922 26.69949,26.72922 14.73293,0 26.70692,-11.97585 26.70692,-26.72922 l 0,-11.34974 -40.47375,0 0,-1.61264 c 0,-5.64607 3.41105,-10.69577 8.64282,-12.7803" /></g><g
       id="g6373"
       transform="matrix(0.95732619,0,0,0.95732619,-132.43006,-422.8916)"><path
         id="path4208"
         style="fill:#000000;fill-opacity:1;fill-rule:evenodd;stroke:none"
         d="m 983.5059,491.21149 30.7348,65.63493 14.5806,0 -30.76455,-64.80074 23.47055,0 0,25.91732 12.94,0 0,-25.91732 7.2866,0 0,-12.15607 -7.2866,0 0,-13.76683 -12.94,0 0,13.76683 -38.0214,0 0,11.32188 z m 98.7143,53.47887 c 7.1547,0 12.9606,-5.80586 12.9606,-12.96052 l 0,-4.0353 c 0,-7.17697 -5.8059,-12.95495 -12.9606,-12.95495 -7.1565,0 -12.9326,5.77798 -12.9326,12.95495 l 0,4.0353 c 0,7.15466 5.7761,12.96052 12.9326,12.96052 z m 3.1491,-39.71203 -19.333,-38.85555 14.5732,0 24.797,50.01765 c 1.7705,3.59312 2.7069,7.54853 2.7069,11.55411 l 0,4.0353 c 0,14.31862 -11.582,25.92289 -25.8932,25.92289 -14.2907,0 -25.895,-11.60427 -25.895,-25.92289 l 0,-7.28658 c 0,-11.634 9.4213,-21.05341 21.0256,-21.05341 2.7645,0 5.4937,0.52206 8.0185,1.58848" /><path
         id="path4210"
         style="fill:#000000;fill-opacity:1;fill-rule:evenodd;stroke:none"
         d="m 1026.367,344.35223 c 7.6062,0 13.7669,6.16999 13.7669,13.76683 l 0,1.61264 c 0,7.59684 -6.1607,13.76683 -13.7669,13.76683 l -5.6461,0 0,11.34975 5.6461,0 c 7.1863,0 12.9624,5.79842 12.9624,12.96238 0,7.15466 -5.7761,12.95308 -12.9624,12.95308 -6.2183,0 -11.5244,-4.41987 -12.693,-10.50812 l -13.0701,0 c 1.2485,13.29493 12.418,23.4705 25.7631,23.4705 14.3186,0 25.9229,-11.60427 25.9229,-25.91546 0,-7.36647 -3.6135,-14.31863 -9.6293,-18.55829 6.5304,-4.34557 10.4356,-11.68417 10.4356,-19.52067 l 0,-1.61264 c 0,-14.75336 -11.9665,-26.72735 -26.7292,-26.72735 -13.5049,0 -24.849,10.07338 -26.48767,23.49837 l 13.11287,0 c 1.5104,-6.19043 7.0543,-10.53785 13.3748,-10.53785 z m 42.9206,68.86576 12.9326,9.70182 12.9606,0 0,-90.72364 -12.9606,0 0,76.9568 -12.9326,-9.70367" /><path
         id="path4212"
         style="fill:#000000;fill-opacity:1;fill-rule:evenodd;stroke:none"
         d="m 1146.969,533.79022 9.6535,0 0,-42.29633 18.7162,22.9856 11.4519,0 -16.2935,-18.76823 18.7106,-29.58848 -12.0762,0 -12.6725,22.35206 -7.8365,-8.45332 0,-13.89874 -9.6535,0 0,67.66744 z m 60.353,-24.77659 c 3.0989,3.82536 7.7584,6.06038 12.6707,6.06038 5.1816,0 10.0733,-2.46726 13.1425,-6.66233 3.4408,4.21551 8.5927,6.66233 14.0288,6.66233 9.9935,0 18.092,-8.12076 18.092,-18.13656 l 0,-30.81467 -9.6591,0 0,29.58848 c 0,5.36368 -4.2954,9.68137 -9.6293,9.68137 -5.3358,0 -9.6535,-4.31769 -9.6535,-9.68137 l 0,-29.58848 -9.6591,0 0,29.58848 c 0,5.36368 -4.3177,9.68137 -9.6814,9.68137 -5.3042,0 -9.6516,-4.31769 -9.6516,-9.68137 l 0,-29.58848 -9.6535,0 0,48.35671 9.6535,0" /><path
         id="path4214"
         style="fill:#000000;fill-opacity:1;fill-rule:evenodd;stroke:none"
         d="m 1146.969,399.86361 9.6535,0 0,-42.2889 18.7162,22.95587 11.4519,0 -16.2935,-18.71621 18.7106,-29.6182 -12.0762,0 -12.6725,22.35949 -7.8365,-8.46075 0,-13.89874 -9.6535,0 0,67.66744 z m 60.353,-24.77659 c 3.0989,3.82535 7.7584,6.06781 12.6707,6.06781 5.1816,0 10.0733,-2.47469 13.1425,-6.66233 3.4408,4.18764 8.5927,6.66233 14.0288,6.66233 9.9935,0 18.092,-8.12076 18.092,-18.14399 l 0,-30.81467 -9.6591,0 0,29.6182 c 0,5.33395 -4.2954,9.65908 -9.6293,9.65908 -5.3358,0 -9.6535,-4.32513 -9.6535,-9.65908 l 0,-29.6182 -9.6591,0 0,29.6182 c 0,5.33395 -4.3177,9.65908 -9.6814,9.65908 -5.3042,0 -9.6516,-4.32513 -9.6516,-9.65908 l 0,-29.6182 -9.6535,0 0,48.33441 9.6535,0" /></g></g></svg>