<?xml version="1.0" encoding="UTF-8" standalone="no"?>
<svg
   xmlns:dc="http://purl.org/dc/elements/1.1/"
   xmlns:cc="http://creativecommons.org/ns#"
   xmlns:rdf="http://www.w3.org/1999/02/22-rdf-syntax-ns#"
   xmlns:svg="http://www.w3.org/2000/svg"
   xmlns="http://www.w3.org/2000/svg"
   viewBox="0 0 2000.0002 1062.8658"
   height="1062.8658"
   width="2000.0002"
   xml:space="preserve"
   id="svg251"
   version="1.1"><metadata
     id="metadata257"><rdf:RDF><cc:Work
         rdf:about=""><dc:format>image/svg+xml</dc:format><dc:type
           rdf:resource="http://purl.org/dc/dcmitype/StillImage" /><dc:title></dc:title></cc:Work></rdf:RDF></metadata><defs
     id="defs255" /><g
     transform="matrix(1.3333333,0,0,-1.3333333,0,1062.8659)"
     id="g259"><g
       id="g261"><path
         id="path263"
         style="fill:#f0c900;fill-opacity:1;fill-rule:nonzero;stroke:none"
         d="M 0,46.876 C 0,20.985 20.988,0.001 46.875,0.001 h 1406.25 c 25.887,0 46.875,20.984 46.875,46.875 v 705.742 c 0,25.887 -20.988,44.531 -46.875,44.531 H 46.875 C 20.988,797.149 0,778.505 0,752.618 Z" /><path
         id="path265"
         style="fill:#000000;fill-opacity:1;fill-rule:nonzero;stroke:none"
         d="M 8.684,45.212 C 8.684,24.497 26.961,6.2 47.656,6.2 h 1405.817 c 20.695,0 38.972,18.297 38.972,39.012 v 704.141 c 0,20.714 -18.277,38.976 -38.972,38.976 H 47.656 c -20.695,0 -38.972,-16.758 -38.972,-37.476 z m 18.754,3.012 v 698.363 c 0,14.008 10.988,23.191 25.273,23.191 465.758,-0.656 931.519,-0.211 1397.273,0 14.289,0 23.711,-10.683 23.711,-24.687 V 48.224 c 0,-14.008 -9.422,-23.075 -23.711,-23.075 -465.754,-0.613 -931.515,-0.242 -1397.273,0 -14.285,0 -25.273,9.067 -25.273,23.075 z" /><path
         id="path267"
         style="fill:#000000;fill-opacity:1;fill-rule:evenodd;stroke:none"
         d="m 621.227,700.622 c -16.516,0 -29.813,-13.297 -29.813,-29.812 V 545.763 c 0,-16.516 13.297,-29.813 29.813,-29.813 h 257.546 c 16.516,0 29.813,13.297 29.813,29.813 V 670.81 c 0,16.515 -13.297,29.812 -29.813,29.812 z m 0,-11.594 h 257.546 c 10.094,0 18.219,-8.125 18.219,-18.218 V 545.763 c 0,-10.094 -8.125,-18.219 -18.219,-18.219 H 621.227 c -10.094,0 -18.219,8.125 -18.219,18.219 V 670.81 c 0,10.093 8.125,18.218 18.219,18.218 z" /><path
         id="path269"
         style="fill:#000000;fill-opacity:1;fill-rule:nonzero;stroke:none"
         d="m 679.133,552.036 v 15 l 43.621,54.567 c 1.684,2.144 2.781,4.109 3.293,5.894 0.508,1.785 0.766,3.52 0.766,5.203 0,3.879 -1.379,7.473 -4.133,10.789 -2.758,3.367 -6.508,5.051 -11.25,5.051 -4.336,0 -8.063,-1.453 -11.176,-4.359 -3.059,-2.86 -4.77,-6.785 -5.125,-11.785 h -15.996 c 0.051,9.027 3.137,16.632 9.262,22.804 6.121,6.223 13.39,9.336 21.808,9.336 9.285,0 17.016,-3.137 23.192,-9.414 6.222,-6.223 9.335,-13.75 9.335,-22.574 0,-7.551 -2.218,-14.082 -6.66,-19.594 l -35.89,-45 h 42.55 v -15.918 z" /><path
         id="path271"
         style="fill:#000000;fill-opacity:1;fill-rule:nonzero;stroke:none"
         d="m 757.422,631.474 v 32.066 h 63.445 v -15.992 l -37.73,-95.512 H 765.23 l 37.805,95.512 h -29.617 v -16.074 z" /><path
         id="path273"
         style="fill:#000000;fill-opacity:1;fill-rule:nonzero;stroke:none"
         d="m 178.121,293.134 v 97.453 h -30.836 v 15.148 h 78.75 v -15.148 h -30.836 v -97.453 z" /><path
         id="path275"
         style="fill:#000000;fill-opacity:1;fill-rule:nonzero;stroke:none"
         d="m 237.008,320.028 v 53.325 h 16.152 v -47.836 c 0,-5.461 1.496,-9.715 4.485,-12.754 3.039,-2.989 6.875,-4.481 11.515,-4.481 4.481,0 8.215,1.492 11.203,4.481 3.039,3.039 4.559,7.293 4.559,12.754 v 47.836 h 16.152 v -80.219 h -16.152 v 8.5 h -0.309 c -4.996,-6.285 -11.898,-9.426 -20.711,-9.426 -6.336,0 -12.414,2.344 -18.238,7.031 -5.769,4.739 -8.656,11.668 -8.656,20.789 z m 36.555,65.766 v 17.078 h 17.078 v -17.078 z m -27.899,0 v 17.078 h 17.156 v -17.078 z" /><path
         id="path277"
         style="fill:#000000;fill-opacity:1;fill-rule:nonzero;stroke:none"
         d="m 326.211,293.134 v 112.601 h 16.152 v -40.961 c 2.989,2.832 6.129,5.125 9.426,6.879 3.352,1.75 7.109,2.625 11.285,2.625 4.895,0 9.117,-1.004 12.672,-3.011 3.555,-1.957 6.492,-4.434 8.813,-7.418 2.214,-2.887 3.707,-6.262 4.48,-10.125 0.824,-3.813 1.238,-10.614 1.238,-20.403 0,-9.894 -0.414,-16.797 -1.238,-20.711 -0.773,-3.867 -2.266,-7.214 -4.48,-10.047 -2.321,-3.039 -5.258,-5.539 -8.813,-7.496 -3.555,-1.906 -7.777,-2.859 -12.672,-2.859 -8.246,0 -15.148,3.09 -20.711,9.273 v -8.347 z m 31.992,64.992 c -7.574,0 -12.105,-2.703 -13.601,-8.113 -1.493,-5.41 -2.239,-10.973 -2.239,-16.692 0,-5.875 0.746,-11.515 2.239,-16.925 1.496,-5.411 6.027,-8.114 13.601,-8.114 7.574,0 12.11,2.602 13.602,7.805 1.547,5.203 2.32,10.949 2.32,17.234 0,6.129 -0.773,11.797 -2.32,17 -1.492,5.203 -6.028,7.805 -13.602,7.805 z" /><path
         id="path279"
         style="fill:#000000;fill-opacity:1;fill-rule:nonzero;stroke:none"
         d="m 404.094,293.134 v 80.219 h 16.148 v -80.219 z m 0,96.449 v 16.152 h 16.148 v -16.152 z" /><path
         id="path281"
         style="fill:#000000;fill-opacity:1;fill-rule:nonzero;stroke:none"
         d="m 441.652,293.134 v 80.219 h 16.153 v -8.579 h 0.308 c 4.996,6.336 11.953,9.504 20.864,9.504 6.234,0 12.238,-2.367 18.007,-7.109 5.821,-4.738 8.735,-11.645 8.735,-20.711 v -53.324 h -16.153 v 47.762 c 0,5.41 -1.519,9.632 -4.558,12.671 -2.988,3.039 -6.727,4.559 -11.207,4.559 -4.637,0 -8.477,-1.52 -11.516,-4.559 -2.988,-3.039 -4.48,-7.261 -4.48,-12.671 v -47.762 z" /><path
         id="path283"
         style="fill:#000000;fill-opacity:1;fill-rule:nonzero;stroke:none"
         d="m 571.406,293.212 v 8.269 c -5.617,-6.183 -12.519,-9.273 -20.711,-9.273 -5.254,0 -9.66,1.027 -13.215,3.09 -3.503,2.113 -6.156,4.328 -7.96,6.644 -2.317,2.989 -3.915,6.161 -4.79,9.508 -0.824,3.348 -1.238,10.586 -1.238,21.715 0,11.129 0.414,18.367 1.238,21.719 0.875,3.347 2.473,6.543 4.79,9.582 1.804,2.265 4.457,4.457 7.96,6.566 3.555,2.164 7.961,3.246 13.215,3.246 7.832,0 14.735,-3.168 20.711,-9.504 v 8.579 h 16.153 v -78.364 c 0,-12.054 -3.528,-20.945 -10.586,-26.664 -7.008,-5.719 -15.071,-8.578 -24.192,-8.578 -5.152,0 -10.199,1.238 -15.148,3.711 -4.945,2.473 -9.195,5.719 -12.75,9.738 l 12.519,9.969 c 1.957,-1.957 4.278,-3.66 6.957,-5.102 2.731,-1.441 5.641,-2.164 8.731,-2.164 5.359,0 9.738,1.497 13.14,4.485 3.45,2.988 5.176,7.262 5.176,12.828 z m -31.761,39.953 c 0,-6.437 0.152,-10.715 0.464,-12.828 0.36,-2.113 1.262,-4.07 2.704,-5.875 1.082,-1.441 2.679,-2.832 4.792,-4.172 2.11,-1.34 4.79,-2.008 8.036,-2.008 3.144,0 5.746,0.668 7.804,2.008 2.114,1.34 3.739,2.731 4.871,4.172 1.391,1.805 2.243,3.762 2.551,5.875 0.36,2.113 0.539,6.391 0.539,12.828 0,6.441 -0.179,10.719 -0.539,12.828 -0.308,2.113 -1.16,4.098 -2.551,5.953 -1.132,1.391 -2.757,2.754 -4.871,4.094 -2.058,1.391 -4.66,2.086 -7.804,2.086 -3.246,0 -5.926,-0.695 -8.036,-2.086 -2.113,-1.34 -3.71,-2.703 -4.792,-4.094 -1.442,-1.855 -2.344,-3.84 -2.704,-5.953 -0.312,-2.109 -0.464,-6.387 -0.464,-12.828 z" /><path
         id="path285"
         style="fill:#000000;fill-opacity:1;fill-rule:nonzero;stroke:none"
         d="M 676.406,327.138 H 626.48 c 0,-6.594 1.778,-11.539 5.333,-14.836 3.605,-3.301 8.191,-4.949 13.757,-4.949 6.645,0 12.52,2.578 17.618,7.73 l 11.671,-9.969 c -3.968,-4.636 -8.449,-7.961 -13.449,-9.972 -4.945,-1.957 -10.121,-2.934 -15.531,-2.934 -8.242,0 -16.231,2.652 -23.957,7.957 -7.731,5.359 -11.594,16.281 -11.594,32.77 0,15.609 3.555,26.402 10.664,32.378 7.164,5.977 14.633,8.965 22.414,8.965 8.809,0 16.512,-3.062 23.106,-9.195 6.593,-6.078 9.894,-14.297 9.894,-24.652 z m -49.926,13.293 h 33.848 c -0.254,6.027 -1.957,10.64 -5.098,13.832 -3.144,3.195 -7.085,4.793 -11.824,4.793 -4.793,0 -8.785,-1.598 -11.98,-4.793 -3.141,-3.192 -4.789,-7.805 -4.946,-13.832 z" /><path
         id="path287"
         style="fill:#000000;fill-opacity:1;fill-rule:nonzero;stroke:none"
         d="m 697.906,293.134 v 80.219 h 16.153 v -8.579 h 0.308 c 4.996,6.336 11.953,9.504 20.867,9.504 6.235,0 12.235,-2.367 18.008,-7.109 5.821,-4.738 8.731,-11.645 8.731,-20.711 V 293.134 H 745.82 v 47.762 c 0,5.41 -1.519,9.632 -4.558,12.671 -2.989,3.039 -6.723,4.559 -11.207,4.559 -4.637,0 -8.473,-1.52 -11.516,-4.559 -2.988,-3.039 -4.48,-7.261 -4.48,-12.671 v -47.762 z" /><path
         id="path289"
         style="fill:#000000;fill-opacity:1;fill-rule:nonzero;stroke:none"
         d="m 974.809,293.134 v 15.148 l 44.05,55.102 c 1.704,2.164 2.809,4.148 3.325,5.949 0.515,1.805 0.773,3.555 0.773,5.258 0,3.914 -1.391,7.547 -4.172,10.894 -2.785,3.403 -6.57,5.102 -11.363,5.102 -4.379,0 -8.141,-1.469 -11.281,-4.406 -3.09,-2.883 -4.817,-6.852 -5.18,-11.903 h -16.152 c 0.054,9.121 3.171,16.797 9.351,23.032 6.184,6.285 13.528,9.429 22.028,9.429 9.375,0 17.179,-3.168 23.414,-9.508 6.289,-6.285 9.429,-13.882 9.429,-22.796 0,-7.625 -2.242,-14.219 -6.722,-19.786 l -36.246,-45.441 h 42.968 v -16.074 z" /><path
         id="path291"
         style="fill:#000000;fill-opacity:1;fill-rule:nonzero;stroke:none"
         d="m 1058.188,309.825 v 15.227 l 37.714,80.683 h 18.004 l -38.097,-80.683 h 29.367 v 32.457 h 16.152 v -32.457 h 9.039 v -15.227 h -9.039 v -16.691 h -16.152 v 16.691 z" /><path
         id="path293"
         style="fill:#000000;fill-opacity:1;fill-rule:nonzero;stroke:none"
         d="m 1156.313,293.134 v 112.601 h 16.148 v -70.097 h 0.312 l 30.832,37.715 h 19.321 l -27.664,-31.375 31.453,-48.844 h -20.25 l -21.328,37.48 -12.676,-14.449 v -23.031 z" /><path
         id="path295"
         style="fill:#000000;fill-opacity:1;fill-rule:nonzero;stroke:none"
         d="m 1240.656,293.134 v 80.219 h 16.153 v -8.579 h 0.308 c 5.102,6.336 12.055,9.504 20.867,9.504 5.614,0 10.071,-1.004 13.368,-3.011 3.3,-2.012 6.39,-4.485 9.277,-7.418 6.336,6.953 14.785,10.429 25.348,10.429 6.234,0 12.234,-2.367 18.003,-7.109 5.825,-4.738 8.735,-11.645 8.735,-20.711 v -53.324 h -16.152 v 47.762 c 0,5.41 -1.52,9.632 -4.559,12.671 -3.039,3.039 -6.801,4.559 -11.285,4.559 -4.637,0 -8.473,-1.52 -11.512,-4.559 -2.988,-3.039 -4.484,-7.261 -4.484,-12.671 v -47.762 h -16.075 v 47.762 c 0,5.41 -1.519,9.632 -4.558,12.671 -3.039,3.039 -6.801,4.559 -11.285,4.559 -4.637,0 -8.473,-1.52 -11.516,-4.559 -2.988,-3.039 -4.48,-7.261 -4.48,-12.671 v -47.762 z" /><path
         id="path297"
         style="fill:#000000;fill-opacity:1;fill-rule:nonzero;stroke:none"
         d="m 176.035,197.087 v -34.16 h 25.813 c 6.386,0 11.179,1.777 14.371,5.332 3.195,3.554 4.793,7.73 4.793,12.519 0,5.719 -1.907,9.996 -5.719,12.832 -3.195,2.317 -7.34,3.477 -12.441,3.477 z M 158.953,99.634 v 112.601 h 44.051 c 9.637,0 17.262,-2.476 22.875,-7.422 3.144,-2.73 5.797,-6.156 7.961,-10.277 2.215,-4.121 3.324,-8.707 3.324,-13.758 0,-7.261 -1.957,-13.703 -5.875,-19.32 -3.863,-5.562 -9.195,-9.504 -15.996,-11.824 l 26.121,-50 h -20.246 l -23.262,48.07 h -21.871 v -48.07 z" /><path
         id="path299"
         style="fill:#000000;fill-opacity:1;fill-rule:nonzero;stroke:none"
         d="m 316.453,133.638 h -49.922 c 0,-6.594 1.778,-11.539 5.332,-14.836 3.606,-3.301 8.192,-4.949 13.758,-4.949 6.645,0 12.52,2.578 17.617,7.73 l 11.672,-9.969 c -3.969,-4.636 -8.449,-7.961 -13.449,-9.972 -4.945,-1.957 -10.121,-2.934 -15.531,-2.934 -8.246,0 -16.231,2.652 -23.957,7.957 -7.731,5.359 -11.594,16.281 -11.594,32.77 0,15.609 3.555,26.402 10.664,32.378 7.164,5.977 14.633,8.965 22.414,8.965 8.809,0 16.512,-3.062 23.106,-9.195 6.593,-6.078 9.89,-14.297 9.89,-24.652 z m -49.922,13.293 h 33.848 c -0.258,6.027 -1.957,10.64 -5.098,13.832 -3.144,3.195 -7.086,4.793 -11.824,4.793 -4.793,0 -8.785,-1.598 -11.98,-4.793 -3.145,-3.192 -4.793,-7.805 -4.946,-13.832 z" /><path
         id="path301"
         style="fill:#000000;fill-opacity:1;fill-rule:nonzero;stroke:none"
         d="m 334.957,126.528 v 53.325 h 16.152 v -47.836 c 0,-5.461 1.493,-9.715 4.481,-12.754 3.039,-2.989 6.879,-4.481 11.515,-4.481 4.485,0 8.219,1.492 11.208,4.481 3.039,3.039 4.558,7.293 4.558,12.754 v 47.836 h 16.152 V 99.634 h -16.152 v 8.5 h -0.308 c -4.997,-6.285 -11.903,-9.426 -20.711,-9.426 -6.34,0 -12.418,2.344 -18.239,7.031 -5.773,4.739 -8.656,11.668 -8.656,20.789 z" /><path
         id="path303"
         style="fill:#000000;fill-opacity:1;fill-rule:nonzero;stroke:none"
         d="m 420.586,179.853 v 24.343 h 16.152 v -24.343 h 11.746 V 167.489 H 436.738 V 120.81 c 0,-4.02 1.907,-6.028 5.719,-6.028 h 6.027 V 99.634 h -8.425 c -5.614,0 -10.278,1.699 -13.989,5.101 -3.656,3.399 -5.484,8.27 -5.484,14.606 v 48.148 h -8.039 v 12.364 z" /><path
         id="path305"
         style="fill:#000000;fill-opacity:1;fill-rule:nonzero;stroke:none"
         d="m 463.555,119.032 v 93.203 h 16.152 v -91.89 c 0,-3.707 2.008,-5.563 6.027,-5.563 h 5.485 V 99.634 h -7.11 c -5.871,0 -10.765,1.418 -14.683,4.25 -3.914,2.887 -5.871,7.933 -5.871,15.148 z" /><path
         id="path307"
         style="fill:#000000;fill-opacity:1;fill-rule:nonzero;stroke:none"
         d="m 504.82,99.634 v 80.219 h 16.153 V 99.634 Z m 0,96.449 v 16.152 h 16.153 v -16.152 z" /><path
         id="path309"
         style="fill:#000000;fill-opacity:1;fill-rule:nonzero;stroke:none"
         d="m 543.711,99.634 v 80.219 h 16.152 v -8.579 h 0.309 c 5,6.336 11.953,9.504 20.867,9.504 6.234,0 12.234,-2.367 18.008,-7.109 5.82,-4.738 8.73,-11.645 8.73,-20.711 V 99.634 h -16.152 v 47.762 c 0,5.41 -1.52,9.632 -4.559,12.671 -2.988,3.039 -6.722,4.559 -11.207,4.559 -4.636,0 -8.472,-1.52 -11.511,-4.559 -2.989,-3.039 -4.485,-7.261 -4.485,-12.671 V 99.634 Z" /><path
         id="path311"
         style="fill:#000000;fill-opacity:1;fill-rule:nonzero;stroke:none"
         d="m 678.434,99.712 v 8.269 c -5.618,-6.183 -12.524,-9.273 -20.715,-9.273 -5.254,0 -9.66,1.027 -13.215,3.09 -3.504,2.113 -6.156,4.328 -7.957,6.644 -2.32,2.989 -3.918,6.161 -4.793,9.508 -0.824,3.348 -1.238,10.586 -1.238,21.715 0,11.129 0.414,18.367 1.238,21.719 0.875,3.347 2.473,6.543 4.793,9.582 1.801,2.265 4.453,4.457 7.957,6.566 3.555,2.164 7.961,3.246 13.215,3.246 7.832,0 14.738,-3.168 20.715,-9.504 v 8.579 h 16.148 v -78.364 c 0,-12.054 -3.527,-20.945 -10.586,-26.664 -7.008,-5.719 -15.07,-8.578 -24.187,-8.578 -5.153,0 -10.204,1.238 -15.149,3.711 -4.945,2.473 -9.195,5.719 -12.754,9.738 l 12.52,9.969 c 1.961,-1.957 4.277,-3.66 6.957,-5.102 2.73,-1.441 5.64,-2.164 8.734,-2.164 5.356,0 9.735,1.497 13.137,4.485 3.453,2.988 5.18,7.262 5.18,12.828 z m -31.766,39.953 c 0,-6.437 0.156,-10.715 0.465,-12.828 0.359,-2.113 1.262,-4.07 2.703,-5.875 1.082,-1.441 2.68,-2.832 4.793,-4.172 2.113,-1.34 4.793,-2.008 8.039,-2.008 3.141,0 5.742,0.668 7.805,2.008 2.109,1.34 3.734,2.731 4.867,4.172 1.39,1.805 2.242,3.762 2.551,5.875 0.359,2.113 0.543,6.391 0.543,12.828 0,6.441 -0.184,10.719 -0.543,12.828 -0.309,2.113 -1.161,4.098 -2.551,5.953 -1.133,1.391 -2.758,2.754 -4.867,4.094 -2.063,1.391 -4.664,2.086 -7.805,2.086 -3.246,0 -5.926,-0.695 -8.039,-2.086 -2.113,-1.34 -3.711,-2.703 -4.793,-4.094 -1.441,-1.855 -2.344,-3.84 -2.703,-5.953 -0.309,-2.109 -0.465,-6.387 -0.465,-12.828 z" /><path
         id="path313"
         style="fill:#000000;fill-opacity:1;fill-rule:nonzero;stroke:none"
         d="m 783.398,133.638 h -49.925 c 0,-6.594 1.777,-11.539 5.332,-14.836 3.609,-3.301 8.195,-4.949 13.758,-4.949 6.644,0 12.519,2.578 17.621,7.73 l 11.668,-9.969 c -3.965,-4.636 -8.45,-7.961 -13.446,-9.972 -4.945,-1.957 -10.125,-2.934 -15.535,-2.934 -8.242,0 -16.23,2.652 -23.957,7.957 -7.726,5.359 -11.594,16.281 -11.594,32.77 0,15.609 3.559,26.402 10.668,32.378 7.16,5.977 14.629,8.965 22.41,8.965 8.809,0 16.512,-3.062 23.106,-9.195 6.598,-6.078 9.894,-14.297 9.894,-24.652 z m -49.925,13.293 h 33.851 c -0.258,6.027 -1.957,10.64 -5.101,13.832 -3.145,3.195 -7.086,4.793 -11.825,4.793 -4.793,0 -8.785,-1.598 -11.98,-4.793 -3.141,-3.192 -4.789,-7.805 -4.945,-13.832 z" /><path
         id="path315"
         style="fill:#000000;fill-opacity:1;fill-rule:nonzero;stroke:none"
         d="m 806.137,99.634 v 80.219 h 16.152 v -8.579 h 0.309 c 4.996,6.336 11.953,9.504 20.867,9.504 6.234,0 12.234,-2.367 18.004,-7.109 5.824,-4.738 8.734,-11.645 8.734,-20.711 V 99.634 h -16.152 v 47.762 c 0,5.41 -1.52,9.632 -4.559,12.671 -2.988,3.039 -6.722,4.559 -11.207,4.559 -4.637,0 -8.476,-1.52 -11.515,-4.559 -2.989,-3.039 -4.481,-7.261 -4.481,-12.671 V 99.634 Z" /><path
         id="path317"
         style="fill:#000000;fill-opacity:1;fill-rule:nonzero;stroke:none"
         d="m 974.809,99.634 v 15.148 l 44.05,55.102 c 1.704,2.164 2.809,4.148 3.325,5.949 0.515,1.805 0.773,3.555 0.773,5.258 0,3.914 -1.391,7.547 -4.172,10.894 -2.785,3.403 -6.57,5.102 -11.363,5.102 -4.379,0 -8.141,-1.469 -11.281,-4.406 -3.09,-2.883 -4.817,-6.852 -5.18,-11.903 h -16.152 c 0.054,9.121 3.171,16.797 9.351,23.032 6.184,6.285 13.528,9.429 22.028,9.429 9.375,0 17.179,-3.168 23.414,-9.508 6.289,-6.285 9.429,-13.882 9.429,-22.796 0,-7.625 -2.242,-14.219 -6.722,-19.786 l -36.246,-45.441 h 42.968 V 99.634 Z" /><path
         id="path319"
         style="fill:#000000;fill-opacity:1;fill-rule:nonzero;stroke:none"
         d="m 1063.148,99.634 v 15.148 l 44.051,55.102 c 1.699,2.164 2.805,4.148 3.321,5.949 0.515,1.805 0.773,3.555 0.773,5.258 0,3.914 -1.391,7.547 -4.172,10.894 -2.781,3.403 -6.57,5.102 -11.359,5.102 -4.383,0 -8.141,-1.469 -11.285,-4.406 -3.09,-2.883 -4.817,-6.852 -5.176,-11.903 h -16.153 c 0.051,9.121 3.168,16.797 9.352,23.032 6.18,6.285 13.523,9.429 22.023,9.429 9.375,0 17.184,-3.168 23.418,-9.508 6.286,-6.285 9.426,-13.882 9.426,-22.796 0,-7.625 -2.238,-14.219 -6.722,-19.786 l -36.247,-45.441 h 42.969 V 99.634 Z" /><path
         id="path321"
         style="fill:#000000;fill-opacity:1;fill-rule:nonzero;stroke:none"
         d="m 1156.313,99.634 v 112.601 h 16.148 v -70.097 h 0.312 l 30.832,37.715 h 19.321 l -27.664,-31.375 31.453,-48.844 h -20.25 l -21.328,37.48 -12.676,-14.449 V 99.634 Z" /><path
         id="path323"
         style="fill:#000000;fill-opacity:1;fill-rule:nonzero;stroke:none"
         d="m 1240.656,99.634 v 80.219 h 16.153 v -8.579 h 0.308 c 5.102,6.336 12.055,9.504 20.867,9.504 5.614,0 10.071,-1.004 13.368,-3.011 3.3,-2.012 6.39,-4.485 9.277,-7.418 6.336,6.953 14.785,10.429 25.348,10.429 6.234,0 12.234,-2.367 18.003,-7.109 5.825,-4.738 8.735,-11.645 8.735,-20.711 V 99.634 h -16.152 v 47.762 c 0,5.41 -1.52,9.632 -4.559,12.671 -3.039,3.039 -6.801,4.559 -11.285,4.559 -4.637,0 -8.473,-1.52 -11.512,-4.559 -2.988,-3.039 -4.484,-7.261 -4.484,-12.671 V 99.634 h -16.075 v 47.762 c 0,5.41 -1.519,9.632 -4.558,12.671 -3.039,3.039 -6.801,4.559 -11.285,4.559 -4.637,0 -8.473,-1.52 -11.516,-4.559 -2.988,-3.039 -4.48,-7.261 -4.48,-12.671 V 99.634 Z" /></g></g></svg>