<?xml version="1.0" encoding="UTF-8" standalone="no"?>
<!-- Created with Inkscape (http://www.inkscape.org/) -->

<svg
   xmlns:dc="http://purl.org/dc/elements/1.1/"
   xmlns:cc="http://creativecommons.org/ns#"
   xmlns:rdf="http://www.w3.org/1999/02/22-rdf-syntax-ns#"
   xmlns:svg="http://www.w3.org/2000/svg"
   xmlns="http://www.w3.org/2000/svg"
   xmlns:sodipodi="http://sodipodi.sourceforge.net/DTD/sodipodi-0.dtd"
   xmlns:inkscape="http://www.inkscape.org/namespaces/inkscape"
   id="svg4553"
   version="1.1"
   inkscape:version="0.91 r13725"
   xml:space="preserve"
   width="2000"
   height="1000"
   viewBox="0 0 2000 1000"
   sodipodi:docname="Zeichen 448-50 - Ankündigungstafel auf anderen Straßen außerhalb von Autobahnen, StVO 2013.svg"><metadata
     id="metadata4559"><rdf:RDF><cc:Work
         rdf:about=""><dc:format>image/svg+xml</dc:format><dc:type
           rdf:resource="http://purl.org/dc/dcmitype/StillImage" /><dc:title></dc:title></cc:Work></rdf:RDF></metadata><defs
     id="defs4557" /><sodipodi:namedview
     pagecolor="#ffffff"
     bordercolor="#666666"
     borderopacity="1"
     objecttolerance="10"
     gridtolerance="10"
     guidetolerance="10"
     inkscape:pageopacity="0"
     inkscape:pageshadow="2"
     inkscape:window-width="755"
     inkscape:window-height="480"
     id="namedview4555"
     showgrid="false"
     inkscape:zoom="0.236"
     inkscape:cx="1000"
     inkscape:cy="500"
     inkscape:window-x="0"
     inkscape:window-y="0"
     inkscape:window-maximized="0"
     inkscape:current-layer="g4561" /><g
     id="g4561"
     inkscape:groupmode="layer"
     inkscape:label="Zeichen 448-50 - Ankündigungstafel auf anderen Straßen außerhalb von Autobahnen, StVO 2013"
     transform="matrix(1.25,0,0,-1.25,0,1000)"><g
       id="g4563"><path
         d="M 0,50 C 0,22.383 22.387,0 50,0 l 1500,0 c 27.613,0 50,22.383 50,50 l 0,702.5 c 0,27.613 -22.387,47.5 -50,47.5 L 50,800 C 22.387,800 0,780.113 0,752.5 L 0,50 Z"
         style="fill:#f0c900;fill-opacity:1;fill-rule:nonzero;stroke:none"
         id="path4565"
         inkscape:connector-curvature="0" /><path
         d="m 9.262,48.227 c 0,-22.098 19.496,-41.614 41.57,-41.614 l 1499.539,0 c 22.074,0 41.57,19.516 41.57,41.614 l 0,700.789 c 0,22.097 -19.496,41.574 -41.57,41.574 l -1499.539,0 c -22.074,0 -41.57,-17.875 -41.57,-39.973 l 0,-702.39 z m 20.004,3.211 0,694.628 c 0,14.942 11.722,24.739 26.961,24.739 496.808,-0.7 993.617,-0.227 1490.425,0 15.239,0 25.289,-11.395 25.289,-26.336 l 0,-693.031 c 0,-14.942 -10.05,-24.61 -25.289,-24.61 -496.808,-0.656 -993.617,-0.262 -1490.425,0 -15.239,0 -26.961,9.668 -26.961,24.61 z"
         style="fill:#000000;fill-opacity:1;fill-rule:nonzero;stroke:none"
         id="path4567"
         inkscape:connector-curvature="0" /><path
         d="m 194.934,464.617 0,184 117.699,0 0,-26.394 -89.789,0 0,-52.407 76.527,0 0,-24.878 -76.527,0 0,-54.051 89.789,0 0,-26.27 -117.699,0 z"
         style="fill:#000000;fill-opacity:1;fill-rule:nonzero;stroke:none"
         id="path4569"
         inkscape:connector-curvature="0" /><path
         d="m 352.629,411.578 0,184.125 26.391,0 0,-13.765 c 9.179,10.187 20.46,15.281 33.847,15.281 7.996,0 14.903,-1.641 20.711,-4.926 5.809,-3.199 10.606,-7.238 14.395,-12.121 3.621,-4.715 6.062,-10.231 7.324,-16.543 1.348,-6.231 2.023,-17.43 2.023,-33.594 0,-16.082 -0.675,-27.277 -2.023,-33.594 -1.262,-6.312 -3.703,-11.785 -7.324,-16.414 -3.789,-4.968 -8.586,-9.05 -14.395,-12.25 -5.808,-3.117 -12.715,-4.675 -20.711,-4.675 -6.82,0 -12.965,1.39 -18.437,4.168 -5.391,2.781 -10.524,6.527 -15.41,11.242 l 0,-66.934 -26.391,0 z m 52.281,77.793 c 12.375,0 19.785,4.25 22.227,12.754 2.527,8.504 3.789,17.809 3.789,27.91 0,10.102 -1.262,19.406 -3.789,27.91 -2.442,8.586 -9.852,12.879 -22.227,12.879 -12.375,0 -19.785,-4.418 -22.226,-13.258 -2.442,-8.839 -3.664,-18.019 -3.664,-27.531 0,-9.512 1.222,-18.691 3.664,-27.531 2.441,-8.754 9.851,-13.133 22.226,-13.133 z"
         style="fill:#000000;fill-opacity:1;fill-rule:nonzero;stroke:none"
         id="path4571"
         inkscape:connector-curvature="0" /><path
         d="m 495.613,411.578 0,184.125 26.395,0 0,-13.765 c 9.18,10.187 20.461,15.281 33.847,15.281 7.997,0 14.899,-1.641 20.711,-4.926 5.809,-3.199 10.606,-7.238 14.395,-12.121 3.621,-4.715 6.062,-10.231 7.324,-16.543 1.348,-6.231 2.02,-17.43 2.02,-33.594 0,-16.082 -0.672,-27.277 -2.02,-33.594 -1.262,-6.312 -3.703,-11.785 -7.324,-16.414 -3.789,-4.968 -8.586,-9.05 -14.395,-12.25 -5.812,-3.117 -12.714,-4.675 -20.711,-4.675 -6.82,0 -12.968,1.39 -18.441,4.168 -5.387,2.781 -10.523,6.527 -15.406,11.242 l 0,-66.934 -26.395,0 z m 52.285,77.793 c 12.375,0 19.786,4.25 22.227,12.754 2.523,8.504 3.789,17.809 3.789,27.91 0,10.102 -1.266,19.406 -3.789,27.91 -2.441,8.586 -9.852,12.879 -22.227,12.879 -12.378,0 -19.785,-4.418 -22.226,-13.258 -2.442,-8.839 -3.664,-18.019 -3.664,-27.531 0,-9.512 1.222,-18.691 3.664,-27.531 2.441,-8.754 9.848,-13.133 22.226,-13.133 z"
         style="fill:#000000;fill-opacity:1;fill-rule:nonzero;stroke:none"
         id="path4573"
         inkscape:connector-curvature="0" /><path
         d="m 746.578,520.184 -81.582,0 c 0,-10.774 2.906,-18.86 8.715,-24.246 5.891,-5.387 13.387,-8.083 22.477,-8.083 10.863,0 20.46,4.211 28.796,12.629 l 19.067,-16.293 c -6.481,-7.574 -13.805,-13.007 -21.973,-16.289 -8.082,-3.199 -16.543,-4.8 -25.383,-4.8 -13.472,0 -26.519,4.336 -39.148,13.007 -12.629,8.758 -18.945,26.606 -18.945,53.547 0,25.512 5.808,43.149 17.429,52.914 11.703,9.766 23.91,14.649 36.621,14.649 14.399,0 26.985,-5.008 37.762,-15.028 10.774,-9.933 16.164,-23.363 16.164,-40.285 l 0,-21.722 z m -81.582,21.722 55.313,0 c -0.418,9.852 -3.2,17.387 -8.332,22.606 -5.137,5.218 -11.579,7.828 -19.325,7.828 -7.828,0 -14.355,-2.61 -19.574,-7.828 -5.137,-5.219 -7.828,-12.754 -8.082,-22.606 z"
         style="fill:#000000;fill-opacity:1;fill-rule:nonzero;stroke:none"
         id="path4575"
         inkscape:connector-curvature="0" /><path
         d="m 784.875,496.316 0,152.301 26.391,0 0,-150.152 c 0,-6.063 3.285,-9.094 9.851,-9.094 l 8.969,0 0,-24.754 -11.621,0 c -9.598,0 -17.594,2.317 -23.992,6.946 -6.399,4.714 -9.598,12.968 -9.598,24.753 z"
         style="fill:#000000;fill-opacity:1;fill-rule:nonzero;stroke:none"
         id="path4577"
         inkscape:connector-curvature="0" /><path
         d="m 864.352,464.617 0,184 26.394,0 0,-66.929 0.504,0 c 8.168,10.355 19.535,15.531 34.098,15.531 10.187,0 19.996,-3.871 29.425,-11.617 9.516,-7.747 14.27,-19.028 14.27,-33.844 l 0,-87.141 -26.391,0 0,78.047 c 0,8.84 -2.484,15.742 -7.453,20.711 -4.883,4.969 -10.988,7.449 -18.312,7.449 -7.574,0 -13.848,-2.48 -18.817,-7.449 -4.882,-4.969 -7.324,-11.871 -7.324,-20.711 l 0,-78.047 -26.394,0 z"
         style="fill:#000000;fill-opacity:1;fill-rule:nonzero;stroke:none"
         id="path4579"
         inkscape:connector-curvature="0" /><path
         d="m 1120.297,520.184 -81.582,0 c 0,-10.774 2.906,-18.86 8.715,-24.246 5.894,-5.387 13.386,-8.083 22.48,-8.083 10.86,0 20.457,4.211 28.793,12.629 l 19.07,-16.293 c -6.484,-7.574 -13.808,-13.007 -21.976,-16.289 -8.082,-3.199 -16.543,-4.8 -25.383,-4.8 -13.469,0 -26.519,4.336 -39.148,13.007 -12.629,8.758 -18.942,26.606 -18.942,53.547 0,25.512 5.809,43.149 17.426,52.914 11.703,9.766 23.91,14.649 36.625,14.649 14.395,0 26.98,-5.008 37.758,-15.028 10.777,-9.933 16.164,-23.363 16.164,-40.285 l 0,-21.722 z m -81.582,21.722 55.316,0 c -0.422,9.852 -3.199,17.387 -8.336,22.606 -5.136,5.218 -11.578,7.828 -19.32,7.828 -7.832,0 -14.355,-2.61 -19.574,-7.828 -5.137,-5.219 -7.832,-12.754 -8.086,-22.606 z"
         style="fill:#000000;fill-opacity:1;fill-rule:nonzero;stroke:none"
         id="path4581"
         inkscape:connector-curvature="0" /><path
         d="m 1156.84,464.617 0,131.086 26.394,0 0,-131.086 -26.394,0 z m 0,157.606 0,26.394 26.394,0 0,-26.394 -26.394,0 z"
         style="fill:#000000;fill-opacity:1;fill-rule:nonzero;stroke:none"
         id="path4583"
         inkscape:connector-curvature="0" /><path
         d="m 1227.73,464.617 0,131.086 26.395,0 0,-14.015 0.504,0 c 8.336,10.355 19.699,15.531 34.098,15.531 9.175,0 16.457,-1.641 21.847,-4.926 5.387,-3.281 10.438,-7.324 15.153,-12.121 10.355,11.363 24.164,17.047 41.421,17.047 10.188,0 19.997,-3.871 29.426,-11.617 9.516,-7.747 14.27,-19.028 14.27,-33.844 l 0,-87.141 -26.391,0 0,78.047 c 0,8.84 -2.484,15.742 -7.453,20.711 -4.965,4.969 -11.113,7.449 -18.437,7.449 -7.579,0 -13.848,-2.48 -18.817,-7.449 -4.883,-4.969 -7.324,-11.871 -7.324,-20.711 l 0,-78.047 -26.27,0 0,78.047 c 0,8.84 -2.48,15.742 -7.449,20.711 -4.969,4.969 -11.113,7.449 -18.437,7.449 -7.578,0 -13.852,-2.48 -18.817,-7.449 -4.883,-4.969 -7.324,-11.871 -7.324,-20.711 l 0,-78.047 -26.395,0 z"
         style="fill:#000000;fill-opacity:1;fill-rule:nonzero;stroke:none"
         id="path4585"
         inkscape:connector-curvature="0" /><path
         d="m 452.938,158.547 0,156.469 -26.27,-19.196 0,28.035 26.27,19.071 26.519,0 0,-184.379 -26.519,0 z"
         style="fill:#000000;fill-opacity:1;fill-rule:nonzero;stroke:none"
         id="path4587"
         inkscape:connector-curvature="0" /><path
         d="m 605.738,211.84 0,78.172 c 0,8.84 -2.398,15.742 -7.199,20.711 -4.715,4.965 -10.945,7.449 -18.687,7.449 -7.832,0 -14.106,-2.484 -18.821,-7.449 -4.715,-4.969 -7.07,-11.871 -7.07,-20.711 l 0,-78.172 c 0,-8.926 2.355,-15.871 7.07,-20.84 4.715,-4.883 10.989,-7.324 18.821,-7.324 7.742,0 13.972,2.441 18.687,7.324 4.801,4.969 7.199,11.914 7.199,20.84 z m -78.172,-1.516 0,81.199 c 0,16.926 5.305,29.973 15.914,39.153 10.606,9.258 22.731,13.89 36.372,13.89 13.554,0 25.632,-4.632 36.242,-13.89 10.691,-9.18 16.039,-22.227 16.039,-39.153 l 0,-81.199 c 0,-16.922 -5.348,-29.972 -16.039,-39.148 -10.61,-9.18 -22.688,-13.766 -36.242,-13.766 -13.641,0 -25.766,4.586 -36.372,13.766 -10.609,9.176 -15.914,22.226 -15.914,39.148 z"
         style="fill:#000000;fill-opacity:1;fill-rule:nonzero;stroke:none"
         id="path4589"
         inkscape:connector-curvature="0" /><path
         d="m 758.414,211.84 0,78.172 c 0,8.84 -2.398,15.742 -7.199,20.711 -4.715,4.965 -10.945,7.449 -18.688,7.449 -7.832,0 -14.105,-2.484 -18.82,-7.449 -4.711,-4.969 -7.07,-11.871 -7.07,-20.711 l 0,-78.172 c 0,-8.926 2.359,-15.871 7.07,-20.84 4.715,-4.883 10.988,-7.324 18.82,-7.324 7.743,0 13.973,2.441 18.688,7.324 4.801,4.969 7.199,11.914 7.199,20.84 z m -78.172,-1.516 0,81.199 c 0,16.926 5.305,29.973 15.914,39.153 10.606,9.258 22.731,13.89 36.371,13.89 13.555,0 25.633,-4.632 36.243,-13.89 10.691,-9.18 16.039,-22.227 16.039,-39.153 l 0,-81.199 c 0,-16.922 -5.348,-29.972 -16.039,-39.148 -10.61,-9.18 -22.688,-13.766 -36.243,-13.766 -13.64,0 -25.765,4.586 -36.371,13.766 -10.609,9.176 -15.914,22.226 -15.914,39.148 z"
         style="fill:#000000;fill-opacity:1;fill-rule:nonzero;stroke:none"
         id="path4591"
         inkscape:connector-curvature="0" /><path
         d="m 911.09,211.84 0,78.172 c 0,8.84 -2.399,15.742 -7.199,20.711 -4.715,4.965 -10.946,7.449 -18.688,7.449 -7.832,0 -14.105,-2.484 -18.816,-7.449 -4.715,-4.969 -7.074,-11.871 -7.074,-20.711 l 0,-78.172 c 0,-8.926 2.359,-15.871 7.074,-20.84 4.711,-4.883 10.984,-7.324 18.816,-7.324 7.742,0 13.973,2.441 18.688,7.324 4.8,4.969 7.199,11.914 7.199,20.84 z m -78.172,-1.516 0,81.199 c 0,16.926 5.305,29.973 15.914,39.153 10.606,9.258 22.731,13.89 36.371,13.89 13.555,0 25.637,-4.632 36.242,-13.89 10.692,-9.18 16.039,-22.227 16.039,-39.153 l 0,-81.199 c 0,-16.922 -5.347,-29.972 -16.039,-39.148 -10.605,-9.18 -22.687,-13.766 -36.242,-13.766 -13.64,0 -25.765,4.586 -36.371,13.766 -10.609,9.176 -15.914,22.226 -15.914,39.148 z"
         style="fill:#000000;fill-opacity:1;fill-rule:nonzero;stroke:none"
         id="path4593"
         inkscape:connector-curvature="0" /><path
         d="m 985.594,158.926 0,131.086 26.394,0 0,-14.02 0.504,0 c 8.336,10.356 19.703,15.531 34.098,15.531 9.18,0 16.461,-1.64 21.848,-4.921 5.39,-3.286 10.441,-7.325 15.156,-12.125 10.355,11.367 24.164,17.046 41.422,17.046 10.187,0 19.996,-3.871 29.425,-11.617 9.512,-7.746 14.27,-19.027 14.27,-33.843 l 0,-87.137 -26.395,0 0,78.043 c 0,8.84 -2.484,15.746 -7.449,20.711 -4.969,4.968 -11.113,7.453 -18.437,7.453 -7.578,0 -13.852,-2.485 -18.821,-7.453 -4.882,-4.965 -7.324,-11.871 -7.324,-20.711 l 0,-78.043 -26.265,0 0,78.043 c 0,8.84 -2.485,15.746 -7.454,20.711 -4.964,4.968 -11.113,7.453 -18.437,7.453 -7.574,0 -13.848,-2.485 -18.816,-7.453 -4.883,-4.965 -7.325,-11.871 -7.325,-20.711 l 0,-78.043 -26.394,0 z"
         style="fill:#000000;fill-opacity:1;fill-rule:nonzero;stroke:none"
         id="path4595"
         inkscape:connector-curvature="0" /></g></g></svg>