<?xml version="1.0" encoding="UTF-8" standalone="no"?>
<svg
   xmlns:dc="http://purl.org/dc/elements/1.1/"
   xmlns:cc="http://creativecommons.org/ns#"
   xmlns:rdf="http://www.w3.org/1999/02/22-rdf-syntax-ns#"
   xmlns:svg="http://www.w3.org/2000/svg"
   xmlns="http://www.w3.org/2000/svg"
   viewBox="0 0 2142.98 2666.9727"
   height="2666.9727"
   width="2142.98"
   xml:space="preserve"
   id="svg12336"
   version="1.1"><metadata
     id="metadata12342"><rdf:RDF><cc:Work
         rdf:about=""><dc:format>image/svg+xml</dc:format><dc:type
           rdf:resource="http://purl.org/dc/dcmitype/StillImage" /><dc:title></dc:title></cc:Work></rdf:RDF></metadata><defs
     id="defs12340" /><g
     transform="matrix(1.3333333,0,0,1.3333333,0,1.1067432e-4)"
     id="g12344"><g
       id="g12346"><path
         id="path12348"
         style="fill:#fcd205;fill-opacity:1;fill-rule:nonzero;stroke:none"
         d="M 60.449,0 57.32,0.117 54.266,0.352 51.25,0.781 48.273,1.293 45.379,1.996 42.48,2.781 l -2.742,0.938 -2.699,1.058 -2.703,1.215 -2.621,1.367 -2.586,1.489 -2.426,1.566 -2.351,1.645 -2.231,1.839 -2.269,1.879 -2.079,2.036 -1.996,2.078 -1.918,2.23 -1.839,2.27 -1.606,2.312 -1.566,2.543 -1.45,2.508 L 5.992,34.375 4.777,37.039 3.719,39.738 2.781,42.48 1.879,45.379 1.293,48.313 0.703,51.289 0.352,54.305 0.078,57.32 0,60.449 v 1879.289 l 0.078,3.172 0.274,3.016 0.351,3.015 0.59,2.977 0.586,2.934 0.902,2.859 0.938,2.781 1.058,2.778 1.215,2.585 1.406,2.622 1.45,2.586 1.566,2.464 1.606,2.309 1.839,2.273 1.918,2.231 1.996,2.074 2.079,2.039 2.269,1.879 2.231,1.84 2.351,1.644 2.426,1.567 2.586,1.484 2.621,1.371 2.703,1.176 2.699,1.059 2.742,0.976 2.899,0.864 2.894,0.625 2.977,0.585 3.016,0.356 3.054,0.234 3.129,0.117 h 1486.297 l 3.133,-0.117 3.051,-0.234 3.015,-0.356 2.977,-0.585 2.937,-0.625 2.856,-0.864 2.781,-0.976 2.703,-1.059 2.66,-1.176 2.625,-1.371 2.504,-1.484 2.547,-1.567 2.309,-1.644 2.269,-1.84 2.235,-1.879 2.074,-2.039 2.035,-2.074 1.879,-2.231 1.84,-2.273 1.605,-2.309 1.606,-2.464 1.488,-2.586 1.371,-2.622 1.211,-2.585 1.02,-2.778 0.98,-2.781 0.742,-2.859 0.703,-2.934 0.551,-2.977 0.43,-3.015 0.234,-3.016 0.117,-3.172 V 60.449 l -0.117,-3.129 -0.234,-3.015 -0.43,-3.016 -0.551,-2.976 -0.703,-2.934 -0.742,-2.899 -0.98,-2.742 -1.02,-2.699 -1.211,-2.664 -1.371,-2.621 -1.488,-2.508 -1.606,-2.543 -1.605,-2.312 -1.84,-2.27 -1.879,-2.23 -2.035,-2.078 -2.074,-2.036 -2.235,-1.879 -2.269,-1.839 -2.309,-1.645 -2.547,-1.566 -2.504,-1.489 -2.625,-1.367 -2.66,-1.215 -2.703,-1.058 -2.781,-0.938 -2.856,-0.785 -2.937,-0.703 -2.977,-0.512 -3.015,-0.429 -3.051,-0.235 L 1546.746,0 Z" /><path
         id="path12350"
         style="fill:#000000;fill-opacity:1;fill-rule:evenodd;stroke:none"
         d="m 133.227,176.543 h 186.91 l 1.136,0.078 1.133,0.195 1.137,0.235 1.02,0.351 0.976,0.512 0.941,0.625 0.86,0.586 1.566,1.566 0.625,0.864 0.59,0.976 0.43,0.942 0.429,1.054 0.278,1.137 0.156,1.02 0.117,1.211 v 90.558 l -0.117,1.215 -0.156,1.137 -0.278,1.054 -0.429,1.02 -0.43,1.059 -0.59,0.859 -0.625,0.863 -0.781,0.86 -0.785,0.707 -0.86,0.703 -0.941,0.508 -0.976,0.511 -1.02,0.352 -1.137,0.273 -1.133,0.156 -1.136,0.079 h -186.91 l -1.137,-0.079 -1.098,-0.156 -1.133,-0.273 -1.058,-0.352 -0.938,-0.511 -0.98,-0.508 -0.863,-0.703 -0.782,-0.707 -0.781,-0.86 -0.59,-0.863 -0.625,-0.859 -0.429,-1.059 -0.434,-1.02 -0.234,-1.054 -0.196,-1.137 v -92.984 l 0.196,-1.02 0.234,-1.137 0.434,-1.054 0.429,-0.942 0.625,-0.976 0.59,-0.864 0.781,-0.781 0.782,-0.785 0.863,-0.586 0.98,-0.625 0.938,-0.512 1.058,-0.351 1.133,-0.235 1.098,-0.195 z m 0,-8.496 h 186.91 l 1.058,0.078 h 0.938 l 1.058,0.156 0.938,0.196 1.918,0.507 1.844,0.629 1.722,0.86 1.563,0.941 1.566,1.215 1.371,1.211 1.293,1.488 1.137,1.488 1.055,1.645 0.746,1.723 0.703,1.839 0.547,1.879 0.156,0.981 0.082,1.015 0.078,0.981 0.117,1.016 v 90.558 l -0.117,1.059 -0.078,1.019 -0.082,0.977 -0.156,0.941 -0.547,1.918 -0.703,1.801 -0.746,1.762 -1.055,1.644 -1.137,1.567 -1.293,1.371 -1.371,1.289 -1.566,1.137 -1.563,0.941 -1.722,0.859 -0.981,0.352 -0.863,0.355 -0.938,0.274 -0.98,0.156 -0.938,0.195 -1.058,0.157 -0.938,0.078 H 132.168 l -0.941,-0.078 -1.055,-0.157 -0.942,-0.195 -0.937,-0.156 -0.98,-0.274 -0.86,-0.355 -0.941,-0.352 -1.723,-0.859 -1.566,-0.941 -1.567,-1.137 -1.41,-1.289 -1.289,-1.371 -1.137,-1.567 -1.019,-1.644 -0.781,-1.762 -0.43,-0.863 -0.274,-0.938 -0.277,-0.98 -0.234,-0.938 -0.196,-0.941 -0.078,-0.977 -0.078,-1.019 v -92.633 l 0.078,-0.981 0.078,-1.015 0.196,-0.981 0.511,-1.879 0.704,-1.839 0.781,-1.723 1.019,-1.645 1.137,-1.488 1.289,-1.488 1.41,-1.211 1.567,-1.215 1.566,-0.941 1.723,-0.86 1.801,-0.629 1.917,-0.507 0.942,-0.196 1.055,-0.156 h 0.941 z" /><path
         id="path12352"
         style="fill:#000000;fill-opacity:1;fill-rule:evenodd;stroke:none"
         d="m 249.371,1820.367 -45.379,-0.078 v -113.465 l 0.274,-7.633 0.629,-7.437 0.937,-7.402 1.371,-7.282 1.762,-7.203 1.957,-7.086 2.351,-6.968 2.7,-6.852 2.937,-6.656 3.211,-6.696 3.484,-6.421 3.719,-6.422 3.914,-6.223 4.153,-6.07 4.343,-5.989 4.426,-5.914 4.699,-5.715 4.774,-5.562 4.855,-5.441 5.012,-5.325 5.012,-5.168 5.207,-5.05 5.207,-4.856 5.324,-4.695 5.168,-4.582 5.324,-4.426 5.289,-4.266 5.207,-4.074 5.207,-3.992 5.09,-3.719 5.051,-3.64 5.008,-3.485 141.574,-96.863 -38.445,-35.316 -0.43,-0.586 -0.434,-0.625 -0.234,-0.707 -0.273,-0.586 -0.157,-0.625 -0.117,-0.668 v -0.625 l 0.117,-0.586 0.157,-0.629 0.156,-0.586 0.273,-0.547 0.274,-0.512 0.355,-0.508 0.43,-0.546 0.43,-0.317 0.507,-0.469 0.356,-0.156 0.351,-0.156 0.352,-0.195 0.43,-0.157 0.355,-0.117 1.289,-0.234 h 133.117 l 0.786,0.078 0.781,0.078 0.785,0.274 0.703,0.273 0.625,0.312 0.512,0.469 0.508,0.434 0.429,0.508 0.196,0.234 0.156,0.352 0.156,0.355 0.121,0.43 0.156,0.351 0.079,0.43 v 1.84 l -0.079,0.355 -0.078,0.313 -0.078,0.469 -0.121,0.312 -0.078,0.352 -50.309,122.742 -0.234,0.429 -0.195,0.434 -0.235,0.43 -0.277,0.351 -0.352,0.352 -0.273,0.355 -0.313,0.274 -0.351,0.234 -0.629,0.274 -0.586,0.273 -0.625,0.234 -0.707,0.079 -0.586,0.117 -0.707,-0.117 -0.586,-0.079 -0.703,-0.156 -0.629,-0.195 -0.586,-0.235 -0.508,-0.351 -0.55,-0.434 -0.508,-0.508 -0.43,-0.546 -0.352,-0.586 -0.277,-0.629 -17.851,-48.313 -138.442,98.465 -4.226,3.094 -4.426,3.211 -4.426,3.328 -4.422,3.445 -4.621,3.563 -4.504,3.64 -4.5,3.84 -4.582,3.875 -4.543,3.992 -4.5,4.075 -4.426,4.187 -4.421,4.309 -4.231,4.343 -4.266,4.426 -4.074,4.5 -3.992,4.621 -3.914,4.66 -3.723,4.778 -3.562,4.773 -3.289,4.856 -3.207,4.933 -3.016,4.973 -2.781,5.012 -2.543,5.129 -2.235,5.129 -2.074,5.089 -1.761,5.207 -1.45,5.207 -1.132,5.286 -0.864,5.207 -0.547,5.285 -0.156,5.402 z" /><path
         id="path12354"
         style="fill:#000000;fill-opacity:1;fill-rule:evenodd;stroke:none"
         d="m 204.008,477.738 -51.094,12.215 -0.781,0.117 -0.785,-0.117 -0.664,-0.078 -0.625,-0.156 -0.59,-0.196 -0.625,-0.355 -0.508,-0.313 -0.551,-0.351 -0.43,-0.547 -0.351,-0.434 -0.313,-0.507 -0.273,-0.586 -0.277,-0.551 -0.078,-0.586 -0.157,-0.703 v -1.059 l 0.078,-0.312 v -0.43 l 0.157,-0.355 0.078,-0.43 0.199,-0.469 0.156,-0.312 0.196,-0.434 75.015,-111.543 0.508,-0.703 0.547,-0.629 0.59,-0.43 0.625,-0.429 0.703,-0.352 0.59,-0.234 0.703,-0.199 0.664,-0.079 0.707,0.079 0.625,0.082 0.668,0.273 0.703,0.352 0.625,0.429 0.59,0.508 0.625,0.629 0.508,0.703 74.664,111.27 0.273,0.433 0.156,0.43 0.196,0.43 0.16,0.429 0.117,0.434 0.156,0.859 v 1.137 l -0.156,0.703 -0.195,0.629 -0.278,0.586 -0.312,0.586 -0.43,0.551 -0.429,0.507 -0.473,0.43 -0.586,0.43 -0.508,0.273 -0.629,0.356 -0.703,0.156 -0.586,0.078 -0.707,0.117 -0.703,-0.117 -0.668,-0.078 -50.582,-12.215 h -0.156 v 1413.125 h -45.379 z" /><path
         id="path12356"
         style="fill:#000000;fill-opacity:1;fill-rule:evenodd;stroke:none"
         d="m 982.504,1889.59 v -69.633 h 14 v 7.938 l 0.793,-1.047 1.84,-1.84 1.047,-0.797 1.011,-0.793 1.047,-0.719 1.047,-0.652 1.117,-0.578 1.117,-0.469 1.192,-0.469 1.226,-0.394 1.192,-0.324 1.191,-0.254 1.188,-0.215 1.191,-0.184 1.301,-0.07 h 1.441 l 1.84,0.144 1.84,0.25 1.84,0.473 1.84,0.574 1.734,0.723 1.695,0.867 1.661,1.047 1.621,1.187 0.543,0.469 0.578,0.508 0.539,0.539 0.578,0.469 0.937,1.156 0.508,0.613 0.469,0.579 0.937,-1.047 0.973,-1.047 1.047,-0.938 1.117,-0.972 1.121,-0.797 1.117,-0.793 2.383,-1.297 1.297,-0.543 1.192,-0.578 1.261,-0.395 1.371,-0.398 1.301,-0.254 1.332,-0.215 1.371,-0.18 1.371,-0.074 h 0.329 l 0.14,-0.07 h 1.121 l 2.094,0.144 2.055,0.325 2.093,0.504 2.055,0.613 2.02,0.793 1.914,0.976 0.937,0.578 0.977,0.614 0.863,0.648 0.902,0.723 1.118,0.937 1.046,1.047 1.012,1.047 0.903,1.117 0.863,1.117 0.797,1.192 0.718,1.301 0.653,1.261 0.539,1.297 0.508,1.336 0.468,1.371 0.325,1.442 0.324,1.336 0.144,1.445 0.18,1.551 v 45.785 h -13.926 v -42.61 l -0.074,-1.445 -0.144,-1.336 -0.434,-1.371 -0.469,-1.297 -0.539,-1.191 -0.723,-1.192 -0.793,-1.046 -0.902,-1.043 -0.937,-0.868 -1.118,-0.793 -1.121,-0.648 -1.226,-0.617 -1.262,-0.504 -1.371,-0.324 -1.336,-0.215 -1.441,-0.11 -1.446,0.11 -1.371,0.215 -1.371,0.324 -1.262,0.504 -1.191,0.617 -1.117,0.648 -1.117,0.793 -0.977,0.868 -0.867,1.043 -0.793,1.046 -0.719,1.192 -0.578,1.191 -0.469,1.297 -0.324,1.371 -0.254,1.336 -0.074,1.445 v 42.61 h -13.891 v -42.61 l -0.07,-1.445 -0.254,-1.336 -0.324,-1.371 -0.469,-1.297 -0.578,-1.191 -0.719,-1.192 -0.797,-1.046 -0.863,-1.043 -1.047,-0.868 -1.047,-0.793 -1.117,-0.648 -1.191,-0.617 -1.262,-0.504 -1.371,-0.324 -1.371,-0.215 -1.445,-0.11 -1.442,0.11 -1.336,0.215 -1.371,0.324 -1.262,0.504 -1.226,0.617 -1.192,0.648 -1.046,0.793 -0.938,0.868 -0.977,1.043 -0.792,1.046 -0.649,1.192 -0.613,1.191 -0.504,1.297 -0.328,1.371 -0.215,1.336 v 44.055 z" /><path
         id="path12358"
         style="fill:#000000;fill-opacity:1;fill-rule:evenodd;stroke:none"
         d="m 899.059,1862.57 v 1.442 l 0.254,1.445 0.289,1.262 0.503,1.297 0.614,1.265 0.648,1.117 0.797,1.047 0.973,1.047 0.972,0.863 1.012,0.797 1.192,0.719 1.226,0.578 1.262,0.469 1.371,0.324 1.371,0.219 1.406,0.109 1.371,-0.109 1.446,-0.219 1.261,-0.324 1.371,-0.469 1.192,-0.578 1.117,-0.719 1.047,-0.797 1.047,-0.863 0.867,-1.047 0.828,-1.047 0.688,-1.117 0.574,-1.265 0.469,-1.297 0.328,-1.262 0.25,-1.445 0.074,-1.442 v -43.476 l -0.074,-1.371 -0.25,-1.446 -0.328,-1.261 -0.469,-1.297 -0.574,-1.266 -0.688,-1.117 -0.828,-1.047 -0.867,-1.047 -1.047,-0.863 -1.047,-0.797 -1.117,-0.719 -1.192,-0.578 -1.371,-0.469 -1.261,-0.324 -1.446,-0.219 -1.371,-0.105 -1.406,0.105 -1.371,0.219 -1.371,0.324 -1.262,0.469 -1.226,0.578 -1.192,0.719 -1.012,0.797 -0.972,0.863 -0.973,1.047 -0.797,1.047 -0.648,1.117 -0.614,1.266 -0.503,1.297 -0.289,1.261 -0.254,1.446 z m -13.996,0 v -43.476 l 0.07,-1.371 0.109,-1.446 0.145,-1.441 0.25,-1.336 0.324,-1.371 0.398,-1.262 0.399,-1.301 0.539,-1.261 0.578,-1.297 0.543,-1.192 0.719,-1.121 0.722,-1.117 0.793,-1.117 0.832,-1.047 0.864,-1.047 0.867,-0.937 0.973,-0.903 1.046,-0.867 1.012,-0.863 1.117,-0.723 1.157,-0.722 1.191,-0.719 1.187,-0.543 1.192,-0.649 1.301,-0.507 1.261,-0.395 1.371,-0.398 1.262,-0.325 1.445,-0.214 1.372,-0.184 1.441,-0.07 1.406,-0.071 1.446,0.071 1.371,0.07 1.441,0.184 1.336,0.214 1.371,0.325 1.301,0.398 1.262,0.395 1.296,0.507 1.266,0.649 1.188,0.543 1.121,0.719 2.234,1.445 1.047,0.863 1.047,0.867 0.937,0.903 0.977,0.937 0.793,1.047 0.863,1.047 0.832,1.117 0.723,1.117 0.613,1.121 0.649,1.192 0.539,1.297 0.507,1.261 0.395,1.301 0.398,1.262 0.325,1.371 0.253,1.336 0.145,1.441 0.18,1.446 v 46.289 l -0.18,1.445 -0.145,1.441 -0.253,1.336 -0.325,1.371 -0.398,1.262 -0.395,1.301 -0.507,1.262 -0.539,1.297 -0.649,1.191 -0.613,1.121 -0.723,1.117 -0.832,1.117 -0.863,1.047 -0.793,1.047 -0.977,0.938 -0.937,0.902 -1.047,0.867 -1.047,0.864 -2.234,1.445 -1.121,0.722 -1.188,0.575 -1.266,0.543 -1.296,0.578 -1.262,0.394 -1.301,0.399 -1.371,0.324 -1.336,0.215 -1.441,0.183 -1.371,0.071 -1.446,0.074 -1.406,-0.074 -1.441,-0.071 -1.372,-0.183 -1.445,-0.215 -1.262,-0.324 -1.371,-0.399 -1.261,-0.394 -1.301,-0.578 -1.192,-0.543 -1.187,-0.575 -1.191,-0.722 -1.157,-0.723 -1.117,-0.722 -1.012,-0.864 -1.046,-0.867 -0.973,-0.902 -0.867,-0.938 -0.864,-1.047 -0.832,-1.047 -0.793,-1.117 -0.722,-1.117 -0.719,-1.121 -0.543,-1.191 -0.578,-1.297 -0.539,-1.262 -0.399,-1.301 -0.398,-1.262 -0.324,-1.371 -0.25,-1.336 -0.145,-1.441 -0.109,-1.445 z" /><path
         id="path12360"
         style="fill:#000000;fill-opacity:1;fill-rule:evenodd;stroke:none"
         d="m 824.156,1862.57 0.074,1.442 0.254,1.445 0.325,1.262 0.468,1.297 0.578,1.265 0.719,1.117 0.793,1.047 0.867,1.047 1.047,0.863 1.047,0.797 1.192,0.719 1.187,0.578 1.301,0.469 1.262,0.324 1.445,0.219 1.441,0.109 1.336,-0.109 1.442,-0.219 1.3,-0.324 1.262,-0.469 1.301,-0.578 1.117,-0.719 1.012,-0.797 1.043,-0.863 0.902,-1.047 0.797,-1.047 0.719,-1.117 0.543,-1.265 0.504,-1.297 0.289,-1.262 0.254,-1.445 0.07,-1.442 v -43.476 l -0.07,-1.371 -0.254,-1.446 -0.289,-1.261 -0.504,-1.297 -0.543,-1.266 -0.719,-1.117 -0.797,-1.047 -0.902,-1.047 -1.043,-0.863 -1.012,-0.797 -1.117,-0.719 -1.301,-0.578 -1.262,-0.469 -1.3,-0.324 -1.442,-0.219 -1.336,-0.105 -1.441,0.105 -1.445,0.219 -1.262,0.324 -1.301,0.469 -1.187,0.578 -1.192,0.719 -1.047,0.797 -1.047,0.863 -0.867,1.047 -0.793,1.047 -0.719,1.117 -0.578,1.266 -0.468,1.297 -0.325,1.261 -0.254,1.446 -0.074,1.371 z m -13.89,0 v -43.476 l 0.074,-1.371 0.07,-1.446 0.145,-1.441 0.254,-1.336 0.324,-1.371 0.398,-1.262 0.395,-1.301 0.578,-1.261 0.543,-1.297 0.574,-1.192 0.723,-1.121 0.687,-1.117 0.758,-1.117 0.863,-1.047 0.868,-1.047 0.902,-0.937 0.937,-0.903 1.047,-0.867 1.047,-0.863 2.235,-1.445 1.191,-0.719 1.191,-0.543 1.227,-0.649 1.262,-0.507 1.265,-0.395 1.297,-0.398 1.336,-0.325 1.441,-0.214 1.372,-0.184 1.445,-0.07 1.441,-0.071 1.446,0.071 1.332,0.07 1.445,0.184 1.371,0.214 1.371,0.325 1.262,0.398 1.262,0.395 1.3,0.507 1.262,0.649 1.227,0.543 1.117,0.719 1.121,0.722 1.117,0.723 1.012,0.863 1.047,0.867 0.972,0.903 0.868,0.937 0.902,1.047 0.863,1.047 1.445,2.234 0.719,1.121 0.613,1.192 0.579,1.297 0.468,1.261 0.399,1.301 0.398,1.262 0.324,1.371 0.25,1.336 0.145,1.441 0.109,1.446 0.071,1.371 v 43.476 l -0.071,1.442 -0.109,1.445 -0.145,1.441 -0.25,1.336 -0.324,1.371 -0.398,1.262 -0.399,1.301 -0.468,1.262 -0.579,1.297 -0.613,1.191 -0.719,1.121 -1.445,2.234 -0.863,1.047 -0.902,1.047 -0.868,0.938 -0.972,0.902 -1.047,0.867 -1.012,0.864 -1.117,0.722 -1.121,0.723 -1.117,0.722 -1.227,0.575 -1.262,0.543 -1.3,0.578 -1.262,0.394 -1.262,0.399 -1.371,0.324 -1.371,0.215 -1.445,0.183 -1.332,0.071 -1.446,0.074 -1.441,-0.074 -1.445,-0.071 -1.372,-0.183 -1.441,-0.215 -1.336,-0.324 -1.297,-0.399 -1.265,-0.394 -1.262,-0.578 -1.227,-0.543 -1.191,-0.575 -1.191,-0.722 -2.235,-1.445 -1.047,-0.864 -1.047,-0.867 -0.937,-0.902 -0.902,-0.938 -0.868,-1.047 -0.863,-1.047 -0.758,-1.117 -0.687,-1.117 -0.723,-1.121 -0.574,-1.191 -0.543,-1.297 -0.578,-1.262 -0.395,-1.301 -0.398,-1.262 -0.324,-1.371 -0.254,-1.336 -0.145,-1.441 -0.07,-1.445 z" /><path
         id="path12362"
         style="fill:#000000;fill-opacity:1;fill-rule:evenodd;stroke:none"
         d="m 738.957,1844.344 v -52.211 h 52.207 v 13.93 H 751.98 v 21.972 l 1.047,-0.797 1.047,-0.718 1.117,-0.653 1.118,-0.539 1.121,-0.578 1.187,-0.469 1.121,-0.398 1.192,-0.395 1.187,-0.254 1.227,-0.214 1.191,-0.254 1.192,-0.071 1.191,-0.109 h 1.227 l 1.191,0.109 1.191,0.071 1.188,0.144 1.226,0.254 2.383,0.649 1.117,0.398 1.122,0.394 1.117,0.543 1.117,0.575 1.047,0.543 1.047,0.722 1.011,0.719 0.973,0.832 0.973,0.793 0.867,0.867 0.867,0.973 0.902,1.012 1.188,1.695 1.121,1.84 0.863,1.84 0.832,1.984 0.614,1.984 0.398,2.094 0.18,1.047 0.144,1.043 v 1.047 l 0.071,1.121 v 14.684 l -0.071,1.441 -0.074,1.445 -0.145,1.442 -0.25,1.336 -0.328,1.371 -0.394,1.261 -0.469,1.301 -0.508,1.297 -0.539,1.266 -0.578,1.187 -0.723,1.121 -0.683,1.117 -0.832,1.118 -0.793,1.047 -0.863,1.046 -0.903,0.938 -1.012,0.902 -0.972,0.867 -1.047,0.868 -1.121,0.754 -1.117,0.687 -1.192,0.758 -1.187,0.539 -1.192,0.543 -1.3,0.578 -1.262,0.395 -1.371,0.398 -1.262,0.324 -1.445,0.254 -1.371,0.145 -1.442,0.07 -1.445,0.109 -1.262,-0.109 -1.371,-0.07 -1.262,-0.145 -1.371,-0.18 -1.191,-0.328 -1.297,-0.324 -1.191,-0.394 -1.192,-0.399 -1.191,-0.539 -1.117,-0.508 -1.121,-0.613 -1.118,-0.649 -1.047,-0.722 -1.046,-0.719 -0.973,-0.797 -0.938,-0.793 -0.976,-0.902 -0.793,-0.863 -0.863,-0.942 -0.832,-0.972 -0.684,-1.047 -0.723,-1.047 -0.648,-1.117 -0.543,-1.118 -0.578,-1.191 -0.574,-1.117 -0.399,-1.192 -0.398,-1.3 -0.325,-1.262 -0.289,-1.301 -0.179,-1.262 -0.145,-1.371 h 13.965 l 0.434,1.371 0.359,1.372 0.648,1.261 0.723,1.121 0.793,1.118 0.902,0.972 0.938,0.942 1.121,0.793 1.117,0.648 1.227,0.648 1.261,0.469 1.262,0.328 1.371,0.25 1.371,0.075 1.371,-0.075 1.411,-0.179 1.226,-0.325 1.188,-0.398 1.047,-0.469 1.121,-0.539 0.937,-0.652 0.973,-0.719 0.867,-0.797 0.793,-0.898 0.648,-0.942 0.653,-1.043 0.539,-1.047 0.504,-1.121 0.289,-1.117 0.324,-1.191 0.184,-1.192 v -14.863 l -0.254,-1.371 -0.325,-1.371 -0.468,-1.262 -0.649,-1.191 -0.652,-1.117 -0.793,-1.157 -0.938,-0.937 -0.972,-0.867 -1.047,-0.828 -1.191,-0.688 -1.192,-0.574 -1.297,-0.473 -1.336,-0.324 -1.371,-0.25 -1.445,-0.074 h -0.938 l -0.972,0.144 -0.977,0.18 -0.937,0.254 -0.973,0.289 -0.867,0.324 -0.863,0.504 -0.832,0.469 -0.793,0.469 -0.723,0.652 -0.723,0.648 -0.718,0.614 -0.614,0.793 -0.578,0.832 -0.469,0.793 -0.468,0.867 z" /><path
         id="path12364"
         style="fill:#000000;fill-opacity:1;fill-rule:nonzero;stroke:none"
         d="m 416.902,207.246 v -98.402 h 62.946 v 14.117 h -48.02 v 28.973 h 40.926 v 13.304 h -40.926 v 42.008 z" /><path
         id="path12366"
         style="fill:#000000;fill-opacity:1;fill-rule:nonzero;stroke:none"
         d="m 494.336,183.742 v -46.597 h 14.117 v 41.804 c 0,4.774 1.305,8.489 3.914,11.145 2.656,2.609 6.012,3.914 10.067,3.914 3.914,0 7.179,-1.305 9.793,-3.914 2.656,-2.656 3.984,-6.371 3.984,-11.145 v -41.804 h 14.113 v 70.101 h -14.113 v -7.43 h -0.27 c -4.367,5.497 -10.402,8.243 -18.101,8.243 -5.539,0 -10.852,-2.051 -15.938,-6.149 -5.043,-4.14 -7.566,-10.195 -7.566,-18.168 z m 31.945,-57.472 v -14.926 h 14.926 v 14.926 z m -24.383,0 v -14.926 h 14.997 v 14.926 z" /><path
         id="path12368"
         style="fill:#000000;fill-opacity:1;fill-rule:nonzero;stroke:none"
         d="m 564.816,195.563 9.86,-9.727 c 6.125,5.988 13.484,8.984 22.086,8.984 4.008,0 7.316,-0.742 9.926,-2.23 2.613,-1.531 3.917,-3.781 3.917,-6.754 0,-4.094 -2.859,-6.391 -8.578,-6.887 l -12.425,-1.148 c -5.809,-0.449 -10.625,-2.363 -14.454,-5.742 -3.828,-3.375 -5.742,-8.082 -5.742,-14.114 0,-7.113 2.5,-12.496 7.5,-16.14 4.996,-3.649 11.211,-5.473 18.637,-5.473 6.125,0 11.371,0.879 15.738,2.633 4.367,1.711 8.285,4.008 11.75,6.89 l -8.711,10.266 c -2.793,-1.891 -5.672,-3.445 -8.644,-4.66 -2.973,-1.215 -6.348,-1.824 -10.133,-1.824 -4.5,0 -7.629,0.812 -9.387,2.433 -1.754,1.575 -2.633,3.578 -2.633,6.008 0,1.531 0.653,2.949 1.957,4.258 1.309,1.305 3.739,2.094 7.297,2.363 l 11.614,0.809 c 7.25,0.496 12.449,2.746 15.601,6.754 3.153,3.965 4.731,8.715 4.731,14.25 0,6.89 -2.817,12.203 -8.446,15.941 -5.625,3.735 -12.492,5.606 -20.597,5.606 -11.66,0 -21.95,-4.164 -30.864,-12.496 z" /><path
         id="path12370"
         style="fill:#000000;fill-opacity:1;fill-rule:nonzero;stroke:none"
         d="m 639.211,195.563 9.859,-9.727 c 6.125,5.988 13.489,8.984 22.086,8.984 4.008,0 7.317,-0.742 9.93,-2.23 2.609,-1.531 3.918,-3.781 3.918,-6.754 0,-4.094 -2.859,-6.391 -8.578,-6.887 l -12.43,-1.148 c -5.808,-0.449 -10.625,-2.363 -14.453,-5.742 -3.824,-3.375 -5.738,-8.082 -5.738,-14.114 0,-7.113 2.5,-12.496 7.496,-16.14 4.996,-3.649 11.211,-5.473 18.64,-5.473 6.122,0 11.368,0.879 15.735,2.633 4.367,1.711 8.285,4.008 11.754,6.89 l -8.715,10.266 c -2.789,-1.891 -5.672,-3.445 -8.645,-4.66 -2.968,-1.215 -6.347,-1.824 -10.129,-1.824 -4.503,0 -7.632,0.812 -9.386,2.433 -1.758,1.575 -2.637,3.578 -2.637,6.008 0,1.531 0.656,2.949 1.961,4.258 1.305,1.305 3.734,2.094 7.293,2.363 l 11.617,0.809 c 7.25,0.496 12.449,2.746 15.602,6.754 3.152,3.965 4.726,8.715 4.726,14.25 0,6.89 -2.812,12.203 -8.441,15.941 -5.629,3.735 -12.496,5.606 -20.598,5.606 -11.664,0 -21.953,-4.164 -30.867,-12.496 z" /><path
         id="path12372"
         style="fill:#000000;fill-opacity:1;fill-rule:nonzero;stroke:none"
         d="m 771.352,177.531 h -43.629 c 0,5.762 1.554,10.086 4.66,12.965 3.152,2.883 7.16,4.324 12.023,4.324 5.805,0 10.938,-2.25 15.399,-6.754 L 770,196.777 c -3.465,4.055 -7.383,6.957 -11.75,8.715 -4.324,1.711 -8.848,2.567 -13.574,2.567 -7.203,0 -14.184,-2.321 -20.938,-6.957 -6.754,-4.684 -10.129,-14.227 -10.129,-28.637 0,-13.641 3.106,-23.074 9.317,-28.297 6.262,-5.223 12.789,-7.836 19.586,-7.836 7.699,0 14.433,2.68 20.195,8.039 5.762,5.313 8.645,12.492 8.645,21.543 z m -43.629,-11.617 h 29.582 c -0.227,-5.269 -1.711,-9.297 -4.457,-12.09 -2.746,-2.789 -6.192,-4.187 -10.336,-4.187 -4.184,0 -7.676,1.398 -10.465,4.187 -2.746,2.793 -4.188,6.821 -4.324,12.09 z" /><path
         id="path12374"
         style="fill:#000000;fill-opacity:1;fill-rule:nonzero;stroke:none"
         d="m 785.844,207.246 v -70.101 h 14.113 v 7.496 h 0.27 c 4.367,-5.539 10.445,-8.309 18.234,-8.309 5.449,0 10.695,2.07 15.738,6.215 5.086,4.141 7.633,10.176 7.633,18.098 v 46.601 h -14.117 v -41.738 c 0,-4.727 -1.328,-8.418 -3.985,-11.074 -2.613,-2.657 -5.875,-3.985 -9.792,-3.985 -4.051,0 -7.407,1.328 -10.063,3.985 -2.613,2.656 -3.918,6.347 -3.918,11.074 v 41.738 z" /><path
         id="path12376"
         style="fill:#000000;fill-opacity:1;fill-rule:nonzero;stroke:none"
         d="m 416.902,362.074 v -98.136 h 14.883 v 84.128 h 47.891 v 14.008 z" /><path
         id="path12378"
         style="fill:#000000;fill-opacity:1;fill-rule:nonzero;stroke:none"
         d="m 537.516,362.344 v -6.196 h -0.27 c -1.305,2.426 -3.258,4.176 -5.859,5.254 -2.785,1.168 -6.422,1.75 -10.914,1.75 -7.723,-0.179 -13.559,-2.246 -17.512,-6.195 -4.309,-3.953 -6.465,-9.004 -6.465,-15.156 0,-5.836 1.863,-10.731 5.59,-14.684 3.727,-3.949 9.227,-5.972 16.504,-6.062 h 18.926 v -7.407 c 0.043,-6.199 -4.602,-9.207 -13.942,-9.027 -3.234,0 -5.929,0.359 -8.082,1.078 -2.113,0.942 -3.707,2.403 -4.785,4.379 L 499.93,301.59 c 5.211,-6.957 12.867,-10.348 22.968,-10.168 8.489,-0.09 15.313,1.57 20.477,4.984 5.074,3.547 7.656,9.563 7.746,18.051 v 47.887 z m 0,-24.582 v -5.121 h -16.368 c -7.992,0.226 -11.945,3.054 -11.855,8.488 0,2.332 1.035,4.355 3.098,6.062 1.976,1.84 5.23,2.758 9.765,2.758 5.75,0.09 9.789,-0.605 12.125,-2.086 2.157,-1.48 3.235,-4.851 3.235,-10.101 z" /><path
         id="path12380"
         style="fill:#000000;fill-opacity:1;fill-rule:nonzero;stroke:none"
         d="M 567.941,362.074 V 292.16 h 14.079 v 7.477 h 0.269 c 4.356,-5.524 10.418,-8.285 18.184,-8.285 5.433,0 10.664,2.066 15.695,6.199 5.074,4.129 7.609,10.148 7.609,18.051 v 46.472 h -14.074 v -41.625 c 0,-4.715 -1.328,-8.394 -3.976,-11.047 -2.606,-2.648 -5.86,-3.972 -9.766,-3.972 -4.043,0 -7.387,1.324 -10.035,3.972 -2.606,2.653 -3.906,6.332 -3.906,11.047 v 41.625 z" /><path
         id="path12382"
         style="fill:#000000;fill-opacity:1;fill-rule:nonzero;stroke:none"
         d="m 682.359,362.074 v -7.273 c -4.894,5.387 -10.91,8.082 -18.05,8.082 -4.313,0 -8.016,-0.832 -11.114,-2.492 -3.097,-1.707 -5.636,-3.883 -7.613,-6.532 -1.973,-2.472 -3.301,-5.39 -3.973,-8.757 -0.671,-3.414 -1.011,-9.43 -1.011,-18.051 0,-8.531 0.34,-14.457 1.011,-17.781 0.672,-3.368 2,-6.309 3.973,-8.825 1.977,-2.605 4.516,-4.757 7.613,-6.465 3.098,-1.75 6.801,-2.628 11.114,-2.628 3.589,0 6.847,0.765 9.765,2.293 2.918,1.523 5.68,3.523 8.285,5.992 v -35.696 h 14.079 v 98.133 z M 668.617,305.43 c -6.644,0 -10.64,2.269 -11.988,6.804 -1.301,4.536 -1.953,9.473 -1.953,14.817 0,5.476 0.652,10.484 1.953,15.019 1.348,4.535 5.344,6.805 11.988,6.805 6.512,0 10.418,-2.359 11.723,-7.074 1.344,-4.715 2.019,-9.633 2.019,-14.75 0,-4.985 -0.675,-9.832 -2.019,-14.547 -1.305,-4.715 -5.211,-7.074 -11.723,-7.074 z" /><path
         id="path12384"
         style="fill:#000000;fill-opacity:1;fill-rule:nonzero;stroke:none"
         d="m 713.258,350.422 9.832,-9.699 c 6.109,5.972 13.449,8.961 22.027,8.961 3.996,0 7.293,-0.743 9.899,-2.223 2.605,-1.527 3.906,-3.773 3.906,-6.738 0,-4.086 -2.852,-6.375 -8.555,-6.871 l -12.39,-1.145 c -5.793,-0.449 -10.598,-2.355 -14.414,-5.723 -3.817,-3.367 -5.727,-8.062 -5.727,-14.078 0,-7.093 2.492,-12.461 7.477,-16.097 4.984,-3.637 11.179,-5.457 18.589,-5.457 6.106,0 11.34,0.878 15.696,2.628 4.355,1.708 8.261,3.997 11.718,6.872 l -8.687,10.234 c -2.785,-1.883 -5.66,-3.434 -8.625,-4.645 -2.961,-1.214 -6.328,-1.82 -10.102,-1.82 -4.488,0 -7.609,0.809 -9.363,2.426 -1.75,1.57 -2.625,3.57 -2.625,5.996 0,1.523 0.652,2.937 1.953,4.242 1.301,1.301 3.727,2.086 7.274,2.356 l 11.586,0.808 c 7.23,0.496 12.414,2.739 15.558,6.735 3.145,3.953 4.715,8.691 4.715,14.214 0,6.868 -2.805,12.168 -8.418,15.895 -5.613,3.727 -12.461,5.59 -20.543,5.59 -11.633,0 -21.891,-4.153 -30.781,-12.461 z" /><path
         id="path12386"
         style="fill:#000000;fill-opacity:1;fill-rule:nonzero;stroke:none"
         d="m 789.82,362.074 v -98.133 h 14.078 v 35.696 c 2.606,-2.469 5.344,-4.469 8.215,-5.992 2.922,-1.528 6.2,-2.293 9.836,-2.293 4.266,0 7.949,0.878 11.047,2.628 3.098,1.708 5.656,3.86 7.676,6.465 1.933,2.516 3.234,5.457 3.906,8.825 0.719,3.324 1.078,9.25 1.078,17.781 0,8.621 -0.359,14.637 -1.078,18.051 -0.672,3.367 -1.973,6.285 -3.906,8.757 -2.02,2.649 -4.578,4.825 -7.676,6.532 -3.098,1.66 -6.781,2.492 -11.047,2.492 -7.183,0 -13.203,-2.695 -18.051,-8.082 v 7.273 z m 27.887,-56.644 c -6.602,0 -10.555,2.359 -11.855,7.074 -1.301,4.715 -1.954,9.562 -1.954,14.547 0,5.117 0.653,10.035 1.954,14.75 1.3,4.715 5.253,7.074 11.855,7.074 6.598,0 10.551,-2.27 11.852,-6.805 1.347,-4.535 2.023,-9.543 2.023,-15.019 0,-5.344 -0.676,-10.281 -2.023,-14.817 -1.301,-4.535 -5.254,-6.804 -11.852,-6.804 z" /><path
         id="path12388"
         style="fill:#000000;fill-opacity:1;fill-rule:nonzero;stroke:none"
         d="m 920.066,332.438 h -43.511 c 0,5.75 1.55,10.058 4.648,12.933 3.145,2.875 7.141,4.313 11.988,4.313 5.793,0 10.914,-2.246 15.36,-6.739 l 10.168,8.692 c -3.457,4.039 -7.364,6.937 -11.719,8.687 -4.312,1.707 -8.824,2.559 -13.539,2.559 -7.184,0 -14.145,-2.313 -20.879,-6.938 -6.734,-4.668 -10.102,-14.187 -10.102,-28.558 0,-13.606 3.098,-23.012 9.293,-28.219 6.243,-5.211 12.754,-7.816 19.532,-7.816 7.679,0 14.394,2.671 20.14,8.015 5.746,5.301 8.621,12.461 8.621,21.488 z m -43.511,-11.583 h 29.504 c -0.227,-5.253 -1.707,-9.273 -4.446,-12.058 -2.742,-2.781 -6.175,-4.176 -10.308,-4.176 -4.176,0 -7.653,1.395 -10.438,4.176 -2.738,2.785 -4.176,6.805 -4.312,12.058 z" /><path
         id="path12390"
         style="fill:#000000;fill-opacity:1;fill-rule:nonzero;stroke:none"
         d="M 942.887,362.074 V 292.16 h 14.078 v 7.477 h 0.269 c 4.356,-5.524 10.418,-8.285 18.188,-8.285 5.117,0 9.988,1.796 14.613,5.39 l -10.168,12.121 c -3.054,-2.289 -6.152,-3.433 -9.297,-3.433 -3.457,0 -6.601,1.168 -9.429,3.504 -2.786,2.289 -4.176,5.992 -4.176,11.113 v 42.027 z" /><path
         id="path12392"
         style="fill:#000000;fill-opacity:1;fill-rule:nonzero;stroke:none"
         d="m 1042.367,363.137 v -7.164 c -4.863,5.355 -10.844,8.035 -17.941,8.035 -4.551,0 -8.367,-0.895 -11.449,-2.68 -3.032,-1.828 -5.332,-3.746 -6.895,-5.758 -2.008,-2.586 -3.391,-5.332 -4.148,-8.23 -0.715,-2.902 -1.075,-9.172 -1.075,-18.813 0,-9.64 0.36,-15.91 1.075,-18.812 0.757,-2.902 2.14,-5.668 4.148,-8.301 1.563,-1.965 3.863,-3.863 6.895,-5.691 3.082,-1.875 6.898,-2.813 11.449,-2.813 6.785,0 12.765,2.746 17.941,8.235 v -7.43 h 13.992 v 67.883 c 0,10.441 -3.058,18.14 -9.171,23.097 -6.071,4.953 -13.055,7.43 -20.954,7.43 -4.464,0 -8.836,-1.07 -13.121,-3.215 -4.285,-2.14 -7.968,-4.953 -11.047,-8.433 l 10.844,-8.637 c 1.695,1.695 3.707,3.168 6.028,4.418 2.363,1.25 4.886,1.875 7.562,1.875 4.645,0 8.438,-1.293 11.383,-3.883 2.988,-2.59 4.484,-6.293 4.484,-11.113 z m -27.515,-34.61 c 0,5.578 0.136,9.282 0.402,11.114 0.312,1.828 1.094,3.523 2.344,5.086 0.937,1.25 2.32,2.457 4.152,3.617 1.828,1.16 4.148,1.738 6.961,1.738 2.723,0 4.977,-0.578 6.762,-1.738 1.828,-1.16 3.234,-2.367 4.218,-3.617 1.204,-1.563 1.942,-3.258 2.207,-5.086 0.313,-1.832 0.469,-5.536 0.469,-11.114 0,-5.578 -0.156,-9.285 -0.469,-11.113 -0.265,-1.832 -1.003,-3.551 -2.207,-5.156 -0.984,-1.203 -2.39,-2.387 -4.218,-3.547 -1.785,-1.207 -4.039,-1.809 -6.762,-1.809 -2.813,0 -5.133,0.602 -6.961,1.809 -1.832,1.16 -3.215,2.344 -4.152,3.547 -1.25,1.605 -2.032,3.324 -2.344,5.156 -0.266,1.828 -0.402,5.535 -0.402,11.113 z" /><path
         id="path12394"
         style="fill:#000000;fill-opacity:1;fill-rule:nonzero;stroke:none"
         d="m 1155.43,362.344 v -6.196 h -0.27 c -1.301,2.426 -3.254,4.176 -5.859,5.254 -2.785,1.168 -6.422,1.75 -10.91,1.75 -7.727,-0.179 -13.563,-2.246 -17.516,-6.195 -4.309,-3.953 -6.465,-9.004 -6.465,-15.156 0,-5.836 1.863,-10.731 5.59,-14.684 3.727,-3.949 9.23,-5.972 16.504,-6.062 h 18.926 v -7.407 c 0.047,-6.199 -4.602,-9.207 -13.942,-9.027 -3.234,0 -5.929,0.359 -8.082,1.078 -2.113,0.942 -3.707,2.403 -4.785,4.379 l -10.773,-8.488 c 5.207,-6.957 12.863,-10.348 22.965,-10.168 8.488,-0.09 15.312,1.57 20.476,4.984 5.074,3.547 7.656,9.563 7.746,18.051 v 47.887 z m 0,-24.582 v -5.121 h -16.367 c -7.993,0.226 -11.946,3.054 -11.856,8.488 0,2.332 1.035,4.355 3.098,6.062 1.976,1.84 5.234,2.758 9.769,2.758 5.746,0.09 9.785,-0.605 12.121,-2.086 2.157,-1.48 3.235,-4.851 3.235,-10.101 z" /><path
         id="path12396"
         style="fill:#000000;fill-opacity:1;fill-rule:nonzero;stroke:none"
         d="m 1185.066,348.066 h 14.074 v 14.008 h -14.074 z" /><path
         id="path12398"
         style="fill:#000000;fill-opacity:1;fill-rule:nonzero;stroke:none"
         d="m 1222.563,362.074 v -98.133 h 14.882 v 84.125 h 47.891 v 14.008 z" /><path
         id="path12400"
         style="fill:#000000;fill-opacity:1;fill-rule:nonzero;stroke:none"
         d="m 1352.285,332.438 h -43.512 c 0,5.75 1.551,10.058 4.649,12.933 3.144,2.875 7.141,4.313 11.988,4.313 5.793,0 10.914,-2.246 15.356,-6.739 l 10.172,8.692 c -3.458,4.039 -7.364,6.937 -11.719,8.687 -4.313,1.707 -8.824,2.559 -13.539,2.559 -7.184,0 -14.145,-2.313 -20.879,-6.938 -6.735,-4.668 -10.102,-14.187 -10.102,-28.558 0,-13.606 3.098,-23.012 9.293,-28.219 6.242,-5.211 12.754,-7.816 19.531,-7.816 7.68,0 14.395,2.671 20.141,8.015 5.746,5.301 8.621,12.461 8.621,21.488 z m -43.512,-11.583 h 29.5 c -0.222,-5.253 -1.703,-9.273 -4.445,-12.058 -2.738,-2.781 -6.172,-4.176 -10.305,-4.176 -4.175,0 -7.656,1.395 -10.437,4.176 -2.738,2.785 -4.176,6.805 -4.313,12.058 z" /><path
         id="path12402"
         style="fill:#000000;fill-opacity:1;fill-rule:nonzero;stroke:none"
         d="m 1411.188,341.531 10.375,9.297 c -3.055,3.5 -6.692,6.399 -10.915,8.688 -4.175,2.246 -8.91,3.367 -14.21,3.367 -8.083,0 -15.403,-2.738 -21.958,-8.219 -6.511,-5.519 -9.765,-14.68 -9.765,-27.48 0,-12.797 3.254,-21.957 9.765,-27.481 6.555,-5.566 13.875,-8.351 21.958,-8.351 5.3,0 10.035,1.148 14.21,3.437 4.223,2.289 7.86,5.184 10.915,8.688 l -10.375,9.226 c -3.95,-4.848 -8.688,-7.273 -14.211,-7.273 -12.122,0 -18.184,7.254 -18.184,21.754 0,14.461 6.062,21.691 18.184,21.691 5.57,0 10.304,-2.449 14.211,-7.344 z" /><path
         id="path12404"
         style="fill:#000000;fill-opacity:1;fill-rule:nonzero;stroke:none"
         d="m 1436.66,362.074 v -98.133 h 14.074 v 35.696 h 0.27 c 4.355,-5.524 10.418,-8.285 18.187,-8.285 5.434,0 10.664,2.066 15.692,6.199 5.074,4.129 7.613,10.148 7.613,18.051 v 46.472 h -14.078 v -41.625 c 0,-4.715 -1.324,-8.394 -3.973,-11.047 -2.605,-2.648 -5.859,-3.972 -9.769,-3.972 -4.039,0 -7.383,1.324 -10.035,3.972 -2.602,2.653 -3.907,6.332 -3.907,11.047 v 41.625 z" /><path
         id="path12406"
         style="fill:#000000;fill-opacity:1;fill-rule:nonzero;stroke:none"
         d="m 451.555,477.34 v -13.953 h 34.582 v 19.828 c 0,9.66 -3.36,17.828 -10.082,24.504 -6.719,6.676 -14.934,10.015 -24.637,10.015 -7.652,0 -14.086,-1.824 -19.293,-5.476 -5.164,-3.695 -8.879,-7.676 -11.148,-11.949 -1.606,-2.852 -2.719,-5.965 -3.34,-9.348 -0.625,-3.383 -0.934,-10.926 -0.934,-22.633 0,-11.707 0.309,-19.25 0.934,-22.633 0.621,-3.382 1.734,-6.5 3.34,-9.347 2.269,-4.231 5.984,-8.215 11.148,-11.953 5.207,-3.739 11.641,-5.606 19.293,-5.606 9.215,0 16.824,2.848 22.836,8.543 6.051,5.652 9.836,12.418 11.348,20.297 h -15.555 c -1.203,-3.738 -3.449,-7.008 -6.742,-9.813 -3.25,-2.804 -7.211,-4.207 -11.887,-4.207 -3.469,0 -6.477,0.711 -9.012,2.137 -2.535,1.426 -4.539,3.07 -6.008,4.942 -1.914,2.492 -3.226,5.23 -3.941,8.21 -0.668,2.981 -1,9.457 -1,19.43 0,10.016 0.332,16.512 1,19.496 0.715,2.981 2.027,5.672 3.941,8.078 1.469,1.957 3.473,3.649 6.008,5.075 2.535,1.378 5.543,2.066 9.012,2.066 5.609,0 10.328,-1.91 14.156,-5.738 3.871,-3.828 5.809,-8.817 5.809,-14.957 v -5.008 z" /><path
         id="path12408"
         style="fill:#000000;fill-opacity:1;fill-rule:nonzero;stroke:none"
         d="m 544.949,517.199 v -6.144 h -0.269 c -1.289,2.406 -3.227,4.14 -5.809,5.211 -2.758,1.156 -6.363,1.734 -10.816,1.734 -7.653,-0.18 -13.442,-2.227 -17.356,-6.141 -4.273,-3.918 -6.41,-8.925 -6.41,-15.023 0,-5.785 1.848,-10.637 5.539,-14.555 3.695,-3.918 9.149,-5.922 16.36,-6.008 h 18.761 v -7.343 c 0.043,-6.145 -4.562,-9.125 -13.82,-8.95 -3.207,0 -5.875,0.356 -8.012,1.071 -2.094,0.933 -3.672,2.379 -4.742,4.34 l -10.684,-8.414 c 5.164,-6.899 12.754,-10.258 22.77,-10.082 8.41,-0.09 15.176,1.558 20.297,4.941 5.027,3.516 7.586,9.48 7.676,17.894 v 47.469 z m 0,-24.371 v -5.074 h -16.226 c -7.922,0.223 -11.84,3.027 -11.75,8.414 0,2.316 1.023,4.316 3.07,6.008 1.961,1.824 5.187,2.738 9.684,2.738 5.695,0.09 9.703,-0.601 12.015,-2.07 2.137,-1.469 3.207,-4.805 3.207,-10.016 z" /><path
         id="path12410"
         style="fill:#000000;fill-opacity:1;fill-rule:nonzero;stroke:none"
         d="m 576.586,516.934 v -69.305 h 13.953 v 7.41 h 0.266 c 4.32,-5.473 10.328,-8.211 18.027,-8.211 5.074,0 9.902,1.781 14.488,5.344 l -10.082,12.016 c -3.027,-2.27 -6.097,-3.407 -9.215,-3.407 -3.425,0 -6.539,1.16 -9.343,3.473 -2.762,2.269 -4.141,5.941 -4.141,11.016 v 41.664 z" /><path
         id="path12412"
         style="fill:#000000;fill-opacity:1;fill-rule:nonzero;stroke:none"
         d="m 641.473,516.934 v -69.305 h 13.953 v 7.41 h 0.265 c 4.407,-5.473 10.414,-8.211 18.028,-8.211 4.851,0 8.703,0.867 11.551,2.606 2.847,1.734 5.519,3.871 8.011,6.41 5.473,-6.012 12.774,-9.016 21.899,-9.016 5.386,0 10.57,2.047 15.554,6.145 5.032,4.093 7.547,10.058 7.547,17.89 v 46.071 h -13.957 v -41.262 c 0,-4.676 -1.312,-8.324 -3.937,-10.949 -2.625,-2.625 -5.875,-3.942 -9.746,-3.942 -4.008,0 -7.325,1.317 -9.95,3.942 -2.582,2.625 -3.871,6.273 -3.871,10.949 v 41.262 h -13.89 v -41.262 c 0,-4.676 -1.313,-8.324 -3.938,-10.949 -2.625,-2.625 -5.875,-3.942 -9.746,-3.942 -4.008,0 -7.324,1.317 -9.949,3.942 -2.582,2.625 -3.871,6.273 -3.871,10.949 v 41.262 z" /><path
         id="path12414"
         style="fill:#000000;fill-opacity:1;fill-rule:nonzero;stroke:none"
         d="m 756.43,516.934 v -69.305 h 13.957 v 69.305 z m 0,-83.325 v -13.953 h 13.957 v 13.953 z" /><path
         id="path12416"
         style="fill:#000000;fill-opacity:1;fill-rule:nonzero;stroke:none"
         d="m 788.535,505.383 9.75,-9.617 c 6.051,5.922 13.328,8.882 21.832,8.882 3.961,0 7.231,-0.734 9.813,-2.203 2.582,-1.515 3.871,-3.738 3.871,-6.679 0,-4.047 -2.824,-6.321 -8.477,-6.809 l -12.285,-1.133 c -5.742,-0.445 -10.504,-2.34 -14.289,-5.676 -3.781,-3.339 -5.676,-7.992 -5.676,-13.953 0,-7.035 2.473,-12.351 7.414,-15.957 4.938,-3.605 11.082,-5.41 18.426,-5.41 6.055,0 11.238,0.867 15.555,2.606 4.32,1.691 8.191,3.961 11.617,6.808 l -8.613,10.149 c -2.758,-1.868 -5.606,-3.407 -8.543,-4.606 -2.938,-1.203 -6.278,-1.805 -10.016,-1.805 -4.449,0 -7.543,0.801 -9.281,2.407 -1.735,1.554 -2.602,3.535 -2.602,5.941 0,1.512 0.645,2.914 1.934,4.207 1.293,1.289 3.695,2.067 7.211,2.336 l 11.484,0.801 c 7.168,0.488 12.309,2.715 15.422,6.676 3.117,3.918 4.676,8.613 4.676,14.086 0,6.812 -2.785,12.062 -8.348,15.757 -5.562,3.696 -12.351,5.543 -20.363,5.543 -11.527,0 -21.699,-4.117 -30.512,-12.351 z" /><path
         id="path12418"
         style="fill:#000000;fill-opacity:1;fill-rule:nonzero;stroke:none"
         d="m 911.977,496.57 10.281,9.211 c -3.028,3.473 -6.633,6.344 -10.817,8.614 -4.14,2.226 -8.836,3.339 -14.086,3.339 -8.011,0 -15.269,-2.714 -21.765,-8.148 -6.453,-5.473 -9.684,-14.555 -9.684,-27.238 0,-12.684 3.231,-21.766 9.684,-27.239 6.496,-5.519 13.754,-8.281 21.765,-8.281 5.25,0 9.946,1.137 14.086,3.406 4.184,2.27 7.789,5.141 10.817,8.614 l -10.281,9.144 c -3.918,-4.804 -8.614,-7.211 -14.09,-7.211 -12.016,0 -18.024,7.192 -18.024,21.567 0,14.332 6.008,21.5 18.024,21.5 5.519,0 10.215,-2.426 14.09,-7.278 z" /><path
         id="path12420"
         style="fill:#000000;fill-opacity:1;fill-rule:nonzero;stroke:none"
         d="m 940.41,516.934 v -97.278 h 13.953 v 35.383 h 0.266 c 4.316,-5.473 10.324,-8.211 18.027,-8.211 5.383,0 10.571,2.047 15.555,6.145 5.031,4.093 7.543,10.058 7.543,17.89 v 46.071 h -13.953 v -41.262 c 0,-4.676 -1.313,-8.324 -3.938,-10.949 -2.582,-2.625 -5.808,-3.942 -9.679,-3.942 -4.008,0 -7.325,1.317 -9.95,3.942 -2.582,2.625 -3.871,6.273 -3.871,10.949 v 41.262 z" /><path
         id="path12422"
         style="fill:#000000;fill-opacity:1;fill-rule:nonzero;stroke:none"
         d="m 1015.016,472.133 h 41.195 v 13.953 h -41.195 z" /><path
         id="path12424"
         style="fill:#000000;fill-opacity:1;fill-rule:nonzero;stroke:none"
         d="m 1090.223,433.609 v 31.379 h 21.898 c 5.477,0 9.547,-1.644 12.219,-4.941 2.715,-3.293 4.074,-6.875 4.074,-10.746 0,-5.879 -2.117,-10.196 -6.344,-12.953 -2.715,-1.825 -6.211,-2.739 -10.484,-2.739 z m -14.754,83.325 v -97.278 h 35.316 c 3.785,0 7.41,0.399 10.883,1.199 3.516,0.805 7.168,2.672 10.949,5.61 2.938,2.269 5.43,5.41 7.481,9.414 2.047,3.961 3.07,8.57 3.07,13.82 0,6.946 -2.605,13.555 -7.813,19.828 -5.164,6.278 -12.73,9.414 -22.699,9.414 h -22.433 v 37.993 z" /><path
         id="path12426"
         style="fill:#000000;fill-opacity:1;fill-rule:nonzero;stroke:none"
         d="m 1198.863,517.199 v -6.144 h -0.269 c -1.289,2.406 -3.227,4.14 -5.809,5.211 -2.758,1.156 -6.363,1.734 -10.812,1.734 -7.657,-0.18 -13.446,-2.227 -17.36,-6.141 -4.273,-3.918 -6.41,-8.925 -6.41,-15.023 0,-5.785 1.848,-10.637 5.539,-14.555 3.696,-3.918 9.149,-5.922 16.36,-6.008 h 18.761 v -7.343 c 0.043,-6.145 -4.562,-9.125 -13.82,-8.95 -3.207,0 -5.875,0.356 -8.012,1.071 -2.093,0.933 -3.672,2.379 -4.742,4.34 l -10.68,-8.414 c 5.161,-6.899 12.75,-10.258 22.766,-10.082 8.41,-0.09 15.176,1.558 20.297,4.941 5.027,3.516 7.586,9.48 7.676,17.894 v 47.469 z m 0,-24.371 v -5.074 h -16.226 c -7.922,0.223 -11.84,3.027 -11.75,8.414 0,2.316 1.023,4.316 3.07,6.008 1.961,1.824 5.188,2.738 9.684,2.738 5.695,0.09 9.703,-0.601 12.015,-2.07 2.137,-1.469 3.207,-4.805 3.207,-10.016 z" /><path
         id="path12428"
         style="fill:#000000;fill-opacity:1;fill-rule:nonzero;stroke:none"
         d="m 1233.383,516.934 v -69.305 h 13.953 v 7.41 h 0.269 c 4.317,-5.473 10.325,-8.211 18.024,-8.211 5.074,0 9.906,1.781 14.488,5.344 l -10.078,12.016 c -3.027,-2.27 -6.101,-3.407 -9.215,-3.407 -3.429,0 -6.543,1.16 -9.347,3.473 -2.758,2.269 -4.141,5.941 -4.141,11.016 v 41.664 z" /><path
         id="path12430"
         style="fill:#000000;fill-opacity:1;fill-rule:nonzero;stroke:none"
         d="m 1296.098,447.629 v -21.031 h 13.953 v 21.031 h 10.148 v 10.684 h -10.148 v 40.324 c 0,3.472 1.644,5.211 4.941,5.211 h 5.207 v 13.086 h -7.277 c -4.852,0 -8.879,-1.469 -12.086,-4.407 -3.16,-2.941 -4.738,-7.144 -4.738,-12.621 v -41.593 h -6.946 v -10.684 z" /><path
         id="path12432"
         style="fill:#000000;fill-opacity:1;fill-rule:nonzero;stroke:none"
         d="m 1333.617,503.043 h 13.953 v 13.891 h -13.953 z" /><path
         id="path12434"
         style="fill:#000000;fill-opacity:1;fill-rule:nonzero;stroke:none"
         d="m 416.902,870.117 v -98.871 h 38.34 c 9.637,0 16.918,2.488 21.852,7.465 4.976,4.93 7.461,11.285 7.461,19.066 0,4.075 -0.992,7.989 -2.985,11.743 -1.988,3.753 -5.859,6.921 -11.601,9.5 v 0.269 c 5.426,1.27 9.476,4.141 12.144,8.621 2.668,4.434 4.004,9.16 4.004,14.18 0,8.551 -2.738,15.359 -8.211,20.426 -5.429,5.066 -11.851,7.601 -19.273,7.601 z m 38.067,-43.906 H 431.898 V 856 h 23.071 c 5.566,0 9.636,-1.492 12.215,-4.477 2.625,-3.031 3.937,-6.492 3.937,-10.382 0,-3.891 -1.312,-7.352 -3.937,-10.383 -2.579,-3.031 -6.649,-4.547 -12.215,-4.547 z m -1.356,-41.664 h -21.715 v 28.363 h 21.715 c 5.383,0 9.387,-1.379 12.012,-4.137 2.621,-2.761 3.934,-6.109 3.934,-10.043 0,-3.8 -1.313,-7.105 -3.934,-9.91 -2.625,-2.847 -6.629,-4.273 -12.012,-4.273 z" /><path
         id="path12436"
         style="fill:#000000;fill-opacity:1;fill-rule:nonzero;stroke:none"
         d="m 506.07,834.828 c 0,-7.555 0.59,-13.183 1.766,-16.894 1.176,-3.711 3.121,-7.059 5.836,-10.043 1.945,-2.129 4.613,-4.164 8.008,-6.11 3.437,-1.945 7.914,-2.918 13.433,-2.918 5.43,0 9.864,0.973 13.301,2.918 3.438,1.946 6.133,3.981 8.078,6.11 2.711,2.984 4.656,6.332 5.836,10.043 1.176,3.711 1.762,9.339 1.762,16.894 0,7.692 -0.586,13.395 -1.762,17.102 -1.18,3.711 -3.125,7.058 -5.836,10.043 -1.945,2.172 -4.64,4.207 -8.078,6.109 -3.437,1.898 -7.871,2.848 -13.301,2.848 -5.519,0 -9.996,-0.95 -13.433,-2.848 -3.395,-1.902 -6.063,-3.937 -8.008,-6.109 -2.715,-2.985 -4.66,-6.332 -5.836,-10.043 -1.176,-3.707 -1.766,-9.41 -1.766,-17.102 z m 43.907,0.137 c 0,-5.11 -0.274,-8.707 -0.817,-10.789 -0.496,-2.082 -1.379,-4.071 -2.644,-5.973 -2.489,-3.437 -6.289,-5.156 -11.403,-5.156 -5.199,0 -9,1.719 -11.398,5.156 -1.36,1.902 -2.285,3.891 -2.781,5.973 -0.454,2.082 -0.68,5.633 -0.68,10.652 0,5.16 0.226,8.801 0.68,10.926 0.496,2.082 1.421,4.051 2.781,5.906 2.398,3.438 6.199,5.156 11.398,5.156 5.114,0 8.914,-1.718 11.403,-5.156 1.265,-1.855 2.148,-3.824 2.644,-5.906 0.543,-2.078 0.817,-5.676 0.817,-10.789 z" /><path
         id="path12438"
         style="fill:#000000;fill-opacity:1;fill-rule:nonzero;stroke:none"
         d="m 584.043,870.117 v -98.871 h 14.184 v 35.965 c 2.625,-2.488 5.382,-4.5 8.277,-6.039 2.941,-1.539 6.246,-2.309 9.91,-2.309 4.297,0 8.008,0.883 11.129,2.649 3.121,1.718 5.699,3.89 7.734,6.515 1.946,2.532 3.258,5.496 3.938,8.887 0.723,3.348 1.086,9.32 1.086,17.914 0,8.688 -0.363,14.75 -1.086,18.188 -0.68,3.394 -1.992,6.332 -3.938,8.82 -2.035,2.672 -4.613,4.863 -7.734,6.586 -3.121,1.672 -6.832,2.508 -11.129,2.508 -7.238,0 -13.301,-2.715 -18.187,-8.141 v 7.328 z m 28.094,-57.07 c -6.649,0 -10.629,2.375 -11.942,7.125 -1.312,4.75 -1.968,9.637 -1.968,14.656 0,5.16 0.656,10.113 1.968,14.863 1.313,4.75 5.293,7.125 11.942,7.125 6.652,0 10.633,-2.285 11.945,-6.855 1.356,-4.566 2.035,-9.613 2.035,-15.133 0,-5.383 -0.679,-10.359 -2.035,-14.926 -1.312,-4.57 -5.293,-6.855 -11.945,-6.855 z" /><path
         id="path12440"
         style="fill:#000000;fill-opacity:1;fill-rule:nonzero;stroke:none"
         d="M 661.059,870.117 V 799.68 h 14.179 v 70.437 z m 0,-84.687 v -14.184 h 14.179 v 14.184 z" /><path
         id="path12442"
         style="fill:#000000;fill-opacity:1;fill-rule:nonzero;stroke:none"
         d="M 694.391,870.117 V 799.68 h 14.179 v 7.531 h 0.274 c 4.386,-5.563 10.496,-8.348 18.32,-8.348 5.477,0 10.746,2.082 15.813,6.246 5.113,4.161 7.668,10.223 7.668,18.184 v 46.824 H 736.461 V 828.18 c 0,-4.75 -1.332,-8.461 -4.004,-11.129 -2.621,-2.668 -5.902,-4.004 -9.836,-4.004 -4.074,0 -7.445,1.336 -10.113,4.004 -2.625,2.668 -3.938,6.379 -3.938,11.129 v 41.937 z" /><path
         id="path12444"
         style="fill:#000000;fill-opacity:1;fill-rule:nonzero;stroke:none"
         d="m 812.672,870.047 v -7.258 c -4.93,5.426 -10.992,8.141 -18.188,8.141 -4.613,0 -8.48,-0.903 -11.601,-2.715 -3.078,-1.852 -5.406,-3.797 -6.992,-5.836 -2.036,-2.621 -3.438,-5.406 -4.207,-8.344 -0.723,-2.941 -1.086,-9.297 -1.086,-19.07 0,-9.77 0.363,-16.129 1.086,-19.067 0.769,-2.941 2.171,-5.746 4.207,-8.414 1.586,-1.992 3.914,-3.914 6.992,-5.769 3.121,-1.899 6.988,-2.852 11.601,-2.852 6.879,0 12.938,2.785 18.188,8.348 v -7.531 h 14.183 v 68.808 c 0,10.586 -3.101,18.391 -9.296,23.41 -6.153,5.024 -13.235,7.532 -21.243,7.532 -4.523,0 -8.957,-1.082 -13.3,-3.254 -4.34,-2.172 -8.075,-5.024 -11.196,-8.551 l 10.993,-8.754 c 1.718,1.719 3.753,3.211 6.109,4.477 2.398,1.269 4.953,1.902 7.668,1.902 4.703,0 8.551,-1.312 11.535,-3.937 3.031,-2.625 4.547,-6.379 4.547,-11.266 z m -27.891,-35.082 c 0,5.656 0.137,9.41 0.407,11.265 0.316,1.856 1.109,3.575 2.375,5.157 0.949,1.265 2.351,2.488 4.207,3.664 1.855,1.176 4.207,1.765 7.058,1.765 2.758,0 5.043,-0.589 6.856,-1.765 1.851,-1.176 3.277,-2.399 4.273,-3.664 1.223,-1.582 1.969,-3.301 2.238,-5.157 0.317,-1.855 0.477,-5.609 0.477,-11.265 0,-5.652 -0.16,-9.41 -0.477,-11.266 -0.269,-1.851 -1.015,-3.594 -2.238,-5.222 -0.996,-1.223 -2.422,-2.422 -4.273,-3.598 -1.813,-1.223 -4.098,-1.832 -6.856,-1.832 -2.851,0 -5.203,0.609 -7.058,1.832 -1.856,1.176 -3.258,2.375 -4.207,3.598 -1.266,1.628 -2.059,3.371 -2.375,5.222 -0.27,1.856 -0.407,5.614 -0.407,11.266 z" /><path
         id="path12446"
         style="fill:#000000;fill-opacity:1;fill-rule:nonzero;stroke:none"
         d="m 904.828,840.258 h -43.84 c 0,5.793 1.563,10.133 4.684,13.031 3.168,2.895 7.195,4.34 12.078,4.34 5.836,0 10.996,-2.262 15.473,-6.785 l 10.246,8.754 c -3.481,4.074 -7.418,6.988 -11.805,8.754 -4.344,1.718 -8.891,2.578 -13.641,2.578 -7.238,0 -14.25,-2.328 -21.035,-6.989 -6.789,-4.703 -10.179,-14.296 -10.179,-28.773 0,-13.707 3.121,-23.184 9.363,-28.43 6.289,-5.25 12.848,-7.875 19.68,-7.875 7.734,0 14.5,2.692 20.289,8.078 5.789,5.336 8.687,12.551 8.687,21.645 z m -43.84,-11.672 h 29.723 c -0.223,-5.293 -1.719,-9.34 -4.477,-12.145 -2.761,-2.804 -6.222,-4.207 -10.382,-4.207 -4.207,0 -7.715,1.403 -10.52,4.207 -2.758,2.805 -4.207,6.852 -4.344,12.145 z" /><path
         id="path12448"
         style="fill:#000000;fill-opacity:1;fill-rule:nonzero;stroke:none"
         d="M 924.781,870.117 V 799.68 h 14.184 v 7.531 h 0.269 c 4.391,-5.563 10.496,-8.348 18.325,-8.348 5.472,0 10.742,2.082 15.808,6.246 5.113,4.161 7.668,10.223 7.668,18.184 v 46.824 h -14.18 V 828.18 c 0,-4.75 -1.335,-8.461 -4.003,-11.129 -2.625,-2.668 -5.907,-4.004 -9.84,-4.004 -4.074,0 -7.442,1.336 -10.114,4.004 -2.621,2.668 -3.933,6.379 -3.933,11.129 v 41.937 z" /><path
         id="path12450"
         style="fill:#000000;fill-opacity:1;fill-rule:nonzero;stroke:none"
         d="m 416.902,1025.68 v -98.871 h 14.18 l 28.367,64.468 27.754,-64.468 h 14.184 v 98.871 h -14.996 v -61.684 h -0.274 l -20.699,47.57 h -12.484 l -20.696,-47.57 h -0.34 v 61.684 z" /><path
         id="path12452"
         style="fill:#000000;fill-opacity:1;fill-rule:nonzero;stroke:none"
         d="m 577.84,995.82 h -43.836 c 0,5.793 1.559,10.137 4.684,13.032 3.164,2.894 7.191,4.343 12.078,4.343 5.836,0 10.992,-2.261 15.472,-6.789 l 10.246,8.754 c -3.484,4.074 -7.421,6.992 -11.808,8.754 -4.344,1.719 -8.891,2.582 -13.641,2.582 -7.238,0 -14.25,-2.332 -21.035,-6.992 -6.785,-4.703 -10.18,-14.293 -10.18,-28.77 0,-13.711 3.121,-23.187 9.364,-28.433 6.289,-5.25 12.851,-7.871 19.679,-7.871 7.739,0 14.5,2.691 20.293,8.074 5.789,5.336 8.684,12.555 8.684,21.644 z m -43.836,-11.672 h 29.723 c -0.227,-5.293 -1.719,-9.339 -4.481,-12.144 -2.758,-2.805 -6.219,-4.207 -10.383,-4.207 -4.207,0 -7.711,1.402 -10.515,4.207 -2.762,2.805 -4.207,6.851 -4.344,12.144 z" /><path
         id="path12454"
         style="fill:#000000;fill-opacity:1;fill-rule:nonzero;stroke:none"
         d="m 597.777,1025.68 v -70.438 h 14.18 v 7.531 h 0.273 c 4.387,-5.562 10.497,-8.343 18.321,-8.343 5.16,0 10.066,1.808 14.726,5.425 l -10.246,12.215 c -3.078,-2.304 -6.199,-3.461 -9.363,-3.461 -3.484,0 -6.652,1.176 -9.504,3.532 -2.805,2.304 -4.207,6.039 -4.207,11.195 v 42.344 z" /><path
         id="path12456"
         style="fill:#000000;fill-opacity:1;fill-rule:nonzero;stroke:none"
         d="m 661.059,1025.68 v -70.438 h 14.179 v 70.438 z m 0,-84.688 v -14.183 h 14.179 v 14.183 z" /><path
         id="path12458"
         style="fill:#000000;fill-opacity:1;fill-rule:nonzero;stroke:none"
         d="m 694.828,1025.68 v -70.438 h 14.184 v 7.531 h 0.273 c 4.387,-5.562 10.496,-8.343 18.32,-8.343 5.477,0 10.747,2.078 15.813,6.242 5.113,4.16 7.668,10.223 7.668,18.183 v 46.825 h -14.184 v -41.938 c 0,-4.75 -1.332,-8.457 -4.004,-11.129 -2.621,-2.668 -5.902,-4.004 -9.839,-4.004 -4.071,0 -7.442,1.336 -10.11,4.004 -2.625,2.672 -3.937,6.379 -3.937,11.129 v 41.938 z" /><path
         id="path12460"
         style="fill:#000000;fill-opacity:1;fill-rule:nonzero;stroke:none"
         d="m 811.594,1025.613 v -7.261 c -4.93,5.429 -10.992,8.144 -18.188,8.144 -4.613,0 -8.48,-0.906 -11.601,-2.715 -3.078,-1.855 -5.407,-3.801 -6.992,-5.836 -2.036,-2.625 -3.438,-5.406 -4.208,-8.347 -0.722,-2.942 -1.085,-9.297 -1.085,-19.071 0,-9.769 0.363,-16.125 1.085,-19.066 0.77,-2.941 2.172,-5.746 4.208,-8.414 1.585,-1.992 3.914,-3.914 6.992,-5.77 3.121,-1.898 6.988,-2.847 11.601,-2.847 6.879,0 12.942,2.781 18.188,8.343 v -7.531 h 14.183 v 68.809 c 0,10.586 -3.101,18.39 -9.297,23.41 -6.152,5.023 -13.234,7.535 -21.242,7.535 -4.523,0 -8.957,-1.086 -13.3,-3.258 -4.34,-2.172 -8.075,-5.023 -11.196,-8.55 l 10.992,-8.754 c 1.719,1.718 3.758,3.211 6.11,4.48 2.398,1.266 4.953,1.899 7.668,1.899 4.703,0 8.551,-1.313 11.535,-3.938 3.031,-2.621 4.547,-6.379 4.547,-11.262 z m -27.891,-35.086 c 0,5.657 0.137,9.411 0.406,11.266 0.317,1.855 1.11,3.574 2.375,5.156 0.954,1.27 2.356,2.489 4.207,3.668 1.856,1.176 4.211,1.762 7.059,1.762 2.762,0 5.043,-0.586 6.855,-1.762 1.856,-1.179 3.278,-2.398 4.274,-3.668 1.223,-1.582 1.969,-3.301 2.238,-5.156 0.317,-1.855 0.477,-5.609 0.477,-11.266 0,-5.652 -0.16,-9.406 -0.477,-11.261 -0.269,-1.856 -1.015,-3.598 -2.238,-5.227 -0.996,-1.223 -2.418,-2.422 -4.274,-3.598 -1.812,-1.218 -4.093,-1.832 -6.855,-1.832 -2.848,0 -5.203,0.614 -7.059,1.832 -1.851,1.176 -3.253,2.375 -4.207,3.598 -1.265,1.629 -2.058,3.371 -2.375,5.227 -0.269,1.855 -0.406,5.609 -0.406,11.261 z" /><path
         id="path12462"
         style="fill:#000000;fill-opacity:1;fill-rule:nonzero;stroke:none"
         d="m 416.902,1180.566 v -98.195 h 14.895 v 50.617 h 0.336 l 40.371,-50.617 h 17.723 l -31.473,38.754 34.777,59.441 h -17.66 l -26.824,-47.984 -17.25,18.063 v 29.921 z" /><path
         id="path12464"
         style="fill:#000000;fill-opacity:1;fill-rule:nonzero;stroke:none"
         d="m 506.656,1145.523 c 0,-7.503 0.582,-13.097 1.75,-16.781 1.172,-3.687 3.102,-7.012 5.797,-9.976 1.934,-2.11 4.582,-4.133 7.953,-6.067 3.414,-1.929 7.864,-2.898 13.344,-2.898 5.391,0 9.797,0.969 13.211,2.898 3.414,1.934 6.086,3.957 8.019,6.067 2.696,2.964 4.629,6.289 5.797,9.976 1.168,3.684 1.75,9.278 1.75,16.781 0,7.637 -0.582,13.297 -1.75,16.981 -1.168,3.687 -3.101,7.012 -5.797,9.976 -1.933,2.157 -4.605,4.18 -8.019,6.067 -3.414,1.887 -7.82,2.828 -13.211,2.828 -5.48,0 -9.93,-0.941 -13.344,-2.828 -3.371,-1.887 -6.019,-3.91 -7.953,-6.067 -2.695,-2.964 -4.625,-6.289 -5.797,-9.976 -1.168,-3.684 -1.75,-9.344 -1.75,-16.981 z m 43.606,0.133 c 0,-5.078 -0.27,-8.648 -0.809,-10.715 -0.496,-2.066 -1.371,-4.043 -2.629,-5.929 -2.472,-3.414 -6.246,-5.125 -11.324,-5.125 -5.168,0 -8.941,1.711 -11.32,5.125 -1.348,1.886 -2.27,3.863 -2.766,5.929 -0.449,2.067 -0.672,5.594 -0.672,10.582 0,5.122 0.223,8.739 0.672,10.848 0.496,2.07 1.418,4.024 2.766,5.863 2.379,3.418 6.152,5.125 11.32,5.125 5.078,0 8.852,-1.707 11.324,-5.125 1.258,-1.839 2.133,-3.793 2.629,-5.863 0.539,-2.066 0.809,-5.637 0.809,-10.715 z m -10.11,-45.894 v -14.895 h 14.895 v 14.895 z m -24.261,0 v -14.895 h 14.89 v 14.895 z" /><path
         id="path12466"
         style="fill:#000000;fill-opacity:1;fill-rule:nonzero;stroke:none"
         d="m 583.406,1180.566 v -69.953 h 14.086 v 7.481 h 0.266 c 4.359,-5.528 10.426,-8.293 18.199,-8.293 5.438,0 10.672,2.07 15.703,6.203 5.078,4.133 7.613,10.152 7.613,18.062 v 46.5 h -14.085 v -41.648 c 0,-4.719 -1.325,-8.402 -3.973,-11.055 -2.61,-2.648 -5.863,-3.976 -9.774,-3.976 -4.043,0 -7.39,1.328 -10.043,3.976 -2.605,2.653 -3.91,6.336 -3.91,11.055 v 41.648 z" /><path
         id="path12468"
         style="fill:#000000;fill-opacity:1;fill-rule:nonzero;stroke:none"
         d="m 661.105,1180.566 v -69.953 h 14.086 v 69.953 z m 0,-84.109 v -14.086 h 14.086 v 14.086 z" /><path
         id="path12470"
         style="fill:#000000;fill-opacity:1;fill-rule:nonzero;stroke:none"
         d="m 733.398,1180.5 v -7.211 c -4.898,5.391 -10.918,8.086 -18.062,8.086 -4.582,0 -8.422,-0.898 -11.523,-2.695 -3.055,-1.84 -5.372,-3.774 -6.942,-5.797 -2.023,-2.606 -3.414,-5.367 -4.18,-8.289 -0.718,-2.918 -1.078,-9.231 -1.078,-18.938 0,-9.703 0.36,-16.015 1.078,-18.937 0.766,-2.922 2.157,-5.707 4.18,-8.356 1.57,-1.976 3.887,-3.886 6.942,-5.73 3.101,-1.887 6.941,-2.832 11.523,-2.832 6.832,0 12.852,2.765 18.062,8.293 v -7.481 h 14.086 v 68.336 c 0,10.516 -3.078,18.266 -9.234,23.254 -6.109,4.985 -13.141,7.481 -21.094,7.481 -4.492,0 -8.894,-1.079 -13.211,-3.235 -4.312,-2.16 -8.019,-4.988 -11.117,-8.492 l 10.918,-8.695 c 1.707,1.707 3.727,3.191 6.067,4.449 2.378,1.258 4.917,1.887 7.613,1.887 4.672,0 8.492,-1.305 11.457,-3.91 3.012,-2.606 4.515,-6.336 4.515,-11.188 z m -27.699,-34.844 c 0,5.617 0.137,9.348 0.406,11.188 0.313,1.844 1.098,3.551 2.356,5.121 0.945,1.258 2.34,2.473 4.18,3.64 1.843,1.168 4.179,1.754 7.007,1.754 2.743,0 5.012,-0.586 6.809,-1.754 1.844,-1.167 3.258,-2.382 4.246,-3.64 1.215,-1.57 1.953,-3.277 2.223,-5.121 0.316,-1.84 0.472,-5.571 0.472,-11.188 0,-5.617 -0.156,-9.343 -0.472,-11.187 -0.27,-1.84 -1.008,-3.571 -2.223,-5.188 -0.988,-1.215 -2.402,-2.406 -4.246,-3.574 -1.797,-1.211 -4.066,-1.82 -6.809,-1.82 -2.828,0 -5.164,0.609 -7.007,1.82 -1.84,1.168 -3.235,2.359 -4.18,3.574 -1.258,1.617 -2.043,3.348 -2.356,5.188 -0.269,1.844 -0.406,5.57 -0.406,11.187 z" /><path
         id="path12472"
         style="fill:#000000;fill-opacity:1;fill-rule:nonzero;stroke:none"
         d="m 765.109,1168.91 9.84,-9.707 c 6.114,5.977 13.457,8.965 22.039,8.965 4,0 7.301,-0.742 9.907,-2.227 2.609,-1.527 3.91,-3.773 3.91,-6.738 0,-4.09 -2.852,-6.379 -8.559,-6.875 l -12.402,-1.144 c -5.793,-0.45 -10.602,-2.36 -14.422,-5.731 -3.82,-3.367 -5.727,-8.062 -5.727,-14.086 0,-7.097 2.493,-12.465 7.481,-16.105 4.984,-3.641 11.187,-5.461 18.601,-5.461 6.11,0 11.344,0.879 15.703,2.629 4.356,1.707 8.266,4 11.727,6.875 l -8.695,10.246 c -2.785,-1.887 -5.66,-3.438 -8.625,-4.653 -2.969,-1.21 -6.336,-1.82 -10.11,-1.82 -4.496,0 -7.617,0.809 -9.371,2.426 -1.75,1.574 -2.625,3.574 -2.625,6 0,1.527 0.649,2.941 1.953,4.246 1.301,1.305 3.731,2.09 7.278,2.359 l 11.593,0.809 c 7.235,0.492 12.422,2.738 15.567,6.738 3.144,3.953 4.719,8.696 4.719,14.223 0,6.871 -2.809,12.176 -8.426,15.902 -5.613,3.731 -12.469,5.594 -20.555,5.594 -11.637,0 -21.902,-4.156 -30.801,-12.465 z" /><path
         id="path12474"
         style="fill:#000000;fill-opacity:1;fill-rule:nonzero;stroke:none"
         d="m 842.516,1180.566 v -98.195 h 14.086 v 35.723 c 2.605,-2.473 5.347,-4.473 8.222,-6 2.922,-1.528 6.199,-2.293 9.84,-2.293 4.27,0 7.953,0.879 11.051,2.629 3.101,1.707 5.664,3.867 7.683,6.472 1.934,2.516 3.239,5.457 3.911,8.828 0.718,3.325 1.078,9.254 1.078,17.793 0,8.625 -0.36,14.645 -1.078,18.063 -0.672,3.367 -1.977,6.289 -3.911,8.758 -2.019,2.652 -4.582,4.832 -7.683,6.539 -3.098,1.664 -6.781,2.492 -11.051,2.492 -7.187,0 -13.211,-2.695 -18.062,-8.086 v 7.277 z m 27.902,-56.679 c -6.605,0 -10.559,2.359 -11.863,7.078 -1.301,4.719 -1.953,9.57 -1.953,14.558 0,5.122 0.652,10.04 1.953,14.758 1.304,4.719 5.258,7.078 11.863,7.078 6.605,0 10.559,-2.269 11.863,-6.808 1.348,-4.539 2.02,-9.547 2.02,-15.028 0,-5.347 -0.672,-10.289 -2.02,-14.828 -1.304,-4.539 -5.258,-6.808 -11.863,-6.808 z" /><path
         id="path12476"
         style="fill:#000000;fill-opacity:1;fill-rule:nonzero;stroke:none"
         d="m 916.016,1180.566 v -69.953 h 14.082 v 7.481 h 0.269 c 4.36,-5.528 10.426,-8.293 18.199,-8.293 5.122,0 9.997,1.801 14.625,5.394 l -10.179,12.129 c -3.055,-2.289 -6.153,-3.437 -9.297,-3.437 -3.461,0 -6.606,1.168 -9.438,3.508 -2.785,2.289 -4.179,5.996 -4.179,11.117 v 42.054 z" /><path
         id="path12478"
         style="fill:#000000;fill-opacity:1;fill-rule:nonzero;stroke:none"
         d="m 976.316,1157.113 v -46.5 h 14.086 v 41.715 c 0,4.762 1.305,8.469 3.911,11.121 2.648,2.606 5.996,3.91 10.039,3.91 3.91,0 7.168,-1.304 9.773,-3.91 2.652,-2.652 3.977,-6.359 3.977,-11.121 v -41.715 h 14.086 v 69.953 h -14.086 v -7.414 h -0.27 c -4.359,5.485 -10.379,8.223 -18.062,8.223 -5.528,0 -10.829,-2.043 -15.907,-6.133 -5.031,-4.133 -7.547,-10.176 -7.547,-18.129 z" /><path
         id="path12480"
         style="fill:#000000;fill-opacity:1;fill-rule:nonzero;stroke:none"
         d="m 1052.063,1180.566 v -69.953 h 14.085 v 7.481 h 0.27 c 4.359,-5.528 10.422,-8.293 18.195,-8.293 5.438,0 10.672,2.07 15.703,6.203 5.079,4.133 7.618,10.152 7.618,18.062 v 46.5 h -14.086 v -41.648 c 0,-4.719 -1.325,-8.402 -3.977,-11.055 -2.605,-2.648 -5.863,-3.976 -9.773,-3.976 -4.043,0 -7.391,1.328 -10.039,3.976 -2.61,2.653 -3.911,6.336 -3.911,11.055 v 41.648 z" /><path
         id="path12482"
         style="fill:#000000;fill-opacity:1;fill-rule:nonzero;stroke:none"
         d="m 1127.809,1180.566 v -69.953 h 14.086 v 7.481 h 0.269 c 4.359,-5.528 10.426,-8.293 18.195,-8.293 5.438,0 10.672,2.07 15.704,6.203 5.078,4.133 7.617,10.152 7.617,18.062 v 46.5 h -14.086 v -41.648 c 0,-4.719 -1.324,-8.402 -3.977,-11.055 -2.605,-2.648 -5.863,-3.976 -9.773,-3.976 -4.043,0 -7.391,1.328 -10.039,3.976 -2.606,2.653 -3.91,6.336 -3.91,11.055 v 41.648 z" /><path
         id="path12484"
         style="fill:#000000;fill-opacity:1;fill-rule:nonzero;stroke:none"
         d="m 1206.082,1135.344 h 31.844 v 14.086 h -31.844 z" /><path
         id="path12486"
         style="fill:#000000;fill-opacity:1;fill-rule:nonzero;stroke:none"
         d="m 1260.328,1167.898 9.84,-11.187 c 3.684,2.965 7.93,5.344 12.738,7.144 4.805,1.797 9.84,2.696 15.094,2.696 6.066,0 10.828,-1.258 14.289,-3.778 3.461,-2.515 5.188,-5.816 5.188,-9.906 0,-7.726 -4.266,-12.152 -12.805,-13.277 -2.246,-0.27 -4.336,-0.539 -6.266,-0.809 -1.933,-0.269 -4.179,-0.582 -6.742,-0.941 -8.488,-1.168 -14.961,-4.27 -19.406,-9.301 -4.449,-5.078 -6.676,-11.187 -6.676,-18.332 0,-8.355 2.789,-15.23 8.359,-20.621 5.618,-5.395 13.5,-8.09 23.657,-8.09 6.066,0 11.769,0.965 17.117,2.899 5.348,1.933 10.265,4.382 14.762,7.347 l -8.293,12.266 c -3.594,-2.246 -7.457,-4.067 -11.59,-5.461 -4.133,-1.391 -8.36,-2.09 -12.672,-2.09 -4.582,0 -8.469,1.168 -11.66,3.508 -3.188,2.336 -4.785,5.84 -4.785,10.512 0,2.785 1.078,5.39 3.238,7.816 2.156,2.43 5.726,4.023 10.715,4.785 1.3,0.227 2.875,0.473 4.718,0.742 1.84,0.227 3.954,0.473 6.332,0.743 9.168,1.121 15.93,4.449 20.29,9.972 4.402,5.528 6.601,11.637 6.601,18.332 0,9.031 -3.121,16.043 -9.367,21.028 -6.246,4.988 -14.625,7.48 -25.137,7.48 -14.781,0 -27.297,-4.492 -37.539,-13.477 z" /><path
         id="path12488"
         style="fill:#000000;fill-opacity:1;fill-rule:nonzero;stroke:none"
         d="m 1345.781,1157.113 v -46.5 h 14.086 v 41.715 c 0,4.762 1.305,8.469 3.91,11.121 2.649,2.606 5.996,3.91 10.043,3.91 3.907,0 7.164,-1.304 9.77,-3.91 2.652,-2.652 3.976,-6.359 3.976,-11.121 v -41.715 h 14.086 v 69.953 h -14.086 v -7.414 h -0.269 c -4.356,5.485 -10.379,8.223 -18.063,8.223 -5.523,0 -10.828,-2.043 -15.902,-6.133 -5.035,-4.133 -7.551,-10.176 -7.551,-18.129 z m 31.879,-57.351 v -14.895 h 14.895 v 14.895 z m -24.328,0 v -14.895 h 14.961 v 14.895 z" /><path
         id="path12490"
         style="fill:#000000;fill-opacity:1;fill-rule:nonzero;stroke:none"
         d="m 1456.848,1180.566 v -7.277 c -4.895,5.391 -10.918,8.086 -18.063,8.086 -4.312,0 -8.019,-0.828 -11.117,-2.492 -3.102,-1.707 -5.641,-3.887 -7.617,-6.539 -1.977,-2.469 -3.301,-5.391 -3.977,-8.758 -0.672,-3.418 -1.011,-9.438 -1.011,-18.063 0,-8.539 0.339,-14.468 1.011,-17.793 0.676,-3.371 2,-6.312 3.977,-8.828 1.976,-2.605 4.515,-4.765 7.617,-6.472 3.098,-1.75 6.805,-2.629 11.117,-2.629 3.598,0 6.852,0.765 9.774,2.293 2.921,1.527 5.683,3.527 8.289,6 v -35.723 h 14.086 v 98.195 z m -13.746,-56.679 c -6.653,0 -10.649,2.269 -11.997,6.808 -1.304,4.539 -1.957,9.481 -1.957,14.828 0,5.481 0.653,10.489 1.957,15.028 1.348,4.539 5.344,6.808 11.997,6.808 6.511,0 10.421,-2.359 11.726,-7.078 1.348,-4.718 2.02,-9.636 2.02,-14.758 0,-4.988 -0.672,-9.839 -2.02,-14.558 -1.305,-4.719 -5.215,-7.078 -11.726,-7.078 z" /><path
         id="path12492"
         style="fill:#000000;fill-opacity:1;fill-rule:evenodd;stroke:none"
         d="m 58.102,15.188 -2.274,0.195 -2.23,0.312 -2.27,0.352 -2.156,0.512 -2.152,0.625 -2.114,0.703 -2.074,0.863 -1.996,0.859 -1.996,1.059 -1.805,1.098 -1.918,1.132 -1.722,1.293 -1.762,1.332 -1.645,1.45 -1.566,1.484 -1.445,1.566 -1.489,1.645 -1.293,1.723 -1.293,1.726 -1.214,1.914 -1.055,1.922 -1.059,1.918 -0.859,1.996 -0.863,2.074 -0.704,2.075 -0.589,2.156 -0.508,2.191 -0.352,2.231 -0.351,2.273 -0.196,2.27 v 1883.949 l 0.196,2.269 0.351,2.231 0.352,2.273 0.508,2.192 0.589,2.152 0.704,2.078 0.863,2.074 0.859,1.997 1.059,1.996 1.055,1.84 1.214,1.917 2.586,3.446 1.489,1.644 1.445,1.567 1.566,1.488 1.645,1.488 1.762,1.293 1.722,1.289 1.918,1.215 1.805,1.02 1.996,1.054 1.996,0.864 2.074,0.859 2.114,0.707 2.152,0.625 2.156,0.508 2.27,0.355 2.23,0.352 2.274,0.156 h 1490.992 l 2.269,-0.156 2.274,-0.352 2.23,-0.355 2.153,-0.508 2.191,-0.625 2.078,-0.707 2.074,-0.859 1.996,-0.864 1.918,-1.054 1.918,-1.02 1.879,-1.215 1.766,-1.289 1.719,-1.293 1.648,-1.488 1.563,-1.488 1.488,-1.567 1.449,-1.644 1.293,-1.723 1.332,-1.723 1.133,-1.917 1.137,-1.84 1.019,-1.996 0.859,-1.997 0.864,-2.074 0.703,-2.078 0.625,-2.152 0.512,-2.192 0.351,-2.273 0.352,-2.231 0.156,-2.269 V 58.137 l -0.156,-2.27 -0.352,-2.273 -0.351,-2.231 -0.512,-2.191 -0.625,-2.156 -0.703,-2.075 -0.864,-2.074 -0.859,-1.996 -1.019,-1.918 -1.137,-1.922 -1.133,-1.914 -1.332,-1.726 -1.293,-1.723 -1.449,-1.645 -1.488,-1.566 -1.563,-1.484 -1.648,-1.45 -1.719,-1.332 -1.766,-1.293 -1.879,-1.132 -1.918,-1.098 -1.918,-1.059 -1.996,-0.859 -2.074,-0.863 -2.078,-0.703 -2.191,-0.625 -2.153,-0.512 -2.23,-0.352 -2.274,-0.312 -2.269,-0.195 z m 1.211,22.636 h 1488.566 l 1.215,0.078 1.136,0.196 1.055,0.156 1.098,0.277 1.058,0.352 1.133,0.351 0.942,0.313 1.054,0.551 0.942,0.429 0.941,0.586 0.977,0.625 0.863,0.59 0.859,0.703 0.782,0.707 0.863,0.664 0.703,0.903 0.707,0.781 0.664,0.859 0.629,0.864 0.625,0.937 0.586,0.981 0.43,0.941 0.511,1.016 0.352,0.98 0.351,1.133 0.352,1.019 0.277,1.137 0.157,1.055 0.156,1.097 0.117,1.215 v 1881.559 l -0.117,1.215 -0.156,1.133 -0.157,1.136 -0.277,1.02 -0.352,1.137 -0.351,1.054 -0.352,0.942 -0.511,1.054 -0.43,0.942 -0.586,0.976 -0.625,0.942 -0.629,0.863 -0.664,0.859 -0.707,0.782 -0.703,0.863 -0.863,0.703 -0.782,0.707 -0.859,0.703 -0.863,0.664 -0.977,0.551 -0.941,0.586 -0.942,0.43 -1.054,0.511 -0.942,0.352 -1.133,0.351 -1.058,0.352 -1.098,0.273 -1.055,0.161 -1.136,0.156 -1.215,0.117 H 59.313 l -1.211,-0.117 -1.137,-0.156 -1.137,-0.161 -1.015,-0.273 -1.137,-0.352 -1.016,-0.351 -0.98,-0.352 -1.02,-0.511 -0.976,-0.43 -0.942,-0.586 -0.937,-0.551 -0.903,-0.664 -0.859,-0.703 -0.785,-0.707 -0.86,-0.703 -0.707,-0.863 -0.664,-0.782 -0.707,-0.859 -0.703,-0.863 -0.508,-0.942 -0.629,-0.976 -0.429,-0.942 -0.508,-1.054 -0.352,-0.942 -0.351,-1.054 -0.356,-1.137 -0.234,-1.02 -0.195,-1.136 -0.157,-1.133 -0.078,-1.215 V 59.32 l 0.078,-1.215 0.157,-1.097 0.195,-1.055 0.234,-1.137 0.356,-1.019 0.351,-1.133 0.352,-0.98 0.508,-1.016 0.429,-0.941 0.629,-0.981 0.508,-0.937 0.703,-0.864 0.707,-0.859 0.664,-0.781 0.707,-0.903 0.86,-0.664 0.785,-0.707 0.859,-0.703 0.903,-0.59 0.937,-0.625 0.942,-0.586 0.976,-0.429 1.02,-0.551 0.98,-0.313 1.016,-0.351 1.137,-0.352 1.015,-0.277 1.137,-0.156 1.137,-0.196 z" /><path
         id="path12494"
         style="fill:#000000;fill-opacity:1;fill-rule:nonzero;stroke:none"
         d="m 196.09,272.191 h 11.18 V 194.16 h -11.18 l -11.07,8.11 v 11.835 l 11.07,-8.109 z" /><path
         id="path12496"
         style="fill:#000000;fill-opacity:1;fill-rule:nonzero;stroke:none"
         d="M 224.074,216.629 H 235.25 V 205.34 h 20.715 l -26.41,66.851 h 12.492 l 26.41,-66.851 v -11.18 h -44.383 z" /></g></g></svg>