<?xml version="1.0" encoding="UTF-8" standalone="no"?>
<svg
   xmlns:dc="http://purl.org/dc/elements/1.1/"
   xmlns:cc="http://creativecommons.org/ns#"
   xmlns:rdf="http://www.w3.org/1999/02/22-rdf-syntax-ns#"
   xmlns:svg="http://www.w3.org/2000/svg"
   xmlns="http://www.w3.org/2000/svg"
   viewBox="0 0 468.23093 1174.9609"
   height="1174.9609"
   width="468.23093"
   xml:space="preserve"
   version="1.1"
   id="svg4740"><metadata
     id="metadata4746"><rdf:RDF><cc:Work
         rdf:about=""><dc:format>image/svg+xml</dc:format><dc:type
           rdf:resource="http://purl.org/dc/dcmitype/StillImage" /><dc:title></dc:title></cc:Work></rdf:RDF></metadata><defs
     id="defs4744"><clipPath
       id="clipPath4756"
       clipPathUnits="userSpaceOnUse"><path
         id="path4758"
         d="m 87.203,939.367 200,0 0,-801 -200,0 0,801 z" /></clipPath><clipPath
       id="clipPath4766"
       clipPathUnits="userSpaceOnUse"><path
         id="path4768"
         d="m 87,138 201,0 0,802 -201,0 0,-802 z" /></clipPath></defs><g
     transform="matrix(1.25,0,0,-1.25,0,1174.9609)"
     id="g4748"><g
       id="g4750" /><g
       id="g4752"><g
         clip-path="url(#clipPath4756)"
         id="g4754"><g
           transform="translate(0,-0.03125)"
           id="g4760"><g
             id="g4762"><g
               clip-path="url(#clipPath4766)"
               id="g4764"><g
                 id="g4770"><path
                   id="path4772"
                   style="fill:#ffffff;fill-opacity:1;fill-rule:nonzero;stroke:none"
                   d="m 119.324,939.199 135.758,0 c 17.59,0 31.922,-14.347 31.922,-32.031 l 0,-736.527 c 0,-17.684 -14.332,-32.008 -31.922,-32.008 l -135.758,0 c -17.594,0 -31.926,14.324 -31.926,32.008 l 0,736.527 c 0,17.684 14.332,32.031 31.926,32.031 z" /></g></g></g></g></g></g><g
       id="g4774"><path
         id="path4776"
         style="fill:#c1121c;fill-opacity:1;fill-rule:nonzero;stroke:none"
         d="m 254.891,939.168 c 17.707,0 32.113,-14.441 32.113,-32.223 l 0,-169.105 -190.805,191.348 c 5.817,6.14 14.031,9.98 23.125,9.98 l 135.567,0 z" /><path
         id="path4778"
         style="fill:#c1121c;fill-opacity:1;fill-rule:nonzero;stroke:none"
         d="m 87.398,739.629 199.606,-200.141 0,-201.347 -199.606,200.164 0,201.324 z" /><path
         id="path4780"
         style="fill:#c1121c;fill-opacity:1;fill-rule:nonzero;stroke:none"
         d="M 87.398,339.363 277.949,148.301 c -4.726,-4.863 -10.965,-8.231 -17.949,-9.321 -1.488,-0.21 -3,-0.324 -4.523,-0.324 l -136.559,0 c -1.527,0 -3.027,0.114 -4.488,0.321 -15.282,2.367 -27.032,15.621 -27.032,31.632 l 0,168.754 z" /><g
         transform="matrix(-0.997298,0,0,1,0,939.96875)"
         id="g4782"><path
           id="path4784"
           style="fill:none;stroke:#000000;stroke-width:1.60216606;stroke-linecap:butt;stroke-linejoin:miter;stroke-miterlimit:4;stroke-dasharray:none;stroke-opacity:1"
           d="m -119.644,-0.801 -136.129,0 c -17.634,0 -32.005,-14.347 -32.005,-32.031 l 0,-736.527 c 0,-17.684 14.371,-32.008 32.005,-32.008 l 136.129,0 c 17.634,0 32.005,14.324 32.005,32.008 l 0,736.527 c 0,17.684 -14.371,32.031 -32.005,32.031 z" /></g><g
         transform="matrix(-1,0,0,-0.999964,0,939.96875)"
         id="g4786"><path
           id="path4788"
           style="fill:#f0c900;fill-opacity:1;fill-rule:nonzero;stroke:#000000;stroke-width:1.60002899;stroke-linecap:butt;stroke-linejoin:miter;stroke-miterlimit:4;stroke-dasharray:none;stroke-opacity:1"
           d="m -0.801,906.22 c 0,7.946 -6.441,14.387 -14.387,14.387 -7.945,0 -14.386,-6.441 -14.386,-14.387 0,-7.945 6.441,-14.387 14.386,-14.387 7.946,0 14.387,6.442 14.387,14.387 z" /></g><g
         transform="matrix(-1,0,0,-0.999964,0,939.96875)"
         id="g4790"><path
           id="path4792"
           style="fill:#f0c900;fill-opacity:1;fill-rule:nonzero;stroke:#000000;stroke-width:1.60002899;stroke-linecap:butt;stroke-linejoin:miter;stroke-miterlimit:4;stroke-dasharray:none;stroke-opacity:1"
           d="m -26.578,858 c 0,7.945 -6.442,14.387 -14.387,14.387 -7.945,0 -14.387,-6.442 -14.387,-14.387 0,-7.946 6.442,-14.384 14.387,-14.384 7.945,0 14.387,6.438 14.387,14.384 z" /></g><g
         transform="matrix(1,0,0,-0.999964,0,939.96875)"
         id="g4794"><path
           id="path4796"
           style="fill:#f0c900;fill-opacity:1;fill-rule:nonzero;stroke:#000000;stroke-width:1.60002899;stroke-linecap:butt;stroke-linejoin:miter;stroke-miterlimit:4;stroke-dasharray:none;stroke-opacity:1"
           d="m 373.785,906.22 c 0,7.946 -6.441,14.387 -14.387,14.387 -7.945,0 -14.386,-6.441 -14.386,-14.387 0,-7.945 6.441,-14.387 14.386,-14.387 7.946,0 14.387,6.442 14.387,14.387 z" /></g><g
         transform="matrix(1,0,0,-0.999964,0,939.96875)"
         id="g4798"><path
           id="path4800"
           style="fill:#f0c900;fill-opacity:1;fill-rule:nonzero;stroke:#000000;stroke-width:1.60002899;stroke-linecap:butt;stroke-linejoin:miter;stroke-miterlimit:4;stroke-dasharray:none;stroke-opacity:1"
           d="m 348.008,858 c 0,7.945 -6.442,14.387 -14.387,14.387 -7.945,0 -14.387,-6.442 -14.387,-14.387 0,-7.946 6.442,-14.384 14.387,-14.384 7.945,0 14.387,6.438 14.387,14.384 z" /></g><g
         transform="matrix(-1,0,0,-0.999964,0,939.96875)"
         id="g4802"><path
           id="path4804"
           style="fill:#f0c900;fill-opacity:1;fill-rule:nonzero;stroke:#000000;stroke-width:1.60002899;stroke-linecap:butt;stroke-linejoin:miter;stroke-miterlimit:4;stroke-dasharray:none;stroke-opacity:1"
           d="m -12.766,939.202 -74.468,-137.376 -199.985,0 -74.469,137.376 348.922,-0.035 0,0.035 z" /></g></g></g></svg>