<?xml version="1.0" encoding="UTF-8" standalone="no"?>
<svg
   xmlns:dc="http://purl.org/dc/elements/1.1/"
   xmlns:cc="http://creativecommons.org/ns#"
   xmlns:rdf="http://www.w3.org/1999/02/22-rdf-syntax-ns#"
   xmlns:svg="http://www.w3.org/2000/svg"
   xmlns="http://www.w3.org/2000/svg"
   viewBox="0 0 484.38962 1371.5228"
   height="1371.5228"
   width="484.38962"
   xml:space="preserve"
   version="1.1"
   id="svg5283"><metadata
     id="metadata5289"><rdf:RDF><cc:Work
         rdf:about=""><dc:format>image/svg+xml</dc:format><dc:type
           rdf:resource="http://purl.org/dc/dcmitype/StillImage" /><dc:title></dc:title></cc:Work></rdf:RDF></metadata><defs
     id="defs5287" /><g
     transform="matrix(1.25,0,0,-1.25,0,1371.5228)"
     id="g5291"><g
       id="g5293"><path
         id="path5295"
         style="fill:#c1121c;fill-opacity:1;fill-rule:evenodd;stroke:none"
         d="m 125.875,1095.617 c -17.156,0 -31.121,-13.981 -31.121,-31.231 l 0,-736.527 c 0,-17.25 13.965,-31.207 31.121,-31.207 l 135.758,0 c 17.16,0 31.125,13.957 31.125,31.207 l 0,736.527 c 0,17.25 -13.969,31.231 -31.125,31.231 l -135.758,0 z" /><path
         id="path5297"
         style="fill:#ffffff;fill-opacity:1;fill-rule:evenodd;stroke:none"
         d="M 284.191,305.128 94.598,496.707 94.516,695.531 293.023,495.199 293.051,321.371 c -0.11,-3.954 -2.739,-10.313 -8.86,-16.243 z" /><path
         id="path5299"
         style="fill:#ffffff;fill-opacity:1;fill-rule:evenodd;stroke:none"
         d="M 285.227,1085.656 94.418,893.238 94.445,694.414 293.117,894.8 l 0.031,173.832 c -0.109,4.231 -2.464,10.422 -7.921,17.024 z" /><g
         transform="matrix(0.997298,0,0,1,0,1097.2183)"
         id="g5301"><path
           id="path5303"
           style="fill:none;stroke:#000000;stroke-width:1.60216701;stroke-linecap:butt;stroke-linejoin:miter;stroke-miterlimit:4;stroke-dasharray:none;stroke-opacity:1"
           d="m 262.346,-0.801 -136.13,0 c -17.634,0 -32.004,-14.347 -32.004,-32.031 l 0,-736.527 c 0,-17.684 14.37,-32.008 32.004,-32.008 l 136.13,0 c 17.633,0 32.004,14.324 32.004,32.008 l 0,736.527 c 0,17.684 -14.371,32.031 -32.004,32.031 z" /></g><g
         transform="matrix(-1,0,0,-0.999959,0,1097.2183)"
         id="g5305"><path
           id="path5307"
           style="fill:#f0c900;fill-opacity:1;fill-rule:nonzero;stroke:#000000;stroke-width:1.60003304;stroke-linecap:butt;stroke-linejoin:miter;stroke-miterlimit:4;stroke-dasharray:none;stroke-opacity:1"
           d="m -0.801,1056.027 c 0,7.942 -6.437,14.384 -14.379,14.384 -7.945,0 -14.382,-6.442 -14.382,-14.384 0,-7.941 6.437,-14.379 14.382,-14.379 7.942,0 14.379,6.438 14.379,14.379 z" /></g><g
         transform="matrix(-1,0,0,-0.999959,0,1097.2183)"
         id="g5309"><path
           id="path5311"
           style="fill:#f0c900;fill-opacity:1;fill-rule:nonzero;stroke:#000000;stroke-width:1.60003304;stroke-linecap:butt;stroke-linejoin:miter;stroke-miterlimit:4;stroke-dasharray:none;stroke-opacity:1"
           d="m -13.395,1006.178 c 0,7.942 -6.441,14.383 -14.382,14.383 -7.942,0 -14.383,-6.441 -14.383,-14.383 0,-7.942 6.441,-14.38 14.383,-14.38 7.941,0 14.382,6.438 14.382,14.38 z" /></g><g
         transform="matrix(1,0,0,-0.999959,0,1097.2183)"
         id="g5313"><path
           id="path5315"
           style="fill:#f0c900;fill-opacity:1;fill-rule:nonzero;stroke:#000000;stroke-width:1.60003304;stroke-linecap:butt;stroke-linejoin:miter;stroke-miterlimit:4;stroke-dasharray:none;stroke-opacity:1"
           d="m 386.711,1056.027 c 0,7.942 -6.438,14.384 -14.379,14.384 -7.945,0 -14.383,-6.442 -14.383,-14.384 0,-7.941 6.438,-14.379 14.383,-14.379 7.941,0 14.379,6.438 14.379,14.379 z" /></g><g
         transform="matrix(1,0,0,-0.999959,0,1097.2183)"
         id="g5317"><path
           id="path5319"
           style="fill:#f0c900;fill-opacity:1;fill-rule:nonzero;stroke:#000000;stroke-width:1.60003304;stroke-linecap:butt;stroke-linejoin:miter;stroke-miterlimit:4;stroke-dasharray:none;stroke-opacity:1"
           d="m 374.117,1006.178 c 0,7.942 -6.441,14.383 -14.383,14.383 -7.941,0 -14.382,-6.441 -14.382,-14.383 0,-7.942 6.441,-14.38 14.382,-14.38 7.942,0 14.383,6.438 14.383,14.38 z" /></g><g
         transform="matrix(-1,0,0,-0.999959,0,1097.2183)"
         id="g5321"><path
           id="path5323"
           style="fill:#f0c900;fill-opacity:1;fill-rule:nonzero;stroke:#000000;stroke-width:1.60003304;stroke-linecap:butt;stroke-linejoin:miter;stroke-miterlimit:4;stroke-dasharray:none;stroke-opacity:1"
           d="m -19.348,1096.463 -74.445,-294.633 -199.914,0 -74.445,294.633 348.804,-0.075 0,0.075 z" /></g></g></g></svg>