<?xml version="1.0" encoding="UTF-8" standalone="no"?>
<svg
   xmlns:dc="http://purl.org/dc/elements/1.1/"
   xmlns:cc="http://creativecommons.org/ns#"
   xmlns:rdf="http://www.w3.org/1999/02/22-rdf-syntax-ns#"
   xmlns:svg="http://www.w3.org/2000/svg"
   xmlns="http://www.w3.org/2000/svg"
   viewBox="0 0 335.20358 496.56067"
   height="496.56067"
   width="335.20358"
   xml:space="preserve"
   version="1.1"
   id="svg18273"><metadata
     id="metadata18279"><rdf:RDF><cc:Work
         rdf:about=""><dc:format>image/svg+xml</dc:format><dc:type
           rdf:resource="http://purl.org/dc/dcmitype/StillImage" /><dc:title></dc:title></cc:Work></rdf:RDF></metadata><defs
     id="defs18277"><clipPath
       id="clipPath18299"
       clipPathUnits="userSpaceOnUse"><path
         id="path18301"
         d="m 142,275 122,0 0,123 -122,0 0,-123 z" /></clipPath></defs><g
     transform="matrix(1.25,0,0,-1.25,0,496.56067)"
     id="g18281"><g
       id="g18283"><path
         id="path18285"
         style="fill:#c1121c;fill-opacity:1;fill-rule:nonzero;stroke:none"
         d="m 0,396.858 0,-39.133 149.055,0.024 c 43.883,-0.012 79.461,-35.508 79.461,-79.25 l 0,-278.5 39.234,0 0,278.476 c -0.023,65.399 -53.156,118.383 -118.695,118.383 L 0,396.858 Z" /><path
         id="path18287"
         style="fill:#ffffff;fill-opacity:1;fill-rule:nonzero;stroke:none"
         d="m 267.957,99.346 0,-44.722 -39.633,-39.54 0,44.731 39.633,39.531 z" /><path
         id="path18289"
         style="fill:#ffffff;fill-opacity:1;fill-rule:nonzero;stroke:none"
         d="m 267.957,188.901 0,-44.719 -39.633,-39.531 0,44.723 39.633,39.527 z" /><path
         id="path18291"
         style="fill:#ffffff;fill-opacity:1;fill-rule:nonzero;stroke:none"
         d="m 267.957,278.471 0,-44.719 -39.645,-39.554 0,44.734 39.645,39.539 z" /><g
         transform="translate(0,-0.751465)"
         id="g18293"><g
           id="g18295"><g
             clip-path="url(#clipPath18299)"
             id="g18297"><g
               id="g18303"><path
                 id="path18305"
                 style="fill:#ffffff;fill-opacity:1;fill-rule:nonzero;stroke:none"
                 d="m 249.973,341.918 c 6.043,-9.652 10.66,-20.117 13.679,-31.078 l -35.347,-35.266 0.023,3.649 0,0.011 c 0,11.606 -2.586,23.082 -7.531,33.571 0,0 29.199,29.113 29.176,29.113" /><path
                 id="path18307"
                 style="fill:#ffffff;fill-opacity:1;fill-rule:nonzero;stroke:none"
                 d="m 203.832,384.48 c 9.418,-4.886 18.141,-11.019 25.945,-18.199 L 207.34,332.789 c -7.235,7.84 -15.992,14.141 -25.731,18.508 0,0 22.246,33.195 22.223,33.183" /><path
                 id="path18309"
                 style="fill:#ffffff;fill-opacity:1;fill-rule:nonzero;stroke:none"
                 d="m 149.043,358.277 -6.82,0 0,39.532 6.82,0 c 8.391,0 16.762,-0.883 24.977,-2.637 l -7.993,-38.719 c -5.582,1.235 -11.269,1.848 -16.984,1.824" /></g></g></g></g><path
         id="path18311"
         style="fill:#ffffff;fill-opacity:1;fill-rule:nonzero;stroke:none"
         d="m 78.805,397.053 31.715,0 0,-39.527 -31.715,0 0,39.527 z" /><path
         id="path18313"
         style="fill:#ffffff;fill-opacity:1;fill-rule:nonzero;stroke:none"
         d="m 15.379,397.053 31.715,0 0,-39.527 -31.715,0 0,39.527 z" /><path
         id="path18315"
         style="fill:#00000b;fill-opacity:1;fill-rule:nonzero;stroke:none"
         d="m 0,397.249 0,-0.391 149.055,0 c 4.097,0 8.144,-0.207 12.133,-0.609 0.996,-0.102 1.988,-0.215 2.98,-0.344 0.988,-0.125 1.977,-0.262 2.957,-0.41 0.984,-0.153 1.961,-0.313 2.934,-0.485 0.976,-0.176 1.945,-0.359 2.91,-0.558 0.969,-0.196 1.926,-0.407 2.883,-0.625 0.96,-0.219 1.91,-0.453 2.859,-0.696 0.949,-0.242 1.891,-0.496 2.828,-0.761 0.941,-0.266 1.875,-0.543 2.805,-0.832 0.926,-0.289 1.851,-0.59 2.769,-0.899 3.676,-1.242 7.274,-2.656 10.778,-4.234 0.875,-0.399 1.746,-0.801 2.609,-1.219 0.004,0 0.004,0 0.004,0 0.863,-0.414 1.723,-0.84 2.574,-1.273 0.856,-0.438 1.699,-0.883 2.539,-1.34 1.684,-0.91 3.34,-1.86 4.973,-2.848 0.816,-0.496 1.625,-1 2.426,-1.512 0.941,-0.601 1.867,-1.214 2.785,-1.839 0.226,-0.153 0.445,-0.309 0.668,-0.465 0.668,-0.457 1.328,-0.926 1.984,-1.395 0.301,-0.219 0.598,-0.437 0.899,-0.656 0.621,-0.453 1.234,-0.918 1.843,-1.383 0.27,-0.207 0.543,-0.414 0.813,-0.625 0.855,-0.66 1.699,-1.332 2.531,-2.019 0.734,-0.602 1.457,-1.215 2.176,-1.836 0,0 0.004,0 0.004,0 0.961,-0.832 1.902,-1.684 2.84,-2.543 0.226,-0.211 0.449,-0.418 0.671,-0.625 0.926,-0.868 1.844,-1.743 2.739,-2.637 2.683,-2.676 5.242,-5.481 7.66,-8.406 1.211,-1.461 2.387,-2.953 3.523,-4.473 0.571,-0.758 1.133,-1.523 1.684,-2.297 0.527,-0.738 1.043,-1.484 1.555,-2.234 0.113,-0.168 0.222,-0.336 0.336,-0.504 0.398,-0.598 0.796,-1.195 1.183,-1.797 0.141,-0.219 0.281,-0.441 0.418,-0.66 0.336,-0.527 0.668,-1.055 0.996,-1.59 0.168,-0.277 0.336,-0.555 0.504,-0.832 0.293,-0.48 0.582,-0.965 0.863,-1.453 0.192,-0.328 0.383,-0.656 0.575,-0.988 0.261,-0.461 0.519,-0.918 0.773,-1.383 0.176,-0.317 0.352,-0.629 0.523,-0.949 0.309,-0.571 0.614,-1.149 0.915,-1.727 0.109,-0.211 0.222,-0.422 0.328,-0.633 0.418,-0.812 0.828,-1.633 1.226,-2.457 0.563,-1.164 1.098,-2.34 1.625,-3.523 0.117,-0.266 0.235,-0.532 0.348,-0.797 0.519,-1.192 1.019,-2.387 1.5,-3.598 0.32,-0.812 0.633,-1.637 0.937,-2.461 0.082,-0.215 0.161,-0.429 0.239,-0.648 0.226,-0.621 0.445,-1.25 0.664,-1.879 0.082,-0.246 0.168,-0.488 0.25,-0.734 0.277,-0.825 0.547,-1.649 0.808,-2.481 0.289,-0.93 0.567,-1.859 0.832,-2.797 0.27,-0.937 0.524,-1.875 0.77,-2.82 0,-0.004 0,-0.004 0,-0.004 0.047,-0.184 0.09,-0.371 0.137,-0.559 0.011,-0.05 0.023,-0.097 0.035,-0.148 0.199,-0.797 0.398,-1.59 0.582,-2.391 0,-0.011 0.004,-0.023 0.008,-0.035 0.414,-1.816 0.789,-3.648 1.121,-5.496 0.175,-0.973 0.34,-1.949 0.488,-2.93 0.008,-0.039 0.012,-0.086 0.016,-0.125 0.015,-0.097 0.027,-0.195 0.043,-0.289 0.136,-0.91 0.265,-1.828 0.378,-2.746 0.493,-3.883 0.793,-7.824 0.895,-11.816 0.027,-1.016 0.043,-2.035 0.043,-3.055 l 0,-278.476 0.414,0 0,278.476 c -0.023,65.617 -53.355,118.774 -119.109,118.774 L 0,397.249 Z M 149.055,357.749 0,357.725 l 0,-0.391 149.055,0 c 43.668,-0.011 79.066,-35.308 79.066,-78.835 l 0,-278.5 0.395,0 0,278.5 c 0,1.367 -0.036,2.726 -0.106,4.074 -0.035,0.676 -0.074,1.347 -0.129,2.019 0,0.008 0,0.016 0,0.024 -0.066,0.855 -0.152,1.707 -0.242,2.554 -0.031,0.282 -0.066,0.559 -0.098,0.84 -0.105,0.852 -0.214,1.707 -0.343,2.551 -0.102,0.656 -0.207,1.309 -0.325,1.961 -0.117,0.648 -0.242,1.293 -0.375,1.937 0,0.004 0,0.004 0,0.004 -0.128,0.645 -0.269,1.286 -0.418,1.926 -0.148,0.637 -0.304,1.274 -0.468,1.906 -0.164,0.633 -0.332,1.262 -0.512,1.891 -0.191,0.672 -0.395,1.34 -0.602,2.008 -0.066,0.203 -0.132,0.402 -0.199,0.605 -0.144,0.45 -0.293,0.899 -0.445,1.344 -0.094,0.27 -0.188,0.539 -0.285,0.809 -0.133,0.379 -0.27,0.757 -0.41,1.132 -0.102,0.278 -0.207,0.555 -0.317,0.829 -0.144,0.379 -0.293,0.754 -0.441,1.129 -0.106,0.265 -0.215,0.527 -0.324,0.789 -0.161,0.386 -0.325,0.769 -0.493,1.152 -0.109,0.25 -0.214,0.5 -0.328,0.75 -0.172,0.387 -0.351,0.769 -0.531,1.152 -0.113,0.242 -0.223,0.489 -0.34,0.731 -0.234,0.488 -0.476,0.972 -0.719,1.457 -0.054,0.105 -0.105,0.215 -0.16,0.32 -0.32,0.629 -0.648,1.25 -0.984,1.867 -0.61,1.125 -1.246,2.231 -1.91,3.317 0,0.004 0,0.004 0,0.004 -0.332,0.543 -0.672,1.082 -1.016,1.621 -0.465,0.718 -0.941,1.425 -1.426,2.129 -0.113,0.164 -0.226,0.332 -0.343,0.496 -0.489,0.699 -0.989,1.394 -1.5,2.074 -0.762,1.019 -1.547,2.016 -2.36,2.996 -0.715,0.867 -1.453,1.715 -2.207,2.551 -0.062,0.07 -0.125,0.14 -0.187,0.211 -0.731,0.8 -1.477,1.586 -2.235,2.355 -0.086,0.09 -0.172,0.18 -0.261,0.266 -0.747,0.754 -1.508,1.488 -2.286,2.207 -0.109,0.101 -0.214,0.203 -0.324,0.305 -0.769,0.707 -1.555,1.398 -2.351,2.074 -0.192,0.16 -0.379,0.32 -0.571,0.48 -0.226,0.188 -0.453,0.375 -0.679,0.563 -0.227,0.183 -0.454,0.363 -0.68,0.547 -0.27,0.214 -0.539,0.425 -0.809,0.636 -0.242,0.188 -0.484,0.371 -0.726,0.555 -0.215,0.164 -0.434,0.324 -0.653,0.488 -0.3,0.223 -0.609,0.446 -0.914,0.668 -0.211,0.149 -0.418,0.301 -0.629,0.449 -0.293,0.207 -0.589,0.411 -0.886,0.614 -0.203,0.136 -0.403,0.277 -0.606,0.414 -0.328,0.222 -0.656,0.433 -0.988,0.648 -0.199,0.133 -0.398,0.266 -0.602,0.395 -0.25,0.156 -0.503,0.312 -0.753,0.469 -0.286,0.175 -0.571,0.359 -0.86,0.531 -0.004,0 -0.004,0.004 -0.004,0.004 -0.515,0.308 -1.031,0.613 -1.551,0.914 -1.664,0.953 -3.367,1.847 -5.101,2.683 -2.316,1.114 -4.695,2.121 -7.129,3.008 -0.809,0.297 -1.625,0.574 -2.445,0.844 -0.211,0.07 -0.426,0.141 -0.641,0.207 -0.82,0.262 -1.648,0.519 -2.48,0.754 -3.145,0.89 -6.368,1.594 -9.653,2.097 -0.902,0.137 -1.812,0.254 -2.722,0.36 -0.172,0.023 -0.344,0.043 -0.516,0.062 -0.91,0.102 -1.828,0.192 -2.75,0.262 -1.344,0.102 -2.699,0.172 -4.063,0.207 -0.683,0.016 -1.367,0.024 -2.05,0.024 z" /></g></g></svg>