<?xml version="1.0" encoding="UTF-8" standalone="no"?>
<svg
   xmlns:dc="http://purl.org/dc/elements/1.1/"
   xmlns:cc="http://creativecommons.org/ns#"
   xmlns:rdf="http://www.w3.org/1999/02/22-rdf-syntax-ns#"
   xmlns:svg="http://www.w3.org/2000/svg"
   xmlns="http://www.w3.org/2000/svg"
   viewBox="0 0 468.23093 1174.9609"
   height="1174.9609"
   width="468.23093"
   xml:space="preserve"
   version="1.1"
   id="svg4594"><metadata
     id="metadata4600"><rdf:RDF><cc:Work
         rdf:about=""><dc:format>image/svg+xml</dc:format><dc:type
           rdf:resource="http://purl.org/dc/dcmitype/StillImage" /><dc:title></dc:title></cc:Work></rdf:RDF></metadata><defs
     id="defs4598"><clipPath
       id="clipPath4610"
       clipPathUnits="userSpaceOnUse"><path
         id="path4612"
         d="m 87.383,939.367 200,0 0,-801 -200,0 0,801 z" /></clipPath><clipPath
       id="clipPath4620"
       clipPathUnits="userSpaceOnUse"><path
         id="path4622"
         d="m 87,138 201,0 0,802 -201,0 0,-802 z" /></clipPath></defs><g
     transform="matrix(1.25,0,0,-1.25,0,1174.9609)"
     id="g4602"><g
       id="g4604" /><g
       id="g4606"><g
         clip-path="url(#clipPath4610)"
         id="g4608"><g
           transform="translate(0,-0.03125)"
           id="g4614"><g
             id="g4616"><g
               clip-path="url(#clipPath4620)"
               id="g4618"><g
                 id="g4624"><path
                   id="path4626"
                   style="fill:#ffffff;fill-opacity:1;fill-rule:nonzero;stroke:none"
                   d="m 255.262,939.199 -135.758,0 c -17.59,0 -31.922,-14.347 -31.922,-32.031 l 0,-736.527 c 0,-17.684 14.332,-32.008 31.922,-32.008 l 135.758,0 c 17.59,0 31.922,14.324 31.922,32.008 l 0,736.527 c 0,17.684 -14.332,32.031 -31.922,32.031 z" /></g></g></g></g></g></g><g
       id="g4628"><path
         id="path4630"
         style="fill:#c1121c;fill-opacity:1;fill-rule:nonzero;stroke:none"
         d="m 119.691,939.168 c -17.707,0 -32.109,-14.441 -32.109,-32.223 l 0,-169.105 190.805,191.348 c -5.821,6.14 -14.035,9.98 -23.125,9.98 l -135.571,0 z" /><path
         id="path4632"
         style="fill:#c1121c;fill-opacity:1;fill-rule:nonzero;stroke:none"
         d="M 287.184,739.629 87.582,539.488 l 0,-201.347 199.602,200.164 0,201.324 z" /><path
         id="path4634"
         style="fill:#c1121c;fill-opacity:1;fill-rule:nonzero;stroke:none"
         d="M 287.184,339.363 96.637,148.301 c 4.722,-4.863 10.961,-8.231 17.949,-9.321 1.488,-0.21 3,-0.324 4.519,-0.324 l 136.563,0 c 1.523,0 3.023,0.114 4.488,0.321 15.278,2.367 27.028,15.621 27.028,31.632 l 0,168.754 z" /><g
         transform="matrix(0.997298,0,0,1,0,939.96875)"
         id="g4636"><path
           id="path4638"
           style="fill:none;stroke:#000000;stroke-width:1.60216606;stroke-linecap:butt;stroke-linejoin:miter;stroke-miterlimit:4;stroke-dasharray:none;stroke-opacity:1"
           d="m 255.953,-0.801 -136.125,0 c -17.638,0 -32.009,-14.347 -32.009,-32.031 l 0,-736.527 c 0,-17.684 14.371,-32.008 32.009,-32.008 l 136.125,0 c 17.638,0 32.009,14.324 32.009,32.008 l 0,736.527 c 0,17.684 -14.371,32.031 -32.009,32.031 z" /></g><g
         transform="matrix(1,0,0,-0.999964,0,939.96875)"
         id="g4640"><path
           id="path4642"
           style="fill:#f0c900;fill-opacity:1;fill-rule:nonzero;stroke:#000000;stroke-width:1.60002899;stroke-linecap:butt;stroke-linejoin:miter;stroke-miterlimit:4;stroke-dasharray:none;stroke-opacity:1"
           d="m 373.785,906.22 c 0,7.946 -6.441,14.387 -14.387,14.387 -7.945,0 -14.386,-6.441 -14.386,-14.387 0,-7.945 6.441,-14.387 14.386,-14.387 7.946,0 14.387,6.442 14.387,14.387 z" /></g><g
         transform="matrix(1,0,0,-0.999964,0,939.96875)"
         id="g4644"><path
           id="path4646"
           style="fill:#f0c900;fill-opacity:1;fill-rule:nonzero;stroke:#000000;stroke-width:1.60002899;stroke-linecap:butt;stroke-linejoin:miter;stroke-miterlimit:4;stroke-dasharray:none;stroke-opacity:1"
           d="m 348.008,858 c 0,7.945 -6.442,14.387 -14.387,14.387 -7.945,0 -14.387,-6.442 -14.387,-14.387 0,-7.946 6.442,-14.384 14.387,-14.384 7.945,0 14.387,6.438 14.387,14.384 z" /></g><g
         transform="matrix(-1,0,0,-0.999964,0,939.96875)"
         id="g4648"><path
           id="path4650"
           style="fill:#f0c900;fill-opacity:1;fill-rule:nonzero;stroke:#000000;stroke-width:1.60002899;stroke-linecap:butt;stroke-linejoin:miter;stroke-miterlimit:4;stroke-dasharray:none;stroke-opacity:1"
           d="m -0.801,906.22 c 0,7.946 -6.441,14.387 -14.387,14.387 -7.945,0 -14.386,-6.441 -14.386,-14.387 0,-7.945 6.441,-14.387 14.386,-14.387 7.946,0 14.387,6.442 14.387,14.387 z" /></g><g
         transform="matrix(-1,0,0,-0.999964,0,939.96875)"
         id="g4652"><path
           id="path4654"
           style="fill:#f0c900;fill-opacity:1;fill-rule:nonzero;stroke:#000000;stroke-width:1.60002899;stroke-linecap:butt;stroke-linejoin:miter;stroke-miterlimit:4;stroke-dasharray:none;stroke-opacity:1"
           d="m -26.578,858 c 0,7.945 -6.442,14.387 -14.387,14.387 -7.945,0 -14.387,-6.442 -14.387,-14.387 0,-7.946 6.442,-14.384 14.387,-14.384 7.945,0 14.387,6.438 14.387,14.384 z" /></g><g
         transform="matrix(1,0,0,-0.999964,0,939.96875)"
         id="g4656"><path
           id="path4658"
           style="fill:#f0c900;fill-opacity:1;fill-rule:nonzero;stroke:#000000;stroke-width:1.60002899;stroke-linecap:butt;stroke-linejoin:miter;stroke-miterlimit:4;stroke-dasharray:none;stroke-opacity:1"
           d="m 361.82,939.202 -74.468,-137.376 -199.985,0 -74.472,137.376 348.925,-0.035 0,0.035 z" /></g></g></g></svg>