<?xml version="1.0" encoding="UTF-8" standalone="no"?>
<svg
   xmlns:dc="http://purl.org/dc/elements/1.1/"
   xmlns:cc="http://creativecommons.org/ns#"
   xmlns:rdf="http://www.w3.org/1999/02/22-rdf-syntax-ns#"
   xmlns:svg="http://www.w3.org/2000/svg"
   xmlns="http://www.w3.org/2000/svg"
   viewBox="0 0 601.00201 601.00195"
   height="601.00195"
   width="601.00201"
   xml:space="preserve"
   id="svg1854"
   version="1.1"><metadata
     id="metadata1860"><rdf:RDF><cc:Work
         rdf:about=""><dc:format>image/svg+xml</dc:format><dc:type
           rdf:resource="http://purl.org/dc/dcmitype/StillImage" /><dc:title></dc:title></cc:Work></rdf:RDF></metadata><defs
     id="defs1858" /><g
     transform="matrix(1.3333333,0,0,-1.3333333,0,601.00195)"
     id="g1862"><g
       id="g1864"><path
         id="path1866"
         style="fill:#ffffff;fill-opacity:1;fill-rule:nonzero;stroke:none"
         d="m 450.375,225.376 c 0,-124.265 -100.738,-225 -225,-225 -124.266,0 -225,100.735 -225,225 0,124.262 100.734,225 225,225 124.262,0 225,-100.738 225,-225 z" /><path
         id="path1868"
         style="fill:#000000;fill-opacity:1;fill-rule:nonzero;stroke:none"
         d="M 225.375,450.751 C 100.906,450.751 0,349.845 0,225.376 0,100.912 100.906,0.001 225.375,0.001 c 124.465,0 225.375,100.911 225.375,225.375 0,124.469 -100.91,225.375 -225.375,225.375 z m 0,-0.375 c 124.266,0 225,-100.734 225,-225 0,-124.265 -100.734,-225 -225,-225 -124.266,0 -225,100.735 -225,225 0,124.266 100.734,225 225,225 z" /><path
         id="path1870"
         style="fill:#000000;fill-opacity:1;fill-rule:nonzero;stroke:none"
         d="m 225.375,442.876 c -120.121,0 -217.5,-97.378 -217.5,-217.5 0,-120.121 97.379,-217.5 217.5,-217.5 120.121,0 217.5,97.379 217.5,217.5 0,120.122 -97.379,217.5 -217.5,217.5 z m -0.336,-11.585 c 40.301,0 79.715,-11.829 113.359,-34.016 l 0.403,0.406 -0.399,-0.41 c 0,0.004 0,0.004 -0.004,0.004 L 53.164,111.982 C 30.961,145.63 19.125,185.06 19.125,225.376 c 0,113.723 92.191,205.915 205.914,205.915 z M 347.57,391.568 c 2.032,-1.496 4.039,-3.027 6.016,-4.598 l -0.024,0.016 L 63.781,97.169 c -1.57,1.977 -3.101,3.981 -4.601,6.012 z m 14.078,-11.375 c 1.872,-1.649 3.715,-3.332 5.528,-5.051 l 0.015,0.016 v -0.032 c -0.003,0.008 -0.007,0.012 -0.015,0.016 L 75.625,83.56 c -1.723,1.816 -3.41,3.668 -5.066,5.547 z m 12.961,-12.461 c 1.723,-1.809 3.414,-3.645 5.075,-5.516 l 0.031,0.008 L 88.535,71.068 c -1.867,1.66 -3.707,3.351 -5.515,5.078 z m 11.879,-13.578 c 1.574,-1.969 3.117,-3.965 4.617,-5.992 L 102.59,59.646 c -2.024,1.504 -4.024,3.043 -5.992,4.617 z m 10.684,-14.727 c 22.469,-33.793 34.453,-73.469 34.453,-114.051 0,-113.906 -92.34,-206.25 -206.25,-206.25 -40.625,0 -80.348,12 -114.18,34.493 z" /><path
         id="path1872"
         style="fill:#828487;fill-opacity:1;fill-rule:nonzero;stroke:none"
         d="m 93.414,283.126 c -3.598,0 -6.852,-2.132 -8.289,-5.433 L 70.84,244.892 c -1.008,-2.316 -2.281,-4.508 -3.797,-6.527 l -2.176,-2.887 c -1.406,-1.875 -2.168,-4.156 -2.168,-6.504 l 0.02,0.012 -0.02,-23.449 c 0,-4.989 4.047,-9.036 9.039,-9.036 l 65.883,-0.003 46.926,46.925 H 79.867 l 12.418,28.5 c 0.574,1.317 1.871,2.164 3.301,2.164 h 85.875 c 1.434,0 2.73,-0.847 3.305,-2.164 l 8.582,-19.699 6.73,6.731 -8.152,18.738 c -1.438,3.301 -4.692,5.433 -8.289,5.433 z m 111.164,-34.519 -52.105,-52.109 h 10.605 l 44.914,44.906 c -0.668,1.133 -1.262,2.301 -1.785,3.504 z m 9.207,-16.25 -0.012,-0.008 c 0,0 0,0 0.004,-0.004 z m -0.012,-0.012 -35.847,-35.847 h 10.605 l 25.793,25.793 -0.012,6.683 c 0,1.149 -0.179,2.285 -0.539,3.371 z m 0.551,-24.906 -10.941,-10.941 1.929,0.003 c 4.993,0 9.04,4.047 9.04,9.036 z" /><path
         id="path1874"
         style="fill:#828487;fill-opacity:1;fill-rule:nonzero;stroke:none"
         d="m 71.746,192.888 h 21.656 l -0.027,-19.863 c 0,-2.981 -2.418,-5.399 -5.398,-5.399 H 77.176 c -2.985,0 -5.403,2.418 -5.403,5.399 z m 111.895,0 h 1.281 l -1.281,-1.281 z m 16.132,0 h 5.528 v -5.078 l -19.266,-19.266 c -1.445,0.969 -2.394,2.622 -2.394,4.493 v 3.722 z m 5.5,-19.937 c -0.039,-2.926 -2.398,-5.285 -5.324,-5.325 l 5.352,5.332" /><path
         id="path1876"
         style="fill:#828487;fill-opacity:1;fill-rule:nonzero;stroke:none"
         d="m 241.395,223.904 v 5.984 h 5.984 z m 20.832,5.984 h 10.609 l -9.024,-9.023 h -10.609 z m 25.457,0 h 98.093 v -9.023 H 278.66 l 9.024,9.023" /><path
         id="path1878"
         style="fill:#828487;fill-opacity:1;fill-rule:nonzero;stroke:none"
         d="m 309.152,156.427 8.887,-0.015 c 2.649,0 4.801,-2.149 4.801,-4.801 l -0.016,-14.395 h 5.172 v -24.379 h -5.172 l 0.016,-14.398 c 0,-2.652 -2.152,-4.801 -4.801,-4.801 h -8.887 c -2.652,0 -4.8,2.149 -4.8,4.801 v 19.937 h -5.172 v 13.301 h 5.172 v 19.934 c 0,2.652 2.148,4.801 4.8,4.801" /><path
         id="path1880"
         style="fill:#828487;fill-opacity:1;fill-rule:nonzero;stroke:none"
         d="m 290.312,173.419 46.551,-0.019 c 1.016,0 1.836,-0.824 1.836,-1.836 l 0.008,-14.398 -7.527,-28.813 -1.707,-3.328 v 35.836 h -31.77 v -35.836 l -1.711,3.328 -7.527,28.813 0.023,14.398 c 0,1.012 0.824,1.836 1.836,1.836" /><path
         id="path1882"
         style="fill:#828487;fill-opacity:1;fill-rule:nonzero;stroke:none"
         d="m 297.148,189.306 h 0.012 l 4.977,-0.004 c 0,2.442 1.98,4.422 4.425,4.422 h 14.024 c 2.445,0 4.426,-1.98 4.426,-4.422 l 5.027,0.035 c 4.805,0 8.699,-3.894 8.699,-8.699 h -0.039 c 0,-2.547 -2.062,-4.613 -4.609,-4.613 h -40.988 c -2.547,0 -4.614,2.066 -4.614,4.613 h -0.039 c 0,4.805 3.895,8.699 8.699,8.699" /><path
         id="path1884"
         style="fill:#828487;fill-opacity:1;fill-rule:nonzero;stroke:none"
         d="m 304.352,201.111 c -4.938,0 -9.821,1.043 -14.329,3.062 l -0.011,-0.023 c -0.555,0.277 -1.008,0.48 -1.84,0.68 l -11.527,2.691 0.996,4.32 11.527,-2.695 c 0.953,-0.242 1.77,-0.539 2.711,-0.973 l -0.004,-0.019 c 3.434,-1.531 7.117,-2.414 10.871,-2.613 l 20.094,-0.04 c 4.297,0 8.547,0.903 12.476,2.653 l -0.019,0.019 c 0.937,0.434 1.754,0.731 2.707,0.973 l 11.527,2.695 0.996,-4.32 -11.523,-2.691 c -0.836,-0.2 -1.285,-0.403 -1.844,-0.68 -4.156,-1.984 -9.176,-3.004 -14.336,-3.024 h -2.586 v -4.433 h -14.039 v 4.433 h -1.847" /><path
         id="path1886"
         style="fill:#828487;fill-opacity:1;fill-rule:nonzero;stroke:none"
         d="m 315.742,308.861 c 0.774,-0.184 1.344,-0.875 1.344,-1.703 v -7.563 l -7,-7 v 10.61 z m 1.344,-24.113 v -8.118 h 2.336 v 10.45 l 2.719,2.722 v -10.605 l -12.055,-12.055 v 4.047 h -2.332 v -6.383 l -2.723,-2.723 v 10.61 l 3.942,3.937 h 1.113 v 1.118 z m 8.605,8.605 h 7.34 v -2.723 h -10.058 z m -8.605,-34.062 0.016,-18.614 c 0,-0.976 -0.79,-1.765 -1.762,-1.765 h -3.488 c -0.973,0 -1.762,0.789 -1.762,1.765 l -0.004,11.614 z m -19.672,-4.825 h -3.269 v 2.723 h 5.992 l -2.723,-2.723" /><path
         id="path1888"
         style="fill:#828487;fill-opacity:1;fill-rule:nonzero;stroke:none"
         d="m 300.754,319.017 h 10.297 l -7.778,-7.777 h -0.574 v -0.574 l -3.742,-3.743 -0.148,4.317 v 5.832 c 0,0.117 0.011,0.23 0.031,0.34 l 1.578,1.578 c 0.109,0.019 0.223,0.027 0.336,0.027 z m 25.148,0 0.536,-0.004 c 1.078,0 1.949,-0.875 1.949,-1.949 l -0.024,-4.145 v -1.679 l -0.011,-0.379 -3.875,-3.875 v 4.254 h -6.352 z m -23.203,-23.203 v -10.606 l -2.902,-2.902 -0.352,10.258 z m 25.129,-0.328 -0.375,-10.981 -2.976,-2.976 v 10.605 l 3.351,3.352" /><path
         id="path1890"
         style="fill:#828487;fill-opacity:1;fill-rule:nonzero;stroke:none"
         d="m 310.863,325.24 h 5.446 v -0.965 l -5.258,-5.258 h -0.188 v 6.223" /><path
         id="path1892"
         style="fill:#828487;fill-opacity:1;fill-rule:nonzero;stroke:none"
         d="m 315.609,334.181 4.043,0.004 c 1.778,0 3.309,-1.043 4.016,-2.551 l -4.449,-4.449 h -10.606 l 6.996,6.996" /><path
         id="path1894"
         style="fill:#828487;fill-opacity:1;fill-rule:nonzero;stroke:none"
         d="m 318.254,336.826 v -0.7 h -0.699 l 0.699,0.7" /><path
         id="path1896"
         style="fill:#828487;fill-opacity:1;fill-rule:nonzero;stroke:none"
         d="m 343.891,352.095 c -1.086,0 -2.121,-0.285 -3.012,-0.801 l -0.004,0.028 c -0.91,-0.528 -1.668,-1.285 -2.195,-2.196 l -0.008,-0.019 c -1.992,-3.445 -5.668,-5.57 -9.645,-5.57 l -4.047,0.015 5.125,5.094 c 1.743,0.301 3.262,1.355 4.153,2.887 l -0.028,0.011 c 1.989,3.446 5.668,5.571 9.645,5.571 l 3.449,0.011 h 1.836 l -5.031,-5.031 z m -33.778,-8.558 -10.613,-0.012 5.023,5.027 10.618,0.008 z m -20.918,4.535 c -0.242,0.332 -0.468,0.679 -0.675,1.043 l -0.047,0.011 c -0.528,0.911 -1.285,1.668 -2.196,2.196 l 0.016,-0.028 c -0.887,0.516 -1.926,0.797 -3.012,0.797 h -3.433 l -3.434,-0.004 c -0.953,0 -1.726,0.774 -1.726,1.727 v 1.613 c 0,0.949 0.773,1.723 1.726,1.723 l 6.867,-0.024 -0.043,-0.05 c 3.91,0 7.532,-2.059 9.535,-5.418 l -3.578,-3.586" /></g></g></svg>