<?xml version="1.0" encoding="UTF-8" standalone="no"?>
<svg
   version="1.2"
   width="48.027"
   height="48.028"
   id="svg2"
   sodipodi:docname="ES_B1a.svg"
   inkscape:version="1.3.2 (091e20e, 2023-11-25, custom)"
   xmlns:inkscape="http://www.inkscape.org/namespaces/inkscape"
   xmlns:sodipodi="http://sodipodi.sourceforge.net/DTD/sodipodi-0.dtd"
   xmlns="http://www.w3.org/2000/svg"
   xmlns:svg="http://www.w3.org/2000/svg"
   xmlns:rdf="http://www.w3.org/1999/02/22-rdf-syntax-ns#"
   xmlns:cc="http://creativecommons.org/ns#"
   xmlns:dc="http://purl.org/dc/elements/1.1/">
  <sodipodi:namedview
     pagecolor="#ffffff"
     bordercolor="#666666"
     borderopacity="1"
     objecttolerance="10"
     gridtolerance="10"
     guidetolerance="10"
     inkscape:pageopacity="0"
     inkscape:pageshadow="2"
     inkscape:window-width="1920"
     inkscape:window-height="1017"
     id="namedview906"
     showgrid="false"
     inkscape:zoom="2"
     inkscape:cx="46.25"
     inkscape:cy="28.75"
     inkscape:window-x="-8"
     inkscape:window-y="-8"
     inkscape:window-maximized="1"
     inkscape:current-layer="layer1"
     inkscape:showpageshadow="2"
     inkscape:pagecheckerboard="0"
     inkscape:deskcolor="#d1d1d1"
     showguides="true" />
  <metadata
     id="metadata3103">
    <rdf:RDF>
      <cc:Work
         rdf:about="">
        <dc:format>image/svg+xml</dc:format>
        <dc:type
           rdf:resource="http://purl.org/dc/dcmitype/StillImage" />
      </cc:Work>
    </rdf:RDF>
  </metadata>
  <defs
     id="defs3101">
    <inkscape:path-effect
       effect="fillet_chamfer"
       id="path-effect1"
       is_visible="true"
       lpeversion="1"
       nodesatellites_param="F,0,0,1,0,0,0,1 @ F,0,0,1,0,0,0,1 @ F,0,0,1,0,0,0,1 @ F,0,0,1,0,0,0,1"
       radius="0"
       unit="px"
       method="auto"
       mode="F"
       chamfer_steps="1"
       flexible="false"
       use_knot_distance="true"
       apply_no_radius="true"
       apply_with_radius="true"
       only_selected="false"
       hide_knots="false" />
  </defs>
  <path
     d="m 0.099,3.288 c 0,-1.761 1.427,-3.189 3.188,-3.189 H 44.74 c 1.762,0 3.188,1.428 3.188,3.189 V 44.74 c 0,1.761 -1.426,3.189 -3.188,3.189 H 3.287 C 1.526,47.929 0.099,46.5 0.099,44.74 Z"
     id="path3089"
     style="fill:#ffffff" />
  <path
     d="m 0.099,3.288 c 0,-1.761 1.427,-3.189 3.188,-3.189 H 44.74 c 1.762,0 3.188,1.428 3.188,3.189 V 44.74 c 0,1.761 -1.426,3.189 -3.188,3.189 H 3.287 C 1.526,47.929 0.099,46.5 0.099,44.74 Z"
     id="path3091"
     style="fill:none;stroke:#1c1d20;stroke-width:0.198;stroke-miterlimit:3.864" />
  <path
     d="m 46.748,44.749 c 0,1.114 -0.902,2.017 -2.015,2.017 H 3.294 c -1.113,0 -2.016,-0.902 -2.016,-2.017 V 3.277 c 0,-1.112 0.903,-2.014 2.016,-2.014 h 41.439 c 1.112,0 2.015,0.902 2.015,2.014 v 41.472"
     id="path3093"
     style="fill:#19408b" />
  <g
     inkscape:groupmode="layer"
     id="layer3"
     inkscape:label="Layer 1"
     transform="translate(0.99999999,0.9999999)" />
  <g
     inkscape:groupmode="layer"
     id="layer4"
     inkscape:label="Layer 2"
     transform="translate(0.99999999,0.9999999)" />
  <g
     inkscape:groupmode="layer"
     id="layer1"
     inkscape:label="Layer 3"
     transform="translate(0.99999999,0.9999999)">
    <path
       id="rect1"
       d="M 4.5078064,0.53032998 H 25.102291 L 44.565551,22.775002 24.571961,45.696768 2.0329324,45.785158 22.939662,21.564499 Z"
       style="fill:#ffffff;stroke-width:1.07957"
       sodipodi:nodetypes="ccccccc" />
  </g>
</svg>
