<?xml version="1.0" encoding="UTF-8" standalone="no"?>
<svg
   version="1.2"
   width="400"
   height="285.08499"
   id="svg2"
   sodipodi:docname="ES_CAT_OR41c.svg"
   inkscape:version="1.3.2 (091e20e, 2023-11-25, custom)"
   xmlns:inkscape="http://www.inkscape.org/namespaces/inkscape"
   xmlns:sodipodi="http://sodipodi.sourceforge.net/DTD/sodipodi-0.dtd"
   xmlns="http://www.w3.org/2000/svg"
   xmlns:svg="http://www.w3.org/2000/svg"
   xmlns:rdf="http://www.w3.org/1999/02/22-rdf-syntax-ns#"
   xmlns:cc="http://creativecommons.org/ns#"
   xmlns:dc="http://purl.org/dc/elements/1.1/">
  <sodipodi:namedview
     pagecolor="#ffffff"
     bordercolor="#666666"
     borderopacity="1"
     objecttolerance="10"
     gridtolerance="10"
     guidetolerance="10"
     inkscape:pageopacity="0"
     inkscape:pageshadow="2"
     inkscape:window-width="1920"
     inkscape:window-height="1017"
     id="namedview6659"
     showgrid="false"
     inkscape:zoom="1"
     inkscape:cx="279.5"
     inkscape:cy="-2.5"
     inkscape:window-x="-8"
     inkscape:window-y="-8"
     inkscape:window-maximized="1"
     inkscape:current-layer="layer11"
     fit-margin-top="0"
     fit-margin-left="0"
     fit-margin-right="0"
     fit-margin-bottom="0"
     inkscape:document-rotation="0"
     inkscape:showpageshadow="false"
     inkscape:pagecheckerboard="true"
     inkscape:deskcolor="#d1d1d1" />
  <metadata
     id="metadata4010">
    <rdf:RDF>
      <cc:Work
         rdf:about="">
        <dc:format>image/svg+xml</dc:format>
        <dc:type
           rdf:resource="http://purl.org/dc/dcmitype/StillImage" />
      </cc:Work>
    </rdf:RDF>
  </metadata>
  <defs
     id="defs4008" />
  <g
     inkscape:groupmode="layer"
     id="layer11"
     inkscape:label="Layer 1"
     style="display:inline"
     transform="translate(-4.654911,16.180051)">
    <path
       d="m 401.90001,251.14221 c 0.4595,5.11412 -0.0837,10.30664 -2.71393,14.26693 -0.43706,0.27146 -0.45463,0.69102 -2.69303,1.49099 l -5.0846,1.81716 c 9.12704,0.30761 -149.80067,-0.17244 -266.88241,0.0831 -29.256154,0.0639 -58.343805,-0.18724 -80.938666,0.0538 -6.643249,0.0709 -12.572369,0.0616 -18.064492,0.0108 -3.859218,-0.0353 -7.716322,0.0374 -10.530489,-0.45053 -9.7164474,-1.68457 -9.2079981,-7.36953 -9.2236279,-11.99862 L 5.0661715,48.327869 C 4.9851794,24.340346 0.12395201,27.372324 26.070834,27.372324 H 381.16246 c 13.69089,0 17.9757,-0.694923 19.50163,1.931604 1.3664,2.351946 1.18737,7.232388 1.23165,18.564707 0.20186,51.647961 -0.203,103.745765 -0.0558,155.417415 0.0728,25.54211 0.009,-26.17083 -0.0212,-0.75965 -0.0153,12.74783 0.44127,35.80817 0.0813,48.61581 z"
       id="path3217"
       style="fill:#000080;stroke-width:1.35057"
       sodipodi:nodetypes="ccscsssssssssssscc" />
    <path
       d="m 391.06094,246.20453 c 0,14.53356 1.57136,12.06686 -12.96376,12.01176 L 22.239404,256.86726 C 7.7043062,256.81216 11.18602,257.48251 11.18602,242.94768 V 134.56496 c 0,-14.53863 -0.619979,-12.06999 13.915105,-12.0143 l 352.042155,1.34903 c 14.53511,0.0556 13.91766,1.29004 13.91766,15.82995 z"
       id="path3243"
       style="fill:none;stroke:#ffffff;stroke-width:5.40228;stroke-miterlimit:3.864"
       sodipodi:nodetypes="sssssssss" />
    <path
       d="m 203.08638,215.58211 -0.24094,12.43369 16.99064,-3.4872 -21.47272,20.66395 -20.65948,-21.4631 16.85035,4.12908 0.067,-20.87905 8.29122,0.15726"
       id="polyline3245"
       style="fill:#ffffff;stroke-width:1.35057"
       sodipodi:nodetypes="cccccccc" />
    <text
       xml:space="preserve"
       style="font-size:38.6689px;line-height:22.6576px;font-family:'Andale Mono IPA';-inkscape-font-specification:'Andale Mono IPA';letter-spacing:0px;word-spacing:0px;fill:#ffffff;fill-opacity:1;stroke:none;stroke-width:0.999997px;stroke-linecap:butt;stroke-linejoin:miter;stroke-opacity:1"
       x="307.61365"
       y="178.6953"
       id="text4113"
       transform="scale(1.067666,0.9366225)"><tspan
         sodipodi:role="line"
         id="tspan4111"
         x="307.61365"
         y="178.6953"
         style="font-style:normal;font-variant:normal;font-weight:normal;font-stretch:normal;font-size:38.6689px;font-family:'Highway Gothic Wide';-inkscape-font-specification:'Highway Gothic Wide';fill:#ffffff;fill-opacity:1;stroke:none;stroke-width:0.999997px" /></text>
    <path
       d="M 14.381481,99.154589 V 46.993088 c 0,-10.967691 -1.810871,-8.257226 7.411479,-8.228144 l 357.54293,1.127503 c 9.33751,0.02944 8.8361,-2.738488 8.8361,8.228151 v 49.299765 c 0,10.967677 2.17075,11.590807 -7.16676,11.561507 L 21.554476,107.85436 c -9.222349,-0.0289 -7.172995,2.26791 -7.172995,-8.699771 H 9.5453348 14.381481 m -4.8361462,0 c 0,14.116181 0.1339765,14.425541 12.0091412,14.462791 l 359.450754,1.12751 c 11.87517,0.0373 12.00825,-3.2073 12.00825,-17.324527 V 48.120598 c 0,-14.127858 -1.80332,-13.953721 -13.67759,-13.991166 L 21.79296,33.001928 C 9.9177948,32.964481 9.5453348,32.865237 9.5453348,46.993088 Z"
       id="path5608"
       style="fill:#ffffff;stroke-width:1.35057"
       sodipodi:nodetypes="cssssssscccsssssssss" />
    <g
       id="g5651"
       transform="matrix(0.71916798,0,0,0.71916943,-7.4757558,4.4661412)"
       style="stroke-width:1.87796">
      <path
         d="M 53.950398,130.92797 H 81.72097 l 2.616542,-67.631163 h -8.05066 L 53.950398,130.92797"
         id="polyline5612"
         style="fill:#ffffff;stroke-width:1.87796" />
      <path
         d="m 91.185094,130.92797 h 27.561746 l -10.05787,-31.800578 20.323,-22.947344 6.64656,16.099763 V 63.296807 h -28.98301 l 16.30859,6.646548 -19.7277,12.280143 -6.035656,-18.926691 h -8.05066 l 2.015,67.631163"
         id="polyline5614"
         style="fill:#ffffff;stroke-width:1.87796" />
    </g>
    <text
       xml:space="preserve"
       style="font-size:38.0568px;line-height:22.299px;font-family:'Highway Gothic Wide';-inkscape-font-specification:'Highway Gothic Wide';letter-spacing:0px;word-spacing:0px;display:inline;fill:none;stroke:#000000;stroke-width:1.35057px;stroke-linecap:butt;stroke-linejoin:miter;stroke-opacity:1"
       x="326.03723"
       y="87.239044"
       id="text5284-6"
       transform="scale(0.99551619,1.004504)"><tspan
         sodipodi:role="line"
         id="tspan5282-9"
         x="326.03723"
         y="87.239044"
         style="font-style:normal;font-variant:normal;font-weight:normal;font-stretch:normal;font-family:'Highway Gothic Wide';-inkscape-font-specification:'Highway Gothic Wide';fill:#ffffff;fill-opacity:1;stroke:none;stroke-width:1.35057px">63</tspan></text>
    <text
       xml:space="preserve"
       style="font-size:57.6243px;line-height:33.7642px;font-family:Haettenschweiler;-inkscape-font-specification:Haettenschweiler;letter-spacing:0px;word-spacing:0px;fill:none;stroke:#000000;stroke-width:1.35057px;stroke-linecap:butt;stroke-linejoin:miter;stroke-opacity:1"
       x="46.105366"
       y="188.76443"
       id="text5780"><tspan
         sodipodi:role="line"
         id="tspan5778"
         x="46.105366"
         y="188.76443"
         style="font-style:normal;font-variant:normal;font-weight:normal;font-stretch:normal;font-family:'Highway Gothic Wide';-inkscape-font-specification:'Highway Gothic Wide';fill:#ffffff;stroke:none;stroke-width:1.35057px">Destinacions</tspan></text>
    <rect
       style="display:inline;fill:#000080;stroke:#ffffff;stroke-width:2.70113;stroke-linecap:round;stroke-linejoin:round;stroke-miterlimit:2.613;stroke-dasharray:none;stroke-opacity:1"
       id="rect5280"
       width="97.64695"
       height="38.237362"
       x="163.81911"
       y="-14.829486" />
    <text
       xml:space="preserve"
       style="font-size:38.0568px;line-height:22.299px;font-family:'Highway Gothic Wide';-inkscape-font-specification:'Highway Gothic Wide';letter-spacing:0px;word-spacing:0px;display:inline;fill:none;stroke:#000000;stroke-width:1.35057px;stroke-linecap:butt;stroke-linejoin:miter;stroke-opacity:1"
       x="172.45862"
       y="16.53706"
       id="text5284"
       transform="scale(0.99551619,1.004504)"><tspan
         sodipodi:role="line"
         id="tspan5282"
         x="172.45862"
         y="16.53706"
         style="font-style:normal;font-variant:normal;font-weight:normal;font-stretch:normal;font-family:'Highway Gothic Wide';-inkscape-font-specification:'Highway Gothic Wide';fill:#ffffff;fill-opacity:1;stroke:none;stroke-width:1.35057px">C-32</tspan></text>
  </g>
</svg>
