<?xml version="1.0" encoding="UTF-8" standalone="no"?>
<svg
   version="1.2"
   width="400"
   height="285.694"
   id="svg2"
   sodipodi:docname="ES_CAT_OR41a.svg"
   inkscape:version="1.3.2 (091e20e, 2023-11-25, custom)"
   xmlns:inkscape="http://www.inkscape.org/namespaces/inkscape"
   xmlns:sodipodi="http://sodipodi.sourceforge.net/DTD/sodipodi-0.dtd"
   xmlns="http://www.w3.org/2000/svg"
   xmlns:svg="http://www.w3.org/2000/svg"
   xmlns:rdf="http://www.w3.org/1999/02/22-rdf-syntax-ns#"
   xmlns:cc="http://creativecommons.org/ns#"
   xmlns:dc="http://purl.org/dc/elements/1.1/">
  <sodipodi:namedview
     pagecolor="#ffffff"
     bordercolor="#666666"
     borderopacity="1"
     objecttolerance="10"
     gridtolerance="10"
     guidetolerance="10"
     inkscape:pageopacity="0"
     inkscape:pageshadow="2"
     inkscape:window-width="1920"
     inkscape:window-height="1017"
     id="namedview6659"
     showgrid="false"
     inkscape:zoom="1"
     inkscape:cx="279.5"
     inkscape:cy="-1.5"
     inkscape:window-x="-8"
     inkscape:window-y="-8"
     inkscape:window-maximized="1"
     inkscape:current-layer="layer11"
     fit-margin-top="0"
     fit-margin-left="0"
     fit-margin-right="0"
     fit-margin-bottom="0"
     inkscape:document-rotation="0"
     inkscape:showpageshadow="false"
     inkscape:pagecheckerboard="true"
     inkscape:deskcolor="#d1d1d1" />
  <metadata
     id="metadata4010">
    <rdf:RDF>
      <cc:Work
         rdf:about="">
        <dc:format>image/svg+xml</dc:format>
        <dc:type
           rdf:resource="http://purl.org/dc/dcmitype/StillImage" />
      </cc:Work>
    </rdf:RDF>
  </metadata>
  <defs
     id="defs4008" />
  <g
     inkscape:groupmode="layer"
     id="layer11"
     inkscape:label="Layer 1"
     style="display:inline"
     transform="translate(-4.654911,16.788656)">
    <path
       d="m 402.74806,251.10429 c 0.46049,5.12504 -0.0839,10.32864 -2.71972,14.29738 -0.43799,0.27205 -0.4556,0.6925 -2.69879,1.49418 l -5.09545,1.82104 c 9.14653,0.30826 -150.12047,-0.17281 -267.45216,0.0832 -29.318606,0.064 -58.468355,-0.18765 -81.111452,0.0539 -6.657431,0.0711 -12.599209,0.0617 -18.103056,0.0108 -3.867457,-0.0353 -7.732796,0.0375 -10.55297,-0.45148 C 5.2772714,266.72516 5.7868061,261.02807 5.771143,256.3891 L 5.0670495,47.856974 C 4.9858844,23.818242 0.11427918,26.856693 26.116553,26.856693 H 381.96624 c 13.72011,0 18.01408,-0.696407 19.54326,1.935727 1.36932,2.356967 1.1899,7.247828 1.23428,18.60434 0.20229,51.75822 -0.20343,103.96725 -0.0559,155.74921 0.0729,25.59663 0.009,-26.22671 -0.0213,-0.76128 -0.0153,12.77505 0.44221,35.88462 0.0815,48.7196 z"
       id="path3217"
       style="fill:#000080;stroke-width:1.35345"
       sodipodi:nodetypes="ccscsssssssssssscc" />
    <path
       d="m 391.88585,246.15607 c 0,14.56458 1.57471,12.09262 -12.99143,12.0374 L 22.276944,256.84156 c -14.5661279,-0.0552 -11.076981,0.61657 -11.076981,-13.94929 v -108.6141 c 0,-14.56967 -0.621303,-12.09576 13.944811,-12.03995 l 352.793706,1.35191 c 14.56614,0.0558 13.94737,1.29279 13.94737,15.86374 z"
       id="path3243"
       style="fill:none;stroke:#ffffff;stroke-width:5.41381;stroke-miterlimit:3.864"
       sodipodi:nodetypes="sssssssss" />
    <path
       d="m 194.79981,215.49269 8.63999,8.98146 9.56876,-14.51094 -0.57311,29.85872 -29.84876,-0.56945 14.86638,-9.01449 -14.74778,-14.84271 5.98674,-5.76387"
       id="polyline3245"
       style="fill:#ffffff;stroke-width:1.35345"
       sodipodi:nodetypes="cccccccc" />
    <text
       xml:space="preserve"
       style="font-size:38.6689px;line-height:22.6576px;font-family:'Andale Mono IPA';-inkscape-font-specification:'Andale Mono IPA';letter-spacing:0px;word-spacing:0px;fill:#ffffff;fill-opacity:1;stroke:none;stroke-width:0.999997px;stroke-linecap:butt;stroke-linejoin:miter;stroke-opacity:1"
       x="307.61365"
       y="178.6953"
       id="text4113"
       transform="scale(1.067666,0.9366225)"><tspan
         sodipodi:role="line"
         id="tspan4111"
         x="307.61365"
         y="178.6953"
         style="font-style:normal;font-variant:normal;font-weight:normal;font-stretch:normal;font-size:38.6689px;font-family:'Highway Gothic Wide';-inkscape-font-specification:'Highway Gothic Wide';fill:#ffffff;fill-opacity:1;stroke:none;stroke-width:0.999997px" /></text>
    <path
       d="M 14.402245,98.792201 V 46.519344 c 0,-10.991106 -1.814736,-8.274854 7.427301,-8.24571 l 358.306224,1.12991 c 9.35744,0.02951 8.85496,-2.744334 8.85496,8.245716 v 49.405013 c 0,10.991087 2.17539,11.615547 -7.18206,11.586187 L 21.590554,107.51055 c -9.242038,-0.029 -7.188309,2.27274 -7.188309,-8.718349 h -4.84647 4.84647 m -4.84647,0 c 0,14.146309 0.1342625,14.456339 12.034779,14.493659 l 360.218116,1.12992 c 11.90052,0.0374 12.03389,-3.21414 12.03389,-17.361507 V 47.64926 c 0,-14.158018 -1.80717,-13.98351 -13.70679,-14.021034 L 21.829546,32.498315 C 9.9290302,32.460788 9.555775,32.361332 9.555775,46.519344 Z"
       id="path5608"
       style="fill:#ffffff;stroke-width:1.35345"
       sodipodi:nodetypes="cssssssscccsssssssss" />
    <g
       id="g5651"
       transform="matrix(0.72070328,0,0,0.72070474,-7.5016527,3.9016089)"
       style="stroke-width:1.87796">
      <path
         d="M 53.950398,130.92797 H 81.72097 l 2.616542,-67.631163 h -8.05066 L 53.950398,130.92797"
         id="polyline5612"
         style="fill:#ffffff;stroke-width:1.87796" />
      <path
         d="m 91.185094,130.92797 h 27.561746 l -10.05787,-31.800578 20.323,-22.947344 6.64656,16.099763 V 63.296807 h -28.98301 l 16.30859,6.646548 -19.7277,12.280143 -6.035656,-18.926691 h -8.05066 l 2.015,67.631163"
         id="polyline5614"
         style="fill:#ffffff;stroke-width:1.87796" />
    </g>
    <text
       xml:space="preserve"
       style="font-size:38.138px;line-height:22.3466px;font-family:'Highway Gothic Wide';-inkscape-font-specification:'Highway Gothic Wide';letter-spacing:0px;word-spacing:0px;display:inline;fill:none;stroke:#000000;stroke-width:1.35345px;stroke-linecap:butt;stroke-linejoin:miter;stroke-opacity:1"
       x="98.31913"
       y="86.85379"
       id="text5284-6"
       transform="scale(0.99551619,1.004504)"><tspan
         sodipodi:role="line"
         id="tspan5282-9"
         x="98.31913"
         y="86.85379"
         style="font-style:normal;font-variant:normal;font-weight:normal;font-stretch:normal;font-family:'Highway Gothic Wide';-inkscape-font-specification:'Highway Gothic Wide';fill:#ffffff;fill-opacity:1;stroke:none;stroke-width:1.35345px">63</tspan></text>
    <text
       xml:space="preserve"
       style="font-size:41.5323px;line-height:24.3352px;font-family:'Andale Mono IPA';-inkscape-font-specification:'Andale Mono IPA';letter-spacing:0px;word-spacing:0px;fill:none;stroke:#000000;stroke-width:1.35345px;stroke-linecap:butt;stroke-linejoin:miter;stroke-opacity:1"
       x="246.2973"
       y="88.628067"
       id="text7644"
       transform="scale(1.0049504,0.99507398)"><tspan
         sodipodi:role="line"
         id="tspan7642"
         x="246.2973"
         y="88.628067"
         style="font-style:normal;font-variant:normal;font-weight:normal;font-stretch:normal;font-family:'Caracteres L4';-inkscape-font-specification:'Caracteres L4';letter-spacing:1.35345px;fill:#ffffff;stroke:none;stroke-width:1.35345px">200 m</tspan></text>
    <text
       xml:space="preserve"
       style="font-size:57.7474px;line-height:33.8363px;font-family:Haettenschweiler;-inkscape-font-specification:Haettenschweiler;letter-spacing:0px;word-spacing:0px;fill:none;stroke:#000000;stroke-width:1.35345px;stroke-linecap:butt;stroke-linejoin:miter;stroke-opacity:1"
       x="46.193855"
       y="188.59335"
       id="text5780"><tspan
         sodipodi:role="line"
         id="tspan5778"
         x="46.193855"
         y="188.59335"
         style="font-style:normal;font-variant:normal;font-weight:normal;font-stretch:normal;font-family:'Highway Gothic Wide';-inkscape-font-specification:'Highway Gothic Wide';fill:#ffffff;stroke:none;stroke-width:1.35345px">Destinacions</tspan></text>
    <rect
       style="display:inline;fill:#000080;stroke:#ffffff;stroke-width:2.70689;stroke-linecap:round;stroke-linejoin:round;stroke-miterlimit:2.613;stroke-dasharray:none;stroke-opacity:1"
       id="rect5280"
       width="97.855415"
       height="38.318993"
       x="164.15889"
       y="-15.435211" />
    <text
       xml:space="preserve"
       style="font-size:38.138px;line-height:22.3466px;font-family:'Highway Gothic Wide';-inkscape-font-specification:'Highway Gothic Wide';letter-spacing:0px;word-spacing:0px;display:inline;fill:none;stroke:#000000;stroke-width:1.35345px;stroke-linecap:butt;stroke-linejoin:miter;stroke-opacity:1"
       x="172.8168"
       y="16.00087"
       id="text5284"
       transform="scale(0.99551619,1.004504)"><tspan
         sodipodi:role="line"
         id="tspan5282"
         x="172.8168"
         y="16.00087"
         style="font-style:normal;font-variant:normal;font-weight:normal;font-stretch:normal;font-family:'Highway Gothic Wide';-inkscape-font-specification:'Highway Gothic Wide';fill:#ffffff;fill-opacity:1;stroke:none;stroke-width:1.35345px">C-32</tspan></text>
  </g>
</svg>
