<?xml version="1.0" encoding="UTF-8" standalone="no"?>
<svg
   version="1.2"
   width="400"
   height="129.17867"
   id="svg2"
   sodipodi:docname="ES_CAT_LOC530.svg"
   inkscape:version="1.3.2 (091e20e, 2023-11-25, custom)"
   xmlns:inkscape="http://www.inkscape.org/namespaces/inkscape"
   xmlns:sodipodi="http://sodipodi.sourceforge.net/DTD/sodipodi-0.dtd"
   xmlns="http://www.w3.org/2000/svg"
   xmlns:svg="http://www.w3.org/2000/svg"
   xmlns:rdf="http://www.w3.org/1999/02/22-rdf-syntax-ns#"
   xmlns:cc="http://creativecommons.org/ns#"
   xmlns:dc="http://purl.org/dc/elements/1.1/">
  <sodipodi:namedview
     pagecolor="#ffffff"
     bordercolor="#666666"
     borderopacity="1"
     objecttolerance="10"
     gridtolerance="10"
     guidetolerance="10"
     inkscape:pageopacity="0"
     inkscape:pageshadow="2"
     inkscape:window-width="1920"
     inkscape:window-height="1017"
     id="namedview906"
     showgrid="false"
     inkscape:zoom="2.280617"
     inkscape:cx="278.65266"
     inkscape:cy="48.451801"
     inkscape:window-x="-8"
     inkscape:window-y="-8"
     inkscape:window-maximized="1"
     inkscape:current-layer="layer3"
     fit-margin-top="0"
     fit-margin-left="0"
     fit-margin-right="0"
     fit-margin-bottom="0"
     inkscape:document-rotation="0"
     inkscape:showpageshadow="false"
     inkscape:pagecheckerboard="true"
     inkscape:deskcolor="#d1d1d1" />
  <metadata
     id="metadata3197">
    <rdf:RDF>
      <cc:Work
         rdf:about="">
        <dc:format>image/svg+xml</dc:format>
        <dc:type
           rdf:resource="http://purl.org/dc/dcmitype/StillImage" />
      </cc:Work>
    </rdf:RDF>
  </metadata>
  <defs
     id="defs3195" />
  <g
     inkscape:groupmode="layer"
     id="layer8"
     inkscape:label="Layer 4"
     transform="translate(167.66363,17.432547)">
    <path
       d="m 227.35504,85.395945 c 0,14.4873 3.48531,25.850885 -14.71453,25.870025 l -346.98657,0.36474 c -18.19983,0.0191 -33.46727,2.11201 -33.31646,-12.374499 l 1.09424,-105.1063589 c 0.15089,-14.4931411 14.02238,-11.2789471 32.22222,-11.2789471 h 328.74938 c 18.19985,0 32.95172,-2.484829 32.95172,12.008435 v 90.516605"
       id="path3113"
       style="display:inline;fill:#a1522c;fill-opacity:1;stroke-width:0.831841"
       sodipodi:nodetypes="csssssssc" />
    <path
       d="m 220.59593,87.468268 c -0.0792,15.302332 -12.12701,14.215602 -27.5352,14.215602 h -327.33308 c -15.40985,0 -25.65022,3.63919 -25.71314,-11.662395 l -0.36475,-88.7074466 c -0.0629,-15.3057434 6.29116,-11.2668484 21.70097,-11.2993096 l 346.29975,-0.7294878 c 15.40816,-0.03246 13.38941,12.4071128 13.31019,27.712782 z"
       id="path3115"
       style="display:inline;fill:#a1522c;fill-opacity:1;stroke:#ffffff;stroke-width:5.87521;stroke-miterlimit:3.864"
       sodipodi:nodetypes="sssssssss" />
  </g>
  <g
     inkscape:groupmode="layer"
     id="layer3"
     inkscape:label="Layer 1"
     style="display:inline"
     transform="translate(0.43982068,-25.749043)">
    <text
       xml:space="preserve"
       style="font-style:normal;font-variant:normal;font-weight:normal;font-stretch:normal;font-size:22.0447px;line-height:12.9168px;font-family:Ccrige;-inkscape-font-specification:Ccrige;letter-spacing:0.459264px;word-spacing:0px;fill:#ffffff;stroke:none;stroke-width:0.831841px;stroke-linecap:butt;stroke-linejoin:miter;stroke-opacity:1"
       x="137.92743"
       y="77.381966"
       id="text1502"><tspan
         sodipodi:role="line"
         id="tspan1500"
         x="137.92743"
         y="77.381966"
         style="stroke-width:0.831841px"> </tspan></text>
    <text
       xml:space="preserve"
       style="font-style:normal;font-variant:normal;font-weight:normal;font-stretch:normal;font-size:54.1357px;line-height:31.7204px;font-family:Ccrige;-inkscape-font-specification:Ccrige;letter-spacing:2.1751px;word-spacing:0px;fill:#000000;stroke:#000000;stroke-width:0.83184px;stroke-linecap:butt;stroke-linejoin:miter;stroke-opacity:1"
       x="155.40857"
       y="105.64104"
       id="text1502-7"
       transform="scale(0.99241143,1.0076466)"><tspan
         sodipodi:role="line"
         id="tspan1500-8"
         x="155.40857"
         y="105.64104"
         style="font-size:54.1357px;fill:#ffffff;stroke:none;stroke-width:0.83184px">El Foix</tspan></text>
  </g>
  <g
     inkscape:groupmode="layer"
     id="layer5"
     inkscape:label="Layer 3"
     style="display:inline"
     transform="translate(0.43982068,-25.749043)">
    <text
       xml:space="preserve"
       style="font-size:42.6667px;line-height:25px;font-family:'Andale Mono IPA';-inkscape-font-specification:'Andale Mono IPA';letter-spacing:0px;word-spacing:0px;fill:none;stroke:#000000;stroke-width:1px;stroke-linecap:butt;stroke-linejoin:miter;stroke-opacity:1"
       x="133.73573"
       y="169.69092"
       id="text1522"><tspan
         sodipodi:role="line"
         id="tspan1520"
         x="133.73573"
         y="169.69092" /></text>
  </g>
  <g
     inkscape:groupmode="layer"
     id="layer4"
     inkscape:label="Layer 5"
     transform="translate(0.43982068,-25.749043)">
    <rect
       style="fill:#ffffff;stroke:none;stroke-width:0.83184;stroke-linecap:round;stroke-linejoin:round"
       id="rect1542"
       width="56.00671"
       height="56.00671"
       x="41.953514"
       y="60.055603" />
    <path
       d="m 91.092226,74.685948 c -1.527068,1.073417 -6.502035,4.287716 -9.126103,4.287716 -2.623593,0 -3.829712,-0.84782 -5.35629,-1.921236 -1.738406,-1.222831 -3.709296,-2.608354 -7.527687,-2.608354 -3.817918,0 -5.788798,1.385523 -7.527204,2.608354 -1.526578,1.073416 -2.732706,1.921236 -5.35629,1.921236 -2.623585,0 -3.829705,-0.84782 -5.356283,-1.921236 -1.791095,-1.280602 -1.679154,-1.323667 -2.619434,-2.696005 l -2.980012,2.021715 c 1.355402,1.268682 1.688978,2.900904 3.428033,3.761842 1.738905,1.222832 3.709295,2.608346 7.527696,2.608346 3.817916,0 5.788798,-1.385514 7.527204,-2.608346 1.526578,-1.073424 2.732706,-1.921244 5.35629,-1.921244 2.624067,0 3.829705,0.84782 5.356773,1.921244 1.738398,1.222832 3.709287,2.608346 7.527204,2.608346 3.8184,0 10.259303,-4.628471 11.998201,-5.851303 -0.04734,0.154373 -0.410746,-0.359131 -2.872098,-2.211075 z"
       id="path887"
       sodipodi:nodetypes="cscscsccccscscscc"
       style="stroke-width:1.10912" />
    <path
       d="m 90.834572,84.057885 c -1.527069,1.073415 -6.502036,4.287724 -9.126112,4.287724 -2.623584,0 -3.829704,-0.84782 -5.356282,-1.921245 -1.738406,-1.222831 -3.709295,-2.608346 -7.527687,-2.608346 -3.817916,0 -5.788798,1.385515 -7.527212,2.608346 -1.526578,1.073425 -2.732698,1.921245 -5.356282,1.921245 -2.623585,0 -3.829705,-0.84782 -5.356283,-1.921245 -1.791102,-1.280594 -1.679162,-1.323658 -2.619442,-2.695997 l -2.980012,2.021715 c 1.355402,1.268675 1.688987,2.900904 3.428042,3.761835 1.738897,1.222839 3.709296,2.608353 7.527695,2.608353 3.817917,0 5.788798,-1.385514 7.527204,-2.608353 1.526578,-1.073416 2.732697,-1.921237 5.35629,-1.921237 2.624067,0 3.829705,0.847821 5.356773,1.921237 1.738398,1.222839 3.709288,2.608353 7.527196,2.608353 3.818409,0 10.259312,-4.628471 11.998209,-5.851302 -0.04733,0.154365 -0.410746,-0.359139 -2.872097,-2.211083 z"
       id="path887-1"
       sodipodi:nodetypes="cscscsccccscscscc"
       style="stroke-width:1.10912" />
    <path
       d="m 90.308682,94.487932 c -1.527069,1.073415 -6.502027,4.287723 -9.126103,4.287723 -2.623594,0 -3.829713,-0.847828 -5.356282,-1.921244 -1.738407,-1.222831 -3.709295,-2.608354 -7.527695,-2.608354 -3.817917,0 -5.788799,1.385523 -7.527205,2.608354 -1.526578,1.073416 -2.732697,1.921244 -5.356282,1.921244 -2.623585,0 -3.829704,-0.847828 -5.356282,-1.921244 -1.791103,-1.280603 -1.679162,-1.323667 -2.619442,-2.695997 l -2.980013,2.021715 c 1.355403,1.268674 1.688987,2.900895 3.428042,3.761834 1.738898,1.222837 3.709287,2.608357 7.527695,2.608357 3.81791,0 5.78879,-1.38552 7.527204,-2.608357 1.52657,-1.073416 2.732698,-1.921237 5.356283,-1.921237 2.624075,0 3.829704,0.847821 5.356772,1.921237 1.738406,1.222837 3.709288,2.608357 7.527205,2.608357 3.818401,0 10.259303,-4.628474 11.998208,-5.851305 -0.04733,0.154364 -0.410754,-0.35914 -2.872105,-2.211083 z"
       id="path887-3"
       sodipodi:nodetypes="cscscsccccscscscc"
       style="stroke-width:1.10912" />
  </g>
</svg>
