<?xml version="1.0" encoding="UTF-8" standalone="no"?>
<svg
   version="1.2"
   width="400"
   height="227.778"
   id="svg2"
   sodipodi:docname="ES_CAT_OR44a.svg"
   inkscape:version="1.3.2 (091e20e, 2023-11-25, custom)"
   xmlns:inkscape="http://www.inkscape.org/namespaces/inkscape"
   xmlns:sodipodi="http://sodipodi.sourceforge.net/DTD/sodipodi-0.dtd"
   xmlns="http://www.w3.org/2000/svg"
   xmlns:svg="http://www.w3.org/2000/svg"
   xmlns:rdf="http://www.w3.org/1999/02/22-rdf-syntax-ns#"
   xmlns:cc="http://creativecommons.org/ns#"
   xmlns:dc="http://purl.org/dc/elements/1.1/">
  <sodipodi:namedview
     pagecolor="#ffffff"
     bordercolor="#666666"
     borderopacity="1"
     objecttolerance="10"
     gridtolerance="10"
     guidetolerance="10"
     inkscape:pageopacity="0"
     inkscape:pageshadow="2"
     inkscape:window-width="1920"
     inkscape:window-height="1017"
     id="namedview6659"
     showgrid="false"
     inkscape:zoom="2"
     inkscape:cx="190.25"
     inkscape:cy="51.75"
     inkscape:window-x="-8"
     inkscape:window-y="-8"
     inkscape:window-maximized="1"
     inkscape:current-layer="layer11"
     fit-margin-top="0"
     fit-margin-left="0"
     fit-margin-right="0"
     fit-margin-bottom="0"
     inkscape:document-rotation="0"
     inkscape:showpageshadow="false"
     inkscape:pagecheckerboard="true"
     inkscape:deskcolor="#d1d1d1" />
  <metadata
     id="metadata4010">
    <rdf:RDF>
      <cc:Work
         rdf:about="">
        <dc:format>image/svg+xml</dc:format>
        <dc:type
           rdf:resource="http://purl.org/dc/dcmitype/StillImage" />
      </cc:Work>
    </rdf:RDF>
  </metadata>
  <defs
     id="defs4008" />
  <g
     inkscape:groupmode="layer"
     id="layer11"
     inkscape:label="Layer 1"
     style="display:inline"
     transform="translate(-3.6451486,-83.127105)">
    <path
       d="m 402.2461,292.86754 c 0.46661,5.1932 -0.085,10.46601 -2.75589,14.48754 -0.44382,0.27566 -0.46166,0.7017 -2.73468,1.51404 l -5.16322,1.84527 c 9.26817,0.31236 -147.31693,-0.17511 -266.20909,0.0843 -29.708539,0.0649 -59.245969,-0.19014 -82.190211,0.0546 -6.745974,0.072 -12.766775,0.0625 -18.343821,0.011 -3.918893,-0.0358 -7.83564,0.038 -10.693321,-0.45748 -9.8666922,-1.71063 -9.344433,-7.4835 -9.3662522,-12.18416 L 4.076157,144.51814 C 3.9630918,120.15982 -0.94248341,123.23856 25.405612,123.23856 H 381.1879 c 13.90258,0 18.25365,-0.70566 19.80317,1.96147 1.38753,2.38832 1.20573,7.34423 1.2507,18.85177 0.20498,52.44659 -0.20614,52.54904 -0.0566,105.01968 0.0739,25.93706 0.01,-26.57551 -0.0215,-0.7714 -0.0155,12.94495 0.44809,31.56178 0.0826,44.56746 z"
       id="path3217"
       style="fill:#ffffff;fill-opacity:1;stroke-width:1.37145"
       sodipodi:nodetypes="ccscsssssssssssscc" />
    <path
       d="m 396.03951,292.6536 c 0,14.75828 1.59566,12.25345 -13.16421,12.19749 L 21.514937,303.4812 C 6.7550849,303.42525 10.290636,304.10597 10.290636,289.34639 V 144.31571 c 0,-14.76344 -0.6295655,-12.25663 14.130273,-12.20007 l 357.485741,1.36989 c 14.75986,0.0565 14.13286,1.30998 14.13286,16.07471 z"
       id="path3243"
       style="fill:none;stroke:#000000;stroke-width:5.48581;stroke-miterlimit:3.864;stroke-opacity:1"
       sodipodi:nodetypes="sssssssss" />
    <path
       d="m 196.3323,261.58241 8.75489,9.10091 9.69602,-14.70393 -0.58072,30.25583 -30.24574,-0.57702 15.06409,-9.13439 -14.94391,-15.0401 6.06636,-5.84053"
       id="polyline3245"
       style="fill:#000000;fill-opacity:1;stroke-width:1.37145"
       sodipodi:nodetypes="cccccccc" />
    <text
       xml:space="preserve"
       style="font-size:38.6689px;line-height:22.6576px;font-family:'Andale Mono IPA';-inkscape-font-specification:'Andale Mono IPA';letter-spacing:0px;word-spacing:0px;fill:#ffffff;fill-opacity:1;stroke:none;stroke-width:0.999997px;stroke-linecap:butt;stroke-linejoin:miter;stroke-opacity:1"
       x="307.61365"
       y="178.6953"
       id="text4113"
       transform="scale(1.067666,0.9366225)"><tspan
         sodipodi:role="line"
         id="tspan4111"
         x="307.61365"
         y="178.6953"
         style="font-style:normal;font-variant:normal;font-weight:normal;font-stretch:normal;font-size:38.6689px;font-family:'Highway Gothic Wide';-inkscape-font-specification:'Highway Gothic Wide';fill:#ffffff;fill-opacity:1;stroke:none;stroke-width:0.999997px" /></text>
    <text
       xml:space="preserve"
       style="font-size:41.9669px;line-height:24.5899px;font-family:Haettenschweiler;-inkscape-font-specification:Haettenschweiler;letter-spacing:0px;word-spacing:0px;fill:none;stroke:#000000;stroke-width:1.37145px;stroke-linecap:butt;stroke-linejoin:miter;stroke-opacity:1"
       x="35.462006"
       y="189.10265"
       id="text5780"
       transform="scale(1.0059643,0.99407107)"><tspan
         sodipodi:role="line"
         id="tspan5778"
         x="35.462006"
         y="189.10265"
         style="font-style:normal;font-variant:normal;font-weight:normal;font-stretch:normal;font-family:TrafficTypeW01-SpainD;-inkscape-font-specification:TrafficTypeW01-SpainD;fill:#000000;fill-opacity:1;stroke:none;stroke-width:1.37145px">DESTINACIONS</tspan></text>
    <rect
       style="display:inline;fill:#ff2121;fill-opacity:1;stroke:#ffffff;stroke-width:2.74289;stroke-linecap:round;stroke-linejoin:round;stroke-miterlimit:2.613;stroke-dasharray:none;stroke-opacity:1"
       id="rect5280"
       width="99.156853"
       height="38.828621"
       x="165.28386"
       y="84.49855" />
    <text
       xml:space="preserve"
       style="font-size:38.6452px;line-height:22.6438px;font-family:'Highway Gothic Wide';-inkscape-font-specification:'Highway Gothic Wide';letter-spacing:0px;word-spacing:0px;display:inline;fill:none;stroke:#000000;stroke-width:1.37145px;stroke-linecap:butt;stroke-linejoin:miter;stroke-opacity:1"
       x="174.05217"
       y="115.90372"
       id="text5284"
       transform="scale(0.99551619,1.004504)"><tspan
         sodipodi:role="line"
         id="tspan5282"
         x="174.05217"
         y="115.90372"
         style="font-style:normal;font-variant:normal;font-weight:normal;font-stretch:normal;font-family:TrafficTypeW01-SpainD;-inkscape-font-specification:TrafficTypeW01-SpainD;fill:#ffffff;fill-opacity:1;stroke:none;stroke-width:1.37145px">C-15</tspan></text>
  </g>
</svg>
