<?xml version="1.0" encoding="UTF-8" standalone="no"?>
<svg
   version="1.2"
   width="400"
   height="285.58499"
   id="svg2"
   sodipodi:docname="ES_CAT_OR42b.svg"
   inkscape:version="1.3.2 (091e20e, 2023-11-25, custom)"
   xmlns:inkscape="http://www.inkscape.org/namespaces/inkscape"
   xmlns:sodipodi="http://sodipodi.sourceforge.net/DTD/sodipodi-0.dtd"
   xmlns="http://www.w3.org/2000/svg"
   xmlns:svg="http://www.w3.org/2000/svg"
   xmlns:rdf="http://www.w3.org/1999/02/22-rdf-syntax-ns#"
   xmlns:cc="http://creativecommons.org/ns#"
   xmlns:dc="http://purl.org/dc/elements/1.1/">
  <sodipodi:namedview
     pagecolor="#ffffff"
     bordercolor="#666666"
     borderopacity="1"
     objecttolerance="10"
     gridtolerance="10"
     guidetolerance="10"
     inkscape:pageopacity="0"
     inkscape:pageshadow="2"
     inkscape:window-width="1920"
     inkscape:window-height="1017"
     id="namedview6659"
     showgrid="false"
     inkscape:zoom="2"
     inkscape:cx="188.75"
     inkscape:cy="121.25"
     inkscape:window-x="-8"
     inkscape:window-y="-8"
     inkscape:window-maximized="1"
     inkscape:current-layer="layer11"
     fit-margin-top="0"
     fit-margin-left="0"
     fit-margin-right="0"
     fit-margin-bottom="0"
     inkscape:document-rotation="0"
     inkscape:showpageshadow="false"
     inkscape:pagecheckerboard="true"
     inkscape:deskcolor="#d1d1d1" />
  <metadata
     id="metadata4010">
    <rdf:RDF>
      <cc:Work
         rdf:about="">
        <dc:format>image/svg+xml</dc:format>
        <dc:type
           rdf:resource="http://purl.org/dc/dcmitype/StillImage" />
      </cc:Work>
    </rdf:RDF>
  </metadata>
  <defs
     id="defs4008" />
  <g
     inkscape:groupmode="layer"
     id="layer11"
     inkscape:label="Layer 1"
     style="display:inline"
     transform="translate(-5.154911,16.680047)">
    <path
       d="m 403.09672,251.11106 c 0.46031,5.12308 -0.0839,10.32471 -2.71868,14.29195 -0.43783,0.27194 -0.45543,0.69223 -2.69776,1.4936 l -5.09352,1.82035 c 9.14305,0.30815 -150.0634,-0.17274 -267.35048,0.0832 -29.307468,0.064 -58.446135,-0.18758 -81.080624,0.0538 -6.6549,0.071 -12.594419,0.0617 -18.096174,0.0108 -3.865987,-0.0353 -7.729856,0.0375 -10.548958,-0.45132 -9.7334892,-1.68753 -9.2241482,-7.38245 -9.2398053,-12.01966 L 5.5668928,47.941007 C 5.4857586,23.911413 0.61600533,26.948709 26.608395,26.948709 H 382.32281 c 13.71489,0 18.00722,-0.696142 19.53583,1.934991 1.36879,2.356072 1.18945,7.245073 1.23381,18.597268 0.20221,51.738544 -0.20336,103.927722 -0.0559,155.690002 0.0729,25.5869 0.009,-26.21674 -0.0212,-0.76099 -0.0153,12.77019 0.44205,35.87097 0.0815,48.70108 z"
       id="path3217"
       style="fill:#ffffff;fill-opacity:1;stroke-width:1.35293"
       sodipodi:nodetypes="ccscsssssssssssscc" />
    <path
       d="m 392.23864,246.16471 c 0,14.55905 1.57411,12.08803 -12.98649,12.03283 L 22.770245,256.84615 c -14.5605906,-0.0552 -11.07277,0.61633 -11.07277,-13.94399 V 134.32935 c 0,-14.56413 -0.621067,-12.09117 13.93951,-12.03537 l 352.659585,1.35139 c 14.5606,0.0558 13.94207,1.2923 13.94207,15.85771 z"
       id="path3243"
       style="fill:none;stroke:#000000;stroke-width:5.41175;stroke-miterlimit:3.864;stroke-opacity:1"
       sodipodi:nodetypes="sssssssss" />
    <path
       d="m 195.22753,215.513 8.6367,8.97804 9.56512,-14.50542 -0.57289,29.84737 -29.83741,-0.56923 14.86073,-9.01107 -14.74217,-14.83707 5.98446,-5.76167"
       id="polyline3245"
       style="fill:#000000;fill-opacity:1;stroke-width:1.35293"
       sodipodi:nodetypes="cccccccc" />
    <text
       xml:space="preserve"
       style="font-size:38.6689px;line-height:22.6576px;font-family:'Andale Mono IPA';-inkscape-font-specification:'Andale Mono IPA';letter-spacing:0px;word-spacing:0px;fill:#ffffff;fill-opacity:1;stroke:none;stroke-width:0.999997px;stroke-linecap:butt;stroke-linejoin:miter;stroke-opacity:1"
       x="307.61365"
       y="178.6953"
       id="text4113"
       transform="scale(1.067666,0.9366225)"><tspan
         sodipodi:role="line"
         id="tspan4111"
         x="307.61365"
         y="178.6953"
         style="font-style:normal;font-variant:normal;font-weight:normal;font-stretch:normal;font-size:38.6689px;font-family:'Highway Gothic Wide';-inkscape-font-specification:'Highway Gothic Wide';fill:#ffffff;fill-opacity:1;stroke:none;stroke-width:0.999997px" /></text>
    <path
       d="M 14.89854,98.85687 V 46.603885 c 0,-10.986927 -1.814047,-8.271708 7.424477,-8.242575 l 358.170003,1.12948 c 9.35389,0.02949 8.8516,-2.74329 8.8516,8.242582 v 49.386231 c 0,10.986917 2.17457,11.611127 -7.17932,11.581787 L 22.084116,107.5719 c -9.238525,-0.0289 -7.185576,2.27188 -7.185576,-8.71503 h -4.844628 4.844628 m -4.844628,0 c 0,14.14094 0.134211,14.45084 12.030204,14.48815 l 360.081184,1.12949 c 11.89599,0.0373 12.02931,-3.21292 12.02931,-17.354907 V 47.733372 c 0,-14.152636 -1.80649,-13.978194 -13.70159,-14.015704 L 22.323017,32.588187 C 10.427025,32.550674 10.053912,32.451256 10.053912,46.603885 Z"
       id="path5608"
       style="fill:#000000;fill-opacity:1;stroke-width:1.35293"
       sodipodi:nodetypes="cssssssscccsssssssss" />
    <g
       id="g5651"
       transform="matrix(0.7204293,0,0,0.72043076,-6.9970313,4.0023518)"
       style="fill:#000000;stroke-width:1.87796">
      <path
         d="M 53.950398,130.92797 H 81.72097 l 2.616542,-67.631163 h -8.05066 L 53.950398,130.92797"
         id="polyline5612"
         style="fill:#000000;stroke-width:1.87796" />
      <path
         d="m 91.185094,130.92797 h 27.561746 l -10.05787,-31.800578 20.323,-22.947344 6.64656,16.099763 V 63.296807 h -28.98301 l 16.30859,6.646548 -19.7277,12.280143 -6.035656,-18.926691 h -8.05066 l 2.015,67.631163"
         id="polyline5614"
         style="fill:#000000;stroke-width:1.87796" />
    </g>
    <text
       xml:space="preserve"
       style="font-size:38.1235px;line-height:22.3381px;font-family:'Highway Gothic Wide';-inkscape-font-specification:'Highway Gothic Wide';letter-spacing:0px;word-spacing:0px;display:inline;fill:#000000;stroke:#000000;stroke-width:1.35293px;stroke-linecap:butt;stroke-linejoin:miter;stroke-opacity:1"
       x="329.8212"
       y="86.922539"
       id="text5284-6"
       transform="scale(0.99551619,1.004504)"><tspan
         sodipodi:role="line"
         id="tspan5282-9"
         x="329.8212"
         y="86.922539"
         style="font-style:normal;font-variant:normal;font-weight:normal;font-stretch:normal;font-family:TrafficTypeW01-SpainD;-inkscape-font-specification:TrafficTypeW01-SpainD;fill:#000000;fill-opacity:1;stroke:none;stroke-width:1.35293px">63</tspan></text>
    <text
       xml:space="preserve"
       style="font-size:41.4003px;line-height:24.2579px;font-family:Haettenschweiler;-inkscape-font-specification:Haettenschweiler;letter-spacing:0px;word-spacing:0px;fill:none;stroke:#000000;stroke-width:1.35293px;stroke-linecap:butt;stroke-linejoin:miter;stroke-opacity:1"
       x="36.519859"
       y="172.33919"
       id="text5780"
       transform="scale(1.0059643,0.99407107)"><tspan
         sodipodi:role="line"
         id="tspan5778"
         x="36.519859"
         y="172.33919"
         style="font-style:normal;font-variant:normal;font-weight:normal;font-stretch:normal;font-family:TrafficTypeW01-SpainD;-inkscape-font-specification:TrafficTypeW01-SpainD;fill:#000000;fill-opacity:1;stroke:none;stroke-width:1.35293px">DESTINACIONS</tspan></text>
    <rect
       style="display:inline;fill:#ff2121;fill-opacity:1;stroke:#ffffff;stroke-width:2.70586;stroke-linecap:round;stroke-linejoin:round;stroke-miterlimit:2.613;stroke-dasharray:none;stroke-opacity:1"
       id="rect5280"
       width="97.818214"
       height="38.304424"
       x="164.59825"
       y="-15.327117" />
    <text
       xml:space="preserve"
       style="font-size:38.1235px;line-height:22.3381px;font-family:'Highway Gothic Wide';-inkscape-font-specification:'Highway Gothic Wide';letter-spacing:0px;word-spacing:0px;display:inline;fill:none;stroke:#000000;stroke-width:1.35293px;stroke-linecap:butt;stroke-linejoin:miter;stroke-opacity:1"
       x="173.25516"
       y="16.096556"
       id="text5284"
       transform="scale(0.99551619,1.004504)"><tspan
         sodipodi:role="line"
         id="tspan5282"
         x="173.25516"
         y="16.096556"
         style="font-style:normal;font-variant:normal;font-weight:normal;font-stretch:normal;font-family:TrafficTypeW01-SpainD;-inkscape-font-specification:TrafficTypeW01-SpainD;fill:#ffffff;fill-opacity:1;stroke:none;stroke-width:1.35293px">C-15</tspan></text>
  </g>
</svg>
