<?xml version="1.0" encoding="UTF-8" standalone="no"?>
<svg
   version="1.2"
   width="400"
   height="258.79099"
   id="svg2"
   sodipodi:docname="ES_CAT_OR43c.svg"
   inkscape:version="1.3.2 (091e20e, 2023-11-25, custom)"
   xmlns:inkscape="http://www.inkscape.org/namespaces/inkscape"
   xmlns:sodipodi="http://sodipodi.sourceforge.net/DTD/sodipodi-0.dtd"
   xmlns="http://www.w3.org/2000/svg"
   xmlns:svg="http://www.w3.org/2000/svg"
   xmlns:rdf="http://www.w3.org/1999/02/22-rdf-syntax-ns#"
   xmlns:cc="http://creativecommons.org/ns#"
   xmlns:dc="http://purl.org/dc/elements/1.1/">
  <sodipodi:namedview
     pagecolor="#ffffff"
     bordercolor="#666666"
     borderopacity="1"
     objecttolerance="10"
     gridtolerance="10"
     guidetolerance="10"
     inkscape:pageopacity="0"
     inkscape:pageshadow="2"
     inkscape:window-width="1920"
     inkscape:window-height="1017"
     id="namedview6659"
     showgrid="false"
     inkscape:zoom="1"
     inkscape:cx="279.5"
     inkscape:cy="-5.5"
     inkscape:window-x="-8"
     inkscape:window-y="-8"
     inkscape:window-maximized="1"
     inkscape:current-layer="layer11"
     fit-margin-top="0"
     fit-margin-left="0"
     fit-margin-right="0"
     fit-margin-bottom="0"
     inkscape:document-rotation="0"
     inkscape:showpageshadow="false"
     inkscape:pagecheckerboard="true"
     inkscape:deskcolor="#d1d1d1" />
  <metadata
     id="metadata4010">
    <rdf:RDF>
      <cc:Work
         rdf:about="">
        <dc:format>image/svg+xml</dc:format>
        <dc:type
           rdf:resource="http://purl.org/dc/dcmitype/StillImage" />
      </cc:Work>
    </rdf:RDF>
  </metadata>
  <defs
     id="defs4008" />
  <g
     inkscape:groupmode="layer"
     id="layer11"
     inkscape:label="Layer 1"
     style="display:inline"
     transform="translate(-4.649623,11.885957)">
    <path
       d="m 403.4162,228.4137 c 0.46126,5.32386 -0.0841,10.72935 -2.72427,14.85205 -0.43873,0.28261 -0.45636,0.71937 -2.7033,1.55214 l -5.10398,1.8917 c 9.16183,0.32022 -150.37172,-0.17951 -267.89977,0.0865 -29.367685,0.0666 -58.56622,-0.19492 -81.247213,0.056 -6.668574,0.0738 -12.620295,0.0641 -18.133355,0.0113 -3.873929,-0.0368 -7.745737,0.039 -10.570631,-0.46901 C 5.2801941,244.64065 5.7937666,238.72253 5.7748922,233.9036 L 5.0696203,53.836311 C 4.971815,28.865055 0.10856088,32.021318 26.154353,32.021318 H 382.59961 c 13.74307,0 18.04422,-0.723425 19.57597,2.010824 1.3716,2.448406 1.19188,7.529013 1.23635,19.326101 0.20262,53.766197 -0.20379,71.445727 -0.056,125.236587 0.073,26.58966 0.009,-27.24419 -0.0213,-0.79082 -0.0153,13.27067 0.44296,37.27678 0.0817,50.60969 z"
       id="path3217"
       style="fill:#000080;stroke-width:1.3806"
       sodipodi:nodetypes="ccscsssssssssssscc" />
    <path
       d="m 392.53581,223.2735 c 0,15.12963 1.57735,12.56177 -13.01317,12.50441 L 22.308317,234.37356 C 7.7178116,234.3162 11.212798,235.01404 11.212798,219.88309 V 53.628792 c 0,-15.134912 -0.622342,-12.565024 13.96815,-12.507042 L 378.5651,42.526107 c 14.59052,0.05793 13.97071,1.342945 13.97071,16.479175 z"
       id="path3243"
       style="fill:none;stroke:#ffffff;stroke-width:5.52245;stroke-miterlimit:3.864"
       sodipodi:nodetypes="sssssssss" />
    <path
       d="m 216.44137,150.08878 -0.44631,23.88489 31.47234,-6.69884 -39.77463,39.69505 -38.26829,-41.23021 31.2125,7.9319 0.12405,-40.10829 15.35813,0.30211"
       id="polyline3245"
       style="fill:#ffffff;stroke-width:1.3806"
       sodipodi:nodetypes="cccccccc" />
    <text
       xml:space="preserve"
       style="font-size:38.6689px;line-height:22.6576px;font-family:'Andale Mono IPA';-inkscape-font-specification:'Andale Mono IPA';letter-spacing:0px;word-spacing:0px;fill:#ffffff;fill-opacity:1;stroke:none;stroke-width:0.999997px;stroke-linecap:butt;stroke-linejoin:miter;stroke-opacity:1"
       x="307.61365"
       y="178.6953"
       id="text4113"
       transform="scale(1.067666,0.9366225)"><tspan
         sodipodi:role="line"
         id="tspan4111"
         x="307.61365"
         y="178.6953"
         style="font-style:normal;font-variant:normal;font-weight:normal;font-stretch:normal;font-size:38.6689px;font-family:'Highway Gothic Wide';-inkscape-font-specification:'Highway Gothic Wide';fill:#ffffff;fill-opacity:1;stroke:none;stroke-width:0.999997px" /></text>
    <text
       xml:space="preserve"
       style="font-size:54.9784px;line-height:32.2138px;font-family:Haettenschweiler;-inkscape-font-specification:Haettenschweiler;letter-spacing:0px;word-spacing:0px;fill:none;stroke:#000000;stroke-width:1.3806px;stroke-linecap:butt;stroke-linejoin:miter;stroke-opacity:1"
       x="58.370335"
       y="110.9904"
       id="text5780"
       transform="scale(0.98298358,1.017311)"><tspan
         sodipodi:role="line"
         id="tspan5778"
         x="58.370335"
         y="110.9904"
         style="font-style:normal;font-variant:normal;font-weight:normal;font-stretch:normal;font-family:'Highway Gothic Wide';-inkscape-font-specification:'Highway Gothic Wide';fill:#ffffff;stroke:none;stroke-width:1.3806px">Destinacions</tspan></text>
    <rect
       style="display:inline;fill:#000080;stroke:#ffffff;stroke-width:2.76121;stroke-linecap:round;stroke-linejoin:round;stroke-miterlimit:2.613;stroke-dasharray:none;stroke-opacity:1"
       id="rect5280"
       width="98.019196"
       height="39.805588"
       x="164.42773"
       y="-10.505352" />
    <text
       xml:space="preserve"
       style="font-size:38.9032px;line-height:22.7949px;font-family:'Highway Gothic Wide';-inkscape-font-specification:'Highway Gothic Wide';letter-spacing:0px;word-spacing:0px;display:inline;fill:none;stroke:#000000;stroke-width:1.3806px;stroke-linecap:butt;stroke-linejoin:miter;stroke-opacity:1"
       x="176.27846"
       y="21.72658"
       id="text5284"
       transform="scale(0.97756681,1.022948)"><tspan
         sodipodi:role="line"
         id="tspan5282"
         x="176.27846"
         y="21.72658"
         style="font-style:normal;font-variant:normal;font-weight:normal;font-stretch:normal;font-family:'Highway Gothic Wide';-inkscape-font-specification:'Highway Gothic Wide';fill:#ffffff;fill-opacity:1;stroke:none;stroke-width:1.3806px">C-32</tspan></text>
  </g>
</svg>
