<?xml version="1.0" encoding="UTF-8" standalone="no"?>
<svg
   version="1.1"
   id="Layer_1"
   x="0px"
   y="0px"
   width="200"
   height="200"
   viewBox="-360.791 -360.781 200 200"
   xml:space="preserve"
   sodipodi:docname="ES_R301-100.svg"
   inkscape:version="1.3.2 (091e20e, 2023-11-25, custom)"
   xmlns:inkscape="http://www.inkscape.org/namespaces/inkscape"
   xmlns:sodipodi="http://sodipodi.sourceforge.net/DTD/sodipodi-0.dtd"
   xmlns="http://www.w3.org/2000/svg"
   xmlns:svg="http://www.w3.org/2000/svg"><defs
   id="defs5" /><sodipodi:namedview
   id="namedview5"
   pagecolor="#ffffff"
   bordercolor="#000000"
   borderopacity="0.25"
   inkscape:showpageshadow="2"
   inkscape:pageopacity="0.0"
   inkscape:pagecheckerboard="true"
   inkscape:deskcolor="#d1d1d1"
   inkscape:zoom="1.0667103"
   inkscape:cx="384.828"
   inkscape:cy="384.828"
   inkscape:window-width="1920"
   inkscape:window-height="1017"
   inkscape:window-x="-8"
   inkscape:window-y="-8"
   inkscape:window-maximized="1"
   inkscape:current-layer="Layer_1" />
<path
   fill="#e41408"
   d="m -360.791,-261.40233 c 0,-54.8846 44.4982,-99.37867 99.389,-99.37867 54.88073,0 99.38487,44.49407 99.38487,99.37867 0,54.88667 -44.50414,99.38693 -99.38487,99.38693 -54.8908,0 -99.389,-44.50026 -99.389,-99.38693"
   id="path1"
   style="stroke-width:0.258253" />
<path
   fill="#ffffff"
   d="m -334.2837,-261.40233 c 0,-40.24917 32.62659,-72.87964 72.8817,-72.87964 40.24917,0 72.8737,32.63073 72.8737,72.87964 0,40.25511 -32.62453,72.87576 -72.8737,72.87576 -40.25511,0 -72.8817,-32.62065 -72.8817,-72.87576"
   id="path2"
   style="stroke-width:0.258253" />
<path
   fill-rule="evenodd"
   clip-rule="evenodd"
   d="m -316.79097,-234.42295 h 12.37417 v -52.6502 h -10.98425 v 2.29613 c 0,2.7429 -2.76718,5.49845 -5.4982,5.49845 h -4.57985 v 10.51294 h 8.68839 v 34.34268"
   id="path3"
   style="stroke-width:0.258253" />
<path
   fill-rule="evenodd"
   clip-rule="evenodd"
   d="m -253.36389,-272.50796 c -2.29612,-9.14757 -11.45557,-16.02328 -21.06256,-16.02328 -9.61887,0 -18.30726,6.87571 -21.0685,16.02328 -1.35944,6.4044 -1.35944,16.4827 0,22.88711 2.76098,9.14756 11.44937,16.0114 21.0685,16.0114 9.60699,0 18.76644,-6.86384 21.06256,-16.0114 1.81241,-6.40441 1.81241,-16.48271 0,-22.88711 z m -11.45582,18.77857 c -0.46538,4.55557 -5.02689,8.22896 -9.607,8.22896 -4.57365,0 -8.71266,-3.67364 -9.61887,-8.22896 -0.45324,-4.12094 -0.45324,-10.52508 0,-14.6579 0.90621,-4.59199 5.04522,-8.24135 9.61887,-8.24135 4.57985,0 9.14162,3.64936 9.607,8.24135 0.9062,4.13282 0.9062,10.53696 0,14.6579 z"
   id="path4"
   style="stroke-width:0.258253" />
<path
   fill-rule="evenodd"
   clip-rule="evenodd"
   d="m -199.13086,-272.50796 c -2.29613,-9.14757 -11.45557,-16.02328 -21.06282,-16.02328 -9.61887,0 -18.30726,6.87571 -21.06824,16.02328 -1.35944,6.4044 -1.35944,16.4827 0,22.88711 2.76098,9.14756 11.44937,16.0114 21.06824,16.0114 9.60699,0 18.76669,-6.86384 21.06282,-16.0114 1.81241,-6.40441 1.81241,-16.48271 0,-22.88711 z m -11.45583,18.77857 c -0.46537,4.55557 -5.02714,8.22896 -9.60699,8.22896 -4.57365,0 -8.71241,-3.67364 -9.61887,-8.22896 -0.45298,-4.12094 -0.45298,-10.52508 0,-14.6579 0.90646,-4.59199 5.04522,-8.24135 9.61887,-8.24135 4.57985,0 9.14162,3.64936 9.60699,8.24135 0.90621,4.13282 0.90621,10.53696 0,14.6579 z"
   id="path5"
   style="stroke-width:0.258253" />
</svg>
