<?xml version="1.0" encoding="UTF-8" standalone="no"?>
<svg
   version="1.1"
   id="Layer_1"
   x="0px"
   y="0px"
   width="200"
   height="198.74187"
   viewBox="-360.791 -360.781 200 198.74187"
   xml:space="preserve"
   sodipodi:docname="ES_R301-50.svg"
   inkscape:version="1.3.2 (091e20e, 2023-11-25, custom)"
   xmlns:inkscape="http://www.inkscape.org/namespaces/inkscape"
   xmlns:sodipodi="http://sodipodi.sourceforge.net/DTD/sodipodi-0.dtd"
   xmlns="http://www.w3.org/2000/svg"
   xmlns:svg="http://www.w3.org/2000/svg"><defs
   id="defs4" /><sodipodi:namedview
   id="namedview4"
   pagecolor="#ffffff"
   bordercolor="#000000"
   borderopacity="0.25"
   inkscape:showpageshadow="2"
   inkscape:pageopacity="0.0"
   inkscape:pagecheckerboard="true"
   inkscape:deskcolor="#d1d1d1"
   inkscape:zoom="1.0667103"
   inkscape:cx="384.828"
   inkscape:cy="384.828"
   inkscape:window-width="1920"
   inkscape:window-height="1017"
   inkscape:window-x="-8"
   inkscape:window-y="-8"
   inkscape:window-maximized="1"
   inkscape:current-layer="Layer_1" />
<path
   fill="#e41408"
   d="m -360.791,-261.4142 c 0,-54.87805 44.49289,-99.3668 99.37713,-99.3668 54.87417,0 99.37299,44.48875 99.37299,99.3668 0,54.88011 -44.49882,99.37506 -99.37299,99.37506 -54.88424,0 -99.37713,-44.49495 -99.37713,-99.37506"
   id="path1"
   style="stroke-width:0.258222" />
<path
   fill="#ffffff"
   d="m -334.28687,-261.4142 c 0,-40.24437 32.62269,-72.87093 72.873,-72.87093 40.24436,0 72.86499,32.62682 72.86499,72.87093 0,40.2503 -32.62063,72.86706 -72.86499,72.86706 -40.25031,0 -72.873,-32.61676 -72.873,-72.86706"
   id="path2"
   style="stroke-width:0.258222" />
<path
   fill-rule="evenodd"
   d="m -312.6262,-248.08196 c 1.01481,5.06166 4.55374,10.1099 9.11445,12.63427 3.53893,2.04254 9.11445,3.53841 13.15407,3.53841 9.595,0 18.71642,-7.07837 21.23357,-16.17268 1.02204,-5.56829 0,-12.65983 -2.51715,-17.6949 -1.52247,-2.04305 -3.53841,-4.5669 -6.07621,-5.58197 -5.06166,-3.53893 -13.14116,-4.06002 -19.23106,-2.01646 l 0.51438,-5.56881 h 24.79289 v -12.64692 h -36.9257 l -3.53841,30.84923 13.64805,2.04305 c 1.50905,-2.5236 4.56071,-4.05976 7.07837,-4.56717 2.53677,0 5.56184,1.50905 7.07786,4.04608 1.52221,2.04356 2.04305,5.07509 1.52221,7.07785 -0.50069,4.06002 -4.03987,7.59947 -8.60007,7.59947 -4.0533,0 -8.08001,-3.0181 -8.59387,-7.59947 l -12.65338,4.06002"
   id="path3"
   style="stroke-width:0.258222" />
<path
   fill-rule="evenodd"
   d="m -210.75749,-275.15598 c -2.95871,-10.54397 -13.07867,-18.13879 -24.05671,-18.13879 -10.54396,0 -20.66393,7.59482 -23.62341,18.13879 -1.26219,7.59455 -1.26219,18.13878 0,25.30959 2.95948,10.54423 13.07945,18.13879 23.62341,18.13879 10.97804,0 21.098,-7.59456 24.05671,-18.13879 1.68773,-7.17055 1.68773,-17.71478 0,-25.30959 z m -13.07867,21.08844 c -0.83767,5.05986 -5.49444,8.85701 -10.54423,8.85701 -5.49315,0 -10.12952,-3.79715 -10.97777,-8.85701 -0.83871,-5.06062 -0.83871,-11.80667 0,-16.45233 0.84825,-5.47482 5.48437,-9.27197 10.97777,-9.27197 5.04979,0 9.70656,3.79715 10.54423,9.27197 0.84877,4.64566 0.84877,11.39196 0,16.45233 z"
   id="path4"
   style="stroke-width:0.258222" />
</svg>
