<?xml version="1.0" encoding="UTF-8" standalone="no"?>
<svg
   version="1.1"
   id="Layer_1"
   x="0px"
   y="0px"
   width="200"
   height="196.86694"
   viewBox="-360.791 -360.781 200 196.86694"
   xml:space="preserve"
   sodipodi:docname="ES_R301-40.svg"
   inkscape:version="1.3.2 (091e20e, 2023-11-25, custom)"
   xmlns:inkscape="http://www.inkscape.org/namespaces/inkscape"
   xmlns:sodipodi="http://sodipodi.sourceforge.net/DTD/sodipodi-0.dtd"
   xmlns="http://www.w3.org/2000/svg"
   xmlns:svg="http://www.w3.org/2000/svg"><defs
   id="defs4" /><sodipodi:namedview
   id="namedview4"
   pagecolor="#ffffff"
   bordercolor="#000000"
   borderopacity="0.25"
   inkscape:showpageshadow="2"
   inkscape:pageopacity="0.0"
   inkscape:pagecheckerboard="true"
   inkscape:deskcolor="#d1d1d1"
   inkscape:zoom="1.0667103"
   inkscape:cx="384.828"
   inkscape:cy="384.828"
   inkscape:window-width="1920"
   inkscape:window-height="1017"
   inkscape:window-x="-8"
   inkscape:window-y="-8"
   inkscape:window-maximized="1"
   inkscape:current-layer="Layer_1" />
<path
   fill="#e41408"
   d="m -360.791,-262.35162 c 0,-54.36033 44.07314,-98.42938 98.43961,-98.42938 54.35649,0 98.43551,44.06905 98.43551,98.42938 0,54.36237 -44.07902,98.43756 -98.43551,98.43756 -54.36647,0 -98.43961,-44.07519 -98.43961,-98.43756"
   id="path1"
   style="stroke-width:0.255786" />
<path
   fill="#ffffff"
   d="m -334.53691,-262.35162 c 0,-39.8647 32.31493,-72.18347 72.18552,-72.18347 39.8647,0 72.17758,32.31902 72.17758,72.18347 0,39.87058 -32.31288,72.17963 -72.17758,72.17963 -39.87059,0 -72.18552,-32.30905 -72.18552,-72.17963"
   id="path2"
   style="stroke-width:0.255786" />
<path
   fill-rule="evenodd"
   d="m -273.08953,-254.26598 v -36.99326 h -16.63016 l -28.67356,37.402 v 12.06208 h 31.58901 v 8.7182 h 13.71471 v -8.7182 h 7.06608 v -12.47082 z m -13.71497,0 h -15.37681 l 15.37681,-20.37231 z"
   id="path3"
   style="stroke-width:0.255786" />
<path
   fill-rule="evenodd"
   d="m -207.40378,-275.88268 c -2.49851,-10.40025 -12.47006,-17.87481 -23.27879,-17.87481 -10.40025,0 -20.37205,7.47456 -23.28852,17.87481 -2.08005,7.47405 -2.08005,17.8743 0,24.94037 2.91647,10.39078 12.88827,17.8651 23.28852,17.8651 10.80873,0 20.78028,-7.47432 23.27879,-17.8651 2.07979,-7.06582 2.07979,-17.46606 0,-24.94037 z m -12.47006,20.78104 c -0.83591,4.98578 -5.40398,8.72818 -10.80873,8.72818 -4.98654,0 -9.57355,-3.7424 -10.40025,-8.72818 -0.8359,-4.98654 -0.8359,-11.63492 0,-16.21297 0.8267,-5.40372 5.41371,-9.14612 10.40025,-9.14612 5.40475,0 9.97282,3.74214 10.80873,9.14612 0.82542,4.57805 0.82542,11.22643 0,16.21297 z"
   id="path4"
   style="stroke-width:0.255786" />
</svg>
