<?xml version="1.0" encoding="UTF-8" standalone="no"?>
<svg
   width="200"
   height="197.76559"
   id="svg2"
   version="1.1"
   inkscape:version="1.3.2 (091e20e, 2023-11-25, custom)"
   sodipodi:docname="ES_R408.svg"
   xmlns:inkscape="http://www.inkscape.org/namespaces/inkscape"
   xmlns:sodipodi="http://sodipodi.sourceforge.net/DTD/sodipodi-0.dtd"
   xmlns="http://www.w3.org/2000/svg"
   xmlns:svg="http://www.w3.org/2000/svg"
   xmlns:rdf="http://www.w3.org/1999/02/22-rdf-syntax-ns#"
   xmlns:cc="http://creativecommons.org/ns#"
   xmlns:dc="http://purl.org/dc/elements/1.1/">
  <defs
     id="defs4">
    <inkscape:path-effect
       effect="offset"
       id="path-effect913"
       is_visible="true"
       linejoin_type="round"
       unit="mm"
       offset="-1.4528283"
       miter_limit="4"
       attempt_force_join="true"
       update_on_knot_move="true"
       lpeversion="1.2" />
  </defs>
  <sodipodi:namedview
     id="base"
     pagecolor="#ffffff"
     bordercolor="#666666"
     borderopacity="1.0"
     inkscape:pageopacity="0.0"
     inkscape:pageshadow="2"
     inkscape:zoom="0.7"
     inkscape:cx="266.42857"
     inkscape:cy="397.85714"
     inkscape:document-units="px"
     inkscape:current-layer="g921"
     showgrid="false"
     fit-margin-top="0"
     fit-margin-left="0"
     fit-margin-right="0"
     fit-margin-bottom="0"
     inkscape:window-width="1280"
     inkscape:window-height="755"
     inkscape:window-x="0"
     inkscape:window-y="23"
     inkscape:window-maximized="0"
     inkscape:document-rotation="0"
     inkscape:showpageshadow="2"
     inkscape:pagecheckerboard="true"
     inkscape:deskcolor="#d1d1d1" />
  <metadata
     id="metadata7">
    <rdf:RDF>
      <cc:Work
         rdf:about="">
        <dc:format>image/svg+xml</dc:format>
        <dc:type
           rdf:resource="http://purl.org/dc/dcmitype/StillImage" />
      </cc:Work>
    </rdf:RDF>
  </metadata>
  <g
     inkscape:groupmode="layer"
     id="layer3"
     inkscape:label="fondo señal"
     style="display:inline"
     transform="translate(-828.41505,30.255435)">
    <circle
       style="fill:#ffffff;fill-opacity:1;stroke:#092d78;stroke-width:2.32453;stroke-miterlimit:4;stroke-dasharray:none;stroke-opacity:1;stop-color:#000000"
       id="path908"
       cx="927.29785"
       cy="68.627365"
       r="97.720535" />
    <path
       id="circle910"
       style="fill:#092d78;fill-opacity:1;stroke:#092d78;stroke-width:8;stroke-miterlimit:4;stroke-dasharray:none;stroke-opacity:1;stop-color:#000000"
       d="m 1168.7266,-7.3574219 c 175.2068,-1.56e-5 317.4121,142.2071119 317.4121,317.4140619 0,175.20695 -142.2052,317.41213 -317.4121,317.41211 -175.20696,-2e-5 -317.41215,-142.20519 -317.41215,-317.41211 0,-175.20692 142.20532,-317.414041 317.41215,-317.4140619 z"
       inkscape:path-effect="#path-effect913"
       inkscape:original-d="M 1505.0378,310.05594 A 336.31137,336.31137 0 0 1 1168.7264,646.36731 336.31137,336.31137 0 0 1 832.41507,310.05594 336.31137,336.31137 0 0 1 1168.7264,-26.255432 336.31137,336.31137 0 0 1 1505.0378,310.05594"
       inkscape:connector-curvature="0"
       transform="matrix(0.29056566,0,0,0.29056566,587.70609,-21.464242)" />
  </g>
  <g
     inkscape:label="objeto"
     inkscape:groupmode="layer"
     id="layer1"
     transform="translate(-835.10888,-221.36548)"
     style="display:inline">
    <g
       id="g921"
       transform="translate(6)">
      <path
         sodipodi:nodetypes="cccccccccccccccccccccccccccccccccccccccccccccc"
         inkscape:connector-curvature="0"
         d="m 853.62411,320.12825 c -0.0582,-2.98444 1.40342,-5.8492 1.20486,-8.88717 0.0102,-2.53979 0.33248,-5.07358 0.19608,-7.61281 2.48076,-1.09414 2.71571,-3.37844 1.29717,-5.60376 1.83912,-3.69681 3.64688,4.10495 6.3545,2.41597 4.45731,-0.34922 9.04361,1.19085 11.99576,4.63941 3.40335,2.98798 6.35391,6.59162 10.18743,9.0295 3.95372,0.40075 7.98596,-0.37852 11.96256,0.27339 2.4864,-0.2109 4.67436,1.91245 7.08091,0.87942 3.26703,-0.84702 6.87958,-1.51313 9.93859,0.38254 2.94959,1.8014 6.53712,2.21131 9.43357,3.89168 2.81988,2.94941 3.87986,7.04948 5.18174,10.80495 0.2842,4.20654 3.0107,6.85805 5.26575,9.93494 1.94348,3.26458 0.0859,6.73576 -3.24658,3.52343 -3.71654,-1.67962 -5.21106,-5.92328 -6.15749,-9.60132 -1.22616,-2.2145 -0.97296,-7.72308 -4.17607,-7.42867 0.9711,3.35234 -0.0548,6.91061 0.83017,10.27357 2.52827,2.39492 5.39581,5.09684 4.26769,8.96344 -0.75196,3.28196 1.56583,6.101 1.70678,9.25448 -2.03585,1.34609 1.28985,5.09863 -2.65371,4.30092 -2.43075,0.43471 -5.91725,0.37109 -3.76503,-3.01916 1.96419,-0.96026 2.21266,-3.48279 1.2528,-5.42426 -0.56802,-4.23734 -2.32842,-8.70118 -7.04203,-9.58458 -4.35183,-2.16834 -1.38821,6.12383 -5.8121,6.26246 -3.12579,1.80258 -2.61361,6.47867 -6.21851,7.71838 0.84363,3.36545 -2.68718,2.78661 -4.9033,3.58018 -3.8431,-0.81432 -0.0464,-5.92401 1.31798,-7.84257 1.2771,-3.57906 5.66083,-5.12916 5.25012,-9.10128 0.50732,-2.31165 3.45845,-5.93428 -0.77544,-6.17736 -3.62277,0.14869 -6.92444,2.64133 -10.67,2.15249 -2.37561,0.44506 -7.7955,-2.82933 -6.01625,1.68921 0.33537,5.17502 1.52727,10.23643 3.6554,14.97291 -2.27115,2.17559 1.20538,5.86418 -2.94497,5.77078 -4.75098,1.493 -5.12238,-3.1839 -1.93238,-5.45946 -0.79156,-4.17279 -1.18577,-8.69222 -4.19911,-11.98117 -1.48313,-3.13928 -3.80585,-4.61798 -6.94957,-2.67039 -3.76265,0.60372 -4.74705,6.49134 -2.43827,9.52063 0.85019,3.128 3.4673,1.85222 2.98929,5.87742 -0.68395,3.44543 -5.03505,6.36436 -5.60073,1.17008 -0.64287,-3.77035 -3.23915,-6.98695 -3.10347,-10.94486 -2.53223,-2.6763 -0.48098,-6.60725 1.67152,-8.78765 1.35682,-2.18194 5.1805,-4.02062 5.67045,-5.87035 -2.04868,-3.35117 0.27685,-7.61008 -3.36088,-10.1781 -1.80302,-2.35727 -5.4684,-9.78057 -8.25709,-4.58245 1.29815,2.8794 -0.62001,7.97932 -4.86316,6.75257 -1.59231,-0.53596 -2.75125,-1.90404 -3.62498,-3.27738 z"
         style="fill:#ffffff;fill-opacity:1;stroke:none;stroke-width:0.290566px;stroke-linecap:butt;stroke-linejoin:miter;stroke-opacity:1"
         id="path874" />
      <path
         sodipodi:nodetypes="ccccccccccccccccccc"
         inkscape:connector-curvature="0"
         d="m 933.62999,317.69771 0.73379,-13.13483 c -0.0556,-1.91082 2.63154,-0.87861 3.84105,-1.0484 3.9781,0.0951 7.95569,0.24155 11.93542,0.24124 1.98482,-0.56208 2.00888,-2.93239 1.91282,-4.60869 0.11579,-5.18979 0.21043,-10.38003 0.28853,-15.57051 -0.60248,-1.81562 -2.51304,-3.07878 -4.42566,-2.69032 -2.26801,0.31563 -4.21442,1.64094 -6.34314,2.39576 -4.25353,1.8468 -8.54161,3.62072 -12.71245,5.65122 -2.08832,0.9888 -1.84692,2.70519 -0.85028,4.56857 1.35575,2.35823 4.00609,1.43632 5.66252,0.84087 1.80682,-0.71401 3.13041,-1.66093 4.95397,-2.3152 2.08597,-1.10742 2.17209,-0.76582 2.19458,0.57864 v 3.95852 c -3.42429,-0.0759 -6.84837,-0.1638 -10.27306,-0.22013 -1.65542,-0.0446 -2.7002,1.06246 -2.69195,3.14088 -0.1789,5.78771 -0.47842,12.61287 -0.58904,18.40242 0.26776,2.37904 3.51506,3.47365 5.19971,1.80669 0.57947,-0.52657 0.97252,-1.24129 1.16319,-1.99673 z"
         style="fill:#ffffff;fill-opacity:1;stroke:none;stroke-width:0.290566px;stroke-linecap:butt;stroke-linejoin:miter;stroke-opacity:1"
         id="path877" />
      <circle
         r="5.1334281"
         cy="275.45377"
         cx="946.55322"
         id="path881"
         style="fill:#ffffff;fill-opacity:1;stroke:none;stroke-width:0.226356;stroke-miterlimit:4;stroke-dasharray:none;stop-color:#000000" />
      <path
         inkscape:connector-curvature="0"
         id="path883"
         d="m 914.74668,329.88296 h 24.80184 l -4.98114,-13.80187 0.4935,-11.92179 63.94984,1.95954 -6.3302,26.1509 9.33958,0.20755 v 5.5 l -87.83552,-2.44851 z"
         style="fill:#ffffff;fill-opacity:1;stroke:none;stroke-width:0.290566px;stroke-linecap:butt;stroke-linejoin:miter;stroke-opacity:1" />
      <path
         inkscape:connector-curvature="0"
         d="m 965.18302,320.44541 a 18.678815,18.678815 0 0 0 -18.67908,18.67906 18.678815,18.678815 0 0 0 18.67908,18.67849 18.678815,18.678815 0 0 0 18.67849,-18.67849 18.678815,18.678815 0 0 0 -18.67849,-18.67906 z m -0.14587,4.51682 a 14.382267,14.382267 0 0 1 0.0726,0 14.382267,14.382267 0 0 1 14.38187,14.38243 14.382267,14.382267 0 0 1 -14.38187,14.38187 14.382267,14.382267 0 0 1 -14.38242,-14.38187 14.382267,14.382267 0 0 1 14.30978,-14.38243 z"
         style="fill:#ffffff;fill-opacity:1;stroke:none;stroke-width:0.285255;stroke-miterlimit:4;stroke-dasharray:none;stop-color:#000000"
         id="path885-6" />
      <circle
         r="6.2860103"
         cy="339.05096"
         cx="965.10956"
         id="path905"
         style="fill:#ffffff;fill-opacity:1;stroke:none;stroke-width:0.268793;stroke-miterlimit:4;stroke-dasharray:none;stop-color:#000000" />
    </g>
  </g>
</svg>
