<?xml version="1.0" encoding="UTF-8" standalone="no"?>
<svg
   version="1.1"
   id="Layer_1"
   x="0px"
   y="0px"
   width="200"
   height="200"
   viewBox="-360.791 -360.781 200 200"
   xml:space="preserve"
   sodipodi:docname="ES_R301-70.svg"
   inkscape:version="1.3.2 (091e20e, 2023-11-25, custom)"
   xmlns:inkscape="http://www.inkscape.org/namespaces/inkscape"
   xmlns:sodipodi="http://sodipodi.sourceforge.net/DTD/sodipodi-0.dtd"
   xmlns="http://www.w3.org/2000/svg"
   xmlns:svg="http://www.w3.org/2000/svg"><defs
   id="defs3" /><sodipodi:namedview
   id="namedview3"
   pagecolor="#ffffff"
   bordercolor="#000000"
   borderopacity="0.25"
   inkscape:showpageshadow="2"
   inkscape:pageopacity="0.0"
   inkscape:pagecheckerboard="true"
   inkscape:deskcolor="#d1d1d1"
   inkscape:zoom="1.0667103"
   inkscape:cx="384.828"
   inkscape:cy="384.828"
   inkscape:window-width="1920"
   inkscape:window-height="1017"
   inkscape:window-x="-8"
   inkscape:window-y="-8"
   inkscape:window-maximized="1"
   inkscape:current-layer="Layer_1" />
<path
   fill="#e41408"
   d="m -360.791,-261.87103 c 0,-54.62575 44.28834,-98.90997 98.92026,-98.90997 54.62189,0 98.91614,44.28422 98.91614,98.90997 0,54.62781 -44.29425,98.9182 -98.91614,98.9182 -54.63192,0 -98.92026,-44.29039 -98.92026,-98.9182"
   id="path1"
   style="stroke-width:0.257035" />
<path
   fill="#ffffff"
   d="m -334.40872,-261.87103 c 0,-40.05934 32.47272,-72.53591 72.53798,-72.53591 40.05934,0 72.53,32.47683 72.53,72.53591 0,40.06526 -32.47066,72.53207 -72.53,72.53207 -40.06526,0 -72.53798,-32.46681 -72.53798,-72.53207"
   id="path2"
   style="stroke-width:0.257035" />
<polyline
   fill-rule="evenodd"
   points="-135.389,139.074 -78.205,139.074 -3.07,-45.535 -3.07,-89.614 -164.8,-89.614   -164.8,-40.605 -61.858,-40.605 -135.389,139.074 "
   id="polyline2"
   transform="matrix(0.25703454,0,0,0.25703454,-268.05525,-268.04782)" />
<path
   fill-rule="evenodd"
   d="m -212.98946,-275.54963 c -2.9451,-10.49549 -13.01854,-18.05539 -23.94611,-18.05539 -10.49549,0 -20.56893,7.5599 -23.5148,18.05539 -1.25639,7.55964 -1.25639,18.05539 0,25.19324 2.94587,10.49575 13.01931,18.05539 23.5148,18.05539 10.92757,0 21.00101,-7.55964 23.94611,-18.05539 1.67998,-7.13759 1.67998,-17.63334 0,-25.19324 z m -13.01854,20.99149 c -0.83382,5.0366 -5.46918,8.81629 -10.49575,8.81629 -5.46789,0 -10.08295,-3.77969 -10.92731,-8.81629 -0.83485,-5.03736 -0.83485,-11.75239 0,-16.37669 0.84436,-5.44965 5.45916,-9.22934 10.92731,-9.22934 5.02657,0 9.66193,3.77969 10.49575,9.22934 0.84487,4.6243 0.84487,11.33959 0,16.37669 z"
   id="path3"
   style="stroke-width:0.257035" />
</svg>
