<?xml version="1.0" encoding="UTF-8" standalone="no"?>
<svg
   width="200"
   height="194.13901"
   id="svg2"
   version="1.1"
   inkscape:version="1.3.2 (091e20e, 2023-11-25, custom)"
   sodipodi:docname="ES_R407b.svg"
   xmlns:inkscape="http://www.inkscape.org/namespaces/inkscape"
   xmlns:sodipodi="http://sodipodi.sourceforge.net/DTD/sodipodi-0.dtd"
   xmlns="http://www.w3.org/2000/svg"
   xmlns:svg="http://www.w3.org/2000/svg"
   xmlns:rdf="http://www.w3.org/1999/02/22-rdf-syntax-ns#"
   xmlns:cc="http://creativecommons.org/ns#"
   xmlns:dc="http://purl.org/dc/elements/1.1/">
  <defs
     id="defs4" />
  <sodipodi:namedview
     id="base"
     pagecolor="#ffffff"
     bordercolor="#666666"
     borderopacity="1.0"
     inkscape:pageopacity="0.0"
     inkscape:pageshadow="2"
     inkscape:zoom="0.49497475"
     inkscape:cx="384.86812"
     inkscape:cy="376.7869"
     inkscape:document-units="px"
     inkscape:current-layer="layer2"
     showgrid="false"
     fit-margin-top="0"
     fit-margin-left="0"
     fit-margin-right="0"
     fit-margin-bottom="0"
     inkscape:window-width="1920"
     inkscape:window-height="1017"
     inkscape:window-x="-8"
     inkscape:window-y="-8"
     inkscape:window-maximized="1"
     inkscape:document-rotation="0"
     inkscape:showpageshadow="2"
     inkscape:pagecheckerboard="true"
     inkscape:deskcolor="#d1d1d1" />
  <metadata
     id="metadata7">
    <rdf:RDF>
      <cc:Work
         rdf:about="">
        <dc:format>image/svg+xml</dc:format>
        <dc:type
           rdf:resource="http://purl.org/dc/dcmitype/StillImage" />
      </cc:Work>
    </rdf:RDF>
  </metadata>
  <g
     inkscape:label="Capa 1"
     inkscape:groupmode="layer"
     id="layer1"
     transform="translate(-22.838424,-78.264448)">
    <path
       inkscape:connector-curvature="0"
       id="path3787"
       d="m 22.898398,272.05948 c 0.215195,-0.21519 0.773757,-0.23819 1.24125,-0.0511 0.516618,0.20673 0.363163,0.36019 -0.391264,0.39126 -0.682688,0.0281 -1.065182,-0.12494 -0.849986,-0.34014 z m 85.632762,-0.55129 c -7.33916,-1.24024 -10.919837,-2.09611 -16.837824,-4.02467 -34.761515,-11.32814 -61.044484,-42.5743 -65.834617,-78.26663 -0.45293,-3.37488 -1.006385,-6.13615 -1.2299,-6.13615 -0.223516,0 -0.01352,-6.43016 -0.02517,-3.99933 -0.01715,3.57822 0.06702,-9.59334 -0.05519,-4.72961 -0.267463,10.64529 0.117064,-4.63818 0.09941,-2.99691 -0.01533,1.42474 0.0359,-4.5231 0.05642,-3.3655 0.06385,3.60082 0.418868,-0.89497 0.898009,-5.14642 2.293406,-20.34961 12.283471,-40.43463 27.806612,-55.90518 11.750175,-11.710372 22.96767,-18.630972 38.6718,-23.858451 41.36682,-13.769898 87.22969,2.730483 111.45139,40.097591 4.37263,6.7457 7.27512,12.86336 10.3366,21.7868 2.70635,7.88827 4.6079,18.06352 4.74259,27.63815 0.12117,8.61344 -1.78424,-0.83041 -2.25955,-5.71136 C 213.65718,139.22054 199.28189,114.05256 177.17769,98.305289 148.30193,77.733891 110.60032,74.764484 79.38877,90.603361 60.296364,100.29216 46.636959,113.86737 37.309193,132.42355 c -6.288048,12.50914 -9.021489,22.43427 -9.982685,36.24718 -1.228249,17.65061 1.942331,33.55 9.782726,49.05708 9.908628,19.59772 23.988829,33.54303 43.281105,42.86644 11.677315,5.64332 21.914681,8.34526 34.803951,9.18578 21.38028,1.39424 40.97635,-3.69261 58.84997,-15.2766 24.42509,-15.83002 40.91994,-45.56617 42.94321,-75.18433 0.68574,-10.03837 3.11751,-9.0988 1.42062,5.13953 l -1.26445,10.60976 -3.18952,10.42757 c -4.852,15.8627 -12.10055,26.54415 -23.73688,38.12698 -14.41333,14.34706 -30.11625,22.84643 -49.74908,26.92721 -8.47073,1.76068 -24.36574,2.2375 -31.937,0.95804 z m 5.18087,-6.60824 c -27.563522,-3.30607 -50.664184,-16.79562 -65.621987,-38.31974 -3.814276,-5.4887 -9.63151,-17.03217 -11.682261,-23.18178 -5.040051,-15.11365 -5.760342,-32.56746 -2.007268,-48.63924 7.517103,-32.19048 32.526002,-57.877497 64.471697,-66.219848 9.184979,-2.398579 19.569909,-3.521053 27.468199,-2.968948 42.52237,2.972386 75.76049,32.252646 83.95076,73.954226 1.50395,7.65757 1.52131,22.97586 0.0353,31.1484 -7.07549,38.91245 -38.04224,68.56251 -76.96943,73.69675 -6.6812,0.88119 -14.87488,1.10234 -19.645,0.53018 z M 97.738038,204.90526 c 0.38424,-0.46298 0.784204,-3.30437 0.888806,-6.31419 l 0.190189,-5.47239 h 22.990107 22.99012 l 0.19018,5.47239 c 0.10461,3.00982 0.50457,5.85121 0.88881,6.31419 0.94103,1.13388 9.97105,1.16111 10.70164,0.0323 0.28816,-0.44523 0.66964,-3.2693 0.84773,-6.27572 l 0.32381,-5.46622 2.0965,-0.54055 c 2.40478,-0.62004 3.35428,-2.91173 2.33716,-5.64096 -0.34162,-0.91669 -0.41517,-2.39527 -0.16342,-3.28574 0.74114,-2.62154 0.64825,-12.58268 -0.13838,-14.83922 -0.41991,-1.20456 -1.71489,-2.70951 -3.07614,-3.57491 -2.16604,-1.37705 -2.54628,-2.11901 -4.83468,-9.43412 -1.58337,-5.06139 -3.03996,-8.49574 -4.01812,-9.47389 l -1.53437,-1.53436 H 121.80714 95.196311 l -1.494428,1.49443 c -0.894175,0.89418 -2.59646,4.80133 -4.238127,9.72755 -2.408788,7.22814 -2.97999,8.35531 -4.679437,9.23413 -2.783051,1.43917 -3.784449,4.41679 -3.731011,11.09402 0.02503,3.12806 0.275399,6.27023 0.556365,6.9826 0.293168,0.74331 0.172772,2.26105 -0.282543,3.56185 -1.076458,3.07532 -0.266515,4.99015 2.402341,5.67951 l 2.135386,0.55157 0.190188,5.433 c 0.104603,2.98815 0.504567,5.8118 0.888807,6.27478 0.455709,0.54909 2.332291,0.84179 5.397094,0.84179 3.064801,0 4.941383,-0.2927 5.397092,-0.84179 z M 86.301549,178.99145 c -2.053732,-2.1861 -1.911097,-5.78278 0.298255,-7.52066 0.938495,-0.73823 2.09048,-1.34222 2.559965,-1.34222 1.808045,0 4.096035,1.53804 4.793756,3.22249 2.115464,5.10717 -3.951574,9.57928 -7.651976,5.64039 z m 64.294751,-0.0907 c -2.46989,-2.46988 -1.73613,-6.61213 1.42653,-8.05313 2.21909,-1.01108 3.0451,-0.90796 4.99166,0.6232 1.32592,1.04296 1.70635,1.90928 1.70635,3.88565 0,4.80792 -4.77698,6.89185 -8.12454,3.54428 z M 92.565386,163.33724 c -0.347972,-0.34797 2.907362,-12.7124 3.6732,-13.95155 0.24008,-0.38846 10.003964,-0.62821 25.583994,-0.62821 23.34471,0 25.23806,0.0833 25.77189,1.13331 0.84544,1.66298 3.68653,13.00614 3.33305,13.30731 -0.16598,0.14142 -4.81886,-0.013 -10.33972,-0.34314 -9.58667,-0.57328 -44.985568,-0.19113 -46.800285,0.50525 -0.476641,0.1829 -1.026596,0.17257 -1.222129,-0.023 z"
       style="display:inline;fill:#000080;fill-opacity:1;stroke-width:0.289357"
       sodipodi:nodetypes="sscsssssssssssssssssssssssssscsssssssssssssssscccsscscssssssscccssssssscsssssssssssssscsssssscc" />
  </g>
  <g
     inkscape:groupmode="layer"
     id="layer2"
     inkscape:label="Capa 2"
     style="display:inline"
     transform="translate(1.8461704,-1.2836589)">
    <path
       style="display:inline;fill:#000080;stroke-width:0.289357;stroke-linecap:round;stroke-linejoin:round"
       d="m 50.630652,86.882412 1.445225,28.615438 C -2.6929646,198.4977 114.8389,137.91362 146.2204,149.12151 l -5.87189,-89.039222 -77.753472,-9.892523 -13.120565,35.536469 2.312357,1.734267 0.289047,1.156182 z"
       id="path1443"
       sodipodi:nodetypes="ccccccccc" />
  </g>
  <g
     inkscape:groupmode="layer"
     id="layer3"
     inkscape:label="Capa 3"
     style="display:inline"
     transform="translate(1.8461704,-1.2836589)">
    <g
       id="g1528"
       transform="matrix(0.28935709,0,0,0.28935709,-1.3119679,0.91222309)">
      <path
         d="m 110.06317,366.67723 c 0,-46.02293 37.31723,-83.32364 83.32364,-83.32364 46.02293,0 83.32364,37.30071 83.32364,83.32364 0,46.0064 -37.30071,83.32363 -83.32364,83.32363 -46.00641,0 -83.32364,-37.31723 -83.32364,-83.32363"
         id="path3059"
         style="display:inline;fill:#ffffff;stroke-width:1" />
      <path
         d="m 388.06743,365.12441 c 0,-46.2542 37.48242,-83.70358 83.70358,-83.70358 46.22116,0 83.7201,37.4659 83.7201,83.70358 0,46.23768 -37.49894,83.70358 -83.7201,83.70358 -46.22116,0 -83.70358,-37.48242 -83.70358,-83.70358"
         id="path3061"
         style="fill:#ffffff;stroke-width:1" />
      <path
         d="m 133.02508,366.28077 c 0,-33.31955 27.02566,-60.3287 60.36173,-60.3287 33.31954,0 60.34521,27.02567 60.34521,60.3287 0,33.33605 -27.02567,60.3452 -60.34521,60.3452 -33.33607,0 -60.36173,-27.02567 -60.36173,-60.3452"
         id="path3063"
         style="fill:#000080;stroke-width:1" />
      <path
         d="m 270.08618,358.10368 -7.79713,-20.64919 -18.6834,-24.89468 -18.30344,-14.80134 -30.74253,-4.65846 -30.75904,3.12216 -28.80976,19.06334 -18.30345,27.6534 c 0,0 -6.62426,-7.83017 -6.22779,-7.83017 -2.34575,-5.03841 0.74337,-8.1936 0.74337,-8.1936 14.68571,-30.59385 45.97337,-51.73863 82.1838,-51.73863 50.31796,0 91.10425,40.78629 91.10425,91.10426 0,3.15519 -0.16519,6.26083 -0.46254,9.33343 0,0 -1.09028,2.74222 -3.81597,4.29503 -0.39646,0 -8.17708,1.94929 -8.17708,1.94929 l -1.94929,-23.75484"
         id="path3065"
         style="fill:#ffffff;stroke-width:1" />
      <path
         d="m 412.21873,365.50436 c 0,-33.31955 27.00915,-60.31218 60.32869,-60.31218 33.31954,0 60.32869,27.00915 60.32869,60.31218 0,33.35257 -27.00915,60.36172 -60.32869,60.36172 -33.31954,0 -60.32869,-27.00915 -60.32869,-60.36172"
         id="path3067"
         style="fill:#000080;stroke-width:1" />
      <path
         d="m 140.82221,328.91398 37.76325,25.29113 c 0,0 8.55703,4.29503 10.52283,-2.32922 l 12.85207,-50.61531 24.91119,9.72989 -13.23201,45.16393 c 0,0 -1.55282,2.72569 3.50211,2.72569 0.37994,-0.37995 39.71253,0 39.71253,0 v 19.06334 h -42.43823 c 0,0 -7.40067,-1.55282 -9.7299,1.58586 0,0 -5.84786,5.05492 -13.24853,5.05492 0,0 -16.33764,-0.77641 -17.13057,-14.00841 0.39646,0.36342 -40.88541,-24.15131 -40.88541,-24.15131 l 7.40067,-17.51051"
         id="path3069"
         style="fill:#ffffff;stroke-width:1" />
      <path
         d="m 236.60145,200.80637 c -4.27852,3.89856 0,8.57354 0,8.57354 0,0 8.57354,7.78062 8.17708,7.78062 3.12216,2.36227 1.94928,5.84785 1.55282,5.46791 -2.7257,8.95349 14.40488,8.95349 14.80134,8.95349 14.80135,6.60774 23.35837,24.1513 23.35837,24.1513 8.17709,10.50631 18.30345,34.64109 18.30345,35.03755 7.40067,16.73411 26.48053,28.77672 26.48053,28.77672 l 19.4598,5.08796 c 17.54356,3.50211 25.70412,-15.97421 25.70412,-15.97421 0,0 42.43823,-77.07932 43.21464,-77.45926 2.34575,-4.67499 -1.55282,-5.84786 -1.55282,-5.84786 0,0 -25.32417,-6.24432 -25.70412,-6.60774 -5.84785,-0.77641 -3.51862,-4.29503 -3.51862,-4.29503 0,0 1.9658,-8.93698 1.9658,-8.57355 2.32923,-4.65846 5.0384,-3.48559 5.0384,-3.48559 0,0 56.47969,-1.94928 56.47969,-1.56933 10.50631,0 10.50631,11.67918 10.50631,11.67918 1.15635,8.57355 -5.45139,9.33344 -5.45139,9.74642 -6.60775,3.48559 -3.89857,7.38416 -3.89857,7.38416 0,0 7.81365,37.76325 7.81365,38.17623 1.15636,4.26199 6.26084,2.9074 6.26084,2.9074 2.0484,-0.14867 4.11332,-0.19823 6.19476,-0.19823 44.65182,0 82.05164,31.03987 91.76502,72.73473 0,0 0.51211,6.31039 3.22128,7.87973 0,0 5.46791,6.2278 5.07144,25.29114 0.39647,0.37994 -0.37994,4.65846 -5.41834,4.65846 -0.39647,-0.39647 -14.80135,0.37994 -14.80135,0.37994 l -3.12216,-19.06334 -10.90277,-27.66992 -21.78903,-22.94539 -20.63268,-12.85206 -27.6534,-3.10563 -31.93192,8.97001 -18.68339,21.39256 -4.29504,12.07565 33.8812,4.67498 c 6.62427,0.75989 7.00421,-5.08796 7.00421,-4.67498 0,-5.84785 -6.2278,-7.81365 -6.2278,-7.81365 -7.0042,-1.13984 -7.0042,-6.21128 -7.0042,-6.21128 l -1.56934,-12.05913 17.90698,-8.95349 c 0,0 17.13057,-0.37995 17.52704,-0.77641 1.55282,5.83133 0,14.78483 0,14.37184 0,6.24431 -5.05492,5.86437 -5.05492,5.86437 0,0 2.34574,15.94118 1.94928,15.94118 0.77641,4.67498 4.27851,4.67498 4.64194,4.67498 15.59427,-0.36343 15.19781,10.52283 14.4214,10.12637 0,4.65845 5.84785,3.5021 5.84785,3.5021 h 38.55618 l -0.37995,19.06334 c 0,0 -44.00756,0.39646 -44.00756,0 -9.33344,14.00841 -25.32418,11.29924 -25.32418,11.29924 -1.13983,14.80134 -16.33764,13.24852 -16.33764,13.24852 l -28.80976,-2.32923 -22.56544,-5.84785 c 0,0 -63.46737,4.69149 -63.84731,4.69149 -7.79714,0.77641 -5.07145,4.65846 -5.07145,3.86554 -0.39646,4.67497 7.00421,3.89856 6.62426,4.29503 4.27852,0 3.88205,3.88204 3.88205,3.88204 0,0 -0.37994,4.65847 0,4.29504 0,4.27851 -3.88205,4.27851 -3.88205,4.27851 0,0 -35.05407,1.17288 -35.05407,1.55282 -4.27851,0 -2.70917,-3.48558 -2.70917,-3.48558 0,0 -0.39647,-7.02073 0,-7.02073 -0.39647,-4.65846 3.10563,-3.88205 3.10563,-3.88205 h 6.24432 c 0,0 4.26199,-12.07565 4.65846,-12.07565 3.12216,-8.57355 -1.94928,-10.88625 -1.94928,-10.88625 -8.17709,-7.4172 -6.2278,-17.13058 -6.2278,-16.75063 -0.39647,-11.67919 4.27851,-18.28693 3.89857,-17.52704 4.27851,-7.02072 -1.55282,-10.14288 -1.55282,-10.14288 0,0 -31.55198,-23.7218 -32.32838,-24.49821 -4.65846,-3.10564 -5.45139,2.72569 -5.45139,2.72569 l -7.38415,-7.79713 -18.30345,-13.23201 -24.1513,-11.6957 c 0,0 -13.61195,-7.40067 -14.00841,-7.00421 5.05492,-0.39646 5.45138,-3.89857 5.45138,-3.89857 0,0 -0.39646,-9.33343 0,-9.33343 0,-5.43487 -3.51862,-2.70918 -3.88205,-2.70918 -12.86858,7.00421 -10.52283,-5.45138 -10.52283,-5.45138 0,0 -0.39647,-22.97843 0,-23.35837 0,-6.24432 5.45139,-5.84786 5.45139,-5.84786 0,0 12.45559,-0.37995 12.45559,0 7.40068,0 0.39647,-4.65846 0,-5.43487 -12.85206,-7.40067 -9.7299,-13.24852 -9.34995,-13.64499 0,-10.10984 8.97001,-14.78482 8.97001,-14.78482 0,0 37.36678,-21.02914 37.76325,-21.02914 3.48559,-2.34575 5.05493,-2.34575 5.05493,-2.34575 0,0 15.95769,-0.77641 15.95769,0 5.07144,0.37994 6.62426,1.56934 6.62426,1.56934 0,0 4.22896,3.08912 5.00537,3.08912 5.07144,2.72569 0.77641,7.40067 0.77641,7.40067 0,0 -3.10564,6.2278 -3.5021,6.2278 -1.93277,3.10564 -6.2278,2.32923 -6.2278,2.32923 h -14.78483 c 0,0 -1.94928,-0.36343 -6.24431,2.37878 0.39646,-0.4295 -16.35417,9.69687 -15.9577,9.69687"
         id="path3071"
         style="fill:#ffffff;stroke-width:1" />
      <path
         d="m 423.89791,263.11738 c 0,0.37995 -17.9235,35.81396 -17.9235,35.81396 0,0 -1.55282,5.4514 3.88205,1.56934 0,-0.39646 17.52704,-14.04145 17.52704,-14.04145 0,0 3.10564,-0.77641 3.51862,-4.29503 -0.39646,0.39646 -2.74221,-18.66687 -2.74221,-18.66687 0,0 -2.32923,-4.65846 -4.262,-0.37995"
         id="path3073"
         style="fill:#000080;stroke-width:1" />
      <path
         d="m 233.47929,267.79236 c 0,0 -1.15636,3.48558 4.29503,6.21128 0,0.39646 24.91119,19.47632 24.91119,19.47632 0,0 4.29504,2.34575 2.7257,-1.93277 0,-0.77641 -7.38416,-10.53935 -7.00421,-17.54355 -0.37995,-0.37995 1.94928,-4.27852 -4.27851,-4.67498 0,-0.36343 -6.2278,0 -6.2278,0 l -10.12637,-9.33344 c 0,0 -4.29503,-2.72569 -4.29503,0.36343 -0.37995,0.39646 0,7.43371 0,7.43371"
         id="path3075"
         style="fill:#000080;stroke-width:1" />
    </g>
  </g>
</svg>
