<?xml version="1.0" encoding="UTF-8" standalone="no"?>
<!-- Created with Inkscape (http://www.inkscape.org/) -->

<svg
   width="200.86739"
   height="198.48944"
   id="svg2"
   version="1.1"
   inkscape:version="1.3.2 (091e20e, 2023-11-25, custom)"
   sodipodi:docname="ES_R405.svg"
   xmlns:inkscape="http://www.inkscape.org/namespaces/inkscape"
   xmlns:sodipodi="http://sodipodi.sourceforge.net/DTD/sodipodi-0.dtd"
   xmlns="http://www.w3.org/2000/svg"
   xmlns:svg="http://www.w3.org/2000/svg"
   xmlns:rdf="http://www.w3.org/1999/02/22-rdf-syntax-ns#"
   xmlns:cc="http://creativecommons.org/ns#"
   xmlns:dc="http://purl.org/dc/elements/1.1/">
  <defs
     id="defs4" />
  <sodipodi:namedview
     id="base"
     pagecolor="#ffffff"
     bordercolor="#666666"
     borderopacity="1.0"
     inkscape:pageopacity="0.0"
     inkscape:pageshadow="2"
     inkscape:zoom="0.49497475"
     inkscape:cx="532.35039"
     inkscape:cy="332.34019"
     inkscape:document-units="px"
     inkscape:current-layer="layer1"
     showgrid="false"
     fit-margin-top="0"
     fit-margin-left="0"
     fit-margin-right="0"
     fit-margin-bottom="0"
     inkscape:window-width="1920"
     inkscape:window-height="1017"
     inkscape:window-x="-8"
     inkscape:window-y="-8"
     inkscape:window-maximized="1"
     inkscape:showpageshadow="2"
     inkscape:pagecheckerboard="true"
     inkscape:deskcolor="#d1d1d1" />
  <metadata
     id="metadata7">
    <rdf:RDF>
      <cc:Work
         rdf:about="">
        <dc:format>image/svg+xml</dc:format>
        <dc:type
           rdf:resource="http://purl.org/dc/dcmitype/StillImage" />
      </cc:Work>
    </rdf:RDF>
  </metadata>
  <g
     inkscape:label="Capa 1"
     inkscape:groupmode="layer"
     id="layer1"
     transform="translate(-22.563527,-81.044195)">
    <circle
       style="fill:#ffffff;fill-opacity:1;fill-rule:nonzero;stroke:#0000ff;stroke-width:0.325309;stroke-linecap:round;stroke-linejoin:round;stroke-miterlimit:4;stroke-dasharray:none;stroke-dashoffset:0;stroke-opacity:1"
       id="path3793"
       cx="124.47462"
       cy="180.57068"
       r="98.254974" />
    <path
       inkscape:connector-curvature="0"
       id="path3808"
       d="m 22.624844,279.18251 c 0.220019,-0.22002 0.791098,-0.24354 1.269068,-0.0523 0.528198,0.21136 0.371304,0.36826 -0.400032,0.40003 -0.697988,0.0287 -1.089052,-0.12775 -0.869036,-0.34776 z m 87.551956,-0.56365 c -7.50366,-1.26804 -11.164586,-2.14309 -17.215213,-4.11487 -35.540575,-11.58202 -62.412586,-43.52847 -67.310074,-80.02072 -0.463083,-3.45052 -1.028941,-6.27367 -1.257466,-6.27367 -0.228524,0 0.486499,-6.40326 0.119751,-3.94513 -0.545828,3.65842 0.230462,9.7002 0.211181,-4.66246 -0.01461,-10.88729 -0.556145,-10.79618 -0.07677,-9.18795 2.404917,8.06803 0.564993,1.21271 0.585978,2.39626 0.06528,3.68152 -0.334722,-0.94532 0.155159,-5.29206 2.344805,-20.80567 12.558765,-41.34083 28.429802,-57.1581 12.01353,-11.972824 23.482421,-19.048525 39.538494,-24.393165 42.293928,-14.078503 89.184668,2.79168 113.949228,40.996255 4.47062,6.89688 7.43814,13.15165 10.56825,22.27507 2.76701,8.06506 4.61241,14.33554 4.75012,24.12474 0.1239,8.80648 -1.12445,11.99879 -1.61041,1.59915 C 219.68806,146.56926 202.9614,117.63438 180.36181,101.53419 150.83889,80.501748 112.29232,77.465791 80.38125,93.659647 60.860954,103.56558 46.895424,117.44503 37.358609,136.4171 c -6.428974,12.78948 -9.223676,22.93706 -10.206413,37.05954 -1.255776,18.04619 1.985861,34.30191 10.001974,50.15653 10.130698,20.03694 24.526445,34.29478 44.251091,43.82714 11.939054,5.7698 22.405829,8.5323 35.583989,9.39166 21.85945,1.42549 41.89471,-3.77537 60.16888,-15.61897 24.97251,-16.18481 41.68468,-46.14716 43.87274,-76.42071 0.48979,-6.77664 3.5933,-12.58646 1.89847,0.99811 l -1.63314,13.08973 -3.33374,12.22705 c -4.46131,16.36264 -12.37176,27.13906 -24.26887,38.98147 -14.73635,14.6686 -30.7912,23.35846 -50.86404,27.53069 -8.66058,1.80014 -24.91182,2.28765 -32.65275,0.97952 z m 5.29697,-6.75634 C 87.292501,268.48235 63.674107,254.69047 48.381075,232.68396 44.481317,227.07225 38.53371,215.27007 36.436996,208.98264 31.283989,193.53027 30.547555,175.68529 34.384743,159.25331 42.070317,126.34139 67.6397,100.07869 100.30135,91.54937 c 9.39083,-2.452335 20.00852,-3.599967 28.08381,-3.035489 43.47537,3.039006 77.45841,32.975489 85.83224,75.611669 1.53767,7.82918 1.5554,23.49079 0.0361,31.84649 -7.23407,39.78454 -38.89482,70.09911 -78.69444,75.34841 -6.83093,0.90095 -15.20827,1.12704 -20.08528,0.54207 z M 89.759874,222.62666 c 4.731229,-2.3186 7.665555,-5.38772 10.087055,-10.55043 1.444581,-3.07989 1.717151,-4.57926 1.690521,-9.29993 -0.0268,-4.74566 -0.30315,-6.14709 -1.762932,-8.93865 -10.631472,-20.33074 -40.159835,-14.45506 -41.425238,8.24296 -0.21982,3.94302 0.01196,5.76903 1.096877,8.64117 4.663662,12.34632 18.402776,17.74198 30.313717,11.90488 z m -12.870098,-5.35954 c -8.354464,-1.5426 -13.278768,-10.49793 -10.452109,-19.00822 2.737529,-8.24195 12.64763,-11.88441 20.543772,-7.55087 14.483361,7.94873 6.264435,29.57912 -10.091663,26.55909 z m 99.850944,6.20819 c 10.11939,-4.97598 15.13458,-17.19876 11.26469,-27.45374 -1.86179,-4.9337 -6.20354,-9.69244 -11.0568,-12.11879 -3.36659,-1.68311 -4.60245,-1.93486 -9.49819,-1.93486 -4.88408,0 -6.13488,0.25344 -9.46207,1.91716 -4.47179,2.23607 -8.60552,6.45146 -10.61969,10.82943 -2.16205,4.6994 -2.0322,13.08916 0.27849,17.99363 2.14432,4.55143 5.73307,8.07477 10.86461,10.66663 3.65257,1.84487 4.42627,1.98921 9.60077,1.79118 4.15596,-0.15905 6.41276,-0.60125 8.62819,-1.69064 z M 162.4845,217.1271 c -4.92574,-1.92748 -8.35194,-6.05327 -9.29075,-11.18782 -1.30026,-7.11146 4.01126,-14.89705 11.17815,-16.38489 6.62348,-1.37503 12.99466,1.60029 16.17489,7.55362 0.67452,1.26267 1.09327,3.66741 1.11094,6.37934 0.0241,3.70157 -0.26932,4.84066 -1.96127,7.61441 -3.4509,5.65732 -11.21061,8.37372 -17.21196,6.02534 z m -29.51528,-0.83614 c 3.21483,-2.70511 2.80402,-4.39265 -3.72441,-15.29901 -5.22867,-8.73496 -5.6571,-9.70168 -4.63175,-10.45143 0.62144,-0.45439 6.02347,-2.87627 12.00454,-5.38195 16.30448,-6.8305 16.37258,-7.2253 3.98591,-23.10282 -4.54559,-5.82668 -8.88936,-11.11538 -9.65277,-11.75268 -0.91313,-0.76227 -2.55228,-1.16792 -4.79082,-1.18562 l -3.40279,-0.0269 2.15188,-1.84215 c 1.93801,-1.65905 2.15167,-2.19932 2.14944,-5.43561 -0.007,-10.65118 -13.15316,-15.81368 -21.53289,-8.45619 -2.46082,2.16066 -3.9569,5.75449 -3.28141,7.8827 0.41236,1.29925 0.74484,1.35684 5.34488,0.92578 l 4.9052,-0.45968 v 3.62354 3.62353 l -3.94991,2.77069 c -2.17244,1.52388 -4.1236,3.05176 -4.33592,3.39529 -0.5518,0.89282 0.36732,5.28197 1.10606,5.28197 0.34007,0 2.90371,-1.56426 5.69693,-3.47614 6.22311,-4.25954 6.77982,-4.60869 6.77982,-4.25217 0,0.15563 -3.50099,2.92441 -7.77994,6.15283 l -7.77997,5.86985 -7.578537,0.41987 c -7.152342,0.39625 -7.664333,0.51961 -9.104184,2.19354 -2.102584,2.4444 -1.940032,4.54404 0.511514,6.60688 1.976148,1.6628 2.310831,1.71417 11.168513,1.71417 h 9.131344 l 5.47214,-3.64168 c 3.00968,-2.00292 5.64523,-3.64167 5.85672,-3.64167 1.14706,0 9.97576,6.42735 9.85099,7.17156 -0.0813,0.48477 -3.72328,2.35002 -8.09329,4.145 -8.94788,3.67535 -12.00525,6.12898 -11.27293,9.04686 0.64919,2.5866 15.53179,27.20285 17.11822,28.31402 2.16958,1.51964 5.36308,1.21499 7.67742,-0.7324 z"
       style="fill:#092d78;fill-opacity:1;stroke-width:0.297496"
       sodipodi:nodetypes="sccsssssssssssssssssssssssssscsssssssssssssssssssssssssssssssssssssssssscscsssscssscscccscsssscsssscsscssscc" />
  </g>
</svg>
