<?xml version="1.0" encoding="UTF-8" standalone="no"?>
<svg
   version="1.1"
   id="Layer_1"
   x="0px"
   y="0px"
   width="200"
   height="198.742"
   viewBox="-360.791 -360.781 200 198.74201"
   xml:space="preserve"
   sodipodi:docname="ES_R301-90.svg"
   inkscape:version="1.3.2 (091e20e, 2023-11-25, custom)"
   xmlns:inkscape="http://www.inkscape.org/namespaces/inkscape"
   xmlns:sodipodi="http://sodipodi.sourceforge.net/DTD/sodipodi-0.dtd"
   xmlns="http://www.w3.org/2000/svg"
   xmlns:svg="http://www.w3.org/2000/svg"><defs
   id="defs4" /><sodipodi:namedview
   id="namedview4"
   pagecolor="#ffffff"
   bordercolor="#000000"
   borderopacity="0.25"
   inkscape:showpageshadow="2"
   inkscape:pageopacity="0.0"
   inkscape:pagecheckerboard="0"
   inkscape:deskcolor="#d1d1d1"
   inkscape:zoom="1.0667103"
   inkscape:cx="384.828"
   inkscape:cy="384.828"
   inkscape:window-width="1920"
   inkscape:window-height="1017"
   inkscape:window-x="-8"
   inkscape:window-y="-8"
   inkscape:window-maximized="1"
   inkscape:current-layer="Layer_1" />
<path
   fill="#e41408"
   d="m -360.791,-261.4142 c 0,-54.87805 44.49289,-99.3668 99.37713,-99.3668 54.87417,0 99.37299,44.48875 99.37299,99.3668 0,54.88011 -44.49882,99.37506 -99.37299,99.37506 -54.88424,0 -99.37713,-44.49495 -99.37713,-99.37506"
   id="path1"
   style="stroke-width:0.258222" />
<path
   fill="#ffffff"
   d="m -334.28687,-261.4142 c 0,-40.24437 32.62269,-72.87093 72.873,-72.87093 40.24436,0 72.86499,32.62682 72.86499,72.87093 0,40.2503 -32.62063,72.86706 -72.86499,72.86706 -40.25031,0 -72.873,-32.61676 -72.873,-72.86706"
   id="path2"
   style="stroke-width:0.258222" />
<path
   fill-rule="evenodd"
   d="m -208.08903,-273.1997 c -2.56466,-10.21757 -12.79566,-17.8976 -23.52632,-17.8976 -10.74383,0 -20.44831,7.68003 -23.53251,17.8976 -1.51835,7.15352 -1.51835,18.41043 0,25.56395 3.08394,10.21731 12.78842,17.88417 23.53251,17.88417 10.73092,0 20.96192,-7.6666 23.52632,-17.88417 2.02446,-7.15326 2.02446,-18.41043 0,-25.56395 z m -12.7954,20.97509 c -0.5198,5.08826 -5.61503,9.19166 -10.73092,9.19166 -5.1084,0 -9.7316,-4.1034 -10.74383,-9.19166 -0.50585,-4.6028 -0.50585,-11.75606 0,-16.37228 1.01249,-5.12906 5.63543,-9.20509 10.74383,-9.20509 5.11589,0 10.21112,4.07629 10.73092,9.20509 1.01223,4.61622 1.01223,11.76948 0,16.37228 z"
   id="path3"
   style="stroke-width:0.258222" />
<path
   fill-rule="evenodd"
   d="m -268.65725,-273.99579 c -1.39285,-4.1646 -4.16744,-9.2588 -7.4138,-12.03365 -0.46093,-0.9376 -1.85868,-1.85326 -2.77459,-2.31392 -2.7826,-1.39802 -7.41096,-2.78828 -10.65681,-2.78828 -2.31444,0 -5.08748,0.47409 -7.4058,0.93605 -2.31676,0.45421 -5.10039,2.31289 -6.95804,4.16615 -8.79684,8.32946 -9.2588,22.69175 -0.46093,31.95906 0.93477,0.92211 2.31832,1.85197 3.70936,2.31212 5.56287,3.23681 13.89232,2.78311 19.45519,-0.46015 0,2.31935 -1.39568,5.55616 -3.71219,6.9472 -2.31677,1.85919 -5.55048,2.31934 -8.3372,1.38355 -1.84293,-0.46196 -3.69645,-2.32116 -3.69645,-4.63379 l -12.50464,5.10943 c 1.38975,4.15092 4.6294,8.32352 7.87679,10.17419 6.94617,3.71762 16.20625,3.71762 23.14829,0 0.93373,-0.45421 2.31676,-1.38303 2.78827,-2.31263 2.77511,-2.77459 5.54996,-7.40115 6.94255,-11.11179 1.85326,-7.87551 1.85326,-19.45649 0,-27.33354 z m -13.42623,5.56312 c -0.47436,3.70394 -3.70833,6.94074 -7.87964,6.94074 -3.70445,0 -7.41612,-3.2368 -7.87679,-6.94099 0,-0.92134 0,-2.31935 0,-3.70394 0.46092,-3.70419 4.1726,-6.94616 7.87679,-6.94616 4.17131,0 7.40528,3.24197 7.87964,6.94616 0.45524,1.38459 0.45524,2.7826 0,3.70419 z"
   id="path4"
   style="stroke-width:0.258222" />
</svg>
