<?xml version="1.0" encoding="UTF-8" standalone="no"?>
<svg
   width="200"
   height="199.79013"
   id="svg2"
   version="1.1"
   inkscape:version="1.3.2 (091e20e, 2023-11-25, custom)"
   sodipodi:docname="ES_R407.svg"
   xmlns:inkscape="http://www.inkscape.org/namespaces/inkscape"
   xmlns:sodipodi="http://sodipodi.sourceforge.net/DTD/sodipodi-0.dtd"
   xmlns="http://www.w3.org/2000/svg"
   xmlns:svg="http://www.w3.org/2000/svg"
   xmlns:rdf="http://www.w3.org/1999/02/22-rdf-syntax-ns#"
   xmlns:cc="http://creativecommons.org/ns#"
   xmlns:dc="http://purl.org/dc/elements/1.1/">
  <defs
     id="defs4">
    <inkscape:path-effect
       effect="offset"
       id="path-effect959"
       is_visible="true"
       linejoin_type="round"
       unit="mm"
       offset="-5"
       miter_limit="4"
       attempt_force_join="true"
       update_on_knot_move="true"
       lpeversion="0" />
    <inkscape:path-effect
       effect="offset"
       id="path-effect913"
       is_visible="true"
       linejoin_type="round"
       unit="mm"
       offset="-1.467701"
       miter_limit="4"
       attempt_force_join="true"
       update_on_knot_move="true"
       lpeversion="1.2" />
  </defs>
  <sodipodi:namedview
     id="base"
     pagecolor="#ffffff"
     bordercolor="#666666"
     borderopacity="1.0"
     inkscape:pageopacity="0.0"
     inkscape:pageshadow="2"
     inkscape:zoom="0.49497475"
     inkscape:cx="49.497474"
     inkscape:cy="532.35039"
     inkscape:document-units="px"
     inkscape:current-layer="g983"
     showgrid="false"
     fit-margin-top="0"
     fit-margin-left="0"
     fit-margin-right="0"
     fit-margin-bottom="0"
     inkscape:window-width="1280"
     inkscape:window-height="755"
     inkscape:window-x="0"
     inkscape:window-y="23"
     inkscape:window-maximized="0"
     inkscape:document-rotation="0"
     inkscape:showpageshadow="2"
     inkscape:pagecheckerboard="true"
     inkscape:deskcolor="#d1d1d1" />
  <metadata
     id="metadata7">
    <rdf:RDF>
      <cc:Work
         rdf:about="">
        <dc:format>image/svg+xml</dc:format>
        <dc:type
           rdf:resource="http://purl.org/dc/dcmitype/StillImage" />
      </cc:Work>
    </rdf:RDF>
  </metadata>
  <g
     inkscape:groupmode="layer"
     id="layer3"
     inkscape:label="fondo señal"
     style="display:inline"
     transform="translate(-828.41505,30.255436)">
    <circle
       style="fill:#ffffff;fill-opacity:1;stroke:#092d78;stroke-width:2.34832;stroke-miterlimit:4;stroke-dasharray:none;stroke-opacity:1;stop-color:#000000"
       id="path908"
       cx="928.31012"
       cy="69.639633"
       r="98.720909" />
    <path
       id="circle910"
       style="fill:#092d78;fill-opacity:1;stroke:#092d78;stroke-width:8;stroke-miterlimit:4;stroke-dasharray:none;stroke-opacity:1;stop-color:#000000"
       d="m 1168.7266,-7.3574219 c 175.2068,-1.56e-5 317.4121,142.2071119 317.4121,317.4140619 0,175.20695 -142.2052,317.41213 -317.4121,317.41211 -175.20696,-2e-5 -317.41215,-142.20519 -317.41215,-317.41211 0,-175.20692 142.20532,-317.414041 317.41215,-317.4140619 z"
       inkscape:path-effect="#path-effect913"
       inkscape:original-d="M 1505.0378,310.05594 A 336.31137,336.31137 0 0 1 1168.7264,646.36731 336.31137,336.31137 0 0 1 832.41507,310.05594 336.31137,336.31137 0 0 1 1168.7264,-26.255432 336.31137,336.31137 0 0 1 1505.0378,310.05594"
       inkscape:connector-curvature="0"
       transform="matrix(0.2935402,0,0,0.2935402,585.24195,-21.374247)" />
  </g>
  <g
     inkscape:label="objeto"
     inkscape:groupmode="layer"
     id="layer1"
     transform="translate(-835.10888,-221.36548)"
     style="display:inline">
    <g
       id="g983"
       transform="matrix(1.0211244,0,0,1.0211244,-25.19452,-23.488592)">
      <circle
         r="4.6127744"
         cy="351.16779"
         cx="892.33319"
         id="path72"
         style="fill:#ffffff;fill-opacity:1;stroke:none;stroke-width:2.34832;stop-color:#000000" />
      <path
         sodipodi:nodetypes="csccccccssssscccccccccccsscscccccccccsccccccc"
         inkscape:connector-curvature="0"
         d="m 932.48505,297.28204 c 0,0 -15.20102,0.10524 -16.66872,0.52459 -1.4677,0.41934 -3.14514,1.57253 -4.50802,5.13695 -1.36285,3.56442 1.67393,6.82767 1.74805,7.56898 0.0741,0.7413 -0.22245,1.26016 -0.22245,1.26016 l -22.09062,36.47179 4.59574,4.29934 16.30868,-27.57616 c 0,0 15.91028,13.56588 26.24204,22.38703 0,0 -1.36535,2.87281 -0.77693,5.16095 0.79475,3.09049 1.77537,4.59062 4.0573,5.31651 2.28193,0.72588 3.99159,0.79122 5.8324,0.68575 14.17712,-0.81228 40.41564,-3.82316 41.63476,-3.91505 2.65456,-0.20008 4.23856,-0.93157 4.2232,-4.27133 -0.007,-4.05899 -2.64964,-5.04463 -4.84252,-5.16311 l -10.53354,-18.08749 -6.01356,-10.41609 3.55803,-6.37475 h 4.15141 c 0,0 0.51886,0.2964 1.26016,-0.4449 0.74131,-0.7413 0.81527,-1.1862 0.81527,-1.1862 l -0.14792,-6.07834 c 0,0 -3e-4,-1.03806 -1.33469,-1.6311 -1.33432,-0.59304 -2.37183,0.074 -2.37183,0.074 0,0 -13.41748,5.41158 -14.38118,6.15288 -0.96369,0.7413 0.0737,2.37211 0.66678,2.74276 0.59304,0.37065 2.6688,0.14849 2.6688,0.14849 0,0 0.88951,0.22239 0.51886,0.74131 -0.37066,0.51891 -2.41426,3.87622 -2.41426,3.87622 h -46.44241 l 1.67753,-2.83106 -3.14523,-8.07236 c 0,0 14.88675,-0.10442 15.51578,-0.20926 0.62902,-0.10484 1.78194,-1.67729 1.88679,-3.56433 0.10483,-1.88705 -1.4677,-2.72614 -1.4677,-2.72614 z m 28.23662,24.12763 -12.30518,21.34931 c 0,0 -1.63087,-0.14849 -2.96522,-0.14849 -1.33434,0 -2.96521,0.4449 -2.96521,0.4449 l -25.33619,-21.56833 z m 6.67403,2.3959 12.1607,20.75765 -23.69247,-1.36278 z"
         style="fill:#ffffff;fill-opacity:1;stroke:none;stroke-width:0.29354px;stroke-linecap:butt;stroke-linejoin:miter;stroke-opacity:1"
         id="path74" />
      <path
         inkscape:connector-curvature="0"
         d="m 891.58665,325.29162 a 25.697485,25.697485 0 0 0 -25.69738,25.69738 25.697485,25.697485 0 0 0 25.69738,25.69738 25.697485,25.697485 0 0 0 25.69738,-25.69738 25.697485,25.697485 0 0 0 -25.69738,-25.69738 z m 0,5.54745 c 11.10072,0 20.14993,9.04921 20.14993,20.14993 0,11.10073 -9.04921,20.14993 -20.14993,20.14993 -11.10076,0 -20.14993,-9.04919 -20.14993,-20.14993 0,-11.10073 9.04917,-20.14993 20.14993,-20.14993 z"
         style="fill:#ffffff;fill-opacity:1;stroke:none;stroke-width:2.36882;stop-color:#000000"
         id="path955" />
      <path
         inkscape:connector-curvature="0"
         id="path955-7"
         style="display:inline;fill:#ffffff;fill-opacity:1;stroke:none;stroke-width:2.36882;stop-color:#000000"
         d="m 987.40876,324.91338 a 25.697485,25.697485 0 0 0 -25.69739,25.69738 25.697485,25.697485 0 0 0 25.69739,25.69738 25.697485,25.697485 0 0 0 25.69734,-25.69738 25.697485,25.697485 0 0 0 -25.69734,-25.69738 z m 0,5.54745 c 11.10072,0 20.14994,9.0492 20.14994,20.14993 0,11.10073 -9.04922,20.14993 -20.14994,20.14993 -11.10075,0 -20.14992,-9.0492 -20.14992,-20.14993 0,-11.10074 9.04917,-20.14993 20.14992,-20.14993 z" />
    </g>
  </g>
</svg>
