<?xml version="1.0" encoding="UTF-8" standalone="no"?>
<!-- Created with Inkscape (http://www.inkscape.org/) -->

<svg
   width="200"
   height="193.054"
   id="svg2"
   version="1.1"
   inkscape:version="1.3.2 (091e20e, 2023-11-25, custom)"
   sodipodi:docname="ES_R404.svg"
   xmlns:inkscape="http://www.inkscape.org/namespaces/inkscape"
   xmlns:sodipodi="http://sodipodi.sourceforge.net/DTD/sodipodi-0.dtd"
   xmlns="http://www.w3.org/2000/svg"
   xmlns:svg="http://www.w3.org/2000/svg"
   xmlns:rdf="http://www.w3.org/1999/02/22-rdf-syntax-ns#"
   xmlns:cc="http://creativecommons.org/ns#"
   xmlns:dc="http://purl.org/dc/elements/1.1/">
  <defs
     id="defs4" />
  <sodipodi:namedview
     id="base"
     pagecolor="#ffffff"
     bordercolor="#666666"
     borderopacity="1.0"
     inkscape:pageopacity="0.0"
     inkscape:pageshadow="2"
     inkscape:zoom="0.49497475"
     inkscape:cx="647.50778"
     inkscape:cy="376.7869"
     inkscape:document-units="px"
     inkscape:current-layer="layer1"
     showgrid="false"
     fit-margin-top="0"
     fit-margin-left="0"
     fit-margin-right="0"
     fit-margin-bottom="0"
     inkscape:window-width="1920"
     inkscape:window-height="1017"
     inkscape:window-x="-8"
     inkscape:window-y="-8"
     inkscape:window-maximized="1"
     inkscape:showpageshadow="2"
     inkscape:pagecheckerboard="true"
     inkscape:deskcolor="#d1d1d1" />
  <metadata
     id="metadata7">
    <rdf:RDF>
      <cc:Work
         rdf:about="">
        <dc:format>image/svg+xml</dc:format>
        <dc:type
           rdf:resource="http://purl.org/dc/dcmitype/StillImage" />
      </cc:Work>
    </rdf:RDF>
  </metadata>
  <g
     inkscape:label="Capa 1"
     inkscape:groupmode="layer"
     id="layer1"
     transform="translate(-22.838423,-78.264448)">
    <circle
       style="fill:#ffffff;fill-opacity:1;fill-rule:nonzero;stroke:#0000ff;stroke-width:0.314641;stroke-linecap:round;stroke-linejoin:round;stroke-miterlimit:4;stroke-dasharray:none;stroke-dashoffset:0;stroke-opacity:1"
       id="path3793"
       cx="121.32835"
       cy="175.3269"
       r="95.032799" />
    <path
       inkscape:connector-curvature="0"
       id="path3787"
       d="m 22.898062,270.97646 c 0.213993,-0.21399 0.769434,-0.23686 1.234314,-0.0508 0.513731,0.20557 0.361134,0.35817 -0.389077,0.38907 -0.678873,0.0279 -1.059229,-0.12425 -0.845237,-0.33824 z m 85.154208,-0.54821 c -7.29815,-1.23331 -10.858814,-2.0844 -16.743728,-4.00218 -34.567251,-11.26483 -60.703338,-42.33638 -65.466702,-77.82924 -0.450398,-3.35602 -1.00076,-6.10185 -1.223027,-6.10185 -0.222266,0 -0.01344,-6.39423 -0.02503,-3.97698 -0.01706,3.55822 0.06664,-9.53973 -0.05488,-4.70318 -0.265969,10.58579 0.116409,-4.61226 0.09885,-2.98017 -0.01524,1.41678 0.0357,-4.49782 0.05611,-3.34669 0.06349,3.5807 0.416527,-0.88996 0.89299,-5.11766 C 27.867445,142.13442 37.80168,122.16164 53.23807,106.77755 64.922577,95.132621 76.077383,88.250696 91.693751,83.052431 132.82939,69.359486 178.43596,85.767655 202.5223,122.92594 c 4.34819,6.708 7.23446,12.79147 10.27884,21.66504 2.69122,7.84418 4.58214,17.96258 4.71608,27.4837 0.12049,8.5653 -1.77427,-0.82577 -2.24692,-5.67944 C 212.59079,138.87989 198.29584,113.85256 176.31517,98.193291 147.60078,77.736856 110.10986,74.784044 79.07274,90.534406 60.087031,100.16906 46.503961,113.6684 37.228323,132.12089 c -6.252907,12.43922 -8.971072,22.30889 -9.926896,36.04461 -1.221385,17.55197 1.931476,33.3625 9.728055,48.78292 9.853254,19.4882 23.854767,33.35557 43.03923,42.62688 11.612056,5.61178 21.792208,8.29862 34.609448,9.13445 21.26079,1.38645 40.74736,-3.67198 58.52109,-15.19123 24.28859,-15.74156 40.69125,-45.31152 42.70322,-74.76416 0.68191,-9.98227 3.10009,-9.04796 1.41268,5.11081 l -1.25738,10.55047 -3.1717,10.36928 c -4.82488,15.77406 -12.03293,26.39582 -23.60422,37.91391 -14.33279,14.26689 -29.94795,22.71876 -49.47106,26.77673 -8.42339,1.75084 -24.22957,2.225 -31.75852,0.95269 z m 5.15192,-6.5713 C 85.794701,260.56935 62.823137,247.15518 47.948925,225.75135 44.155965,220.29332 38.371241,208.81436 36.33195,202.69912 31.320066,187.66993 30.603799,170.31366 34.3359,154.3317 41.810993,122.32111 66.680131,96.777651 98.447297,88.481921 c 9.133643,-2.385175 19.460543,-3.501376 27.314693,-2.952356 42.28473,2.955775 75.33711,32.072405 83.4816,73.540935 1.49555,7.61477 1.51282,22.84746 0.0351,30.97433 -7.03596,38.69499 -37.82965,68.17935 -76.5393,73.28489 -6.64385,0.87627 -14.79175,1.09618 -19.5352,0.52723 z M 97.319463,204.19753 c 0.382093,-0.46039 0.779821,-3.2859 0.883839,-6.2789 l 0.189126,-5.44181 h 22.861632 22.86163 l 0.18913,5.44181 c 0.10402,2.993 0.50174,5.81851 0.88383,6.2789 0.93578,1.12754 9.91533,1.15462 10.64184,0.0321 0.28655,-0.44274 0.6659,-3.25103 0.843,-6.24065 l 0.32199,-5.43567 2.08479,-0.53753 c 2.39134,-0.61657 3.33553,-2.89546 2.3241,-5.60944 -0.33972,-0.91156 -0.41285,-2.38188 -0.16251,-3.26737 0.737,-2.60689 0.64463,-12.51237 -0.13761,-14.75629 -0.41756,-1.19783 -1.7053,-2.69437 -3.05895,-3.55494 -2.15394,-1.36935 -2.53204,-2.10716 -4.80766,-9.38139 -1.57452,-5.03311 -3.02297,-8.44826 -3.99566,-9.42095 l -1.5258,-1.52578 H 121.25406 94.79194 l -1.486076,1.48608 c -0.889178,0.88918 -2.581949,4.77449 -4.214442,9.67318 -2.395327,7.18775 -2.963337,8.30862 -4.653286,9.18253 -2.767498,1.43112 -3.7633,4.39211 -3.71016,11.03202 0.02489,3.11058 0.273859,6.23518 0.553255,6.94357 0.291529,0.73916 0.171806,2.24842 -0.280964,3.54195 -1.070442,3.05813 -0.265026,4.96226 2.388916,5.64777 l 2.123452,0.54849 0.189126,5.40264 c 0.104018,2.97144 0.501746,5.77932 0.883839,6.23971 0.453162,0.54603 2.319257,0.83708 5.366933,0.83708 3.047673,0 4.913768,-0.29105 5.36693,-0.83708 z M 85.946886,178.42854 c -2.042255,-2.17389 -1.900416,-5.75047 0.296588,-7.47863 0.933251,-0.7341 2.078798,-1.33472 2.54566,-1.33472 1.79794,0 4.073144,1.52944 4.766966,3.20448 2.103641,5.07863 -3.92949,9.52575 -7.609214,5.60887 z m 63.935444,-0.0902 c -2.45609,-2.45608 -1.72643,-6.57518 1.41856,-8.00813 2.20669,-1.00543 3.02808,-0.90288 4.96376,0.61972 1.31851,1.03713 1.69682,1.89861 1.69682,3.86393 0,4.78105 -4.75029,6.85333 -8.07914,3.52448 z m -57.706611,-15.4765 c -0.346028,-0.34604 2.891114,-12.64137 3.652672,-13.87359 0.238738,-0.38629 9.948059,-0.6247 25.441019,-0.6247 23.21425,0 25.09702,0.0828 25.62786,1.12698 0.84071,1.65368 3.66593,12.93346 3.31443,13.23294 -0.16506,0.14063 -4.79193,-0.013 -10.28194,-0.34122 -9.53309,-0.57008 -44.734167,-0.19006 -46.538743,0.50242 -0.473977,0.18188 -1.020858,0.17161 -1.215298,-0.0229 z"
       style="fill:#092d78;fill-opacity:1;stroke-width:0.28774"
       sodipodi:nodetypes="sscsssssssssssssssssssssssssscsssssssssssssssscccsscscssssssscccssssssscsssssssssssssscsssssscc" />
  </g>
</svg>
