<?xml version="1.0" encoding="UTF-8" standalone="no"?>
<svg
   version="1.1"
   id="Layer_1"
   x="0px"
   y="0px"
   width="200"
   height="198.76601"
   viewBox="-360.791 -360.781 200 198.766"
   xml:space="preserve"
   sodipodi:docname="ES_R301-60.svg"
   inkscape:version="1.3.2 (091e20e, 2023-11-25, custom)"
   xmlns:inkscape="http://www.inkscape.org/namespaces/inkscape"
   xmlns:sodipodi="http://sodipodi.sourceforge.net/DTD/sodipodi-0.dtd"
   xmlns="http://www.w3.org/2000/svg"
   xmlns:svg="http://www.w3.org/2000/svg"><defs
   id="defs4" /><sodipodi:namedview
   id="namedview4"
   pagecolor="#ffffff"
   bordercolor="#000000"
   borderopacity="0.25"
   inkscape:showpageshadow="2"
   inkscape:pageopacity="0.0"
   inkscape:pagecheckerboard="true"
   inkscape:deskcolor="#d1d1d1"
   inkscape:zoom="1.0667103"
   inkscape:cx="384.828"
   inkscape:cy="384.828"
   inkscape:window-width="1920"
   inkscape:window-height="1017"
   inkscape:window-x="-8"
   inkscape:window-y="-8"
   inkscape:window-maximized="1"
   inkscape:current-layer="Layer_1" />
<path
   fill="#e41408"
   d="m -360.791,-261.40233 c 0,-54.8846 44.4982,-99.37867 99.389,-99.37867 54.88072,0 99.38486,44.49407 99.38486,99.37867 0,54.88666 -44.50414,99.38693 -99.38486,99.38693 -54.8908,0 -99.389,-44.50027 -99.389,-99.38693"
   id="path1"
   style="stroke-width:0.258253" />
<path
   fill="#ffffff"
   d="m -334.2837,-261.40233 c 0,-40.24917 32.62659,-72.87964 72.8817,-72.87964 40.24917,0 72.87369,32.63072 72.87369,72.87964 0,40.25511 -32.62452,72.87576 -72.87369,72.87576 -40.25511,0 -72.8817,-32.62065 -72.8817,-72.87576"
   id="path2"
   style="stroke-width:0.258253" />
<path
   fill-rule="evenodd"
   d="m -275.04109,-268.8351 c -1.00176,-0.50747 -2.49782,-1.52266 -4.01996,-2.03012 -5.57619,-3.53935 -14.17109,-3.01846 -19.73411,0.50772 0,-3.03188 2.02367,-5.56973 4.04036,-7.58642 2.01669,-1.52266 5.55605,-2.03013 8.09363,-1.01519 2.02419,0.53432 3.53936,2.53784 4.06051,4.55454 l 12.14097,-5.06227 c -1.02139,-4.03364 -4.05999,-8.08046 -7.59934,-10.09741 -6.57795,-4.06025 -16.19476,-4.06025 -23.27346,0 -0.50075,0.48086 -2.03684,1.49605 -3.0386,2.01695 -2.53759,3.01845 -5.55656,7.573 -6.55781,11.62007 -2.04381,7.573 -2.04381,19.23361 0,26.8061 1.00125,4.0605 4.01996,9.61629 7.07819,12.66134 1.00228,0.50798 2.01721,1.49657 3.01871,2.01721 3.0386,1.52266 7.59986,3.05874 10.63123,3.05874 2.02366,0 5.06226,-0.52115 6.58492,-1.04204 2.51744,-0.49378 5.55656,-2.53708 7.573,-4.03365 9.12199,-8.6011 9.61629,-23.26623 1.00176,-32.37557 z m -7.07896,17.71044 c -0.48113,4.04734 -3.53935,7.07922 -7.57352,7.07922 -4.04681,0 -7.59933,-3.03188 -8.10009,-7.07922 0,-0.50798 0,-2.03012 0,-3.03188 0.50076,-4.06051 4.05328,-7.0787 8.10009,-7.0787 4.03417,0 7.09239,3.01845 7.57352,7.0787 0.52063,1.00176 0.52063,2.5239 0,3.03188 z"
   id="path3"
   style="stroke-width:0.258253" />
<path
   fill-rule="evenodd"
   d="m -210.73957,-275.14576 c -2.95906,-10.54522 -13.08024,-18.14095 -24.05958,-18.14095 -10.54523,0 -20.6664,7.59573 -23.62623,18.14095 -1.26234,7.59547 -1.26234,18.14095 0,25.31262 2.95983,10.54549 13.081,18.14095 23.62623,18.14095 10.97934,0 21.10052,-7.59546 24.05958,-18.14095 1.68793,-7.17141 1.68793,-17.71689 0,-25.31262 z m -13.08024,21.09097 c -0.83777,5.06046 -5.49509,8.85806 -10.54548,8.85806 -5.4938,0 -10.13073,-3.7976 -10.97909,-8.85806 -0.8388,-5.06123 -0.8388,-11.80808 0,-16.4543 0.84836,-5.47547 5.48503,-9.27307 10.97909,-9.27307 5.05039,0 9.70771,3.7976 10.54548,9.27307 0.84888,4.64622 0.84888,11.39332 0,16.4543 z"
   id="path4"
   style="stroke-width:0.258253" />
</svg>
