<?xml version="1.0" encoding="UTF-8" standalone="no"?>
<svg
   xml:space="preserve"
   height="200"
   width="200"
   version="1.0"
   viewBox="0 0 200 200"
   id="svg2"
   inkscape:version="1.3.2 (091e20e, 2023-11-25, custom)"
   sodipodi:docname="ES_R303.svg"
   xmlns:inkscape="http://www.inkscape.org/namespaces/inkscape"
   xmlns:sodipodi="http://sodipodi.sourceforge.net/DTD/sodipodi-0.dtd"
   xmlns="http://www.w3.org/2000/svg"
   xmlns:svg="http://www.w3.org/2000/svg"
   xmlns:rdf="http://www.w3.org/1999/02/22-rdf-syntax-ns#"
   xmlns:cc="http://creativecommons.org/ns#"
   xmlns:dc="http://purl.org/dc/elements/1.1/"><metadata
     id="metadata14"><rdf:RDF><cc:Work
         rdf:about=""><dc:format>image/svg+xml</dc:format><dc:type
           rdf:resource="http://purl.org/dc/dcmitype/StillImage" /></cc:Work></rdf:RDF></metadata><defs
     id="defs12" /><sodipodi:namedview
     pagecolor="#ffffff"
     bordercolor="#666666"
     borderopacity="1"
     objecttolerance="10"
     gridtolerance="10"
     guidetolerance="10"
     inkscape:pageopacity="0"
     inkscape:pageshadow="2"
     inkscape:window-width="1920"
     inkscape:window-height="1017"
     id="namedview10"
     showgrid="false"
     inkscape:zoom="1.8950462"
     inkscape:cx="150.12827"
     inkscape:cy="94.720647"
     inkscape:window-x="-8"
     inkscape:window-y="-8"
     inkscape:window-maximized="1"
     inkscape:current-layer="svg2"
     inkscape:showpageshadow="2"
     inkscape:pagecheckerboard="true"
     inkscape:deskcolor="#d1d1d1" /><circle
     style="fill:#ffffff;fill-opacity:1;stroke:none;stroke-width:0.25;stroke-miterlimit:4;stroke-dasharray:none;stroke-opacity:1"
     id="path4160"
     cx="100"
     cy="100"
     r="87.5" /><path
     inkscape:connector-curvature="0"
     style="fill:#1c1d20;stroke-width:0.25"
     d="m 112.24269,83.349273 c 1.23092,0 2.22481,0.993888 2.22481,2.220655 v 76.683152 l 9.99709,-10.0054 10.00125,10.0054 V 85.569928 c 0,-12.271807 -9.95135,-22.227307 -22.22731,-22.227307 H 48.895913 l -9.99709,10.001247 9.99709,10.005405 h 63.346777"
     id="path6" /><path
     inkscape:connector-curvature="0"
     style="fill:#e41408;stroke-width:0.25"
     d="M 100.06238,0 C 44.82056,0 0,44.828881 0,100.06238 0,155.30419 44.82056,200 100.06238,200 155.30419,200 200,155.30419 200,100.06238 200,44.828881 155.30419,0 100.06238,0 Z m 0,26.640328 c 40.51233,0 73.29812,32.91804 73.29812,73.422882 0,17.03747 -5.86767,32.65688 -15.59446,45.09502 L 52.892253,43.794233 c 12.766665,-10.724825 29.21778,-17.15224 47.170127,-17.15224 v -7.5e-4 z M 42.105045,55.100428 146.97883,156.33551 c -12.70844,10.59176 -29.0556,17.02499 -46.91645,17.02499 -40.512332,0 -73.422882,-32.78579 -73.422882,-73.29812 7.5e-4,-16.945979 5.797397,-32.527967 15.465547,-44.961952 z"
     id="path8" /></svg>
