<?xml version="1.0" encoding="UTF-8" standalone="no"?>
<!-- Uploaded to: SVG Repo, www.svgrepo.com, Generator: SVG Repo Mixer Tools -->

<svg
   version="1.1"
   id="Layer_1"
   viewBox="0 0 512.001 512.001"
   xml:space="preserve"
   sodipodi:docname="man_made_pole..svg"
   inkscape:version="1.3.2 (091e20e, 2023-11-25, custom)"
   xmlns:inkscape="http://www.inkscape.org/namespaces/inkscape"
   xmlns:sodipodi="http://sodipodi.sourceforge.net/DTD/sodipodi-0.dtd"
   xmlns="http://www.w3.org/2000/svg"
   xmlns:svg="http://www.w3.org/2000/svg"><defs
   id="defs3" /><sodipodi:namedview
   id="namedview3"
   pagecolor="#ffffff"
   bordercolor="#000000"
   borderopacity="0.25"
   inkscape:showpageshadow="2"
   inkscape:pageopacity="0.0"
   inkscape:pagecheckerboard="0"
   inkscape:deskcolor="#d1d1d1"
   inkscape:zoom="1"
   inkscape:cx="273"
   inkscape:cy="279.5"
   inkscape:window-width="1920"
   inkscape:window-height="1017"
   inkscape:window-x="-8"
   inkscape:window-y="-8"
   inkscape:window-maximized="1"
   inkscape:current-layer="g3" />
<g
   id="g3">
	<rect
   style="fill:#000000;fill-opacity:1;stroke-width:0;stroke-dasharray:none"
   id="rect7"
   width="99"
   height="295"
   x="206"
   y="290" /><path
   style="fill:#ff0000;stroke-width:0;stroke-dasharray:none"
   d="m 253.04322,41.230565 c -63.88729,0 -115.86614,51.976425 -115.86614,115.866135 0,63.88729 51.97764,115.86372 115.86614,115.86372 63.8885,0 115.86492,-51.97643 115.86492,-115.86372 10e-4,-63.88971 -51.97642,-115.866135 -115.86492,-115.866135 z m 0,212.779105 c -53.4393,0 -96.9166,-43.47609 -96.9166,-96.91539 0,-53.4405 43.4773,-96.916595 96.9166,-96.916595 53.43929,0 96.91659,43.477305 96.91659,96.917805 0,53.4393 -43.4773,96.91418 -96.91659,96.91418 z"
   id="path1" />
	
	<rect
   x="224.03136"
   y="360.40707"
   style="fill:#1d1d1b;stroke-width:1.20898"
   width="19.343666"
   height="18.949537"
   id="rect2" />
	<rect
   x="262.71262"
   y="360.40707"
   style="fill:#1d1d1b;stroke-width:1.20898"
   width="19.343666"
   height="18.949537"
   id="rect3" />
	<path
   style="fill:#1d1d1b;stroke-width:1.20898"
   d="m 397.92485,157.0967 c 0,-76.703676 -59.91821,-139.666097 -135.40566,-144.563671 L 262.3307,0.343511 h -18.94954 l 0.1885,12.189518 C 168.08221,17.430603 108.164,80.393024 108.164,157.0967 c 0,76.70368 59.91821,139.66489 135.40566,144.56247 v 29.72758 h -58.031 v 76.98174 h 58.031 V 602.001 h 18.94953 V 408.36608 h 58.031 v -76.98175 h -58.031 v -29.72758 c 75.48624,-4.89758 135.40566,-67.85758 135.40566,-144.56005 z m -96.3242,193.23717 v 39.08388 h -97.11366 v -39.08388 z m -48.55743,-67.30749 c -69.43893,0 -125.93089,-56.49317 -125.93089,-125.93089 0,-69.44013 56.49317,-125.932093 125.93089,-125.932093 69.43771,0 125.93209,56.491963 125.93209,125.932093 0,69.43892 -56.49317,125.93089 -125.93209,125.93089 z"
   id="path3"
   sodipodi:nodetypes="sccccsccccccccccccscccccsssss" />
<rect
   style="fill:#ffffff;fill-opacity:1;stroke-width:0;stroke-dasharray:none"
   id="rect6"
   width="121.20015"
   height="61.053444"
   x="192.29202"
   y="339.65134" /></g>
<path
   style="fill:#ff0000;stroke-width:3.94693"
   d="m 233.34576,255.5105 c -30.5786,-6.13392 -56.52832,-25.60007 -70.6463,-52.99517 -7.74951,-15.0375 -11.11122,-28.93055 -11.16835,-46.15603 -0.0678,-20.39709 5.43364,-38.72475 16.80281,-55.97864 5.26988,-7.99759 16.96718,-20.111605 25.01355,-25.904664 19.5366,-14.065559 45.11529,-21.141463 67.70706,-18.729999 10.07987,1.075939 13.20291,1.741471 22.9534,4.89147 15.38721,4.971006 28.72646,13.439107 40.74849,25.868213 14.48115,14.97148 23.43679,32.44635 27.03065,52.74401 1.59455,9.0059 1.57905,25.432 -0.0327,34.53804 -7.32648,41.3956 -40.83073,74.81558 -82.27079,82.06388 -9.51727,1.66469 -26.95951,1.50003 -36.13791,-0.34111 z m 99.8606,-99.08523 v -21.70742 h -80.91473 -80.91471 v 21.70742 16.97125 h 80.91471 80.91473 z"
   id="path4"
   sodipodi:nodetypes="sscsssssscsssccccccccc" /><rect
   style="fill:#ffffff;fill-opacity:1;stroke-width:0;stroke-dasharray:none"
   id="rect5"
   width="165.11652"
   height="42.221577"
   x="168.22368"
   y="133.0399" /></svg>
