<?xml version="1.0" encoding="UTF-8" standalone="no"?>
<!-- Generator: Adobe Illustrator 12.0.1, SVG Export Plug-In  -->
<svg xmlns:dc="http://purl.org/dc/elements/1.1/" xmlns:cc="http://creativecommons.org/ns#" xmlns:rdf="http://www.w3.org/1999/02/22-rdf-syntax-ns#" xmlns:svg="http://www.w3.org/2000/svg" xmlns="http://www.w3.org/2000/svg" xmlns:sodipodi="http://sodipodi.sourceforge.net/DTD/sodipodi-0.dtd" xmlns:inkscape="http://www.inkscape.org/namespaces/inkscape" version="1.1" width="286.66199" height="286.66324" viewBox="-1 0 286.66199 286.66324" enable-background="new -1 0 289 288" xml:space="preserve" id="svg2" inkscape:version="0.48.2 r9819" sodipodi:docname="AJAX1.svg"><metadata id="metadata38"><rdf:RDF><cc:Work rdf:about=""><dc:format>image/svg+xml</dc:format><dc:type rdf:resource="http://purl.org/dc/dcmitype/StillImage"/></cc:Work></rdf:RDF></metadata><sodipodi:namedview pagecolor="#ffffff" bordercolor="#666666" borderopacity="1" objecttolerance="10" gridtolerance="10" guidetolerance="10" inkscape:pageopacity="0" inkscape:pageshadow="2" inkscape:window-width="1280" inkscape:window-height="1004" id="namedview36" showgrid="false" fit-margin-top="0" fit-margin-left="0" fit-margin-right="0" fit-margin-bottom="0" inkscape:zoom="2.3177389" inkscape:cx="121.43479" inkscape:cy="149.7832" inkscape:window-x="-8" inkscape:window-y="-8" inkscape:window-maximized="1" inkscape:current-layer="svg2"/>
<defs id="defs4">
</defs>
<path d="M 3.09875,133.38675 132.37975,4.1047494 c 5.471,-5.473 14.421,-5.473 19.896,0 l 129.283,129.2820006 c 5.471,5.47 5.471,14.423 0,19.89 l -129.284,129.284 c -5.475,5.47 -14.425,5.47 -19.896,0 l -129.28,-129.285 c -5.465,-5.466 -5.465,-14.419 0,-19.889 z" id="path6" style="fill:#ffd033;stroke:none;fill-opacity:1" inkscape:connector-curvature="0"/>

<path clip-rule="evenodd" d="M 6.22175,135.43975 134.43975,7.2207494 c 4.339,-4.339 11.442,-4.339 15.785,0 l 128.215,128.2190006 c 4.343,4.343 4.343,11.438 0,15.777 l -128.215,128.225 c -4.343,4.335 -11.446,4.335 -15.785,0 l -128.218,-128.225 c -4.338,-4.339 -4.338,-11.434 0,-15.777" id="path10" inkscape:connector-curvature="0" style="fill-rule:evenodd;stroke:none;fill:#000000"/>
<path clip-rule="evenodd" d="m 10.22475,139.38975 128.161,-128.160001 c 2.162,-2.1699996 5.724,-2.1699996 7.889,0 l 128.16,128.160001 c 2.165,2.166 2.165,5.716 0,7.883 l -128.16,128.161 c -2.165,2.167 -5.727,2.167 -7.889,0 l -128.161,-128.161 c -2.166,-2.167 -2.166,-5.717 0,-7.883" id="path12" inkscape:connector-curvature="0" style="fill:#ffd033;fill-rule:evenodd;stroke:none;fill-opacity:1"/>
<path d="m 78.17275,101.67975 v 8.561 h 10.18 v 5.638 h -10.18 v 15.243 h -5.533 V 96.146749 h 21.715 v 5.533001 h -16.182 z" id="path14" inkscape:connector-curvature="0" style="stroke:none;fill:#000000"/>
<path d="m 118.62775,131.12075 -5.638,-15.243 h -6.63 v 15.243 h -5.533 V 96.146749 h 11.536 c 2.715,0 4.542,0.261 6.265,1.096 3.079,1.461 5.272,5.168001 5.272,8.717001 0,3.707 -2.193,7.36 -5.43,8.822 l 6.16,16.339 h -6.002 z m -2.454,-28.815 c -0.939,-0.522 -1.356,-0.626 -3.184,-0.626 h -6.63 v 8.561 h 6.63 c 1.723,0 2.297,-0.104 3.184,-0.574 1.357,-0.783 2.193,-2.245 2.193,-3.707 0,-1.461 -0.836,-2.923 -2.193,-3.654 z" id="path16" inkscape:connector-curvature="0" style="stroke:none;fill:#000000"/>
<path d="m 152.08675,127.83175 c -1.982,2.662 -4.803,3.915 -8.455,3.915 -4.907,0 -7.987,-1.984 -10.075,-6.264 -1.461,-2.976 -2.453,-7.621 -2.453,-11.797 0,-5.742 1.462,-10.91 3.811,-14.250001 2.088,-2.662 4.907,-3.915 8.925,-3.915 4.438,0 7.518,1.983 9.711,6.264001 1.461,3.08 2.348,7.517 2.348,11.901 -0.002,5.533 -1.359,11.066 -3.812,14.146 z m -3.811,-23.96 c -1.096,-1.827 -2.453,-2.558 -4.541,-2.714 -0.104,0 -0.209,0 -0.313,0 -2.506,0 -4.176,1.357 -5.324,4.333 -0.888,2.088 -1.357,5.272 -1.357,8.195 0,3.707 0.73,7.517 2.088,9.709 1.096,1.827 2.558,2.714 4.803,2.714 2.557,0 4.176,-1.357 5.375,-4.437 0.732,-1.827 1.357,-5.272 1.357,-7.987 0,-3.914 -0.73,-7.464 -2.088,-9.813 z" id="path18" inkscape:connector-curvature="0" style="stroke:none;fill:#000000"/>
<path d="m 182.83275,129.03275 c -1.932,1.723 -4.646,2.714 -7.621,2.714 -6.004,0 -10.389,-3.55 -12.738,-8.874 l 5.273,-1.932 c 1.461,3.289 4.176,5.168 7.465,5.168 3.236,0 5.428,-2.245 5.428,-5.168 0,-4.646 -5.428,-5.429 -9.971,-7.256 -2.088,-0.835 -6.732,-2.923 -6.732,-8.717 0,-6.838001 4.645,-9.448001 10.908,-9.448001 4.908,0 8.248,2.819 9.971,7.151001 l -4.906,1.461 c 0,0 -1.254,-2.975 -5.168,-3.08 -0.156,0 -0.262,0 -0.365,0 -2.402,0 -5.012,0.939 -5.012,3.706 0,0.104 0,0.261 0,0.366 0.471,6.473 16.914,2.192 16.914,15.921 -0.001,3.185 -1.255,6.004 -3.446,7.988 z" id="path20" inkscape:connector-curvature="0" style="stroke:none;fill:#000000"/>
<path d="m 203.92075,101.05275 v 30.067 h -5.533 v -30.067 h -7.986 v -4.907001 h 21.609 v 4.907001 h -8.09 z" id="path22" inkscape:connector-curvature="0" style="stroke:none;fill:#000000"/>
<path d="m 76.03175,189.25375 v -15.242 h -12.737 v 15.242 h -5.533 v -34.974 h 5.533 v 14.094 h 12.737 v -14.094 h 5.533 v 34.974 h -5.533 z" id="path24" inkscape:connector-curvature="0" style="stroke:none;fill:#000000"/>
<path d="m 89.91675,189.25375 v -34.974 h 20.619 v 5.533 h -15.086 v 8.561 h 10.18 v 5.638 h -10.18 v 9.605 h 16.183 v 5.637 h -21.716 z" id="path26" inkscape:connector-curvature="0" style="stroke:none;fill:#000000"/>
<path d="m 138.14875,189.25375 -3.445,-9.813 h -10.909 l -3.445,9.813 h -5.898 l 12.058,-34.974 h 5.481 l 12.057,34.974 h -5.899 z m -8.821,-25.265 -3.603,9.813 h 6.995 l -3.392,-9.813 z" id="path28" inkscape:connector-curvature="0" style="stroke:none;fill:#000000"/>
<path d="m 161.58575,189.25375 h -4.279 l -11.066,-34.974 h 5.793 l 7.465,23.333 7.359,-23.333 h 5.9 l -11.172,34.974 z" id="path30" inkscape:connector-curvature="0" style="stroke:none;fill:#000000"/>
<path d="m 177.92375,189.25375 v -34.974 h 20.619 v 5.533 h -15.086 v 8.561 h 10.18 v 5.638 h -10.18 v 9.605 h 16.184 v 5.637 h -21.717 z" id="path32" inkscape:connector-curvature="0" style="stroke:none;fill:#000000"/>
<path d="m 223.44275,187.16575 c -1.932,1.723 -4.646,2.715 -7.621,2.715 -6.004,0 -10.389,-3.55 -12.738,-8.874 l 5.273,-1.932 c 1.461,3.288 4.176,5.168 7.465,5.168 3.236,0 5.428,-2.245 5.428,-5.168 0,-4.646 -5.428,-5.429 -9.971,-7.256 -2.088,-0.835 -6.732,-2.923 -6.732,-8.718 0,-6.838 4.645,-9.447 10.908,-9.447 4.908,0 8.248,2.818 9.971,7.15 l -4.906,1.462 c 0,0 -1.254,-2.976 -5.168,-3.079 -0.156,0 -0.262,0 -0.365,0 -2.402,0 -5.012,0.939 -5.012,3.705 0,0.105 0,0.262 0,0.366 0.471,6.473 16.914,2.192 16.914,15.921 -10e-4,3.184 -1.254,6.004 -3.446,7.987 z" id="path34" inkscape:connector-curvature="0" style="stroke:none;fill:#000000"/>
</svg>