<?xml version="1.0" encoding="UTF-8" standalone="no"?>
<svg
   height="64"
   width="64"
   version="1.0"
   id="svg3291"
   sodipodi:docname="ES_R501.svg"
   inkscape:version="1.3 (0e150ed6c4, 2023-07-21)"
   xmlns:inkscape="http://www.inkscape.org/namespaces/inkscape"
   xmlns:sodipodi="http://sodipodi.sourceforge.net/DTD/sodipodi-0.dtd"
   xmlns="http://www.w3.org/2000/svg"
   xmlns:svg="http://www.w3.org/2000/svg"
   xmlns:rdf="http://www.w3.org/1999/02/22-rdf-syntax-ns#"
   xmlns:cc="http://creativecommons.org/ns#"
   xmlns:dc="http://purl.org/dc/elements/1.1/">
  <metadata
     id="metadata3297">
    <rdf:RDF>
      <cc:Work
         rdf:about="">
        <dc:format>image/svg+xml</dc:format>
        <dc:type
           rdf:resource="http://purl.org/dc/dcmitype/StillImage" />
      </cc:Work>
    </rdf:RDF>
  </metadata>
  <defs
     id="defs3295" />
  <sodipodi:namedview
     pagecolor="#ffffff"
     bordercolor="#666666"
     borderopacity="1"
     objecttolerance="10"
     gridtolerance="10"
     guidetolerance="10"
     inkscape:pageopacity="0"
     inkscape:pageshadow="2"
     inkscape:window-width="1920"
     inkscape:window-height="1017"
     id="namedview3293"
     showgrid="false"
     inkscape:zoom="2.8284271"
     inkscape:cx="46.845825"
     inkscape:cy="71.948116"
     inkscape:window-x="-8"
     inkscape:window-y="-8"
     inkscape:window-maximized="1"
     inkscape:current-layer="layer6"
     inkscape:showpageshadow="2"
     inkscape:pagecheckerboard="true"
     inkscape:deskcolor="#d1d1d1" />
  <path
     d="M 63.973654,28.379955 C 62.23296,12.39478 48.49769,0.1563194 32.454894,0.06519761 13.957171,-0.0879004 -0.73085829,15.380359 0.1749995,33.828501 1.2313825,52.212323 17.583282,66.100355 35.902782,63.875913 53.391467,61.954315 66.12574,45.829778 63.973654,28.379955"
     fill-rule="evenodd"
     stroke="#000000"
     stroke-width="0.10965"
     fill="#ffffff"
     id="path3285"
     style="display:inline" />
  <path
     d="m 32.344,13.719 c -2.732,0.13 -5.287,1.831 -6.5,4.281 -0.756,1.449 -0.978,3.111 -1.125,4.719 -0.172,2.799 0.367,5.738 2,8.062 1.456,1.937 3.92,3.037 6.312,3.031 2.824,-0.022 5.57,-1.657 6.907,-4.156 1.064,-1.909 1.335,-4.157 1.281,-6.312 C 41.147,20.949 40.565,18.47 39,16.594 37.416,14.633 34.856,13.525 32.344,13.719 Z m -17.125,0.219 c -1.545,-0.012 -3.099,0.34 -4.407,1.187 -1.3445,0.806 -2.1888,2.185 -2.7182,3.625 -0.6715,1.716 -0.7071,3.588 -0.75,5.406 0.0162,2.106 0.4027,4.246 1.375,6.125 0.8666,1.724 2.5512,2.989 4.4372,3.375 2.124,0.441 4.573,0.166 6.25,-1.312 1.561,-1.332 2.414,-3.394 2.375,-5.438 0.012,-1.703 -0.45,-3.474 -1.625,-4.75 -1.976,-2.274 -5.611,-2.645 -8.125,-1.062 l -0.062,0.031 v -0.031 c 0.083,-1.534 1.413,-2.89 2.969,-2.938 1.053,-0.111 2.12,0.623 2.374,1.656 1.39,-0.546 2.768,-1.109 4.157,-1.656 -0.598,-2.14 -2.538,-3.766 -4.719,-4.094 -0.505,-0.078 -1.016,-0.121 -1.531,-0.124 z m 17.312,4.124 c 0.184,-0.021 0.377,-0.009 0.563,0 1.199,0.041 2.348,0.742 2.937,1.782 0.397,0.68 0.557,1.469 0.594,2.25 0.084,0.97 0.083,1.933 0.063,2.906 -0.066,0.925 -0.145,1.888 -0.594,2.719 -0.599,1.089 -1.865,1.782 -3.094,1.781 -0.845,0.046 -1.697,-0.199 -2.344,-0.75 -0.807,-0.677 -1.24,-1.723 -1.375,-2.75 -0.18,-1.148 -0.139,-2.311 -0.093,-3.469 0.052,-0.75 0.098,-1.52 0.406,-2.219 0.461,-1.225 1.648,-2.102 2.937,-2.25 z m -17.969,6.094 c 0.137,-0.017 0.271,-0.007 0.407,0 0.455,-0.008 0.906,0.11 1.281,0.375 0.306,0.207 0.584,0.469 0.781,0.781 0.281,0.454 0.405,1.001 0.407,1.532 -0.017,0.584 -0.171,1.198 -0.5,1.687 -0.249,0.368 -0.605,0.622 -1,0.813 -0.591,0.27 -1.277,0.343 -1.907,0.187 -0.257,-0.06 -0.499,-0.205 -0.719,-0.343 -0.401,-0.286 -0.716,-0.672 -0.906,-1.126 -0.185,-0.441 -0.22,-0.933 -0.187,-1.406 0.036,-0.401 0.159,-0.798 0.343,-1.156 0.213,-0.361 0.502,-0.667 0.844,-0.906 0.344,-0.219 0.748,-0.387 1.156,-0.438 z"
     fill-rule="evenodd"
     fill="#918f90"
     id="path3287"
     style="display:none" />
  <g
     inkscape:groupmode="layer"
     id="layer6"
     inkscape:label="Layer 1"
     style="opacity:1">
    <path
       d="m 9.5172729,37.967378 q 1.5399881,5.159396 6.7080851,6.708085 8.53519,1.426882 11.519461,-6.699384 0.765644,-2.992972 -0.321918,-5.881538 -0.0087,-0.0261 -0.0261,-0.0609 -3.810818,-7.143111 -11.536862,-4.724372 l 0.295817,-2.305632 h 10.649412 l -0.0087,-5.211599 H 11.37918 l -1.6182931,12.833237 5.8032331,0.948354 0.0609,-0.0696 q 0.435025,-0.739542 1.157166,-1.183268 2.801561,-1.383379 4.680869,1.113664 1.22677,2.201226 0.0696,4.454656 -0.887451,1.261572 -2.410039,1.522587 -3.306189,0.217513 -4.132737,-2.984271 L 9.5172729,37.967378 Z M 52.636928,24.951431 q -1.539989,-3.079977 -4.619965,-4.602564 -8.587393,-3.210485 -13.346567,4.628665 -3.123479,7.143111 -0.0957,14.321023 1.56609,3.227885 4.793975,4.793975 8.691799,3.149581 13.40747,-4.802676 2.845063,-7.195313 -0.139208,-14.338423 z M 48.31278,35.487736 q -0.0783,0.408923 -0.217513,0.800446 -1.888008,3.941326 -6.107751,2.818962 -2.540545,-0.965756 -3.062575,-3.619408 -0.295817,-2.523145 -0.104406,-5.04629 0.0435,-0.417624 0.0609,-0.835248 0.243614,-3.454098 3.558504,-4.445955 0.635137,-0.17401 1.287674,-0.16531 4.289347,0.469827 4.628666,4.767874 l 0.0087,0.0609 q 0.295817,2.827662 -0.0522,5.664025 z"
       id="text3863"
       style="font-size:34.802px;line-height:20.3917px;font-family:Ccrige;-inkscape-font-specification:Ccrige;letter-spacing:0px;word-spacing:0px;fill:#918f90;stroke-width:1.34003px"
       aria-label="50" />
  </g>
  <path
     d="M 31.337313,1.0018761 C 23.537019,1.2525682 15.826508,4.4783064 10.316319,10.088863 2.7155555,17.531101 -0.44650472,29.056936 2.1501983,39.360399 4.7221109,50.395516 13.853989,59.527795 24.889105,62.099306 35.250189,64.713697 46.846777,61.452073 54.285264,53.765682 61.930114,46.199893 65.047015,34.488063 62.24234,24.117598 59.483226,13.129382 50.162003,4.1378057 39.085345,1.7552388 36.533935,1.1622102 33.938304,0.91858 31.337313,1.0021441 Z m 0.712894,1.5493384 C 37.781499,2.5189199 43.503412,4.1643383 48.296686,7.3251924 34.730259,20.896979 21.161152,34.498247 7.5947254,48.070034 2.2561945,40.043276 1.3444405,29.313685 5.1652577,20.473531 8.8338479,11.702255 17.019131,5.016327 26.355095,3.1791508 28.227111,2.7918832 30.139329,2.5618007 32.050207,2.5509465 Z M 49.553631,8.2045178 50.391147,8.8327221 9.1022551,50.121614 8.4315717,49.284098 49.554301,8.20425 Z M 51.52213,9.753856 52.316765,10.465812 10.734407,52.04951 10.022853,51.253535 51.52213,9.7542581 Z m 1.842535,1.758919 0.711554,0.753631 -41.540817,41.540817 -0.753764,-0.711554 41.583697,-41.582358 z m 1.675034,1.884345 0.627132,0.837516 -41.20581,41.205811 -0.836177,-0.670013 z m 1.50753,2.05158 c 5.344024,7.721232 6.592929,18.027375 3.265644,26.800528 -3.340686,9.138979 -11.513507,16.33224 -21.020994,18.425361 -7.887395,1.857277 -16.383162,0.111223 -23.073914,-4.396626 z"
     fill-rule="evenodd"
     fill="#231f20"
     id="path3289"
     style="display:inline;stroke-width:1.34003" />
</svg>
