<?xml version="1.0" encoding="UTF-8" standalone="no"?>
<!-- Generator: Adobe Illustrator 11.0, SVG Export Plug-In . SVG Version: 6.0.0 Build 78)  -->

<svg
   width="100"
   height="100"
   version="1.1"
   id="svg7"
   sodipodi:docname="ES_R306.svg"
   inkscape:version="1.3 (0e150ed6c4, 2023-07-21)"
   xmlns:inkscape="http://www.inkscape.org/namespaces/inkscape"
   xmlns:sodipodi="http://sodipodi.sourceforge.net/DTD/sodipodi-0.dtd"
   xmlns="http://www.w3.org/2000/svg"
   xmlns:svg="http://www.w3.org/2000/svg">
  <defs
     id="defs7" />
  <sodipodi:namedview
     id="namedview7"
     pagecolor="#ffffff"
     bordercolor="#000000"
     borderopacity="0.25"
     inkscape:showpageshadow="2"
     inkscape:pageopacity="0.0"
     inkscape:pagecheckerboard="true"
     inkscape:deskcolor="#d1d1d1"
     inkscape:zoom="4"
     inkscape:cx="61.125"
     inkscape:cy="42.375"
     inkscape:window-width="1920"
     inkscape:window-height="1017"
     inkscape:window-x="-8"
     inkscape:window-y="-8"
     inkscape:window-maximized="1"
     inkscape:current-layer="svg7" />
  <path
     fill="#e41408"
     d="M 0,49.928538 C 0,22.356062 22.353986,0 49.928538,0 77.498938,0 99.855,22.356062 99.855,49.928538 99.855,77.50309 77.498938,99.855 49.928538,99.855 22.353986,99.852924 0,77.50309 0,49.928538"
     id="path1"
     style="stroke-width:2.07577" />
  <path
     fill="#ffffff"
     d="m 13.316076,49.928538 c 0,-20.218017 16.390294,-36.610386 36.612462,-36.610386 20.220093,0 36.610386,16.390293 36.610386,36.610386 C 86.538924,70.150706 70.148631,86.541 49.928538,86.541 29.70637,86.538924 13.316076,70.150706 13.316076,49.928538"
     id="path2"
     style="stroke-width:2.07577" />
  <path
     fill="#1c1d20"
     d="m 78.460021,41.03178 c 0.707838,0 1.064871,0.71199 1.064871,0.71199 l 2.484698,6.38715 c 0.707839,0.359108 0.707839,0.709914 0.707839,0.709914 0.711989,1.419827 0.711989,2.841731 0.711989,2.841731 0,1.772709 -0.711989,2.12559 -0.711989,2.12559 0.711989,1.066947 -0.352882,1.774785 -0.352882,1.774785 v 2.484699 c 0,0.392321 -0.315517,0.71199 -0.709914,0.71199 h -2.839655 c -0.390245,0 -0.71199,-0.317593 -0.71199,-0.71199 V 55.232135 H 63.904709 v 2.835504 c 0,0.392321 -0.317593,0.71199 -0.709914,0.71199 h -2.83758 c -0.394396,0 -0.714065,-0.317593 -0.714065,-0.71199 V 55.58294 c 0,0 -1.064871,-0.707838 -0.354957,-1.774785 0,0 -0.709914,-0.352881 -0.709914,-2.12559 0,0 0,-1.423979 0.709914,-2.841731 0,0 0,-0.350806 0.711989,-0.709914 l 2.482623,-6.38715 c 0,0 0.354957,-0.71199 1.064871,-0.71199 h 14.912345"
     id="path3"
     style="stroke-width:2.07577" />
  <polyline
     fill="#ffffff"
     points="32.472,24.433 35.891,24.434 35.892,25.287 32.472,25.285 32.472,24.433 "
     id="polyline3"
     transform="scale(2.0757718)" />
  <path
     fill="#ffffff"
     d="m 77.752182,42.804489 c 0.709914,0 0.709914,0.354957 0.709914,0.354957 l 1.772709,4.26156 C 80.591838,48.490028 79.526967,48.13092 79.526967,48.13092 77.040193,47.421006 71.008,47.421006 71.008,47.421006 c 0,0 -6.032193,0 -8.518967,0.709914 0,0 -1.064871,0.359108 -0.71199,-0.709914 l 1.772709,-4.26156 c 0,0 0,-0.354957 0.709914,-0.354957 h 13.492516"
     id="path4"
     style="stroke-width:2.07577" />
  <path
     fill="#e41408"
     d="m 47.348354,33.303682 c 1.027507,0 0.880127,0.882203 0.880127,0.882203 v 9.928416 H 19.265238 v -9.928416 c 0,0 -0.14738,-0.882203 0.880127,-0.882203 h 27.202989"
     id="path5"
     style="stroke-width:2.07577" />
  <path
     fill="#e41408"
     d="m 19.265238,44.701745 v 10.468117 h 1.662693 v 3.182158 c 0,0 -0.04982,0.392321 0.392321,0.392321 h 3.032702 c 0,0 0.392321,0.04774 0.392321,-0.392321 v -3.182158 h 0.342502 v 3.182158 c 0,0 -0.04982,0.442139 0.437988,0.442139 -0.04567,0 3.084597,0 3.084597,0 0,0 0.390245,0.04774 0.390245,-0.390245 0.04774,0 0,-1.567208 0,-1.567208 h 9.490429 c 0,0 -0.04774,1.567208 0,1.567208 0,0.440064 0.39232,0.390245 0.39232,0.390245 0,0 3.130264,0 3.082521,0 0.489883,0 0.440064,-0.442139 0.440064,-0.442139 v -3.182158 h 0.342502 v 3.182158 c 0,0.442139 0.390246,0.392321 0.390246,0.392321 h 3.034778 c 0.440063,0 0.390245,-0.392321 0.390245,-0.392321 v -3.182158 h 1.664769 V 44.701745 H 19.265238"
     id="path6"
     style="stroke-width:2.07577" />
  <line
     fill="none"
     stroke="#ffffff"
     stroke-width="4.01247"
     stroke-miterlimit="3.864"
     x1="24.597897"
     y1="52.533634"
     x2="24.597897"
     y2="51.751064"
     id="line6" />
  <line
     fill="none"
     stroke="#ffffff"
     stroke-width="0.782566"
     stroke-miterlimit="3.864"
     x1="30.273054"
     y1="55.074375"
     x2="37.170845"
     y2="55.074375"
     id="line7" />
</svg>
