<?xml version="1.0" encoding="UTF-8" standalone="no"?>
<svg
   xml:space="preserve"
   height="100"
   width="100"
   version="1.0"
   viewBox="0 0 99.999999 100"
   id="svg4"
   sodipodi:docname="ES_R305.svg"
   inkscape:version="1.3 (0e150ed6c4, 2023-07-21)"
   xmlns:inkscape="http://www.inkscape.org/namespaces/inkscape"
   xmlns:sodipodi="http://sodipodi.sourceforge.net/DTD/sodipodi-0.dtd"
   xmlns="http://www.w3.org/2000/svg"
   xmlns:svg="http://www.w3.org/2000/svg"><defs
     id="defs4" /><sodipodi:namedview
     id="namedview4"
     pagecolor="#ffffff"
     bordercolor="#000000"
     borderopacity="0.25"
     inkscape:showpageshadow="2"
     inkscape:pageopacity="0.0"
     inkscape:pagecheckerboard="true"
     inkscape:deskcolor="#d1d1d1"
     inkscape:zoom="2.8284271"
     inkscape:cx="64.877047"
     inkscape:cy="31.996582"
     inkscape:window-width="1920"
     inkscape:window-height="1017"
     inkscape:window-x="-8"
     inkscape:window-y="-8"
     inkscape:window-maximized="1"
     inkscape:current-layer="svg4" /><path
     fill="#e41408"
     d="M 0,49.864007 C 0,22.327167 22.323021,0 49.859861,0 c 27.53684,0 49.861934,22.327167 49.861934,49.864007 0,27.538913 -22.325094,49.861934 -49.861934,49.861934 C 22.323021,99.725941 0,77.40292 0,49.864007"
     id="path1"
     style="stroke-width:2.07309" /><path
     fill="#ffffff"
     d="m 13.294719,49.864007 c 0,-20.191886 16.371183,-36.563069 36.565142,-36.563069 20.196032,0 36.567215,16.36911 36.567215,36.563069 0,20.196032 -16.36911,36.565142 -36.567215,36.565142 -20.193959,-0.0021 -36.565142,-16.36911 -36.565142,-36.565142"
     id="path2"
     style="stroke-width:2.07309" /><path
     fill="#1c1d20"
     d="m 60.119578,41.007771 c -0.708996,0 -1.036545,0.713143 -1.036545,0.713143 l -2.462829,6.349871 c -0.70485,0.356572 -0.71107,0.71107 -0.71107,0.71107 -0.713142,1.415919 -0.713142,2.850497 -0.713142,2.850497 0,1.770418 0.713142,2.137355 0.713142,2.139428 -0.713142,1.065567 0.323402,1.747614 0.323402,1.747614 v 2.462829 c 0,0.393887 0.319256,0.713143 0.713143,0.71107 h 2.850497 c 0.393887,0 0.71107,-0.319256 0.713143,-0.71107 v -2.850497 h 14.186147 v 2.850497 c 0,0.393887 0.321329,0.713143 0.713143,0.71107 h 2.786231 c 0.391814,0 0.71107,-0.319256 0.71107,-0.71107 v -2.462829 c 0,0 1.09459,-0.68412 0.38974,-1.747614 0,0 0.713143,-0.36901 0.713143,-2.139428 0,0 -0.0041,-1.432504 -0.713143,-2.850497 0,0 -0.0041,-0.354498 -0.713142,-0.71107 l -2.460757,-6.349871 c 0,0 -0.391814,-0.713143 -1.10081,-0.713143 z m 0.713143,1.749687 h 13.475077 c 0.708997,0 0.713143,0.323402 0.713143,0.323402 l 1.81188,4.276783 c 0.358644,1.06764 -0.71107,0.713142 -0.71107,0.713142 -2.479414,-0.708996 -8.551492,-0.713142 -8.551492,-0.713142 0,0 -6.005738,0.0041 -8.487226,0.713142 0,0 -1.071786,0.354498 -0.713142,-0.713142 l 1.749687,-4.276783 c 0,0 0.0021,-0.323402 0.713143,-0.323402 z m 3.173899,7.904688 h 7.06094 v 1.747614 h -7.06094 z"
     id="path3"
     style="stroke-width:2.07309" /><path
     fill="#e41408"
     d="m 24.682196,41.007771 c -0.711069,0 -1.036544,0.713143 -1.036544,0.713143 l -2.525022,6.349871 c -0.712106,0.356572 -0.713558,0.71107 -0.713558,0.71107 -0.708996,1.417993 -0.712728,2.850497 -0.712728,2.850497 0,1.770418 0.712728,2.139428 0.712728,2.139428 -0.708996,1.063494 0.388083,1.747614 0.388083,1.747614 v 2.462829 c 0,0.391814 0.323402,0.71107 0.713142,0.71107 h 2.850498 c 0.393886,0.0021 0.713142,-0.317183 0.713142,-0.71107 v -2.850497 h 14.121882 v 2.850497 c 0,0.391814 0.321328,0.71107 0.713142,0.71107 h 2.850497 c 0.391814,0.0021 0.713143,-0.317183 0.713143,-0.71107 v -2.462829 c 0,0 1.096664,-0.682047 0.387668,-1.747614 0,-0.0021 0.711069,-0.36901 0.713142,-2.139428 0,0 -0.0021,-1.434578 -0.713142,-2.850497 0,0 -0.0041,-0.354498 -0.713143,-0.71107 l -2.525022,-6.349871 c 0,0 -0.327548,-0.713143 -1.036545,-0.713143 z m 0.713143,1.749687 h 13.475078 c 0.711069,0 0.713142,0.323402 0.713142,0.323402 l 1.749687,4.276783 c 0.352425,1.06764 -0.713142,0.713142 -0.713142,0.713142 -2.481488,-0.708996 -8.487226,-0.713142 -8.487226,-0.713142 0,0 -6.007812,0.0041 -8.487226,0.713142 0,0 -1.065568,0.354498 -0.713143,-0.713142 l 1.749687,-4.276783 c 0,0 0.0062,-0.323402 0.713143,-0.323402 z m 3.173899,7.904688 h 7.12728 v 1.747614 h -7.12728 z"
     id="path4"
     style="stroke-width:2.07309" /></svg>
