<?xml version="1.0" encoding="UTF-8" standalone="no"?>
<svg
   width="64"
   height="64"
   id="svg2"
   version="1.1"
   inkscape:version="1.3 (0e150ed6c4, 2023-07-21)"
   sodipodi:docname="ES_R411.svg"
   xmlns:inkscape="http://www.inkscape.org/namespaces/inkscape"
   xmlns:sodipodi="http://sodipodi.sourceforge.net/DTD/sodipodi-0.dtd"
   xmlns="http://www.w3.org/2000/svg"
   xmlns:svg="http://www.w3.org/2000/svg"
   xmlns:rdf="http://www.w3.org/1999/02/22-rdf-syntax-ns#"
   xmlns:cc="http://creativecommons.org/ns#"
   xmlns:dc="http://purl.org/dc/elements/1.1/">
  <defs
     id="defs4" />
  <sodipodi:namedview
     id="base"
     pagecolor="#ffffff"
     bordercolor="#666666"
     borderopacity="1.0"
     inkscape:pageopacity="0.0"
     inkscape:pageshadow="2"
     inkscape:zoom="5.6568542"
     inkscape:cx="63.197669"
     inkscape:cy="43.398679"
     inkscape:document-units="px"
     inkscape:current-layer="layer1"
     showgrid="false"
     fit-margin-top="0"
     fit-margin-left="0"
     fit-margin-right="0"
     fit-margin-bottom="0"
     inkscape:window-width="1920"
     inkscape:window-height="1017"
     inkscape:window-x="-8"
     inkscape:window-y="-8"
     inkscape:window-maximized="1"
     inkscape:document-rotation="0"
     inkscape:showpageshadow="2"
     inkscape:pagecheckerboard="true"
     inkscape:deskcolor="#d1d1d1" />
  <metadata
     id="metadata7">
    <rdf:RDF>
      <cc:Work
         rdf:about="">
        <dc:format>image/svg+xml</dc:format>
        <dc:type
           rdf:resource="http://purl.org/dc/dcmitype/StillImage" />
      </cc:Work>
    </rdf:RDF>
  </metadata>
  <g
     inkscape:label="Capa 1"
     inkscape:groupmode="layer"
     id="layer1"
     transform="translate(-24.684594,-76.980789)"
     style="display:inline">
    <path
       id="path3790"
       style="fill:#ffffff;stroke:#0000ff;stroke-width:0.314898;stroke-linecap:round;stroke-linejoin:round"
       d="M 88.157492,109.41405 A 31.264837,31.264837 0 0 1 56.892654,140.67888 31.264837,31.264837 0 0 1 25.627817,109.41405 31.264837,31.264837 0 0 1 56.892654,78.14921 31.264837,31.264837 0 0 1 88.157492,109.41405 Z" />
    <path
       inkscape:connector-curvature="0"
       id="path3784"
       d="M 52.434716,140.79511 C 45.523678,139.62723 39.970624,136.97636 35.33,132.6298 c -5.15989,-4.83291 -8.327075,-10.4584 -9.675712,-17.1858 -0.233914,-1.16683 -0.425299,-2.44468 -0.425299,-2.83965 0,-1.22285 0.07534,0.95064 -0.125012,-0.55524 -0.140311,-1.05461 -0.146143,2.60131 -0.152308,-1.99124 -0.0047,-3.48128 -0.07794,-1.42208 0.06497,-2.2997 0.07645,-0.46945 0.317545,-2.84741 0.118927,-1.54498 -0.177495,1.16391 0.03121,0.44674 0.187856,-0.94316 0.749765,-6.652734 4.01574,-13.218972 9.090599,-18.27664 3.722219,-3.709609 7.289945,-5.947626 12.253837,-7.686769 10.729535,-3.759186 23.170248,-1.095827 31.551999,6.754782 4.19998,3.933836 6.78862,7.932106 8.652046,13.363518 0.884758,2.578839 1.47906,6.485369 1.523083,9.615519 0.03961,2.81592 -0.507535,1.81034 -0.614534,-0.6081 -0.681632,-15.406984 -13.797,-29.073087 -28.99045,-29.973134 -5.890078,-0.348923 -10.877202,0.65402 -15.882585,3.194097 -6.241733,3.167482 -10.707296,7.605521 -13.75675,13.67195 -2.055702,4.089516 -2.949326,7.334257 -3.263562,11.850007 -0.401541,5.77037 0.634991,10.96824 3.198191,16.03785 3.239351,6.40694 7.842482,10.96596 14.149556,14.01399 3.793693,1.83339 7.208108,2.73111 11.436313,3.00684 6.928222,0.45179 13.357035,-1.22336 19.181241,-4.99805 7.934664,-5.1425 13.274772,-14.33287 13.973167,-23.90017 0.17351,-2.3769 0.835254,-2.32891 0.474264,1.27031 l -0.284228,2.83391 -1.115776,3.77431 c -1.537419,5.20055 -3.955941,8.67787 -7.760119,12.46455 -4.875466,4.85305 -9.925736,7.53904 -16.754267,8.91077 -2.296637,0.46134 -7.76819,0.57437 -9.950733,0.20554 z m 1.693742,-2.16037 c -9.011131,-1.08083 -16.563251,-5.49087 -21.453291,-12.52758 -1.24697,-1.79438 -3.148754,-5.5682 -3.81919,-7.57864 -1.647705,-4.941 -1.883185,-10.64703 -0.656222,-15.90125 3.549385,-15.199524 18.63455,-25.041635 33.951368,-22.151108 11.927168,2.250845 21.162834,11.54841 23.551203,23.709028 0.496789,2.52944 0.497524,7.50919 0.0013,10.24163 -2.291534,12.6237 -12.451483,22.35702 -25.09379,24.0401 -2.076097,0.2764 -4.954932,0.35093 -6.48159,0.16782 z m -7.49015,-15.83201 c 1.861028,-0.39447 3.671384,-1.3347 5.121224,-2.65977 1.605511,-1.46736 2.306754,-2.93227 2.430992,-5.07843 0.131215,-2.26665 -0.310592,-3.53806 -1.731048,-4.98152 l -1.083349,-1.10089 0.891446,-0.89861 c 1.393359,-1.40454 1.860885,-2.55023 1.860885,-4.56014 0,-1.42737 -0.09344,-1.88402 -0.594113,-2.9036 -1.568557,-3.194202 -6.508569,-5.461051 -10.538398,-4.835797 -3.401313,0.527729 -6.255656,2.41315 -7.549931,4.987057 -0.528575,1.05118 -0.975319,3.08073 -0.731743,3.3243 0.22657,0.22657 5.295671,0.86458 5.684316,0.71544 0.157187,-0.0603 0.285793,-0.31577 0.285793,-0.56769 0,-1.38751 1.833506,-2.73103 3.727044,-2.73103 1.26613,0 2.817978,0.71551 3.214285,1.48201 0.512804,0.99183 -0.06773,2.88121 -1.013234,3.29765 -0.174666,0.0769 -1.123172,0.17679 -2.107791,0.22192 -0.984616,0.0451 -1.869052,0.16088 -1.965413,0.25724 -0.09636,0.0964 -0.14822,1.31055 -0.115245,2.6982 l 0.05996,2.523 2.27212,0.10587 c 2.134032,0.0994 2.30774,0.14152 2.858189,0.69288 0.85009,0.8515 0.828995,2.19686 -0.04908,3.1302 -2.149878,2.28519 -6.046663,1.27506 -6.785033,-1.75884 -0.169373,-0.69593 -0.047,-0.69017 -3.191206,-0.1507 -3.472222,0.59576 -3.294594,0.51427 -3.133299,1.43735 0.296861,1.69889 1.169198,3.19281 2.682499,4.59389 2.769378,2.56402 5.998652,3.5022 9.500138,2.76001 z m 25.258328,-0.42276 c 1.867242,-0.70282 2.794317,-1.33581 4.234031,-2.89085 1.990128,-2.1496 3.022101,-5.02803 3.234031,-9.02053 0.25891,-4.87747 -0.985536,-8.93121 -3.567021,-11.619566 -2.10917,-2.196468 -5.662835,-3.507692 -8.564484,-3.160098 -5.471148,0.655414 -9.059907,4.557874 -10.055362,10.934324 -0.525365,3.36527 0.163241,7.91571 1.638385,10.82677 0.764325,1.50831 2.868643,3.55233 4.510292,4.38104 2.713232,1.36963 5.855053,1.57086 8.570128,0.54891 z m -5.019918,-5.70893 c -1.34932,-0.36912 -2.469186,-1.29397 -3.115104,-2.5726 -0.506332,-1.00232 -0.528747,-1.20852 -0.516645,-4.75284 0.01393,-4.07942 0.130522,-4.5973 1.346895,-5.98268 1.743152,-1.98534 5.48849,-1.98534 7.231646,0 1.03673,1.18077 1.257056,1.95124 1.396113,4.88216 0.16723,3.52483 -0.12529,5.30647 -1.088633,6.63053 -1.175141,1.61516 -3.281825,2.33504 -5.254272,1.79543 z"
       style="fill:#000080;fill-opacity:1;stroke-width:0.0958212"
       sodipodi:nodetypes="ccssssssssssssssssssssssssscsssscssssscsccsssscsssssscssssssscsssssssssssssssssssssssss" />
  </g>
  <g
     inkscape:groupmode="layer"
     id="layer5"
     inkscape:label="Capa 3"
     style="display:inline">
    <path
       style="display:inline;fill:#000080;stroke:none;stroke-width:0.0958212;stroke-linecap:round;stroke-linejoin:round"
       d="M 12.684439,15.78786 6.5864587,37.75995 13.749166,48.600804 51.885744,47.632871 57.886932,32.049143 54.015198,18.885247 13.555579,16.271826 l -1.258312,-1.161519 1.355105,1.4519 -0.09679,0.387173 -0.09679,-0.387173"
       id="path2119" />
  </g>
  <g
     inkscape:groupmode="layer"
     id="layer4"
     inkscape:label="Capa 2"
     style="display:inline">
    <path
       d="m 9.8414954,27.417846 5.6926226,0.619544 q -0.02694,-1.077468 0.601586,-1.9574 0.125705,-0.143662 0.269367,-0.278346 3.151594,-2.379408 6.078715,0.269367 0.03592,0.05387 0.06285,0.116726 0.826059,2.136978 -1.122363,3.34913 -0.457924,0.16162 -0.951763,0.197536 h -2.954058 v 5.270614 h 3.627475 q 0.323241,0.04489 0.610566,0.170599 1.885569,1.041552 1.212151,3.088741 -0.502818,0.852996 -1.346835,1.364793 -3.277298,1.589266 -5.441213,-1.328877 -0.502819,-0.799122 -0.619544,-1.732928 l -5.953011,1.050532 q 0.2065147,2.011273 1.275004,3.726243 0.637502,0.870953 1.436624,1.607223 7.694917,5.809349 14.842121,-0.682396 2.864269,-3.636455 0.9787,-7.865516 -0.870953,-1.418667 -2.289619,-2.298599 1.310919,-0.835038 2.092084,-2.181873 2.451239,-5.324487 -2.325535,-8.72749 -7.802664,-4.722902 -14.294409,1.679054 -1.3917296,2.056168 -1.4815186,4.543323 z M 54.251104,24.948649 q -1.589266,-3.178531 -4.767796,-4.749838 -8.862174,-3.313214 -13.773633,4.776775 -3.223425,7.371676 -0.09877,14.779269 1.616202,3.331172 4.947374,4.947374 8.969921,3.250362 13.836485,-4.956353 2.9361,-7.42555 -0.143662,-14.797227 z M 49.78859,35.822097 q -0.08081,0.422008 -0.224472,0.826059 -1.948421,4.067441 -6.303188,2.909163 -2.621839,-0.996658 -3.160573,-3.735222 -0.305282,-2.603881 -0.107746,-5.207762 0.04489,-0.430987 0.06285,-0.861975 0.251409,-3.564623 3.67237,-4.588218 0.65546,-0.179578 1.328877,-0.170599 4.426598,0.484861 4.776775,4.920438 l 0.009,0.06285 q 0.305282,2.918142 -0.05387,5.845264 z"
       id="text2116"
       style="font-size:35.9156px;line-height:21.0443px;font-family:Ccrige;-inkscape-font-specification:Ccrige;letter-spacing:0px;word-spacing:0px;fill:#ffffff;stroke-width:0.0958212px"
       aria-label="30" />
  </g>
</svg>
