<?xml version="1.0" encoding="UTF-8" standalone="no"?>
<!-- Uploaded to: SVG Repo, www.svgrepo.com, Generator: SVG Repo Mixer Tools -->

<svg
   version="1.1"
   id="Layer_1"
   viewBox="0 0 512.001 512.001"
   xml:space="preserve"
   sodipodi:docname="man_made_pole..svg"
   inkscape:version="1.3.2 (091e20e, 2023-11-25, custom)"
   xmlns:inkscape="http://www.inkscape.org/namespaces/inkscape"
   xmlns:sodipodi="http://sodipodi.sourceforge.net/DTD/sodipodi-0.dtd"
   xmlns="http://www.w3.org/2000/svg"
   xmlns:svg="http://www.w3.org/2000/svg"><defs
   id="defs3" /><sodipodi:namedview
   id="namedview3"
   pagecolor="#ffffff"
   bordercolor="#000000"
   borderopacity="0.25"
   inkscape:showpageshadow="2"
   inkscape:pageopacity="0.0"
   inkscape:pagecheckerboard="0"
   inkscape:deskcolor="#d1d1d1"
   inkscape:zoom="4"
   inkscape:cx="272.75"
   inkscape:cy="259.375"
   inkscape:window-width="1920"
   inkscape:window-height="1017"
   inkscape:window-x="-8"
   inkscape:window-y="-8"
   inkscape:window-maximized="1"
   inkscape:current-layer="g3" />
<g
   id="g3">
	<path
   style="fill:#ff0000;stroke-width:0;stroke-dasharray:none"
   d="M256,48.163c-52.844,0-95.838,42.992-95.838,95.838c0,52.844,42.993,95.836,95.838,95.836   s95.837-42.992,95.837-95.836C351.838,91.155,308.845,48.163,256,48.163z M256,224.162c-44.202,0-80.164-35.961-80.164-80.163   c0-44.203,35.962-80.164,80.164-80.164S336.164,99.797,336.164,144C336.164,188.202,300.202,224.162,256,224.162z"
   id="path1" />
	
	<rect
   x="232.003"
   y="312.168"
   style="fill:#1D1D1B;"
   width="16"
   height="15.674"
   id="rect2" />
	<rect
   x="263.998"
   y="312.168"
   style="fill:#1D1D1B;"
   width="16"
   height="15.674"
   id="rect3" />
	<path
   style="fill:#1d1d1b"
   d="m 375.838,144.001 c 0,-63.445 -49.561,-115.524 -112,-119.575 l -0.15591,-10.082489 h -15.674 L 248.164,24.426 c -62.439,4.051 -112,56.13 -112,119.575 0,63.445 49.561,115.523 112,119.574 v 24.589 h -48 v 63.675 h 48 v 160.162 h 15.674 V 351.837 h 48 v -63.675 h -48 v -24.589 c 62.438,-4.051 112,-56.128 112,-119.572 z m -79.674,159.835 v 32.328 H 215.837 V 303.836 Z M 256,248.163 C 198.564,248.163 151.837,201.435 151.837,144 151.837,86.563 198.565,39.836 256,39.836 c 57.435,0 104.164,46.727 104.164,104.164 0,57.436 -46.728,104.163 -104.164,104.163 z"
   id="path3"
   sodipodi:nodetypes="sccccsccccccccccccscccccsssss" />
<rect
   style="fill:#ffffff;fill-opacity:1;stroke-width:0;stroke-dasharray:none"
   id="rect6"
   width="100.25"
   height="50.5"
   x="205.75"
   y="295" /></g>
<path
   style="fill:#ff0000;stroke-width:3.26468"
   d="m 239.70736,225.4034 c -25.29291,-5.07364 -46.75707,-21.17495 -58.43467,-43.83465 -6.40996,-12.43818 -9.19058,-23.92973 -9.23784,-38.17769 -0.0561,-16.87133 4.49441,-32.03095 13.89835,-46.302402 4.35895,-6.615161 14.0343,-16.635199 20.68981,-21.426894 16.15959,-11.634245 37.31685,-17.487038 56.0035,-15.492409 8.33751,0.889956 10.92071,1.440447 18.98577,4.045951 12.72744,4.111738 23.76093,11.116079 33.70488,21.396745 11.978,12.383571 19.3856,26.837809 22.35824,43.626899 1.31893,7.44918 1.30611,21.03593 -0.027,28.56794 -6.06006,34.24013 -33.7729,61.88327 -68.04981,67.87866 -7.87215,1.37694 -22.2994,1.24074 -29.89126,-0.28215 z m 82.59912,-81.95777 V 125.49046 H 255.37833 188.4502 v 17.95517 14.03767 h 66.92813 66.92815 z"
   id="path4"
   sodipodi:nodetypes="sscsssssscsssccccccccc" /><rect
   style="fill:#ffffff;fill-opacity:1;stroke-width:0;stroke-dasharray:none"
   id="rect5"
   width="136.57516"
   height="34.923332"
   x="185.84201"
   y="124.10256" /></svg>
