<?xml version="1.0" encoding="UTF-8" standalone="no"?>
<svg
   version="1.2"
   width="400"
   height="98.674004"
   id="svg2"
   sodipodi:docname="ES_B2b.svg"
   inkscape:version="1.3.2 (091e20e, 2023-11-25, custom)"
   xmlns:inkscape="http://www.inkscape.org/namespaces/inkscape"
   xmlns:sodipodi="http://sodipodi.sourceforge.net/DTD/sodipodi-0.dtd"
   xmlns="http://www.w3.org/2000/svg"
   xmlns:svg="http://www.w3.org/2000/svg"
   xmlns:rdf="http://www.w3.org/1999/02/22-rdf-syntax-ns#"
   xmlns:cc="http://creativecommons.org/ns#"
   xmlns:dc="http://purl.org/dc/elements/1.1/">
  <sodipodi:namedview
     pagecolor="#ffffff"
     bordercolor="#666666"
     borderopacity="1"
     objecttolerance="10"
     gridtolerance="10"
     guidetolerance="10"
     inkscape:pageopacity="0"
     inkscape:pageshadow="2"
     inkscape:window-width="1920"
     inkscape:window-height="1017"
     id="namedview906"
     showgrid="false"
     inkscape:zoom="2.8284271"
     inkscape:cx="202.40932"
     inkscape:cy="38.360543"
     inkscape:window-x="-8"
     inkscape:window-y="-8"
     inkscape:window-maximized="1"
     inkscape:current-layer="Capa_1"
     fit-margin-top="0"
     fit-margin-left="0"
     fit-margin-right="0"
     fit-margin-bottom="0"
     inkscape:showpageshadow="false"
     inkscape:pagecheckerboard="true"
     inkscape:deskcolor="#d1d1d1" />
  <metadata
     id="metadata3103">
    <rdf:RDF>
      <cc:Work
         rdf:about="">
        <dc:format>image/svg+xml</dc:format>
        <dc:type
           rdf:resource="http://purl.org/dc/dcmitype/StillImage" />
      </cc:Work>
    </rdf:RDF>
  </metadata>
  <defs
     id="defs3101" />
  <g
     inkscape:groupmode="layer"
     id="layer3"
     inkscape:label="Layer 1"
     style="display:inline"
     transform="translate(1.6031494e-7,-23.246619)">
    <g
       id="Capa_1">
      <path
         d="m 0.39419635,30.16721 c 0,-3.603947 2.92040155,-6.526394 6.52434465,-6.526394 H 391.63135 c 3.60599,0 6.52434,2.922447 6.52434,6.526394 v 84.83286 c 0,3.60394 -2.91835,6.52639 -6.52434,6.52639 H 6.918541 c -3.6039431,0 -6.52434465,-2.92449 -6.52434465,-6.52639 z"
         id="path3089"
         style="fill:#ffffff;stroke-width:3.98177"
         sodipodi:nodetypes="sssssssss" />
      <path
         d="m 0.39419635,30.16721 c 0,-3.603947 2.92040155,-6.526394 6.52434465,-6.526394 H 391.96088 c 3.60599,0 6.52433,2.922447 6.52433,6.526394 v 84.83286 c 0,3.60394 -2.91834,6.52639 -6.52433,6.52639 H 6.918541 c -3.6039431,0 -6.52434465,-2.92449 -6.52434465,-6.52639 z"
         id="path3091"
         style="display:inline;fill:none;stroke:#1c1d20;stroke-width:0.788393;stroke-miterlimit:3.864"
         sodipodi:nodetypes="sssssssss" />
    </g>
  </g>
  <g
     inkscape:groupmode="layer"
     id="layer7"
     inkscape:label="Layer 4"
     style="display:inline">
    <path
       d="m 396.0703,91.771872 c 0,2.279838 -1.84594,4.127853 -4.12375,4.127853 H 6.9328669 c -2.2777902,0 -4.1258091,-1.845969 -4.1258091,-4.127853 V 6.8980778 c 0,-2.2757433 1.8480189,-4.1217171 4.1258091,-4.1217171 H 391.94655 c 2.27573,0 4.12375,1.8459738 4.12375,4.1217171 V 91.771872"
       id="path3093"
       style="display:inline;fill:#19408b;stroke-width:3.98177"
       sodipodi:nodetypes="csssssssc" />
  </g>
  <g
     inkscape:groupmode="layer"
     id="layer4"
     inkscape:label="Layer 2"
     transform="translate(1.6031494e-7,-23.246619)"
     style="display:inline">
    <path
       style="fill:#ffffff;fill-opacity:1;stroke-width:199.089;stroke-linecap:round;stroke-linejoin:round"
       d="m 103.53818,24.307632 38.67205,44.99102 -43.348087,49.919818 45.496537,0.25275 42.21066,-47.897733 -42.08428,-47.265855 z"
       id="path875-6"
       sodipodi:nodetypes="ccccccc" />
    <path
       style="display:inline;fill:#ffffff;fill-opacity:1;stroke-width:199.089;stroke-linecap:round;stroke-linejoin:round"
       d="M 12.736866,24.307632 51.408918,69.298652 8.06083,119.21847 53.557364,119.47122 95.768032,71.573487 53.683754,24.307632 Z"
       id="path875-6-3"
       sodipodi:nodetypes="ccccccc" />
    <path
       style="display:inline;fill:#ffffff;fill-opacity:1;stroke-width:199.089;stroke-linecap:round;stroke-linejoin:round"
       d="m 195.92324,24.307632 38.67204,44.99102 -43.34808,49.919818 45.49654,0.25275 42.21066,-47.897733 -42.08428,-47.265855 z"
       id="path875-6-1"
       sodipodi:nodetypes="ccccccc" />
    <path
       style="display:inline;fill:#ffffff;fill-opacity:1;stroke-width:199.089;stroke-linecap:round;stroke-linejoin:round"
       d="m 292.70758,24.307632 38.67205,44.99102 -43.34809,49.919818 45.49653,0.25275 42.21067,-47.897733 -42.08427,-47.265855 z"
       id="path875-6-1-3"
       sodipodi:nodetypes="ccccccc" />
  </g>
  <g
     inkscape:groupmode="layer"
     id="layer6"
     inkscape:label="Layer 3"
     transform="translate(1.6031494e-7,-23.246619)"
     style="display:inline" />
</svg>
