<?xml version="1.0" encoding="UTF-8" standalone="no"?>
<svg
   version="1.2"
   width="200"
   height="98.293999"
   id="svg2"
   sodipodi:docname="ES_B2d.svg"
   inkscape:version="1.3.2 (091e20e, 2023-11-25, custom)"
   xmlns:inkscape="http://www.inkscape.org/namespaces/inkscape"
   xmlns:sodipodi="http://sodipodi.sourceforge.net/DTD/sodipodi-0.dtd"
   xmlns="http://www.w3.org/2000/svg"
   xmlns:svg="http://www.w3.org/2000/svg"
   xmlns:rdf="http://www.w3.org/1999/02/22-rdf-syntax-ns#"
   xmlns:cc="http://creativecommons.org/ns#"
   xmlns:dc="http://purl.org/dc/elements/1.1/">
  <sodipodi:namedview
     pagecolor="#ffffff"
     bordercolor="#666666"
     borderopacity="1"
     objecttolerance="10"
     gridtolerance="10"
     guidetolerance="10"
     inkscape:pageopacity="0"
     inkscape:pageshadow="2"
     inkscape:window-width="1920"
     inkscape:window-height="1017"
     id="namedview906"
     showgrid="false"
     inkscape:zoom="2"
     inkscape:cx="98.25"
     inkscape:cy="-37.25"
     inkscape:window-x="-8"
     inkscape:window-y="-8"
     inkscape:window-maximized="1"
     inkscape:current-layer="layer4"
     fit-margin-top="0"
     fit-margin-left="0"
     fit-margin-right="0"
     fit-margin-bottom="0"
     inkscape:showpageshadow="false"
     inkscape:pagecheckerboard="true"
     inkscape:deskcolor="#d1d1d1" />
  <metadata
     id="metadata3103">
    <rdf:RDF>
      <cc:Work
         rdf:about="">
        <dc:format>image/svg+xml</dc:format>
        <dc:type
           rdf:resource="http://purl.org/dc/dcmitype/StillImage" />
      </cc:Work>
    </rdf:RDF>
  </metadata>
  <defs
     id="defs3101" />
  <g
     inkscape:groupmode="layer"
     id="layer3"
     inkscape:label="Layer 1"
     style="display:inline"
     transform="translate(-1,-123.73403)">
    <g
       id="Capa_1"
       transform="matrix(3.9664444,0,0,3.9664444,1,31.52761)">
      <path
         d="m 0.099,24.984683 c 0,-0.905109 0.73344096,-1.639064 1.6385492,-1.639064 H 23.043315 c 0.905622,0 1.638549,0.733955 1.638549,1.639064 v 21.305254 c 0,0.905108 -0.732927,1.639063 -1.638549,1.639063 H 1.7375492 C 0.83244096,47.929 0.099,47.194531 0.099,46.289937 Z"
         id="path3089"
         style="fill:#ffffff;stroke-width:0.999998" />
      <path
         d="m 49.354442,46.294563 c 0,0.572567 -0.463605,1.036685 -1.035658,1.036685 H 1.7411471 c -0.5720531,0 -1.03617171,-0.463604 -1.03617171,-1.036685 V 24.979029 c 0,-0.571539 0.46411861,-1.035144 1.03617171,-1.035144 H 48.318784 c 0.571539,0 1.035658,0.463605 1.035658,1.035144 v 21.315534"
         id="path3093"
         style="fill:#19408b;stroke-width:0.999998"
         sodipodi:nodetypes="csssssssc" />
      <path
         d="m 0.099,24.984683 c 0,-0.905109 0.73344096,-1.639064 1.6385492,-1.639064 H 48.322382 c 0.905622,0 1.638549,0.733955 1.638549,1.639064 v 21.305254 c 0,0.905108 -0.732927,1.639063 -1.638549,1.639063 H 1.7375492 C 0.83244096,47.929 0.099,47.194531 0.099,46.289937 Z"
         id="path3091"
         style="display:inline;fill:none;stroke:#1c1d20;stroke-width:0.198;stroke-miterlimit:3.864"
         sodipodi:nodetypes="sssssssss" />
    </g>
  </g>
  <g
     inkscape:groupmode="layer"
     id="layer4"
     inkscape:label="Layer 2"
     transform="translate(-1,-123.73403)"
     style="display:inline">
    <path
       style="fill:#ffffff;fill-opacity:1;stroke-width:198.322;stroke-linecap:round;stroke-linejoin:round"
       d="m 104.13937,124.79097 38.5231,44.81769 -43.181122,49.72755 45.321292,0.25187 42.04808,-47.71323 -41.92218,-47.0838 z"
       id="path875-6"
       sodipodi:nodetypes="ccccccc" />
    <path
       style="display:inline;fill:#ffffff;fill-opacity:1;stroke-width:198.322;stroke-linecap:round;stroke-linejoin:round"
       d="M 13.687807,124.79097 52.210902,169.60866 9.0297814,219.33621 54.351072,219.588 96.399155,171.87477 54.476975,124.79097 Z"
       id="path875-6-3"
       sodipodi:nodetypes="ccccccc" />
  </g>
</svg>
