<?xml version="1.0" encoding="UTF-8" standalone="no"?>
<svg
   version="1.2"
   width="400"
   height="98.624001"
   id="svg2"
   sodipodi:docname="ES_B2a.svg"
   inkscape:version="1.3.2 (091e20e, 2023-11-25, custom)"
   xmlns:inkscape="http://www.inkscape.org/namespaces/inkscape"
   xmlns:sodipodi="http://sodipodi.sourceforge.net/DTD/sodipodi-0.dtd"
   xmlns="http://www.w3.org/2000/svg"
   xmlns:svg="http://www.w3.org/2000/svg"
   xmlns:rdf="http://www.w3.org/1999/02/22-rdf-syntax-ns#"
   xmlns:cc="http://creativecommons.org/ns#"
   xmlns:dc="http://purl.org/dc/elements/1.1/">
  <sodipodi:namedview
     pagecolor="#ffffff"
     bordercolor="#666666"
     borderopacity="1"
     objecttolerance="10"
     gridtolerance="10"
     guidetolerance="10"
     inkscape:pageopacity="0"
     inkscape:pageshadow="2"
     inkscape:window-width="1920"
     inkscape:window-height="1017"
     id="namedview906"
     showgrid="false"
     inkscape:zoom="2"
     inkscape:cx="237.25"
     inkscape:cy="-7.25"
     inkscape:window-x="-8"
     inkscape:window-y="-8"
     inkscape:window-maximized="1"
     inkscape:current-layer="Capa_1"
     fit-margin-top="0"
     fit-margin-left="0"
     fit-margin-right="0"
     fit-margin-bottom="0"
     inkscape:showpageshadow="false"
     inkscape:pagecheckerboard="true"
     inkscape:document-rotation="0"
     inkscape:deskcolor="#d1d1d1" />
  <metadata
     id="metadata3103">
    <rdf:RDF>
      <cc:Work
         rdf:about="">
        <dc:format>image/svg+xml</dc:format>
        <dc:type
           rdf:resource="http://purl.org/dc/dcmitype/StillImage" />
      </cc:Work>
    </rdf:RDF>
  </metadata>
  <defs
     id="defs3101" />
  <g
     inkscape:groupmode="layer"
     id="layer3"
     inkscape:label="Layer 1"
     style="display:inline"
     transform="translate(4.3650437e-8,-23.246619)">
    <g
       id="Capa_1">
      <path
         d="m 0.39399545,30.163683 c 0,-3.60211 2.91891315,-6.523069 6.52101955,-6.523069 H 391.76113 c 3.60415,0 6.52099,2.920959 6.52099,6.523069 v 84.789627 c 0,3.60211 -2.91684,6.52307 -6.52099,6.52307 H 6.915015 c -3.6021064,0 -6.52101955,-2.92301 -6.52101955,-6.52307 z"
         id="path3089"
         style="fill:#ffffff;stroke-width:3.97974"
         sodipodi:nodetypes="sssssssss" />
      <path
         d="m 0.39399545,30.163683 c 0,-3.60211 2.91891315,-6.523069 6.52101955,-6.523069 H 391.76112 c 3.60415,0 6.521,2.920959 6.521,6.523069 v 84.789627 c 0,3.60211 -2.91685,6.52307 -6.521,6.52307 H 6.915015 c -3.6021064,0 -6.52101955,-2.92301 -6.52101955,-6.52307 z"
         id="path3091"
         style="display:inline;fill:none;stroke:#1c1d20;stroke-width:0.787991;stroke-miterlimit:3.864"
         sodipodi:nodetypes="sssssssss" />
    </g>
  </g>
  <g
     inkscape:groupmode="layer"
     id="layer8"
     inkscape:label="Layer 3"
     style="display:inline">
    <path
       d="m 395.86846,91.725103 c 0,2.278674 -1.84502,4.125749 -4.12166,4.125749 H 6.9293338 c -2.2766295,0 -4.1237065,-1.845029 -4.1237065,-4.125749 V 6.8945623 c 0,-2.2745835 1.847077,-4.1196165 4.1237065,-4.1196165 H 391.7468 c 2.27457,0 4.12166,1.845033 4.12166,4.1196165 V 91.725103"
       id="path3093"
       style="display:inline;fill:#19408b;stroke-width:3.97974"
       sodipodi:nodetypes="csssssssc" />
  </g>
  <g
     inkscape:groupmode="layer"
     id="layer4"
     inkscape:label="Layer 2"
     transform="translate(4.3650437e-8,-23.246619)"
     style="display:inline">
    <path
       style="fill:#ffffff;fill-opacity:1;stroke-width:198.988;stroke-linecap:round;stroke-linejoin:round"
       d="m 181.80061,24.307092 -38.65234,44.96809 43.32599,49.894378 -45.47334,0.25263 -42.18916,-47.873332 42.06283,-47.241766 z"
       id="path875-6"
       sodipodi:nodetypes="ccccccc" />
    <path
       style="display:inline;fill:#ffffff;fill-opacity:1;stroke-width:198.988;stroke-linecap:round;stroke-linejoin:round"
       d="M 91.045572,24.307092 52.393229,69.275182 95.719226,119.16956 50.245878,119.42219 8.0567219,71.548858 50.119553,24.307092 Z"
       id="path875-6-3"
       sodipodi:nodetypes="ccccccc" />
    <path
       style="display:inline;fill:#ffffff;fill-opacity:1;stroke-width:198.988;stroke-linecap:round;stroke-linejoin:round"
       d="m 274.13858,24.307092 -38.65234,44.96809 43.326,49.894378 -45.47335,0.25263 -42.18916,-47.873332 42.06283,-47.241766 z"
       id="path875-6-1"
       sodipodi:nodetypes="ccccccc" />
    <path
       style="display:inline;fill:#ffffff;fill-opacity:1;stroke-width:198.988;stroke-linecap:round;stroke-linejoin:round"
       d="m 370.8736,24.307092 -38.65234,44.96809 43.326,49.894378 -45.47335,0.25263 -42.18916,-47.873332 42.06283,-47.241766 z"
       id="path875-6-1-3"
       sodipodi:nodetypes="ccccccc" />
  </g>
</svg>
