<?xml version="1.0" encoding="UTF-8" standalone="no"?>
<svg
   version="1.2"
   width="100"
   height="100"
   id="svg2"
   sodipodi:docname="ES_B1a.svg"
   inkscape:version="1.3.2 (091e20e, 2023-11-25, custom)"
   xmlns:inkscape="http://www.inkscape.org/namespaces/inkscape"
   xmlns:sodipodi="http://sodipodi.sourceforge.net/DTD/sodipodi-0.dtd"
   xmlns="http://www.w3.org/2000/svg"
   xmlns:svg="http://www.w3.org/2000/svg"
   xmlns:rdf="http://www.w3.org/1999/02/22-rdf-syntax-ns#"
   xmlns:cc="http://creativecommons.org/ns#"
   xmlns:dc="http://purl.org/dc/elements/1.1/">
  <sodipodi:namedview
     pagecolor="#ffffff"
     bordercolor="#666666"
     borderopacity="1"
     objecttolerance="10"
     gridtolerance="10"
     guidetolerance="10"
     inkscape:pageopacity="0"
     inkscape:pageshadow="2"
     inkscape:window-width="1920"
     inkscape:window-height="1017"
     id="namedview906"
     showgrid="false"
     inkscape:zoom="2"
     inkscape:cx="46.25"
     inkscape:cy="28.75"
     inkscape:window-x="-8"
     inkscape:window-y="-8"
     inkscape:window-maximized="1"
     inkscape:current-layer="layer1"
     inkscape:showpageshadow="2"
     inkscape:pagecheckerboard="0"
     inkscape:deskcolor="#d1d1d1"
     showguides="true" />
  <metadata
     id="metadata3103">
    <rdf:RDF>
      <cc:Work
         rdf:about="">
        <dc:format>image/svg+xml</dc:format>
        <dc:type
           rdf:resource="http://purl.org/dc/dcmitype/StillImage" />
      </cc:Work>
    </rdf:RDF>
  </metadata>
  <defs
     id="defs3101">
    <inkscape:path-effect
       effect="fillet_chamfer"
       id="path-effect1"
       is_visible="true"
       lpeversion="1"
       nodesatellites_param="F,0,0,1,0,0,0,1 @ F,0,0,1,0,0,0,1 @ F,0,0,1,0,0,0,1 @ F,0,0,1,0,0,0,1"
       radius="0"
       unit="px"
       method="auto"
       mode="F"
       chamfer_steps="1"
       flexible="false"
       use_knot_distance="true"
       apply_no_radius="true"
       apply_with_radius="true"
       only_selected="false"
       hide_knots="false" />
  </defs>
  <path
     d="m 0.20515899,6.8137668 c 0,-3.6493441 2.95719141,-6.60860781 6.60653541,-6.60860781 H 92.715306 c 3.651416,0 6.606535,2.95926371 6.606535,6.60860781 V 92.715306 c 0,3.649344 -2.955119,6.608607 -6.606535,6.608607 H 6.8116944 c -3.649344,0 -6.60653541,-2.961336 -6.60653541,-6.608607 z"
     id="path3089"
     style="fill:#ffffff;stroke-width:2.07231" />
  <path
     d="m 0.20515899,6.8137668 c 0,-3.6493441 2.95719141,-6.60860781 6.60653541,-6.60860781 H 92.715306 c 3.651416,0 6.606535,2.95926371 6.606535,6.60860781 V 92.715306 c 0,3.649344 -2.955119,6.608607 -6.606535,6.608607 H 6.8116944 c -3.649344,0 -6.60653541,-2.961336 -6.60653541,-6.608607 z"
     id="path3091"
     style="fill:none;stroke:#1c1d20;stroke-width:0.410318;stroke-miterlimit:3.864" />
  <path
     d="m 96.876511,92.733956 c 0,2.308558 -1.869227,4.179857 -4.175712,4.179857 H 6.8262006 c -2.3064849,0 -4.177784,-1.869227 -4.177784,-4.179857 V 6.7909713 c 0,-2.3044126 1.8712991,-4.1736394 4.177784,-4.1736394 H 92.700799 c 2.304413,0 4.175712,1.8692268 4.175712,4.1736394 V 92.733956"
     id="path3093"
     style="fill:#19408b;stroke-width:2.07231" />
  <g
     inkscape:groupmode="layer"
     id="layer3"
     inkscape:label="Layer 1"
     transform="translate(0.99999995,0.99999986)" />
  <g
     inkscape:groupmode="layer"
     id="layer4"
     inkscape:label="Layer 2"
     transform="translate(0.99999995,0.99999986)" />
  <g
     inkscape:groupmode="layer"
     id="layer1"
     inkscape:label="Layer 3"
     transform="translate(0.99999995,0.99999986)">
    <path
       id="rect1"
       d="M 10.552457,2.1244302 H 54.383668 L 95.807294,48.065346 53.254966,95.404631 5.2851867,95.587177 49.780948,45.565346 Z"
       style="fill:#ffffff;stroke-width:2.26336"
       sodipodi:nodetypes="ccccccc" />
  </g>
</svg>
