<?xml version="1.0" encoding="UTF-8" standalone="no"?>
<svg
   version="1.2"
   width="400"
   height="286.58499"
   id="svg2"
   sodipodi:docname="ES_CAT_OR42c.svg"
   inkscape:version="1.3.2 (091e20e, 2023-11-25, custom)"
   xmlns:inkscape="http://www.inkscape.org/namespaces/inkscape"
   xmlns:sodipodi="http://sodipodi.sourceforge.net/DTD/sodipodi-0.dtd"
   xmlns="http://www.w3.org/2000/svg"
   xmlns:svg="http://www.w3.org/2000/svg"
   xmlns:rdf="http://www.w3.org/1999/02/22-rdf-syntax-ns#"
   xmlns:cc="http://creativecommons.org/ns#"
   xmlns:dc="http://purl.org/dc/elements/1.1/">
  <sodipodi:namedview
     pagecolor="#ffffff"
     bordercolor="#666666"
     borderopacity="1"
     objecttolerance="10"
     gridtolerance="10"
     guidetolerance="10"
     inkscape:pageopacity="0"
     inkscape:pageshadow="2"
     inkscape:window-width="1920"
     inkscape:window-height="1017"
     id="namedview6659"
     showgrid="false"
     inkscape:zoom="2"
     inkscape:cx="189.25"
     inkscape:cy="121.75"
     inkscape:window-x="-8"
     inkscape:window-y="-8"
     inkscape:window-maximized="1"
     inkscape:current-layer="layer11"
     fit-margin-top="0"
     fit-margin-left="0"
     fit-margin-right="0"
     fit-margin-bottom="0"
     inkscape:document-rotation="0"
     inkscape:showpageshadow="false"
     inkscape:pagecheckerboard="true"
     inkscape:deskcolor="#d1d1d1" />
  <metadata
     id="metadata4010">
    <rdf:RDF>
      <cc:Work
         rdf:about="">
        <dc:format>image/svg+xml</dc:format>
        <dc:type
           rdf:resource="http://purl.org/dc/dcmitype/StillImage" />
      </cc:Work>
    </rdf:RDF>
  </metadata>
  <defs
     id="defs4008" />
  <g
     inkscape:groupmode="layer"
     id="layer11"
     inkscape:label="Layer 1"
     style="display:inline"
     transform="translate(-4.654911,17.18005)">
    <path
       d="m 403.99015,251.54875 c 0.46192,5.14103 -0.0842,10.36087 -2.72821,14.34199 -0.43936,0.2729 -0.45702,0.69466 -2.7072,1.49884 l -5.11135,1.82672 c 9.17506,0.30923 -150.58886,-0.17335 -268.28664,0.0835 -29.410085,0.0642 -58.650784,-0.18823 -81.364529,0.054 -6.678204,0.0713 -12.63852,0.0619 -18.15954,0.0109 -3.879524,-0.0354 -7.756923,0.0376 -10.585896,-0.4529 -9.7675718,-1.69344 -9.2564473,-7.4083 -9.2721592,-12.06175 L 5.0683354,47.667283 C 4.9869171,23.553548 0.10011198,26.601479 26.183516,26.601479 H 383.14349 c 13.76292,0 18.07028,-0.69858 19.60424,1.941766 1.37358,2.364322 1.19361,7.270442 1.23813,18.662388 0.20292,51.91971 -0.20407,104.291637 -0.0561,156.235157 0.0732,25.6765 0.01,-26.30853 -0.0213,-0.76365 -0.0153,12.81491 0.4436,35.99658 0.0817,48.87161 z"
       id="path3217"
       style="fill:#ffffff;fill-opacity:1;stroke-width:1.35767"
       sodipodi:nodetypes="ccscsssssssssssscc" />
    <path
       d="m 393.09404,246.58509 c 0,14.61002 1.57963,12.13035 -13.03196,12.07496 L 22.331926,257.30392 C 7.7203508,257.24853 11.220384,257.92241 11.220384,243.31111 V 134.35812 c 0,-14.61513 -0.623241,-12.1335 13.988321,-12.07751 l 353.894455,1.35613 c 14.61159,0.0559 13.99088,1.29682 13.99088,15.91323 z"
       id="path3243"
       style="fill:none;stroke:#000000;stroke-width:5.4307;stroke-miterlimit:3.864;stroke-opacity:1"
       sodipodi:nodetypes="sssssssss" />
    <path
       d="m 202.82364,216.41266 -0.24221,12.49912 17.08005,-3.50555 -21.5857,20.77267 -20.7682,-21.57603 16.93903,4.15082 0.0673,-20.98892 8.33486,0.15809"
       id="polyline3245"
       style="fill:#000000;fill-opacity:1;stroke-width:1.35767"
       sodipodi:nodetypes="cccccccc" />
    <text
       xml:space="preserve"
       style="font-size:38.6689px;line-height:22.6576px;font-family:'Andale Mono IPA';-inkscape-font-specification:'Andale Mono IPA';letter-spacing:0px;word-spacing:0px;fill:#ffffff;fill-opacity:1;stroke:none;stroke-width:0.999997px;stroke-linecap:butt;stroke-linejoin:miter;stroke-opacity:1"
       x="307.61365"
       y="178.6953"
       id="text4113"
       transform="scale(1.067666,0.9366225)"><tspan
         sodipodi:role="line"
         id="tspan4111"
         x="307.61365"
         y="178.6953"
         style="font-style:normal;font-variant:normal;font-weight:normal;font-stretch:normal;font-size:38.6689px;font-family:'Highway Gothic Wide';-inkscape-font-specification:'Highway Gothic Wide';fill:#ffffff;fill-opacity:1;stroke:none;stroke-width:0.999997px" /></text>
    <path
       d="M 14.432658,98.761432 V 46.325479 c 0,-11.025399 -1.820399,-8.300672 7.450475,-8.271437 L 381.3073,39.187477 c 9.38664,0.0296 8.88259,-2.752896 8.88259,8.271444 v 49.559161 c 0,11.025388 2.18218,11.651788 -7.20446,11.622338 L 21.643395,107.50698 c -9.270874,-0.029 -7.210737,2.27984 -7.210737,-8.745548 H 9.5710662 14.432658 m -4.8615918,0 c 0,14.190448 0.1346814,14.501438 12.0723288,14.538888 l 361.342035,1.13344 c 11.93765,0.0375 12.07143,-3.22417 12.07143,-17.415678 V 47.458921 c 0,-14.202193 -1.81281,-14.02714 -13.74956,-14.064781 L 21.883133,32.260703 C 9.9454859,32.223059 9.5710662,32.123293 9.5710662,46.325479 Z"
       id="path5608"
       style="fill:#000000;fill-opacity:1;stroke-width:1.35767"
       sodipodi:nodetypes="cssssssscccsssssssss" />
    <g
       id="g5651"
       transform="matrix(0.72295194,0,0,0.72295341,-7.5395824,3.5747729)"
       style="fill:#000000;stroke-width:1.87796">
      <path
         d="M 53.950398,130.92797 H 81.72097 l 2.616542,-67.631163 h -8.05066 L 53.950398,130.92797"
         id="polyline5612"
         style="fill:#000000;stroke-width:1.87796" />
      <path
         d="m 91.185094,130.92797 h 27.561746 l -10.05787,-31.800578 20.323,-22.947344 6.64656,16.099763 V 63.296807 h -28.98301 l 16.30859,6.646548 -19.7277,12.280143 -6.035656,-18.926691 h -8.05066 l 2.015,67.631163"
         id="polyline5614"
         style="fill:#000000;stroke-width:1.87796" />
    </g>
    <text
       xml:space="preserve"
       style="font-size:38.257px;line-height:22.4163px;font-family:'Highway Gothic Wide';-inkscape-font-specification:'Highway Gothic Wide';letter-spacing:0px;word-spacing:0px;display:inline;fill:#000000;stroke:#000000;stroke-width:1.35767px;stroke-linecap:butt;stroke-linejoin:miter;stroke-opacity:1"
       x="330.45569"
       y="86.787292"
       id="text5284-6"
       transform="scale(0.99551619,1.004504)"><tspan
         sodipodi:role="line"
         id="tspan5282-9"
         x="330.45569"
         y="86.787292"
         style="font-style:normal;font-variant:normal;font-weight:normal;font-stretch:normal;font-family:TrafficTypeW01-SpainD;-inkscape-font-specification:TrafficTypeW01-SpainD;fill:#000000;fill-opacity:1;stroke:none;stroke-width:1.35767px">63</tspan></text>
    <text
       xml:space="preserve"
       style="font-size:41.5453px;line-height:24.3428px;font-family:Haettenschweiler;-inkscape-font-specification:Haettenschweiler;letter-spacing:0px;word-spacing:0px;fill:none;stroke:#000000;stroke-width:1.35767px;stroke-linecap:butt;stroke-linejoin:miter;stroke-opacity:1"
       x="36.132759"
       y="176.59575"
       id="text5780"
       transform="scale(1.0059643,0.99407107)"><tspan
         sodipodi:role="line"
         id="tspan5778"
         x="36.132759"
         y="176.59575"
         style="font-style:normal;font-variant:normal;font-weight:normal;font-stretch:normal;font-family:TrafficTypeW01-SpainD;-inkscape-font-specification:TrafficTypeW01-SpainD;fill:#000000;fill-opacity:1;stroke:none;stroke-width:1.35767px">DESTINACIONS</tspan></text>
    <rect
       style="display:inline;fill:#ff2121;fill-opacity:1;stroke:#ffffff;stroke-width:2.71534;stroke-linecap:round;stroke-linejoin:round;stroke-miterlimit:2.613;stroke-dasharray:none;stroke-opacity:1"
       id="rect5280"
       width="98.160728"
       height="38.438549"
       x="164.65656"
       y="-15.82238" />
    <text
       xml:space="preserve"
       style="font-size:38.257px;line-height:22.4163px;font-family:'Highway Gothic Wide';-inkscape-font-specification:'Highway Gothic Wide';letter-spacing:0px;word-spacing:0px;display:inline;fill:none;stroke:#000000;stroke-width:1.35767px;stroke-linecap:butt;stroke-linejoin:miter;stroke-opacity:1"
       x="173.34143"
       y="15.713304"
       id="text5284"
       transform="scale(0.99551619,1.004504)"><tspan
         sodipodi:role="line"
         id="tspan5282"
         x="173.34143"
         y="15.713304"
         style="font-style:normal;font-variant:normal;font-weight:normal;font-stretch:normal;font-family:TrafficTypeW01-SpainD;-inkscape-font-specification:TrafficTypeW01-SpainD;fill:#ffffff;fill-opacity:1;stroke:none;stroke-width:1.35767px">C-15</tspan></text>
  </g>
</svg>
