<?xml version="1.0" encoding="UTF-8" standalone="no"?>
<svg
   version="1.2"
   width="400"
   height="286.052"
   id="svg2"
   sodipodi:docname="ES_CAT_OR42a.svg"
   inkscape:version="1.3.2 (091e20e, 2023-11-25, custom)"
   xmlns:inkscape="http://www.inkscape.org/namespaces/inkscape"
   xmlns:sodipodi="http://sodipodi.sourceforge.net/DTD/sodipodi-0.dtd"
   xmlns="http://www.w3.org/2000/svg"
   xmlns:svg="http://www.w3.org/2000/svg"
   xmlns:rdf="http://www.w3.org/1999/02/22-rdf-syntax-ns#"
   xmlns:cc="http://creativecommons.org/ns#"
   xmlns:dc="http://purl.org/dc/elements/1.1/">
  <sodipodi:namedview
     pagecolor="#ffffff"
     bordercolor="#666666"
     borderopacity="1"
     objecttolerance="10"
     gridtolerance="10"
     guidetolerance="10"
     inkscape:pageopacity="0"
     inkscape:pageshadow="2"
     inkscape:window-width="1920"
     inkscape:window-height="1017"
     id="namedview6659"
     showgrid="false"
     inkscape:zoom="2"
     inkscape:cx="189.25"
     inkscape:cy="162.25"
     inkscape:window-x="-8"
     inkscape:window-y="-8"
     inkscape:window-maximized="1"
     inkscape:current-layer="layer11"
     fit-margin-top="0"
     fit-margin-left="0"
     fit-margin-right="0"
     fit-margin-bottom="0"
     inkscape:document-rotation="0"
     inkscape:showpageshadow="false"
     inkscape:pagecheckerboard="true"
     inkscape:deskcolor="#d1d1d1" />
  <metadata
     id="metadata4010">
    <rdf:RDF>
      <cc:Work
         rdf:about="">
        <dc:format>image/svg+xml</dc:format>
        <dc:type
           rdf:resource="http://purl.org/dc/dcmitype/StillImage" />
      </cc:Work>
    </rdf:RDF>
  </metadata>
  <defs
     id="defs4008" />
  <g
     inkscape:groupmode="layer"
     id="layer11"
     inkscape:label="Layer 1"
     style="display:inline"
     transform="translate(-4.654911,17.647353)">
    <path
       d="m 403.24788,250.58194 c 0.46106,5.13147 -0.084,10.34161 -2.72314,14.31534 -0.43854,0.27238 -0.45617,0.69336 -2.70217,1.49604 l -5.10185,1.82333 c 9.15801,0.30865 -150.30895,-0.17302 -267.78795,0.0833 -29.355424,0.0641 -58.541771,-0.18787 -81.213297,0.0539 -6.66579,0.0711 -12.615027,0.0618 -18.125785,0.0108 -3.872313,-0.0354 -7.742504,0.0375 -10.566219,-0.45205 -9.7494162,-1.6903 -9.2392418,-7.39454 -9.2549245,-12.03933 L 5.0675669,47.079443 C 4.9863,23.01053 0.10857831,26.052795 26.143499,26.052795 H 382.43997 c 13.73733,0 18.03669,-0.697281 19.56779,1.938158 1.37104,2.359926 1.1914,7.256927 1.23583,18.627698 0.20255,51.823204 -0.20369,104.097779 -0.056,155.944759 0.073,25.62876 0.009,-26.25964 -0.0213,-0.76224 -0.0153,12.79109 0.44277,35.92967 0.0816,48.78077 z"
       id="path3217"
       style="fill:#ffffff;fill-opacity:1;stroke-width:1.35515"
       sodipodi:nodetypes="ccscsssssssssssscc" />
    <path
       d="m 392.37202,245.6275 c 0,14.58287 1.5767,12.10781 -13.00773,12.05252 L 22.299069,256.32641 C 7.7146529,256.27112 11.20818,256.94375 11.20818,242.35961 V 133.60914 c 0,-14.58796 -0.622082,-12.11095 13.96232,-12.05506 l 353.23664,1.35361 c 14.58443,0.0558 13.96488,1.29441 13.96488,15.88365 z"
       id="path3243"
       style="fill:none;stroke:#000000;stroke-width:5.42061;stroke-miterlimit:3.864;stroke-opacity:1"
       sodipodi:nodetypes="sssssssss" />
    <path
       d="m 193.73417,215.53561 8.65083,8.99273 9.58079,-14.52915 -0.57384,29.89621 -29.88624,-0.57017 14.88506,-9.02581 -14.76629,-14.86134 5.99427,-5.77112"
       id="polyline3245"
       style="fill:#000000;fill-opacity:1;stroke-width:1.35515"
       sodipodi:nodetypes="cccccccc" />
    <text
       xml:space="preserve"
       style="font-size:38.6689px;line-height:22.6576px;font-family:'Andale Mono IPA';-inkscape-font-specification:'Andale Mono IPA';letter-spacing:0px;word-spacing:0px;fill:#ffffff;fill-opacity:1;stroke:none;stroke-width:0.999997px;stroke-linecap:butt;stroke-linejoin:miter;stroke-opacity:1"
       x="307.61365"
       y="178.6953"
       id="text4113"
       transform="scale(1.067666,0.9366225)"><tspan
         sodipodi:role="line"
         id="tspan4111"
         x="307.61365"
         y="178.6953"
         style="font-style:normal;font-variant:normal;font-weight:normal;font-stretch:normal;font-size:38.6689px;font-family:'Highway Gothic Wide';-inkscape-font-specification:'Highway Gothic Wide';fill:#ffffff;fill-opacity:1;stroke:none;stroke-width:0.999997px" /></text>
    <path
       d="M 14.414483,98.07862 V 45.740133 c 0,-11.004905 -1.817015,-8.285243 7.436627,-8.256062 l 358.75608,1.131328 c 9.3692,0.02954 8.86608,-2.747779 8.86608,8.256069 V 96.33851 c 0,11.00489 2.17812,11.63013 -7.19107,11.60074 L 21.611817,106.80791 c -9.253641,-0.029 -7.197334,2.2756 -7.197334,-8.72929 H 9.5619282 14.414483 m -4.8525548,0 c 0,14.16407 0.1344311,14.47449 12.0498888,14.51186 l 360.670383,1.13134 c 11.91546,0.0374 12.04899,-3.21818 12.04899,-17.38331 V 46.871468 c 0,-14.175794 -1.80944,-14.001066 -13.724,-14.038638 L 21.85111,31.701501 C 9.935652,31.663926 9.5619282,31.564346 9.5619282,45.740133 Z"
       id="path5608"
       style="fill:#000000;fill-opacity:1;stroke-width:1.35515"
       sodipodi:nodetypes="cssssssscccsssssssss" />
    <g
       id="g5651"
       transform="matrix(0.72160814,0,0,0.7216096,-7.5169156,3.0688908)"
       style="fill:#000000;stroke-width:1.87796">
      <path
         d="M 53.950398,130.92797 H 81.72097 l 2.616542,-67.631163 h -8.05066 L 53.950398,130.92797"
         id="polyline5612"
         style="fill:#000000;stroke-width:1.87796" />
      <path
         d="m 91.185094,130.92797 h 27.561746 l -10.05787,-31.800578 20.323,-22.947344 6.64656,16.099763 V 63.296807 h -28.98301 l 16.30859,6.646548 -19.7277,12.280143 -6.035656,-18.926691 h -8.05066 l 2.015,67.631163"
         id="polyline5614"
         style="fill:#000000;stroke-width:1.87796" />
    </g>
    <text
       xml:space="preserve"
       style="font-size:38.1859px;line-height:22.3746px;font-family:'Highway Gothic Wide';-inkscape-font-specification:'Highway Gothic Wide';letter-spacing:0px;word-spacing:0px;display:inline;fill:#000000;stroke:#000000;stroke-width:1.35515px;stroke-linecap:butt;stroke-linejoin:miter;stroke-opacity:1"
       x="98.436714"
       y="86.128983"
       id="text5284-6"
       transform="scale(0.99551619,1.004504)"><tspan
         sodipodi:role="line"
         id="tspan5282-9"
         x="98.436714"
         y="86.128983"
         style="font-style:normal;font-variant:normal;font-weight:normal;font-stretch:normal;font-family:TrafficTypeW01-SpainD;-inkscape-font-specification:TrafficTypeW01-SpainD;fill:#000000;fill-opacity:1;stroke:none;stroke-width:1.35515px">63</tspan></text>
    <text
       xml:space="preserve"
       style="font-size:44.3539px;line-height:25.9886px;font-family:Haettenschweiler;-inkscape-font-specification:Haettenschweiler;letter-spacing:0px;word-spacing:0px;fill:none;stroke:#000000;stroke-width:1.35515px;stroke-linecap:butt;stroke-linejoin:miter;stroke-opacity:1"
       x="27.7554"
       y="177.51703"
       id="text5780"
       transform="scale(1.0045891,0.99543187)"><tspan
         sodipodi:role="line"
         id="tspan5778"
         x="27.7554"
         y="177.51703"
         style="font-style:normal;font-variant:normal;font-weight:normal;font-stretch:normal;font-family:TrafficTypeW01-SpainD;-inkscape-font-specification:TrafficTypeW01-SpainD;fill:#000000;fill-opacity:1;stroke:none;stroke-width:1.35515px">DESTINACIONS</tspan></text>
    <rect
       style="display:inline;fill:#ff2121;fill-opacity:1;stroke:#ffffff;stroke-width:2.71029;stroke-linecap:round;stroke-linejoin:round;stroke-miterlimit:2.613;stroke-dasharray:none;stroke-opacity:1"
       id="rect5280"
       width="97.978271"
       height="38.367104"
       x="164.35915"
       y="-16.292208" />
    <text
       xml:space="preserve"
       style="font-size:38.1859px;line-height:22.3746px;font-family:'Highway Gothic Wide';-inkscape-font-specification:'Highway Gothic Wide';letter-spacing:0px;word-spacing:0px;display:inline;fill:none;stroke:#000000;stroke-width:1.35515px;stroke-linecap:butt;stroke-linejoin:miter;stroke-opacity:1"
       x="173.02791"
       y="15.18709"
       id="text5284"
       transform="scale(0.99551619,1.004504)"><tspan
         sodipodi:role="line"
         id="tspan5282"
         x="173.02791"
         y="15.18709"
         style="font-style:normal;font-variant:normal;font-weight:normal;font-stretch:normal;font-family:TrafficTypeW01-SpainD;-inkscape-font-specification:TrafficTypeW01-SpainD;fill:#ffffff;fill-opacity:1;stroke:none;stroke-width:1.35515px">C-15</tspan></text>
    <text
       xml:space="preserve"
       style="font-size:38.1859px;line-height:22.3746px;font-family:'Highway Gothic Wide';-inkscape-font-specification:'Highway Gothic Wide';letter-spacing:0px;word-spacing:0px;display:inline;fill:#000000;stroke:#000000;stroke-width:1.35515px;stroke-linecap:butt;stroke-linejoin:miter;stroke-opacity:1"
       x="272.52396"
       y="86.903908"
       id="text5284-6-5"
       transform="scale(0.99551619,1.004504)"><tspan
         sodipodi:role="line"
         id="tspan5282-9-2"
         x="272.52396"
         y="86.903908"
         style="font-style:normal;font-variant:normal;font-weight:normal;font-stretch:normal;font-family:'Caracteres L4';-inkscape-font-specification:'Caracteres L4';fill:#000000;fill-opacity:1;stroke:none;stroke-width:1.35515px">200 m</tspan></text>
  </g>
</svg>
