<?xml version="1.0" encoding="UTF-8" standalone="no"?>
<svg
   version="1.2"
   width="400"
   height="227.08501"
   id="svg2"
   sodipodi:docname="ES_CAT_OR44c.svg"
   inkscape:version="1.3.2 (091e20e, 2023-11-25, custom)"
   xmlns:inkscape="http://www.inkscape.org/namespaces/inkscape"
   xmlns:sodipodi="http://sodipodi.sourceforge.net/DTD/sodipodi-0.dtd"
   xmlns="http://www.w3.org/2000/svg"
   xmlns:svg="http://www.w3.org/2000/svg"
   xmlns:rdf="http://www.w3.org/1999/02/22-rdf-syntax-ns#"
   xmlns:cc="http://creativecommons.org/ns#"
   xmlns:dc="http://purl.org/dc/elements/1.1/">
  <sodipodi:namedview
     pagecolor="#ffffff"
     bordercolor="#666666"
     borderopacity="1"
     objecttolerance="10"
     gridtolerance="10"
     guidetolerance="10"
     inkscape:pageopacity="0"
     inkscape:pageshadow="2"
     inkscape:window-width="1920"
     inkscape:window-height="1017"
     id="namedview6659"
     showgrid="false"
     inkscape:zoom="2"
     inkscape:cx="188.25"
     inkscape:cy="113.25"
     inkscape:window-x="-8"
     inkscape:window-y="-8"
     inkscape:window-maximized="1"
     inkscape:current-layer="layer11"
     fit-margin-top="0"
     fit-margin-left="0"
     fit-margin-right="0"
     fit-margin-bottom="0"
     inkscape:document-rotation="0"
     inkscape:showpageshadow="false"
     inkscape:pagecheckerboard="true"
     inkscape:deskcolor="#d1d1d1" />
  <metadata
     id="metadata4010">
    <rdf:RDF>
      <cc:Work
         rdf:about="">
        <dc:format>image/svg+xml</dc:format>
        <dc:type
           rdf:resource="http://purl.org/dc/dcmitype/StillImage" />
      </cc:Work>
    </rdf:RDF>
  </metadata>
  <defs
     id="defs4008" />
  <g
     inkscape:groupmode="layer"
     id="layer11"
     inkscape:label="Layer 1"
     style="display:inline"
     transform="translate(-5.6451487,-83.81995)">
    <path
       d="m 403.03365,292.92241 c 0.46519,5.1774 -0.0848,10.43417 -2.74751,14.44347 -0.44247,0.27482 -0.46026,0.69957 -2.72636,1.50944 l -5.14752,1.83965 c 9.23998,0.31141 -146.86882,-0.17458 -265.39934,0.0841 -29.618172,0.0647 -59.065756,-0.18956 -81.940207,0.0544 -6.725454,0.0718 -12.727941,0.0623 -18.288023,0.0109 -3.906973,-0.0357 -7.811805,0.0379 -10.660795,-0.4561 -9.8366792,-1.70542 -9.3160086,-7.46073 -9.3377615,-12.14709 L 6.074846,145.02425 C 5.9621247,120.74002 1.0714711,123.8094 27.339422,123.8094 H 382.03949 c 13.8603,0 18.19814,-0.70352 19.74295,1.9555 1.3833,2.38105 1.20205,7.32189 1.24689,18.79443 0.20435,52.28706 -0.20552,52.3892 -0.0565,104.70023 0.0737,25.85817 0.01,-26.49467 -0.0215,-0.76905 -0.0154,12.90558 0.44673,31.46578 0.0823,44.4319 z"
       id="path3217"
       style="fill:#ffffff;fill-opacity:1;stroke-width:1.36728"
       sodipodi:nodetypes="ccscsssssssssssscc" />
    <path
       d="m 396.84593,292.70911 c 0,14.7134 1.59081,12.21618 -13.12416,12.1604 L 23.460581,303.50379 C 8.7456251,303.448 12.270422,304.12665 12.270422,289.41197 V 144.82244 c 0,-14.71854 -0.627651,-12.21935 14.087292,-12.16297 l 356.398346,1.36573 c 14.71497,0.0563 14.08987,1.306 14.08987,16.02582 z"
       id="path3243"
       style="fill:none;stroke:#000000;stroke-width:5.46913;stroke-miterlimit:3.864;stroke-opacity:1"
       sodipodi:nodetypes="sssssssss" />
    <path
       d="m 205.22932,262.32321 -0.24392,12.58755 17.20089,-3.53035 -21.73842,20.91964 -20.91514,-21.72869 17.05887,4.18019 0.0678,-21.13741 8.39384,0.1592"
       id="polyline3245"
       style="fill:#000000;fill-opacity:1;stroke-width:1.36728"
       sodipodi:nodetypes="cccccccc" />
    <text
       xml:space="preserve"
       style="font-size:38.6689px;line-height:22.6576px;font-family:'Andale Mono IPA';-inkscape-font-specification:'Andale Mono IPA';letter-spacing:0px;word-spacing:0px;fill:#ffffff;fill-opacity:1;stroke:none;stroke-width:0.999997px;stroke-linecap:butt;stroke-linejoin:miter;stroke-opacity:1"
       x="307.61365"
       y="178.6953"
       id="text4113"
       transform="scale(1.067666,0.9366225)"><tspan
         sodipodi:role="line"
         id="tspan4111"
         x="307.61365"
         y="178.6953"
         style="font-style:normal;font-variant:normal;font-weight:normal;font-stretch:normal;font-size:38.6689px;font-family:'Highway Gothic Wide';-inkscape-font-specification:'Highway Gothic Wide';fill:#ffffff;fill-opacity:1;stroke:none;stroke-width:0.999997px" /></text>
    <text
       xml:space="preserve"
       style="font-size:41.8392px;line-height:24.5151px;font-family:Haettenschweiler;-inkscape-font-specification:Haettenschweiler;letter-spacing:0px;word-spacing:0px;fill:none;stroke:#000000;stroke-width:1.36728px;stroke-linecap:butt;stroke-linejoin:miter;stroke-opacity:1"
       x="37.353302"
       y="189.47879"
       id="text5780"
       transform="scale(1.0059643,0.99407107)"><tspan
         sodipodi:role="line"
         id="tspan5778"
         x="37.353302"
         y="189.47879"
         style="font-style:normal;font-variant:normal;font-weight:normal;font-stretch:normal;font-family:TrafficTypeW01-SpainD;-inkscape-font-specification:TrafficTypeW01-SpainD;fill:#000000;fill-opacity:1;stroke:none;stroke-width:1.36728px">DESTINACIONS</tspan></text>
    <rect
       style="display:inline;fill:#ff2121;fill-opacity:1;stroke:#ffffff;stroke-width:2.73455;stroke-linecap:round;stroke-linejoin:round;stroke-miterlimit:2.613;stroke-dasharray:none;stroke-opacity:1"
       id="rect5280"
       width="98.85524"
       height="38.710514"
       x="166.79219"
       y="85.187225" />
    <text
       xml:space="preserve"
       style="font-size:38.5277px;line-height:22.5749px;font-family:'Highway Gothic Wide';-inkscape-font-specification:'Highway Gothic Wide';letter-spacing:0px;word-spacing:0px;display:inline;fill:none;stroke:#000000;stroke-width:1.36728px;stroke-linecap:butt;stroke-linejoin:miter;stroke-opacity:1"
       x="175.54288"
       y="116.49262"
       id="text5284"
       transform="scale(0.99551619,1.004504)"><tspan
         sodipodi:role="line"
         id="tspan5282"
         x="175.54288"
         y="116.49262"
         style="font-style:normal;font-variant:normal;font-weight:normal;font-stretch:normal;font-family:TrafficTypeW01-SpainD;-inkscape-font-specification:TrafficTypeW01-SpainD;fill:#ffffff;fill-opacity:1;stroke:none;stroke-width:1.36728px">C-15</tspan></text>
  </g>
</svg>
