<?xml version="1.0" encoding="UTF-8" standalone="no"?>
<svg
   version="1.2"
   width="400"
   height="248.08501"
   id="svg2"
   sodipodi:docname="ES_CAT_OR43a.svg"
   inkscape:version="1.3.2 (091e20e, 2023-11-25, custom)"
   xmlns:inkscape="http://www.inkscape.org/namespaces/inkscape"
   xmlns:sodipodi="http://sodipodi.sourceforge.net/DTD/sodipodi-0.dtd"
   xmlns="http://www.w3.org/2000/svg"
   xmlns:svg="http://www.w3.org/2000/svg"
   xmlns:rdf="http://www.w3.org/1999/02/22-rdf-syntax-ns#"
   xmlns:cc="http://creativecommons.org/ns#"
   xmlns:dc="http://purl.org/dc/elements/1.1/">
  <sodipodi:namedview
     pagecolor="#ffffff"
     bordercolor="#666666"
     borderopacity="1"
     objecttolerance="10"
     gridtolerance="10"
     guidetolerance="10"
     inkscape:pageopacity="0"
     inkscape:pageshadow="2"
     inkscape:window-width="1920"
     inkscape:window-height="1017"
     id="namedview6659"
     showgrid="false"
     inkscape:zoom="1"
     inkscape:cx="278.5"
     inkscape:cy="-14.5"
     inkscape:window-x="-8"
     inkscape:window-y="-8"
     inkscape:window-maximized="1"
     inkscape:current-layer="layer11"
     fit-margin-top="0"
     fit-margin-left="0"
     fit-margin-right="0"
     fit-margin-bottom="0"
     inkscape:document-rotation="0"
     inkscape:showpageshadow="false"
     inkscape:pagecheckerboard="true"
     inkscape:deskcolor="#d1d1d1" />
  <metadata
     id="metadata4010">
    <rdf:RDF>
      <cc:Work
         rdf:about="">
        <dc:format>image/svg+xml</dc:format>
        <dc:type
           rdf:resource="http://purl.org/dc/dcmitype/StillImage" />
      </cc:Work>
    </rdf:RDF>
  </metadata>
  <defs
     id="defs4008" />
  <g
     inkscape:groupmode="layer"
     id="layer11"
     inkscape:label="Layer 1"
     style="display:inline"
     transform="translate(-5.649623,3.1800503)">
    <path
       d="m 402.04762,227.18041 c 0.45852,5.10312 -0.0836,10.28447 -2.70809,14.23625 -0.43612,0.27088 -0.45365,0.68953 -2.68725,1.48778 l -5.07366,1.81325 c 9.10741,0.30695 -149.47854,-0.17207 -266.30851,0.0829 -29.193242,0.0637 -58.218344,-0.18685 -80.764617,0.0536 -6.628964,0.0708 -12.545334,0.0615 -18.025646,0.0108 -3.85092,-0.0352 -7.69973,0.0373 -10.507845,-0.44955 -9.6955534,-1.68096 -9.1850313,-7.3537 -9.2037936,-11.97282 L 6.0671256,59.841488 C 5.9699013,35.905609 1.1355337,38.931005 27.02662,38.931005 h 354.32805 c 13.66144,0 17.93704,-0.693429 19.45969,1.92745 1.36346,2.346888 1.18481,7.216835 1.229,18.524786 0.20142,51.536899 -0.20257,68.483379 -0.0557,120.043919 0.0726,25.48718 0.009,-26.11456 -0.0212,-0.75802 -0.0152,12.72042 0.44032,35.73117 0.0811,48.51127 z"
       id="path3217"
       style="fill:#000080;stroke-width:1.34766"
       sodipodi:nodetypes="ccscsssssssssssscc" />
    <path
       d="m 391.23185,222.25334 c 0,14.50231 1.56799,12.04092 -12.93587,11.98593 L 23.203429,232.89315 C 8.6995873,232.83816 12.173814,233.50707 12.173814,219.0035 V 59.642572 c 0,-14.507376 -0.618646,-12.044041 13.885183,-11.988462 l 351.285123,1.346131 c 14.50386,0.05558 13.88773,1.287258 13.88773,15.795897 z"
       id="path3243"
       style="fill:none;stroke:#ffffff;stroke-width:5.39066;stroke-miterlimit:3.864"
       sodipodi:nodetypes="sssssssss" />
    <path
       d="m 202.57286,151.02854 15.87517,16.50262 17.58173,-26.66253 -1.05302,54.86269 -54.84439,-1.04631 27.31562,-16.56332 -27.0977,-27.27213 11.0001,-10.59058"
       id="polyline3245"
       style="fill:#ffffff;stroke-width:1.34766"
       sodipodi:nodetypes="cccccccc" />
    <text
       xml:space="preserve"
       style="font-size:38.6689px;line-height:22.6576px;font-family:'Andale Mono IPA';-inkscape-font-specification:'Andale Mono IPA';letter-spacing:0px;word-spacing:0px;fill:#ffffff;fill-opacity:1;stroke:none;stroke-width:0.999997px;stroke-linecap:butt;stroke-linejoin:miter;stroke-opacity:1"
       x="307.61365"
       y="178.6953"
       id="text4113"
       transform="scale(1.067666,0.9366225)"><tspan
         sodipodi:role="line"
         id="tspan4111"
         x="307.61365"
         y="178.6953"
         style="font-style:normal;font-variant:normal;font-weight:normal;font-stretch:normal;font-size:38.6689px;font-family:'Highway Gothic Wide';-inkscape-font-specification:'Highway Gothic Wide';fill:#ffffff;fill-opacity:1;stroke:none;stroke-width:0.999997px" /></text>
    <text
       xml:space="preserve"
       style="font-size:53.6665px;line-height:31.4451px;font-family:Haettenschweiler;-inkscape-font-specification:Haettenschweiler;letter-spacing:0px;word-spacing:0px;fill:none;stroke:#000000;stroke-width:1.34766px;stroke-linecap:butt;stroke-linejoin:miter;stroke-opacity:1"
       x="58.004005"
       y="116.58775"
       id="text5780"
       transform="scale(1.0010324,0.99896866)"><tspan
         sodipodi:role="line"
         id="tspan5778"
         x="58.004005"
         y="116.58775"
         style="font-style:normal;font-variant:normal;font-weight:normal;font-stretch:normal;font-family:'Highway Gothic Wide';-inkscape-font-specification:'Highway Gothic Wide';fill:#ffffff;stroke:none;stroke-width:1.34766px">Destinacions</tspan></text>
    <rect
       style="display:inline;fill:#000080;stroke:#ffffff;stroke-width:2.69532;stroke-linecap:round;stroke-linejoin:round;stroke-miterlimit:2.613;stroke-dasharray:none;stroke-opacity:1"
       id="rect5280"
       width="97.436974"
       height="38.155136"
       x="164.47868"
       y="-1.8323903" />
    <text
       xml:space="preserve"
       style="font-size:37.9749px;line-height:22.251px;font-family:'Highway Gothic Wide';-inkscape-font-specification:'Highway Gothic Wide';letter-spacing:0px;word-spacing:0px;display:inline;fill:none;stroke:#000000;stroke-width:1.34766px;stroke-linecap:butt;stroke-linejoin:miter;stroke-opacity:1"
       x="173.10417"
       y="29.408562"
       id="text5284"
       transform="scale(0.99551619,1.004504)"><tspan
         sodipodi:role="line"
         id="tspan5282"
         x="173.10417"
         y="29.408562"
         style="font-style:normal;font-variant:normal;font-weight:normal;font-stretch:normal;font-family:'Highway Gothic Wide';-inkscape-font-specification:'Highway Gothic Wide';fill:#ffffff;fill-opacity:1;stroke:none;stroke-width:1.34766px">C-32</tspan></text>
  </g>
</svg>
