<?xml version="1.0" encoding="UTF-8" standalone="no"?>
<svg
   version="1.2"
   width="400"
   height="298"
   id="svg2"
   sodipodi:docname="ES_CAT_radar.svg"
   inkscape:version="1.3.2 (091e20e, 2023-11-25, custom)"
   xmlns:inkscape="http://www.inkscape.org/namespaces/inkscape"
   xmlns:sodipodi="http://sodipodi.sourceforge.net/DTD/sodipodi-0.dtd"
   xmlns="http://www.w3.org/2000/svg"
   xmlns:svg="http://www.w3.org/2000/svg"
   xmlns:rdf="http://www.w3.org/1999/02/22-rdf-syntax-ns#"
   xmlns:cc="http://creativecommons.org/ns#"
   xmlns:dc="http://purl.org/dc/elements/1.1/">
  <sodipodi:namedview
     pagecolor="#ffffff"
     bordercolor="#666666"
     borderopacity="1"
     objecttolerance="10"
     gridtolerance="10"
     guidetolerance="10"
     inkscape:pageopacity="0"
     inkscape:pageshadow="2"
     inkscape:window-width="1920"
     inkscape:window-height="1017"
     id="namedview5859"
     showgrid="false"
     inkscape:zoom="2"
     inkscape:cx="191.25"
     inkscape:cy="142.75"
     inkscape:window-x="-8"
     inkscape:window-y="-8"
     inkscape:window-maximized="1"
     inkscape:current-layer="layer3"
     fit-margin-top="0"
     fit-margin-left="0"
     fit-margin-right="0"
     fit-margin-bottom="0"
     inkscape:document-rotation="0"
     inkscape:pagecheckerboard="true"
     inkscape:showpageshadow="false"
     inkscape:deskcolor="#d1d1d1" />
  <metadata
     id="metadata3125">
    <rdf:RDF>
      <cc:Work
         rdf:about="">
        <dc:format>image/svg+xml</dc:format>
        <dc:type
           rdf:resource="http://purl.org/dc/dcmitype/StillImage" />
      </cc:Work>
    </rdf:RDF>
  </metadata>
  <defs
     id="defs3123" />
  <g
     id="g3115"
     style="stroke-width:0.639086"
     transform="matrix(1.5527702,0,0,1.5767887,-53.187223,-62.220796)">
    <g
       id="g3117"
       style="stroke-width:0.639086" />
  </g>
  <g
     inkscape:groupmode="layer"
     id="layer11"
     inkscape:label="Layer 3"
     transform="translate(9.915614,72.9442)" />
  <g
     inkscape:groupmode="layer"
     id="layer14"
     inkscape:label="Layer 5"
     style="opacity:0.995444"
     transform="translate(9.9087094,60.03355)" />
  <g
     inkscape:groupmode="layer"
     id="layer15"
     inkscape:label="Layer 6"
     transform="translate(9.9976465,120.5)">
    <path
       d="m 383.88235,146.20274 c 0,7.87149 0.25616,19.18003 -0.67598,24.23241 -0.9402,5.09602 -3.09592,3.92779 -9.48249,3.91057 L 3.4316751,173.3475 c -12.7142105,-0.0342 -9.3348717,2.49109 -9.4007206,-13.31971 L -7.067073,-103.6163 c -0.065838,-15.8081 7.65962817,-13.34713 20.372789,-13.313 l 356.257414,0.95635 c 12.71847,0.0341 14.32028,-2.49664 14.32028,13.31299 v 248.8627 z"
       id="path3101-1-9"
       style="display:inline;fill:#000000;fill-opacity:1;stroke:#ffffff;stroke-width:5.21977;stroke-miterlimit:3.864;stroke-opacity:1"
       sodipodi:nodetypes="csssssssscc"
       inkscape:label="path3101" />
  </g>
  <g
     inkscape:groupmode="layer"
     id="layer10"
     inkscape:label="Layer 2"
     transform="translate(9.915614,72.9442)"
     style="display:inline">
    <path
       d="m 377.70172,193.75854 c 0,6.12037 0.25173,14.91316 -0.66428,18.84158 -0.92391,3.96234 -3.04227,3.0341 -9.31825,3.0406 L 8.6533893,216.01251 c -12.4940342,0.013 -9.25553568,1.93704 -9.23789922,-10.35656 L -0.21271605,-53.505705 C -0.19508262,-65.797207 7.3142476,-63.884059 19.807216,-63.85704 l 343.823284,0.743587 c 12.49819,0.02703 14.07226,-1.941222 14.07226,10.351335 V 193.75854 Z"
       id="path3101-1"
       style="fill:#ffffff;fill-opacity:1;stroke:#000000;stroke-width:5.21977;stroke-miterlimit:3.864;stroke-opacity:1"
       sodipodi:nodetypes="csssssssscc"
       inkscape:label="path3101" />
    <text
       xml:space="preserve"
       style="font-style:normal;font-variant:normal;font-weight:normal;font-stretch:normal;font-size:48.1444px;line-height:28.2095px;font-family:TrafficTypeW01-SpainD;-inkscape-font-specification:TrafficTypeW01-SpainD;letter-spacing:0px;word-spacing:0px;fill:#000000;stroke:none;stroke-width:1.04395px;stroke-linecap:butt;stroke-linejoin:miter;stroke-opacity:1"
       x="27.089333"
       y="183.61961"
       id="text6487-1"><tspan
         sodipodi:role="line"
         id="tspan6485-7"
         x="27.089333"
         y="183.61961"
         style="font-style:normal;font-variant:normal;font-weight:normal;font-stretch:normal;font-family:'Highway Gothic Wide';-inkscape-font-specification:'Highway Gothic Wide';letter-spacing:3.38514px;fill:#ffffff;fill-opacity:1;stroke-width:1.04395px">Tarragona </tspan></text>
    <text
       xml:space="preserve"
       style="font-style:normal;font-variant:normal;font-weight:normal;font-stretch:normal;font-size:39.8106px;line-height:23.3264px;font-family:TrafficTypeW01-SpainD;-inkscape-font-specification:TrafficTypeW01-SpainD;letter-spacing:0px;word-spacing:0px;display:inline;fill:#000000;stroke:none;stroke-width:1.04395px;stroke-linecap:butt;stroke-linejoin:miter;stroke-opacity:1"
       x="21.08993"
       y="124.62418"
       id="text6487-1-5"><tspan
         sodipodi:role="line"
         id="tspan6485-7-9"
         x="21.08993"
         y="124.62418"
         style="font-style:normal;font-variant:normal;font-weight:normal;font-stretch:normal;font-family:'Caracteres L4';-inkscape-font-specification:'Caracteres L4';letter-spacing:2.79917px;fill:#ffffff;fill-opacity:1;stroke-width:1.04395px">Direccio</tspan></text>
    <text
       xml:space="preserve"
       style="font-style:normal;font-variant:normal;font-weight:normal;font-stretch:normal;font-size:37.3895px;line-height:21.9079px;font-family:TrafficTypeW01-SpainD;-inkscape-font-specification:TrafficTypeW01-SpainD;letter-spacing:0px;word-spacing:0px;display:inline;fill:#000000;stroke:none;stroke-width:0.999996px;stroke-linecap:butt;stroke-linejoin:miter;stroke-opacity:1"
       x="304.56534"
       y="140.41682"
       id="text6487-1-5-2"><tspan
         sodipodi:role="line"
         id="tspan6485-7-9-0"
         x="304.56534"
         y="140.41682"
         style="font-style:normal;font-variant:normal;font-weight:normal;font-stretch:normal;font-family:'Highway Gothic Wide';-inkscape-font-specification:'Highway Gothic Wide';letter-spacing:2.62894px;fill:#ffffff;fill-opacity:1;stroke-width:0.999996px" /></text>
    <text
       xml:space="preserve"
       style="font-style:normal;font-variant:normal;font-weight:normal;font-stretch:normal;font-size:37.3895px;line-height:21.9079px;font-family:TrafficTypeW01-SpainD;-inkscape-font-specification:TrafficTypeW01-SpainD;letter-spacing:0px;word-spacing:0px;display:inline;fill:#000000;stroke:none;stroke-width:0.999996px;stroke-linecap:butt;stroke-linejoin:miter;stroke-opacity:1"
       x="287.06784"
       y="186.59615"
       id="text6487-1-5-2-0"><tspan
         sodipodi:role="line"
         id="tspan6485-7-9-0-3"
         x="287.06784"
         y="186.59615"
         style="font-style:normal;font-variant:normal;font-weight:normal;font-stretch:normal;font-family:'Highway Gothic Wide';-inkscape-font-specification:'Highway Gothic Wide';letter-spacing:2.62894px;fill:#ffffff;fill-opacity:1;stroke-width:0.999996px" /></text>
    <text
       xml:space="preserve"
       style="font-style:normal;font-variant:normal;font-weight:normal;font-stretch:normal;font-size:39.8106px;line-height:23.3264px;font-family:Arial;-inkscape-font-specification:Arial;letter-spacing:0px;word-spacing:0px;display:inline;fill:#000000;stroke:none;stroke-width:1.04395px;stroke-linecap:butt;stroke-linejoin:miter;stroke-opacity:1"
       x="152.66776"
       y="124.02904"
       id="text6487-1-5-22"><tspan
         sodipodi:role="line"
         id="tspan6485-7-9-8"
         x="152.66776"
         y="124.02904"
         style="font-style:normal;font-variant:normal;font-weight:normal;font-stretch:normal;font-family:Arial;-inkscape-font-specification:Arial;letter-spacing:2.79917px;fill:#ffffff;fill-opacity:1;stroke-width:1.04395px">´</tspan></text>
  </g>
  <g
     inkscape:groupmode="layer"
     id="layer3"
     inkscape:label="Layer 1"
     transform="translate(9.915614,72.9442)"
     style="display:inline" />
  <g
     inkscape:groupmode="layer"
     id="layer18"
     inkscape:label="Layer 8"
     transform="translate(3.5,-127)">
    <path
       style="fill:none;fill-opacity:1;stroke:#000000;stroke-width:4.17582;stroke-linecap:round;stroke-linejoin:bevel;stroke-miterlimit:2.613;stroke-dasharray:none;stroke-opacity:1"
       d="m 80.002266,236.06069 c 31.267134,41.7417 42.472384,84.59796 -1.043954,130.49429"
       id="path6895"
       sodipodi:nodetypes="cc" />
    <path
       style="fill:none;fill-opacity:1;stroke:#000000;stroke-width:4.17582;stroke-linecap:round;stroke-linejoin:bevel;stroke-miterlimit:2.613;stroke-dasharray:none;stroke-opacity:1"
       d="m 58.186051,269.97476 c 13.852518,14.6875 19.105332,38.49425 -0.652636,67.49198"
       id="path6895-0"
       sodipodi:nodetypes="cc" />
    <path
       style="fill:none;fill-opacity:1;stroke:#000000;stroke-width:4.17582;stroke-linecap:round;stroke-linejoin:bevel;stroke-miterlimit:2.613;stroke-dasharray:none;stroke-opacity:1"
       d="m 69.142974,252.75675 c 20.665983,38.3993 27.996429,54.74771 -2.217911,99.5801"
       id="path6895-0-2"
       sodipodi:nodetypes="cc" />
  </g>
  <g
     inkscape:groupmode="layer"
     id="layer17"
     inkscape:label="Layer 7"
     transform="translate(3.5,-127)">
    <path
       d="m 172.97573,261.22942 c 4.20865,0 4.72274,3.86325 4.72274,3.86325 0,0 6.57003,22.9606 6.46981,22.9606 7.39348,0.38304 6.77481,6.05752 6.77481,6.05752 0,0 0.10456,12.38865 0,12.38865 0.62303,5.54864 -0.81907,6.44605 -0.81907,6.5719 -1.3419,2.0739 0.81907,4.90293 0.81907,4.90293 1.95619,4.38309 -0.81907,6.18886 -0.81907,6.18886 0,0 -2.87548,1.16006 -2.87548,1.2914 -1.95183,0.64023 -1.74271,2.1888 -1.74271,2.1888 0,0 0,13.28607 0,13.41193 0,2.1888 -1.5423,1.9371 -1.5423,1.9371 0,0 -10.06417,0.13132 -10.16002,0 -1.85163,0 -1.64686,-2.06296 -1.64686,-2.06296 0,0 0,-13.9263 0,-14.05762 0,-2.06296 -1.6425,-2.06296 -1.6425,-2.06296 h -51.96334 c 0,0 -1.63816,0 -1.63816,2.06296 0,0.13132 0,14.05762 0,14.05762 0,0 0.20477,2.06296 -1.64686,2.06296 -0.10022,0.13132 -10.16437,0 -10.16437,0 0,0 -1.54229,0.25716 -1.54229,-1.9371 0,-0.12586 0,-13.41193 0,-13.41193 0,0 0.20477,-1.54857 -1.74273,-2.1888 0,-0.13134 -2.879827,-1.2914 -2.879827,-1.2914 0,0 -2.770913,-1.80577 -0.814718,-6.18886 0,0 2.156605,-2.8345 0.814718,-4.90293 0,-0.12585 -1.433381,-1.02873 -0.814718,-6.5719 -0.104564,0 0,-12.38865 0,-12.38865 0,0 -0.623021,-5.67448 6.774795,-6.05752 -0.10022,0 6.46546,-22.9606 6.46546,-22.9606 0,0 0.51847,-3.86325 4.72712,-3.86325 0,-0.13132 56.8865,-0.13132 56.8865,0"
       id="path3284"
       style="fill:#1c1d20;stroke-width:1.04395" />
  </g>
  <g
     inkscape:groupmode="layer"
     id="layer19"
     inkscape:label="Layer 9"
     transform="translate(3.5,-127)">
    <ellipse
       style="fill:#ffffff;fill-opacity:1;stroke:none;stroke-width:4.17582;stroke-linecap:round;stroke-linejoin:bevel;stroke-miterlimit:2.613;stroke-dasharray:none;stroke-opacity:1"
       id="path6928"
       cx="110.3811"
       cy="311.1485"
       rx="5.9491382"
       ry="6.1566668" />
    <ellipse
       style="fill:#ffffff;fill-opacity:1;stroke:none;stroke-width:4.17582;stroke-linecap:round;stroke-linejoin:bevel;stroke-miterlimit:2.613;stroke-dasharray:none;stroke-opacity:1"
       id="path6928-4"
       cx="175.95996"
       cy="311.07928"
       rx="5.9491382"
       ry="6.1566668" />
    <path
       style="fill:#ffffff;fill-opacity:1;stroke:none;stroke-width:4.17582;stroke-linecap:round;stroke-linejoin:bevel;stroke-miterlimit:2.613;stroke-dasharray:none;stroke-opacity:1"
       d="m 117.02199,265.69984 54.64907,-0.13835 8.71618,23.38149 -73.18824,0.27671 z"
       id="path6945" />
    <ellipse
       style="fill:#000000;fill-opacity:1;stroke:none;stroke-width:4.17581;stroke-linecap:round;stroke-linejoin:bevel;stroke-miterlimit:2.613;stroke-dasharray:none;stroke-opacity:1"
       id="path6928-2"
       cx="47.637047"
       cy="304.30972"
       rx="10.378261"
       ry="10.740294" />
  </g>
  <g
     inkscape:groupmode="layer"
     id="layer20"
     inkscape:label="Layer 10"
     style="display:inline"
     transform="translate(3.5,-127)">
    <text
       xml:space="preserve"
       style="font-size:63.0893px;line-height:36.9663px;font-family:Haettenschweiler;-inkscape-font-specification:Haettenschweiler;letter-spacing:0px;word-spacing:0px;fill:none;stroke:#000000;stroke-width:1.04395px;stroke-linecap:butt;stroke-linejoin:miter;stroke-opacity:1"
       x="88.502174"
       y="199.77158"
       id="text6950"
       transform="scale(0.99596902,1.0040473)"><tspan
         sodipodi:role="line"
         id="tspan6948"
         x="88.502174"
         y="199.77158"
         style="font-style:normal;font-variant:normal;font-weight:normal;font-stretch:normal;font-family:TrafficTypeW01-SpainD;-inkscape-font-specification:TrafficTypeW01-SpainD;fill:#000000;stroke:none;stroke-width:1.04395px">RADAR</tspan></text>
  </g>
  <g
     inkscape:groupmode="layer"
     id="layer21"
     inkscape:label="Layer 11"
     transform="translate(3.5,-127)">
    <path
       fill="#e41408"
       d="m 218.48906,306.01353 c 0,-36.80635 29.84109,-66.64467 66.65161,-66.64467 36.80375,0 66.64883,29.83832 66.64883,66.64467 0,36.80774 -29.84508,66.65022 -66.64883,66.65022 -36.81052,0 -66.65161,-29.84248 -66.65161,-66.65022"
       id="path6967"
       style="stroke-width:1.04395" />
    <path
       fill="#ffffff"
       d="m 236.26522,306.01353 c 0,-26.99163 21.87983,-48.87405 48.87545,-48.87405 26.99164,0 48.87008,21.88259 48.87008,48.87405 0,26.99563 -21.87844,48.87148 -48.87008,48.87148 -26.99562,0 -48.87545,-21.87585 -48.87545,-48.87148"
       id="path6969"
       style="stroke-width:1.04395" />
    <path
       fill-rule="evenodd"
       d="m 320.90529,298.10908 c -1.72009,-6.85286 -8.58196,-12.00381 -15.77895,-12.00381 -7.20581,0 -13.71455,5.15095 -15.78311,12.00381 -1.01833,4.79782 -1.01833,12.34776 0,17.14558 2.06839,6.85268 8.57712,11.99479 15.78311,11.99479 7.19717,0 14.05904,-5.14194 15.77895,-11.99479 1.3578,-4.79765 1.3578,-12.34776 0,-17.14558 z m -8.58178,14.06786 c -0.34863,3.41266 -3.76598,6.16479 -7.19717,6.16479 -3.42616,0 -6.52692,-2.75213 -7.20581,-6.16479 -0.33928,-3.08707 -0.33928,-7.88471 0,-10.98079 0.67906,-3.44002 3.77965,-6.1738 7.20581,-6.1738 3.43119,0 6.84854,2.73394 7.19717,6.1738 0.67889,3.09608 0.67889,7.89372 0,10.98079 z"
       id="path6971"
       style="stroke-width:1.04395" />
    <path
       fill-rule="evenodd"
       d="m 280.28259,297.57515 c -0.93419,-2.79318 -2.79509,-6.20983 -4.9724,-8.0709 -0.30914,-0.62883 -1.24661,-1.24296 -1.8609,-1.55193 -1.86627,-0.93764 -4.97049,-1.87009 -7.14745,-1.87009 -1.55228,0 -3.41215,0.31798 -4.96702,0.62782 -1.55384,0.30463 -3.42081,1.55124 -4.66672,2.7942 -5.89998,5.58652 -6.20982,15.21922 -0.30913,21.43474 0.62693,0.61845 1.55487,1.2421 2.48783,1.55072 3.73098,2.17091 9.31749,1.86662 13.04848,-0.30862 0,1.55558 -0.93608,3.72648 -2.48975,4.65944 -1.55384,1.24696 -3.72266,1.55557 -5.59171,0.92795 -1.23604,-0.30984 -2.47918,-1.55679 -2.47918,-3.10786 l -8.38679,3.42687 c 0.93211,2.78399 3.10491,5.58253 5.28293,6.82376 4.65875,2.49339 10.86943,2.49339 15.5254,0 0.62625,-0.30464 1.55383,-0.9276 1.87008,-1.55107 1.86124,-1.8609 3.72232,-4.9639 4.65633,-7.45261 1.24296,-5.28204 1.24296,-13.04934 0,-18.33242 z m -9.0049,3.73115 c -0.31815,2.48421 -2.48715,4.65511 -5.28482,4.65511 -2.48455,0 -4.97394,-2.1709 -5.28291,-4.65529 0,-0.61792 0,-1.55557 0,-2.4842 0.30913,-2.48437 2.79854,-4.65875 5.28291,-4.65875 2.79767,0 4.96667,2.17438 5.28482,4.65875 0.30533,0.92863 0.30533,1.86628 0,2.48438 z"
       id="path6973"
       style="stroke-width:1.04395" />
  </g>
</svg>
