<?xml version="1.0" encoding="UTF-8" standalone="no"?>
<svg
   version="1.2"
   width="400"
   height="284.259"
   id="svg2"
   sodipodi:docname="ES_CAT_OR41b.svg"
   inkscape:version="1.3.2 (091e20e, 2023-11-25, custom)"
   xmlns:inkscape="http://www.inkscape.org/namespaces/inkscape"
   xmlns:sodipodi="http://sodipodi.sourceforge.net/DTD/sodipodi-0.dtd"
   xmlns="http://www.w3.org/2000/svg"
   xmlns:svg="http://www.w3.org/2000/svg"
   xmlns:rdf="http://www.w3.org/1999/02/22-rdf-syntax-ns#"
   xmlns:cc="http://creativecommons.org/ns#"
   xmlns:dc="http://purl.org/dc/elements/1.1/">
  <sodipodi:namedview
     pagecolor="#ffffff"
     bordercolor="#666666"
     borderopacity="1"
     objecttolerance="10"
     gridtolerance="10"
     guidetolerance="10"
     inkscape:pageopacity="0"
     inkscape:pageshadow="2"
     inkscape:window-width="1920"
     inkscape:window-height="1017"
     id="namedview6659"
     showgrid="false"
     inkscape:zoom="1"
     inkscape:cx="278.5"
     inkscape:cy="-2.5"
     inkscape:window-x="-8"
     inkscape:window-y="-8"
     inkscape:window-maximized="1"
     inkscape:current-layer="layer11"
     fit-margin-top="0"
     fit-margin-left="0"
     fit-margin-right="0"
     fit-margin-bottom="0"
     inkscape:document-rotation="0"
     inkscape:showpageshadow="false"
     inkscape:pagecheckerboard="true"
     inkscape:deskcolor="#d1d1d1" />
  <metadata
     id="metadata4010">
    <rdf:RDF>
      <cc:Work
         rdf:about="">
        <dc:format>image/svg+xml</dc:format>
        <dc:type
           rdf:resource="http://purl.org/dc/dcmitype/StillImage" />
      </cc:Work>
    </rdf:RDF>
  </metadata>
  <defs
     id="defs4008" />
  <g
     inkscape:groupmode="layer"
     id="layer11"
     inkscape:label="Layer 1"
     style="display:inline"
     transform="translate(-5.654911,16.353878)">
    <path
       d="m 401.7488,250.19369 c 0.45817,5.0993 -0.0835,10.27677 -2.70606,14.22558 -0.43579,0.27068 -0.45331,0.68902 -2.68523,1.48667 l -5.06987,1.81189 c 9.10059,0.30672 -149.36655,-0.17194 -266.10898,0.0828 -29.171374,0.0637 -58.17473,-0.1867 -80.704111,0.0536 -6.623998,0.0707 -12.535935,0.0614 -18.012142,0.0108 -3.848034,-0.0351 -7.693961,0.0373 -10.499972,-0.44921 -9.6882892,-1.6797 -9.1813134,-7.34818 -9.1968978,-11.96385 L 6.0649797,47.967099 C 5.9842222,24.049091 1.1370827,27.072283 27.008771,27.072283 H 381.07135 c 13.65121,0 17.92361,-0.69291 19.44511,1.926005 1.36244,2.345131 1.18393,7.211429 1.22809,18.510908 0.20127,51.498285 -0.20242,103.445114 -0.0556,154.967024 0.0726,25.46808 0.009,-26.09499 -0.0211,-0.75746 -0.0152,12.7109 0.43999,35.7044 0.0811,48.47493 z"
       id="path3217"
       style="fill:#000080;stroke-width:1.34665"
       sodipodi:nodetypes="ccscsssssssssssscc" />
    <path
       d="m 390.94114,245.27031 c 0,14.49144 1.5668,12.0319 -12.92619,11.97695 L 23.188444,255.90214 C 8.6954691,255.8472 12.167093,256.51561 12.167093,242.02291 V 133.95428 c 0,-14.4965 -0.618182,-12.03502 13.874779,-11.97948 l 351.021938,1.34512 c 14.49299,0.0555 13.87733,1.2863 13.87733,15.78407 z"
       id="path3243"
       style="fill:none;stroke:#ffffff;stroke-width:5.38662;stroke-miterlimit:3.864"
       sodipodi:nodetypes="sssssssss" />
    <path
       d="m 194.84489,214.76093 8.59659,8.93635 9.52071,-14.43805 -0.57023,29.70876 -29.69886,-0.56659 14.79172,-8.96922 -14.67371,-14.76817 5.95667,-5.73492"
       id="polyline3245"
       style="fill:#ffffff;stroke-width:1.34665"
       sodipodi:nodetypes="cccccccc" />
    <text
       xml:space="preserve"
       style="font-size:38.6689px;line-height:22.6576px;font-family:'Andale Mono IPA';-inkscape-font-specification:'Andale Mono IPA';letter-spacing:0px;word-spacing:0px;fill:#ffffff;fill-opacity:1;stroke:none;stroke-width:0.999997px;stroke-linecap:butt;stroke-linejoin:miter;stroke-opacity:1"
       x="307.61365"
       y="178.6953"
       id="text4113"
       transform="scale(1.067666,0.9366225)"><tspan
         sodipodi:role="line"
         id="tspan4111"
         x="307.61365"
         y="178.6953"
         style="font-style:normal;font-variant:normal;font-weight:normal;font-stretch:normal;font-size:38.6689px;font-family:'Highway Gothic Wide';-inkscape-font-specification:'Highway Gothic Wide';fill:#ffffff;fill-opacity:1;stroke:none;stroke-width:0.999997px" /></text>
    <path
       d="M 15.353293,98.646524 V 46.636186 c 0,-10.935907 -1.805622,-8.233297 7.390001,-8.204299 l 356.506776,1.124235 c 9.31045,0.02936 8.81049,-2.730551 8.81049,8.204306 v 49.156896 c 0,10.935896 2.16447,11.557216 -7.14599,11.528006 L 22.505501,107.32109 c -9.195623,-0.0288 -7.152208,2.26133 -7.152208,-8.674566 h -4.822131 4.822131 m -4.822131,0 c 0,14.075266 0.133589,14.383736 11.974339,14.420876 l 358.409069,1.12424 c 11.84075,0.0372 11.97345,-3.198 11.97345,-17.274316 V 47.760428 c 0,-14.086916 -1.79809,-13.913283 -13.63795,-13.950619 L 22.743294,32.685572 C 10.902543,32.648234 10.531162,32.549277 10.531162,46.636186 Z"
       id="path5608"
       style="fill:#ffffff;stroke-width:1.34665"
       sodipodi:nodetypes="cssssssscccsssssssss" />
    <g
       id="g5651"
       transform="matrix(0.71708384,0,0,0.71708529,-6.4406013,4.2324814)"
       style="stroke-width:1.87796">
      <path
         d="M 53.950398,130.92797 H 81.72097 l 2.616542,-67.631163 h -8.05066 L 53.950398,130.92797"
         id="polyline5612"
         style="fill:#ffffff;stroke-width:1.87796" />
      <path
         d="m 91.185094,130.92797 h 27.561746 l -10.05787,-31.800578 20.323,-22.947344 6.64656,16.099763 V 63.296807 h -28.98301 l 16.30859,6.646548 -19.7277,12.280143 -6.035656,-18.926691 h -8.05066 l 2.015,67.631163"
         id="polyline5614"
         style="fill:#ffffff;stroke-width:1.87796" />
    </g>
    <text
       xml:space="preserve"
       style="font-size:37.9465px;line-height:22.2344px;font-family:'Highway Gothic Wide';-inkscape-font-specification:'Highway Gothic Wide';letter-spacing:0px;word-spacing:0px;display:inline;fill:none;stroke:#000000;stroke-width:1.34665px;stroke-linecap:butt;stroke-linejoin:miter;stroke-opacity:1"
       x="328.81589"
       y="86.766479"
       id="text5284-6"
       transform="scale(0.99551619,1.004504)"><tspan
         sodipodi:role="line"
         id="tspan5282-9"
         x="328.81589"
         y="86.766479"
         style="font-style:normal;font-variant:normal;font-weight:normal;font-stretch:normal;font-family:'Highway Gothic Wide';-inkscape-font-specification:'Highway Gothic Wide';fill:#ffffff;fill-opacity:1;stroke:none;stroke-width:1.34665px">63</tspan></text>
    <text
       xml:space="preserve"
       style="font-size:57.4573px;line-height:33.6664px;font-family:Haettenschweiler;-inkscape-font-specification:Haettenschweiler;letter-spacing:0px;word-spacing:0px;fill:none;stroke:#000000;stroke-width:1.34666px;stroke-linecap:butt;stroke-linejoin:miter;stroke-opacity:1"
       x="46.985245"
       y="187.99669"
       id="text5780"><tspan
         sodipodi:role="line"
         id="tspan5778"
         x="46.985245"
         y="187.99669"
         style="font-style:normal;font-variant:normal;font-weight:normal;font-stretch:normal;font-family:'Highway Gothic Wide';-inkscape-font-specification:'Highway Gothic Wide';fill:#ffffff;stroke:none;stroke-width:1.34666px">Destinacions</tspan></text>
    <rect
       style="display:inline;fill:#000080;stroke:#ffffff;stroke-width:2.6933;stroke-linecap:round;stroke-linejoin:round;stroke-miterlimit:2.613;stroke-dasharray:none;stroke-opacity:1"
       id="rect5280"
       width="97.363976"
       height="38.126549"
       x="164.35785"
       y="-15.007228" />
    <text
       xml:space="preserve"
       style="font-size:37.9465px;line-height:22.2344px;font-family:'Highway Gothic Wide';-inkscape-font-specification:'Highway Gothic Wide';letter-spacing:0px;word-spacing:0px;display:inline;fill:none;stroke:#000000;stroke-width:1.34665px;stroke-linecap:butt;stroke-linejoin:miter;stroke-opacity:1"
       x="172.9769"
       y="16.2694"
       id="text5284"
       transform="scale(0.99551619,1.004504)"><tspan
         sodipodi:role="line"
         id="tspan5282"
         x="172.9769"
         y="16.2694"
         style="font-style:normal;font-variant:normal;font-weight:normal;font-stretch:normal;font-family:'Highway Gothic Wide';-inkscape-font-specification:'Highway Gothic Wide';fill:#ffffff;fill-opacity:1;stroke:none;stroke-width:1.34665px">C-32</tspan></text>
  </g>
</svg>
