<?xml version="1.0" encoding="UTF-8" standalone="no"?>
<svg
   width="200"
   height="193.729"
   id="svg2"
   version="1.1"
   inkscape:version="1.3.2 (091e20e, 2023-11-25, custom)"
   sodipodi:docname="ES_R406.svg"
   xmlns:inkscape="http://www.inkscape.org/namespaces/inkscape"
   xmlns:sodipodi="http://sodipodi.sourceforge.net/DTD/sodipodi-0.dtd"
   xmlns="http://www.w3.org/2000/svg"
   xmlns:svg="http://www.w3.org/2000/svg"
   xmlns:rdf="http://www.w3.org/1999/02/22-rdf-syntax-ns#"
   xmlns:cc="http://creativecommons.org/ns#"
   xmlns:dc="http://purl.org/dc/elements/1.1/">
  <defs
     id="defs4">
    <inkscape:path-effect
       effect="offset"
       id="path-effect959"
       is_visible="true"
       linejoin_type="round"
       unit="mm"
       offset="-5"
       miter_limit="4"
       attempt_force_join="true"
       update_on_knot_move="true"
       lpeversion="0" />
    <inkscape:path-effect
       effect="offset"
       id="path-effect913"
       is_visible="true"
       linejoin_type="round"
       unit="mm"
       offset="-1.4231762"
       miter_limit="4"
       attempt_force_join="true"
       update_on_knot_move="true"
       lpeversion="1.2" />
  </defs>
  <sodipodi:namedview
     id="base"
     pagecolor="#ffffff"
     bordercolor="#666666"
     borderopacity="1.0"
     inkscape:pageopacity="0.0"
     inkscape:pageshadow="2"
     inkscape:zoom="0.49497475"
     inkscape:cx="267.69042"
     inkscape:cy="369.71583"
     inkscape:document-units="px"
     inkscape:current-layer="layer3"
     showgrid="false"
     fit-margin-top="0"
     fit-margin-left="0"
     fit-margin-right="0"
     fit-margin-bottom="0"
     inkscape:window-width="1280"
     inkscape:window-height="800"
     inkscape:window-x="0"
     inkscape:window-y="0"
     inkscape:window-maximized="0"
     inkscape:document-rotation="0"
     inkscape:showpageshadow="2"
     inkscape:pagecheckerboard="true"
     inkscape:deskcolor="#d1d1d1" />
  <metadata
     id="metadata7">
    <rdf:RDF>
      <cc:Work
         rdf:about="">
        <dc:format>image/svg+xml</dc:format>
        <dc:type
           rdf:resource="http://purl.org/dc/dcmitype/StillImage" />
      </cc:Work>
    </rdf:RDF>
  </metadata>
  <g
     inkscape:groupmode="layer"
     id="layer3"
     inkscape:label="fondo señal"
     style="display:inline"
     transform="translate(-828.41506,30.25543)">
    <circle
       style="fill:#ffffff;fill-opacity:1;stroke:#092d78;stroke-width:2.27708;stroke-miterlimit:4;stroke-dasharray:none;stroke-opacity:1;stop-color:#000000"
       id="path908"
       cx="925.27966"
       cy="66.609177"
       r="95.726067" />
    <path
       id="circle910"
       style="fill:#092d78;fill-opacity:1;stroke:none;stroke-width:8;stroke-miterlimit:4;stroke-dasharray:none;stroke-opacity:1;stop-color:#000000"
       d="m 1168.7266,-7.3574219 c 175.2068,-1.56e-5 317.4121,142.2071119 317.4121,317.4140619 0,175.20695 -142.2052,317.41213 -317.4121,317.41211 -175.20696,-2e-5 -317.41215,-142.20519 -317.41215,-317.41211 0,-175.20692 142.20532,-317.414041 317.41215,-317.4140619 z"
       inkscape:path-effect="#path-effect913"
       inkscape:original-d="M 1505.0378,310.05594 A 336.31137,336.31137 0 0 1 1168.7264,646.36731 336.31137,336.31137 0 0 1 832.41507,310.05594 336.31137,336.31137 0 0 1 1168.7264,-26.255432 336.31137,336.31137 0 0 1 1505.0378,310.05594"
       inkscape:connector-curvature="0"
       transform="matrix(0.28463524,0,0,0.28463524,592.61895,-21.64367)" />
  </g>
  <g
     inkscape:label="objeto"
     inkscape:groupmode="layer"
     id="layer1"
     transform="translate(-835.10889,-221.36548)"
     style="display:inline">
    <path
       id="path41"
       style="fill:#ffffff;stroke:none;stroke-width:0.284635px;stroke-linecap:butt;stroke-linejoin:miter;stroke-opacity:1"
       d="m 992.64577,289.23709 c -0.49752,-0.0199 -0.83572,-0.0156 -0.83572,-0.0156 h -85.39502 l -1.43763,0.71881 -0.14343,1.29365 h -14.08889 l -4.74429,18.83318 h -16.32928 c 0,0 -1.02377,-0.17981 -2.03303,1.56827 -1.00925,1.74808 0,15.04509 0,15.04509 h -5.08285 l 0.40694,6.30255 h 129.9977 c 0,0 0.8983,0.15778 1.47335,-0.48915 0.41331,-0.71882 -0.17971,-41.54736 -0.17971,-41.54736 0,0 0.18522,-0.51603 -0.56696,-1.14116 -0.44027,-0.44027 -0.65422,-0.55284 -1.04118,-0.56832 z m -96.25301,8.66859 c 0.0715,0 0.11619,0.006 0.11619,0.006 h 8.23385 v 12.30047 h -10.87729 c 0,0 1.32166,-11.18186 1.62664,-11.79179 0.22872,-0.45745 0.68618,-0.51479 0.90061,-0.51479 z"
       inkscape:connector-curvature="0"
       sodipodi:nodetypes="scccccccsccccccccscccccscc" />
    <circle
       style="fill:#ffffff;fill-opacity:1;stroke:none;stroke-width:0.426953;stop-color:#000000"
       id="path47"
       cx="889.18958"
       cy="335.21957"
       r="10.165545" />
    <circle
       r="10.165545"
       cy="334.81296"
       cx="966.85431"
       id="path47-9"
       style="display:inline;fill:#ffffff;fill-opacity:1;stroke:none;stroke-width:0.426953;stop-color:#000000" />
  </g>
</svg>
