<?xml version="1.0" encoding="UTF-8" standalone="no"?>
<!-- Created with Inkscape (http://www.inkscape.org/) -->

<svg
   width="200"
   height="198.177"
   id="svg2"
   version="1.1"
   inkscape:version="1.3.2 (091e20e, 2023-11-25, custom)"
   sodipodi:docname="ES_R410.svg"
   xmlns:inkscape="http://www.inkscape.org/namespaces/inkscape"
   xmlns:sodipodi="http://sodipodi.sourceforge.net/DTD/sodipodi-0.dtd"
   xmlns="http://www.w3.org/2000/svg"
   xmlns:svg="http://www.w3.org/2000/svg"
   xmlns:rdf="http://www.w3.org/1999/02/22-rdf-syntax-ns#"
   xmlns:cc="http://creativecommons.org/ns#"
   xmlns:dc="http://purl.org/dc/elements/1.1/">
  <defs
     id="defs4" />
  <sodipodi:namedview
     id="base"
     pagecolor="#ffffff"
     bordercolor="#666666"
     borderopacity="1.0"
     inkscape:pageopacity="0.0"
     inkscape:pageshadow="2"
     inkscape:zoom="0.53317828"
     inkscape:cx="74.084038"
     inkscape:cy="282.26956"
     inkscape:document-units="px"
     inkscape:current-layer="layer1"
     showgrid="false"
     fit-margin-top="0"
     fit-margin-left="0"
     fit-margin-right="0"
     fit-margin-bottom="0"
     inkscape:window-width="1920"
     inkscape:window-height="1017"
     inkscape:window-x="-8"
     inkscape:window-y="-8"
     inkscape:window-maximized="1"
     inkscape:showpageshadow="2"
     inkscape:pagecheckerboard="true"
     inkscape:deskcolor="#d1d1d1" />
  <metadata
     id="metadata7">
    <rdf:RDF>
      <cc:Work
         rdf:about="">
        <dc:format>image/svg+xml</dc:format>
        <dc:type
           rdf:resource="http://purl.org/dc/dcmitype/StillImage" />
      </cc:Work>
    </rdf:RDF>
  </metadata>
  <g
     inkscape:label="Capa 1"
     inkscape:groupmode="layer"
     id="layer1"
     transform="translate(-5.218422,-252.58595)">
    <circle
       style="fill:#ffffff;fill-opacity:1;fill-rule:nonzero;stroke:#0000ff;stroke-width:0.331007;stroke-linecap:round;stroke-linejoin:round;stroke-miterlimit:4;stroke-dasharray:none;stroke-dashoffset:0;stroke-opacity:1"
       id="path3014"
       cx="105.60001"
       cy="352.42322"
       r="97.674294" />
    <path
       inkscape:connector-curvature="0"
       id="path3834"
       d="m 5.2796435,450.41236 c 0.2196718,-0.21968 0.7898532,-0.24315 1.2670706,-0.0522 0.5273633,0.21102 0.3707164,0.36767 -0.399403,0.3994 -0.6968889,0.0288 -1.0873391,-0.12754 -0.8676676,-0.34721 z M 92.693765,449.8496 C 85.201932,448.58358 81.546764,447.70989 75.505674,445.74121 40.021039,434.17742 13.191323,402.28126 8.3015452,365.84645 c -0.4623521,-3.44508 -1.027322,-6.26379 -1.255484,-6.26379 -0.2281652,0 0.162163,-8.29207 -0.2040062,-5.83781 -0.544968,3.65265 -0.012592,10.59764 -0.031826,-3.74242 -0.014607,-10.87015 0.2936292,-0.51705 0.3042876,-1.72524 0.013121,-1.4851 -0.093351,-3.51126 -0.072394,-2.32958 0.065176,3.67573 0.508568,-2.68382 0.9976731,-7.02371 C 10.38091,318.15097 20.578792,297.64813 36.424848,281.85576 48.419452,269.90179 59.870296,262.83723 75.901109,257.501 c 42.227341,-14.05634 89.044261,2.78729 113.769841,40.93172 4.46358,6.88602 7.42645,13.13094 10.55162,22.24001 2.76264,8.05236 4.77726,20.80371 4.91476,30.57751 0.12369,8.79262 -1.89487,3.58158 -2.38007,-4.46902 -1.70728,-28.32779 -17.42494,-57.66269 -39.98896,-73.73753 -29.47644,-20.99933 -67.962334,-24.03051 -99.823153,-7.86215 -19.489571,9.89035 -33.433124,23.74795 -42.954929,42.69015 -6.418852,12.76935 -9.209155,22.90095 -10.1903469,37.00121 -1.2537983,18.01778 1.9827349,34.2479 9.9862289,50.07757 10.11475,20.00539 24.487849,34.24078 44.181448,43.75817 11.920232,5.7607 22.370553,8.51883 35.527953,9.37685 21.825039,1.42323 41.828759,-3.76943 60.074189,-15.59437 24.93319,-16.15935 41.2381,-47.1806 43.42272,-77.4065 0.48902,-6.76596 3.04468,-4.63144 1.71016,6.05023 l -1.66439,13.32212 -2.72842,8.00719 c -5.46158,16.02828 -12.35227,27.09634 -24.23066,38.92011 -14.71316,14.64553 -30.74273,23.32167 -50.78397,27.48736 -8.64694,1.79732 -24.8726,2.28404 -32.601365,0.97797 z m 5.288646,-6.74572 c -28.136909,-3.37482 -51.718116,-17.145 -66.98708,-39.11686 -3.893621,-5.60288 -9.831869,-17.38648 -11.925279,-23.66402 -5.144894,-15.42805 -5.88017,-33.24493 -2.049022,-49.65105 7.673474,-32.86011 33.202617,-59.08147 65.812853,-67.59736 9.376042,-2.44848 19.977007,-3.5943 28.039597,-3.03071 43.40694,3.03422 77.33649,32.92357 85.69713,75.49264 1.53524,7.81686 1.55296,23.45382 0.036,31.79636 -7.22268,39.72192 -38.8336,69.98874 -78.57057,75.22979 -6.82017,0.89954 -15.18431,1.12529 -20.053649,0.54121 z m 37.623019,-32.66897 c 3.9707,-4.71891 3.33542,-7.76957 -4.2352,-20.33773 l -6.10915,-10.14193 -2.83993,-12.38457 -2.83993,-12.38457 1.24673,-10.45384 c 0.68569,-5.74962 1.41118,-10.61831 1.6122,-10.81933 0.20102,-0.20102 2.00902,1.25326 4.01778,3.23172 l 3.65229,3.59721 -0.45228,7.42374 c -0.39771,6.52801 -0.32172,7.47383 0.62985,7.83899 1.87023,0.71767 4.53676,-0.38504 7.07928,-2.92756 2.30251,-2.30251 2.48048,-2.7776 2.89373,-7.72483 0.24218,-2.89928 0.59159,-6.07432 0.77647,-7.05563 0.29375,-1.55923 -1.0286,-3.30977 -10.48687,-13.88269 -7.87877,-8.80728 -11.27702,-12.1524 -12.49196,-12.29669 -0.97798,-0.11615 -4.53584,1.17445 -8.59341,3.11722 -5.94989,2.84882 -7.566,3.99323 -11.482683,8.13118 -2.507024,2.64866 -9.556706,9.90709 -15.665965,16.12984 -6.109249,6.22277 -11.107735,11.60579 -11.107735,11.96227 0,1.35906 2.704072,3.00545 5.443315,3.3142 2.821188,0.318 2.954222,0.23693 12.06358,-7.35006 5.066012,-4.21938 9.446635,-7.6716 9.734713,-7.6716 0.638988,0 0.605887,7.67438 -0.05302,12.28571 -0.404494,2.83091 -1.452294,4.70464 -6.642276,11.87807 -3.389123,4.68432 -6.423482,9.12154 -6.74303,9.86048 -0.583772,1.35002 -7.192476,29.65717 -7.192476,30.80774 0,0.92961 5.039941,0.73662 7.489257,-0.28677 4.113472,-1.71871 5.29266,-3.99932 7.699413,-14.89097 l 2.218692,-10.04057 5.211995,-5.09781 c 2.8666,-2.80379 5.58917,-5.18354 6.05015,-5.28834 0.52054,-0.11834 2.06054,2.88768 4.0641,7.93297 3.66876,9.23858 6.72664,14.72106 13.20691,23.67874 2.49095,3.44323 5.42755,7.52473 6.5258,9.07001 1.09824,1.54527 2.35932,2.8096 2.8024,2.8096 0.44308,0 1.57584,-0.9154 2.51726,-2.0342 z M 113.82116,309.07555 c 3.2811,-2.50261 4.53737,-5.21698 4.17242,-9.01515 -0.85058,-8.85208 -10.98889,-12.78875 -17.12722,-6.65042 -5.256423,5.25642 -4.412797,12.5183 1.91062,16.44649 3.30814,2.05506 7.73655,1.74194 11.04418,-0.78092 z"
       style="fill:#092d78;fill-opacity:1;stroke-width:0.324456"
       sodipodi:nodetypes="sscsssssssssssssssssssssssssscsssssssssssssssscccssscsssssssssssssssscssscssssssssssss" />
  </g>
</svg>
