<?xml version="1.0" encoding="UTF-8" standalone="no"?>
<svg
   version="1.1"
   id="Layer_1"
   x="0px"
   y="0px"
   width="200"
   height="198.76601"
   viewBox="-360.791 -360.781 200 198.766"
   xml:space="preserve"
   sodipodi:docname="ES_R301-120.svg"
   inkscape:version="1.3.2 (091e20e, 2023-11-25, custom)"
   xmlns:inkscape="http://www.inkscape.org/namespaces/inkscape"
   xmlns:sodipodi="http://sodipodi.sourceforge.net/DTD/sodipodi-0.dtd"
   xmlns="http://www.w3.org/2000/svg"
   xmlns:svg="http://www.w3.org/2000/svg"><defs
   id="defs5" /><sodipodi:namedview
   id="namedview5"
   pagecolor="#ffffff"
   bordercolor="#000000"
   borderopacity="0.25"
   inkscape:showpageshadow="2"
   inkscape:pageopacity="0.0"
   inkscape:pagecheckerboard="true"
   inkscape:deskcolor="#d1d1d1"
   inkscape:zoom="1.0667103"
   inkscape:cx="384.828"
   inkscape:cy="384.828"
   inkscape:window-width="1920"
   inkscape:window-height="1017"
   inkscape:window-x="-8"
   inkscape:window-y="-8"
   inkscape:window-maximized="1"
   inkscape:current-layer="Layer_1" />
<path
   fill="#e41408"
   d="m -360.791,-261.40233 c 0,-54.8846 44.4982,-99.37867 99.389,-99.37867 54.88072,0 99.38486,44.49407 99.38486,99.37867 0,54.88666 -44.50414,99.38693 -99.38486,99.38693 -54.8908,0 -99.389,-44.50027 -99.389,-99.38693"
   id="path1"
   style="stroke-width:0.258253" />
<path
   fill="#ffffff"
   d="m -334.2837,-261.40233 c 0,-40.24917 32.62659,-72.87964 72.8817,-72.87964 40.24917,0 72.87369,32.63072 72.87369,72.87964 0,40.25511 -32.62452,72.87576 -72.87369,72.87576 -40.25511,0 -72.8817,-32.62065 -72.8817,-72.87576"
   id="path2"
   style="stroke-width:0.258253" />
<path
   fill-rule="evenodd"
   d="m -314.4667,-234.42295 h 12.37417 v -52.6502 h -10.98425 v 2.29612 c 0,2.7429 -2.76718,5.49846 -5.4982,5.49846 h -4.57985 v 10.51294 h 8.68839 v 34.34268"
   id="path3"
   style="stroke-width:0.258253" />
<path
   fill-rule="evenodd"
   d="m -200.16388,-272.50797 c -2.29612,-9.14756 -11.45556,-16.02327 -21.06281,-16.02327 -9.61888,0 -18.30726,6.87571 -21.06824,16.02327 -1.35944,6.40441 -1.35944,16.48271 0,22.88712 2.76098,9.14756 11.44936,16.01139 21.06824,16.01139 9.60699,0 18.76669,-6.86383 21.06281,-16.01139 1.81242,-6.40441 1.81242,-16.48271 0,-22.88712 z m -11.45582,18.77858 c -0.46537,4.55557 -5.02714,8.22896 -9.60699,8.22896 -4.57365,0 -8.71241,-3.67365 -9.61888,-8.22896 -0.45297,-4.12094 -0.45297,-10.52508 0,-14.6579 0.90647,-4.59199 5.04523,-8.24135 9.61888,-8.24135 4.57985,0 9.14162,3.64936 9.60699,8.24135 0.90621,4.13282 0.90621,10.53696 0,14.6579 z"
   id="path4"
   style="stroke-width:0.258253" />
<path
   fill-rule="evenodd"
   d="m -289.62616,-235.04327 h 37.29037 v -11.07568 h -16.39077 l 8.20494,-6.56297 c 0.81763,-0.81091 1.64868,-1.63448 2.47096,-2.45882 3.24959,-3.26896 5.71487,-8.99545 5.71487,-13.91103 0,-3.27025 -1.22257,-7.80543 -2.85731,-10.66893 -0.81659,-0.81091 -2.04561,-2.03916 -2.8573,-2.87771 -0.82254,-0.80962 -2.47096,-2.05233 -3.71316,-2.44333 -1.20939,-0.82537 -3.2687,-1.63525 -4.91558,-2.05388 -5.31586,-1.21637 -12.27732,-0.39228 -17.19419,2.05388 -1.65333,1.2267 -3.69998,3.28188 -4.92255,5.32104 -2.04665,3.68759 -3.28859,9.02179 -2.46425,13.11355 h 11.87833 c -0.39229,-1.63371 0,-3.7005 0.42508,-4.90267 1.20914,-2.87642 4.10518,-4.94218 6.96146,-4.94218 0.81762,0 2.04716,0 2.8573,0 2.45857,0.82305 4.10518,2.87538 4.5109,4.94218 0.41191,2.45805 -0.40546,5.73992 -2.05233,7.77934 -1.63423,2.02702 -4.10519,4.49798 -6.13247,6.14641 l -15.57262,11.46538 c -0.837,0.82512 -0.837,1.64817 -1.24168,2.05362 v 9.0218"
   id="path5"
   style="stroke-width:0.258253" />
</svg>
