<?xml version="1.0" encoding="UTF-8" standalone="no"?>
<svg
   version="1.1"
   id="Layer_1"
   x="0px"
   y="0px"
   width="200"
   height="197.8044"
   viewBox="-360.791 -360.781 200 197.8044"
   xml:space="preserve"
   sodipodi:docname="ES_R301-10.svg"
   inkscape:version="1.3.2 (091e20e, 2023-11-25, custom)"
   xmlns:inkscape="http://www.inkscape.org/namespaces/inkscape"
   xmlns:sodipodi="http://sodipodi.sourceforge.net/DTD/sodipodi-0.dtd"
   xmlns="http://www.w3.org/2000/svg"
   xmlns:svg="http://www.w3.org/2000/svg"><defs
   id="defs4" /><sodipodi:namedview
   id="namedview4"
   pagecolor="#ffffff"
   bordercolor="#000000"
   borderopacity="0.25"
   inkscape:showpageshadow="2"
   inkscape:pageopacity="0.0"
   inkscape:pagecheckerboard="true"
   inkscape:deskcolor="#d1d1d1"
   inkscape:zoom="1.0667103"
   inkscape:cx="384.828"
   inkscape:cy="384.828"
   inkscape:window-width="1920"
   inkscape:window-height="1017"
   inkscape:window-x="-8"
   inkscape:window-y="-8"
   inkscape:window-maximized="1"
   inkscape:current-layer="Layer_1" />
<path
   fill="#e41408"
   d="m -360.791,-261.88291 c 0,-54.61919 44.28301,-98.89809 98.90837,-98.89809 54.61533,0 98.90425,44.2789 98.90425,98.89809 0,54.62124 -44.28892,98.90631 -98.90425,98.90631 -54.62536,0 -98.90837,-44.28507 -98.90837,-98.90631"
   id="path1"
   style="stroke-width:0.257004" />
<path
   fill="#ffffff"
   d="m -334.41189,-261.88291 c 0,-40.05453 32.46881,-72.5272 72.52926,-72.5272 40.05453,0 72.52129,32.47292 72.52129,72.5272 0,40.06044 -32.46676,72.52334 -72.52129,72.52334 -40.06045,0 -72.52926,-32.4629 -72.52926,-72.52334"
   id="path2"
   style="stroke-width:0.257004" />
<path
   fill-rule="evenodd"
   d="m -291.47789,-233.25656 h 13.61066 v -57.91217 h -12.08251 v 2.52557 c 0,3.01722 -3.04344,6.04755 -6.04781,6.04755 h -5.03702 v 11.56388 h 9.55668 v 37.77517"
   id="path3"
   style="stroke-width:0.257004" />
<path
   fill-rule="evenodd"
   d="m -216.95351,-275.47841 c -2.51041,-10.44976 -12.52944,-17.95992 -23.38965,-17.95992 -10.44976,0 -20.46905,7.51016 -23.39941,17.95992 -2.08995,7.50965 -2.08995,17.95942 0,25.05915 2.93036,10.44025 12.94965,17.95016 23.39941,17.95016 10.86021,0 20.87924,-7.50991 23.38965,-17.95016 2.0897,-7.09947 2.0897,-17.54924 0,-25.05915 z m -12.52944,20.88001 c -0.83989,5.00951 -5.42972,8.76973 -10.86021,8.76973 -5.01028,0 -9.61913,-3.76022 -10.44976,-8.76973 -0.83989,-5.01029 -0.83989,-11.69033 0,-16.29018 0.83063,-5.42946 5.43948,-9.18968 10.44976,-9.18968 5.43049,0 10.02032,3.75997 10.86021,9.18968 0.82935,4.59985 0.82935,11.27989 0,16.29018 z"
   id="path4"
   style="stroke-width:0.257004" />
</svg>
