<?xml version="1.0" encoding="UTF-8" standalone="no"?>
<svg
   version="1.1"
   id="Layer_1"
   x="0px"
   y="0px"
   width="200"
   height="197.8044"
   viewBox="-360.791 -360.781 200 197.8044"
   xml:space="preserve"
   sodipodi:docname="ES_R301-80.svg"
   inkscape:version="1.3.2 (091e20e, 2023-11-25, custom)"
   xmlns:inkscape="http://www.inkscape.org/namespaces/inkscape"
   xmlns:sodipodi="http://sodipodi.sourceforge.net/DTD/sodipodi-0.dtd"
   xmlns="http://www.w3.org/2000/svg"
   xmlns:svg="http://www.w3.org/2000/svg"><defs
   id="defs4" /><sodipodi:namedview
   id="namedview4"
   pagecolor="#ffffff"
   bordercolor="#000000"
   borderopacity="0.25"
   inkscape:showpageshadow="2"
   inkscape:pageopacity="0.0"
   inkscape:pagecheckerboard="true"
   inkscape:deskcolor="#d1d1d1"
   inkscape:zoom="1.0667103"
   inkscape:cx="384.828"
   inkscape:cy="384.828"
   inkscape:window-width="1920"
   inkscape:window-height="1017"
   inkscape:window-x="-8"
   inkscape:window-y="-8"
   inkscape:window-maximized="1"
   inkscape:current-layer="Layer_1" />
<path
   fill="#e41408"
   d="m -360.791,-261.88291 c 0,-54.61919 44.28301,-98.89809 98.90837,-98.89809 54.61533,0 98.90425,44.2789 98.90425,98.89809 0,54.62124 -44.28892,98.90631 -98.90425,98.90631 -54.62536,0 -98.90837,-44.28507 -98.90837,-98.90631"
   id="path1"
   style="stroke-width:0.257004" />
<path
   fill="#ffffff"
   d="m -334.41189,-261.88291 c 0,-40.05453 32.46881,-72.5272 72.52926,-72.5272 40.05453,0 72.52129,32.47292 72.52129,72.5272 0,40.06044 -32.46676,72.52334 -72.52129,72.52334 -40.06045,0 -72.52926,-32.4629 -72.52926,-72.52334"
   id="path2"
   style="stroke-width:0.257004" />
<path
   fill-rule="evenodd"
   d="m -208.80932,-273.61282 c -2.55256,-10.16937 -12.7353,-17.81318 -23.41535,-17.81318 -10.69315,0 -20.35186,7.64381 -23.42151,17.81318 -1.51118,7.11978 -1.51118,18.32359 0,25.44337 3.06939,10.16912 12.7281,17.79981 23.42151,17.79981 10.6803,0 20.86304,-7.63044 23.41535,-17.79981 2.01491,-7.11952 2.01491,-18.32359 0,-25.44337 z m -12.73505,20.87615 c -0.51735,5.06426 -5.58854,9.14831 -10.6803,9.14831 -5.0843,0 -9.68569,-4.08405 -10.69315,-9.14831 -0.50347,-4.58109 -0.50347,-11.7006 0,-16.29506 1.00771,-5.10486 5.60885,-9.16166 10.69315,-9.16166 5.09176,0 10.16295,4.05706 10.6803,9.16166 1.00746,4.59446 1.00746,11.71397 0,16.29506 z"
   id="path3"
   style="stroke-width:0.257004" />
<path
   fill-rule="evenodd"
   d="m -267.42851,-253.391 c -0.4788,-2.03341 -1.51478,-4.04009 -3.00361,-5.5559 -1.51529,-1.50167 -3.52274,-2.5117 -5.03778,-2.5117 3.00386,-1.51529 6.03444,-4.51915 7.04447,-7.54974 0.51812,-1.50218 0.51812,-3.52249 0.51812,-5.03778 0,-5.03753 -3.04292,-11.07223 -8.08045,-13.57082 -7.53638,-4.54563 -18.62223,-4.54563 -26.66362,0 -4.5523,2.49884 -7.56259,8.53329 -7.56259,13.57082 0,1.51529 0,3.5356 0.51812,5.03778 0.47829,3.03059 3.52224,6.03419 7.04447,7.54974 -2.00745,0 -4.04087,1.01028 -5.05012,2.5117 -1.51581,1.51555 -3.02442,3.52249 -3.52275,5.5559 -2.00694,7.56336 1.5284,15.59113 8.05501,19.63225 8.06143,4.5189 19.6451,4.5189 27.6996,0 6.52635,-4.04112 10.06811,-12.06889 8.04113,-19.63225 z m -26.17171,-24.68237 c 2.51221,-1.01028 6.04806,-1.01028 9.05886,0 2.02699,1.01028 3.02391,3.03059 3.02391,5.05089 0,1.99358 -0.99692,4.51915 -3.02391,5.02442 -3.0108,1.01003 -6.54665,1.01003 -9.05886,0 -2.00694,-0.50527 -3.53483,-3.03058 -3.53483,-5.02442 2.6e-4,-2.02056 1.52814,-4.04087 3.53483,-5.05089 z m 9.05886,34.74432 c -2.50527,0.50527 -6.54665,0.50527 -9.05886,0 -2.52481,-0.50475 -4.53226,-3.01722 -4.53226,-5.52917 0,-3.04396 2.00745,-5.0509 4.53226,-6.04781 2.51221,-0.51838 6.55359,-0.51838 9.05886,0 2.52583,0.99691 4.03367,3.00385 4.03367,6.04781 2.6e-4,2.51169 -1.50758,5.02442 -4.03367,5.52917 z"
   id="path4"
   style="stroke-width:0.257004" />
</svg>
