<?xml version="1.0" encoding="UTF-8" standalone="no"?>
<svg
   version="1.1"
   id="Layer_1"
   x="0px"
   y="0px"
   width="200"
   height="200"
   viewBox="-360.791 -360.781 200 200"
   xml:space="preserve"
   sodipodi:docname="ES_R301-110.svg"
   inkscape:version="1.3.2 (091e20e, 2023-11-25, custom)"
   xmlns:inkscape="http://www.inkscape.org/namespaces/inkscape"
   xmlns:sodipodi="http://sodipodi.sourceforge.net/DTD/sodipodi-0.dtd"
   xmlns="http://www.w3.org/2000/svg"
   xmlns:svg="http://www.w3.org/2000/svg"><defs
   id="defs5" /><sodipodi:namedview
   id="namedview5"
   pagecolor="#ffffff"
   bordercolor="#000000"
   borderopacity="0.25"
   inkscape:showpageshadow="2"
   inkscape:pageopacity="0.0"
   inkscape:pagecheckerboard="true"
   inkscape:deskcolor="#d1d1d1"
   inkscape:zoom="1.0667103"
   inkscape:cx="384.828"
   inkscape:cy="384.828"
   inkscape:window-width="1920"
   inkscape:window-height="1017"
   inkscape:window-x="-8"
   inkscape:window-y="-8"
   inkscape:window-maximized="1"
   inkscape:current-layer="Layer_1" />
<path
   fill="#e41408"
   d="m -360.791,-261.4142 c 0,-54.87805 44.49289,-99.3668 99.37713,-99.3668 54.87417,0 99.37299,44.48875 99.37299,99.3668 0,54.88011 -44.49882,99.37506 -99.37299,99.37506 -54.88424,0 -99.37713,-44.49495 -99.37713,-99.37506"
   id="path1"
   style="stroke-width:0.258222" />
<path
   fill="#ffffff"
   d="m -334.28687,-261.4142 c 0,-40.24437 32.62269,-72.87093 72.873,-72.87093 40.24436,0 72.86499,32.62682 72.86499,72.87093 0,40.2503 -32.62063,72.86706 -72.86499,72.86706 -40.25031,0 -72.873,-32.61676 -72.873,-72.86706"
   id="path2"
   style="stroke-width:0.258222" />
<path
   fill-rule="evenodd"
   d="m -306.72558,-234.43804 h 12.37269 v -52.64391 h -10.98294 v 2.29585 c 0,2.74257 -2.76684,5.49779 -5.49754,5.49779 h -4.5793 v 10.51169 h 8.68735 v 34.33858"
   id="path3"
   style="stroke-width:0.258222" />
<path
   fill-rule="evenodd"
   d="m -274.70609,-234.43804 h 12.37269 v -52.64391 h -10.98294 v 2.29585 c 0,2.74257 -2.76685,5.49779 -5.49754,5.49779 h -4.5793 v 10.51169 h 8.68735 v 34.33858"
   id="path4"
   style="stroke-width:0.258222" />
<path
   fill-rule="evenodd"
   d="m -208.18793,-272.51851 c -2.29585,-9.14647 -11.4542,-16.02136 -21.0603,-16.02136 -9.61773,0 -18.30508,6.87489 -21.06572,16.02136 -1.35928,6.40364 -1.35928,16.48074 0,22.88438 2.76064,9.14647 11.44799,16.00949 21.06572,16.00949 9.60585,0 18.76445,-6.86302 21.0603,-16.00949 1.8122,-6.40364 1.8122,-16.48074 0,-22.88438 z m -11.45445,18.77633 c -0.46532,4.55503 -5.02655,8.22798 -9.60585,8.22798 -4.57311,0 -8.71137,-3.6732 -9.61773,-8.22798 -0.45292,-4.12044 -0.45292,-10.52382 0,-14.65614 0.90636,-4.59144 5.04462,-8.24037 9.61773,-8.24037 4.5793,0 9.14053,3.64893 9.60585,8.24037 0.9061,4.13232 0.9061,10.5357 0,14.65614 z"
   id="path5"
   style="stroke-width:0.258222" />
</svg>
