<?xml version="1.0" encoding="UTF-8" standalone="no"?>
<!-- Created with Inkscape (http://www.inkscape.org/) -->

<svg
   width="200"
   height="192.317"
   id="svg2"
   version="1.1"
   inkscape:version="1.3.2 (091e20e, 2023-11-25, custom)"
   sodipodi:docname="ES_R411.svg"
   xmlns:inkscape="http://www.inkscape.org/namespaces/inkscape"
   xmlns:sodipodi="http://sodipodi.sourceforge.net/DTD/sodipodi-0.dtd"
   xmlns="http://www.w3.org/2000/svg"
   xmlns:svg="http://www.w3.org/2000/svg"
   xmlns:rdf="http://www.w3.org/1999/02/22-rdf-syntax-ns#"
   xmlns:cc="http://creativecommons.org/ns#"
   xmlns:dc="http://purl.org/dc/elements/1.1/">
  <defs
     id="defs4" />
  <sodipodi:namedview
     id="base"
     pagecolor="#ffffff"
     bordercolor="#666666"
     borderopacity="1.0"
     inkscape:pageopacity="0.0"
     inkscape:pageshadow="2"
     inkscape:zoom="0.7"
     inkscape:cx="433.57143"
     inkscape:cy="299.28571"
     inkscape:document-units="px"
     inkscape:current-layer="layer1"
     showgrid="false"
     fit-margin-top="0"
     fit-margin-left="0"
     fit-margin-right="0"
     fit-margin-bottom="0"
     inkscape:window-width="1920"
     inkscape:window-height="1017"
     inkscape:window-x="-8"
     inkscape:window-y="-8"
     inkscape:window-maximized="1"
     inkscape:showpageshadow="2"
     inkscape:pagecheckerboard="true"
     inkscape:deskcolor="#d1d1d1" />
  <metadata
     id="metadata7">
    <rdf:RDF>
      <cc:Work
         rdf:about="">
        <dc:format>image/svg+xml</dc:format>
        <dc:type
           rdf:resource="http://purl.org/dc/dcmitype/StillImage" />
      </cc:Work>
    </rdf:RDF>
  </metadata>
  <g
     inkscape:label="Capa 1"
     inkscape:groupmode="layer"
     id="layer1"
     transform="translate(-27.935532,-82.5738)">
    <circle
       style="fill:#ffffff;fill-opacity:1;fill-rule:nonzero;stroke:#0000ff;stroke-width:0.954252;stroke-linecap:round;stroke-linejoin:round;stroke-miterlimit:4;stroke-dasharray:none;stroke-dashoffset:0;stroke-opacity:1"
       id="path3790"
       cx="126.33967"
       cy="178.9088"
       r="94.743576" />
    <path
       inkscape:connector-curvature="0"
       id="path3784"
       d="m 27.994948,274.55076 c 0.21319,-0.21319 0.766555,-0.23598 1.229695,-0.0507 0.51181,0.20481 0.359783,0.35684 -0.387621,0.38762 -0.676333,0.0279 -1.055266,-0.12378 -0.842074,-0.33697 z m 84.835582,-0.54617 C 91.887631,270.46549 75.059904,262.4324 60.997162,249.26079 45.360861,234.61534 35.763163,217.56811 31.676315,197.1817 c -0.708846,-3.53592 -1.288809,-7.40824 -1.288809,-8.60516 0,-3.70567 0.2283,2.88077 -0.378832,-1.68257 -0.425191,-3.19583 -0.442862,7.88289 -0.461545,-6.03417 -0.01417,-10.5495 -0.236188,-4.30941 0.196889,-6.96888 0.231663,-1.42262 0.962276,-8.6287 0.360392,-4.68188 -0.537876,3.52709 0.09459,1.35381 0.569268,-2.85807 C 32.945735,146.1908 42.842799,126.29276 58.221429,110.96622 69.501076,99.724789 80.312554,92.942803 95.354913,87.67258 127.86922,76.28091 165.569,84.351835 190.96869,108.14197 c 12.72742,11.92092 20.57192,24.03712 26.21878,40.4962 2.68113,7.81484 4.48207,19.65299 4.6155,29.13848 0.12004,8.53325 -1.53805,5.48596 -1.86228,-1.84276 -2.06558,-46.68865 -41.80982,-88.101819 -87.85137,-90.829278 -17.84904,-1.057361 -32.961795,1.981916 -48.129886,9.679249 -18.91467,9.598599 -32.446917,23.047429 -41.687845,41.430879 -6.229511,12.39268 -8.937507,22.22542 -9.889753,35.90975 -1.216814,17.48629 1.924249,33.23766 9.691656,48.60038 9.816384,19.41529 23.765507,33.23077 42.878186,42.46738 11.496238,5.55581 21.843132,8.27621 34.656092,9.11177 20.99498,1.36911 40.47657,-3.70721 58.12599,-15.14588 24.04483,-15.58358 40.22726,-43.43365 42.34366,-72.42599 0.5258,-7.20288 2.53111,-7.05743 1.43719,3.84948 l -0.86132,8.58778 -3.38121,11.43748 c -4.65892,15.75951 -11.9879,26.29705 -23.51589,37.77205 -14.77439,14.70645 -30.07852,22.84594 -50.7714,27.00276 -6.95963,1.39806 -23.54038,1.74057 -30.15426,0.62289 z m 5.13264,-6.54671 C 90.656243,264.18258 67.770632,250.81861 52.952074,229.49486 49.173311,224.05726 43.410229,212.62125 41.37857,206.52889 36.385438,191.55593 35.67185,174.26461 39.389986,158.34244 50.145883,112.28248 95.859298,82.457378 142.27471,91.216705 c 36.14354,6.820862 64.1309,34.995775 71.3685,71.846805 1.50545,7.66511 1.50769,22.75553 0.004,31.03579 -6.94418,38.25426 -37.73241,67.7497 -76.0431,72.85004 -6.29131,0.83757 -15.0152,1.06344 -19.64152,0.50854 z M 95.265357,219.48127 c 5.639573,-1.1954 11.125603,-4.04463 15.519133,-8.06008 4.86527,-4.44658 6.99028,-8.8858 7.36677,-15.38942 0.39763,-6.86876 -0.94121,-10.72159 -5.24569,-15.09578 l -3.28294,-3.33609 2.7014,-2.72309 c 4.22237,-4.25627 5.63914,-7.72811 5.63914,-13.81888 0,-4.32541 -0.28315,-5.70924 -1.80037,-8.79891 -4.75328,-9.67958 -19.723276,-16.54893 -31.93509,-14.6542 -10.307189,1.59921 -18.956867,7.31271 -22.878976,15.11257 -1.601775,3.18544 -2.955566,9.33569 -2.217442,10.07381 0.686587,0.68659 16.047763,2.61997 17.225499,2.16803 0.476329,-0.18278 0.866052,-0.95692 0.866052,-1.7203 0,-4.20465 5.556174,-8.276 11.294268,-8.276 3.836825,0 8.539479,2.16827 9.740427,4.49105 1.553978,3.00559 -0.205236,8.73108 -3.070456,9.99304 -0.529302,0.23313 -3.403613,0.53574 -6.387356,0.67248 -2.98374,0.13674 -5.663896,0.48752 -5.955901,0.77953 -0.292002,0.292 -0.449159,3.97143 -0.349234,8.17651 l 0.181682,7.64559 6.885335,0.32079 c 6.466874,0.3013 6.993272,0.42891 8.66133,2.09972 2.576072,2.58033 2.512142,6.65725 -0.148745,9.48562 -6.514893,6.92494 -18.32354,3.86385 -20.561061,-5.32993 -0.513261,-2.10895 -0.142426,-2.09144 -9.670491,-0.45665 -10.522066,1.80534 -9.983792,1.55841 -9.495009,4.35564 0.899596,5.14826 3.543087,9.67535 8.128927,13.92114 8.392201,7.76989 18.178047,10.61291 28.788798,8.36381 z m 76.541723,-1.2811 c 5.65838,-2.12981 8.46777,-4.04799 12.83061,-8.76035 6.03079,-6.514 9.15804,-15.23668 9.80026,-27.33539 0.78458,-14.78046 -2.98652,-27.06472 -10.80936,-35.21141 -6.39151,-6.65609 -17.16038,-10.62956 -25.95341,-9.57621 -16.57952,1.98613 -27.45474,13.81197 -30.47132,33.1349 -1.59204,10.19795 0.49468,23.9874 4.96489,32.80893 2.31618,4.57076 8.69301,10.76485 13.66779,13.27612 8.22206,4.15047 17.74289,4.76028 25.97054,1.66341 z m -15.21214,-17.30008 c -4.08892,-1.11859 -7.48251,-3.9212 -9.43988,-7.79593 -1.53436,-3.03738 -1.60229,-3.66223 -1.56561,-14.40278 0.0422,-12.36209 0.39553,-13.93147 4.08157,-18.12965 5.28237,-6.01629 16.63207,-6.01629 21.91445,0 3.14166,3.57817 3.80932,5.91296 4.23071,14.79469 0.50678,10.68149 -0.37966,16.08049 -3.29894,20.09286 -3.56109,4.89451 -9.94509,7.07598 -15.9223,5.44081 z"
       style="fill:#092d78;fill-opacity:1;stroke-width:0.29037"
       sodipodi:nodetypes="sccsssssssssssssssssssssssssscsssscssssscsccsssscsssssscssssssscsssssssssssssssssssssssss" />
  </g>
</svg>
