<?xml version="1.0" encoding="UTF-8" standalone="no"?>
<svg
   width="200"
   height="200"
   id="svg2"
   version="1.1"
   inkscape:version="1.3.2 (091e20e, 2023-11-25, custom)"
   sodipodi:docname="ES_R411-20.svg"
   xmlns:inkscape="http://www.inkscape.org/namespaces/inkscape"
   xmlns:sodipodi="http://sodipodi.sourceforge.net/DTD/sodipodi-0.dtd"
   xmlns="http://www.w3.org/2000/svg"
   xmlns:svg="http://www.w3.org/2000/svg"
   xmlns:rdf="http://www.w3.org/1999/02/22-rdf-syntax-ns#"
   xmlns:cc="http://creativecommons.org/ns#"
   xmlns:dc="http://purl.org/dc/elements/1.1/">
  <defs
     id="defs4" />
  <sodipodi:namedview
     id="base"
     pagecolor="#ffffff"
     bordercolor="#666666"
     borderopacity="1.0"
     inkscape:pageopacity="0.0"
     inkscape:pageshadow="2"
     inkscape:zoom="0.98994949"
     inkscape:cx="479.31738"
     inkscape:cy="270.21581"
     inkscape:document-units="px"
     inkscape:current-layer="layer4"
     showgrid="false"
     fit-margin-top="0"
     fit-margin-left="0"
     fit-margin-right="0"
     fit-margin-bottom="0"
     inkscape:window-width="1920"
     inkscape:window-height="1017"
     inkscape:window-x="-8"
     inkscape:window-y="-8"
     inkscape:window-maximized="1"
     inkscape:document-rotation="0"
     inkscape:showpageshadow="2"
     inkscape:pagecheckerboard="true"
     inkscape:deskcolor="#d1d1d1" />
  <metadata
     id="metadata7">
    <rdf:RDF>
      <cc:Work
         rdf:about="">
        <dc:format>image/svg+xml</dc:format>
        <dc:type
           rdf:resource="http://purl.org/dc/dcmitype/StillImage" />
      </cc:Work>
    </rdf:RDF>
  </metadata>
  <g
     inkscape:label="Capa 1"
     inkscape:groupmode="layer"
     id="layer1"
     transform="translate(-24.684594,-76.980789)">
    <circle
       style="fill:#ffffff;fill-opacity:1;fill-rule:nonzero;stroke:#0000ff;stroke-width:0.955637;stroke-linecap:round;stroke-linejoin:round;stroke-miterlimit:4;stroke-dasharray:none;stroke-dashoffset:0;stroke-opacity:1"
       id="path3790"
       cx="126.48245"
       cy="179.04858"
       r="94.881058" />
    <path
       inkscape:connector-curvature="0"
       id="path3784"
       d="m 27.995035,274.82933 c 0.213499,-0.2135 0.767666,-0.23632 1.231479,-0.0507 0.512552,0.2051 0.360305,0.35735 -0.388184,0.38818 -0.677315,0.0279 -1.056798,-0.12396 -0.843295,-0.33746 z m 84.958685,-0.54696 C 91.980429,270.73813 75.128285,262.69339 61.045137,249.50267 45.386147,234.83596 35.774521,217.76399 31.681743,197.348 c -0.709875,-3.54105 -1.290679,-7.41899 -1.290679,-8.61764 0,-3.71105 0.228631,2.88494 -0.379382,-1.68501 -0.425808,-3.20047 -0.443505,7.89432 -0.462214,-6.04293 -0.01419,-10.56481 -0.236531,-4.31566 0.197174,-6.97899 0.231999,-1.42468 0.963673,-8.64122 0.360915,-4.68867 -0.538656,3.5322 0.09473,1.35576 0.570094,-2.86222 2.275354,-20.18942 12.18678,-40.11634 27.587725,-55.46512 11.296015,-11.257743 22.123181,-18.049571 37.187367,-23.327442 32.561487,-11.4082 70.315977,-3.325563 95.752517,20.499092 12.74589,11.93822 20.60177,24.072 26.25683,40.55496 2.68502,7.82618 4.48857,19.68151 4.62219,29.18076 0.12022,8.54564 -1.54027,5.49392 -1.86498,-1.84542 -2.06858,-46.75641 -41.87049,-88.229669 -87.97885,-90.961086 -17.87493,-1.058895 -33.00962,1.984792 -48.199722,9.693294 -18.942116,9.612522 -32.494,23.080882 -41.748337,41.491002 -6.23855,12.41066 -8.950475,22.25767 -9.904103,35.96185 -1.21858,17.51167 1.927041,33.28589 9.70572,48.67091 9.830627,19.44346 23.799992,33.27898 42.940404,42.529 11.51292,5.56387 21.874828,8.28822 34.706388,9.12499 21.02544,1.3711 40.5353,-3.71258 58.21033,-15.16785 24.07972,-15.6062 40.28563,-43.49668 42.4051,-72.53109 0.52656,-7.21333 2.53479,-7.06767 1.43928,3.85507 l -0.86257,8.60024 -3.38612,11.45407 c -4.66568,15.78239 -12.0053,26.33521 -23.55002,37.82686 -14.79582,14.72779 -30.12216,22.8791 -50.84506,27.04194 -6.96973,1.40009 -23.57454,1.7431 -30.19802,0.6238 z m 5.14009,-6.55621 c -27.346555,-3.28005 -50.265374,-16.66342 -65.105436,-38.01811 -3.784245,-5.44549 -9.55569,-16.89809 -11.590298,-22.99929 -5.000377,-14.99469 -5.715,-32.3111 -1.991469,-48.25637 10.771505,-46.1268 56.551253,-75.995181 103.034013,-67.223143 36.19599,6.830759 64.22397,35.046563 71.47206,71.951063 1.50764,7.67623 1.50988,22.78855 0.004,31.08082 -6.95426,38.30977 -37.78716,67.84801 -76.15344,72.95575 -6.30044,0.83878 -15.03699,1.06499 -19.67002,0.50928 z M 95.363057,219.67993 c 5.647763,-1.19713 11.141743,-4.0505 15.541653,-8.07177 4.87233,-4.45303 7.00043,-8.8987 7.37746,-15.41176 0.3982,-6.87873 -0.94257,-10.73714 -5.25331,-15.11768 l -3.28769,-3.34093 2.70532,-2.72704 c 4.22849,-4.26245 5.64732,-7.73932 5.64732,-13.83893 0,-4.33169 -0.28356,-5.71753 -1.80298,-8.81168 -4.76019,-9.69363 -19.751902,-16.57295 -31.981437,-14.67547 -10.322145,1.60154 -18.984374,7.32332 -22.912174,15.13451 -1.6041,3.19006 -2.959855,9.34923 -2.22066,10.08842 0.687583,0.68758 16.071049,2.62377 17.250494,2.17117 0.477021,-0.18304 0.86731,-0.9583 0.86731,-1.72278 0,-4.21076 5.564236,-8.28802 11.310656,-8.28802 3.842393,0 8.55187,2.17141 9.754561,4.49757 1.556233,3.00995 -0.205534,8.74374 -3.074912,10.00753 -0.530069,0.23348 -3.408551,0.53653 -6.396624,0.67347 -2.98807,0.13693 -5.672114,0.48823 -5.964543,0.78066 -0.292426,0.29242 -0.449811,3.97719 -0.349741,8.18837 l 0.181945,7.65669 6.895327,0.32125 c 6.476257,0.30174 7.003419,0.42953 8.673897,2.10277 2.579811,2.58407 2.515791,6.6669 -0.14896,9.49938 -6.524346,6.93499 -18.350129,3.86946 -20.590896,-5.33766 -0.514006,-2.11201 -0.142633,-2.09447 -9.684524,-0.45732 -10.537334,1.80796 -9.998279,1.56068 -9.508787,4.36196 0.900902,5.15574 3.548228,9.6894 8.140723,13.94134 8.404378,7.78117 18.204424,10.62831 28.830572,8.37595 z m 76.652793,-1.28296 c 5.66658,-2.1329 8.48005,-4.05386 12.84922,-8.77306 6.03954,-6.52345 9.17134,-15.25879 9.81448,-27.37505 0.78572,-14.80191 -2.99085,-27.104 -10.82504,-35.26251 -6.40078,-6.66575 -17.18528,-10.64498 -25.99107,-9.59011 -16.60358,1.98901 -27.49458,13.83202 -30.51553,33.18298 -1.59436,10.21275 0.49539,24.02222 4.97209,32.85654 2.31954,4.5774 8.70562,10.78047 13.68762,13.29539 8.23399,4.1565 17.76864,4.76719 26.00823,1.66582 z m -15.23422,-17.32518 c -4.09485,-1.12021 -7.49337,-3.92689 -9.45357,-7.80724 -1.53659,-3.04179 -1.60462,-3.66754 -1.56789,-14.42368 0.0423,-12.38003 0.3961,-13.95169 4.08749,-18.15596 5.29004,-6.02502 16.65621,-6.02502 21.94625,0 3.14622,3.58336 3.81485,5.92154 4.23685,14.81616 0.50752,10.69699 -0.3802,16.10382 -3.30372,20.12202 -3.56626,4.9016 -9.95952,7.08624 -15.94541,5.4487 z"
       style="fill:#000080;fill-opacity:1;stroke-width:0.290792"
       sodipodi:nodetypes="sccsssssssssssssssssssssssssscsssscssssscsccsssscsssssscssssssscsssssssssssssssssssssssss" />
  </g>
  <g
     inkscape:groupmode="layer"
     id="layer5"
     inkscape:label="Capa 3">
    <path
       style="fill:#000080;stroke:none;stroke-width:0.290792;stroke-linecap:round;stroke-linejoin:round"
       d="M 42.548505,51.553119 24.04264,118.23298 45.779688,151.13229 161.51478,148.19486 179.7269,100.90209 167.97714,60.952923 45.192199,53.021837 41.37353,49.496911 45.485942,53.90307 45.192199,55.078045 44.898456,53.90307"
       id="path2119" />
  </g>
  <g
     inkscape:groupmode="layer"
     id="layer4"
     inkscape:label="Capa 2">
    <text
       xml:space="preserve"
       style="font-style:normal;font-variant:normal;font-weight:normal;font-stretch:normal;font-size:108.995px;line-height:63.8642px;font-family:Ccrige;-inkscape-font-specification:Ccrige;letter-spacing:0px;word-spacing:0px;fill:#ffffff;stroke:none;stroke-width:0.290792px;stroke-linecap:butt;stroke-linejoin:miter;stroke-opacity:1"
       x="27.762651"
       y="140.58177"
       id="text2116"><tspan
         sodipodi:role="line"
         id="tspan2114"
         x="27.762651"
         y="140.58177"
         style="fill:#ffffff;stroke-width:0.290792px">20</tspan></text>
  </g>
</svg>
