<?xml version="1.0" encoding="UTF-8" standalone="no"?>
<svg
   version="1.1"
   id="Layer_1"
   x="0px"
   y="0px"
   width="198.257"
   height="198.24899"
   viewBox="-360.791 -360.781 198.25701 198.24899"
   xml:space="preserve"
   sodipodi:docname="ES_R301-30.svg"
   inkscape:version="1.3.2 (091e20e, 2023-11-25, custom)"
   xmlns:inkscape="http://www.inkscape.org/namespaces/inkscape"
   xmlns:sodipodi="http://sodipodi.sourceforge.net/DTD/sodipodi-0.dtd"
   xmlns="http://www.w3.org/2000/svg"
   xmlns:svg="http://www.w3.org/2000/svg"><defs
   id="defs4" /><sodipodi:namedview
   id="namedview4"
   pagecolor="#ffffff"
   bordercolor="#000000"
   borderopacity="0.25"
   inkscape:showpageshadow="2"
   inkscape:pageopacity="0.0"
   inkscape:pagecheckerboard="true"
   inkscape:deskcolor="#d1d1d1"
   inkscape:zoom="0.7542781"
   inkscape:cx="385.13647"
   inkscape:cy="385.13647"
   inkscape:window-width="1920"
   inkscape:window-height="1017"
   inkscape:window-x="-8"
   inkscape:window-y="-8"
   inkscape:window-maximized="1"
   inkscape:current-layer="Layer_1" />
<path
   fill="#e41408"
   d="m -360.791,-261.66076 c 0,-54.74188 44.38248,-99.12024 99.13054,-99.12024 54.73801,0 99.12642,44.37836 99.12642,99.12024 0,54.74393 -44.38841,99.12847 -99.12642,99.12847 -54.74806,0 -99.13054,-44.38454 -99.13054,-99.12847"
   id="path1"
   style="stroke-width:0.257581" />
<path
   fill="#ffffff"
   d="m -334.35263,-261.66076 c 0,-40.14451 32.54174,-72.69012 72.69217,-72.69012 40.1445,0 72.68419,32.54587 72.68419,72.69012 0,40.15042 -32.53969,72.68625 -72.68419,72.68625 -40.15043,0 -72.69217,-32.53583 -72.69217,-72.68625"
   id="path2"
   style="stroke-width:0.257581" />
<path
   fill-rule="evenodd"
   d="m -312.11413,-249.7886 c 0.51259,2.03849 1.51175,5.06198 2.01841,6.58068 2.02484,4.02315 6.04104,8.5795 10.08429,10.07141 6.06114,2.53125 15.13984,2.53125 21.71433,0.51954 5.04859,-2.01145 9.57789,-6.56754 11.09659,-11.60325 0.49249,-2.02484 1.01229,-5.06223 1.01229,-6.55363 0,-2.5315 -1.01229,-5.0491 -1.51844,-7.08734 -1.53183,-2.0117 -4.04376,-3.52989 -6.06165,-4.52904 1.5187,-0.49327 3.53015,-2.01171 5.0491,-3.53067 2.01119,-3.05078 2.53073,-8.07284 1.01255,-12.10939 -1.53183,-5.55473 -7.06081,-11.09659 -12.61605,-12.61554 -5.04859,-1.5187 -12.10888,-1.5187 -17.15773,0 -1.51174,0.51954 -3.53015,1.5187 -5.0424,2.01171 -5.06198,3.03713 -9.0787,9.61807 -9.0787,15.65293 l 13.62861,1.5053 c -0.52032,-2.51759 0.99864,-5.54159 3.52963,-6.55414 2.5315,-1.5187 6.04156,-2.02485 8.57255,-0.98576 2.53099,0.47961 4.5293,2.98407 4.5293,6.0346 -0.49945,1.5053 -1.51174,3.024 -3.01756,3.53041 -2.51038,1.51869 -6.55363,2.02458 -9.59128,1.51869 v 12.1094 c 2.51734,-0.51954 6.56728,-0.51954 8.57925,0 2.51785,0.49275 4.54295,2.01145 5.04858,4.54218 0.5131,2.51811 -0.50563,5.03571 -2.53047,6.048 -1.50582,1.01255 -3.53015,1.51896 -5.54855,1.51896 -0.99968,0 -3.03122,-0.50667 -4.02986,-0.50667 -3.0106,-1.01255 -5.54159,-4.0229 -5.54159,-7.56644 l -14.1412,1.99806"
   id="path3"
   style="stroke-width:0.257581" />
<path
   fill-rule="evenodd"
   d="m -206.32718,-275.2868 c -2.51605,-10.47324 -12.55759,-18.00027 -23.44218,-18.00027 -10.47325,0 -20.51504,7.52703 -23.45198,18.00027 -2.09464,7.52652 -2.09464,17.99976 0,25.11543 2.93694,10.46371 12.97873,17.99049 23.45198,17.99049 10.88459,0 20.92613,-7.52678 23.44218,-17.99049 2.09439,-7.11541 2.09439,-17.58865 0,-25.11543 z m -12.55759,20.92691 c -0.84177,5.02077 -5.44191,8.78943 -10.88459,8.78943 -5.02155,0 -9.64074,-3.76866 -10.47325,-8.78943 -0.84177,-5.02154 -0.84177,-11.71658 0,-16.32677 0.83251,-5.44165 5.4517,-9.21032 10.47325,-9.21032 5.44268,0 10.04282,3.76841 10.88459,9.21032 0.83122,4.61019 0.83122,11.30523 0,16.32677 z"
   id="path4"
   style="stroke-width:0.257581" />
</svg>
