<?xml version="1.0" encoding="UTF-8" standalone="no"?>
<!-- Created with Inkscape (http://www.inkscape.org/) -->

<svg
   width="200"
   height="192.728"
   id="svg2"
   version="1.1"
   inkscape:version="1.3.2 (091e20e, 2023-11-25, custom)"
   sodipodi:docname="ES_R412.svg"
   xmlns:inkscape="http://www.inkscape.org/namespaces/inkscape"
   xmlns:sodipodi="http://sodipodi.sourceforge.net/DTD/sodipodi-0.dtd"
   xmlns="http://www.w3.org/2000/svg"
   xmlns:svg="http://www.w3.org/2000/svg"
   xmlns:rdf="http://www.w3.org/1999/02/22-rdf-syntax-ns#"
   xmlns:cc="http://creativecommons.org/ns#"
   xmlns:dc="http://purl.org/dc/elements/1.1/">
  <defs
     id="defs4" />
  <sodipodi:namedview
     id="base"
     pagecolor="#ffffff"
     bordercolor="#666666"
     borderopacity="1.0"
     inkscape:pageopacity="0.0"
     inkscape:pageshadow="2"
     inkscape:zoom="0.49497475"
     inkscape:cx="138.3909"
     inkscape:cy="308.09652"
     inkscape:document-units="px"
     inkscape:current-layer="layer1"
     showgrid="false"
     fit-margin-top="0"
     fit-margin-left="0"
     fit-margin-right="0"
     fit-margin-bottom="0"
     inkscape:window-width="1920"
     inkscape:window-height="1017"
     inkscape:window-x="-8"
     inkscape:window-y="-8"
     inkscape:window-maximized="1"
     inkscape:showpageshadow="2"
     inkscape:pagecheckerboard="true"
     inkscape:deskcolor="#d1d1d1" />
  <metadata
     id="metadata7">
    <rdf:RDF>
      <cc:Work
         rdf:about="">
        <dc:format>image/svg+xml</dc:format>
        <dc:type
           rdf:resource="http://purl.org/dc/dcmitype/StillImage" />
      </cc:Work>
    </rdf:RDF>
  </metadata>
  <g
     inkscape:label="Capa 1"
     inkscape:groupmode="layer"
     id="layer1"
     transform="translate(-26.636531,-84.77149)">
    <circle
       style="fill:#ffffff;fill-opacity:1;fill-rule:nonzero;stroke:#0000ff;stroke-width:0.316684;stroke-linecap:round;stroke-linejoin:round;stroke-miterlimit:4;stroke-dasharray:none;stroke-dashoffset:0;stroke-opacity:1"
       id="path3793"
       cx="124.66593"
       cy="180.57964"
       r="95.649803" />
    <path
       inkscape:connector-curvature="0"
       id="path3767"
       d="m 26.695893,277.15991 c 0.213003,-0.213 0.765877,-0.23577 1.228607,-0.0506 0.511358,0.20462 0.359465,0.35651 -0.387278,0.38727 -0.675732,0.0278 -1.054331,-0.12367 -0.841329,-0.33667 z m 84.760397,-0.54271 c -11.42082,-1.9366 -18.854987,-4.22882 -28.245553,-8.70909 -29.414949,-14.034 -50.619563,-43.54066 -53.90939,-75.01603 -0.218707,-2.09245 -0.59953,-3.80446 -0.846279,-3.80446 -0.246746,0 0.471198,-5.18041 0.116142,-2.80065 -0.528425,3.54177 0.0227,9.71703 0.0041,-4.18769 -0.01413,-10.54015 -0.224973,-4.85181 0.104109,-3.26085 0.291693,1.41023 0.143535,-5.77765 0.163848,-4.63184 0.0632,3.56414 0.05478,-0.94243 0.529039,-5.15057 2.073473,-18.39808 11.534439,-38.52315 24.722401,-52.58869 12.024279,-12.82444 24.54206,-20.857738 41.078771,-26.362364 41.072222,-13.671835 86.295242,2.680871 110.492492,39.954224 3.96327,6.10502 7.46249,13.60053 10.41119,22.30131 2.24255,6.61713 2.3515,7.34105 2.48859,16.53527 0.12658,8.48952 0.0813,8.9773 -0.38723,4.16657 -2.66716,-27.38809 -16.896,-52.29969 -38.77502,-67.88653 C 153.80979,86.942575 119.44302,82.408899 91.264439,93.548474 61.263819,105.40834 39.827193,130.18429 32.918831,160.98296 c -6.932702,30.90719 2.778886,64.17822 25.32902,86.77496 16.221576,16.25511 36.630907,25.54429 59.642969,27.14612 17.5109,1.2189 33.51868,-1.9145 48.37682,-9.46938 13.47323,-6.8507 22.07473,-13.70112 31.47341,-25.06613 11.41727,-13.80591 18.88473,-32.60881 20.43227,-51.44799 0.50366,-6.13132 0.52922,-5.86705 0.38822,4.01315 -0.14315,10.0309 -0.25992,10.90747 -2.26292,16.9868 -5.23321,15.88335 -12.38913,27.54652 -23.98003,39.08419 -14.28429,14.21868 -29.88632,22.66066 -49.25064,26.64864 -8.44563,1.73933 -24.20477,2.21985 -31.61165,0.96388 z m 5.12809,-6.54388 C 94.664228,267.44413 76.144695,258.65897 61.622993,244.00115 36.099994,218.2389 28.733706,180.39408 42.706573,146.81668 c 7.746836,-18.61597 23.434276,-35.52943 41.230591,-44.4529 22.073326,-11.068049 45.137776,-12.833066 68.547126,-5.24559 30.63081,9.92811 53.90347,36.86078 59.73261,69.12655 1.29331,7.15881 1.42595,21.77358 0.26232,28.90354 -6.36213,38.98289 -37.4728,69.25942 -76.44998,74.40025 -6.61313,0.87222 -14.72334,1.09111 -19.44486,0.52479 z m 15.19197,-31.11501 c -0.41132,-0.41132 -0.96064,-0.53506 -1.22072,-0.27497 -0.26009,0.26008 -0.0569,0.72996 0.45151,1.04418 1.19714,0.73988 1.73772,0.1993 0.76921,-0.76921 z m -7.01907,0.35777 c 3.03745,-0.50205 3.05482,-1.12106 0.0528,-1.87929 -1.71356,-0.43281 -2.62606,-1.15476 -3.36531,-2.66255 -1.22323,-2.49496 -2.33271,-2.63188 -4.01334,-0.49532 -0.6933,0.88139 -1.71261,1.60253 -2.26513,1.60253 -1.00019,0 -2.68923,1.73632 -2.72805,2.80443 -0.0112,0.30848 0.77287,0.40226 1.7424,0.20838 0.96953,-0.19388 2.77237,-0.11523 4.00632,0.17476 2.94294,0.69164 3.7069,0.72037 6.57036,0.24706 z m 12.27088,-1.24351 c 0.214,-0.55767 0.38909,-4.97104 0.38909,-9.80748 0,-9.25835 -0.30407,-10.33195 -2.92631,-10.33195 -1.78386,0 -4.6925,-2.28772 -5.45351,-4.28933 -0.32556,-0.85631 -0.85011,-1.39736 -1.16565,-1.20235 -0.86782,0.53634 -6.47981,14.89967 -6.47981,16.58442 0,1.72422 1.1058,3.0095 2.58925,3.0095 0.57795,0 1.96953,1.0096 3.0924,2.24354 1.12286,1.23395 2.57954,2.24354 3.23704,2.24354 0.6575,0 1.87644,0.56732 2.70875,1.2607 1.8416,1.5342 3.48554,1.65289 4.00875,0.28941 z m 6.13398,-0.93515 c 1.22063,-1.04334 2.47821,-1.89698 2.79462,-1.89698 0.97381,0 8.12271,-7.77146 8.47771,-9.21599 0.31715,-1.29046 -3.62795,-12.19286 -4.885,-13.49985 -0.35006,-0.36396 -0.74069,0.21252 -0.99055,1.46186 -0.50225,2.51124 -3.1796,4.79442 -5.06673,4.32077 -0.7437,-0.18665 -1.98212,0.10186 -2.75205,0.64113 -1.33294,0.93363 -1.39985,1.43839 -1.39985,10.55932 0,10.63774 0.0907,10.81892 3.82185,7.62974 z m -34.32884,-0.93547 c 0.57751,-0.88138 1.42837,-1.60252 1.8908,-1.60252 0.46243,0 1.61182,-0.86537 2.55421,-1.92303 0.94239,-1.05767 2.01668,-1.92304 2.38733,-1.92304 0.37064,0 0.5001,-0.28122 0.28767,-0.62493 -0.21242,-0.3437 -1.59961,-0.46919 -3.08263,-0.27884 -1.98561,0.25486 -3.3658,-0.003 -5.23574,-0.9776 -1.67633,-0.87383 -3.74912,-1.32368 -6.0991,-1.32368 -2.335111,0 -4.382688,-0.44106 -5.951747,-1.28203 -3.361699,-1.80176 -3.49743,-1.62583 -0.934377,1.21117 1.238845,1.37125 2.432688,3.06108 2.65299,3.75518 0.220299,0.6941 1.532071,1.77225 2.915054,2.39589 1.38298,0.62364 3.15753,1.81835 3.94346,2.65492 1.83702,1.95543 3.35479,1.92897 4.67208,-0.0815 z m 17.04575,-0.89293 c 0,-0.71092 -1.97202,-1.51529 -2.47698,-1.01033 -0.20375,0.20375 0.0539,0.6388 0.57251,0.96679 1.19859,0.75802 1.90447,0.77415 1.90447,0.0435 z m -13.78175,-7.76071 c -0.21789,-0.35256 -1.31662,-0.6366 -2.44162,-0.6312 -1.55642,0.007 -1.81557,0.15838 -1.08394,0.6312 1.27129,0.82156 4.03332,0.82156 3.52556,0 z m 3.54467,-1.24633 c -0.36686,-0.68548 -0.95392,-1.42363 -1.30458,-1.64036 -0.35066,-0.21671 -0.64281,-1.31449 -0.64923,-2.43949 -0.007,-1.19494 -0.80379,-3.21442 -1.91669,-4.85677 -1.59125,-2.34828 -1.83979,-3.21931 -1.50893,-5.28834 0.47724,-2.98454 -0.57448,-3.33252 -1.96208,-0.64919 -1.09922,2.12564 -3.61392,3.94126 -5.45881,3.94126 -0.78707,0 -1.68063,0.75904 -2.29721,1.95138 -1.078494,2.08557 -4.3901,4.45239 -6.235202,4.45634 -0.616976,10e-4 -1.121771,0.30078 -1.121771,0.66548 0,0.42432 1.144525,0.51126 3.178397,0.24146 2.604814,-0.34554 3.603021,-0.17109 5.531366,0.96666 1.69853,1.00216 3.57163,1.42528 6.73459,1.52132 3.18708,0.0968 4.68738,0.43886 5.50319,1.2548 1.49547,1.49575 2.3369,1.42621 1.50696,-0.12455 z m -15.08287,-1.31772 c -0.21789,-0.35256 -1.100287,-0.64101 -1.960866,-0.64101 -0.860586,0 -1.564698,0.28845 -1.564698,0.64101 0,0.35256 0.882389,0.64101 1.960864,0.64101 1.14401,0 1.79583,-0.26703 1.5647,-0.64101 z m 23.07446,-8.23934 c 1.66638,-4.21532 2.2697,-6.59472 2.0317,-8.01265 -0.33315,-1.98473 -2.47667,-10.10999 -2.79689,-10.60187 -0.44485,-0.68332 -8.82219,7.53119 -9.61463,9.42775 -0.8579,2.05323 -0.8145,2.32436 0.72844,4.55082 1.00153,1.44521 1.64068,3.247 1.64068,4.62511 0,1.56655 0.48036,2.70888 1.56928,3.73186 0.86311,0.81085 1.76354,2.35872 2.00096,3.43972 l 0.43169,1.96546 0.81927,-1.5652 c 0.4506,-0.86086 1.88588,-4.26331 3.1895,-7.561 z m 35.24339,-0.0781 c 0.58807,-0.64982 1.22056,-2.14178 1.40554,-3.31547 0.18498,-1.17369 0.75571,-2.94499 1.26829,-3.93621 0.52692,-1.01895 0.74919,-2.41514 0.51142,-3.21247 -0.5288,-1.7732 -7.36587,-8.84009 -8.10854,-8.38109 -0.30275,0.18711 -0.36728,1.31666 -0.14339,2.51011 0.30138,1.6065 0.0569,2.73658 -0.94185,4.35249 -1.78829,2.89352 -1.70114,5.75271 0.32718,10.73468 0.92185,2.26426 1.95504,4.83797 2.29595,5.71936 0.61352,1.58615 0.62853,1.57753 1.46801,-0.8437 0.46649,-1.34542 1.32931,-2.97788 1.91739,-3.6277 z M 92.49402,218.508 c 0.808882,-1.09406 2.665971,-2.52127 4.126873,-3.17156 1.4609,-0.65029 3.611017,-2.20057 4.778037,-3.44506 1.21791,-1.29876 3.19776,-2.55243 4.64733,-2.94276 3.09516,-0.83344 3.29842,-1.91265 0.36022,-1.91265 -2.96115,0 -6.12006,-1.43153 -8.371103,-3.79356 -1.035491,-1.08655 -2.333538,-1.97715 -2.884549,-1.97912 -2.459796,-0.009 -5.917356,-1.48499 -7.734734,-3.30237 -1.088058,-1.08806 -2.166921,-1.78965 -2.397469,-1.5591 -0.230551,0.23054 -0.07338,1.71209 0.34927,3.29232 0.422646,1.58024 0.768447,4.33887 0.768447,6.13031 0,2.26197 0.403716,3.82412 1.321337,5.1128 0.726734,1.02061 1.466555,2.94009 1.644051,4.26552 0.813101,6.0718 1.123369,6.37411 3.39229,3.30523 z m 4.539516,-0.25433 c 1.022777,-1.23237 -0.02068,-1.24534 -1.640266,-0.0204 -1.045335,0.79065 -1.07747,0.94439 -0.200999,0.96152 0.573797,0.0112 1.402369,-0.4123 1.841265,-0.94113 z m 46.134004,-3.32673 c 0.74595,-0.94832 2.09372,-2.17426 2.99505,-2.7243 1.93324,-1.17979 3.50697,-5.28195 2.99958,-7.81887 -0.24329,-1.21648 0.10671,-2.57147 1.08938,-4.2174 1.57162,-2.63238 2.16976,-5.18433 1.9206,-8.19417 -0.2574,-3.10941 -0.18341,-4.23541 0.6033,-9.18104 0.50247,-3.1588 0.53582,-4.948 0.10197,-5.47075 -0.37255,-0.44891 -0.54882,-3.44367 -0.41757,-7.09466 0.19325,-5.37586 0.0341,-6.68809 -1.06721,-8.80107 -0.90659,-1.73933 -1.17604,-3.11385 -0.89942,-4.58832 0.26125,-1.3926 0.0747,-2.52847 -0.55104,-3.35598 -0.52027,-0.68798 -0.95512,-1.75206 -0.96634,-2.36461 -0.0112,-0.61255 -1.1618,-1.83427 -2.55687,-2.71494 -1.39507,-0.88067 -2.84749,-2.18233 -3.22761,-2.89259 -0.53192,-0.9939 -1.34036,-1.29138 -3.50947,-1.29138 -2.39987,0 -3.02168,0.28554 -4.18768,1.92303 -0.75312,1.05767 -1.78236,1.92304 -2.28718,1.92304 -1.23668,0 -1.1744,0.7819 0.66841,8.39254 4.01543,16.58324 3.58483,36.56252 -1.11775,51.86252 l -0.88658,2.88455 2.60335,2.7243 c 2.14351,2.24309 3.0214,2.7243 4.97008,2.7243 1.80557,0 2.68832,-0.40882 3.723,-1.7242 z m -10.23737,-0.51934 c -0.45303,-0.54587 -0.96793,-0.84827 -1.1442,-0.67199 -0.17628,0.17628 0.0501,0.76713 0.50319,1.313 0.45303,0.54588 0.96793,0.84827 1.1442,0.67199 0.17628,-0.17627 -0.0501,-0.76712 -0.50319,-1.313 z m 13.34105,0.36057 c 0.16025,-0.48076 -0.0801,-0.72114 -0.56089,-0.56088 -0.46273,0.15424 -0.96753,0.65903 -1.12177,1.12177 -0.16025,0.48076 0.0801,0.72113 0.56089,0.56088 0.46272,-0.15425 0.96752,-0.65904 1.12177,-1.12177 z m -41.1854,-3.09865 c -0.21487,-0.21487 -0.8886,0.13066 -1.49718,0.76783 -1.05781,1.10751 -1.04062,1.1247 0.39067,0.39067 0.82344,-0.42231 1.32137,-0.94363 1.10651,-1.1585 z m 4.76794,-7.37547 c 0,-0.45039 -0.46995,-1.48984 -1.04434,-2.3099 -0.78462,-1.1202 -0.95583,-2.34868 -0.68843,-4.93963 0.24417,-2.36575 0.0376,-4.25897 -0.65781,-6.02935 -0.8493,-2.16211 -0.8864,-3.00579 -0.22867,-5.20108 0.9887,-3.29999 0.50974,-3.8142 -1.5164,-1.62796 -1.88875,2.03799 -4.13351,2.97849 -7.109005,2.97849 -1.63862,0 -2.456392,0.4111 -3.26124,1.63946 -1.312046,2.00243 -5.725721,4.35258 -7.367852,3.92315 -0.660761,-0.17279 -1.362922,-0.0528 -1.560359,0.26667 -0.197435,0.31946 0.373351,0.58083 1.268414,0.58083 2.680668,0 6.710505,1.94605 8.115357,3.91898 0.917099,1.28794 1.864691,1.85013 3.118509,1.85013 2.618346,0 5.851456,1.53179 8.006956,3.79356 2.01428,2.1136 2.92487,2.47369 2.92487,1.15665 z m -5.7691,-1.10415 c -1.41781,-1.10903 -4.487081,-1.78073 -4.487081,-0.98199 0,0.57668 3.536601,2.21279 4.807591,2.2241 1.17051,0.0105 1.14264,-0.0976 -0.32051,-1.24211 z m 13.47952,-3.44094 c 4.59675,-4.36812 4.63232,-4.42763 4.56018,-7.62937 -0.04,-1.77481 -0.18727,-3.3415 -0.32731,-3.48153 -0.14003,-0.14004 0.009,-1.42633 0.33043,-2.85842 0.86779,-3.86227 0.1305,-4.38412 -6.19402,-4.38412 -6.11444,0 -6.57151,0.40844 -4.98289,4.45268 0.85955,2.1882 0.89905,3.03272 0.24406,5.21886 -0.67178,2.24219 -0.62945,2.84016 0.30166,4.2612 0.84854,1.29504 0.99714,2.47535 0.6862,5.45029 -0.22413,2.14434 -0.14754,3.70491 0.17595,3.58508 0.31507,-0.11672 2.65765,-2.19332 5.20574,-4.61467 z m 34.59633,2.47943 c 0,-0.52884 -0.28846,-0.96152 -0.64101,-0.96152 -0.35255,0 -0.64101,0.43268 -0.64101,0.96152 0,0.52883 0.28846,0.96151 0.64101,0.96151 0.35255,0 0.64101,-0.43268 0.64101,-0.96151 z m 11.12021,-4.30862 c 0.22242,-2.21349 0.47956,-6.4764 0.57145,-9.47313 l 0.16705,-5.44859 -4.32683,-0.18955 c -4.74007,-0.20764 -4.85854,-0.0899 -3.55021,3.52823 0.66225,1.83141 0.60553,2.46535 -0.38511,4.30487 -0.76083,1.41277 -1.00007,2.66653 -0.69327,3.63317 0.5563,1.75275 6.66789,8.37697 7.34348,7.95944 0.25798,-0.15945 0.65103,-2.10095 0.87344,-4.31444 z m -70.051978,-0.12873 c -0.950903,-1.14577 -4.528354,-2.44091 -4.528354,-1.63939 0,0.69112 3.135138,2.48846 4.405314,2.52551 0.688291,0.02 0.715065,-0.17278 0.12304,-0.88612 z m -0.378846,-11.84185 c 1.733916,-0.32394 3.480755,-1.03779 3.881862,-1.58634 0.401113,-0.54855 1.94544,-1.68815 3.431842,-2.53244 l 2.70255,-1.53507 -2.00319,-0.82975 c -1.101753,-0.45637 -2.895053,-1.93955 -3.985106,-3.29598 -1.523582,-1.8959 -2.438883,-2.46714 -3.957922,-2.47018 -2.487331,-0.005 -5.248403,-1.42434 -6.930436,-3.5627 -1.694923,-2.15475 -2.501592,-1.26127 -1.776153,1.96726 0.334205,1.4874 0.341011,3.6128 0.01616,5.0531 -0.343782,1.52429 -0.316017,3.12935 0.07178,4.14933 0.34784,0.91489 0.589981,3.11206 0.538083,4.88259 -0.0519,1.77053 -0.06976,3.44909 -0.03971,3.73011 0.03006,0.28104 1.144326,-0.36472 2.47615,-1.435 1.446572,-1.1625 3.690775,-2.1831 5.574077,-2.53493 z m 61.874664,1.81861 c 0,-0.72592 -0.28846,-1.14158 -0.64101,-0.92369 -0.35256,0.2179 -0.64102,0.81183 -0.64102,1.31986 0,0.50802 0.28846,0.92368 0.64102,0.92368 0.35255,0 0.64101,-0.59393 0.64101,-1.31985 z m 9.81669,-7.89588 c 0.18627,-0.48543 0.063,-2.10964 -0.27398,-3.60936 -0.40201,-1.78922 -0.38774,-3.41426 0.0415,-4.72626 0.48746,-1.48992 0.41325,-2.79526 -0.29117,-5.12197 -0.51994,-1.71737 -0.77312,-3.80867 -0.56263,-4.64734 0.605,-2.41049 -0.56789,-1.81342 -4.46628,2.27363 -3.81454,3.99915 -4.08538,4.76786 -2.86704,8.13713 0.59326,1.64062 0.57602,2.63663 -0.08,4.62453 -0.45988,1.39346 -0.63888,2.85276 -0.39776,3.2429 0.66365,1.07381 8.47724,0.92165 8.89739,-0.17326 z m -42.00778,-5.52753 c 0.37198,-9.93583 0.73019,-8.84139 -4.45801,-13.62057 -4.38682,-4.04098 -6.32637,-5.04617 -5.72222,-2.9656 0.85012,2.9277 0.77466,4.82003 -0.26955,6.759 -0.9427,1.7505 -1.01696,2.43512 -0.40889,3.7697 1.08284,2.37657 0.90509,4.83726 -0.50382,6.97454 -0.92409,1.40183 -1.07666,2.18075 -0.60115,3.06924 0.55865,1.04385 1.3244,1.16788 6.21044,1.00597 l 5.57321,-0.18469 z m -15.20322,0.71675 c -0.96226,-1.798 -0.84603,-4.3084 0.3023,-6.52903 0.81105,-1.5684 0.85181,-2.34327 0.23204,-4.41185 -0.65283,-2.17899 -0.58198,-2.85251 0.53827,-5.11674 1.45974,-2.95039 1.25357,-3.34438 -0.55016,-1.05132 -1.49921,1.90594 -5.07726,3.16764 -7.48404,2.63902 -1.405598,-0.30872 -2.125645,-0.0317 -3.363086,1.29396 -2.203348,2.36037 -5.895273,4.11805 -8.76041,4.17071 l -2.429329,0.0447 2.957673,0.91086 c 1.62672,0.50097 4.016981,1.88115 5.311689,3.06705 1.659041,1.51962 2.79427,2.07204 3.845229,1.87114 2.076954,-0.39704 6.396554,1.95749 8.176104,4.45663 1.14304,1.60527 1.53717,1.83975 1.69704,1.00963 0.11452,-0.59469 -0.0985,-1.6543 -0.47332,-2.35471 z m 47.13047,-1.83527 c -0.70024,-0.70025 -1.18041,0.41336 -0.67767,1.57163 0.47671,1.09829 0.51127,1.09729 0.77687,-0.0225 0.15288,-0.64457 0.10824,-1.34167 -0.0992,-1.54911 z m -44.86069,-2.55394 c -0.21301,-0.213 -0.3645,0.1656 -0.33667,0.84133 0.0308,0.74674 0.18265,0.89863 0.38727,0.38728 0.18517,-0.46274 0.1624,-1.01561 -0.0506,-1.22861 z m 53.25315,-14.19724 c 0.22543,-0.89351 -0.0406,-2.24358 -0.64317,-3.26361 -0.56522,-0.95682 -1.21825,-2.93152 -1.45118,-4.38821 -0.23294,-1.45669 -1.10902,-3.57769 -1.94687,-4.71332 -0.83785,-1.13564 -1.52336,-2.58566 -1.52336,-3.22228 0,-2.51683 -1.28374,-0.91141 -3.15846,3.94992 -2.4033,6.23195 -2.44698,7.81352 -0.29378,10.63652 1.45168,1.90325 1.61796,2.58325 1.24304,5.08344 -0.23807,1.58746 -0.23659,3.20381 0.003,3.59189 0.5796,0.93781 7.26303,-5.6629 7.77052,-7.67435 z m -72.668788,3.16722 c 0.992479,-0.37498 3.033498,-0.68179 4.5356,-0.68179 2.127424,0 3.074564,-0.37246 4.285095,-1.68514 1.879173,-2.03774 4.990453,-3.44295 7.623033,-3.44295 1.06899,0 1.94362,-0.3011 1.94362,-0.66911 0,-0.36801 -0.36057,-0.62229 -0.80127,-0.56506 -2.60422,0.33817 -4.09078,-0.3153 -6.67086,-2.93241 -1.866289,-1.89307 -3.395243,-2.88455 -4.448259,-2.88455 -2.231674,0 -5.013534,-1.55724 -6.550158,-3.66669 -0.712974,-0.97876 -1.526962,-1.54891 -1.808863,-1.26701 -0.544866,0.54487 -1.206326,5.02273 -2.05444,13.90787 -0.286046,2.99672 -0.758869,6.0255 -1.050719,6.73061 -0.434861,1.05064 -0.194628,0.97123 1.331039,-0.43997 1.023922,-0.94711 2.673701,-2.02881 3.666182,-2.4038 z m 2.65052,2.45122 c 1.081128,-1.01012 -1.258469,-0.62251 -2.569731,0.42574 -1.195809,0.95596 -1.181853,0.97812 0.35824,0.56896 0.881393,-0.23415 1.876562,-0.68177 2.211491,-0.9947 z m 31.121098,-1.82725 c 0,-1.39718 0.57691,-4.00396 1.28202,-5.79284 0.70511,-1.78888 1.28457,-3.74664 1.28766,-4.35056 0.01,-1.87585 -5.91751,-14.93902 -6.66518,-14.6898 -0.3891,0.1297 -0.87305,1.25462 -1.07545,2.49982 -0.20241,1.2452 -0.9967,3.06326 -1.7651,4.04012 -0.84715,1.07698 -1.39876,2.68831 -1.40132,4.09347 -0.003,1.27453 -0.5615,3.16271 -1.2426,4.19593 -0.98651,1.4965 -1.0942,2.14798 -0.52951,3.20311 0.78114,1.45957 8.8617,9.27848 9.62872,9.31695 0.26442,0.0133 0.48076,-1.11903 0.48076,-2.5162 z m 29.48652,-1.62626 c 0,-0.8814 -0.28845,-1.60253 -0.64101,-1.60253 -0.71611,0 -0.87863,2.11275 -0.21366,2.77771 0.70661,0.70661 0.85467,0.50302 0.85467,-1.17518 z m -48.99963,-1.26164 c 0.68436,-0.51762 0.93885,-0.95031 0.56554,-0.96152 -0.37331,-0.0112 -1.23868,0.40312 -1.92303,0.92075 -0.68436,0.51762 -0.93886,0.9503 -0.56554,0.96151 0.37331,0.0112 1.23867,-0.40312 1.92303,-0.92074 z m 6.69289,-8.8952 c 0,-1.97112 0.37471,-3.12432 1.28202,-3.94541 0.77409,-0.70055 1.28202,-1.9743 1.28202,-3.21496 0,-1.13011 0.71245,-3.10458 1.58321,-4.38773 0.87077,-1.28314 1.46416,-2.33299 1.31866,-2.33299 -0.1455,0 -1.30263,0.61248 -2.57138,1.36107 -1.85117,1.09221 -2.90881,1.28121 -5.35432,0.9568 -2.59698,-0.3445 -3.36034,-0.17344 -5.1639,1.15719 -1.16404,0.8588 -3.24591,1.75228 -4.626384,1.98551 l -2.509956,0.42405 1.620575,2.02553 c 0.891313,1.11404 1.916051,2.38609 2.277195,2.82679 0.36114,0.4407 1.7009,0.80126 2.97724,0.80126 1.88328,0 2.75436,0.47508 4.62206,2.52085 1.26579,1.38646 2.51778,2.54028 2.78219,2.56404 0.26442,0.0238 0.48077,-1.21014 0.48077,-2.742 z m -5.4486,0.86217 c -0.2179,-0.35256 -0.68462,-0.64101 -1.03718,-0.64101 -0.35255,0 -0.46274,0.28845 -0.24484,0.64101 0.21789,0.35256 0.68462,0.64101 1.03717,0.64101 0.35256,0 0.46274,-0.28845 0.24485,-0.64101 z m 24.67893,-4.08752 c 0,-1.45936 2.8514,-3.60462 4.79112,-3.60462 3.23533,0 3.54203,-0.7899 3.54203,-9.12248 0,-8.42796 -0.31977,-9.04682 -3.75638,-7.26968 -1.07198,0.55434 -2.73615,1.00789 -3.69816,1.00789 -1.18019,0 -2.41749,0.72972 -3.8041,2.24354 -1.13025,1.23395 -2.63149,2.24354 -3.33609,2.24354 -2.06948,0 -2.07279,2.64653 -0.009,7.48394 4.5099,10.57286 4.3329,10.2785 5.35166,8.89958 0.5056,-0.68435 0.91929,-1.53113 0.91929,-1.88171 z m 22.37929,-2.37736 c 1.08853,-2.85057 1.97559,-5.95146 1.97124,-6.89087 -0.009,-2.00638 -5.848,-8.43864 -7.65995,-8.43864 -0.62337,0 -1.90193,-0.60451 -2.84123,-1.34337 -3.08293,-2.42503 -3.59316,-1.46551 -3.59316,6.75708 0,7.12619 0.0535,7.41203 1.57433,8.40851 0.8659,0.56736 1.88279,0.84092 2.25978,0.60793 0.86251,-0.53306 5.14004,3.67503 5.14004,5.0566 0,2.39629 1.30357,0.67532 3.14895,-4.15724 z m -6.2258,1.8496 c -0.41131,-0.41132 -0.96064,-0.53505 -1.22072,-0.27497 -0.26009,0.26008 -0.0569,0.72997 0.45151,1.04418 1.19714,0.73988 1.73772,0.1993 0.76921,-0.76921 z M 95.751513,143.6444 c 0,-0.31484 -0.456272,-0.74752 -1.013945,-0.96152 -1.568092,-0.60173 -1.77528,-0.47127 -0.909091,0.57243 0.884373,1.0656 1.923036,1.27576 1.923036,0.38909 z m -0.663186,-7.84568 c 1.690072,-1.24952 2.253974,-1.32011 9.178963,-1.14902 0.62928,0.0155 2.05798,-0.74068 3.17489,-1.6805 1.85261,-1.55886 2.35137,-1.67248 5.68567,-1.29525 l 3.65492,0.41351 -2.02223,-2.10821 c -1.11222,-1.15952 -2.81548,-2.51752 -3.78501,-3.01779 -0.96953,-0.50027 -1.76278,-1.14265 -1.76278,-1.4275 0,-0.28485 -0.72563,-0.99337 -1.61251,-1.57447 -1.53944,-1.00869 -1.72097,-0.98166 -4.00632,0.59657 -1.3166,0.90922 -3.43513,2.08616 -4.707868,2.61542 -1.446393,0.60147 -2.603091,1.66007 -3.084906,2.82328 -0.423966,1.02354 -1.906624,2.97004 -3.294794,4.32555 -1.388165,1.35551 -2.523941,2.72575 -2.523941,3.04498 0,0.87102 3.092077,-0.0777 5.105916,-1.56657 z m 5.470773,1.36698 c 0.22376,-0.36204 -0.30124,-0.64101 -1.206365,-0.64101 -0.881393,0 -1.780803,0.28846 -1.998696,0.64101 -0.223754,0.36205 0.301239,0.64102 1.206366,0.64102 0.881391,0 1.780805,-0.28846 1.998695,-0.64102 z m 11.2177,-2.56404 c 0.74658,-0.48248 0.55901,-0.62358 -0.8391,-0.6312 -1.03913,-0.006 -1.63308,0.26127 -1.40445,0.6312 0.4919,0.7959 1.01198,0.7959 2.24355,0 z m 10.74917,-6.96285 c 1.23161,-1.53257 2.79879,-2.66958 4.11361,-2.98447 2.07955,-0.49806 2.0502,-0.52036 -1.40155,-1.06528 -1.93905,-0.30611 -4.2467,-0.50687 -5.12808,-0.44612 -0.8814,0.0607 -3.11747,0.11649 -4.96908,0.12389 -3.18335,0.0127 -3.31051,0.0754 -2.33685,1.15125 0.56633,0.62579 1.64405,1.22603 2.39494,1.33386 0.75088,0.10784 1.94669,1.12243 2.65735,2.25466 0.71067,1.13223 1.60441,2.06971 1.9861,2.08329 0.38169,0.0136 1.58929,-1.08941 2.68356,-2.45108 z"
       style="fill:#092d78;fill-opacity:1;stroke-width:0.289608"
       sodipodi:nodetypes="sscsssssssssssssssssssssssssssssssssssssssccscsssscssccsssssssssssssssssssssssscscssssssscscccsssssscssssscssssssssssssssssssscsssssssssssssssssssssssssssccsccsssssssscsscssssssscssscscccssccsssssssssssssscssssssscssssssssssssssssssscsssssssscscsscsscsssssssccssssscccssssssccsssssssscssssssssscsssssscssccccsccccsssssscccsssssssssssssssssssscssscssssssssscscsssssssssscsssscsssssscssssssscccssssssssssscsssssscsscsssssssssssssssscssssssssssss" />
    <path
       inkscape:connector-curvature="0"
       id="path3765"
       d="M 114.34084,276.64826 C 96.375743,273.8542 84.780353,269.63958 72.13822,261.3087 55.215911,250.15727 42.951179,235.04549 35.373845,216.0101 c -2.945987,-7.40076 -6.276177,-21.80781 -6.29722,-27.24298 -0.01468,-3.79219 -0.56438,-8.38023 -0.63761,-4.69559 -0.03153,1.58651 0.653069,2.03091 0.370777,3.61741 -0.323327,1.81709 0.02798,2.42029 0.03366,-7.06895 0.0071,-11.85072 -0.536621,-5.97172 -0.06903,-2.69386 1.08014,7.57198 -0.149446,-0.34698 0.656556,-6.78682 1.023481,-8.17744 1.974143,-12.50185 4.260244,-19.37918 11.380874,-34.2374 40.206249,-58.888456 75.842038,-64.859056 9.53713,-1.597898 15.11739,-1.860672 22.17481,-1.044212 13.96879,1.616025 23.23209,4.110294 33.59318,9.045429 19.95143,9.503149 34.79757,24.170859 45.1043,44.562239 5.46241,10.80714 9.21752,28.71018 9.54318,36.99249 0.48991,12.45948 -1.40347,6.79728 -1.53285,5.91589 -0.12938,-0.8814 -0.54406,-13.71752 -0.9215,-16.3617 -1.93832,-13.57862 -8.60856,-29.17643 -17.60074,-41.15781 -4.77493,-6.36222 -14.92154,-16.27686 -21.16126,-20.67746 -12.02383,-8.479885 -27.99834,-14.531503 -43.36936,-16.429606 -7.01877,-0.866717 -20.34337,-0.412962 -27.82311,0.947486 -25.102531,4.565761 -48.053243,19.93944 -62.082586,41.58641 -16.258571,25.08663 -19.555592,57.25325 -8.732323,85.19488 4.912247,12.68159 11.17495,22.1141 21.437355,32.28772 9.057046,8.97868 13.852228,12.52947 23.703282,17.55205 7.687122,3.9193 15.082278,6.4783 24.783072,8.57588 7.49486,1.62059 25.70863,1.91981 33.3326,0.54758 22.41742,-4.03487 41.74926,-14.91558 55.97649,-31.50576 12.61854,-14.7143 20.62886,-37.04134 22.74148,-57.7046 0.42864,-4.19252 1.53457,-3.1147 1.41164,0.58714 -0.65032,19.58501 -16.13534,54.21719 -34.96156,69.66375 -6.48486,5.32071 -17.60748,11.83229 -25.99741,15.21981 -12.69323,5.12503 -32.87985,7.80521 -44.8111,5.94958 z m 2.56405,-34.29166 c -3.35103,-0.23998 -7.38683,-0.95471 -8.97416,-1.58934 -1.58651,-0.63428 -3.75125,-1.34405 -4.81054,-1.57725 -2.39466,-0.52718 -4.173147,-1.82504 -5.631813,-4.10982 -0.618974,-0.96953 -1.530904,-1.76279 -2.026504,-1.76279 -1.65863,0 -5.479462,-4.20134 -5.479462,-6.02515 0,-0.93897 -0.410381,-1.86469 -0.911956,-2.05716 -1.094835,-0.42014 -1.522033,-1.3926 -2.644482,-6.01993 -0.470358,-1.93906 -1.731692,-6.79359 -2.802967,-10.78784 -1.693504,-6.31426 -1.950662,-8.36434 -1.969961,-15.70478 -0.03475,-13.21169 0.451511,-23.62066 1.217669,-26.06608 0.385868,-1.23162 0.701585,-3.34188 0.701585,-4.68947 0,-1.3476 0.289234,-2.99061 0.642741,-3.65115 0.353511,-0.66054 0.396234,-1.35333 0.09493,-1.53955 -1.329394,-0.82161 0.394606,-13.84148 1.832797,-13.84148 0.947045,0 1.346325,4.43999 0.53241,5.92037 -0.438849,0.79819 -0.83947,3.61467 -0.890273,6.25884 -0.0508,2.64417 -0.319907,5.81718 -0.598006,7.05113 l -0.505633,2.24354 2.211376,-2.09399 c 2.39121,-2.26429 5.282267,-3.35461 8.894961,-3.35461 1.701622,0 2.756691,-0.4891 4.11628,-1.90821 1.872218,-1.95418 5.608598,-3.6016 6.674448,-2.94287 0.75947,0.46938 2.63442,-0.2328 2.63442,-0.98661 0,-0.31483 -0.7304,-0.57242 -1.62312,-0.57242 -2.73605,0 -5.92981,-1.71752 -6.98379,-3.75567 -0.826241,-1.59778 -1.527214,-2.0127 -4.035728,-2.38888 -2.314259,-0.34704 -3.633719,-1.04134 -5.551372,-2.92111 -1.951101,-1.91256 -2.70918,-2.30517 -3.378473,-1.74971 -1.12359,0.9325 -1.148302,1.06102 0.940233,-4.88941 0.989948,-2.82045 2.166408,-5.12809 2.61436,-5.12809 0.447946,0 1.151647,-0.5922 1.563777,-1.31601 0.412136,-0.7238 2.191604,-2.59876 3.954388,-4.16657 1.762781,-1.56781 3.349285,-3.02123 3.525565,-3.22981 0.17628,-0.20859 2.73487,-1.02534 5.68576,-1.815 4.69345,-1.25598 6.28798,-1.38354 12.73453,-1.01882 4.0531,0.22931 7.98475,0.64264 8.737,0.9185 0.75224,0.27587 2.65606,0.5448 4.23069,0.59762 1.57464,0.0528 3.34745,0.24981 3.93955,0.43774 1.12712,0.35773 2.62659,0.63512 7.94074,1.46897 3.95081,0.61992 8.65365,3.47134 8.65365,5.24687 0,0.84664 0.43004,1.27398 1.28202,1.27398 0.70512,0 1.28203,0.26785 1.28203,0.59522 0,0.32738 0.36056,0.9864 0.80126,1.46449 1.82065,1.97516 4.40745,7.90978 3.9918,9.15799 -0.31588,0.94856 -0.26238,1.05108 0.20566,0.39416 0.51577,-0.72392 0.76367,-0.64293 1.34248,0.43861 0.39046,0.72957 0.70992,1.88704 0.70992,2.57216 0,0.68512 0.45123,1.62016 1.00273,2.07786 0.63647,0.52823 0.86614,1.37637 0.62879,2.32203 -0.20808,0.82908 -0.0842,1.48984 0.2793,1.48984 0.35928,0 0.65323,0.8324 0.65323,1.84977 0,1.01736 0.42623,2.67133 0.94719,3.67547 1.6595,3.19869 2.43841,8.62975 2.01152,14.02561 -0.22314,2.82045 -0.52349,8.44532 -0.66742,12.49972 -0.14395,4.0544 -0.59182,10.11196 -0.99528,13.46124 -0.40347,3.34928 -0.97282,8.10879 -1.26524,10.57669 -0.29242,2.46789 -0.99588,5.55952 -1.56325,6.87028 -0.56736,1.31076 -1.03157,2.9979 -1.03157,3.74919 0,1.69976 -1.73192,5.51649 -3.48465,7.67928 -0.72761,0.89786 -1.89985,2.74757 -2.60496,4.11047 -1.45907,2.82022 -5.10593,6.75342 -6.27122,6.76362 -0.42895,0.004 -1.76163,1.01717 -2.96152,2.25204 -2.09298,2.15397 -3.6746,2.66159 -1.99781,0.64118 0.5545,-0.66814 0.58338,-0.97701 0.0913,-0.97701 -1.42037,0 -0.68127,-1.14233 1.25913,-1.94606 1.08824,-0.45077 2.68529,-1.93903 3.54902,-3.30726 0.86372,-1.36823 2.26663,-2.80491 3.11757,-3.19262 2.1578,-0.98316 2.94935,-3.58748 1.92698,-6.34009 -2.78284,-7.49255 -4.38905,-10.85443 -5.18592,-10.85443 -0.49456,0 -0.8992,0.53801 -0.8992,1.19558 0,0.65757 -0.59784,1.95561 -1.32855,2.88455 -1.01937,1.29592 -1.89614,1.68898 -3.76758,1.68898 -1.34146,0 -2.73097,0.36056 -3.08779,0.80126 -0.35682,0.4407 -0.85743,4.91502 -1.11245,9.94295 -0.52056,10.26278 -0.10818,11.89963 2.55784,10.15278 1.33445,-0.87436 1.39724,-0.84035 1.12056,0.607 -0.16121,0.84329 -0.68352,1.85729 -1.16071,2.25331 -1.05746,0.87761 -16.02511,1.28242 -24.63087,0.66616 z m 8.01179,-2.76426 c 3.27613,-0.87623 3.45151,-1.87447 0.43763,-2.49088 -2.52917,-0.51727 -3.96234,-1.66687 -3.96234,-3.17833 0,-2.00169 -2.44504,-2.21193 -3.91982,-0.33706 -0.71573,0.90991 -1.62237,1.65437 -2.01475,1.65437 -0.84499,0 -3.6806,2.55532 -3.6806,3.31679 0,0.2911 1.65861,0.5337 3.68581,0.53909 2.0272,0.005 4.1185,0.28944 4.64734,0.6312 1.22885,0.79415 1.3442,0.7909 4.80673,-0.13518 z m 8.01349,0.15773 c 0,-0.80107 -2.27358,-2.02238 -2.79471,-1.50126 -0.56014,0.56015 0.84637,2.11972 1.91168,2.11972 0.48567,0 0.88303,-0.27831 0.88303,-0.61846 z m 3.71787,-0.79176 c 0.53035,-0.53036 0.76921,-3.77485 0.76921,-10.44849 0,-10.3575 -0.2409,-11.2099 -3.17301,-11.22751 -2.23097,-0.0134 -3.30339,-0.80217 -4.48074,-3.29564 -0.54995,-1.16471 -1.28702,-2.12338 -1.63795,-2.13039 -0.94412,-0.0189 -7.40156,15.74663 -7.2145,17.61385 0.11645,1.16248 0.8505,1.92521 2.6785,2.78317 1.38496,0.65001 3.04709,1.85434 3.69363,2.67628 0.64654,0.82195 2.00748,1.67718 3.02428,1.90051 1.01682,0.22332 2.35606,0.96661 2.9761,1.65174 1.29615,1.43223 2.2707,1.57024 3.36448,0.47648 z m -27.65478,-2.43585 c 0.94238,-1.05767 2.09178,-1.92303 2.55421,-1.92303 0.46243,0 1.29355,-0.69101 1.84693,-1.53558 0.55338,-0.84456 1.59864,-1.69051 2.32281,-1.87988 2.46236,-0.64393 0.48479,-1.71262 -3.17698,-1.71686 -2.56188,-0.003 -4.22053,-0.3834 -5.57102,-1.27779 -1.36727,-0.90551 -3.00933,-1.2748 -5.68183,-1.2778 -2.667432,-0.003 -4.479973,-0.40956 -6.242688,-1.40025 -1.36614,-0.76782 -2.673527,-1.20641 -2.905297,-0.97464 -0.231771,0.23178 0.741828,1.68336 2.163561,3.22575 1.421724,1.54239 2.772283,3.39457 3.001239,4.11596 0.228961,0.72139 1.097484,1.48259 1.930053,1.69155 0.832572,0.20896 2.724482,1.39146 4.204252,2.62777 1.47977,1.23631 2.94943,2.24784 3.26591,2.24784 0.31648,0 1.34646,-0.86537 2.28885,-1.92304 z m 2.78354,-0.12199 c 0,-0.84254 -1.45688,-0.31496 -1.77629,0.64325 -0.15613,0.46842 0.13692,0.61168 0.7612,0.37212 0.5583,-0.21425 1.01509,-0.67116 1.01509,-1.01537 z m 14.10225,-1.13748 c 0,-0.80107 -2.27358,-2.02238 -2.79471,-1.50125 -0.56014,0.56014 0.84636,2.11971 1.91167,2.11971 0.48567,0 0.88304,-0.27831 0.88304,-0.61846 z m -9.61518,-2.10584 c 0,-0.75068 -0.93379,-0.56392 -1.20189,0.24038 -0.13221,0.39663 0.0841,0.61297 0.48076,0.48076 0.39662,-0.1322 0.72113,-0.45672 0.72113,-0.72114 z m 36.14747,-1.49184 c 0.42678,-1.1122 -0.35568,-1.1917 -1.40465,-0.14273 -0.42307,0.42306 -0.76921,0.99092 -0.76921,1.2619 0,0.79803 1.79223,-0.12466 2.17386,-1.11917 z M 95.1105,230.15018 c 0,-0.7563 -1.250195,-1.56535 -1.709363,-1.10618 -0.459165,0.45916 0.349878,1.70936 1.106184,1.70936 0.331749,0 0.603179,-0.27143 0.603179,-0.60318 z m 17.94832,-2.52175 c 0,-0.30849 -0.90142,-0.74117 -2.00316,-0.96152 -2.8423,-0.56846 -3.12493,-0.51773 -3.12493,0.56089 0,0.69443 0.71223,0.96152 2.56404,0.96152 1.41023,0 2.56405,-0.2524 2.56405,-0.56089 z m 2.96703,-1.38102 c -0.89869,-1.06805 -1.83075,-2.99068 -2.07122,-4.27251 -0.24047,-1.28185 -1.11732,-3.3328 -1.94855,-4.55766 -1.01618,-1.49744 -1.51131,-3.14276 -1.51131,-5.02216 0,-3.20922 -1.52717,-3.91974 -2.56393,-1.19286 -0.66142,1.73967 -4.11765,4.16062 -5.94533,4.16447 -0.6257,0.001 -1.38585,0.65142 -1.68922,1.44468 -0.758055,1.98215 -2.499889,3.3817 -5.346045,4.29549 -3.581063,1.14975 -2.914043,1.95436 1.620155,1.95436 2.793763,0 4.50847,0.34175 5.60885,1.11788 1.10087,0.77647 2.87602,1.12995 5.8125,1.15743 3.34246,0.0313 4.60198,0.33407 6.0158,1.44618 2.73192,2.14893 3.99505,1.81393 2.0183,-0.5353 z m 6.90209,-7.00918 c 3.17264,-7.56274 3.73245,-11.71752 1.98959,-14.76634 -0.50385,-0.88138 -0.92631,-2.66721 -0.9388,-3.96848 -0.0125,-1.30128 -0.34088,-2.5626 -0.72975,-2.80293 -0.39895,-0.24657 -2.77202,1.61424 -5.44614,4.27052 -5.50663,5.46986 -6.35046,7.65712 -4.11868,10.67575 0.76336,1.0325 1.47646,2.99309 1.58466,4.35687 0.10822,1.36378 0.52667,2.58959 0.9299,2.72399 1.07682,0.35894 2.6292,3.65544 2.6292,5.58316 0,2.78994 1.00916,1.29529 4.10002,-6.07254 z m -21.40733,6.06653 c 0,-0.52883 -0.50479,-0.96545 -1.12177,-0.97026 -0.616969,-0.005 -1.770788,-0.18269 -2.56404,-0.39527 -1.039632,-0.27861 -1.442277,-0.11034 -1.442277,0.60276 0,1.01217 1.13039,1.51819 3.685817,1.64994 0.88773,0.0458 1.44227,-0.29535 1.44227,-0.88717 z m 16.02529,-0.59928 c 0,-1.15948 -1.40158,-3.56906 -1.89767,-3.26246 -0.70367,0.43488 0.48892,3.54124 1.35955,3.54124 0.29596,0 0.53812,-0.12546 0.53812,-0.27878 z m 41.67781,-7.74671 c 0.69847,-0.74349 1.28017,-2.19858 1.29266,-3.23352 0.0125,-1.03495 0.43496,-2.60286 0.93881,-3.48425 1.78683,-3.12574 1.23349,-4.96024 -2.72379,-9.03009 -2.02691,-2.08457 -4.0461,-3.79014 -4.48708,-3.79014 -0.52138,0 -0.80178,0.99595 -0.80178,2.84791 0,1.72819 -0.52158,3.73194 -1.3266,5.09634 -1.83946,3.11765 -1.44002,5.20184 2.96148,15.45266 l 1.10096,2.56405 0.88769,-2.53558 c 0.48823,-1.39457 1.45917,-3.14389 2.15765,-3.88738 z m -66.247675,1.66168 c 1.1853,-1.38475 3.137091,-2.84182 4.337314,-3.23793 1.200223,-0.39611 2.922291,-1.69048 3.826821,-2.87638 1.09948,-1.44148 2.7192,-2.5131 4.8866,-3.233 2.6594,-0.8833 3.10768,-1.23868 2.49449,-1.97751 -0.41113,-0.49539 -1.74074,-0.9007 -2.9547,-0.9007 -2.65152,0 -4.2264,-0.76864 -7.413101,-3.61807 -1.420904,-1.27052 -3.086815,-2.15103 -4.069699,-2.15103 -2.263525,0 -5.802467,-1.75921 -7.255843,-3.60687 -1.667155,-2.11945 -2.88236,-1.99304 -2.322093,0.24156 0.243086,0.96953 0.582938,3.78196 0.755229,6.24986 0.207939,2.97855 0.82064,5.45684 1.822467,7.37163 0.830066,1.5865 1.702849,4.03837 1.939517,5.4486 0.585258,3.48734 0.975716,4.80758 1.421837,4.80758 0.206841,0 1.345862,-1.13298 2.531161,-2.51774 z m 66.876615,1.23572 c 0,-0.35256 -0.28846,-0.64101 -0.64102,-0.64101 -0.35255,0 -0.64101,0.28845 -0.64101,0.64101 0,0.35255 0.28846,0.64101 0.64101,0.64101 0.35256,0 0.64102,-0.28846 0.64102,-0.64101 z m -62.729872,-1.22685 c 0.832308,-0.67476 1.305942,-1.43497 1.052532,-1.68936 -0.551495,-0.55359 -3.70582,1.39559 -3.70582,2.28997 0,0.96992 0.993457,0.74504 2.653288,-0.60061 z m 46.256512,-3.5028 c 1.12783,-1.19108 2.59349,-2.44979 3.25701,-2.79715 1.58216,-0.82824 3.07703,-4.94467 2.98577,-8.2219 -0.0499,-1.79331 0.36521,-3.16458 1.32906,-4.38991 1.19982,-1.52533 1.39946,-2.58064 1.3862,-7.32772 -0.009,-3.05016 0.27258,-5.90704 0.62466,-6.34861 0.35209,-0.44157 0.49195,-1.59539 0.3108,-2.56405 -0.18115,-0.96865 -0.11398,-2.3381 0.14927,-3.04321 0.28861,-0.77301 0.0838,-2.11392 -0.51588,-3.37729 -0.79831,-1.68185 -0.85195,-2.50397 -0.27181,-4.16658 0.85532,-2.45129 0.17822,-10.32928 -0.98803,-11.49552 -0.42232,-0.42232 -0.76785,-2.24154 -0.76785,-4.0427 0,-1.88711 -0.39881,-3.80212 -0.94113,-4.51914 -0.51762,-0.68435 -0.9503,-1.74167 -0.96152,-2.34959 -0.0112,-0.60792 -0.81364,-1.5164 -1.78317,-2.01884 -0.96953,-0.50245 -2.55825,-1.8079 -3.5305,-2.90101 -2.36501,-2.65902 -6.18445,-2.83305 -7.80763,-0.35577 -0.58803,0.89745 -1.72696,1.93145 -2.53094,2.29777 -1.13993,0.51938 -1.63981,1.56156 -2.2702,4.73305 -0.44462,2.23685 -1.19587,4.2157 -1.66944,4.39743 -1.30564,0.50102 -2.06919,4.14878 -1.72847,8.25753 0.23706,2.85853 -0.01,4.41225 -1.10519,6.95878 -0.8398,1.95217 -1.38471,4.48098 -1.34691,6.25072 0.0349,1.6347 0.13215,7.75991 0.2161,13.61158 0.12045,8.39681 0.37769,11.09908 1.22037,12.82023 0.58726,1.19945 1.41874,3.1335 1.84775,4.29789 0.51063,1.38591 1.60003,2.53541 3.15438,3.32838 1.3059,0.66622 2.84481,1.9293 3.4198,2.80684 0.9162,1.3983 1.96662,1.82913 5.43294,2.22835 0.45867,0.0528 1.75672,-0.87848 2.88456,-2.06956 z m -29.68928,0.72333 c -0.0143,-1.16852 -1.13457,-2.7551 -1.60979,-2.27988 -0.22401,0.22401 -0.0853,1.00891 0.3082,1.74422 0.80891,1.51144 1.3161,1.72018 1.30159,0.53566 z m 32.5732,0.032 c 0.91128,-0.91129 1.02018,-2.43584 0.17398,-2.43584 -0.95515,0 -2.65596,1.97081 -2.25738,2.61572 0.49353,0.79854 1.16275,0.74076 2.0834,-0.17988 z m -12.19601,-0.62727 c -0.3513,-1.05391 -2.2655,-2.17579 -2.80016,-1.64114 -0.60983,0.60983 0.9674,2.39661 2.11554,2.39661 0.51505,0 0.82313,-0.33996 0.68462,-0.75547 z m -29.29939,-2.47214 c 1.26664,-0.67789 1.69758,-1.90048 0.66988,-1.90048 -0.31349,0 -1.25097,0.56732 -2.08328,1.2607 -1.61509,1.3455 -0.68875,1.76481 1.4134,0.63978 z m 5.31652,-7.52406 c 0.16843,-0.27252 -0.29812,-1.89163 -1.03678,-3.59802 -1.15657,-2.67186 -1.24385,-3.47065 -0.62875,-5.75438 0.58809,-2.18346 0.53758,-2.92376 -0.28597,-4.19143 -0.77192,-1.18819 -0.90505,-2.46841 -0.5833,-5.60885 0.44636,-4.35674 -0.0864,-5.08726 -1.80121,-2.47007 -1.26432,1.92961 -4.9776,3.58982 -7.584765,3.39117 -1.431751,-0.1091 -2.218399,0.29028 -3.184775,1.6169 -1.673912,2.2979 -4.362495,3.64893 -7.261493,3.64893 -3.361972,0 -2.508864,1.51938 1.089758,1.94087 3.26724,0.38267 5.796223,1.81718 7.329765,4.15766 0.804584,1.22796 1.595043,1.59361 3.44504,1.59361 2.49444,0 6.62775,2.2993 8.22497,4.57545 0.88181,1.25663 1.76503,1.52738 2.27751,0.69816 z m -4.71765,-0.96883 c 0,-0.95563 -3.24573,-3.02276 -4.74623,-3.02276 -1.766823,0 -1.113788,1.71809 1.06041,2.78989 2.53799,1.25113 3.68582,1.32365 3.68582,0.23287 z m 12.28857,-4.14453 4.81876,-4.96784 -0.082,-6.68445 c -0.0453,-3.68823 -0.35959,-6.75656 -0.70128,-6.84534 -0.3406,-0.0885 -2.85774,-0.27949 -5.59366,-0.42446 -6.0814,-0.32223 -6.81774,0.21456 -5.64835,4.11766 0.45747,1.52686 0.61603,3.86157 0.37956,5.5885 -0.27648,2.01917 -0.0945,3.71036 0.57006,5.29751 0.67175,1.60431 0.85515,3.35357 0.58804,5.60884 -0.23075,1.94833 -0.13708,3.27742 0.23098,3.27742 0.34053,0 2.78757,-2.23553 5.43789,-4.96784 z m 34.50526,2.08329 c 0,-1.79032 -0.93511,-2.14912 -1.53394,-0.58859 -0.61553,1.60402 -0.46214,2.19111 0.57242,2.19111 0.59828,0 0.96152,-0.60539 0.96152,-1.60252 z m 11.19736,-3.36531 c 0.2524,-2.0272 0.5108,-5.12809 0.57421,-6.89088 0.0634,-1.76278 0.35799,-4.28992 0.65463,-5.61587 0.77131,-3.44769 -0.18445,-4.3198 -4.73406,-4.3198 -4.21943,0 -5.6682,0.99811 -4.53156,3.12194 0.86424,1.61485 0.89152,5.00821 0.0445,5.53171 -0.35255,0.21789 -0.64101,1.33832 -0.64101,2.48983 0,1.68551 0.7035,2.80279 3.60872,5.73127 1.98479,2.00069 3.82403,3.63761 4.0872,3.63761 0.26316,0 0.68499,-1.65862 0.9374,-3.68581 z m -52.8631,-0.60896 c 0,-1.28907 -0.18529,-1.54544 -0.72612,-1.00461 -0.39937,0.39937 -0.55266,1.1782 -0.34063,1.73073 0.5868,1.52918 1.06675,1.20249 1.06675,-0.72612 z m -16.351889,0.45858 c 0.468997,-0.75886 -3.356211,-3.20916 -5.015153,-3.21254 -1.775721,-0.004 -0.936938,1.45999 1.542265,2.69112 2.61031,1.29624 2.961446,1.34895 3.472888,0.52142 z m -6.749895,-9.84636 c 1.562352,-1.41149 3.321933,-2.29601 5.148547,-2.5881 1.680174,-0.26867 3.612604,-1.17916 4.898004,-2.30776 2.238941,-1.96581 6.116813,-3.37847 7.654463,-2.78842 0.50253,0.19284 0.91369,0.0567 0.91369,-0.30263 0,-0.35928 -1.22593,-0.85579 -2.72429,-1.10334 -2.0855,-0.34456 -3.390615,-1.14065 -5.56594,-3.39512 -2.328184,-2.41289 -3.271634,-2.9558 -5.221465,-3.00472 -2.343199,-0.0588 -7.000663,-2.84806 -7.000663,-4.19257 0,-0.33462 -0.391927,-0.60839 -0.870951,-0.60839 -0.699919,0 -0.812608,1.41612 -0.57385,7.21138 0.163406,3.96626 0.27061,9.01422 0.238235,11.2177 -0.03238,2.20347 0.118774,4.00632 0.335902,4.00632 0.217125,0 1.462869,-0.96496 2.768318,-2.14435 z m 4.22969,0.5622 c 0.684356,-0.51761 0.907302,-0.9503 0.495447,-0.96151 -1.217782,-0.0332 -2.776725,0.71367 -2.776725,1.33022 0,0.84009 0.868749,0.69967 2.281278,-0.36871 z m 18.231084,-0.94406 c 0,-0.68431 -0.28845,-1.42247 -0.64101,-1.64037 -0.36356,-0.22468 -0.64101,0.31385 -0.64101,1.24419 0,0.9022 0.28845,1.64036 0.64101,1.64036 0.35256,0 0.64101,-0.55988 0.64101,-1.24418 z m 45.10261,0.28267 c 0.43791,-1.14119 -0.13106,-2.88455 -0.94141,-2.88455 -0.31483,0 -0.57243,0.86536 -0.57243,1.92303 0,2.02614 0.88869,2.5906 1.51384,0.96152 z m -52.47424,-4.80759 c 0.21789,-0.35255 -0.0365,-0.64101 -0.56535,-0.64101 -0.52883,0 -1.13979,0.28846 -1.35768,0.64101 -0.21789,0.35256 0.0365,0.64102 0.56535,0.64102 0.52883,0 1.13979,-0.28846 1.35768,-0.64102 z m 62.10393,-10.09593 c -0.0958,-3.78998 -0.40675,-8.58768 -0.69101,-10.66157 l -0.51684,-3.7707 -3.39196,3.0528 c -1.86557,1.67903 -3.83353,3.90671 -4.37324,4.9504 -0.88357,1.70862 -0.88076,2.14888 0.0282,4.42059 0.89498,2.23677 0.90321,2.77734 0.0726,4.76535 -1.49135,3.56928 -0.88787,4.13401 4.4177,4.13401 h 4.62875 l -0.17417,-6.89088 z m -41.50462,-1.76278 0.14257,-7.05112 -4.92234,-4.64088 c -2.70729,-2.55248 -5.14774,-4.64378 -5.42322,-4.64733 -0.99278,-0.0128 -1.23172,1.97806 -0.46079,3.83927 0.67629,1.63269 0.60264,2.27202 -0.52409,4.54934 -0.98876,1.99845 -1.16421,3.03568 -0.71387,4.22017 0.89858,2.36345 0.72148,5.01246 -0.47443,7.09621 -1.98954,3.46658 -1.04356,4.07655 6.00039,3.86907 l 6.2332,-0.1836 z m -14.5097,5.11201 c 0,-0.49606 -0.49472,-1.93938 -1.09938,-3.20736 -1.06853,-2.24072 -1.05797,-2.38349 0.37647,-5.08742 1.17339,-2.21186 1.33301,-3.04888 0.77887,-4.0843 -1.0092,-1.88571 -0.85659,-4.44413 0.3911,-6.5563 1.56882,-2.6558 0.60287,-3.0003 -1.57576,-0.56199 -1.60867,1.80042 -2.37535,2.12438 -5.65449,2.38938 -3.166346,0.25589 -4.188228,0.6608 -6.181132,2.4492 -2.446361,2.19532 -3.6344,2.66179 -7.54804,2.96363 -1.233948,0.0952 -2.243543,0.4566 -2.243543,0.80318 0,0.34658 1.009595,0.79796 2.243543,1.00309 2.804154,0.46613 4.379599,1.31706 6.361594,3.436 1.216302,1.30034 2.166541,1.66139 4.372605,1.66139 2.534723,0 3.120623,0.31452 5.817613,3.12305 2.93223,3.05348 3.96055,3.48668 3.96055,1.66845 z m 46.69369,-3.22802 c -0.34847,-1.79754 -1.8229,-1.89558 -1.8229,-0.12121 0,0.85202 0.19712,1.74623 0.43803,1.98714 0.68062,0.68063 1.63045,-0.59913 1.38487,-1.86593 z m -45.02706,-3.23011 c -0.31029,-0.80858 -0.61894,-0.91949 -1.13175,-0.40668 -0.38781,0.38781 -0.51313,1.20542 -0.27848,1.81691 0.31028,0.80857 0.61895,0.91948 1.13175,0.40667 0.38782,-0.38781 0.51313,-1.20542 0.27848,-1.8169 z m 49.30739,-9.4271 c 3.84259,-3.72185 4.38551,-5.67407 2.55437,-9.18511 -0.52666,-1.00983 -0.96737,-2.70142 -0.97935,-3.75909 -0.0126,-1.11398 -0.82333,-2.98239 -1.92698,-4.44101 -1.04786,-1.38489 -1.9052,-3.04351 -1.9052,-3.68582 0,-0.64231 -0.28846,-1.16783 -0.64101,-1.16783 -0.35256,0 -0.642,0.0721 -0.64321,0.16025 -0.001,0.0881 -0.86657,2.28144 -1.92303,4.874 -2.2969,5.63661 -2.4564,9.03653 -0.54522,11.62156 1.13378,1.53351 1.30956,2.41848 0.99984,5.03361 -0.60413,5.1009 0.21762,5.19103 5.00979,0.54944 z m -66.269051,0.85887 c 1.419865,-1.18287 1.43414,-1.26035 0.231264,-1.25515 -0.705115,0.003 -2.291614,0.55827 -3.525562,1.23383 l -2.24354,1.22828 2.01227,0.0268 c 1.106749,0.0148 2.693252,-0.54044 3.525568,-1.23383 z m 17.511191,-0.70663 c -0.54949,-0.88911 -0.93414,-0.72332 -0.93414,0.40264 0,0.54964 0.29316,0.81816 0.65147,0.59671 0.3583,-0.22144 0.48551,-0.67115 0.28267,-0.99935 z m 13.36505,-1.84428 c 0.20652,-1.74382 0.82361,-4.03714 1.37131,-5.09626 1.6539,-3.1983 1.212,-6.1327 -2.00169,-13.29175 -2.84202,-6.33111 -4.14271,-7.75473 -4.55935,-4.99025 -0.45778,3.03745 -0.83513,3.9825 -2.24551,5.62388 -1.08555,1.26333 -1.42566,2.29533 -1.21946,3.70026 0.19687,1.34135 -0.15625,2.54644 -1.13348,3.86821 -0.91388,1.23608 -1.29069,2.43284 -1.05797,3.36007 0.36026,1.4354 8.84845,9.99644 9.91137,9.99644 0.3076,0 0.72824,-1.42677 0.93478,-3.1706 z m 29.57608,-1.54427 c -0.23401,-0.93238 -0.69172,-1.69525 -1.01712,-1.69525 -1.02476,0 -1.32138,1.76633 -0.54137,3.22379 0.98881,1.84763 2.12594,0.73236 1.55849,-1.52854 z m -48.64612,-0.68132 c 1.86334,-1.36251 0.69257,-1.89926 -1.57969,-0.72423 -1.09043,0.56389 -1.98261,1.16206 -1.98261,1.32929 0,0.65913 2.38815,0.25349 3.5623,-0.60506 z m 23.36018,-3.65363 c 0,-0.35256 -0.28846,-0.46274 -0.64101,-0.24485 -0.35256,0.2179 -0.64101,0.68462 -0.64101,1.03718 0,0.35256 0.28845,0.46274 0.64101,0.24485 0.35255,-0.2179 0.64101,-0.68462 0.64101,-1.03718 z m -17.16106,-4.52912 c -0.12034,-1.5373 0.32923,-2.96809 1.45286,-4.62386 0.89493,-1.31874 1.46897,-2.65364 1.27564,-2.96643 -0.48417,-0.78341 1.18022,-4.59807 2.47456,-5.67148 2.46571,-2.04487 0.58768,-2.73413 -1.96934,-0.72278 -1.25309,0.98568 -2.60044,1.28202 -5.82889,1.28202 -3.47187,0 -4.46523,0.24978 -5.73597,1.44228 -1.27368,1.19526 -2.25348,1.43998 -5.720904,1.42887 -3.134103,-0.0101 -3.907556,0.15082 -3.082303,0.64102 2.574362,1.52916 4.300872,3.16429 4.840893,4.58466 0.437178,1.14986 1.063204,1.51834 2.579544,1.51834 2.86951,0 5.91633,1.63549 7.24868,3.89097 1.46875,2.48639 2.69157,2.08778 2.46523,-0.80361 z m -5.62025,-0.30065 c -0.64963,-0.47502 -1.41446,-0.86367 -1.69964,-0.86367 -0.93092,0 -0.54495,1.20351 0.58959,1.83843 1.58236,0.88553 2.5237,0.0589 1.11005,-0.97476 z m 24.57936,-2.70372 c 0.86658,-2.48586 3.23303,-4.58008 4.87246,-4.31194 0.73818,0.12074 1.84693,-0.0423 2.4639,-0.36236 0.98002,-0.50836 1.12177,-1.62337 1.12177,-8.8239 0,-9.33302 -0.22798,-9.74617 -4.2473,-7.69701 -1.33863,0.68248 -3.18401,1.24087 -4.10083,1.24087 -1.0908,0 -2.13548,0.63373 -3.02252,1.83351 -0.7623,1.03106 -2.21777,2.00595 -3.32561,2.22751 -1.62314,0.32463 -1.97003,0.70272 -1.97003,2.14722 0,2.36142 5.73105,15.58615 6.75439,15.58615 0.44678,0 1.10098,-0.82802 1.45377,-1.84005 z m 22.76995,-3.00734 c 2.72285,-6.39434 2.48805,-8.59162 -1.32892,-12.43643 -1.67597,-1.68819 -4.1267,-3.41533 -5.44607,-3.83808 -1.31936,-0.42276 -2.65382,-1.22426 -2.96546,-1.78112 -0.34089,-0.60915 -0.9889,-0.85041 -1.62672,-0.60566 -0.92294,0.35417 -1.03688,1.46405 -0.88061,8.57799 l 0.1795,8.17118 1.92304,0.58082 c 3.72029,1.12365 5.01425,2.03228 5.89536,4.13977 0.48925,1.17021 1.21952,2.01766 1.62283,1.88323 0.40332,-0.13444 1.58548,-2.24571 2.62705,-4.6917 z m -5.33766,3.20272 c 0,-1.02906 -1.44568,-2.84241 -2.26609,-2.84241 -1.22217,0 -1.18699,0.5865 0.1219,2.03281 1.02515,1.13278 2.14419,1.5553 2.14419,0.8096 z m -13.78174,-1.56039 c 0.21789,-0.35256 -0.0535,-0.64101 -0.60318,-0.64101 -0.54965,0 -0.99935,0.28845 -0.99935,0.64101 0,0.35256 0.27143,0.64101 0.60318,0.64101 0.33175,0 0.78146,-0.28845 0.99935,-0.64101 z m -37.499167,-1.17913 c 0,-0.70854 -2.967986,-2.04933 -3.456045,-1.56127 -0.208399,0.2084 -0.05763,0.76601 0.335036,1.23915 0.782185,0.94247 3.121009,1.18386 3.121009,0.32212 z m 20.512367,-4.66563 c 0,-0.35256 -0.28846,-0.46274 -0.64102,-0.24485 -0.35255,0.2179 -0.64101,0.68463 -0.64101,1.03718 0,0.35256 0.28846,0.46274 0.64101,0.24485 0.35256,-0.2179 0.64102,-0.68463 0.64102,-1.03718 z m -16.28314,-1.23018 c 1.20255,-0.45721 1.54193,-0.87154 1.08674,-1.32674 -0.9251,-0.9251 -5.315967,-0.0154 -5.315967,1.10139 0,1.05479 1.795921,1.15049 4.229227,0.22535 z m -5.930707,-1.41846 c 1.63586,-1.16685 2.8817,-1.44228 6.523947,-1.44228 3.82575,0 4.74042,-0.22341 6.0896,-1.48746 1.30844,-1.22586 2.20768,-1.46605 5.11322,-1.36573 1.93906,0.0669 3.92322,0.0873 4.40926,0.0452 1.0143,-0.0879 -4.33772,-5.13845 -5.48739,-5.17834 -0.41668,-0.0144 -1.3738,-0.89165 -2.12693,-1.94932 -1.56458,-2.19725 -4.40113,-2.61315 -5.85087,-0.85787 -0.48386,0.58584 -2.39414,1.73602 -4.24506,2.55596 -1.978409,0.87642 -3.365307,1.90171 -3.365307,2.48786 0,0.54838 -1.29805,2.38478 -2.884553,4.08088 -1.586502,1.6961 -2.884549,3.41447 -2.884549,3.81861 0,1.21417 2.552192,0.83069 4.708632,-0.70749 z m 18.211577,-2.24354 c 0.15158,-0.46174 -0.28063,-0.80126 -1.01998,-0.80126 -1.75803,0 -3.3109,0.65251 -3.3109,1.39121 0,0.89972 4.0217,0.35189 4.33088,-0.58995 z m 9.44104,-5.91035 c 1.08612,-2.10035 2.7505,-3.22406 4.77527,-3.22406 0.73084,0 1.32416,-0.41746 1.32416,-0.93167 0,-0.66921 -0.76746,-0.93083 -2.7243,-0.92868 -1.49836,0.002 -5.3925,-0.0839 -8.65363,-0.1901 -3.26113,-0.1062 -5.92935,-0.0675 -5.92936,0.0861 -6e-5,0.96428 3.04658,3.24637 4.33397,3.24637 1.12966,0 1.74212,0.51831 2.27234,1.92304 0.98475,2.60888 3.25741,2.61827 4.60155,0.019 z m 3.53539,-0.69785 c 0,-0.33175 -0.28846,-0.60317 -0.64102,-0.60317 -0.35255,0 -0.64101,0.4497 -0.64101,0.99934 0,0.54964 0.28846,0.82107 0.64101,0.60318 0.35256,-0.21789 0.64102,-0.6676 0.64102,-0.99935 z m 6.73061,-3.16722 c 0.2179,-0.35256 0.10771,-0.64101 -0.24484,-0.64101 -0.35256,0 -0.81929,0.28845 -1.03718,0.64101 -0.21789,0.35255 -0.10771,0.64101 0.24485,0.64101 0.35255,0 0.81928,-0.28846 1.03717,-0.64101 z"
       style="fill:#292526;stroke-width:0.289608"
       sodipodi:nodetypes="ssssssssssssssssssssssssssssssssssssssssssssssssssscsssssssssssssssssssssssssssssssssssssssssscssssssssssssssssssssssscsssssssssscsssssssssscscsssssssssssssssssssscsscsssssssssssssscssssssssscsssssssscsssssssssssssssscssssssssssssssssssssssscssssssssssssssscsssssssccsssssssccscssssssssssssssssssssssssssssssscscssssssssssscssssssssccssssscssssssssssssssssscsssssssssssssssscscssssscccccsssssssccsssssssssssssssssssssssssssssscssssccscccccsscssssssssssssssssssssssssssssssssssssssssssssssssssssssssscsssssssssssssscsssssssssssssssssssssssssssscsscssssccssscssssss" />
  </g>
</svg>
