<?xml version="1.0" encoding="UTF-8" standalone="no"?>
<svg
   version="1.1"
   id="Layer_1"
   x="0px"
   y="0px"
   width="217"
   height="213.76401"
   viewBox="-360.791 -360.781 217 213.76401"
   xml:space="preserve"
   sodipodi:docname="ES_R301-20.svg"
   inkscape:version="1.3.2 (091e20e, 2023-11-25, custom)"
   xmlns:inkscape="http://www.inkscape.org/namespaces/inkscape"
   xmlns:sodipodi="http://sodipodi.sourceforge.net/DTD/sodipodi-0.dtd"
   xmlns="http://www.w3.org/2000/svg"
   xmlns:svg="http://www.w3.org/2000/svg"><defs
   id="defs4" /><sodipodi:namedview
   id="namedview4"
   pagecolor="#ffffff"
   bordercolor="#000000"
   borderopacity="0.25"
   inkscape:showpageshadow="2"
   inkscape:pageopacity="0.0"
   inkscape:pagecheckerboard="true"
   inkscape:deskcolor="#d1d1d1"
   inkscape:zoom="1.0667103"
   inkscape:cx="384.828"
   inkscape:cy="384.828"
   inkscape:window-width="1920"
   inkscape:window-height="1017"
   inkscape:window-x="-8"
   inkscape:window-y="-8"
   inkscape:window-maximized="1"
   inkscape:current-layer="Layer_1" />
<path
   fill="#e41408"
   d="m -360.791,-253.90326 c 0,-59.02617 47.85601,-106.87774 106.88885,-106.87774 59.022,0 106.8844,47.85157 106.8844,106.87774 0,59.02839 -47.8624,106.88662 -106.8844,106.88662 -59.03284,0 -106.88885,-47.85823 -106.88885,-106.88662"
   id="path1"
   style="stroke-width:0.27774" />
<path
   fill="#ffffff"
   d="m -332.28347,-253.90326 c 0,-43.28636 35.08857,-78.3791 78.38132,-78.3791 43.28635,0 78.37271,35.09302 78.37271,78.3791 0,43.29274 -35.08636,78.37493 -78.37271,78.37493 -43.29275,0 -78.38132,-35.08219 -78.38132,-78.37493"
   id="path2"
   style="stroke-width:0.27774" />
<path
   fill-rule="evenodd"
   d="m -197.01569,-268.59571 c -2.71297,-11.29292 -13.54039,-19.40904 -25.27686,-19.40904 -11.29291,0 -22.12061,8.11612 -25.2874,19.40904 -2.25859,8.11556 -2.25859,19.40848 0,27.08105 3.16679,11.28263 13.99449,19.39848 25.2874,19.39848 11.73647,0 22.56389,-8.11585 25.27686,-19.39848 2.2583,-7.6723 2.2583,-18.96521 0,-27.08105 z m -13.54039,22.56471 c -0.90766,5.41372 -5.86782,9.47733 -11.73647,9.47733 -5.41454,0 -10.39525,-4.06361 -11.29291,-9.47733 -0.90766,-5.41454 -0.90766,-12.63356 0,-17.60455 0.89766,-5.86754 5.87837,-9.93116 11.29291,-9.93116 5.86865,0 10.82881,4.06334 11.73647,9.93116 0.89627,4.97099 0.89627,12.19001 0,17.60455 z"
   id="path3"
   style="stroke-width:0.27774" />
<path
   fill-rule="evenodd"
   d="m -305.33352,-222.96745 h 45.3583 v -13.35764 h -20.10505 l 10.1264,-8.51773 c 0.87739,-0.7374 2.34608,-2.05084 3.22318,-2.78796 4.11527,-4.24914 7.05099,-11.29986 7.05099,-17.31765 0,-3.9678 -1.4673,-9.39651 -3.51841,-12.9152 -0.88516,-1.18595 -2.49994,-2.79462 -3.5323,-3.8267 -1.17262,-1.01875 -3.07625,-2.34551 -4.54355,-3.08319 -1.61479,-0.871 -4.25582,-1.7556 -6.02502,-2.19859 -6.45357,-1.7556 -15.2671,-0.73685 -21.13158,2.64075 -2.20443,1.32704 -4.84462,3.9678 -6.165,6.31331 -2.49994,4.40968 -3.82032,11.30625 -3.23067,16.29918 h 14.67717 c -0.29468,-1.91696 0,-4.55716 0.73768,-6.31331 1.31344,-3.52508 4.98572,-6.01835 8.51135,-6.01835 1.02486,0 2.64075,0.14776 3.66589,0.44244 2.63992,0.57659 4.99905,3.08347 5.4351,5.72339 0.44244,3.08319 -0.58992,7.04432 -2.49994,9.3965 -1.90363,2.49356 -5.14014,5.87115 -7.62702,7.77395 l -19.22823,14.38916 c -0.73685,0.58992 -1.17929,1.61562 -1.17929,2.49994 v 10.8577"
   id="path4"
   style="stroke-width:0.27774" />
</svg>
