<?xml version="1.0" encoding="UTF-8" standalone="no"?>
<svg
   width="100"
   height="100"
   id="svg2"
   version="1.1"
   inkscape:version="1.3 (0e150ed6c4, 2023-07-21)"
   sodipodi:docname="ES_R411.svg"
   xmlns:inkscape="http://www.inkscape.org/namespaces/inkscape"
   xmlns:sodipodi="http://sodipodi.sourceforge.net/DTD/sodipodi-0.dtd"
   xmlns="http://www.w3.org/2000/svg"
   xmlns:svg="http://www.w3.org/2000/svg"
   xmlns:rdf="http://www.w3.org/1999/02/22-rdf-syntax-ns#"
   xmlns:cc="http://creativecommons.org/ns#"
   xmlns:dc="http://purl.org/dc/elements/1.1/">
  <defs
     id="defs4" />
  <sodipodi:namedview
     id="base"
     pagecolor="#ffffff"
     bordercolor="#666666"
     borderopacity="1.0"
     inkscape:pageopacity="0.0"
     inkscape:pageshadow="2"
     inkscape:zoom="5.6568542"
     inkscape:cx="97.227183"
     inkscape:cy="43.575455"
     inkscape:document-units="px"
     inkscape:current-layer="layer1"
     showgrid="false"
     fit-margin-top="0"
     fit-margin-left="0"
     fit-margin-right="0"
     fit-margin-bottom="0"
     inkscape:window-width="1920"
     inkscape:window-height="1017"
     inkscape:window-x="-8"
     inkscape:window-y="-8"
     inkscape:window-maximized="1"
     inkscape:document-rotation="0"
     inkscape:showpageshadow="2"
     inkscape:pagecheckerboard="true"
     inkscape:deskcolor="#d1d1d1" />
  <metadata
     id="metadata7">
    <rdf:RDF>
      <cc:Work
         rdf:about="">
        <dc:format>image/svg+xml</dc:format>
        <dc:type
           rdf:resource="http://purl.org/dc/dcmitype/StillImage" />
      </cc:Work>
    </rdf:RDF>
  </metadata>
  <g
     inkscape:label="Capa 1"
     inkscape:groupmode="layer"
     id="layer1"
     transform="translate(-24.684594,-76.980789)"
     style="display:inline">
    <circle
       style="fill:#ffffff;fill-opacity:1;fill-rule:nonzero;stroke:#0000ff;stroke-width:0.49292;stroke-linecap:round;stroke-linejoin:round;stroke-miterlimit:4;stroke-dasharray:none;stroke-dashoffset:0;stroke-opacity:1"
       id="path3790"
       cx="74.96286"
       cy="127.38594"
       r="48.939838" />
    <path
       inkscape:connector-curvature="0"
       id="path3784"
       d="m 67.984708,176.50771 c -10.818066,-1.82812 -19.510436,-5.97762 -26.774551,-12.78142 -8.076939,-7.56511 -13.034634,-16.37086 -15.145698,-26.90148 -0.366154,-1.82648 -0.665734,-3.82673 -0.665734,-4.445 0,-1.91416 0.117928,1.48807 -0.195686,-0.86913 -0.219633,-1.65081 -0.228762,4.07191 -0.238412,-3.11695 -0.0074,-5.44935 -0.122002,-2.22603 0.101704,-3.59979 0.119666,-0.73484 0.497064,-4.45715 0.186161,-2.41841 -0.277839,1.82191 0.04886,0.6993 0.294056,-1.47635 1.173632,-10.41374 6.285965,-20.69208 14.229803,-28.609008 5.826507,-5.806768 11.411181,-9.310007 19.181318,-12.032342 16.79528,-5.884372 36.26912,-1.715333 49.389341,10.573474 6.57436,6.157758 10.62644,12.416376 13.54332,20.918336 1.38494,4.03674 2.31522,10.15175 2.38413,15.05148 0.062,4.40785 -0.79446,2.83378 -0.96195,-0.95188 C 122.24553,101.7322 101.71563,80.340216 77.932843,78.931344 68.712919,78.385165 60.906416,79.955103 53.071331,83.931165 43.30095,88.889325 36.310862,95.836328 31.537456,105.3323 c -3.217856,6.40145 -4.616674,11.48055 -5.108556,18.54919 -0.628546,9.03255 0.993971,17.16894 5.006229,25.10456 5.070658,10.02898 12.276084,17.16536 22.148747,21.93654 5.938387,2.86986 11.283079,4.27509 17.901621,4.70669 10.844965,0.70721 20.90819,-1.91496 30.025003,-7.8236 12.42038,-8.04971 20.77942,-22.43569 21.87264,-37.41169 0.2716,-3.72064 1.30745,-3.64551 0.74238,1.98845 l -0.44491,4.43602 -1.74656,5.90804 c -2.40657,8.14058 -6.19236,13.58374 -12.14716,19.51116 -7.63172,7.59663 -15.537067,11.80109 -26.225983,13.9483 -3.594998,0.72216 -12.159793,0.89908 -15.576196,0.32175 z m 2.651268,-3.3817 c -14.105407,-1.69186 -25.92698,-8.59503 -33.581513,-19.60982 -1.951922,-2.80879 -4.928844,-8.71607 -5.9783,-11.86308 -2.579204,-7.7343 -2.947808,-16.66613 -1.027204,-24.89073 5.555964,-23.792297 29.169249,-39.198464 53.145149,-34.673831 18.669972,3.523319 33.126852,18.077091 36.865442,37.112491 0.77764,3.95942 0.77879,11.75438 0.002,16.03155 -3.58701,19.76027 -19.4907,34.99615 -39.280102,37.63072 -3.24978,0.43266 -7.756111,0.54933 -10.145837,0.2627 z M 58.911408,148.34366 c 2.913126,-0.61748 5.746934,-2.08925 8.016414,-4.16342 2.513157,-2.2969 3.610835,-4.58998 3.805309,-7.94943 0.205394,-3.54806 -0.48618,-5.53824 -2.709665,-7.79772 l -1.6958,-1.72326 1.395408,-1.40662 c 2.18107,-2.19857 2.912902,-3.99196 2.912902,-7.13814 0,-2.2343 -0.146262,-2.94912 -0.929983,-4.54509 -2.455312,-4.99999 -10.188069,-8.54836 -16.496087,-7.56963 -5.324183,0.82607 -9.792177,3.77738 -11.818146,7.8064 -0.827396,1.64545 -1.526697,4.82236 -1.14542,5.20363 0.354657,0.35466 8.28948,1.35335 8.897839,1.1199 0.246049,-0.0944 0.44736,-0.49429 0.44736,-0.88862 0,-2.17191 2.870045,-4.27497 5.83406,-4.27497 1.981913,0 4.411071,1.12001 5.031422,2.31984 0.802708,1.55254 -0.106016,4.51005 -1.586047,5.16192 -0.27341,0.12042 -1.758137,0.27673 -3.299391,0.34737 -1.541252,0.0706 -2.925687,0.25183 -3.076524,0.40267 -0.150833,0.15083 -0.232013,2.05144 -0.180396,4.22357 l 0.09385,3.94934 3.556622,0.16571 c 3.340467,0.15563 3.612378,0.22154 4.474014,1.0846 1.330672,1.33288 1.297651,3.43881 -0.07683,4.8998 -3.365272,3.57708 -9.465033,1.99588 -10.620826,-2.75317 -0.265126,-1.08937 -0.07357,-1.08034 -4.995297,-0.23589 -5.435178,0.93256 -5.157132,0.805 -4.904652,2.24992 0.464687,2.65932 1.830183,4.99781 4.199001,7.19096 4.334995,4.01354 9.38988,5.4821 14.870867,4.32033 z m 39.537659,-0.66175 c 2.922853,-1.10015 4.374033,-2.09099 6.627663,-4.52515 3.11521,-3.36483 4.73059,-7.87053 5.06233,-14.12012 0.40528,-7.63485 -1.54269,-13.9803 -5.58357,-18.18847 -3.30155,-3.4382 -8.864215,-5.4907 -13.406258,-4.9466 -8.56416,1.02594 -14.181759,7.13459 -15.739975,17.11585 -0.822371,5.26776 0.255526,12.39071 2.564615,16.94747 1.196423,2.36102 4.490378,5.56058 7.060103,6.85779 4.247108,2.14393 9.1651,2.45892 13.415092,0.85923 z m -7.857836,-8.93637 c -2.112133,-0.5778 -3.865095,-2.02549 -4.876171,-4.02698 -0.792578,-1.56896 -0.827664,-1.89173 -0.80872,-7.43976 0.02181,-6.38565 0.20431,-7.19631 2.108337,-9.36488 2.728611,-3.10772 8.591307,-3.10772 11.319923,0 1.622827,1.84829 1.96771,3.05433 2.18538,7.6422 0.26177,5.51752 -0.19612,8.30638 -1.704071,10.37898 -1.839486,2.52826 -5.137144,3.6551 -8.224678,2.81044 z"
       style="fill:#000080;fill-opacity:1;stroke-width:0.149992"
       sodipodi:nodetypes="ccssssssssssssssssssssssssscsssscssssscsccsssscsssssscssssssscsssssssssssssssssssssssss" />
  </g>
  <g
     inkscape:groupmode="layer"
     id="layer5"
     inkscape:label="Capa 3"
     style="display:inline">
    <path
       style="display:inline;fill:#000080;stroke:none;stroke-width:0.149992;stroke-linecap:round;stroke-linejoin:round"
       d="m 19.717325,24.349579 -9.545361,34.393606 11.212012,16.969531 59.69639,-1.515136 9.393849,-24.393702 -6.060547,-20.605861 -63.33272,-4.090871 -1.969676,-1.818163 2.12119,2.272705 -0.151514,0.606055 -0.151513,-0.606055"
       id="path2119" />
  </g>
  <g
     inkscape:groupmode="layer"
     id="layer4"
     inkscape:label="Capa 2"
     style="display:inline">
    <text
       xml:space="preserve"
       style="font-style:normal;font-variant:normal;font-weight:normal;font-stretch:normal;font-size:56.2199px;line-height:32.9413px;font-family:Ccrige;-inkscape-font-specification:Ccrige;letter-spacing:0px;word-spacing:0px;fill:#ffffff;stroke:none;stroke-width:0.149992px;stroke-linecap:butt;stroke-linejoin:miter;stroke-opacity:1"
       x="12.090755"
       y="70.270737"
       id="text2116"><tspan
         sodipodi:role="line"
         id="tspan2114"
         x="12.090755"
         y="70.270737"
         style="fill:#ffffff;stroke-width:0.149992px">30</tspan></text>
  </g>
</svg>
