<?xml version="1.0" encoding="UTF-8" standalone="no"?>
<svg
   version="1.1"
   id="Layer_1"
   x="0px"
   y="0px"
   width="100"
   height="100"
   viewBox="-360.791 -360.781 100 99.999999"
   xml:space="preserve"
   sodipodi:docname="ES_R301.svg"
   inkscape:version="1.3 (0e150ed6c4, 2023-07-21)"
   xmlns:inkscape="http://www.inkscape.org/namespaces/inkscape"
   xmlns:sodipodi="http://sodipodi.sourceforge.net/DTD/sodipodi-0.dtd"
   xmlns="http://www.w3.org/2000/svg"
   xmlns:svg="http://www.w3.org/2000/svg"><defs
   id="defs4" /><sodipodi:namedview
   id="namedview4"
   pagecolor="#ffffff"
   bordercolor="#000000"
   borderopacity="0.25"
   inkscape:showpageshadow="2"
   inkscape:pageopacity="0.0"
   inkscape:pagecheckerboard="true"
   inkscape:deskcolor="#d1d1d1"
   inkscape:zoom="5.6568542"
   inkscape:cx="104.91697"
   inkscape:cy="54.712387"
   inkscape:window-width="1920"
   inkscape:window-height="1017"
   inkscape:window-x="-8"
   inkscape:window-y="-8"
   inkscape:window-maximized="1"
   inkscape:current-layer="Layer_1" />&#10;<path
   fill="#e41408"
   d="m -360.791,-310.91346 c 0,-27.54072 22.3289,-49.86754 49.87273,-49.86754 27.53877,0 49.87065,22.32682 49.87065,49.86754 0,27.54176 -22.33188,49.87169 -49.87065,49.87169 -27.54383,0 -49.87273,-22.32993 -49.87273,-49.87169"
   id="path1"
   style="stroke-width:0.129589" />&#10;<path
   fill="#ffffff"
   d="m -347.48981,-310.91346 c 0,-20.19676 16.3718,-36.5705 36.57154,-36.5705 20.19676,0 36.56752,16.37387 36.56752,36.5705 0,20.19974 -16.37076,36.56857 -36.56752,36.56857 -20.19974,0 -36.57154,-16.36883 -36.57154,-36.56857"
   id="path2"
   style="stroke-width:0.129589" />&#10;<path
   fill-rule="evenodd"
   d="m -336.61935,-304.22263 c 0.50929,2.54021 2.28532,5.07368 4.57412,6.34055 1.77602,1.02505 4.57412,1.77576 6.60141,1.77576 4.81528,0 9.3929,-3.5523 10.65614,-8.11631 0.51291,-2.79447 0,-6.35338 -1.26324,-8.88025 -0.76406,-1.02531 -1.77576,-2.29191 -3.04936,-2.80132 -2.54022,-1.77602 -6.59494,-2.03754 -9.65117,-1.01197 l 0.25814,-2.79472 h 12.44239 v -6.3469 h -18.53128 l -1.77576,15.48178 6.84931,1.02531 c 0.75733,-1.26648 2.28881,-2.0374 3.5523,-2.29204 1.27309,0 2.79124,0.75731 3.55205,2.03053 0.76393,1.02557 1.02531,2.54695 0.76393,3.55205 -0.25127,2.03753 -2.02742,3.81381 -4.31598,3.81381 -2.03416,0 -4.05497,-1.51464 -4.31286,-3.81381 l -6.35014,2.03753"
   id="path3"
   style="stroke-width:0.129589" />&#10;<path
   fill-rule="evenodd"
   d="m -285.49621,-317.80982 c -1.48484,-5.29152 -6.56357,-9.103 -12.07294,-9.103 -5.29152,0 -10.37026,3.81148 -11.85548,9.103 -0.63343,3.81135 -0.63343,9.10301 0,12.70171 1.48522,5.29165 6.56396,9.103 11.85548,9.103 5.50937,0 10.5881,-3.81135 12.07294,-9.103 0.847,-3.59858 0.847,-8.89023 0,-12.70171 z m -6.56357,10.58331 c -0.42039,2.5393 -2.7574,4.44492 -5.29166,4.44492 -2.75675,0 -5.08353,-1.90562 -5.50923,-4.44492 -0.4209,-2.5397 -0.4209,-5.92521 0,-8.25666 0.4257,-2.74755 2.75235,-4.65316 5.50923,-4.65316 2.53426,0 4.87127,1.90561 5.29166,4.65316 0.42595,2.33145 0.42595,5.7171 0,8.25666 z"
   id="path4"
   style="stroke-width:0.129589" />&#10;</svg>
