<?xml version="1.0" encoding="UTF-8" standalone="no"?>
<svg
   height="100"
   width="100"
   version="1.0"
   id="svg3291"
   sodipodi:docname="ES_R501.svg"
   inkscape:version="1.3 (0e150ed6c4, 2023-07-21)"
   xmlns:inkscape="http://www.inkscape.org/namespaces/inkscape"
   xmlns:sodipodi="http://sodipodi.sourceforge.net/DTD/sodipodi-0.dtd"
   xmlns="http://www.w3.org/2000/svg"
   xmlns:svg="http://www.w3.org/2000/svg"
   xmlns:rdf="http://www.w3.org/1999/02/22-rdf-syntax-ns#"
   xmlns:cc="http://creativecommons.org/ns#"
   xmlns:dc="http://purl.org/dc/elements/1.1/">
  <metadata
     id="metadata3297">
    <rdf:RDF>
      <cc:Work
         rdf:about="">
        <dc:format>image/svg+xml</dc:format>
        <dc:type
           rdf:resource="http://purl.org/dc/dcmitype/StillImage" />
      </cc:Work>
    </rdf:RDF>
  </metadata>
  <defs
     id="defs3295" />
  <sodipodi:namedview
     pagecolor="#ffffff"
     bordercolor="#666666"
     borderopacity="1"
     objecttolerance="10"
     gridtolerance="10"
     guidetolerance="10"
     inkscape:pageopacity="0"
     inkscape:pageshadow="2"
     inkscape:window-width="1920"
     inkscape:window-height="1017"
     id="namedview3293"
     showgrid="false"
     inkscape:zoom="2.8284271"
     inkscape:cx="46.845824"
     inkscape:cy="15.733126"
     inkscape:window-x="-8"
     inkscape:window-y="-8"
     inkscape:window-maximized="1"
     inkscape:current-layer="layer6"
     inkscape:showpageshadow="2"
     inkscape:pagecheckerboard="true"
     inkscape:deskcolor="#d1d1d1" />
  <path
     d="M 98.112241,43.538616 C 95.441482,19.012455 74.367365,0.23490182 49.752795,0.09509303 21.371613,-0.13980628 -1.1643292,23.593248 0.22553452,51.898358 1.8463501,80.10478 26.93518,101.41328 55.042913,98.000304 81.875919,95.051983 101.4142,70.311997 98.112241,43.538616"
     fill-rule="evenodd"
     stroke="#000000"
     stroke-width="0.168237"
     fill="#ffffff"
     id="path3285"
     style="display:inline" />
  <path
     d="m 32.344,13.719 c -2.732,0.13 -5.287,1.831 -6.5,4.281 -0.756,1.449 -0.978,3.111 -1.125,4.719 -0.172,2.799 0.367,5.738 2,8.062 1.456,1.937 3.92,3.037 6.312,3.031 2.824,-0.022 5.57,-1.657 6.907,-4.156 1.064,-1.909 1.335,-4.157 1.281,-6.312 C 41.147,20.949 40.565,18.47 39,16.594 37.416,14.633 34.856,13.525 32.344,13.719 Z m -17.125,0.219 c -1.545,-0.012 -3.099,0.34 -4.407,1.187 -1.3445,0.806 -2.1888,2.185 -2.7182,3.625 -0.6715,1.716 -0.7071,3.588 -0.75,5.406 0.0162,2.106 0.4027,4.246 1.375,6.125 0.8666,1.724 2.5512,2.989 4.4372,3.375 2.124,0.441 4.573,0.166 6.25,-1.312 1.561,-1.332 2.414,-3.394 2.375,-5.438 0.012,-1.703 -0.45,-3.474 -1.625,-4.75 -1.976,-2.274 -5.611,-2.645 -8.125,-1.062 l -0.062,0.031 v -0.031 c 0.083,-1.534 1.413,-2.89 2.969,-2.938 1.053,-0.111 2.12,0.623 2.374,1.656 1.39,-0.546 2.768,-1.109 4.157,-1.656 -0.598,-2.14 -2.538,-3.766 -4.719,-4.094 -0.505,-0.078 -1.016,-0.121 -1.531,-0.124 z m 17.312,4.124 c 0.184,-0.021 0.377,-0.009 0.563,0 1.199,0.041 2.348,0.742 2.937,1.782 0.397,0.68 0.557,1.469 0.594,2.25 0.084,0.97 0.083,1.933 0.063,2.906 -0.066,0.925 -0.145,1.888 -0.594,2.719 -0.599,1.089 -1.865,1.782 -3.094,1.781 -0.845,0.046 -1.697,-0.199 -2.344,-0.75 -0.807,-0.677 -1.24,-1.723 -1.375,-2.75 -0.18,-1.148 -0.139,-2.311 -0.093,-3.469 0.052,-0.75 0.098,-1.52 0.406,-2.219 0.461,-1.225 1.648,-2.102 2.937,-2.25 z m -17.969,6.094 c 0.137,-0.017 0.271,-0.007 0.407,0 0.455,-0.008 0.906,0.11 1.281,0.375 0.306,0.207 0.584,0.469 0.781,0.781 0.281,0.454 0.405,1.001 0.407,1.532 -0.017,0.584 -0.171,1.198 -0.5,1.687 -0.249,0.368 -0.605,0.622 -1,0.813 -0.591,0.27 -1.277,0.343 -1.907,0.187 -0.257,-0.06 -0.499,-0.205 -0.719,-0.343 -0.401,-0.286 -0.716,-0.672 -0.906,-1.126 -0.185,-0.441 -0.22,-0.933 -0.187,-1.406 0.036,-0.401 0.159,-0.798 0.343,-1.156 0.213,-0.361 0.502,-0.667 0.844,-0.906 0.344,-0.219 0.748,-0.387 1.156,-0.438 z"
     fill-rule="evenodd"
     fill="#918f90"
     id="path3287"
     style="display:none" />
  <g
     inkscape:groupmode="layer"
     id="layer6"
     inkscape:label="Layer 1"
     style="opacity:1">
    <text
       xml:space="preserve"
       style="font-style:normal;font-variant:normal;font-weight:normal;font-stretch:normal;font-size:53.3969px;line-height:31.2871px;font-family:Ccrige;-inkscape-font-specification:Ccrige;letter-spacing:0px;word-spacing:0px;display:inline;fill:#918f90;fill-opacity:1;stroke:none;stroke-width:2.05601px;stroke-linecap:butt;stroke-linejoin:miter;stroke-opacity:1"
       x="11.889601"
       y="68.273941"
       id="text3863"><tspan
         sodipodi:role="line"
         id="tspan3861"
         x="11.889601"
         y="68.273941"
         style="stroke-width:2.05601px">50</tspan></text>
  </g>
  <path
     d="M 48.038082,1.5322451 C 36.070039,1.9168837 24.239749,6.8661557 15.785429,15.47447 4.1235267,26.893147 -0.72804361,44.577313 3.2560954,60.385985 7.2021983,77.31724 21.2133,91.328958 38.144554,95.274444 54.041635,99.285722 71.834358,94.28139 83.247278,82.488108 94.976824,70.879868 99.759106,52.910327 95.455874,36.998854 91.222547,20.13956 76.920931,6.3437231 59.92594,2.6881347 56.011294,1.7782468 52.0288,1.4044434 48.038082,1.5326563 Z M 49.13188,3.9094055 C 57.925441,3.8598557 66.70461,6.3844322 74.058963,11.234152 53.243903,32.057436 32.42473,52.925953 11.60967,73.749237 3.418726,61.433728 2.0198157,44.971244 7.8821213,31.407737 13.510864,17.949908 26.069599,7.6916443 40.393831,4.8728525 43.266079,4.2786652 46.200007,3.925648 49.13188,3.9089943 Z M 75.987502,12.583307 77.272509,13.547165 13.922683,76.896991 12.893649,75.611984 75.98853,12.582896 Z m 3.020281,2.37716 1.219214,1.092359 -63.800092,63.802149 -1.091742,-1.221271 63.67262,-63.67262 z m 2.827015,2.698721 1.091742,1.156301 L 19.190184,82.551845 18.033678,81.460103 81.835826,17.66001 Z m 2.570015,2.891163 0.962213,1.285007 -63.222353,63.222354 -1.282951,-1.028006 z m 2.313013,3.147754 c 8.199373,11.846738 10.115576,27.659522 5.0105,41.12023 C 86.602689,78.840333 74.063075,89.877002 59.475673,93.088492 47.37399,95.938124 34.338877,93.259141 24.073212,86.342719 Z"
     fill-rule="evenodd"
     fill="#231f20"
     id="path3289"
     style="display:inline;stroke-width:2.05601" />
</svg>
