<?xml version="1.0" encoding="UTF-8" standalone="no"?>
<svg
   width="100"
   height="100"
   id="svg2"
   version="1.1"
   inkscape:version="1.3 (0e150ed6c4, 2023-07-21)"
   sodipodi:docname="ES_R506.svg"
   xmlns:inkscape="http://www.inkscape.org/namespaces/inkscape"
   xmlns:sodipodi="http://sodipodi.sourceforge.net/DTD/sodipodi-0.dtd"
   xmlns="http://www.w3.org/2000/svg"
   xmlns:svg="http://www.w3.org/2000/svg"
   xmlns:rdf="http://www.w3.org/1999/02/22-rdf-syntax-ns#"
   xmlns:cc="http://creativecommons.org/ns#"
   xmlns:dc="http://purl.org/dc/elements/1.1/">
  <defs
     id="defs4" />
  <sodipodi:namedview
     id="base"
     pagecolor="#ffffff"
     bordercolor="#666666"
     borderopacity="1.0"
     inkscape:pageopacity="0.0"
     inkscape:pageshadow="2"
     inkscape:zoom="5.6"
     inkscape:cx="86.785714"
     inkscape:cy="64.196428"
     inkscape:document-units="px"
     inkscape:current-layer="layer1"
     showgrid="false"
     fit-margin-top="0"
     fit-margin-left="0"
     fit-margin-right="0"
     fit-margin-bottom="0"
     inkscape:window-width="1920"
     inkscape:window-height="1017"
     inkscape:window-x="-8"
     inkscape:window-y="-8"
     inkscape:window-maximized="1"
     inkscape:document-rotation="0"
     inkscape:showpageshadow="2"
     inkscape:pagecheckerboard="true"
     inkscape:deskcolor="#d1d1d1" />
  <metadata
     id="metadata7">
    <rdf:RDF>
      <cc:Work
         rdf:about="">
        <dc:format>image/svg+xml</dc:format>
        <dc:type
           rdf:resource="http://purl.org/dc/dcmitype/StillImage" />
      </cc:Work>
    </rdf:RDF>
  </metadata>
  <g
     inkscape:label="Capa 1"
     inkscape:groupmode="layer"
     id="layer1"
     transform="translate(-24.684594,-76.980789)">
    <circle
       style="display:inline;fill:#ffffff;fill-opacity:1;fill-rule:nonzero;stroke:#0000ff;stroke-width:0.483797;stroke-linecap:round;stroke-linejoin:round;stroke-miterlimit:4;stroke-dasharray:none;stroke-dashoffset:0;stroke-opacity:1"
       id="path3790"
       cx="74.968475"
       cy="126.77197"
       r="48.034214" />
    <path
       inkscape:connector-curvature="0"
       id="path3784"
       d="m 25.108513,175.26167 c 0.108085,-0.10805 0.388636,-0.11964 0.623445,-0.0256 0.259482,0.10384 0.182407,0.18091 -0.196521,0.19652 -0.342895,0.0141 -0.535012,-0.0627 -0.426924,-0.17085 z m 43.010939,-0.2769 c -10.617878,-1.7943 -19.149397,-5.86701 -26.27909,-12.5449 -7.927475,-7.42512 -12.793428,-16.06793 -14.865427,-26.40368 -0.359379,-1.79268 -0.653415,-3.75591 -0.653415,-4.36273 0,-1.87875 0.115745,1.46052 -0.192066,-0.85305 -0.215567,-1.62027 -0.224527,3.99656 -0.233998,-3.05928 -0.0072,-5.34851 -0.119746,-2.18484 0.09982,-3.53316 0.117451,-0.72126 0.487867,-4.37468 0.182715,-2.37368 -0.272697,1.7882 0.04796,0.68636 0.288615,-1.44902 1.151914,-10.22104 6.169644,-20.30918 13.966482,-28.079603 5.718688,-5.699314 11.200017,-9.137726 18.826369,-11.809685 16.484484,-5.775482 35.597962,-1.68359 48.475393,10.377812 6.4527,6.043805 10.4298,12.186616 13.29271,20.531236 1.35931,3.96205 2.27237,9.9639 2.34002,14.77297 0.0608,4.32629 -0.77977,2.78133 -0.94416,-0.93427 -1.04723,-23.67075 -21.19724,-44.666887 -44.539923,-46.049687 -9.049311,-0.536072 -16.711355,1.004816 -24.401451,4.9073 -9.589582,4.86641 -16.450319,11.684857 -21.135393,21.005117 -3.15831,6.28297 -4.531241,11.26809 -5.014023,18.20593 -0.616914,8.86541 0.975578,16.85123 4.91359,24.64 4.976825,9.84338 12.048915,16.84772 21.738885,21.53061 5.828498,2.81674 11.074287,4.19597 17.570353,4.61959 10.644279,0.69412 20.521285,-1.87952 29.469392,-7.67883 12.19054,-7.90075 20.3949,-22.02051 21.46788,-36.71939 0.26659,-3.6518 1.28326,-3.57805 0.72865,1.95166 l -0.43668,4.35393 -1.71424,5.79871 c -2.36203,7.98994 -6.07778,13.33239 -11.92237,19.15012 -7.49049,7.45605 -15.249558,11.5827 -25.740677,13.69017 -3.528472,0.70881 -11.934776,0.88246 -15.287959,0.31581 z m 2.602206,-3.31914 c -13.844388,-1.66054 -25.447203,-8.43596 -32.960089,-19.24692 -1.915802,-2.75683 -4.837636,-8.55479 -5.867671,-11.64357 -2.531477,-7.59116 -2.89326,-16.35772 -1.008196,-24.43012 5.453151,-23.352023 28.629474,-38.473102 52.161701,-34.032195 18.324477,3.45812 32.513847,17.742575 36.183237,36.425735 0.76325,3.88614 0.76439,11.53686 0.002,15.73489 -3.52064,19.39459 -19.13002,34.34853 -38.553218,36.93437 -3.189644,0.42463 -7.612584,0.53915 -9.958089,0.25781 z M 59.214053,147.3419 c 2.859219,-0.60606 5.640587,-2.0506 7.868072,-4.0864 2.466649,-2.25437 3.544015,-4.50503 3.73489,-7.80231 0.201594,-3.48241 -0.477183,-5.43576 -2.659522,-7.65343 l -1.664419,-1.69138 1.369586,-1.38058 c 2.140708,-2.1579 2.858998,-3.91808 2.858998,-7.00605 0,-2.19295 -0.143554,-2.89455 -0.912773,-4.46098 -2.409877,-4.90747 -9.999539,-8.39017 -16.190828,-7.42956 -5.225659,0.81078 -9.610974,3.70749 -11.599451,7.66195 -0.812087,1.61499 -1.498447,4.73311 -1.124225,5.10734 0.348094,0.34809 8.136083,1.3283 8.733185,1.09917 0.241495,-0.0927 0.439082,-0.48515 0.439082,-0.87218 0,-2.13173 2.816934,-4.19586 5.7261,-4.19586 1.945239,0 4.329446,1.09929 4.938316,2.27693 0.787853,1.52381 -0.104054,4.42658 -1.556696,5.06638 -0.268351,0.1182 -1.725604,0.27162 -3.238337,0.34095 -1.512731,0.0693 -2.871547,0.24717 -3.019592,0.39521 -0.148042,0.14804 -0.227719,2.01349 -0.177059,4.14542 l 0.09211,3.87625 3.490808,0.16264 c 3.278652,0.15276 3.545532,0.21745 4.391223,1.06454 1.306047,1.30821 1.273636,3.37517 -0.07541,4.80913 -3.302997,3.51089 -9.289883,1.95895 -10.424287,-2.70223 -0.26022,-1.06922 -0.07221,-1.06033 -4.902859,-0.23151 -5.334601,0.91528 -5.061701,0.7901 -4.813891,2.20826 0.456088,2.61014 1.796315,4.90533 4.121298,7.05791 4.254777,3.93927 9.21612,5.38065 14.595683,4.24039 z m 38.80602,-0.64951 c 2.868747,-1.0798 4.293087,-2.0523 6.505007,-4.44143 3.05757,-3.30254 4.64306,-7.72488 4.96865,-13.85881 0.39778,-7.49358 -1.51413,-13.72159 -5.48025,-17.8519 -3.24044,-3.37458 -8.70017,-5.3891 -13.158161,-4.85506 -8.405682,1.00695 -13.919327,7.00256 -15.448709,16.79911 -0.807152,5.17029 0.250798,12.16142 2.517158,16.63387 1.174283,2.31733 4.407283,5.45769 6.929456,6.73088 4.168516,2.10426 8.995499,2.41342 13.166849,0.84334 z m -7.712431,-8.771 c -2.073047,-0.56711 -3.793571,-1.98801 -4.785937,-3.95248 -0.777912,-1.53992 -0.812348,-1.85671 -0.793755,-7.30208 0.0214,-6.26748 0.20053,-7.06314 2.069322,-9.19158 2.678119,-3.05021 8.432326,-3.05021 11.110445,0 1.592796,1.81409 1.931296,2.99782 2.144933,7.50078 0.25693,5.41543 -0.192479,8.15268 -1.672529,10.18691 -1.805446,2.48148 -5.04208,3.58746 -8.072479,2.75845 z"
       style="display:inline;fill:#000080;fill-opacity:1;stroke-width:0.147216"
       sodipodi:nodetypes="sccsssssssssssssssssssssssssscsssscssssscsccsssscsssssscssssssscsssssssssssssssssssssssss" />
    <path
       style="opacity:1;fill:#000080;stroke-width:0.147216;stroke-linecap:round;stroke-linejoin:round"
       d="m 46.31145,101.79341 61.26849,5.05613 7.4355,19.3323 -8.62518,22.00906 -23.793587,10.4097 -42.53104,-14.57357 -5.650976,-22.60391 z"
       id="path4446" />
    <text
       xml:space="preserve"
       style="font-style:normal;font-variant:normal;font-weight:normal;font-stretch:normal;font-size:58.8269px;line-height:34.4688px;font-family:Ccrige;-inkscape-font-specification:Ccrige;letter-spacing:-0.104523px;word-spacing:0px;display:inline;fill:#ffffff;stroke:none;stroke-width:0.147216px;stroke-linecap:butt;stroke-linejoin:miter;stroke-opacity:1"
       x="34.464161"
       y="147.65347"
       id="text4450"><tspan
         sodipodi:role="line"
         id="tspan4448"
         x="34.464161"
         y="147.65347"
         style="letter-spacing:-0.104523px;stroke-width:0.147216px">30</tspan></text>
    <path
       style="display:inline;fill:#ed1c24;fill-rule:evenodd;stroke-width:0.147216"
       inkscape:connector-curvature="0"
       d="m 105.75402,93.845147 c 2.41642,2.347186 3.91566,4.351174 3.91566,4.351174 L 46.107975,161.48105 c 0,0 -2.387528,-1.88255 -4.364826,-3.87149 -1.961841,-1.97288 -3.806075,-4.50772 -3.806075,-4.50772 L 101.24389,89.957588 c 0,0.0014 2.08528,1.532342 4.50973,3.886957 v 5.89e-4 z"
       id="path3090" />
  </g>
  <g
     inkscape:groupmode="layer"
     id="layer8"
     inkscape:label="Capa 3"
     style="display:inline" />
  <g
     inkscape:groupmode="layer"
     id="layer7"
     inkscape:label="Capa 2" />
</svg>
