<?xml version="1.0" encoding="UTF-8" standalone="no"?>
<svg xmlns="http://www.w3.org/2000/svg" height="408" width="408">
<g fill="#FFF" transform="matrix(20.220392,0,0,-20.224502,25.900503,202)">
<path fill-rule="nonzero" fill="#FFF" d="m0,0c-0.652,0-1.182,0.529-1.182,1.184v7.523c0,0.652,0.53,1.182,1.182,1.182h7.527c0.653,0,1.182-0.53,1.182-1.182v-7.523c0-0.655-0.529-1.184-1.182-1.184h-7.527z"/>
</g>
<g transform="matrix(20.220392,0,0,-20.224502,25.900503,6.03671)" stroke="#000" stroke-dasharray="none" stroke-miterlimit="4" stroke-width="0.04" fill="#003984">
<path d="m0,0c-0.541,0-0.982-0.441-0.982-0.982v-7.524c0-0.541,0.441-0.982,0.982-0.982h7.527c0.541,0,0.981,0.441,0.981,0.982v7.524c0,0.541-0.44,0.982-0.981,0.982h-7.527z" fill-rule="nonzero" stroke="#000" stroke-miterlimit="4" stroke-dasharray="none" stroke-width="0.04" fill="#003984"/>
</g>
<g transform="matrix(20.220392,0,0,-20.224502,86.047915,50.63399)" stroke="#000" stroke-dasharray="none" stroke-miterlimit="4" stroke-width="0.04" fill="#FFF">
<path d="M0,0c0.367,0,0.662,0.299,0.662,0.662,0,0.367-0.295,0.662-0.662,0.662-0.365,0-0.662-0.295-0.662-0.662,0-0.363,0.297-0.662,0.662-0.662" fill-rule="nonzero" stroke="#000" stroke-miterlimit="4" stroke-dasharray="none" stroke-width="0.04" fill="#FFF"/>
</g>
<g transform="matrix(20.220392,0,0,-20.224502,151.17183,150.29388)" stroke="#000" stroke-dasharray="none" stroke-miterlimit="4" stroke-width="0.05" fill="#FFF">
<path d="m0,0c0.105-0.172,0.348-0.242,0.531-0.133,0.182,0.11,0.237,0.338,0.133,0.529l-1.129,1.95c-0.07,0.117-0.193,0.183-0.32,0.187h-1.656l-0.016,0.5h1.203c0.164,0.01,0.299,0.135,0.299,0.303,0,0.166-0.131,0.295-0.299,0.301h-1.238l-0.043,0.568c-0.024,0.348-0.322,0.621-0.674,0.602-0.354-0.02-0.621-0.325-0.604-0.676l0.116-2.01c0.029-0.351,0.324-0.603,0.674-0.601h2.146l0.877-1.52z" fill-rule="nonzero" stroke="#000" stroke-miterlimit="4" stroke-dasharray="none" stroke-width="0.04" fill="#FFF"/>
</g>
<g transform="matrix(20.220392,0,0,-20.224502,94.657605,165.58182)" stroke="#000" stroke-dasharray="none" stroke-miterlimit="4" stroke-width="0.04" fill="#FFF">
<path d="m0,0c-1.086,0-1.967,0.879-1.967,1.967,0,0.596,0.27,1.127,0.69,1.488l-0.036,0.615c-0.703-0.439-1.175-1.213-1.175-2.103,0-1.373,1.113-2.488,2.488-2.488,1.012,0,1.877,0.609,2.266,1.476l-0.35,0.606c-0.187-0.889-0.971-1.561-1.916-1.561" fill-rule="nonzero" stroke="#000" stroke-miterlimit="4" stroke-dasharray="none" stroke-width="0.04" fill="#FFF"/>
</g>
<g fill="#FFF" transform="matrix(20.220402,0,0,-20.224508,25.900515,406.00002)">
<path fill-rule="nonzero" fill="#FFF" d="m0,0c-0.652,0-1.182,0.529-1.182,1.184v7.523c0,0.652,0.53,1.182,1.182,1.182h7.527c0.653,0,1.182-0.53,1.182-1.182v-7.523c0-0.655-0.529-1.184-1.182-1.184h-7.527z"/>
</g>
<g transform="matrix(20.220402,0,0,-20.224508,25.900515,210.0368)" stroke="#000" stroke-dasharray="none" stroke-miterlimit="4" stroke-width="0.04" fill="#003984">
<path d="m0,0c-0.541,0-0.982-0.441-0.982-0.982v-7.524c0-0.541,0.441-0.982,0.982-0.982h7.527c0.541,0,0.981,0.441,0.981,0.982v7.524c0,0.541-0.44,0.982-0.981,0.982h-7.527z" fill-rule="nonzero" stroke="#000" stroke-miterlimit="4" stroke-dasharray="none" stroke-width="0.04" fill="#003984"/>
</g>
<g transform="matrix(20.220402,0,0,-20.224508,109.86159,308.51171)" stroke="#000" stroke-dasharray="none" stroke-miterlimit="4" stroke-width="0.04" fill="#FFF">
<path d="m0,0c0.154-0.123,0.232-0.49,0.23-0.486,0.284-0.09,0.463-0.278,0.463-0.278,0.436,0.243,0.446,0.133,0.635,0.278,0.156,0.107,0.149,0.14,0.231,0.427,0.076,0.233-0.194,0.211-0.416,0.635-0.387-0.146-0.596-0.08-0.727-0.068-0.059,0.008-0.049-0.229-0.416-0.508m1.408-2.807c-0.054-0.074-0.08-0.089-0.148-0.185-0.114-0.147,0.031-0.369,0.103-0.334,0.084,0.031,0.139,0.199,0.231,0.254,0.047,0.025,0.172,0.209,0.289,0.334,0.086,0.097,0.148,0.14,0.23,0.242,0.139,0.172,0.168,0.303,0.289,0.486,0.075,0.096,0.127,0.125,0.196,0.242,0.361,0.684,0.256,0.991,0.601,1.479,0.106,0.144,0.225,0.18,0.393,0.266,0.156,1.138-0.362,1.775-0.358,1.777-0.435-0.254-0.67-0.358-1.121-0.334-0.17,0.002-0.259,0.074-0.427,0.059-0.157-0.006-0.237-0.065-0.393-0.118-0.24-0.074-0.371-0.14-0.623-0.218-0.16-0.045-0.262-0.047-0.428-0.104-0.142-0.06-0.074-0.012-0.174-0.127-0.129-0.142-0.097-0.254-0.218-0.498-0.151-0.32-0.133-0.363-0.047-0.402-0.057-0.164-0.071-0.274-0.057-0.451,0.016-0.135-0.041-0.229,0.104-0.336,0.197-0.147,0.611-0.491,0.716-0.496,0.159,0.005,0.62-0.012,0.854,0.15,0.053,0.033,0.068,0.066,0.023-0.059-0.009-0.015-0.584-0.463-0.646-0.461-0.731-0.023-0.486-0.064-0.531-0.047-0.037,0-0.389,0.43-0.602,0.278-0.08-0.049-0.117-0.096-0.148-0.184,0.027-0.056,0.156-0.146,0.275-0.22,0.172-0.11,0.188-0.225,0.359-0.266,0.209-0.047,0.432-0.016,0.565-0.033,0.051-0.014,0.512,0.121,0.799,0.275,0.265,0.137-0.366-0.264-0.52-0.461-0.465-0.146-0.334-0.152-0.555-0.197-0.205-0.047-0.195-0.035-0.335-0.08-0.145-0.035-0.264-0.233-0.127-0.336,0.082-0.068,0.337,0.027,0.589,0.035,0.112,0.002,0.567,0.211,0.67,0.266,0.258,0.138,0.448,0.33,0.6,0.439,0.211,0.147-0.238-0.404-0.428-0.635" fill-rule="evenodd" stroke="#000" stroke-miterlimit="4" stroke-dasharray="none" stroke-width="0.04" fill="#FFF"/>
</g>
<g transform="matrix(20.220402,0,0,-20.224508,92.564905,304.32523)" stroke="#000" stroke-dasharray="none" stroke-miterlimit="4" stroke-width="0.04" fill="#FFF">
<path d="M0,0c-0.154,0.127-0.232,0.494-0.23,0.496-0.284,0.084-0.463,0.272-0.463,0.266-0.436-0.237-0.448-0.127-0.635-0.266-0.158-0.113-0.149-0.148-0.231-0.426-0.076-0.242,0.192-0.218,0.416-0.636,0.387,0.14,0.596,0.074,0.727,0.058,0.059-0.004,0.049,0.233,0.416,0.508m-1.408,2.807c0.054,0.078,0.08,0.093,0.15,0.185,0.11,0.151-0.033,0.373-0.103,0.346-0.086-0.039-0.141-0.207-0.244-0.266-0.038-0.021-0.163-0.205-0.278-0.334-0.086-0.093-0.148-0.136-0.23-0.244-0.141-0.166-0.168-0.297-0.289-0.473-0.075-0.105-0.129-0.132-0.196-0.253-0.361-0.68-0.257-0.987-0.601-1.467-0.106-0.155-0.225-0.188-0.393-0.278-0.156-1.136,0.36-1.771,0.358-1.767,0.435,0.248,0.668,0.351,1.121,0.336,0.17-0.01,0.259-0.082,0.427-0.071,0.157,0.01,0.237,0.069,0.393,0.116,0.24,0.08,0.371,0.146,0.611,0.22,0.172,0.049,0.274,0.051,0.44,0.116,0.142,0.052,0.074,0.004,0.174,0.115,0.127,0.146,0.097,0.258,0.207,0.496,0.162,0.326,0.144,0.369,0.058,0.404,0.055,0.168,0.071,0.276,0.057,0.451-0.018,0.137,0.041,0.233-0.104,0.334-0.197,0.153-0.611,0.497-0.714,0.498-0.161-0.001-0.622,0.016-0.856-0.138-0.053-0.041-0.068-0.074-0.023,0.045,0.009,0.021,0.584,0.468,0.646,0.474,0.731,0.016,0.486,0.057,0.531,0.036,0.037,0.003,0.389-0.426,0.602-0.278,0.078,0.053,0.117,0.1,0.15,0.184-0.029,0.06-0.158,0.15-0.277,0.219-0.172,0.115-0.189,0.23-0.359,0.267-0.209,0.051-0.434,0.02-0.565,0.045-0.051,0.006-0.512-0.129-0.797-0.277-0.269-0.143,0.364,0.257,0.52,0.463,0.463,0.138,0.33,0.144,0.554,0.195,0.204,0.041,0.194,0.029,0.334,0.07,0.143,0.039,0.264,0.235,0.127,0.346-0.084,0.062-0.337-0.033-0.587-0.035-0.114-0.008-0.569-0.217-0.672-0.276-0.258-0.134-0.448-0.326-0.6-0.427-0.213-0.155,0.238,0.394,0.428,0.623" fill-rule="evenodd" stroke="#000" stroke-miterlimit="4" stroke-dasharray="none" stroke-width="0.04" fill="#FFF"/>
</g>
<g fill="#FFF" transform="matrix(20.220402,0,0,-20.224508,229.90052,406.00002)">
<path fill-rule="nonzero" fill="#FFF" d="m0,0c-0.652,0-1.182,0.529-1.182,1.184v7.523c0,0.652,0.53,1.182,1.182,1.182h7.527c0.653,0,1.182-0.53,1.182-1.182v-7.523c0-0.655-0.529-1.184-1.182-1.184h-7.527z"/>
</g>
<g transform="matrix(20.220402,0,0,-20.224508,229.90052,210.03659)" stroke="#000" stroke-dasharray="none" stroke-miterlimit="4" stroke-width="0.04" fill="#003984">
<path d="m0,0c-0.541,0-0.98-0.441-0.98-0.982v-7.524c0-0.541,0.439-0.982,0.98-0.982h7.527c0.541,0,0.983,0.441,0.983,0.982v7.524c0,0.541-0.442,0.982-0.983,0.982h-7.527z" fill-rule="nonzero" stroke="#000" stroke-miterlimit="4" stroke-dasharray="none" stroke-width="0.04" fill="#003984"/>
</g>
<g transform="matrix(20.220402,0,0,-20.224508,292.85278,232.41299)" stroke="#000" stroke-dasharray="none" stroke-miterlimit="4" stroke-width="0.04" fill="#FFF">
<path d="M0,0c0.004,0.358-0.291,0.655-0.65,0.651-0.368,0.004-0.664-0.293-0.663-0.651-0.001-0.367,0.295-0.661,0.663-0.662,0.359,0.001,0.654,0.295,0.65,0.662" fill-rule="nonzero" stroke="#000" stroke-miterlimit="4" stroke-dasharray="none" stroke-width="0.04" fill="#FFF"/>
</g>
<g transform="matrix(20.220402,0,0,-20.224508,331.08162,305.17494)" stroke="#000" stroke-dasharray="none" stroke-miterlimit="4" stroke-width="0.04" fill="#FFF">
<path d="m0,0-2.104,2.552c-0.109,0.162-0.718,0.23-0.976,0.023l-1.024-1.862,0.252-1.574c0.256-0.411,0.764,0.005,0.622,0.229l-0.172,1.115,0.423,0.816-0.021-2-0.92-2.873c-0.182-0.61,0.717-0.864,0.897-0.277l1.138,3.173-0.011,1.614-0.53,0.626c-0.025,0.03-0.021,0.076,0.01,0.102,0.031,0.025,0.076,0.022,0.102-0.009l1.75-2.069c0.281-0.385,0.845,0.024,0.564,0.414" fill-rule="nonzero" stroke="#000" stroke-miterlimit="4" stroke-dasharray="none" stroke-width="0.04" fill="#FFF"/>
</g>
<g transform="matrix(20.220402,0,0,-20.224508,314.81002,376.76962)" stroke="#000" stroke-dasharray="none" stroke-miterlimit="4" stroke-width="0.04" fill="#FFF">
<path d="M0,0-1.033,2.571-1.455,1.39-0.852-0.345c0.245-0.571,1.102-0.237,0.852,0.345" fill-rule="nonzero" stroke="#000" stroke-miterlimit="4" stroke-dasharray="none" stroke-width="0.04" fill="#FFF"/>
</g>
<g transform="matrix(20.220402,0,0,-20.224508,370.22007,388.69992)" stroke="#000" stroke-dasharray="none" stroke-miterlimit="4" stroke-width="0.04" fill="#FFF">
<path d="M0,0c0.002-0.002,0.004-0.005,0.004-0.006,0.041-0.049,0.113-0.054,0.162-0.014,0.043,0.038,0.051,0.103,0.022,0.15l-1.948,3.381c-0.002,0.002-0.004,0.004-0.006,0.007-0.039,0.046-0.111,0.053-0.16,0.012-0.043-0.037-0.047-0.099-0.019-0.149l1.945-3.381z" fill-rule="nonzero" stroke="#000" stroke-miterlimit="4" stroke-dasharray="none" stroke-width="0.04" fill="#FFF"/>
</g>
<g fill="#FFF" transform="matrix(20.220402,0,0,-20.224508,229.90052,202)">
<path fill-rule="nonzero" fill="#FFF" d="m0,0c-0.652,0-1.182,0.529-1.182,1.184v7.523c0,0.652,0.53,1.182,1.182,1.182h7.527c0.653,0,1.182-0.53,1.182-1.182v-7.523c0-0.655-0.529-1.184-1.182-1.184h-7.527z"/>
</g>
<g transform="matrix(20.220402,0,0,-20.224508,229.90052,6.036654)" stroke="#000" stroke-dasharray="none" stroke-miterlimit="4" stroke-width="0.04" fill="#003984">
<path d="m0,0c-0.541,0-0.98-0.441-0.98-0.982v-7.524c0-0.541,0.439-0.982,0.98-0.982h7.527c0.541,0,0.983,0.441,0.983,0.982v7.524c0,0.541-0.442,0.982-0.983,0.982h-7.527z" fill-rule="nonzero" stroke="#000" stroke-miterlimit="4" stroke-dasharray="none" stroke-width="0.04" fill="#003984"/>
</g>
<path style="baseline-shift:baseline;block-progression:tb;color:#000000;direction:ltr;text-indent:0;text-align:start;enable-background:accumulate;text-transform:none;" d="m295.62,19.125c-27.585-0.6179-44.668,11.446-54.438,25.375-9.7695,13.929-12.49,29.4-12.156,36.812,0.32774,7.2868,1.2271,25.621,9.4375,36.594,10.031,13.405,17.719,22.086,18.156,39.094,0.15602,6.0738-0.39436,10.465-0.96875,13.281s-1.125,3.9375-1.125,3.9375a2.0069,2.0069,0,1,0,3.6562,1.6562s0.73903-1.6946,1.375-4.8125c0.63598-3.118,1.226-7.7906,1.0625-14.156-0.46747-18.198-8.9946-28.087-18.938-41.375-6.9536-9.2928-8.3338-27.238-8.6562-34.406-0.27456-6.1045,2.2854-21.295,11.438-34.344,9.1521-13.049,24.664-24.248,51.062-23.656,27.402,0.61381,43.613,12.932,53.25,25.438,4.8184,6.2527,7.9781,12.562,9.9062,17.438,0.96407,2.4379,1.6095,4.5066,2.0312,6.0312,0.21089,0.76233,0.37192,1.3919,0.46875,1.8438,0.0968,0.45183,0.13346,0.82991,0.125,0.6875,0.0325,0.54768-0.23392,2.1119-0.625,4s-0.86567,4.1884-0.96875,6.6562c-0.26843,6.4262,3.7745,11.84,7.5312,16.5,1.8784,2.3299,3.7189,4.4868,5.0625,6.4062,1.3436,1.9195,2.1079,3.5831,2.1562,4.6875,0.0436,0.99644-0.18305,1.2236-0.96875,1.75-0.7857,0.52641-2.1746,0.9957-3.6875,1.4688-1.5129,0.47305-3.1338,0.93031-4.5625,2s-2.3985,3.2647-1.8438,5.4375c0.83047,3.2527,1.465,4.7694,1.9375,5.6562,0.14903,0.27969,0.18307,0.29809,0.25,0.40625-0.0775,0.83037-0.34541,1.1436-0.84375,1.5938-0.26878,0.24279-0.60009,0.48748-1,0.84375s-1.0295,0.91601-1.1875,1.9688c-0.0913,0.60849,0.17258,1.5226,0.625,2,0.45242,0.47742,0.83973,0.59127,1.125,0.6875,0.41694,0.14064,0.58298,0.18098,0.75,0.21875-0.002,0.0573,0.006-0.10517-0.0625,0.15625-1.5003,5.7407-1.735,7.8778-1.5,9.7188,0.23505,1.8409,0.70625,2.7177,0.5625,7.4688-0.11197,3.7008-1.428,4.7607-3.5938,5.5625-2.1658,0.80182-5.2577,0.80332-7.875,0.875-8.3808,0.22952-13.197,2.8315-15.688,6.1875-2.4906,3.356-2.5305,7.1116-2.5,9.0625a2.0002,2.0002,0,1,0,4,-0.0625c-0.0281-1.8017,0.0816-4.4191,1.7188-6.625,1.6371-2.2059,4.9321-4.3535,12.562-4.5625,2.4516-0.0671,5.9393,0.066,9.1562-1.125,3.217-1.191,6.069-4.238,6.2188-9.1875,0.15313-5.0608-0.43608-6.8589-0.59375-8.0938-0.15767-1.2348-0.0902-2.5808,1.375-8.1875,0.29379-1.1242,0.34136-2.2501-0.15625-3.2188-0.24142-0.46995-0.58498-0.82455-0.9375-1.0938,0.85349-0.87823,1.7817-2.2402,1.875-4.1562,0.0232-0.47687-0.1446-1.2031-0.34375-1.5938-0.19915-0.39061-0.26807-0.45943-0.40625-0.71875-0.27635-0.51864-0.80948-1.7095-1.5938-4.7812-0.25262-0.98943-0.20675-0.83784,0.34375-1.25s1.8693-0.90419,3.375-1.375,3.1936-0.94691,4.7188-1.9688c1.5252-1.0218,2.8506-2.9514,2.75-5.25-0.10743-2.456-1.3543-4.6088-2.875-6.7812-1.5207-2.1725-3.4255-4.3619-5.25-6.625-3.649-4.5261-6.8164-9.263-6.625-13.844,0.0866-2.0726,0.48985-4.1405,0.875-6s0.81542-3.4361,0.71875-5.0625c-0.0266-0.44692-0.10227-0.73772-0.21875-1.2812-0.11648-0.54353-0.30149-1.232-0.53125-2.0625-0.45953-1.6611-1.1368-3.8597-2.1562-6.4375-2.04-5.19-5.34-11.823-10.44-18.441-10.2-13.236-27.77-26.36-56.35-27z" stroke="#000" stroke-miterlimit="4" stroke-dasharray="none" stroke-width="0.8" fill="#fffaff"/>
<path stroke-linejoin="miter" d="m325.84,91.988c-0.88692,3.1743,0,3.6025-2.6418,6.1243s-2.1615,3.4824-4.8034,4.2029c-2.6418,0.7205-1.3477,0.96681-4.5825,0.74664-1.3346-0.0908-0.97213-0.35865-2.7203,0.12629-0.81821,0.22698-2.5858,1.6457-4.8674,1.6457s-3.022-0.85366-4.463-0.73357c-1.441,0.12008-1.7787,0.27158-3.0413,0.25634-5.4973-0.0663-2.8988-1.4224-10.226-1.6812-1.9154-0.0677-0.7821,0.50647,0,1.441,0.49348,0.58966,2.0176,0.26304,1.5773,3.1514-0.1624,1.0652,1.707,1.0028,1.665,2.4925-0.0629,2.2302-0.79581,2.9474-3.6025,4.0829-1.0019,0.40532-2.7619-0.96068-3.1222,0.24016-0.36026,1.2008,0.48033,4.8034,0,4.8034-0.48034,0-2.2385,7.7197-10.737,7.7893-4.1561,0.034-10.273-0.19449-16.763-8.87-3.5054-4.686-5.5404-4.4351-6.1243-5.764-1.3398-3.0491-0.46791-4.1805-0.26631-5.3714,0.2241-1.3237,2.2333-1.4767,0.47412-2.2586-1.8759-0.83373-4.5527-2.3543-5.326-6.9904-0.13397-0.80316-1.1809-3.4097-1.11-8.4451,0.0197-1.4003-3.2592-2.1237,2.0445-15.17,0.3836-0.94357,0.5264-4.6062,2.0875-6.6476s1.7084-3.4812,1.5934-5.7118c-0.0352-0.68258,2.2386-2.9094,4.9166-5.2868,0.71133-0.63147,4.0292-7.1223,8.091-9.1525,0.42133-0.21059-0.074-2.7208,2.6088-3.7381,1.7873-0.67778,2.9318-0.52413,3.1906-1.1946,1.1428-2.9605,5.9992-3.5148,7.3936-3.6448,1.8821-0.17547,4.1575-0.0709,4.2776-0.66512,0.26273-1.3001,3.524-2.7009,5.0889-2.8173,1.4356-0.10676,1.4383,1.131,3.1352,0.1985,0.60352-0.33165,2.4303-0.96442,3.7512-0.96442s3.0805,0.88601,4.4014,1.0061,2.6687-2.6514,7.9255,0.36025c0.35964,0.20605,2.1491-2.1611,5.7964,0.85055,0.78055,0.64451,6.8461,0.23372,9.6752,4.5501,0.6469,0.987,4.0116-1.2736,12.43,6.8771,11.42,11.056,7.9597,13.698,8.0326,14.721,0.083,1.1659,0.86608,2.0625,1.0415,3.8806,0.33034,3.4228,0.35779,7.3681-1.4435,10.37-1.8013,3.0021-2.0564,6.2494-15.341,9.5442-0.0631,4.5554,0.66918,3.187-0.0177,5.6455z" stroke="#000" stroke-linecap="butt" stroke-miterlimit="4" stroke-dasharray="none" stroke-width="0.8" fill="#FFF"/>
</svg>