<?xml version="1.0" encoding="UTF-8" standalone="no"?>
<!-- Generator: Adobe Illustrator 27.7.0, SVG Export Plug-In . SVG Version: 6.00 Build 0)  -->

<svg
   version="1.1"
   x="0px"
   y="0px"
   viewBox="0 0 64 64"
   xml:space="preserve"
   id="svg6"
   sodipodi:docname="ES_R2.svg"
   width="64"
   height="64"
   inkscape:version="1.3 (0e150ed6c4, 2023-07-21)"
   xmlns:inkscape="http://www.inkscape.org/namespaces/inkscape"
   xmlns:sodipodi="http://sodipodi.sourceforge.net/DTD/sodipodi-0.dtd"
   xmlns="http://www.w3.org/2000/svg"
   xmlns:svg="http://www.w3.org/2000/svg"><defs
   id="defs6" /><sodipodi:namedview
   id="namedview6"
   pagecolor="#ffffff"
   bordercolor="#000000"
   borderopacity="0.25"
   inkscape:showpageshadow="2"
   inkscape:pageopacity="0.0"
   inkscape:pagecheckerboard="true"
   inkscape:deskcolor="#d1d1d1"
   inkscape:zoom="3.7921478"
   inkscape:cx="108.11815"
   inkscape:cy="65.530146"
   inkscape:window-width="1920"
   inkscape:window-height="1017"
   inkscape:window-x="-8"
   inkscape:window-y="-8"
   inkscape:window-maximized="1"
   inkscape:current-layer="svg6" />&#10;<style
   type="text/css"
   id="style1">&#10;	.st0{fill:#FFFFFF;}&#10;	.st1{fill:#BF311A;}&#10;</style>&#10;<g
   id="Layer_1">&#10;</g>&#10;<g
   id="For_Sheets"
   transform="scale(0.29387061)">&#10;	<g
   id="g6"
   style="display:inline">&#10;		<g
   id="g1">&#10;			<path
   id="polygon1"
   class="st0"
   style="fill:#ffffff"
   d="M 63.5,216.4 0.2,153.1 0.1,63.5 63.4,0.2 153,0.1 216.3,63.4 216.4,153 153,216.4 Z" />&#10;			<path
   d="m 153,0.2 63.3,63.3 V 153 L 153,216.2 H 63.5 L 0.2,153 V 63.5 L 63.5,0.2 H 153 M 153.1,0 H 153 63.5 63.4 L 63.3,0.1 0.1,63.3 0,63.4 v 0.1 89.5 0.1 l 0.1,0.1 63.3,63.3 0.1,0.1 h 0.1 89.4 0.1 l 0.1,-0.1 63.3,-63.3 0.1,-0.1 V 153 63.5 63.4 l -0.1,-0.1 z"
   id="path1" />&#10;		</g>&#10;		<path
   id="polygon2"
   style="display:inline;fill:#e41408"
   class="st1"
   d="M 5.6,65.8 65.8,5.7 h 84.9 l 60.1,60.1 v 84.9 l -60.1,60.2 H 65.8 L 5.6,150.7 Z" />&#10;		<g
   id="g5">&#10;			<path
   class="st0"
   d="m 39.7,135.4 c 5.6,0 10.1,-5.1 10.1,-10.9 C 49.8,109.2 22.9,109.2 22.9,89.6 23,79.3 31.1,71 41.5,71 c 10.2,0 18,7.8 18.3,18.7 h -9.9 c -0.3,-5 -3.8,-8.3 -8.4,-8.3 -4.8,0 -8.6,3.5 -8.6,8.3 0,4.3 2.7,6 6.1,8.1 9.7,5.9 20.8,13 20.8,26.7 0,11.7 -8.9,21 -20,21 -12.7,0 -20.3,-10.7 -20.3,-22.5 h 10.2 c -0.1,6.2 2.9,12.4 10,12.4 z"
   id="path2" />&#10;			<path
   class="st0"
   d="M 87.2,144.2 H 76.8 V 81.9 H 63.7 v -9.6 h 36.7 v 9.6 H 87.2 Z"
   id="path3" />&#10;			<path
   class="st0"
   d="M 105.6,108.1 C 105.6,70.4 123.1,71 127,71 c 3.9,0 21.1,-0.6 21.1,37.1 0,38 -17.3,37.4 -21.1,37.4 -3.8,0 -21.4,0.6 -21.4,-37.4 z m 21.2,-27 c -2.1,0 -11.3,-0.4 -11.3,27.1 0,27.7 9.3,27.3 11.3,27.3 2.1,0 11.3,0.4 11.3,-27.3 0.1,-27.5 -9.2,-27.1 -11.3,-27.1 z"
   id="path4" />&#10;			<path
   class="st0"
   d="m 167.1,112.7 v 31.6 h -10.3 v -72 h 21.4 c 11.3,0 18.9,8.1 18.9,20.2 0,13.1 -6.8,20.2 -18.9,20.2 z m 0,-9.9 h 10.6 c 6,0 9.3,-3.8 9.3,-10.3 0,-6.1 -3.8,-10.1 -9.3,-10.1 h -10.6 z"
   id="path5" />&#10;		</g>&#10;	</g>&#10;</g>&#10;</svg>
