<?xml version="1.0" encoding="UTF-8" standalone="no"?>
<svg
   width="64"
   height="64"
   id="svg2"
   version="1.1"
   inkscape:version="1.3 (0e150ed6c4, 2023-07-21)"
   sodipodi:docname="ES_R506.svg"
   xmlns:inkscape="http://www.inkscape.org/namespaces/inkscape"
   xmlns:sodipodi="http://sodipodi.sourceforge.net/DTD/sodipodi-0.dtd"
   xmlns="http://www.w3.org/2000/svg"
   xmlns:svg="http://www.w3.org/2000/svg"
   xmlns:rdf="http://www.w3.org/1999/02/22-rdf-syntax-ns#"
   xmlns:cc="http://creativecommons.org/ns#"
   xmlns:dc="http://purl.org/dc/elements/1.1/">
  <defs
     id="defs4" />
  <sodipodi:namedview
     id="base"
     pagecolor="#ffffff"
     bordercolor="#666666"
     borderopacity="1.0"
     inkscape:pageopacity="0.0"
     inkscape:pageshadow="2"
     inkscape:zoom="5.6"
     inkscape:cx="86.875"
     inkscape:cy="64.017857"
     inkscape:document-units="px"
     inkscape:current-layer="layer1"
     showgrid="false"
     fit-margin-top="0"
     fit-margin-left="0"
     fit-margin-right="0"
     fit-margin-bottom="0"
     inkscape:window-width="1920"
     inkscape:window-height="1017"
     inkscape:window-x="-8"
     inkscape:window-y="-8"
     inkscape:window-maximized="1"
     inkscape:document-rotation="0"
     inkscape:showpageshadow="2"
     inkscape:pagecheckerboard="true"
     inkscape:deskcolor="#d1d1d1" />
  <metadata
     id="metadata7">
    <rdf:RDF>
      <cc:Work
         rdf:about="">
        <dc:format>image/svg+xml</dc:format>
        <dc:type
           rdf:resource="http://purl.org/dc/dcmitype/StillImage" />
      </cc:Work>
    </rdf:RDF>
  </metadata>
  <g
     inkscape:label="Capa 1"
     inkscape:groupmode="layer"
     id="layer1"
     transform="translate(-24.684594,-76.980789)">
    <path
       id="path3790"
       style="display:inline;fill:#ffffff;stroke:#0000ff;stroke-width:0.309246;stroke-linecap:round;stroke-linejoin:round"
       d="M 87.67223,109.15044 A 30.703777,30.703777 0 0 1 56.968452,139.85421 30.703777,30.703777 0 0 1 26.264675,109.15044 30.703777,30.703777 0 0 1 56.968452,78.446659 30.703777,30.703777 0 0 1 87.67223,109.15044 Z" />
    <path
       inkscape:connector-curvature="0"
       id="path3784"
       d="m 25.097645,140.14537 c 0.06909,-0.0691 0.248418,-0.0765 0.39851,-0.0164 0.165862,0.0664 0.116595,0.11564 -0.125618,0.12562 -0.219181,0.009 -0.341983,-0.0401 -0.272892,-0.10921 z m 27.492867,-0.177 c -6.787015,-1.14693 -12.240417,-3.75023 -16.797762,-8.01878 -5.067293,-4.74618 -8.177642,-10.27072 -9.502077,-16.8774 -0.229717,-1.14589 -0.417667,-2.4008 -0.417667,-2.78869 0,-1.2009 0.07399,0.93358 -0.122769,-0.54527 -0.137792,-1.03569 -0.14352,2.55463 -0.149573,-1.95551 -0.0046,-3.4188 -0.07654,-1.39657 0.06381,-2.25842 0.07508,-0.46103 0.311848,-2.79632 0.116793,-1.51727 -0.17431,1.14303 0.03066,0.43872 0.184484,-0.92622 0.736311,-6.533359 3.943676,-12.981763 8.927465,-17.948667 3.655422,-3.643038 7.159123,-5.840893 12.033936,-7.548827 10.536988,-3.691725 22.754445,-1.076161 30.985782,6.633564 4.124607,3.863239 6.666795,7.789764 8.496785,13.123698 0.86888,2.532572 1.452514,6.368992 1.495756,9.442982 0.03886,2.76539 -0.498434,1.77784 -0.603513,-0.5972 C 86.632561,93.055869 73.752545,79.635003 58.831753,78.751109 c -5.784378,-0.342661 -10.682006,0.642285 -15.597564,3.136777 -6.129723,3.110641 -10.51515,7.469036 -13.509879,13.426606 -2.018812,4.016114 -2.896398,7.202638 -3.204996,11.637348 -0.394335,5.66683 0.623596,10.77141 3.140799,15.75004 3.181218,6.29196 7.701743,10.76918 13.895634,13.76251 3.725614,1.80048 7.078755,2.68209 11.231083,2.95287 6.803891,0.44369 13.117336,-1.2014 18.837024,-4.90836 7.792271,-5.05021 13.036551,-14.07565 13.722406,-23.47127 0.170406,-2.33425 0.820268,-2.28711 0.465758,1.24752 l -0.279129,2.78306 -1.095753,3.70657 c -1.509824,5.10722 -3.884956,8.52215 -7.620855,12.24088 -4.787969,4.76595 -9.747615,7.40374 -16.453606,8.75084 -2.255422,0.45308 -7.628785,0.56408 -9.772161,0.20187 z m 1.663347,-2.12161 c -8.849421,-1.06143 -16.266015,-5.39232 -21.0683,-12.30276 -1.224593,-1.76218 -3.092248,-5.46828 -3.750653,-7.44264 -1.618136,-4.85232 -1.84939,-10.45596 -0.644445,-15.61589 3.485689,-14.926766 18.300143,-24.592256 33.342093,-21.7536 11.713124,2.210452 20.78306,11.341168 23.128558,23.28356 0.487874,2.48405 0.488603,7.37444 0.0013,10.05785 -2.250416,12.39714 -12.228031,21.9558 -24.643464,23.60868 -2.038841,0.27143 -4.866013,0.34463 -6.365275,0.1648 z m -7.355735,-15.54789 c 1.827631,-0.3874 3.6055,-1.31075 5.029322,-2.61205 1.576698,-1.44101 2.265358,-2.87965 2.387366,-4.98729 0.12886,-2.22598 -0.305018,-3.47457 -1.699983,-4.89212 l -1.063908,-1.08114 0.875448,-0.88248 c 1.368355,-1.37934 1.82749,-2.50446 1.82749,-4.47831 0,-1.40175 -0.09176,-1.85021 -0.58345,-2.85149 -1.540409,-3.136881 -6.39177,-5.363046 -10.349281,-4.749018 -3.340275,0.518256 -6.143396,2.369852 -7.414444,4.897568 -0.519091,1.03231 -0.957817,3.02543 -0.718611,3.26464 0.222503,0.22251 5.200636,0.84906 5.582307,0.7026 0.154366,-0.0592 0.280664,-0.31011 0.280664,-0.5575 0,-1.36262 1.800603,-2.68202 3.66016,-2.68202 1.243409,0 2.76741,0.70267 3.156603,1.45543 0.503601,0.97402 -0.06651,2.82949 -0.99505,3.23846 -0.171531,0.0756 -1.103017,0.17362 -2.069965,0.21794 -0.966948,0.0443 -1.835512,0.15799 -1.930143,0.25262 -0.09463,0.0946 -0.145559,1.28703 -0.113177,2.64978 l 0.05888,2.47772 2.231347,0.10396 c 2.095735,0.0977 2.266327,0.139 2.806898,0.68046 0.834834,0.83622 0.814116,2.15743 -0.0482,3.07403 -2.111297,2.24418 -5.938152,1.25217 -6.663271,-1.72729 -0.166334,-0.68345 -0.04616,-0.67777 -3.133939,-0.14798 -3.409911,0.58505 -3.235471,0.50504 -3.07707,1.41154 0.291535,1.66841 1.148216,3.13551 2.63436,4.51146 2.719681,2.518 5.891003,3.43934 9.329655,2.71048 z m 24.805057,-0.41517 c 1.833722,-0.69021 2.744169,-1.31184 4.158042,-2.83899 1.954419,-2.111 2.967874,-4.93779 3.175993,-8.85864 0.254264,-4.78994 -0.967841,-8.77093 -3.503011,-11.411049 -2.07131,-2.157053 -5.561204,-3.444747 -8.410781,-3.103385 -5.372965,0.643648 -8.897323,4.476084 -9.874913,10.738094 -0.515937,3.30489 0.160311,7.77366 1.608983,10.63248 0.750609,1.48125 2.817164,3.48859 4.429353,4.30242 2.664542,1.34506 5.74998,1.54268 8.416334,0.53907 z m -4.929835,-5.60648 c -1.325105,-0.3625 -2.424875,-1.27075 -3.059202,-2.52645 -0.497246,-0.98433 -0.519258,-1.18682 -0.507373,-4.66754 0.01368,-4.00621 0.12818,-4.5148 1.322724,-5.87531 1.711871,-1.94972 5.389997,-1.94972 7.101867,0 1.018126,1.15958 1.234497,1.91622 1.371055,4.79454 0.164232,3.46158 -0.123033,5.21125 -1.069091,6.51154 -1.154053,1.58618 -3.22293,2.29313 -5.15998,1.76322 z"
       style="display:inline;fill:#000080;fill-opacity:1;stroke-width:0.0941014"
       sodipodi:nodetypes="sccsssssssssssssssssssssssssscsssscssssscsccsssscsssssscssssssscsssssssssssssssssssssssss" />
    <path
       style="opacity:1;fill:#000080;stroke-width:0.0941014;stroke-linecap:round;stroke-linejoin:round"
       d="m 38.650698,93.183985 39.163211,3.231911 4.75282,12.357334 -5.513271,14.06833 -15.209013,6.65394 -27.186113,-9.31551 -3.612141,-14.44857 z"
       id="path4446" />
    <path
       d="m 33.202376,103.96 5.959997,0.64864 q -0.0282,-1.12807 0.629842,-2.04933 0.131608,-0.15041 0.282018,-0.29142 3.29962,-2.49117 6.364224,0.28201 0.0376,0.0564 0.0658,0.12221 0.864858,2.23735 -1.175078,3.50644 -0.479432,0.16921 -0.996466,0.20681 h -3.092806 v 5.51817 h 3.797853 q 0.338422,0.047 0.639242,0.17861 1.974131,1.09047 1.269084,3.23381 -0.526435,0.89306 -1.410093,1.4289 -3.431229,1.66391 -5.696779,-1.39129 -0.526435,-0.83666 -0.648643,-1.81432 l -6.232615,1.09987 q 0.216215,2.10574 1.334889,3.90126 0.667444,0.91186 1.5041,1.68271 8.056336,6.0822 15.539233,-0.71445 2.9988,-3.80725 1.024669,-8.23494 -0.911861,-1.4853 -2.39716,-2.40656 1.372491,-0.87426 2.190346,-2.28436 2.566371,-5.57457 -2.434762,-9.137405 -8.169143,-4.944728 -14.965795,1.757917 -1.457097,2.152748 -1.551104,4.756718 z m 46.428648,-2.58517 q -1.663911,-3.327825 -4.991732,-4.972934 -9.278417,-3.468831 -14.420559,5.001134 -3.374825,7.71791 -0.103407,15.47343 1.692112,3.48763 5.179744,5.17974 9.391225,3.40303 14.486364,-5.18914 3.074004,-7.77432 -0.15041,-15.49223 z m -4.672111,11.38415 q -0.08461,0.44183 -0.235016,0.86486 -2.039935,4.25848 -6.599238,3.0458 -2.744983,-1.04347 -3.30902,-3.91066 -0.319622,-2.72618 -0.112808,-5.45236 0.047,-0.45123 0.0658,-0.90246 0.263218,-3.73205 3.844856,-4.80372 0.686246,-0.18801 1.391293,-0.17861 4.634508,0.50763 5.001132,5.15154 l 0.0094,0.0658 q 0.319621,3.0552 -0.0564,6.1198 z"
       id="text4450"
       style="font-size:37.6025px;line-height:22.0327px;font-family:Ccrige;-inkscape-font-specification:Ccrige;letter-spacing:-0.0668118px;word-spacing:0px;fill:#ffffff;stroke-width:0.0941014px"
       aria-label="30" />
    <path
       style="display:inline;fill:#ed1c24;fill-rule:evenodd;stroke-width:0.0941014"
       inkscape:connector-curvature="0"
       d="m 76.64677,88.103404 c 1.544591,1.500337 2.502915,2.781299 2.502915,2.781299 l -40.62905,40.452007 c 0,0 -1.526123,-1.20334 -2.790025,-2.47468 -1.254021,-1.26108 -2.432867,-2.88137 -2.432867,-2.88137 L 73.763866,85.618452 c 0,8.94e-4 1.332924,0.979482 2.882648,2.484567 v 3.77e-4 z"
       id="path3090" />
  </g>
  <g
     inkscape:groupmode="layer"
     id="layer8"
     inkscape:label="Capa 3"
     style="display:inline" />
  <g
     inkscape:groupmode="layer"
     id="layer7"
     inkscape:label="Capa 2" />
</svg>
