<?xml version="1.0" encoding="UTF-8" standalone="no"?>
<svg
   version="1.1"
   id="Layer_1"
   x="0px"
   y="0px"
   width="64"
   height="64"
   viewBox="-360.791 -360.781 64 63.999999"
   xml:space="preserve"
   sodipodi:docname="ES_R301.svg"
   inkscape:version="1.3 (0e150ed6c4, 2023-07-21)"
   xmlns:inkscape="http://www.inkscape.org/namespaces/inkscape"
   xmlns:sodipodi="http://sodipodi.sourceforge.net/DTD/sodipodi-0.dtd"
   xmlns="http://www.w3.org/2000/svg"
   xmlns:svg="http://www.w3.org/2000/svg"><defs
   id="defs4" /><sodipodi:namedview
   id="namedview4"
   pagecolor="#ffffff"
   bordercolor="#000000"
   borderopacity="0.25"
   inkscape:showpageshadow="2"
   inkscape:pageopacity="0.0"
   inkscape:pagecheckerboard="true"
   inkscape:deskcolor="#d1d1d1"
   inkscape:zoom="5.6568542"
   inkscape:cx="68.677747"
   inkscape:cy="54.535611"
   inkscape:window-width="1920"
   inkscape:window-height="1017"
   inkscape:window-x="-8"
   inkscape:window-y="-8"
   inkscape:window-maximized="1"
   inkscape:current-layer="Layer_1" />&#10;<path
   fill="#e41408"
   d="m -360.791,-329.03156 c 0,-17.5345 14.21626,-31.74944 31.75274,-31.74944 17.53326,0 31.75142,14.21494 31.75142,31.74944 0,17.53516 -14.21816,31.75207 -31.75142,31.75207 -17.53648,0 -31.75274,-14.21691 -31.75274,-31.75207"
   id="path1"
   style="stroke-width:0.0825061" />&#10;<path
   fill="#ffffff"
   d="m -352.32246,-329.03156 c 0,-12.85878 10.42352,-23.28354 23.2842,-23.28354 12.85878,0 23.28164,10.42484 23.28164,23.28354 0,12.86067 -10.42286,23.28231 -23.28164,23.28231 -12.86068,0 -23.2842,-10.42164 -23.2842,-23.28231"
   id="path2"
   style="stroke-width:0.0825061" />&#10;<path
   fill-rule="evenodd"
   d="m -345.4015,-324.77168 c 0.32425,1.61729 1.455,3.23029 2.91222,4.03688 1.13075,0.65262 2.91223,1.13058 4.20296,1.13058 3.06577,0 5.98023,-2.26166 6.7845,-5.16746 0.32656,-1.77917 0,-4.04504 -0.80427,-5.65383 -0.48646,-0.65279 -1.13058,-1.45921 -1.94145,-1.78354 -1.6173,-1.13074 -4.19884,-1.29725 -6.14467,-0.64429 l 0.16435,-1.77933 h 7.92177 v -4.04092 h -11.79841 l -1.13058,9.85687 4.36078,0.65279 c 0.48218,-0.80633 1.45723,-1.29716 2.26166,-1.45928 0.81055,0 1.77712,0.48216 2.26151,1.29279 0.48637,0.65295 0.65279,1.62158 0.48637,2.2615 -0.15997,1.29724 -1.29081,2.42816 -2.74788,2.42816 -1.29509,0 -2.58169,-0.96434 -2.74589,-2.42816 l -4.04297,1.29724"
   id="path3"
   style="stroke-width:0.0825061" />&#10;<path
   fill-rule="evenodd"
   d="m -312.85266,-333.42231 c -0.94536,-3.36898 -4.17886,-5.79565 -7.68654,-5.79565 -3.36898,0 -6.60249,2.42667 -7.5481,5.79565 -0.40328,2.4266 -0.40328,5.79567 0,8.08687 0.94561,3.36906 4.17912,5.79566 7.5481,5.79566 3.50768,0 6.74118,-2.4266 7.68654,-5.79566 0.53927,-2.29113 0.53927,-5.66019 0,-8.08687 z m -4.17886,6.73814 c -0.26765,1.61671 -1.75557,2.82997 -3.36907,2.82997 -1.75516,0 -3.23656,-1.21326 -3.50759,-2.82997 -0.26798,-1.61697 -0.26798,-3.77244 0,-5.25682 0.27103,-1.74929 1.75235,-2.96255 3.50759,-2.96255 1.6135,0 3.10142,1.21326 3.36907,2.96255 0.27119,1.48438 0.27119,3.63994 0,5.25682 z"
   id="path4"
   style="stroke-width:0.0825061" />&#10;</svg>
